<?xml version="1.0" encoding="utf-8"?>
<!-- Generator: Adobe Illustrator 21.1.0, SVG Export Plug-In . SVG Version: 6.00 Build 0)  -->
<svg version="1.1" baseProfile="tiny" id="Слой_1"
	 xmlns="http://www.w3.org/2000/svg" xmlns:xlink="http://www.w3.org/1999/xlink" x="0px" y="0px" viewBox="0 0 512 512"
	 overflow="scroll" xml:space="preserve">
<g>
	<path fill="#F1919C" d="M229.3,416l-5.8-1.6C197.9,407.1,25.3,301.9,7.1,246.4c-8.7-26.6-8.3-54.6,1.2-78.7
		c9.8-24.9,28-42.8,51.2-50.5c25.8-8.4,55.1-2.4,78.5,15.5c8.3-28.6,27.9-50.4,54.2-59c7.8-2.6,15.9-3.8,24.2-3.8
		c40.8,0,79.6,31.6,94.5,76.9c17.3,52.9-47.1,241.7-76.9,265.5L229.3,416z M83.7,136.8c-5.8,0-11.5,0.9-16.9,2.7
		C50.3,144.9,37.2,158,30,176.3c-7.5,19.1-7.7,41.4-0.7,62.9c13.7,41.6,158,132.8,194.2,150.1c22.7-32.4,79.3-192.2,65.2-235.1
		c-11.8-35.8-41.5-60.8-72.3-60.8c-5.8,0-11.5,0.9-16.9,2.7c-23.6,7.7-39.8,31.1-42.2,60.9l-2.3,27.7l-18.2-21
		C122,146.5,102.7,136.8,83.7,136.8z"/>
	<path id="XMLID_4746_" fill="#F1919C" d="M495.6,319.4c-13.5-8.4-30.9-6.3-45.1,3.7c2.7-17.1-3.1-33.7-16.6-42.1
		c-19.1-11.9-46.2-2.8-60.6,20.3c-14.4,23.1,0.9,125.9,5.8,136.7c15.5,3.1,110.7-32.2,125.1-55.3
		C518.5,359.7,514.7,331.3,495.6,319.4z"/>
</g>
</svg>
