<?xml version="1.0" encoding="iso-8859-1"?>
<!-- Generator: Adobe Illustrator 21.1.0, SVG Export Plug-In . SVG Version: 6.00 Build 0)  -->
<svg version="1.1" baseProfile="tiny" id="Layer_1" xmlns="http://www.w3.org/2000/svg" xmlns:xlink="http://www.w3.org/1999/xlink"
	 x="0px" y="0px" viewBox="-49 141 512 512" overflow="scroll" xml:space="preserve" fill="#000000" stroke="#000000" stroke-width="0" stroke-opacity="1.0" fill-opacity="1.0">

<defs>
  <linearGradient id="retain_CBB292">
    <stop offset="0" stop-color="#CBB292" stop-opacity="1"/>
    <stop offset="1" stop-color="#CBB292" stop-opacity="1"/>
  </linearGradient> 
  <linearGradient id="retain_FECE00">
    <stop offset="0" stop-color="#FECE00" stop-opacity="1"/>
    <stop offset="1" stop-color="#FECE00" stop-opacity="1"/>
  </linearGradient> 
  <linearGradient id="retain_EA4344">
    <stop offset="0" stop-color="#EA4344" stop-opacity="1"/>
    <stop offset="1" stop-color="#EA4344" stop-opacity="1"/>
  </linearGradient> 
  <linearGradient id="retain_8FE5F7">
    <stop offset="0" stop-color="#8FE5F7" stop-opacity="1"/>
    <stop offset="1" stop-color="#8FE5F7" stop-opacity="1"/>
  </linearGradient> 
  <linearGradient id="retain_FFBC00">
    <stop offset="0" stop-color="#FFBC00" stop-opacity="1"/>
    <stop offset="1" stop-color="#FFBC00" stop-opacity="1"/>
  </linearGradient> 
  <linearGradient id="retain_E8E1C7">
    <stop offset="0" stop-color="#E8E1C7" stop-opacity="1"/>
    <stop offset="1" stop-color="#E8E1C7" stop-opacity="1"/>
  </linearGradient> 
</defs>

<path fill="url(#retain_CBB292)" d="M354.62,214.225c-8.114-4.047-18.96-0.593-22.639,8.57l-38.513,95.919c-0.31,0.588-0.601,1.195-0.857,1.832
	l-87.917,218.965l33.342,4.803l39.255-97.768l0.115,0.017l85.137-211.646C366.221,225.755,362.735,218.272,354.62,214.225z"/>
<path fill="url(#retain_E8E1C7)" d="M348.833,226.054l-72.28,7.769l-45.908,53.467l0.008,67.849l0.033-0.013
	c-0.003,0.008-0.007,0.016-0.011,0.024c0.011-0.024,115.098,45.954,114.889,45.571l0.209,0.383l37.761-37.387l4.212-93.293
	L348.833,226.054z"/>
<path fill="url(#retain_FECE00)" d="M412.612,608.224c-24.34-42.99-106.776-74.625-204.726-74.625c-97.947,0-180.38,31.634-204.723,74.62
	l13.675,0.004l29.677,21.028L77.721,633l21.992-14.039l34.908-14.068l18.733,5.621L193.208,633l26.286-4.685l33.917-13.983
	l24.59-8.502l31.373,8.502L334.813,633l40.701-5.621L412.612,608.224z"/>
<path fill="url(#retain_FFBC00)" d="M412.61,608.226l-37.1,19.148l-40.7,5.624l-25.44-18.662L278,605.828l-24.59,8.508l-33.92,13.977
	L207,630.546V533.6h0.89C305.84,533.6,388.27,565.234,412.61,608.226z"/>
<g>
	<path fill="url(#retain_EA4344)" d="M230.652,355.138c-115.152-45.878-1.467-0.585-115.152-45.878c0,0,97.311-137.421,233.334-83.207
		c0,0-71.333,19.079-118.188,129.164L230.652,355.138z"/>
	<path fill="url(#retain_EA4344)" d="M345.821,401.041c-0.049,0.062,115.14,45.909,115.14,45.909s23.894-166.682-112.129-220.896
		c0,0,38.653,62.915-3.06,175.049L345.821,401.041z"/>
</g>
<path fill="url(#retain_8FE5F7)" d="M456.211,626.668l-31.987-18.545c-23.588-15.09-52.736-15.011-76.244,0.238l-0.794,0.556
	c-11.873,7.704-26.358,8.419-38.728,2.164c-0.04-0.02-0.079-0.04-0.119-0.06l-3.772-2.194l-0.347-0.228
	c-2.8-1.817-5.679-3.415-8.617-4.795c-0.218-0.099-0.437-0.208-0.645-0.308c-21.871-10.245-47.077-8.617-67.855,4.865l-0.804,0.556
	c-4.07,2.641-8.448,4.458-12.936,5.46c-0.079,0.02-0.159,0.04-0.248,0.05c-9.54,1.747-19.508-0.169-28.105-5.748
	c-10.801-6.989-22.714-10.801-34.786-11.437c-0.119,0.01-0.248,0.02-0.367,0.03c-14.832-1.042-29.882,2.73-43.156,11.327
	l-0.079,0.079c-13.104,8.498-29.396,8.498-42.5,0c-10.791-6.989-22.705-10.801-34.777-11.437c-37.924,2.82-71.4,29.755-71.4,29.755
	c-6.675,4.774-8.851,13.626-5.147,20.405c3.174,5.811,14.439,7.163,22.223,3.748l29.376-18.397c13.114-8.498,29.396-8.498,42.5,0
	c7.863,5.093,16.351,8.488,25.037,10.196c17.473,3.445,35.789,0.04,51.594-10.196l0.089-0.079c7.376-4.785,15.745-6.87,23.995-6.274
	h0.05c6.393,0.477,12.717,2.561,18.446,6.274l0.467,0.318c16.033,10.384,34.657,13.73,52.358,10.047
	c8.846-1.678,17.493-5.103,25.484-10.285l0.079-0.079c11.466-7.436,25.365-8.369,37.437-2.79c0.288,0.129,0.576,0.268,0.854,0.417
	c1.261,0.635,2.502,1.35,3.713,2.134l0.407,0.238l0.556,0.318c0.05,0.03,0.109,0.069,0.159,0.099
	c1.797,1.162,3.624,2.234,5.49,3.217c0.01,0,0.03,0.01,0.05,0.02c15.249,8.051,32.354,10.146,48.566,6.284
	c7.763-1.847,15.318-5.053,22.377-9.62l0.794-0.556c13.104-8.498,29.386-8.498,42.49,0l0.397,0.238l31.848,18.634
	c5.044,2.292,17.28,3.559,21.64-5.063C464.034,640.784,464.233,631.275,456.211,626.668z"/>
<circle fill="url(#retain_FECE00)" cx="33.25" cy="223.25" r="42.731"/>
<path fill="url(#retain_FFBC00)" d="M-15.907,223.25c0,3.343-2.71,6.054-6.054,6.054h-20.986c-3.343,0-6.054-2.71-6.054-6.054
	s2.71-6.054,6.054-6.054h20.986C-18.618,217.196-15.907,219.907-15.907,223.25z"/>
<path fill="url(#retain_FFBC00)" d="M115.5,223.25c0,3.343-2.71,6.054-6.054,6.054H88.461c-3.343,0-6.054-2.71-6.054-6.054
	s2.71-6.054,6.054-6.054h20.986C112.79,217.196,115.5,219.907,115.5,223.25z"/>
<path fill="url(#retain_FFBC00)" d="M33.25,174.093c-3.343,0-6.054-2.71-6.054-6.054v-20.986c0-3.343,2.71-6.054,6.054-6.054
	s6.054,2.71,6.054,6.054v20.986C39.304,171.382,36.593,174.093,33.25,174.093z"/>
<path fill="url(#retain_FFBC00)" d="M33.25,305.5c-3.343,0-6.054-2.71-6.054-6.054v-20.986c0-3.343,2.71-6.054,6.054-6.054
	s6.054,2.71,6.054,6.054v20.986C39.304,302.79,36.593,305.5,33.25,305.5z"/>
<path fill="url(#retain_FFBC00)" d="M-0.973,188.491c-2.364,2.364-6.197,2.364-8.561,0l-14.839-14.839c-2.364-2.364-2.364-6.197,0-8.561
	s6.197-2.364,8.561,0l14.839,14.839C1.391,182.294,1.391,186.127-0.973,188.491z"/>
<path fill="url(#retain_FFBC00)" d="M91.946,281.41c-2.364,2.364-6.197,2.364-8.561,0L68.546,266.57c-2.364-2.364-2.364-6.197,0-8.561
	c2.364-2.364,6.197-2.364,8.561,0l14.839,14.839C94.31,275.212,94.31,279.046,91.946,281.41z"/>
<path fill="url(#retain_FFBC00)" d="M68.546,188.491c-2.364-2.364-2.364-6.197,0-8.561l14.839-14.839c2.364-2.364,6.197-2.364,8.561,0
	s2.364,6.197,0,8.561l-14.839,14.839C74.743,190.855,70.91,190.855,68.546,188.491z"/>
<path fill="url(#retain_FFBC00)" d="M-24.373,281.41c-2.364-2.364-2.364-6.197,0-8.561l14.839-14.839c2.364-2.364,6.197-2.364,8.561,0
	s2.364,6.197,0,8.561l-14.839,14.839C-18.176,283.773-22.009,283.773-24.373,281.41z"/>
</svg>
