<?xml version="1.0" encoding="utf-8"?>
<!-- Generator: Adobe Illustrator 21.1.0, SVG Export Plug-In . SVG Version: 6.00 Build 0)  -->
<svg version="1.1" baseProfile="tiny" id="Слой_1"
	 xmlns="http://www.w3.org/2000/svg" xmlns:xlink="http://www.w3.org/1999/xlink" x="0px" y="0px" viewBox="0 0 512 512"
	 overflow="scroll" xml:space="preserve">
<g>
	<g id="XMLID_86_">
		<g>
			<ellipse id="XMLID_25_" fill="#FECE00" cx="258.3" cy="256.7" rx="228.6" ry="223.6"/>
			<path id="XMLID_24_" fill="#403408" d="M487.5,256.7c0,29.7-5.7,59.3-16.9,87c-1.4,3.4-3,6.8-4.4,10.3c-1.6,3.4-3.3,6.7-4.9,10
				l-5.4,9.8l-5.9,9.5c-8.2,12.5-17.6,24.3-28.2,35c-10.6,10.7-22.2,20.5-34.8,28.8l-4.8,3.1c-1.6,1-3.2,2.1-4.8,3l-4.9,2.9
				l-2.5,1.4c-0.8,0.5-1.7,0.9-2.5,1.3c-6.7,3.5-13.5,6.8-20.5,9.6c-28,11.4-58.4,17.1-88.6,16.7c-15.1-0.2-30.2-1.9-44.9-5
				c-14.7-3.1-29.2-7.7-43-13.6c-13.8-5.9-27.1-13-39.5-21.4c-12.4-8.3-24.1-17.8-34.7-28.2c-21.4-20.9-38.7-45.8-50.7-73.2
				c-1.4-3.5-2.9-6.9-4.2-10.4c-1.2-3.5-2.6-7-3.7-10.6c-1.1-3.6-2.2-7.1-3.2-10.7c-0.9-3.6-1.9-7.2-2.7-10.9
				c-3.2-14.6-5-29.6-5.3-44.6c-0.5-30,5-60.3,16.6-88.3c11.5-28,29-53.5,50.6-74.7c10.8-10.6,22.7-20.2,35.4-28.5
				c12.7-8.3,26.2-15.4,40.3-21.2c14.1-5.8,28.7-10.1,43.7-12.9c14.9-2.9,30.1-4.4,45.3-4.3c15.2,0.1,30.4,1.6,45.3,4.6
				c14.9,2.9,29.5,7.3,43.5,13.2c7,2.9,13.9,6.2,20.5,9.7c0.8,0.4,1.7,0.9,2.5,1.3l2.4,1.4l4.9,2.9c1.6,0.9,3.2,2,4.8,3l4.7,3.1
				c12.6,8.4,24.1,18.2,34.7,29c10.5,10.8,20,22.5,28.2,35.1l5.9,9.6l5.4,9.8c1.6,3.4,3.3,6.7,4.9,10.1c1.5,3.4,3,6.8,4.4,10.3
				C481.9,197.3,487.5,227.1,487.5,256.7z M486.3,256.7c0-29.5-6.4-59-18.6-85.8c-12.1-26.8-30-50.7-51.4-70.4
				c-10.7-9.8-22.4-18.5-34.7-26.2l-4.7-2.8c-1.5-0.9-3.1-1.9-4.7-2.7l-4.8-2.6l-2.4-1.3c-0.8-0.4-1.6-0.8-2.4-1.2
				c-6.5-3.2-13.1-6.2-19.8-8.8c-13.5-5.2-27.4-9.2-41.5-11.8c-14.2-2.6-28.6-3.9-43-3.8c-14.4,0.1-28.8,1.4-42.9,4.1
				c-14.1,2.7-28,6.8-41.4,12c-26.8,10.6-51.5,26.3-72.5,46.2c-20.9,19.9-37.9,43.9-49.7,70.4c-5.9,13.2-10.5,27.1-13.6,41.2
				c-3.2,14.2-4.9,28.7-5.2,43.3c-0.5,29.2,4.9,58.6,16.3,85.6c5.6,13.5,12.8,26.5,21.1,38.6c8.3,12.1,18,23.3,28.6,33.4
				c10.6,10.1,22.3,19.1,34.7,26.9c12.4,7.7,25.6,14.3,39.3,19.4c27.3,10.3,56.5,15.1,85.4,14.8c58-0.6,115.2-22.9,158.1-62.4
				c21.4-19.7,39.3-43.6,51.4-70.4C480,315.8,486.3,286.3,486.3,256.7z"/>
		</g>
		<path fill="#EAB51F" d="M354.3,453.9c-27.4,14.6-70.2,22.8-109.4,21.3c-76.7-3-158.8-45.1-194.1-129.1C7,242,54.9,166,61.9,152.4
			c0,0-7.4,48.3,11.8,109c5.5,17.3,13.1,35.5,23.6,53.9c11.6,20.2,26.7,40.7,46.4,60.2C258,488.8,352,454.8,354.3,453.9z"/>
		<g>
			<path id="XMLID_23_" fill="#FFFFFF" d="M155.8,297.8c-4.4,0-7.4,4.3-5.7,8.3c8.6,20.5,37.2,72.1,108.3,72.1
				c71,0,100.3-51.9,109.2-72.6c1.7-4-1.3-8.3-5.7-8.3L155.8,297.8z"/>
			<path fill="#403408" d="M258.4,381.8c-72.7,0-102.3-52-111.7-74.3c-1.2-2.9-0.9-6.3,0.9-9c1.8-2.7,4.9-4.4,8.2-4.4l206.1-0.6
				c0,0,0,0,0,0c3.3,0,6.4,1.6,8.3,4.4c1.8,2.7,2.1,6.1,0.8,9C361.4,329.4,331.1,381.8,258.4,381.8z M361.9,300.9
				C361.9,300.9,361.9,300.9,361.9,300.9l-206.1,0.6c-1.2,0-1.9,0.8-2.1,1.1c-0.2,0.4-0.6,1.1-0.2,2.1c8.8,21,36.6,69.8,104.9,69.8
				c68.3,0,96.8-49.2,105.8-70.4c0.4-0.9,0-1.7-0.2-2.1C363.8,301.6,363.2,300.9,361.9,300.9z M155.8,297.8L155.8,297.8L155.8,297.8
				z"/>
		</g>
		<path fill="#F2F2F2" d="M204.2,331.4c-0.1,0-0.1,0-0.2,0c-19.9-2.4-21.5-2.6-41.4-9.9c-0.9-0.3-1.3-1.3-1-2.1
			c0.3-0.9,1.3-1.3,2.1-1c19.5,7.2,20.6,7.3,40.6,9.7c0.9,0.1,1.6,0.9,1.4,1.8C205.7,330.8,205,331.4,204.2,331.4z"/>
		<path fill="#F2F2F2" d="M321.3,330.3c-0.8,0-1.5-0.6-1.6-1.4c-0.1-0.9,0.5-1.8,1.4-1.9c15.8-2.6,16.4-2.8,32.2-8.3
			c0.9-0.3,1.8,0.1,2.1,1c0.3,0.9-0.1,1.8-1,2.1c-15.9,5.6-16.9,5.9-32.8,8.5C321.5,330.3,321.4,330.3,321.3,330.3z"/>
		<path id="XMLID_30_" fill="#F7984B" d="M132,282.8c0,18-14.9,32.5-33.3,32.5c-18.4,0-33.3-14.6-33.3-32.5
			c0-18,14.9-32.5,33.3-32.5C117.1,250.3,132,264.8,132,282.8z"/>
		<ellipse id="XMLID_29_" fill="#F7984B" cx="418.9" cy="282.8" rx="33.3" ry="32.5"/>
		<g id="XMLID_22_">
			<path fill="#403408" d="M137.3,251c-1.8,0-3.6-1-4.6-2.7c-1.4-2.5-0.5-5.7,2-7.1l46.2-25.6l-46.7-25.9c-2.5-1.4-3.4-4.6-2-7.1
				c1.4-2.5,4.6-3.4,7.1-2l54.9,30.5c1.7,0.9,2.7,2.7,2.7,4.6c0,1.9-1,3.6-2.7,4.6l-54.4,30.2C139.1,250.8,138.2,251,137.3,251z"/>
			<path fill="#403408" d="M380.7,250.9c-0.9,0-1.7-0.2-2.5-0.7l-53.6-30.5c-1.6-0.9-2.6-2.6-2.6-4.5c0-1.9,1-3.6,2.6-4.5l53.2-30.2
				c2.5-1.4,5.6-0.5,7,1.9c1.4,2.5,0.5,5.6-1.9,7l-45.3,25.7l45.7,26c2.5,1.4,3.3,4.5,1.9,7C384.2,250,382.5,250.9,380.7,250.9z"/>
		</g>
	</g>
	<path fill="#EF8E5A" d="M97.4,315.3c-17.7-0.7-31.9-15-31.9-32.5c0-8.2,3.1-15.7,8.2-21.4C79.2,278.6,86.8,296.9,97.4,315.3z"/>
</g>
</svg>
