<?xml version="1.0" encoding="utf-8"?>
<!-- Generator: Adobe Illustrator 21.1.0, SVG Export Plug-In . SVG Version: 6.00 Build 0)  -->
<svg version="1.1" baseProfile="tiny" id="Слой_1"
	 xmlns="http://www.w3.org/2000/svg" xmlns:xlink="http://www.w3.org/1999/xlink" x="0px" y="0px" viewBox="0 0 512 512"
	 overflow="scroll" xml:space="preserve">
<g>
	<path fill="#161616" d="M0.5,197.7c0,0,50.6-18.2,122.7-17.9c71.8,0.3,108.3,33.4,133.2,33.5l-0.1,20.2c-5.4,0-12.7,2.3-14.7,7.8
		c-2.1,5.5-10.9,68.3-62.1,86.8c-52.2,18.9-109,10.4-129-14.7c-20-25.1-21-73.9-28.8-82c-6.5-6.8-21.3-10.3-21.3-10.3L0.5,197.7z"/>
	<path fill="#4C83AA" d="M120.6,322c-25.9-0.1-48.4-7.5-57.4-18.8c-9.8-12.2-14.5-34.6-18-50.9c-7.9-37.3-5.7-56.5,77.9-56.1
		c11.2,0.1,110.5,6.9,101.4,45.2c-3.4,14.3-13.7,57.8-50.7,71.2C156.8,318.8,138.4,322,120.6,322z"/>
	<path fill="#161616" d="M512.3,200.3c0,0-50.4-18.7-122.5-19.1c-71.8-0.4-108.6,32.3-133.5,32.1l-0.1,20.2c5.4,0,12.6,2.5,14.7,7.9
		c2,5.5,10.2,68.4,61.2,87.5c52,19.4,108.9,11.5,129.2-13.3c20.3-24.9,21.8-73.6,29.6-81.7c6.5-6.7,21.4-10,21.4-10L512.3,200.3z"/>
	<path fill="#4C83AA" d="M391,323.3c25.9,0.1,48.5-7,57.6-18.2c9.9-12.1,14.9-34.4,18.5-50.7c8.3-37.2,6.3-56.5-77.4-56.9
		c-11.2-0.1-110.5,5.8-101.8,44.2c3.2,14.3,13.1,58,50,71.7C354.8,319.8,373.2,323.2,391,323.3z"/>
	<path fill="#406687" d="M389.7,200.6c63.5,0.3,80,11.5,80.6,33.2c0.8-23.7-14.1-35.9-80.5-36.2c-10.9-0.1-105.1,5.5-102.3,41.1
		C290.1,205.7,379.1,200.5,389.7,200.6z"/>
	<path fill="#406687" d="M123.1,199.2c-63.5-0.3-80.1,10.7-80.9,32.4c-0.6-23.7,14.5-35.7,80.9-35.4c10.9,0.1,105,6.6,101.9,42.1
		C222.7,205.4,133.7,199.3,123.1,199.2z"/>
</g>
</svg>
