<?xml version="1.0" encoding="utf-8"?>
<!-- Generator: Adobe Illustrator 21.1.0, SVG Export Plug-In . SVG Version: 6.00 Build 0)  -->
<svg version="1.1" baseProfile="tiny" id="Слой_1"
	 xmlns="http://www.w3.org/2000/svg" xmlns:xlink="http://www.w3.org/1999/xlink" x="0px" y="0px" viewBox="0 0 185.1 128.5"
	 fill="#000000" stroke="#000000" stroke-width="0" stroke-opacity="1.0" fill-opacity="1.0" >

   <defs>
  <linearGradient id="retain_F05A28">
    <stop offset="0" stop-color="#F05A28" stop-opacity="1"/>
    <stop offset="1" stop-color="#F05A28" stop-opacity="1"/>
  </linearGradient>
  <linearGradient id="retain_F93E0B">
    <stop offset="0" stop-color="#F93E0B" stop-opacity="1"/>
    <stop offset="1" stop-color="#F93E0B" stop-opacity="1"/>
  </linearGradient>
  <linearGradient id="retain_ffffff">
    <stop offset="0" stop-color="#ffffff" stop-opacity="1"/>
    <stop offset="1" stop-color="#ffffff" stop-opacity="1"/>
  </linearGradient>

  <linearGradient id="retain_E71921">
    <stop offset="0" stop-color="#E71921" stop-opacity="1"/>
    <stop offset="1" stop-color="#E71921" stop-opacity="1"/>
  </linearGradient>

  <linearGradient id="retain_211212">
    <stop offset="0" stop-color="#211212" stop-opacity="1"/>
    <stop offset="1" stop-color="#211212" stop-opacity="1"/>
  </linearGradient>

  <linearGradient id="retain_F70003">
    <stop offset="0" stop-color="#F70003" stop-opacity="1"/>
    <stop offset="1" stop-color="#F70003" stop-opacity="1"/>
  </linearGradient>

  <linearGradient id="retain_FFF502">
    <stop offset="0" stop-color="#FFF502" stop-opacity="1"/>
    <stop offset="1" stop-color="#FFF502" stop-opacity="1"/>
  </linearGradient>
</defs>

<title>Ресурс 2</title>
<g id="Слой_2">
	<g id="Слой_1-2">
		<g id="Layer_4">
			<polygon points="96,128.5 89.6,102.1 71.2,117.5 76,98.9 43.4,111.1 56.3,92.2 27,91.7 44.9,80.8 6.8,68.2 52,60.1 27.3,36 
				55.9,43.1 53.2,26.7 73.5,36.1 76.2,9.4 91.3,34.1 106,18.2 104.5,38.6 135.8,28 119,47.7 146.6,43.9 132.6,61.1 176,72.3 
				127.9,79.5 146.2,98.4 115.9,93.2 120.4,111.1 105.2,101.9 			"/>
			<polygon fill="url(#retain_F05A28)" points="96,122.5 89.6,96.2 71.2,111.6 76,93 43.4,105.1 56.3,86.2 27,85.7 44.9,74.8 6.8,62.2 52,54.1 
				27.3,30 55.9,37.1 53.2,20.7 73.5,30.1 76.2,3.4 91.3,28.2 106,12.2 104.5,32.6 135.8,22 119,41.7 146.6,37.9 132.6,55.2 
				176,66.4 127.9,73.6 146.2,92.4 115.9,87.2 120.4,105.1 105.2,95.9 			"/>
			<path fill="url(#retain_F93E0B)" d="M88.9,98.2l-19.6,16.4l5.1-19.9l-33.9,12.6l13.7-20.1l-31.1-0.5L42.2,75L6.5,63.3L0,61.9l6.7-0.8l43-7.7
				l-26-25.5l30.9,7.7l-2.7-16.8l20.7,9.7l3-28.5l16,26.4l15.8-17.2l-1.6,21.9l33.6-11.3l-17.6,20.5l27.5-3.8l-14.7,18.1l41.7,10.8
				l8.8,1.6l-8.9,0.6l-45.9,6.9l19.1,19.7l-32-5.5l4.7,18.8l-16.4-9.9L97,122.9l-1.2,3.6L88.9,98.2z M96,122.5l1.1-0.3L96,122.5z
				 M96.2,118.5l8.3-24.3l14.1,8.5l-4.3-16.9l28.6,4.9l-17.4-17.9l44.8-6.7l-39.8-10.3l13.3-16.5l-27.7,3.8l16.1-18.8l-29.1,9.8
				l1.4-18.8L91,30L76.9,6.8l-2.6,25l-19.6-9.2l2.6,16l-26.2-6.5l23.2,22.7l-42.9,7.8l36.2,12L30.9,84.8l27.5,0.5L46.3,103
				l31.3-11.7l-4.4,17.3l17.1-14.3C90.3,94.3,96.2,118.5,96.2,118.5z"/>
			<polygon fill="url(#retain_F05A28)" points="95.6,117.6 89.7,93.4 72.9,107.6 77.2,90.5 47.4,101.6 59.2,84.3 32.3,83.9 48.7,73.8 13.8,62.3 
				55.2,54.9 32.6,32.8 58.8,39.3 56.4,24.2 74.9,32.9 77.5,8.3 91.3,31.1 104.8,16.4 103.4,35.1 132.2,25.4 116.7,43.5 142,40 
				129.2,55.8 169,66.1 124.9,72.7 141.7,90 113.9,85.2 118,101.6 104,93.2 			"/>
			<path fill="url(#retain_ffffff)" d="M89.5,94.1l-17.3,14.5l4.5-17.5l-30.3,11.3l12.1-17.7L31,84.2l16.8-10.3L13.7,62.6l0.1-0.7l40.6-7.3
				l-23-22.5l27,6.7l-2.5-15.2l18.7,8.7l2.6-25.1l14.2,23.2l13.8-15l-1.4,19.2l29.5-10l-15.7,18.3l25.3-3.5l-13.1,16.2l39.3,10.1
				v0.7l-43.4,6.5l17.1,17.6l-28.4-4.9l4.2,16.7l-14.4-8.7l-8.2,24l-0.4,1.2L89.5,94.1z M95.6,117.6l0.4-0.1L95.6,117.6z
				 M95.7,116.3l8.1-23.6l13.6,8.2l-4-16.1l27.3,4.7l-16.5-17l43-6.4l-38.6-10l12.6-15.6L115.8,44L131,26.3l-28,9.4l1.3-18.2
				L91.2,31.7L77.7,9.5l-2.5,24l-18.4-8.6l2.4,14.9l-25.4-6.3l22.1,21.7l-40.7,7.3l34.3,11.3l-16,9.8L59.8,84l-11.6,16.9l29.4-11
				l-4.3,16.6l16.4-13.8L95.7,116.3z"/>
			<polygon points="51.8,47.3 49.6,47.6 49.8,49.8 50.9,61.9 50,62.5 48.1,49.9 47.8,47.8 45.6,48 36.2,49.1 33.6,49.3 34.3,51.8 
				39.1,69.9 36.5,72.9 33.6,76.3 38.1,76.6 40.4,76.8 42.4,84.9 43,87.3 45.3,86.5 49.4,85.1 51,84.5 50.9,82.9 50.6,74.1 
				52.4,73.4 52.6,82.1 52.6,84 54.5,84.2 59.6,84.9 62,85.3 62.1,82.8 63.7,48.6 63.8,46 61.2,46.3 			"/>
			<polygon fill="url(#retain_E71921)" points="59.9,84 57.4,83.7 52.4,83 50.5,82.7 50.4,80.8 50.2,72.2 48.4,72.8 48.8,81.6 48.8,83.3 
				47.3,83.8 43.2,85.3 40.9,86.1 40.3,83.7 38.3,75.5 35.9,75.3 31.5,75 34.4,71.7 36.9,68.7 32.1,50.6 31.5,48.1 34.1,47.8 
				43.5,46.8 45.6,46.5 45.9,48.6 47.9,61.3 48.7,60.7 47.7,48.5 47.5,46.3 49.6,46.1 59.1,45 61.7,44.8 61.5,47.4 60,81.6 			"/>
			<path fill="url(#retain_211212)" d="M40,83.7l-2-8l-2.2-0.2l-4.9-0.4l3.2-3.7l2.5-2.9l-4.8-18l-0.7-2.8l2.9-0.3l9.4-1l2.4-0.3l0.4,2.4
				l1.9,12.2l0.4-0.3l-1.1-12L47.2,46l2.4-0.3l9.4-1l2.9-0.3l-0.1,2.9l-1.6,34.3L60.1,84v0.3l-2.7-0.4l-5.1-0.7l-2.1-0.3l-0.1-2.1
				l-0.2-8.3L48.6,73l0.3,8.6l0.1,1.8L47.3,84l-4.1,1.4l-2.6,0.9L40,83.7z M43.5,47l-9.4,1l-2.3,0.3l0.6,2.2l4.8,18.2l-2.6,3.1
				l-2.6,3l3.9,0.3l2.5,0.2l2,8.4l0.5,2.1l2.1-0.7l4.1-1.4l1.4-0.5l-0.1-1.5l-0.3-9l2.3-0.8l0.2,9v1.7l1.7,0.2l5.1,0.7l2.1,0.3
				l0.1-2.2l1.6-34.2l0.1-2.3L59,45.4l-9.4,1l-1.9,0.2l0.2,1.9L49,60.8l-1.3,1l-2-13l-0.3-2L43.5,47z M59.9,84L59.9,84z"/>
			<path fill="url(#retain_E71921)" d="M42.4,83.2L40,73.4l-4-0.3l3.3-3.9L34.2,50l9.4-1l2.5,16.3l4.9-3.5l-1.2-13.4l9.4-1l-1.6,34.2l-5.1-0.7
				l-0.1-11.8l-6.3,2.2l0.4,10.4L42.4,83.2z"/>
			<path fill="url(#retain_211212)" d="M39.8,73.6l-4.3-0.3l3.6-4.1L34,49.8l10-1.1l2.4,16.1l4.4-3.2l-1.2-13.5l10-1.1L58,81.8L52.4,81
				l-0.3-11.6l-5.8,2l0.4,10.4l-4.3,1.5l-0.3,0.1C42.1,83.4,39.8,73.6,39.8,73.6z M42.4,83.2l0.2-0.1L42.4,83.2z M34.6,50.2
				l5.1,19.1l-3.1,3.6l3.6,0.3l2.4,9.7l3.7-1.3l-0.4-10.4l6.8-2.4L53,80.6l4.6,0.6L59,47.6l-8.9,1l1.2,13.3L46,65.8l-2.5-16.4
				C43.5,49.4,34.6,50.2,34.6,50.2z"/>
			<polygon fill="url(#retain_E71921)" points="59.9,84 57.4,83.7 52.4,83 50.5,82.7 50.4,80.8 50.2,72.2 48.4,72.8 48.8,81.6 48.8,83.3 
				47.3,83.8 43.2,85.3 40.9,86.1 40.3,83.7 38.3,75.5 35.9,75.3 31.5,75 34.4,71.7 36.9,68.7 32.1,50.6 31.5,48.1 34.1,47.8 
				43.5,46.8 45.6,46.5 45.9,48.6 47.9,61.3 48.7,60.7 47.7,48.5 47.5,46.3 49.6,46.1 59.1,45 61.7,44.8 61.5,47.4 60,81.6 			"/>
			<path fill="url(#retain_211212)" d="M40,83.7l-2-8l-2.2-0.2l-4.9-0.4l3.2-3.7l2.5-2.9l-4.8-18l-0.7-2.8l2.9-0.3l9.4-1l2.4-0.3l0.4,2.4
				l1.9,12.2l0.4-0.3l-1.1-12L47.2,46l2.4-0.3l9.4-1l2.9-0.3l-0.1,2.9l-1.6,34.3L60.1,84v0.3l-2.7-0.4l-5.1-0.7l-2.1-0.3l-0.1-2.1
				l-0.2-8.3L48.6,73l0.3,8.6l0.1,1.8L47.3,84l-4.1,1.4l-2.6,0.9L40,83.7z M43.5,47l-9.4,1l-2.3,0.3l0.6,2.2l4.8,18.2l-2.6,3.1
				l-2.6,3l3.9,0.3l2.5,0.2l2,8.4l0.5,2.1l2.1-0.7l4.1-1.4l1.4-0.5l-0.1-1.5l-0.3-9l2.3-0.8l0.2,9v1.7l1.7,0.2l5.1,0.7l2.1,0.3
				l0.1-2.2l1.6-34.2l0.1-2.3L59,45.4l-9.4,1l-1.9,0.2l0.2,1.9L49,60.8l-1.3,1l-2-13l-0.3-2L43.5,47z M59.9,84L59.9,84z"/>
			<path fill="url(#retain_E71921)" d="M42.4,83.2L40,73.4l-4-0.3l3.3-3.9L34.2,50l9.4-1l2.5,16.3l4.9-3.5l-1.2-13.4l9.4-1l-1.6,34.2l-5.1-0.7
				l-0.1-11.8l-6.3,2.2l0.4,10.4L42.4,83.2z"/>
			<path fill="url(#retain_211212)" d="M39.8,73.6l-4.3-0.3l3.6-4.1L34,49.8l10-1.1l2.4,16.1l4.4-3.2l-1.2-13.5l10-1.1L58,81.8L52.4,81
				l-0.3-11.6l-5.8,2l0.4,10.4l-4.3,1.5l-0.3,0.1C42.1,83.4,39.8,73.6,39.8,73.6z M42.4,83.2l0.2-0.1L42.4,83.2z M34.6,50.2
				l5.1,19.1l-3.1,3.6l3.6,0.3l2.4,9.7l3.7-1.3l-0.4-10.4l6.8-2.4L53,80.6l4.6,0.6L59,47.6l-8.9,1l1.2,13.3L46,65.8l-2.5-16.4
				C43.5,49.4,34.6,50.2,34.6,50.2z"/>
			<path fill="url(#retain_F70003)" d="M42.4,83.2L40,73.4l-4-0.3l3.3-3.9L34.2,50l9.4-1l2.5,16.3l4.9-3.5l-1.2-13.4l9.4-1l-1.6,34.2l-5.1-0.7
				l-0.1-11.8l-6.3,2.2l0.4,10.4L42.4,83.2z"/>
			<path fill="url(#retain_FFF502)" d="M42.4,83.2L40,73.4l-4-0.3l3.3-3.9L34.2,50l9.4-1l2.5,16.3l4.9-3.5l-1.2-13.4l9.4-1l-1.6,34.2l-5.1-0.7
				l-0.1-11.8l-6.3,2.2l0.4,10.4L42.4,83.2z"/>
			<path fill="url(#retain_ffffff)" d="M39.6,73.9l-4.7-0.3l3.9-4.5l-5.2-19.6l10.6-1.2l2.4,15.9l3.9-2.8l-1.2-13.6l10.6-1.2l-1.6,35.5l-6.1-0.8
				l-0.3-11.4l-5.2,1.7L47.1,82l-4.5,1.6L42,83.8C42,83.8,39.6,73.9,39.6,73.9z M42.4,83.2l0.5-0.1L42.4,83.2z M35,50.5l5,18.9
				l-2.8,3.2l3.3,0.2l2.3,9.5l3.1-1.1l-0.4-10.4l7.4-2.6l0.3,12l4,0.5l1.5-32.9l-8.2,0.9l1.2,13.2l-5.9,4.3l-2.5-16.6L35,50.5z"/>
			<path d="M88.7,52.2l-1.3-0.6l-6.5-3.2l-3.1-1.5l-0.1,3.5L77.2,74v0.4c0.1,0.7-0.2,1.3-0.6,1.8c-0.2,0.3-0.5,0.5-0.9,0.5
				c-0.1-0.1-0.5-0.6-0.6-2.2l0.7-25l0.1-4.7l-3.6,2.8L66,52.4L65.3,53l-0.1,0.9l-2.6,18.6v0.2c-0.2,4,0.6,7.9,2.2,11.5
				c2,4.2,5.2,6.6,9.1,6.6h0.7c13.5-0.6,14.1-13.5,14.3-17.7v-0.2l-0.2-19.3V52.2z"/>
			<path fill="url(#retain_E71921)" d="M71.5,89.4c-3.9-0.1-7.2-2.4-9.1-6.6c-1.6-3.6-2.3-7.6-2.2-11.5v-0.2l2.6-18.6l0.1-0.9l0.7-0.6l6.3-4.8
				l3.7-2.9L73.5,48l-0.7,25c0.1,1.6,0.5,2.1,0.6,2.2c0.4,0,0.7-0.2,0.9-0.5c0.4-0.5,0.7-1.1,0.6-1.8v-0.4l0.5-23.6l0.1-3.5l3.1,1.5
				l6.5,3.2l1.3,0.6v1.4l0.1,19.5v0.2c-0.2,4.2-0.8,17.1-14.3,17.7C72,89.4,71.7,89.4,71.5,89.4L71.5,89.4z"/>
			<path fill="url(#retain_211212)" d="M71.6,89.6L71.6,89.6c-4-0.1-7.4-2.5-9.3-6.8l0,0c-1.5-3.5-2.2-7.2-2.2-11l0,0v-0.6l0,0v-0.3l2.6-18.6
				l0.1-1l0.1-0.1l0.7-0.6l6.3-4.8l4.2-3.2l-0.2,5.2l-0.7,25c0.1,1.2,0.3,1.8,0.5,1.9l0,0c0.2-0.1,0.4-0.2,0.6-0.4l0,0
				c0.3-0.4,0.5-0.9,0.5-1.4l0,0v-0.2l0,0v-0.4l0.5-23.6l0.1-3.9l3.5,1.7l6.5,3.2l1.4,0.7V52l0.1,19.5v0.2
				C86.7,75.9,86,89,72.4,89.6H71.6z M71.8,89.1h0.5c13.3-0.6,13.9-13.2,14.1-17.5l0,0v-0.2l-0.1-19.5v-1.2l-1.1-0.5L78.7,47
				l-2.8-1.3l-0.1,3.1l-0.5,23.6V73l0,0c0,0.6-0.3,1.2-0.7,1.7l0,0c-0.3,0.3-0.7,0.5-1.1,0.6h-0.2c-0.3-0.2-0.6-0.8-0.8-2.4l0,0
				l0.7-25l0.1-4.2L70,46.3l-6.3,4.8l-0.4,0.5l-0.1,0.8L60.6,71v0.8l0,0c0,3.7,0.7,7.4,2.1,10.8l0,0c1.9,4.1,5.1,6.4,8.9,6.5
				C71.6,89.1,71.8,89.1,71.8,89.1z"/>
			<path fill="url(#retain_E71921)" d="M70.7,72.9c0.4,7.5,7.1,4.1,6.6-0.4l0.5-23.6l6.5,3.2l0.1,19.5c-0.3,7.1-2.3,15.1-12.2,15.6
				c-7.2,0.3-9.8-8.7-9.6-15.9l2.6-18.6l6.3-4.8L70.7,72.9z"/>
			<path fill="url(#retain_211212)" d="M62.3,71.8v-0.6l0,0l2.6-18.7l6.8-5.2L71,72.9c0.2,3.1,1.4,4.2,2.6,4.2l0,0c2-0.3,3.5-2,3.5-4l0,0v-0.5
				l0,0l0.5-24l7,3.4l0.1,19.6c-0.3,7.1-2.3,15.4-12.4,15.8h-0.4C64.8,87.3,62.3,78.8,62.3,71.8z M65.3,52.8l-2.6,18.4v0.5l0,0
				c-0.1,3.5,0.6,7,2.1,10.2l0,0c1.5,2.9,3.7,4.9,6.9,4.9h0.4c9.8-0.5,11.6-8.3,11.9-15.3l0,0l-0.1-19.3l-6.1-2.9l-0.4,23.1V73l0,0
				c0.1,2.3-1.7,4.3-4,4.5l0,0c-1.6,0-3-1.4-3.1-4.6l0,0L71,48.4L65.3,52.8z"/>
			<path fill="url(#retain_E71921)" d="M71.5,89.4c-3.9-0.1-7.2-2.4-9.1-6.6c-1.6-3.6-2.3-7.6-2.2-11.5v-0.2l2.6-18.6l0.1-0.9l0.7-0.6l6.3-4.8
				l3.7-2.9L73.5,48l-0.7,25c0.1,1.6,0.5,2.1,0.6,2.2c0.4,0,0.7-0.2,0.9-0.5c0.4-0.5,0.7-1.1,0.6-1.8v-0.4l0.5-23.6l0.1-3.5l3.1,1.5
				l6.5,3.2l1.3,0.6v1.4l0.1,19.5v0.2c-0.2,4.2-0.8,17.1-14.3,17.7C72,89.4,71.7,89.4,71.5,89.4L71.5,89.4z"/>
			<path fill="url(#retain_211212)" d="M71.6,89.6L71.6,89.6c-4-0.1-7.4-2.5-9.3-6.8l0,0c-1.5-3.5-2.2-7.2-2.2-11l0,0v-0.6l0,0v-0.3l2.6-18.6
				l0.1-1l0.1-0.1l0.7-0.6l6.3-4.8l4.2-3.2l-0.2,5.2l-0.7,25c0.1,1.2,0.3,1.8,0.5,1.9l0,0c0.2-0.1,0.4-0.2,0.6-0.4l0,0
				c0.3-0.4,0.5-0.9,0.5-1.4l0,0v-0.2l0,0v-0.4l0.5-23.6l0.1-3.9l3.5,1.7l6.5,3.2l1.4,0.7V52l0.1,19.5v0.2
				C86.7,75.9,86,89,72.4,89.6H71.6z M71.8,89.1h0.5c13.3-0.6,13.9-13.2,14.1-17.5l0,0v-0.2l-0.1-19.5v-1.2l-1.1-0.5L78.7,47
				l-2.8-1.3l-0.1,3.1l-0.5,23.6V73l0,0c0,0.6-0.3,1.2-0.7,1.7l0,0c-0.3,0.3-0.7,0.5-1.1,0.6h-0.2c-0.3-0.2-0.6-0.8-0.8-2.4l0,0
				l0.7-25l0.1-4.2L70,46.3l-6.3,4.8l-0.4,0.5l-0.1,0.8L60.6,71v0.8l0,0c0,3.7,0.7,7.4,2.1,10.8l0,0c1.9,4.1,5.1,6.4,8.9,6.5
				C71.6,89.1,71.8,89.1,71.8,89.1z"/>
			<path fill="url(#retain_E71921)" d="M70.7,72.9c0.4,7.5,7.1,4.1,6.6-0.4l0.5-23.6l6.5,3.2l0.1,19.5c-0.3,7.1-2.3,15.1-12.2,15.6
				c-7.2,0.3-9.8-8.7-9.6-15.9l2.6-18.6l6.3-4.8L70.7,72.9z"/>
			<path fill="url(#retain_211212)" d="M62.3,71.8v-0.6l0,0l2.6-18.7l6.8-5.2L71,72.9c0.2,3.1,1.4,4.2,2.6,4.2l0,0c2-0.3,3.5-2,3.5-4l0,0v-0.5
				l0,0l0.5-24l7,3.4l0.1,19.6c-0.3,7.1-2.3,15.4-12.4,15.8h-0.4C64.8,87.3,62.3,78.8,62.3,71.8z M65.3,52.8l-2.6,18.4v0.5l0,0
				c-0.1,3.5,0.6,7,2.1,10.2l0,0c1.5,2.9,3.7,4.9,6.9,4.9h0.4c9.8-0.5,11.6-8.3,11.9-15.3l0,0l-0.1-19.3l-6.1-2.9l-0.4,23.1V73l0,0
				c0.1,2.3-1.7,4.3-4,4.5l0,0c-1.6,0-3-1.4-3.1-4.6l0,0L71,48.4L65.3,52.8z"/>
			<path fill="url(#retain_F70003)" d="M70.7,72.9c0.4,7.5,7.1,4.1,6.6-0.4l0.5-23.6l6.5,3.2l0.1,19.5c-0.3,7.1-2.3,15.1-12.2,15.6
				c-7.2,0.3-9.8-8.7-9.6-15.9l2.6-18.6l6.3-4.8L70.7,72.9z"/>
			<path fill="url(#retain_FFF502)" d="M70.7,72.9c0.4,7.5,7.1,4.1,6.6-0.4l0.5-23.6l6.5,3.2l0.1,19.5c-0.3,7.1-2.3,15.1-12.2,15.6
				c-7.2,0.3-9.8-8.7-9.6-15.9l2.6-18.6l6.3-4.8L70.7,72.9z"/>
			<path fill="url(#retain_ffffff)" d="M64.1,82.3c-1.5-3.3-2.2-6.9-2.2-10.5l0,0v-0.6l0,0l2.6-18.8l7.4-5.7l-0.8,26.2c0.2,3.1,1.3,3.9,2.3,3.9
				l0,0c0.8-0.1,1.6-0.5,2.1-1.1l0,0c0.7-0.7,1-1.7,1-2.7l0,0v-0.5l0,0L77,48l7.6,3.7l0.1,19.8c-0.2,3.6-0.7,7.4-2.6,10.5l0,0
				c-1.8,3.1-5,5.4-10.1,5.6h-0.4C68.1,87.7,65.6,85.4,64.1,82.3z M63.1,71.8c-0.1,3.4,0.6,6.9,2,10l0,0c1.4,2.9,3.5,4.7,6.6,4.7
				h0.4c4.8-0.2,7.5-2.2,9.2-5l0,0c1.7-2.8,2.2-6.5,2.4-10l0,0l-0.1-19.1l-5.4-2.6l-0.4,22.7v0.6l0,0c0.1,2.5-1.8,4.6-4.3,4.8l0,0
				c-1.8,0-3.3-1.6-3.4-4.9l0,0l0.7-23.9l-5.2,4L63,71.4C63.1,71.5,63.1,71.6,63.1,71.8z"/>
			<polygon points="105.4,46.4 103.2,46.4 103.2,48.6 102.7,60.8 101.8,61.3 101.5,48.5 101.4,46.4 99.3,46.3 89.8,46.2 87.2,46.2 
				87.5,48.7 90.1,67.3 87.2,69.9 83.9,72.9 88.2,73.8 90.5,74.2 91.5,82.6 91.8,85 94.2,84.5 98.4,83.6 100,83.2 100.2,81.6 
				100.9,72.8 102.8,72.4 101.9,81 101.8,82.9 103.6,83.4 108.5,84.7 110.9,85.3 111.3,82.9 117.1,49.2 117.5,46.6 114.9,46.6 			
				"/>
			<polygon fill="url(#retain_E71921)" points="108.7,83.8 106.3,83.2 101.4,81.9 99.5,81.4 99.7,79.5 100.5,70.9 98.7,71.3 97.9,80.1 
				97.8,81.7 96.2,82 92,83 89.5,83.5 89.3,81.1 88.3,72.7 86,72.2 81.6,71.4 84.9,68.4 87.8,65.8 85.3,47.2 84.9,44.7 87.5,44.7 
				97,44.8 99.2,44.8 99.2,47 99.6,59.8 100.5,59.3 100.9,47.1 101,44.9 103.2,44.9 112.7,45 115.3,45.1 114.8,47.6 109.1,81.4 			
				"/>
			<path fill="url(#retain_211212)" d="M106.2,83.4l-4.9-1.3l-2-0.5l0.2-2.1l0.8-8.3L99,71.5l-0.7,8.6l-0.2,1.8l-1.8,0.4l-4.2,0.9l-2.7,0.6
				l-0.3-2.7l-1-8.2L86,72.5l-4.8-1l3.7-3.3l2.8-2.5l-2.5-18.4l-0.4-2.9h2.9l9.5,0.1h2.4l0.1,2.4l0.3,12.4l0.5-0.2l0.4-12.1l0.1-2.4
				h2.4l9.5,0.1h2.9l-0.5,2.9l-5.8,33.7l-0.4,2.4V84L106.2,83.4z M108.7,83.8l0.1-0.2L108.7,83.8z M99.9,79.5l-0.2,1.7l1.6,0.4
				l4.9,1.3l2.1,0.6l0.4-2.1l5.8-33.7l0.4-2.3h-2.3l-9.5-0.1h-1.9l-0.1,1.9l-0.4,12.3l-1.4,0.8l-0.4-13.2l-0.1-1.9h-1.9l-9.5-0.1
				h-2.3l0.3,2.3l2.5,18.7l-3,2.7L82,71.4l3.9,0.8l2.5,0.5l1,8.5l0.3,2.2l2.1-0.5L96,82l1.4-0.3l0.1-1.5l0.8-9l2.4-0.5
				C100.7,70.7,99.9,79.5,99.9,79.5z"/>
			<path fill="url(#retain_E71921)" d="M91.5,80.8l-1.2-10L86.4,70l3.8-3.4l-2.7-19.7L97,47l0.4,16.5l5.3-2.9l0.5-13.5l9.5,0.1l-5.8,33.7
				l-4.9-1.3l1.2-11.7l-6.5,1.4l-0.9,10.4L91.5,80.8z"/>
			<path fill="url(#retain_211212)" d="M101.7,79.9l1.1-11.5l-6,1.3l-0.9,10.4l-4.4,1l-0.3,0.1L90,71.1l-4.2-0.8l4-3.7l-2.7-19.9l10,0.1
				l0.4,16.3l4.8-2.6l0.5-13.6l10,0.1l-5.9,34.3C106.9,81.3,101.7,79.9,101.7,79.9z M91.5,80.8L91.5,80.8z M102.2,79.5l4.5,1.2
				l5.7-33.2l-8.9-0.1L103,60.8L97.3,64l-0.5-16.6l-9-0.1l2.7,19.6L87,70.1l3.6,0.7l1.2,9.9l3.8-0.8l0.9-10.4l7-1.5
				C103.5,68,102.2,79.5,102.2,79.5z"/>
			<polygon fill="url(#retain_E71921)" points="108.7,83.8 106.3,83.2 101.4,81.9 99.5,81.4 99.7,79.5 100.5,70.9 98.7,71.3 97.9,80.1 
				97.8,81.7 96.2,82 92,83 89.5,83.5 89.3,81.1 88.3,72.7 86,72.2 81.6,71.4 84.9,68.4 87.8,65.8 85.3,47.2 84.9,44.7 87.5,44.7 
				97,44.8 99.2,44.8 99.2,47 99.6,59.8 100.5,59.3 100.9,47.1 101,44.9 103.2,44.9 112.7,45 115.3,45.1 114.8,47.6 109.1,81.4 			
				"/>
			<path fill="url(#retain_211212)" d="M106.2,83.4l-4.9-1.3l-2-0.5l0.2-2.1l0.8-8.3L99,71.5l-0.7,8.6l-0.2,1.8l-1.8,0.4l-4.2,0.9l-2.7,0.6
				l-0.3-2.7l-1-8.2L86,72.5l-4.8-1l3.7-3.3l2.8-2.5l-2.5-18.4l-0.4-2.9h2.9l9.5,0.1h2.4l0.1,2.4l0.3,12.4l0.5-0.2l0.4-12.1l0.1-2.4
				h2.4l9.5,0.1h2.9l-0.5,2.9l-5.8,33.7l-0.4,2.4V84L106.2,83.4z M108.7,83.8l0.1-0.2L108.7,83.8z M99.9,79.5l-0.2,1.7l1.6,0.4
				l4.9,1.3l2.1,0.6l0.4-2.1l5.8-33.7l0.4-2.3h-2.3l-9.5-0.1h-1.9l-0.1,1.9l-0.4,12.3l-1.4,0.8l-0.4-13.2l-0.1-1.9h-1.9l-9.5-0.1
				h-2.3l0.3,2.3l2.5,18.7l-3,2.7L82,71.4l3.9,0.8l2.5,0.5l1,8.5l0.3,2.2l2.1-0.5L96,82l1.4-0.3l0.1-1.5l0.8-9l2.4-0.5
				C100.7,70.7,99.9,79.5,99.9,79.5z"/>
			<path fill="url(#retain_E71921)" d="M91.5,80.8l-1.2-10L86.4,70l3.8-3.4l-2.7-19.7L97,47l0.4,16.5l5.3-2.9l0.5-13.5l9.5,0.1l-5.8,33.7
				l-4.9-1.3l1.2-11.7l-6.5,1.4l-0.9,10.4L91.5,80.8z"/>
			<path fill="url(#retain_211212)" d="M101.7,79.9l1.1-11.5l-6,1.3l-0.9,10.4l-4.4,1l-0.3,0.1L90,71.1l-4.2-0.8l4-3.7l-2.7-19.9l10,0.1
				l0.4,16.3l4.8-2.6l0.5-13.6l10,0.1l-5.9,34.3C106.9,81.3,101.7,79.9,101.7,79.9z M91.5,80.8L91.5,80.8z M102.2,79.5l4.5,1.2
				l5.7-33.2l-8.9-0.1L103,60.8L97.3,64l-0.5-16.6l-9-0.1l2.7,19.6L87,70.1l3.6,0.7l1.2,9.9l3.8-0.8l0.9-10.4l7-1.5
				C103.5,68,102.2,79.5,102.2,79.5z"/>
			<path fill="url(#retain_F70003)" d="M91.5,80.8l-1.2-10L86.4,70l3.8-3.4l-2.7-19.7L97,47l0.4,16.5l5.3-2.9l0.5-13.5l9.5,0.1l-5.8,33.7
				l-4.9-1.3l1.2-11.7l-6.5,1.4l-0.9,10.4L91.5,80.8z"/>
			<path fill="url(#retain_FFF502)" d="M91.5,80.8l-1.2-10L86.4,70l3.8-3.4l-2.7-19.7L97,47l0.4,16.5l5.3-2.9l0.5-13.5l9.5,0.1l-5.8,33.7
				l-4.9-1.3l1.2-11.7l-6.5,1.4l-0.9,10.4L91.5,80.8z"/>
			<path fill="url(#retain_ffffff)" d="M101.3,80.1l1.1-11.4l-5.3,1.2l-0.9,10.4l-4.6,1L91,81.4l-1.2-10.2l-4.6-0.9l4.4-4l-2.7-20.1l10.7,0.1
				L98,62.4l4.2-2.3l0.5-13.7l10.7,0.1l-6,35C107.4,81.5,101.3,80.1,101.3,80.1z M91.5,80.8l0.6-0.1L91.5,80.8z M102.5,79.3l3.9,1
				l5.6-32.5l-8.3-0.1l-0.5,13.2l-6.3,3.5l-0.5-16.8l-8.3-0.1l2.6,19.4l-3.2,2.9l3.2,0.6l1.2,9.8l3.2-0.7L96,69.1l7.6-1.7
				C103.6,67.4,102.5,79.3,102.5,79.3z"/>
			<path d="M128.2,49.7c-3-2.3-6.7-3.7-10.5-3.8c-2.4,0-4.7,0.5-6.9,1.5c-2.2,1.1-3.2,2.9-2.7,5c0.6,2.5,2.7,4.4,5.3,4.6h0.6
				c0.8-0.1,1.7-0.2,2.5-0.2c0.7-0.1,1.5,0.1,2.1,0.5c0.1,0.1,0.2,0.5,0,1.2c-0.3,0.8-0.6,1.6-1,2.4l-1.3,2.5
				c-0.4,0.7-0.7,1.5-0.9,2.3c-0.2,0.7-0.4,1.4-0.5,2.1c-0.1,0.6-0.2,1.3-0.3,2.2l-0.2,2.1h1c-1.4,1.1-2.2,2.8-2.3,4.6
				c-0.1,2.8,2.8,5.9,5.5,6c2.5,0,5.5-2.2,5.6-5.1c-0.2-2.1-1.1-4-2.6-5.4h1.9v-1.8c0-0.1,0-0.2,0.1-0.3c0.1-0.4,0.2-0.8,0.4-1.1
				c0.1-0.3,0.3-0.7,0.6-0.9l2.6-2.8c2.6-2.9,4-5.7,4-8.5c0-1.3-0.2-2.7-0.8-3.9C129.9,51.7,129.2,50.6,128.2,49.7z"/>
			<path fill="url(#retain_E71921)" d="M121.5,70.9h-1.9l-5.1-0.1h-2.1l0.2-2.1c0.1-0.8,0.2-1.6,0.3-2.2s0.3-1.3,0.5-2.1
				c0.2-0.8,0.5-1.6,0.9-2.3l1.3-2.5c0.4-0.8,0.7-1.6,1-2.4c0.2-0.7,0.1-1.1,0-1.2c-0.6-0.4-1.4-0.6-2.1-0.5c-0.8,0-1.7,0.1-2.5,0.2
				h-0.6c-2.2,0-4.7-2.2-5.3-4.6c-0.5-2.1,0.6-3.9,2.7-5c2.1-1.1,4.5-1.6,6.9-1.5c3.8,0.1,7.5,1.4,10.5,3.8c1,0.9,1.8,1.9,2.3,3.1
				c0.5,1.2,0.8,2.6,0.8,3.9c-0.1,2.8-1.4,5.7-4,8.5l-2.6,2.8c-0.3,0.2-0.5,0.6-0.6,0.9c-0.2,0.3-0.3,0.7-0.4,1.1
				c0,0.1-0.1,0.2-0.1,0.3L121.5,70.9L121.5,70.9z"/>
			<path fill="url(#retain_211212)" d="M119.6,71.1l-5.1-0.1h-2.3l0.2-2.3c0.1-0.8,0.2-1.6,0.3-2.2l0,0c0.1-0.6,0.3-1.3,0.5-2.1l0,0
				c0.2-0.8,0.5-1.6,0.9-2.3l0,0l1.3-2.5c0.4-0.7,0.7-1.5,1-2.3l0,0c0.1-0.2,0.1-0.5,0.1-0.7l0,0c0-0.2,0-0.3-0.1-0.3l0,0
				c0-0.1-0.7-0.4-1.9-0.4h-0.2c-0.8,0-1.5,0.1-2.3,0.2h-0.6c-2.6-0.3-4.8-2.2-5.5-4.8l0,0c-0.1-0.3-0.1-0.7-0.1-1l0,0
				c0.1-1.9,1.3-3.6,3-4.3l0,0c2.1-1,4.4-1.6,6.8-1.6h0.3c3.9,0.1,7.7,1.5,10.7,3.9l0,0c1,0.9,1.8,2,2.3,3.2l0,0
				c0.5,1.2,0.8,2.5,0.8,3.8l0,0v0.2l0,0c-0.1,2.9-1.5,5.8-4.1,8.7l0,0L123,67c-0.3,0.3-0.5,0.6-0.6,0.9l0,0
				c-0.1,0.4-0.2,0.7-0.4,1.1l0,0c0,0.1-0.1,0.2-0.1,0.3l0,0v2C121.9,71.3,119.6,71.1,119.6,71.1z M121.5,70.9L121.5,70.9z
				 M114.5,55.3c0.8-0.1,1.6,0.1,2.3,0.6l0,0c0.1,0.2,0.2,0.4,0.2,0.6l0,0c0,0.3,0,0.5-0.1,0.8l0,0c-0.3,0.8-0.6,1.6-1,2.4l0,0
				l-1.3,2.5c-0.4,0.7-0.7,1.4-0.9,2.2l0,0c-0.2,0.7-0.4,1.3-0.5,2l0,0c-0.1,0.6-0.2,1.3-0.3,2.1l0,0l-0.2,1.8h1.8l5.1,0.1h1.7v-1.6
				c0-0.1,0-0.2,0.1-0.3l0,0c0.2-0.4,0.3-0.7,0.4-1.1l0,0c0.2-0.4,0.4-0.7,0.7-1l0,0l2.6-2.8c2.6-2.8,3.9-5.6,4-8.4l0,0V55l0,0
				c0-1.2-0.2-2.5-0.7-3.6l0,0c-0.5-1.2-1.3-2.2-2.2-3l0,0c-3-2.3-6.6-3.6-10.4-3.7h-0.3c-2.3,0-4.5,0.5-6.5,1.5l0,0
				c-1.6,0.6-2.6,2.1-2.7,3.8l0,0c0,0.3,0,0.6,0.1,0.9l0,0c0.5,2.2,2.9,4.4,5,4.4h0.6c0.8-0.1,1.5-0.2,2.3-0.2l0,0
				C114.3,55.3,114.4,55.3,114.5,55.3z"/>
			<path fill="url(#retain_E71921)" d="M109.7,47.9c7.6-3.7,14.6,1.3,15.4,2c0.8,0.7,1.4,1.5,1.8,2.4c0.4,1,0.6,2,0.6,3.1c0,2.3-1.2,4.8-3.5,7.3
				l-2.6,2.8c-0.4,0.4-0.7,0.9-1,1.5c-0.2,0.6-0.4,1-0.5,1.4c-0.1,0.2-0.1,0.4-0.1,0.6l-5.1-0.1c0.1-0.8,0.2-1.4,0.3-2
				c0.1-0.6,0.3-1.3,0.5-1.9c0.2-0.7,0.5-1.3,0.8-1.9l1.3-2.5c0.5-0.9,0.8-1.8,1.1-2.8c1.2-5-4.7-4.2-6.8-3.9
				C109.5,54.1,105.7,49.9,109.7,47.9z"/>
			<path fill="url(#retain_211212)" d="M114.2,69.1v-0.3c0.1-0.8,0.2-1.4,0.3-2l0,0c0.1-0.6,0.3-1.3,0.5-1.9l0,0c0.2-0.7,0.5-1.4,0.8-2l0,0
				l1.3-2.5c0.5-0.9,0.8-1.8,1.1-2.7l0,0c0.1-0.4,0.2-0.8,0.2-1.2l0,0c0-2.2-2-2.6-4.1-2.7l0,0c-0.9,0-1.7,0.1-2.6,0.2h-0.2
				c-2-0.3-3.6-1.9-3.8-3.9l0,0c0.1-1.1,0.8-2.1,1.9-2.5l0,0c1.8-0.9,3.9-1.4,5.9-1.4l0,0c3.5,0.1,6.9,1.3,9.7,3.4l0,0
				c0.8,0.7,1.4,1.5,1.8,2.5l0,0c0.4,0.9,0.6,2,0.6,3l0,0v0.2l0,0c0,2.4-1.3,4.9-3.6,7.4l0,0l-2.6,2.9c-0.4,0.4-0.7,0.9-0.9,1.4l0,0
				c-0.2,0.6-0.4,1-0.5,1.3l0,0c-0.1,0.2-0.1,0.4-0.1,0.6l0,0v0.2L114.2,69.1z M119.4,68.7c0-0.1,0.1-0.2,0.1-0.4l0,0
				c0.1-0.4,0.3-0.8,0.5-1.4l0,0c0.3-0.6,0.6-1.1,1-1.6l0,0l2.6-2.8c2.3-2.5,3.4-4.9,3.5-7.1l0,0v-0.2l0,0c0-1-0.2-1.9-0.6-2.8l0,0
				c-0.4-0.9-1-1.7-1.7-2.3l0,0c-2.7-2.1-6-3.2-9.4-3.3l0,0c-2,0-3.9,0.5-5.7,1.3l0,0l-0.1-0.2l0.1,0.2c-1.2,0.6-1.6,1.3-1.6,2.1
				l0,0c0.1,0.9,0.5,1.7,1.1,2.3l0,0c0.5,0.6,1.3,1,2.1,1.1h0.1c0.9-0.1,1.8-0.2,2.7-0.2l0,0c2.1,0,4.5,0.5,4.6,3.2l0,0
				c0,0.4-0.1,0.9-0.2,1.3l0,0c-0.2,1-0.7,1.9-1.2,2.8l0,0l-1.3,2.5c-0.3,0.6-0.6,1.2-0.8,1.9l0,0c-0.2,0.7-0.4,1.3-0.5,1.8l0,0
				c-0.1,0.6-0.2,1.1-0.2,1.7l0,0C114.5,68.6,119.4,68.7,119.4,68.7z"/>
			<path fill="url(#retain_E71921)" d="M116.6,81.4c-2.7-0.1-5.6-3.2-5.5-6s2.7-6,5.5-5.9c3,0.1,5.6,4.3,5.6,6.8
				C122.1,79.2,119.1,81.4,116.6,81.4z"/>
			<path fill="url(#retain_211212)" d="M116.6,81.6L116.6,81.6c-2.9-0.1-5.8-3.2-5.8-6.2l0,0v-0.1l0,0c0.1-2.8,2.7-6.2,5.7-6.2h0.1
				c3.2,0.1,5.8,4.3,5.8,7l0,0v0.1l0,0C122.1,79.2,119.6,81.5,116.6,81.6z M116.7,81.1c2.4,0,5.2-2.1,5.2-4.9l0,0v-0.1l0,0
				c0-2.4-2.7-6.5-5.4-6.5h-0.1c-2.6,0-5.2,3.2-5.2,5.7l0,0v0.1l0,0C111.3,78.1,114.1,81.1,116.7,81.1z"/>
			<path fill="url(#retain_E71921)" d="M120.2,76.2c-0.2,1.8-1.8,3.2-3.6,3.2c-1.6,0-3.7-2.3-3.6-4s2-4.1,3.5-4.1S120.3,74.4,120.2,76.2z"/>
			<path fill="url(#retain_211212)" d="M112.7,75.5L112.7,75.5c0.1-2,2-4.3,3.8-4.4l0,0c1.8,0.1,3.9,3.1,4,5.1l0,0c-0.2,1.9-1.8,3.4-3.8,3.5
				h-0.1C114.8,79.6,112.8,77.4,112.7,75.5z M113.2,75.4L113.2,75.4c0,1.6,2,3.7,3.4,3.7h0.1c1.4,0,3.3-1.4,3.3-3l0,0V76l0,0
				c-0.1-1.1-0.5-2.1-1.2-2.9l0,0c-0.5-0.9-1.3-1.5-2.3-1.7l0,0C115.1,71.6,113.2,73.8,113.2,75.4z"/>
			<path fill="url(#retain_E71921)" d="M121.5,70.9h-1.9l-5.1-0.1h-2.1l0.2-2.1c0.1-0.8,0.2-1.6,0.3-2.2s0.3-1.3,0.5-2.1
				c0.2-0.8,0.5-1.6,0.9-2.3l1.3-2.5c0.4-0.8,0.7-1.6,1-2.4c0.2-0.7,0.1-1.1,0-1.2c-0.6-0.4-1.4-0.6-2.1-0.5c-0.8,0-1.7,0.1-2.5,0.2
				h-0.6c-2.2,0-4.7-2.2-5.3-4.6c-0.5-2.1,0.6-3.9,2.7-5c2.1-1.1,4.5-1.6,6.9-1.5c3.8,0.1,7.5,1.4,10.5,3.8c1,0.9,1.8,1.9,2.3,3.1
				c0.5,1.2,0.8,2.6,0.8,3.9c-0.1,2.8-1.4,5.7-4,8.5l-2.6,2.8c-0.3,0.2-0.5,0.6-0.6,0.9c-0.2,0.3-0.3,0.7-0.4,1.1
				c0,0.1-0.1,0.2-0.1,0.3L121.5,70.9L121.5,70.9z"/>
			<path fill="url(#retain_211212)" d="M119.6,71.1l-5.1-0.1h-2.3l0.2-2.3c0.1-0.8,0.2-1.6,0.3-2.2l0,0c0.1-0.6,0.3-1.3,0.5-2.1l0,0
				c0.2-0.8,0.5-1.6,0.9-2.3l0,0l1.3-2.5c0.4-0.7,0.7-1.5,1-2.3l0,0c0.1-0.2,0.1-0.5,0.1-0.7l0,0c0-0.2,0-0.3-0.1-0.3l0,0
				c0-0.1-0.7-0.4-1.9-0.4h-0.2c-0.8,0-1.5,0.1-2.3,0.2h-0.6c-2.6-0.3-4.8-2.2-5.5-4.8l0,0c-0.1-0.3-0.1-0.7-0.1-1l0,0
				c0.1-1.9,1.3-3.6,3-4.3l0,0c2.1-1,4.4-1.6,6.8-1.6h0.3c3.9,0.1,7.7,1.5,10.7,3.9l0,0c1,0.9,1.8,2,2.3,3.2l0,0
				c0.5,1.2,0.8,2.5,0.8,3.8l0,0v0.2l0,0c-0.1,2.9-1.5,5.8-4.1,8.7l0,0L123,67c-0.3,0.3-0.5,0.6-0.6,0.9l0,0
				c-0.1,0.4-0.2,0.7-0.4,1.1l0,0c0,0.1-0.1,0.2-0.1,0.3l0,0v2C121.9,71.3,119.6,71.1,119.6,71.1z M121.5,70.9L121.5,70.9z
				 M114.5,55.3c0.8-0.1,1.6,0.1,2.3,0.6l0,0c0.1,0.2,0.2,0.4,0.2,0.6l0,0c0,0.3,0,0.5-0.1,0.8l0,0c-0.3,0.8-0.6,1.6-1,2.4l0,0
				l-1.3,2.5c-0.4,0.7-0.7,1.4-0.9,2.2l0,0c-0.2,0.7-0.4,1.3-0.5,2l0,0c-0.1,0.6-0.2,1.3-0.3,2.1l0,0l-0.2,1.8h1.8l5.1,0.1h1.7v-1.6
				c0-0.1,0-0.2,0.1-0.3l0,0c0.2-0.4,0.3-0.7,0.4-1.1l0,0c0.2-0.4,0.4-0.7,0.7-1l0,0l2.6-2.8c2.6-2.8,3.9-5.6,4-8.4l0,0V55l0,0
				c0-1.2-0.2-2.5-0.7-3.6l0,0c-0.5-1.2-1.3-2.2-2.2-3l0,0c-3-2.3-6.6-3.6-10.4-3.7h-0.3c-2.3,0-4.5,0.5-6.5,1.5l0,0
				c-1.6,0.6-2.6,2.1-2.7,3.8l0,0c0,0.3,0,0.6,0.1,0.9l0,0c0.5,2.2,2.9,4.4,5,4.4h0.6c0.8-0.1,1.5-0.2,2.3-0.2l0,0
				C114.3,55.3,114.4,55.3,114.5,55.3z"/>
			<path fill="url(#retain_E71921)" d="M109.7,47.9c7.6-3.7,14.6,1.3,15.4,2c0.8,0.7,1.4,1.5,1.8,2.4c0.4,1,0.6,2,0.6,3.1c0,2.3-1.2,4.8-3.5,7.3
				l-2.6,2.8c-0.4,0.4-0.7,0.9-1,1.5c-0.2,0.6-0.4,1-0.5,1.4c-0.1,0.2-0.1,0.4-0.1,0.6l-5.1-0.1c0.1-0.8,0.2-1.4,0.3-2
				c0.1-0.6,0.3-1.3,0.5-1.9c0.2-0.7,0.5-1.3,0.8-1.9l1.3-2.5c0.5-0.9,0.8-1.8,1.1-2.8c1.2-5-4.7-4.2-6.8-3.9
				C109.5,54.1,105.7,49.9,109.7,47.9z"/>
			<path fill="url(#retain_211212)" d="M114.2,69.1v-0.3c0.1-0.8,0.2-1.4,0.3-2l0,0c0.1-0.6,0.3-1.3,0.5-1.9l0,0c0.2-0.7,0.5-1.4,0.8-2l0,0
				l1.3-2.5c0.5-0.9,0.8-1.8,1.1-2.7l0,0c0.1-0.4,0.2-0.8,0.2-1.2l0,0c0-2.2-2-2.6-4.1-2.7l0,0c-0.9,0-1.7,0.1-2.6,0.2h-0.2
				c-2-0.3-3.6-1.9-3.8-3.9l0,0c0.1-1.1,0.8-2.1,1.9-2.5l0,0c1.8-0.9,3.9-1.4,5.9-1.4l0,0c3.5,0.1,6.9,1.3,9.7,3.4l0,0
				c0.8,0.7,1.4,1.5,1.8,2.5l0,0c0.4,0.9,0.6,2,0.6,3l0,0v0.2l0,0c0,2.4-1.3,4.9-3.6,7.4l0,0l-2.6,2.9c-0.4,0.4-0.7,0.9-0.9,1.4l0,0
				c-0.2,0.6-0.4,1-0.5,1.3l0,0c-0.1,0.2-0.1,0.4-0.1,0.6l0,0v0.2L114.2,69.1z M119.4,68.7c0-0.1,0.1-0.2,0.1-0.4l0,0
				c0.1-0.4,0.3-0.8,0.5-1.4l0,0c0.3-0.6,0.6-1.1,1-1.6l0,0l2.6-2.8c2.3-2.5,3.4-4.9,3.5-7.1l0,0v-0.2l0,0c0-1-0.2-1.9-0.6-2.8l0,0
				c-0.4-0.9-1-1.7-1.7-2.3l0,0c-2.7-2.1-6-3.2-9.4-3.3l0,0c-2,0-3.9,0.5-5.7,1.3l0,0l-0.1-0.2l0.1,0.2c-1.2,0.6-1.6,1.3-1.6,2.1
				l0,0c0.1,0.9,0.5,1.7,1.1,2.3l0,0c0.5,0.6,1.3,1,2.1,1.1h0.1c0.9-0.1,1.8-0.2,2.7-0.2l0,0c2.1,0,4.5,0.5,4.6,3.2l0,0
				c0,0.4-0.1,0.9-0.2,1.3l0,0c-0.2,1-0.7,1.9-1.2,2.8l0,0l-1.3,2.5c-0.3,0.6-0.6,1.2-0.8,1.9l0,0c-0.2,0.7-0.4,1.3-0.5,1.8l0,0
				c-0.1,0.6-0.2,1.1-0.2,1.7l0,0C114.5,68.6,119.4,68.7,119.4,68.7z"/>
			<path fill="url(#retain_E71921)" d="M116.6,81.4c-2.7-0.1-5.6-3.2-5.5-6s2.7-6,5.5-5.9c3,0.1,5.6,4.3,5.6,6.8
				C122.1,79.2,119.1,81.4,116.6,81.4z"/>
			<path fill="url(#retain_211212)" d="M116.6,81.6L116.6,81.6c-2.9-0.1-5.8-3.2-5.8-6.2l0,0v-0.1l0,0c0.1-2.8,2.7-6.2,5.7-6.2h0.1
				c3.2,0.1,5.8,4.3,5.8,7l0,0v0.1l0,0C122.1,79.2,119.6,81.5,116.6,81.6z M116.7,81.1c2.4,0,5.2-2.1,5.2-4.9l0,0v-0.1l0,0
				c0-2.4-2.7-6.5-5.4-6.5h-0.1c-2.6,0-5.2,3.2-5.2,5.7l0,0v0.1l0,0C111.3,78.1,114.1,81.1,116.7,81.1z"/>
			<path fill="url(#retain_E71921)" d="M120.2,76.2c-0.2,1.8-1.8,3.2-3.6,3.2c-1.6,0-3.7-2.3-3.6-4s2-4.1,3.5-4.1S120.3,74.4,120.2,76.2z"/>
			<path fill="url(#retain_211212)" d="M112.7,75.5L112.7,75.5c0.1-2,2-4.3,3.8-4.4l0,0c1.8,0.1,3.9,3.1,4,5.1l0,0c-0.2,1.9-1.8,3.4-3.8,3.5
				h-0.1C114.8,79.6,112.8,77.4,112.7,75.5z M113.2,75.4L113.2,75.4c0,1.6,2,3.7,3.4,3.7h0.1c1.4,0,3.3-1.4,3.3-3l0,0V76l0,0
				c-0.1-1.1-0.5-2.1-1.2-2.9l0,0c-0.5-0.9-1.3-1.5-2.3-1.7l0,0C115.1,71.6,113.2,73.8,113.2,75.4z"/>
			<path fill="url(#retain_F70003)" d="M109.7,47.9c7.6-3.7,14.6,1.3,15.4,2c0.8,0.7,1.4,1.5,1.8,2.4c0.4,1,0.6,2,0.6,3.1c0,2.3-1.2,4.8-3.5,7.3
				l-2.6,2.8c-0.4,0.4-0.7,0.9-1,1.5c-0.2,0.6-0.4,1-0.5,1.4c-0.1,0.2-0.1,0.4-0.1,0.6l-5.1-0.1c0.1-0.8,0.2-1.4,0.3-2
				c0.1-0.6,0.3-1.3,0.5-1.9c0.2-0.7,0.5-1.3,0.8-1.9l1.3-2.5c0.5-0.9,0.8-1.8,1.1-2.8c1.2-5-4.7-4.2-6.8-3.9
				C109.5,54.1,105.7,49.9,109.7,47.9z"/>
			<path fill="url(#retain_F70003)" d="M120.2,76.2c-0.2,1.8-1.8,3.2-3.6,3.2c-1.6,0-3.7-2.3-3.6-4s2-4.1,3.5-4.1S120.3,74.4,120.2,76.2z"/>
			<path fill="url(#retain_FFF502)" d="M109.7,47.9c7.6-3.7,14.6,1.3,15.4,2c0.8,0.7,1.4,1.5,1.8,2.4c0.4,1,0.6,2,0.6,3.1c0,2.3-1.2,4.8-3.5,7.3
				l-2.6,2.8c-0.4,0.4-0.7,0.9-1,1.5c-0.2,0.6-0.4,1-0.5,1.4c-0.1,0.2-0.1,0.4-0.1,0.6l-5.1-0.1c0.1-0.8,0.2-1.4,0.3-2
				c0.1-0.6,0.3-1.3,0.5-1.9c0.2-0.7,0.5-1.3,0.8-1.9l1.3-2.5c0.5-0.9,0.8-1.8,1.1-2.8c1.2-5-4.7-4.2-6.8-3.9
				C109.5,54.1,105.7,49.9,109.7,47.9z"/>
			<path fill="url(#retain_ffffff)" d="M114,69.3v-0.5c0.1-0.8,0.2-1.5,0.3-2l0,0c0.1-0.6,0.3-1.3,0.5-1.9l0,0c0.2-0.7,0.5-1.4,0.8-2l0,0
				l1.3-2.5c0.5-0.9,0.8-1.8,1.1-2.7l0,0c0.1-0.4,0.1-0.7,0.1-1.1l0,0c0.1-0.8-0.4-1.6-1.1-1.9l0,0c-0.8-0.4-1.8-0.6-2.7-0.5l0,0
				c-0.9,0-1.7,0.1-2.6,0.2h-0.2c-1-0.1-2-0.5-2.6-1.3l0,0c-0.8-0.7-1.3-1.7-1.4-2.8l0,0c0.1-1.2,0.8-2.3,2-2.7l0,0
				c1.9-0.9,3.9-1.4,6-1.4l0,0c3.6,0.1,7,1.3,9.9,3.4l0,0c0.8,0.7,1.4,1.6,1.9,2.6l0,0c0.4,1,0.6,2,0.6,3.1l0,0v0.2l0,0
				c0,2.5-1.3,5-3.7,7.6l0,0l-2.6,2.8c-0.4,0.4-0.7,0.8-0.9,1.3l0,0c-0.2,0.6-0.4,1-0.5,1.3l0,0c-0.1,0.2-0.1,0.3-0.1,0.5l0,0v0.5
				L114,69.3L114,69.3z M119.2,68.5c0-0.1,0-0.1,0.1-0.2l0,0c0.1-0.4,0.3-0.9,0.5-1.5l0,0c0.2-0.6,0.6-1.2,1.1-1.6l0,0l2.6-2.8
				c2.3-2.5,3.4-4.8,3.4-7l0,0v-0.2l0,0c0-0.9-0.2-1.9-0.6-2.7l0,0c-0.4-0.8-0.9-1.6-1.6-2.2l0,0c-2.7-2-5.9-3.1-9.2-3.2l0,0
				c-1.9,0-3.9,0.5-5.6,1.3l0,0l-0.2-0.4l0.2,0.4c-1.1,0.6-1.5,1.2-1.5,1.9l0,0c0.1,0.8,0.5,1.6,1.1,2.2l0,0c0.5,0.5,1.2,0.9,1.9,1
				h0.1c0.9-0.1,1.8-0.2,2.7-0.2l0,0c1.1-0.1,2.1,0.1,3.1,0.6l0,0c1.1,0.5,1.7,1.6,1.6,2.8l0,0c0,0.4-0.1,0.9-0.2,1.3l0,0
				c-0.3,1-0.7,2-1.2,2.9l0,0l-1.3,2.5c-0.3,0.6-0.5,1.2-0.7,1.9l0,0c-0.2,0.7-0.4,1.3-0.5,1.8l0,0c-0.1,0.4-0.1,0.9-0.2,1.4
				C114.8,68.5,119.2,68.5,119.2,68.5z"/>
			<path fill="url(#retain_FFF502)" d="M120.2,76.2c-0.2,1.8-1.8,3.2-3.6,3.2c-1.6,0-3.7-2.3-3.6-4s2-4.1,3.5-4.1S120.3,74.4,120.2,76.2z"/>
			<path fill="url(#retain_ffffff)" d="M116.6,79.9c-1.1-0.1-2.1-0.7-2.8-1.5l0,0c-0.8-0.8-1.3-1.9-1.4-3l0,0v-0.1l0,0c0.1-1.1,0.6-2.2,1.3-3
				l0,0c0.6-0.9,1.6-1.4,2.7-1.5l0,0c1.2,0.2,2.2,0.9,2.8,1.9l0,0c0.8,1,1.3,2.2,1.4,3.4l0,0C120.5,78.2,118.7,79.9,116.6,79.9z
				 M116.7,79c0.8-0.1,1.5-0.3,2.1-0.8l0,0c0.6-0.5,1-1.2,1-1.9l0,0v-0.1l0,0c-0.1-1-0.5-2-1.2-2.8l0,0c-0.5-0.8-1.2-1.3-2.1-1.6
				l0,0c-0.8,0.1-1.5,0.6-2,1.2l0,0c-0.6,0.7-1,1.5-1.1,2.4l0,0c0.1,0.9,0.5,1.7,1.1,2.3l0,0C115,78.4,115.8,78.9,116.7,79z"/>
			<path d="M143.3,59.9l0.5-1.5l-1.4-0.8l-9.1-5.1l-2.6-1.5l-0.3,3l-2.1,23.5l-0.1,1.2c-0.1,0-0.1,0.1-0.2,0.1
				c-1.5,0.7-2.5,2.1-2.7,3.7c-0.5,1.6-0.1,3.4,1.1,4.6c1.1,1.1,2.4,1.8,3.9,2c0.1,0,0.2,0,0.3,0.1c0.2,0,0.3,0.1,0.5,0.1
				c1.4,0.3,2.8,0.2,4.1-0.4c1.5-0.7,2.6-2.2,2.7-3.9c0.5-1.6,0-3.4-1.2-4.6l-0.1-0.1l0.3-1.1L143.3,59.9z"/>
			<path fill="url(#retain_E71921)" d="M129.2,87.5c-0.2,0-0.3-0.1-0.5-0.1c-0.1,0-0.2,0-0.3-0.1c-1.5-0.2-2.9-0.9-3.9-2c-1.2-1.2-1.6-3-1.1-4.6
				c0.2-1.6,1.2-3,2.7-3.7c0.1,0,0.1-0.1,0.2-0.1l0.1-1.2l2.1-23.5l0.3-3l2.6,1.5l9.1,5.2l1.4,0.8l-0.5,1.5l-6.2,19.3l-0.3,1.1
				l0.1,0.1c1.2,1.2,1.7,3,1.2,4.6c-0.2,1.7-1.2,3.2-2.7,3.9C132.1,87.7,130.6,87.8,129.2,87.5L129.2,87.5z"/>
			<path fill="url(#retain_211212)" d="M129.2,87.8L129.2,87.8c-0.2,0-0.3-0.1-0.5-0.1l0,0c-0.1,0-0.2,0-0.3-0.1l0,0c-1.5-0.2-3-0.9-4-2.1l0,0
				c-0.9-0.9-1.3-2.1-1.3-3.4l0,0c0-0.5,0.1-1,0.2-1.5l0,0c0.2-1.7,1.3-3.1,2.8-3.9h0.1l0.1-1l2.1-23.5l0.3-3.4l2.9,1.7l9.1,5.1
				l1.5,0.9l-0.5,1.7l-6.3,19.4l-0.3,0.9c0.9,0.9,1.4,2.1,1.4,3.4l0,0c0,0.5-0.1,0.9-0.2,1.4l0,0c-0.1,1.7-1.2,3.3-2.8,4l0,0
				c-0.8,0.4-1.8,0.6-2.7,0.6l0,0C130.3,88,129.7,87.9,129.2,87.8L129.2,87.8z M128.7,52.3l-2.1,23.5l-0.1,1.3l-0.1,0.1
				c-0.1,0-0.1,0.1-0.2,0.1l0,0c-1.4,0.7-2.4,2-2.6,3.5l0,0c-0.1,0.5-0.2,0.9-0.2,1.4l0,0c0,1.1,0.4,2.2,1.2,3l0,0
				c1,1,2.4,1.7,3.8,1.9l0,0c0.1,0,0.2,0,0.3,0.1l0,0c0.2,0,0.3,0.1,0.5,0.1l0,0l0,0c0.5,0.1,1,0.2,1.5,0.2l0,0
				c0.9,0,1.7-0.2,2.5-0.5l0,0c1.4-0.7,2.4-2.1,2.6-3.7l0,0c0.1-0.4,0.2-0.9,0.2-1.3l0,0c0-1.2-0.4-2.3-1.3-3.1l0,0l-0.1-0.1l0,0
				l-0.1-0.1l0.4-1.2l6.2-19.3l0.4-1.3l-1.2-0.7l-9.1-5.1l-2.3-1.3L128.7,52.3L128.7,52.3z"/>
			<path fill="url(#retain_E71921)" d="M130.4,52.5l9.1,5.1l-6.2,19.3l-5-1L130.4,52.5z M134.2,82.9c-0.1,1-0.7,2-1.6,2.5
				c-1.1,0.4-2.3,0.5-3.4,0.1c-1.2-0.1-2.3-0.6-3.2-1.5c-0.7-0.8-0.9-1.9-0.6-2.9c0.1-1,0.7-1.9,1.6-2.3c1-0.4,2.2-0.5,3.3-0.2
				c1.2,0.1,2.4,0.6,3.3,1.4C134.3,80.8,134.5,81.9,134.2,82.9z"/>
			<path fill="url(#retain_211212)" d="M130.8,86c-0.6,0-1.1-0.1-1.7-0.2l0,0c-1.3-0.1-2.5-0.7-3.4-1.6l0,0c-0.5-0.6-0.8-1.3-0.8-2.1l0,0
				c0-0.4,0.1-0.7,0.1-1.1l0,0c0.1-1.1,0.8-2.1,1.8-2.5l0,0c0.6-0.3,1.2-0.4,1.9-0.4l0,0c0.5,0,1.1,0.1,1.6,0.2l0,0
				c1.3,0.1,2.5,0.6,3.4,1.5l0,0c0.6,0.5,0.9,1.2,0.9,2l0,0c0,0.3-0.1,0.7-0.1,1.1l0,0c-0.1,1.1-0.8,2.2-1.8,2.7l0,0
				C132.1,85.9,131.5,86,130.8,86L130.8,86z M127,79c-0.8,0.4-1.4,1.3-1.5,2.2l0,0c-0.1,0.3-0.1,0.7-0.1,1l0,0
				c0,0.6,0.2,1.3,0.7,1.7l0,0c0.9,0.8,1.9,1.3,3.1,1.4l0,0c0.5,0.1,1.1,0.2,1.6,0.2l0,0c0.5,0,1.1-0.1,1.6-0.3l0,0
				c0.9-0.4,1.5-1.3,1.5-2.3h0.2l-0.2-0.1c0.1-0.3,0.1-0.6,0.1-0.9l0,0c0-0.6-0.2-1.3-0.7-1.7l0,0c-0.9-0.8-2-1.3-3.2-1.4l0,0
				c-0.5-0.1-1-0.2-1.5-0.2l0,0C128.1,78.7,127.5,78.8,127,79L127,79z M128,76.1l2.1-23.7V52l9.6,5.4l-6.3,19.8L128,76.1z
				 M128.6,75.7l4.6,0.9l6-18.9l-8.5-4.9L128.6,75.7z"/>
			<path fill="url(#retain_E71921)" d="M129.2,87.5c-0.2,0-0.3-0.1-0.5-0.1c-0.1,0-0.2,0-0.3-0.1c-1.5-0.2-2.9-0.9-3.9-2c-1.2-1.2-1.6-3-1.1-4.6
				c0.2-1.6,1.2-3,2.7-3.7c0.1,0,0.1-0.1,0.2-0.1l0.1-1.2l2.1-23.5l0.3-3l2.6,1.5l9.1,5.2l1.4,0.8l-0.5,1.5l-6.2,19.3l-0.3,1.1
				l0.1,0.1c1.2,1.2,1.7,3,1.2,4.6c-0.2,1.7-1.2,3.2-2.7,3.9C132.1,87.7,130.6,87.8,129.2,87.5L129.2,87.5z"/>
			<path fill="url(#retain_211212)" d="M129.2,87.8L129.2,87.8c-0.2,0-0.3-0.1-0.5-0.1l0,0c-0.1,0-0.2,0-0.3-0.1l0,0c-1.5-0.2-3-0.9-4-2.1l0,0
				c-0.9-0.9-1.3-2.1-1.3-3.4l0,0c0-0.5,0.1-1,0.2-1.5l0,0c0.2-1.7,1.3-3.1,2.8-3.9h0.1l0.1-1l2.1-23.5l0.3-3.4l2.9,1.7l9.1,5.1
				l1.5,0.9l-0.5,1.7l-6.3,19.4l-0.3,0.9c0.9,0.9,1.4,2.1,1.4,3.4l0,0c0,0.5-0.1,0.9-0.2,1.4l0,0c-0.1,1.7-1.2,3.3-2.8,4l0,0
				c-0.8,0.4-1.8,0.6-2.7,0.6l0,0C130.3,88,129.7,87.9,129.2,87.8L129.2,87.8z M128.7,52.3l-2.1,23.5l-0.1,1.3l-0.1,0.1
				c-0.1,0-0.1,0.1-0.2,0.1l0,0c-1.4,0.7-2.4,2-2.6,3.5l0,0c-0.1,0.5-0.2,0.9-0.2,1.4l0,0c0,1.1,0.4,2.2,1.2,3l0,0
				c1,1,2.4,1.7,3.8,1.9l0,0c0.1,0,0.2,0,0.3,0.1l0,0c0.2,0,0.3,0.1,0.5,0.1l0,0l0,0c0.5,0.1,1,0.2,1.5,0.2l0,0
				c0.9,0,1.7-0.2,2.5-0.5l0,0c1.4-0.7,2.4-2.1,2.6-3.7l0,0c0.1-0.4,0.2-0.9,0.2-1.3l0,0c0-1.2-0.4-2.3-1.3-3.1l0,0l-0.1-0.1l0,0
				l-0.1-0.1l0.4-1.2l6.2-19.3l0.4-1.3l-1.2-0.7l-9.1-5.1l-2.3-1.3L128.7,52.3L128.7,52.3z"/>
			<path fill="url(#retain_E71921)" d="M130.4,52.5l9.1,5.1l-6.2,19.3l-5-1L130.4,52.5z M134.2,82.9c-0.1,1-0.7,2-1.6,2.5
				c-1.1,0.4-2.3,0.5-3.4,0.1c-1.2-0.1-2.3-0.6-3.2-1.5c-0.7-0.8-0.9-1.9-0.6-2.9c0.1-1,0.7-1.9,1.6-2.3c1-0.4,2.2-0.5,3.3-0.2
				c1.2,0.1,2.4,0.6,3.3,1.4C134.3,80.8,134.5,81.9,134.2,82.9z"/>
			<path fill="url(#retain_211212)" d="M130.8,86c-0.6,0-1.1-0.1-1.7-0.2l0,0c-1.3-0.1-2.5-0.7-3.4-1.6l0,0c-0.5-0.6-0.8-1.3-0.8-2.1l0,0
				c0-0.4,0.1-0.7,0.1-1.1l0,0c0.1-1.1,0.8-2.1,1.8-2.5l0,0c0.6-0.3,1.2-0.4,1.9-0.4l0,0c0.5,0,1.1,0.1,1.6,0.2l0,0
				c1.3,0.1,2.5,0.6,3.4,1.5l0,0c0.6,0.5,0.9,1.2,0.9,2l0,0c0,0.3-0.1,0.7-0.1,1.1l0,0c-0.1,1.1-0.8,2.2-1.8,2.7l0,0
				C132.1,85.9,131.5,86,130.8,86L130.8,86z M127,79c-0.8,0.4-1.4,1.3-1.5,2.2l0,0c-0.1,0.3-0.1,0.7-0.1,1l0,0
				c0,0.6,0.2,1.3,0.7,1.7l0,0c0.9,0.8,1.9,1.3,3.1,1.4l0,0c0.5,0.1,1.1,0.2,1.6,0.2l0,0c0.5,0,1.1-0.1,1.6-0.3l0,0
				c0.9-0.4,1.5-1.3,1.5-2.3h0.2l-0.2-0.1c0.1-0.3,0.1-0.6,0.1-0.9l0,0c0-0.6-0.2-1.3-0.7-1.7l0,0c-0.9-0.8-2-1.3-3.2-1.4l0,0
				c-0.5-0.1-1-0.2-1.5-0.2l0,0C128.1,78.7,127.5,78.8,127,79L127,79z M128,76.1l2.1-23.7V52l9.6,5.4l-6.3,19.8L128,76.1z
				 M128.6,75.7l4.6,0.9l6-18.9l-8.5-4.9L128.6,75.7z"/>
			<path fill="url(#retain_F70003)" d="M130.4,52.5l9.1,5.1l-6.2,19.3l-5-1L130.4,52.5z M134.2,82.9c-0.1,1-0.7,2-1.6,2.5
				c-1.1,0.4-2.3,0.5-3.4,0.1c-1.2-0.1-2.3-0.6-3.2-1.5c-0.7-0.8-0.9-1.9-0.6-2.9c0.1-1,0.7-1.9,1.6-2.3c1-0.4,2.2-0.5,3.3-0.2
				c1.2,0.1,2.4,0.6,3.3,1.4C134.3,80.8,134.5,81.9,134.2,82.9z"/>
			<path fill="url(#retain_FFF502)" d="M130.4,52.5l9.1,5.1l-6.2,19.3l-5-1L130.4,52.5z M134.2,82.9c-0.1,1-0.7,2-1.6,2.5
				c-1.1,0.4-2.3,0.5-3.4,0.1c-1.2-0.1-2.3-0.6-3.2-1.5c-0.7-0.8-0.9-1.9-0.6-2.9c0.1-1,0.7-1.9,1.6-2.3c1-0.4,2.2-0.5,3.3-0.2
				c1.2,0.1,2.4,0.6,3.3,1.4C134.3,80.8,134.5,81.9,134.2,82.9z"/>
			<path fill="url(#retain_ffffff)" d="M129,86c-1.3-0.1-2.5-0.7-3.5-1.6l0,0c-0.6-0.6-0.9-1.4-0.9-2.2l0,0c0-0.4,0.1-0.7,0.2-1.1l0,0
				c0.1-1.2,0.8-2.2,1.9-2.7l0,0c0.6-0.3,1.3-0.4,2-0.4l0,0c0.5,0,1.1,0.1,1.6,0.2l0,0c1.3,0.2,2.6,0.7,3.6,1.6l0,0
				c0.6,0.6,0.9,1.4,0.9,2.2l0,0c0,0.4-0.1,0.7-0.1,1.1l0,0c-0.1,1.2-0.8,2.3-1.9,2.8l0,0c-0.6,0.3-1.3,0.4-2,0.4l0,0
				C130.2,86.3,129.6,86.2,129,86z M127.1,79.2c-0.8,0.4-1.3,1.1-1.4,2l0,0c-0.1,0.3-0.1,0.6-0.1,0.9l0,0c0,0.6,0.2,1.2,0.6,1.6l0,0
				c0.8,0.8,1.8,1.2,2.9,1.3l0,0c0.5,0.1,1,0.2,1.5,0.2l0,0c0.5,0,1-0.1,1.5-0.3l0,0c0.8-0.4,1.3-1.2,1.4-2.1l0,0
				c0.1-0.3,0.1-0.6,0.1-0.9l0,0c0-0.6-0.2-1.1-0.6-1.5l0,0c-0.9-0.8-2-1.2-3.1-1.3l0,0c-0.5-0.1-0.9-0.2-1.4-0.2l0,0
				C128,78.9,127.5,79,127.1,79.2L127.1,79.2z M127.8,76.3l2.1-23.9l0.1-0.7l10,5.7l-6.4,20.1C133.6,77.5,127.8,76.3,127.8,76.3z
				 M128.8,75.6l4.2,0.9l5.9-18.6l-8.1-4.6L128.8,75.6L128.8,75.6z"/>
		</g>
	</g>
</g>
</svg>
