<?xml version="1.0" encoding="utf-8"?>
<!-- Generator: Adobe Illustrator 21.1.0, SVG Export Plug-In . SVG Version: 6.00 Build 0)  -->
<svg version="1.1" baseProfile="tiny" id="Слой_1"
	 xmlns="http://www.w3.org/2000/svg" xmlns:xlink="http://www.w3.org/1999/xlink" x="0px" y="0px" viewBox="0 0 512 512"
	 overflow="scroll" xml:space="preserve">
<g>
	<rect x="432.5" y="326" fill="#161616" width="16.8" height="175.1"/>
	<rect x="452.8" y="326" fill="#161616" width="6.4" height="175.1"/>
	<rect x="459.2" y="323.2" fill="#3C250C" width="2.5" height="180.7"/>
	<polygon fill="#996945" points="466.7,501.1 461.7,503.9 461.7,323.2 466.7,326 	"/>
	<path fill="#272628" d="M456.8,501.1c-3.3,2.9-7.6,2.9-10.9,0c0-58.4,0-116.8,0-175.1c3.3-2.9,7.6-2.9,10.9,0
		C456.8,384.4,456.8,442.7,456.8,501.1z"/>
	<path fill="#272628" d="M442.8,490.6c0,3.7-1.9,7.2-5,9.2c-8.8,5.6-12,5.6-20.9,0c-3.1-2-5-5.5-5-9.2c0-51.9,0-103.7,0-155.6
		c0-3.7,1.9-7.2,5-9.2c8.8-5.6,12-5.6,20.9,0c3.1,2,5,5.5,5,9.2C442.8,386.9,442.8,438.8,442.8,490.6z"/>
	<path fill="#161616" d="M442.8,364.3c0-1.2,0-2.3,0-3.5c-1.5,2.6-3.4,3.6-6.9,4.9C439.4,366.1,441.7,365.3,442.8,364.3z"/>
	<path fill="#161616" d="M437.2,347.5c4.2-1.6,5.7,0.7,5.7,0.7c0-2.5,0-5,0-7.6C442.8,340.6,441.5,344.8,437.2,347.5z"/>
	<path fill="#161616" d="M439.4,336.5c-0.2,0.7,1.8,0.8,3.4,0.8c0-0.6,0-1.1,0-1.7c0-1.1-0.1-2.1-0.3-3.1
		C441.1,334,439.6,335.8,439.4,336.5z"/>
	<path fill="#161616" d="M437.2,357.4c-0.7,0.6,2.8,1.4,5.7,0.1c0-2.6,0-5.2,0-7.8C442.8,349.6,441.7,353.8,437.2,357.4z"/>
	<path fill="#161616" d="M439.1,490.2c-3.2,1.9-4,4.2-4,4.2s1.3-1.4,4.6-2.8c1.6-0.7,2.6-1.6,3.2-2.5c0-0.8,0-1.6,0-2.5
		C442.8,486.7,442.3,488.2,439.1,490.2z"/>
	<path fill="#161616" d="M435.1,482.6c0,0,2.9-0.5,5.9-1.9c0.9-0.4,1.5-0.8,1.9-1.2c0-1.7,0-3.3,0-5c-1,1.3-2.6,3.3-4,5
		C436.7,482.1,435.1,482.6,435.1,482.6z"/>
	<path fill="#161616" d="M442.8,454.6c0-1,0-2.1,0-3.1c-0.7,0.7-1.8,1.7-3.4,2.6c-2.7,1.6-4.4,1.6-4.4,1.6s1.9,0.9,5.4-0.2
		C441.6,455.2,442.3,454.8,442.8,454.6z"/>
	<path fill="#161616" d="M442.8,469.2c0-1.7,0-3.4,0-5.1c-1,1-2.7,2.8-3.4,4.2c-1.1,2.1-5,3.3-5,3.3s1.2,1.2,3.7,1.1
		C439.7,472.5,441.5,470.6,442.8,469.2z"/>
	<path fill="#484649" d="M508.4,501.3h-41.7V326h41.7c2,0,3.7,1.7,3.7,3.7v168C512.1,499.7,510.5,501.3,508.4,501.3z"/>
	<circle fill="#996945" cx="489.4" cy="413.6" r="6.2"/>
	<circle fill="#3C250C" cx="489.4" cy="413.6" r="3.1"/>
	<path fill="#FFBC73" d="M489.4,415.8c-0.1,0-0.1,0-0.2,0c-1.2-0.1-2-1.1-1.9-2.3l11.4-125.4l0-8.2c0-1.2,0.9-2.1,2.1-2.1
		c1.2,0,2.1,0.9,2.1,2.1v8.4l-11.4,125.6C491.4,414.9,490.5,415.8,489.4,415.8z"/>
	<rect x="489.4" y="223.6" fill="#161616" width="15.2" height="64.7"/>
	
		<rect x="63" y="326" transform="matrix(-1 -1.224647e-16 1.224647e-16 -1 142.7683 827.1086)" fill="#161616" width="16.8" height="175.1"/>
	
		<rect x="53" y="326" transform="matrix(-1 -1.224647e-16 1.224647e-16 -1 112.4531 827.1086)" fill="#161616" width="6.4" height="175.1"/>
	
		<rect x="50.5" y="323.2" transform="matrix(-1 -1.224647e-16 1.224647e-16 -1 103.5429 827.1086)" fill="#3C250C" width="2.5" height="180.7"/>
	<polygon fill="#996945" points="45.5,501.1 50.5,503.9 50.5,323.2 45.5,326 	"/>
	<path fill="#272628" d="M55.4,501.1c3.3,2.9,7.6,2.9,10.9,0c0-58.4,0-116.8,0-175.1c-3.3-2.9-7.6-2.9-10.9,0
		C55.4,384.4,55.4,442.7,55.4,501.1z"/>
	<path fill="#272628" d="M69.4,490.6c0,3.7,1.9,7.2,5,9.2c8.8,5.6,12,5.6,20.9,0c3.1-2,5-5.5,5-9.2c0-51.9,0-103.7,0-155.6
		c0-3.7-1.9-7.2-5-9.2c-8.8-5.6-12-5.6-20.9,0c-3.1,2-5,5.5-5,9.2C69.4,386.9,69.4,438.8,69.4,490.6z"/>
	<path fill="#161616" d="M69.4,364.3c0-1.2,0-2.3,0-3.5c1.5,2.6,3.4,3.6,6.9,4.9C72.8,366.1,70.5,365.3,69.4,364.3z"/>
	<path fill="#161616" d="M75.1,347.5c-4.2-1.6-5.7,0.7-5.7,0.7c0-2.5,0-5,0-7.6C69.4,340.6,70.7,344.8,75.1,347.5z"/>
	<path fill="#161616" d="M72.8,336.5c0.2,0.7-1.8,0.8-3.4,0.8c0-0.6,0-1.1,0-1.7c0-1.1,0.1-2.1,0.3-3.1
		C71.2,334,72.7,335.8,72.8,336.5z"/>
	<path fill="#161616" d="M75.1,357.4c0.7,0.6-2.8,1.4-5.7,0.1c0-2.6,0-5.2,0-7.8C69.4,349.6,70.5,353.8,75.1,357.4z"/>
	<path fill="#161616" d="M73.2,490.2c3.2,1.9,4,4.2,4,4.2s-1.3-1.4-4.6-2.8c-1.6-0.7-2.6-1.6-3.2-2.5c0-0.8,0-1.6,0-2.5
		C69.4,486.7,69.9,488.2,73.2,490.2z"/>
	<path fill="#161616" d="M77.2,482.6c0,0-2.9-0.5-5.9-1.9c-0.9-0.4-1.5-0.8-1.9-1.2c0-1.7,0-3.3,0-5c1,1.3,2.6,3.3,4,5
		C75.6,482.1,77.2,482.6,77.2,482.6z"/>
	<path fill="#161616" d="M69.4,454.6c0-1,0-2.1,0-3.1c0.7,0.7,1.8,1.7,3.4,2.6c2.7,1.6,4.4,1.6,4.4,1.6s-1.9,0.9-5.4-0.2
		C70.7,455.2,69.9,454.8,69.4,454.6z"/>
	<path fill="#161616" d="M69.4,469.2c0-1.7,0-3.4,0-5.1c1,1,2.7,2.8,3.4,4.2c1.1,2.1,5,3.3,5,3.3s-1.2,1.2-3.8,1.1
		C72.6,472.5,70.7,470.6,69.4,469.2z"/>
	<path fill="#484649" d="M3.8,501.3h41.7V326H3.8c-2,0-3.7,1.7-3.7,3.7v168C0.1,499.7,1.8,501.3,3.8,501.3z"/>
	<circle fill="#996945" cx="22.8" cy="413.6" r="6.2"/>
	<circle fill="#3C250C" cx="22.8" cy="413.6" r="3.1"/>
	<path fill="#FFBC73" d="M22.8,415.8c-1.1,0-2-0.8-2.1-1.9L9.4,288.5l0-8.6c0-1.2,0.9-2.1,2.1-2.1c1.2,0,2.1,0.9,2.1,2.1v8.4
		l11.3,125.2c0.1,1.2-0.7,2.2-1.9,2.3C22.9,415.8,22.9,415.8,22.8,415.8z"/>
	
		<rect x="7.1" y="223.6" transform="matrix(-1 -1.224647e-16 1.224647e-16 -1 29.9444 511.8904)" fill="#161616" width="15.7" height="64.7"/>
	<path fill="#272628" d="M256.1,24.8C38.8,24.8,19.7,223.6,19.7,223.6h3.1c29.5-93.3,89.3-172.2,233.3-172.2
		c144,0,203.8,78.9,233.3,172.2h3.1C492.5,223.6,473.4,24.8,256.1,24.8z"/>
	<path fill="#484649" d="M256.1,10.5c-222.3,0-249,213.1-249,213.1h12.6c30.2-105.8,89-195.2,236.4-195.2s206.2,89.4,236.4,195.2
		h12.1C504.6,223.6,478.4,10.5,256.1,10.5z"/>
</g>
</svg>
