<?xml version="1.0" encoding="utf-8"?>
<!-- Generator: Adobe Illustrator 21.1.0, SVG Export Plug-In . SVG Version: 6.00 Build 0)  -->
<svg version="1.1" baseProfile="tiny" id="Слой_1"
	 xmlns="http://www.w3.org/2000/svg" xmlns:xlink="http://www.w3.org/1999/xlink" x="0px" y="0px" viewBox="0 0 512 512"
	 overflow="scroll" xml:space="preserve">
<g>
	<g id="XMLID_83_">
		<g>
			<ellipse id="XMLID_123_" fill="#FECE00" cx="257.7" cy="256.4" rx="228.6" ry="223.6"/>
			<path id="XMLID_4_" fill="#403408" d="M486.9,256.4c0,29.7-5.7,59.3-16.9,87c-1.4,3.4-3,6.8-4.4,10.3c-1.6,3.4-3.3,6.7-4.9,10
				l-5.4,9.8l-5.9,9.5c-8.2,12.5-17.6,24.3-28.2,35c-10.6,10.7-22.2,20.5-34.8,28.8l-4.8,3.1c-1.6,1-3.2,2.1-4.8,3l-4.9,2.9
				l-2.5,1.4c-0.8,0.5-1.7,0.9-2.5,1.3c-6.7,3.5-13.5,6.8-20.5,9.6c-28,11.4-58.4,17.1-88.6,16.7c-15.1-0.2-30.2-1.9-44.9-5
				c-14.7-3.1-29.2-7.7-43-13.6c-13.8-5.9-27.1-13-39.5-21.4c-12.4-8.3-24.1-17.8-34.7-28.2C74.3,395.9,57,370.9,45,343.6
				c-1.4-3.5-2.9-6.9-4.2-10.4c-1.2-3.5-2.6-7-3.7-10.6c-1.1-3.6-2.2-7.1-3.2-10.7c-0.9-3.6-1.9-7.2-2.7-10.9
				c-3.2-14.6-5-29.6-5.3-44.6c-0.5-30,5-60.3,16.6-88.3c11.5-28,29-53.5,50.6-74.7c10.8-10.6,22.7-20.2,35.4-28.5
				c12.7-8.3,26.2-15.4,40.3-21.2c14.1-5.8,28.7-10.1,43.7-12.9c14.9-2.9,30.1-4.4,45.3-4.3c15.2,0.1,30.4,1.6,45.3,4.6
				c14.9,2.9,29.5,7.3,43.5,13.2c7,2.9,13.9,6.2,20.5,9.7c0.8,0.4,1.7,0.9,2.5,1.3l2.4,1.4l4.9,2.9c1.6,0.9,3.2,2,4.8,3l4.7,3.1
				c12.6,8.4,24.1,18.2,34.7,29c10.5,10.8,20,22.5,28.2,35.1l5.9,9.6l5.4,9.8c1.6,3.4,3.3,6.7,4.9,10.1c1.5,3.4,3,6.8,4.4,10.3
				C481.3,197,486.9,226.7,486.9,256.4z M485.7,256.4c0-29.5-6.4-59-18.6-85.8c-12.1-26.8-30-50.7-51.4-70.4
				C405,90.4,393.3,81.7,381,74l-4.7-2.8c-1.5-0.9-3.1-1.9-4.7-2.7l-4.8-2.6l-2.4-1.3c-0.8-0.4-1.6-0.8-2.4-1.2
				c-6.5-3.2-13.1-6.2-19.8-8.8c-13.5-5.2-27.4-9.2-41.5-11.8c-14.2-2.6-28.6-3.9-43-3.8c-14.4,0.1-28.8,1.4-42.9,4.1
				c-14.1,2.7-28,6.8-41.4,12c-26.8,10.6-51.5,26.3-72.5,46.2C80,121.3,63,145.4,51.3,171.8c-5.9,13.2-10.5,27.1-13.6,41.2
				c-3.2,14.2-4.9,28.7-5.2,43.3c-0.5,29.2,4.9,58.6,16.3,85.6c5.6,13.5,12.8,26.5,21.1,38.6c8.3,12.1,18,23.3,28.6,33.4
				c10.6,10.1,22.3,19.1,34.7,26.9c12.4,7.7,25.6,14.3,39.3,19.4c27.3,10.3,56.5,15.1,85.4,14.8c58-0.6,115.2-22.9,158.1-62.4
				c21.4-19.7,39.3-43.6,51.4-70.4C479.4,315.4,485.7,285.9,485.7,256.4z"/>
		</g>
		<path fill="#EAB51F" d="M353.7,453.6c-27.4,14.6-70.2,22.8-109.4,21.3c-76.7-3-158.8-45.1-194.1-129.1
			C6.4,241.7,54.3,165.7,61.4,152c0,0-7.9,51.2,13.6,114.4c6.2,18.2,14.8,37.4,26.8,56.7c10.9,17.5,24.5,35.1,41.5,52
			C257.5,488.5,351.5,454.4,353.7,453.6z"/>
		<g id="XMLID_5_">
			<path fill="#403408" d="M258.8,385.6c-61.2,0-85.9-59.1-93.7-84.5c-1.1-3.6-0.5-7.7,1.6-10.5c1.6-2.2,4-3.5,6.5-3.5l171.8-0.7
				c0,0,0,0,0,0c2.5,0,4.9,1.3,6.6,3.5c2.1,2.9,2.8,7,1.6,10.6C345.2,326.1,319.9,385.6,258.8,385.6z M173.3,290.6L173.3,290.6
				L173.3,290.6z"/>
			<path fill="#FF5A58" d="M312.7,357.6c-0.3,0.3-0.6,0.6-0.9,0.8c-12.9,11.6-30.1,20-53,20c-22.9,0-40-8.2-52.7-19.7
				c-0.8-0.7-1.5-1.4-2.2-2.1c11.5-12.8,31.4-21.2,54-21.2C281.1,335.4,301.4,344.3,312.7,357.6z"/>
			<path id="XMLID_3_" fill="#403408" d="M301,344.6c-3.1-2.2-6.4-4.1-9.9-5.8c-3.4-1.6-7-3-10.7-4.1c-7.4-2.1-15-3.1-22.6-3.2
				c-15.2-0.1-30.7,3.8-43.7,12.2c-4.6,3-8.9,6.5-12.5,10.7c0.7,0.7,1.4,1.4,2.2,2.2c0.7,0.7,1.5,1.4,2.2,2.1
				c3.4-3.6,7.4-6.7,11.7-9.2c6-3.5,12.5-6.1,19.3-7.8c6.8-1.6,13.8-2.5,20.8-2.5c7,0,14,0.7,20.9,2.3c6.8,1.6,13.5,3.8,19.8,7.2
				c4.8,2.6,9.4,5.8,13.3,9.8c0.3-0.3,0.6-0.6,0.9-0.8c0.3-0.3,0.6-0.6,0.9-0.8C310.1,352.1,305.8,348,301,344.6z"/>
		</g>
		<g id="XMLID_63_">
			<path fill="#403408" d="M328,244.4c-2.3,0-4.2-1.8-4.2-4.1c0-0.7-0.1-18.2,11.1-29.6c6.1-6.2,14.2-9.3,24.2-9.3
				c10,0,18.2,3.1,24.2,9.3c11.1,11.3,10.8,28.6,10.8,29.3c0,2.3-1.9,4.1-4.2,4.1c0,0-0.1,0-0.1,0c-2.3,0-4.1-2-4.1-4.3
				c0-0.1,0.1-14.6-8.5-23.3c-4.4-4.5-10.5-6.8-18.2-6.8c-7.6,0-13.7,2.3-18.2,6.8c-8.8,8.8-8.7,23.5-8.7,23.7
				C332.2,242.5,330.4,244.4,328,244.4C328,244.4,328,244.4,328,244.4z"/>
			<path fill="#403408" d="M123.8,244.4c-2.3,0-4.2-1.8-4.2-4.1c0-0.7-0.1-18.2,11.1-29.6c6.1-6.2,14.2-9.3,24.2-9.3
				c10,0,18.2,3.1,24.2,9.3c11.1,11.3,10.8,28.6,10.8,29.3c0,2.3-1.9,4.1-4.2,4.1c0,0-0.1,0-0.1,0c-2.3,0-4.1-2-4.1-4.3
				c0-0.1,0.1-14.6-8.5-23.3c-4.4-4.5-10.5-6.8-18.2-6.8c-7.6,0-13.7,2.3-18.2,6.8c-8.8,8.8-8.7,23.5-8.7,23.7
				C128,242.5,126.1,244.4,123.8,244.4C123.8,244.4,123.8,244.4,123.8,244.4z"/>
		</g>
		<path id="XMLID_146_" fill="#F7984B" d="M130.1,290.9c0,18-14.9,32.5-33.3,32.5c-18.4,0-33.3-14.6-33.3-32.5
			c0-18,14.9-32.5,33.3-32.5C115.2,258.4,130.1,272.9,130.1,290.9z"/>
		<ellipse id="XMLID_145_" fill="#F7984B" cx="416.9" cy="290.9" rx="33.3" ry="32.5"/>
	</g>
	<path fill="#EF8E5A" d="M101.7,323.1c-1.6,0.2-3.2,0.3-4.9,0.3c-18.4,0-33.3-14.6-33.3-32.5c0-9.8,4.4-18.6,11.4-24.5
		C81.1,284.6,89.8,303.8,101.7,323.1z"/>
</g>
</svg>
