<?xml version="1.0" encoding="utf-8"?>
<!-- Generator: Adobe Illustrator 21.1.0, SVG Export Plug-In . SVG Version: 6.00 Build 0)  -->
<svg version="1.1" baseProfile="tiny" id="Слой_1"
	 xmlns="http://www.w3.org/2000/svg" xmlns:xlink="http://www.w3.org/1999/xlink" x="0px" y="0px" viewBox="0 0 512 512"
	 overflow="scroll" xml:space="preserve">
<g id="XMLID_106_">
	<g>
		<ellipse id="XMLID_96_" fill="#FECE00" cx="258.4" cy="256.4" rx="228.6" ry="223.6"/>
		<path id="XMLID_95_" fill="#403408" d="M487.6,256.4c0,29.7-5.7,59.3-16.9,87c-1.4,3.4-3,6.8-4.4,10.3c-1.6,3.4-3.3,6.7-4.9,10
			l-5.4,9.8L450,383c-8.2,12.5-17.6,24.3-28.2,35c-10.6,10.7-22.2,20.5-34.8,28.8l-4.8,3.1c-1.6,1-3.2,2.1-4.8,3l-4.9,2.9l-2.5,1.4
			c-0.8,0.5-1.7,0.9-2.5,1.3c-6.7,3.5-13.5,6.8-20.5,9.6c-28,11.4-58.4,17.1-88.6,16.7c-15.1-0.2-30.2-1.9-44.9-5
			c-14.7-3.1-29.2-7.7-43-13.6c-13.8-5.9-27.1-13-39.5-21.4c-12.4-8.3-24.1-17.8-34.7-28.2c-21.4-20.9-38.7-45.8-50.7-73.2
			c-1.4-3.5-2.9-6.9-4.2-10.4c-1.2-3.5-2.6-7-3.7-10.6c-1.1-3.6-2.2-7.1-3.2-10.7c-0.9-3.6-1.9-7.2-2.7-10.9
			c-3.2-14.6-5-29.6-5.3-44.6c-0.5-30,5-60.3,16.6-88.3c11.5-28,29-53.5,50.6-74.7c10.8-10.6,22.7-20.2,35.4-28.5
			c12.7-8.3,26.2-15.4,40.3-21.2c14.1-5.8,28.7-10.1,43.7-12.9c14.9-2.9,30.1-4.4,45.3-4.3c15.2,0.1,30.4,1.6,45.3,4.6
			c14.9,2.9,29.5,7.3,43.5,13.2c7,2.9,13.9,6.2,20.5,9.7c0.8,0.4,1.7,0.9,2.5,1.3l2.4,1.4l4.9,2.9c1.6,0.9,3.2,2,4.8,3l4.7,3.1
			c12.6,8.4,24.1,18.2,34.7,29c10.5,10.8,20,22.5,28.2,35.1l5.9,9.6l5.4,9.8c1.6,3.4,3.3,6.7,4.9,10.1c1.5,3.4,3,6.8,4.4,10.3
			C482,197,487.6,226.7,487.6,256.4z M486.4,256.4c0-29.5-6.4-59-18.6-85.8c-12.1-26.8-30-50.7-51.4-70.4
			C405.7,90.4,394,81.7,381.7,74l-4.7-2.8c-1.5-0.9-3.1-1.9-4.7-2.7l-4.8-2.6l-2.4-1.3c-0.8-0.4-1.6-0.8-2.4-1.2
			c-6.5-3.2-13.1-6.2-19.8-8.8c-13.5-5.2-27.4-9.2-41.5-11.8c-14.2-2.6-28.6-3.9-43-3.8c-14.4,0.1-28.8,1.4-42.9,4.1
			c-14.1,2.7-28,6.8-41.4,12c-26.8,10.6-51.5,26.3-72.5,46.2c-20.9,19.9-37.9,43.9-49.7,70.4c-5.9,13.2-10.5,27.1-13.6,41.2
			c-3.2,14.2-4.9,28.7-5.2,43.3c-0.5,29.2,4.9,58.6,16.3,85.6c5.6,13.5,12.8,26.5,21.1,38.6c8.3,12.1,18,23.3,28.6,33.4
			c10.6,10.1,22.3,19.1,34.7,26.9c12.4,7.7,25.6,14.3,39.3,19.4c27.3,10.3,56.5,15.1,85.4,14.8c58-0.6,115.2-22.9,158.1-62.4
			c21.4-19.7,39.3-43.6,51.4-70.4C480.1,315.4,486.4,285.9,486.4,256.4z"/>
	</g>
	<path fill="#EAB51F" d="M354.4,453.6c-27.4,14.6-70.2,22.8-109.5,21.3c-76.7-3-158.8-45.1-194.1-129.1C7.1,241.7,55,165.6,62,152
		c0,0-18.9,123.1,81.9,223.1C259.5,489.9,354.4,453.6,354.4,453.6z"/>
	<g>
		<path id="XMLID_79_" fill="#2FA7BF" d="M426.1,345c0,17.2-14.3,31.2-31.9,31.2c-17.6,0-31.9-14-31.9-31.2
			c0-17.3,31.9-76.1,31.9-76.1S426.1,327.7,426.1,345z"/>
		<path id="XMLID_47_" fill="#403408" d="M426.5,345c-0.1,7.7-2.6,15.4-7.4,21.7c-4.8,6.3-12.2,11.1-20.4,12.3
			c-4.1,0.6-8.3,0.5-12.4-0.5c-4.1-1-7.9-2.7-11.3-5.1c-6.8-4.8-11.3-12.3-13-20c-0.2-1-0.4-1.9-0.5-2.9c-0.1-1-0.3-2-0.3-3
			c0-1-0.1-2,0-3c0-0.5,0.1-1,0.1-1.5l0.2-1.5c0.7-3.9,1.7-7.5,2.9-11.2c2.3-7.3,4.9-14.5,7.6-21.6c5.3-14.3,12-28,18.9-41.7
			c0.9-1.8,3.1-2.5,5-1.6c0.7,0.3,1.2,0.9,1.5,1.5l0.1,0.1c3.4,6.1,6.6,12.2,9.6,18.5c3,6.3,5.9,12.6,8.4,19.1
			c2.5,6.5,4.6,13.2,6.6,19.9c1,3.3,1.9,6.7,2.8,10.1C425.6,338,426.4,341.4,426.5,345z M425.7,345c-0.1-3.4-1-6.7-2.2-10
			c-1.1-3.3-2.5-6.4-4-9.5c-3-6.2-6.4-12.2-9.7-18.3c-3.3-6-6.4-12.2-9.6-18.3l-9.5-18.3l6.6,0c-7.4,13.1-14.4,26.6-21.5,39.9
			c-3.5,6.7-6.9,13.5-9.4,20.6c-1.2,3.5-2.4,7.1-2.9,10.8l-0.2,1.4c0,0.4,0,0.9-0.1,1.3c0,0.9,0.1,1.8,0.2,2.7
			c0,0.9,0.3,1.8,0.4,2.7c0.1,0.9,0.4,1.8,0.7,2.6c2.3,6.9,7.3,12.5,13.3,15.9c6,3.5,12.9,4.9,19.8,4.4c6.8-0.5,13.8-3.2,19.1-8.1
			c0.7-0.6,1.3-1.3,1.9-1.9l0.9-1l0.8-1.1l0.8-1.1c0.3-0.4,0.5-0.8,0.7-1.2c0.5-0.8,0.9-1.6,1.3-2.5
			C424.9,352.5,425.7,348.7,425.7,345z"/>
	</g>
	<g id="XMLID_94_">
		<path fill="#403408" d="M361.6,240.4c-10,0-18.2-3.1-24.2-9.3c-11.1-11.3-10.8-28.6-10.8-29.3c0-2.3,1.9-4.1,4.2-4.1
			c0,0,0.1,0,0.1,0c2.3,0,4.1,2,4.1,4.3c0,0.1-0.1,14.6,8.5,23.3c4.4,4.5,10.5,6.8,18.2,6.8c7.6,0,13.8-2.3,18.2-6.8
			c8.8-8.9,8.7-23.5,8.7-23.6c0-2.3,1.8-4.2,4.1-4.2c0,0,0,0,0.1,0c2.3,0,4.2,1.8,4.2,4.1c0,0.7,0.1,18.2-11.1,29.6
			C379.7,237.3,371.6,240.4,361.6,240.4z"/>
		<path fill="#403408" d="M153.2,240.4c-10,0-18.2-3.1-24.2-9.3c-11.1-11.3-10.8-28.6-10.8-29.3c0-2.3,1.9-4.1,4.2-4.1
			c0,0,0.1,0,0.1,0c2.3,0,4.1,2,4.1,4.3c0,0.1-0.1,14.6,8.5,23.3c4.4,4.5,10.5,6.8,18.2,6.8c7.6,0,13.7-2.3,18.2-6.8
			c8.8-8.8,8.7-23.5,8.7-23.7c0-2.3,1.8-4.2,4.1-4.2c2.3,0,4.2,1.8,4.2,4.1c0,0.7,0.1,18.2-11.1,29.6
			C171.3,237.3,163.2,240.4,153.2,240.4z"/>
	</g>
	<path fill="#403408" d="M175.6,341.3c-0.4,0-0.8-0.1-1.2-0.2c-2.2-0.6-3.5-3-2.8-5.2c0.2-0.6,4.7-15.8,17.6-31.2
		c11.9-14.2,33.5-31.1,68.7-31.1c35.2,0,56.6,16.8,68.4,30.9c12.7,15.2,17,30.3,17.2,31c0.6,2.2-0.7,4.5-2.9,5.2
		c-2.2,0.6-4.5-0.7-5.2-2.9c0-0.1-4.2-14.3-15.8-28.1c-15.4-18.4-36.2-27.7-61.7-27.7c-61.1,0-78.1,55.7-78.3,56.3
		C179.1,340.1,177.4,341.3,175.6,341.3z"/>
</g>
</svg>
