<?xml version="1.0" encoding="utf-8"?>
<!-- Generator: Adobe Illustrator 21.1.0, SVG Export Plug-In . SVG Version: 6.00 Build 0)  -->
<svg version="1.1" baseProfile="tiny" id="Слой_1"
	 xmlns="http://www.w3.org/2000/svg" xmlns:xlink="http://www.w3.org/1999/xlink" x="0px" y="0px" viewBox="0 0 512 512"
	 overflow="scroll" xml:space="preserve">
<g>
	<path fill="#F5581F" d="M108.9,280.3c9-33.6,35.2-63,55.9-91c20.7-28,42.4-55.8,55.3-88.2s15.8-70.6-1.1-101
		c29.2,21.6,50.7,53.4,59.8,88.6c3.7,14.2,5.4,29,10.5,42.8c5.1,13.8,14.5,26.9,28.3,32c13.1,4.8,28.8,0.9,38.2-9.3
		c9.4-10.2,9.1-24,6-38.9c29.6,61.4,47.5,132.9,36.4,197.2c9-11.2,22.5-18.2,26.7-31.8c3.4,42.9,2.7,99.3-21,142.2
		c-23.8,42.9-66.9,74.6-115,84.3c-25.7,5.2-52.6,4.3-78-2.3c-53.1-13.9-98.6-54-119-104.8c-20.4-50.9-15.3-111.3,13.4-158.1
		C103.4,255.3,105.6,267.5,108.9,280.3z"/>
	<path fill="#F98D25" d="M326.8,224.4c18.8,38.2,31.8,82.7,29.4,123.8c5.1-3.8,12.5-5.5,15.1-10.5c5,32.4,6.4,71.9-7.3,103.4
		c-13.3,30.6-42.4,55.3-75.6,65.1c-17.7,5.2-36.5,5.9-54.5,2.6c-49.3-8.9-84.2-37-100.4-72.8c-16.2-35.9-13.6-78.1,1.7-109
		c-0.5,3.9,1.3,7.4,4,11.2c7.2-23.5,25-44.4,40.6-64.6c2.9-3.8,5.9-7.6,8.8-11.4c12.2-15.8,24.3-31.9,33.2-49.9
		c10.9-22,16.3-47.5,10.4-69.9c14.2,15,26,41.7,33.7,68.5c3,10.5,5.2,21.1,9.5,30.5c4.6,10.1,11.9,18.8,21.9,21.8
		c0.3,0.1,0.7,0.2,1,0.3c9.8,2.5,18.8-2.2,24.3-10.5C327.8,245,328,234.7,326.8,224.4z"/>
	<path fill="#FFF200" d="M164.8,411.3c2.9-22.5,18.2-41.2,35.1-60.9c16.9-19.7,35.5-40.3,44.9-66.7c-1.7,15.4,7.2,75.4,32.1,78.4
		c12.7,1.5,12.6-17.2,14.5-29.5c9.6,18,19.4,39.4,25.9,61.4c6.5,22,9.8,44.5,6.4,64.6c-4.7,27.8-36.5,55-67.1,53.5
		c-45.9-2.3-69.8-20-81.8-40.8C162.9,450.5,162.9,426.4,164.8,411.3z"/>
</g>
</svg>
