<?xml version="1.0" encoding="utf-8"?>
<!-- Generator: Adobe Illustrator 21.1.0, SVG Export Plug-In . SVG Version: 6.00 Build 0)  -->
<svg version="1.1" baseProfile="tiny" id="Слой_1"
	 xmlns="http://www.w3.org/2000/svg" xmlns:xlink="http://www.w3.org/1999/xlink" x="0px" y="0px" viewBox="0 0 512 512"
	 overflow="scroll" xml:space="preserve">
<g>
	<path fill="#38454F" d="M344.1,167.5L331.3,86c-0.6-3.9-4-6.8-7.9-6.8H259h-64.3c-4,0-7.3,2.9-7.9,6.8l-12.9,81.5
		c-0.4,2.3,0.3,4.7,1.8,6.5c1.5,1.8,3.8,2.8,6.1,2.8H259h77.2c2.4,0,4.6-1,6.1-2.8C343.8,172.2,344.5,169.8,344.1,167.5z"/>
	<path fill="#38454F" d="M113.5,133.3v-18.1c0-7.1-5.8-12.8-12.9-12.8H73.4c-7.1,0-12.9,5.7-12.9,12.8v18.1H113.5z M133.5,133.3"/>
	<path fill="#556080" d="M511.5,412.5c0,21.4-17.5,38.8-39,38.8H40.1c-21.6,0-39-17.3-39-38.8V163.8c0-21.4,17.5-38.8,39-38.8h432.3
		c21.6,0,39,17.4,39,38.8V412.5z M511.5,412.5"/>
	<path fill="#444E66" d="M253.7,125h218.8c21.5,0,39,17.3,39,38.8v248.7c0,21.4-17.5,38.8-39,38.8H253.7 M1.1,412.5"/>
	<path fill="#38454F" d="M463.2,165.3c0,10.9-8.9,19.8-19.9,19.8c-11,0-19.9-8.9-19.9-19.8c0-10.9,8.9-19.7,19.9-19.7
		C454.3,145.6,463.2,154.4,463.2,165.3L463.2,165.3z M463.2,165.3"/>
	<path fill="#FF6F43" d="M455.1,165.3c0,6.4-5.2,11.7-11.7,11.7c-6.5,0-11.7-5.2-11.7-11.7c0-6.4,5.3-11.6,11.7-11.6
		C449.8,153.7,455.1,158.9,455.1,165.3L455.1,165.3z M455.1,165.3"/>
</g>
<path fill="#424A60" d="M253.6,155.4c73,0,132.4,59.4,132.4,132.4s-59.4,132.4-132.4,132.4s-132.4-59.4-132.4-132.4
	S180.6,155.4,253.6,155.4z"/>
<path fill="#38454F" d="M386.1,287.8c0,73-59.4,132.4-132.4,132.4V155.4C326.7,155.4,386.1,214.8,386.1,287.8z"/>
<path fill="#8FE5F7" d="M253.6,198.3c49.4,0,89.5,40.2,89.5,89.5s-40.2,89.5-89.5,89.5s-89.5-40.2-89.5-89.5
	S204.3,198.3,253.6,198.3z"/>
<path fill="#86D5E0" d="M343.2,287.8c0,49.4-40.2,89.5-89.5,89.5V198.3C303,198.3,343.2,238.5,343.2,287.8z"/>
<path fill="#FFFFFF" d="M306.6,308.7c-0.7,0-1.4-0.1-2.1-0.3c-4.3-1.2-6.8-5.6-5.7-9.9c0.9-3.5,1.4-7.1,1.4-10.8
	c0-22.8-18.5-41.3-41.3-41.3c-4.4,0-8-3.6-8-8c0-4.4,3.6-8,8-8c31.6,0,57.4,25.7,57.4,57.4c0,5.1-0.7,10.1-2,15
	C313.4,306.4,310.2,308.7,306.6,308.7z"/>
</svg>
