<?xml version="1.0" encoding="utf-8"?>
<!-- Generator: Adobe Illustrator 21.1.0, SVG Export Plug-In . SVG Version: 6.00 Build 0)  -->
<svg version="1.1" baseProfile="tiny" id="Слой_1"
	 xmlns="http://www.w3.org/2000/svg" xmlns:xlink="http://www.w3.org/1999/xlink" x="0px" y="0px" viewBox="0 0 512 512"
	 overflow="scroll" xml:space="preserve">
<path fill="#E6563A" d="M496,110.4c-18.2-39-49-69.5-86.7-85.4c-40.7-17.2-85-16.5-125.1,2.3c-42.4,19.9-66.2,52.6-78.1,87
	c-33.8-12.9-74.1-15.9-116.5,3.6c-79.7,37.4-111.8,132-72.8,216.1c39.7,85,127.4,107.5,248.8,138.7c25.1,6.6,52.6,13.6,82.4,21.8
	c22.9,7,48.6-5.8,58.6-27.1c12.6-28.1,24.8-53.6,36.1-77.1C496.7,277.2,535.8,195.8,496,110.4C477.8,71.4,535.8,195.8,496,110.4z"/>
</svg>
