<?xml version="1.0" encoding="utf-8"?>
<!-- Generator: Adobe Illustrator 21.1.0, SVG Export Plug-In . SVG Version: 6.00 Build 0)  -->
<svg version="1.1" baseProfile="tiny" id="Слой_1"
	 xmlns="http://www.w3.org/2000/svg" xmlns:xlink="http://www.w3.org/1999/xlink" x="0px" y="0px" viewBox="0 0 512 512"
	 overflow="scroll" xml:space="preserve">
<g id="XMLID_85_">
	<g>
		<ellipse id="XMLID_20_" fill="#FECE00" cx="257.4" cy="255.7" rx="228.6" ry="223.6"/>
		<path id="XMLID_16_" fill="#403408" d="M486.6,255.7c0,29.7-5.7,59.3-16.9,87c-1.4,3.4-3,6.8-4.4,10.3c-1.6,3.4-3.3,6.7-4.9,10
			l-5.4,9.8l-5.9,9.5c-8.2,12.5-17.6,24.3-28.2,35c-10.6,10.7-22.2,20.5-34.8,28.8l-4.8,3.1c-1.6,1-3.2,2.1-4.8,3l-4.9,2.9l-2.5,1.4
			c-0.8,0.5-1.7,0.9-2.5,1.3c-6.7,3.5-13.5,6.8-20.5,9.6c-28,11.4-58.4,17.1-88.6,16.7c-15.1-0.2-30.2-1.9-44.9-5
			c-14.7-3.1-29.2-7.7-43-13.6c-13.8-5.9-27.1-13-39.5-21.4c-12.4-8.3-24.1-17.8-34.7-28.2c-21.4-20.9-38.7-45.8-50.7-73.2
			c-1.4-3.5-2.9-6.9-4.2-10.4c-1.2-3.5-2.6-7-3.7-10.6c-1.1-3.6-2.2-7.1-3.2-10.7c-0.9-3.6-1.9-7.2-2.7-10.9
			c-3.2-14.6-5-29.6-5.3-44.6c-0.5-30,5-60.3,16.6-88.3c11.5-28,29-53.5,50.6-74.7c10.8-10.6,22.7-20.2,35.4-28.5
			c12.7-8.3,26.2-15.4,40.3-21.2c14.1-5.8,28.7-10.1,43.7-12.9c14.9-2.9,30.1-4.4,45.3-4.3c15.2,0.1,30.4,1.6,45.3,4.6
			c14.9,2.9,29.5,7.3,43.5,13.2c7,2.9,13.9,6.2,20.5,9.7c0.8,0.4,1.7,0.9,2.5,1.3l2.4,1.4l4.9,2.9c1.6,0.9,3.2,2,4.8,3l4.7,3.1
			c12.6,8.4,24.1,18.2,34.7,29c10.5,10.8,20,22.5,28.2,35.1l5.9,9.6l5.4,9.8c1.6,3.4,3.3,6.7,4.9,10.1c1.5,3.4,3,6.8,4.4,10.3
			C481,196.3,486.6,226,486.6,255.7z M485.4,255.7c0-29.5-6.4-59-18.6-85.8c-12.1-26.8-30-50.7-51.4-70.4
			C404.7,89.7,393,81,380.7,73.4l-4.7-2.8c-1.5-0.9-3.1-1.9-4.7-2.7l-4.8-2.6l-2.4-1.3c-0.8-0.4-1.6-0.8-2.4-1.2
			c-6.5-3.2-13.1-6.2-19.8-8.8c-13.5-5.2-27.4-9.2-41.5-11.8c-14.2-2.6-28.6-3.9-43-3.8c-14.4,0.1-28.8,1.4-42.9,4.1
			c-14.1,2.7-28,6.8-41.4,12c-26.8,10.6-51.5,26.3-72.5,46.2c-20.9,19.9-37.9,43.9-49.7,70.4c-5.9,13.2-10.5,27.1-13.6,41.2
			c-3.2,14.2-4.9,28.7-5.2,43.3c-0.5,29.2,4.9,58.6,16.3,85.6c5.6,13.5,12.8,26.5,21.1,38.6c8.3,12.1,18,23.3,28.6,33.4
			c10.6,10.1,22.3,19.1,34.7,26.9c12.4,7.7,25.6,14.3,39.3,19.4c27.3,10.3,56.5,15.1,85.4,14.8c58-0.6,115.2-22.9,158.1-62.4
			c21.4-19.7,39.3-43.6,51.4-70.4C479.1,314.7,485.4,285.2,485.4,255.7z"/>
	</g>
	<path fill="#EAB51F" d="M353.4,452.9c-27.4,14.6-70.2,22.8-109.5,21.3c-76.7-3-158.8-45.1-194.1-129.1C6.1,241,54,165,61,151.4
		c0,0-18.9,123.1,81.9,223.1C258.5,489.2,353.4,452.9,353.4,452.9z"/>
	<path fill="#403408" d="M256.2,322.8c-83,0-105.1-32.5-106-33.9c-1.3-1.9-0.7-4.5,1.2-5.8c1.9-1.3,4.5-0.7,5.8,1.2
		c0.2,0.3,21.2,30.1,99,30.1c78.5,0,99.7-30.1,99.9-30.4c1.3-1.9,3.9-2.4,5.8-1.1c1.9,1.3,2.4,3.9,1.1,5.8
		C362.1,290.1,339.1,322.8,256.2,322.8z"/>
	<g id="XMLID_9_">
		<g id="XMLID_12_">
			<g>
				<path id="XMLID_108_" fill="#FF5A58" d="M335,161.3c11.5-4.5,22.3,0.2,29.2,9.4c7.1-9,18.1-13.3,29.5-8.5
					c14.3,6.1,17,20.8,10.8,34.7c-4.5,10.1-24.1,28.9-34.7,38.5c-3.8,3.5-9.7,3.4-13.4-0.2c-10.2-10-29.2-29.4-33.4-39.6
					C317.3,181.5,320.6,166.9,335,161.3z"/>
				<path id="XMLID_18_" fill="#403408" d="M334.9,161c2.6-1,5.4-1.7,8.2-1.8c2.8-0.2,5.7,0.1,8.5,0.8c5.6,1.5,10.6,4.9,14.5,9.4
					l-3.6-0.1c2.9-4.3,7-8.1,12.1-10.3c5-2.2,11-2.6,16.3-1c2.7,0.7,5.1,1.9,7.4,3.4c2.3,1.5,4.3,3.4,6,5.5c1.7,2.2,2.9,4.6,3.7,7.1
					c0.8,2.5,1.1,5.2,1.2,7.7c0,2.6-0.3,5.1-0.9,7.6c-0.3,1.2-0.6,2.5-1,3.6l-0.6,1.8l-0.7,1.7c-0.9,2.3-2.2,4.6-3.7,6.6
					c-1.4,2.1-2.9,4-4.4,6c-6.1,7.8-12.5,15.2-19.3,22.3c-1.7,1.8-3.4,3.5-5.2,5.2l-1.3,1.3c-0.6,0.5-1.2,1.1-1.9,1.5
					c-1.4,0.9-2.9,1.5-4.5,1.8c-3.2,0.7-6.6,0.1-9.5-1.7c-0.7-0.4-1.4-0.9-2-1.5c-0.2-0.1-0.3-0.3-0.4-0.4l-0.3-0.3l-0.7-0.6
					l-2.7-2.5c-7.1-6.8-13.9-13.9-20.1-21.7c-3.1-3.9-6.1-8-8.4-12.7c-0.3-0.6-0.6-1.2-0.8-1.9c-0.3-0.6-0.5-1.3-0.7-1.9l-0.6-1.9
					c-0.2-0.6-0.3-1.3-0.4-1.9c-0.3-1.3-0.4-2.6-0.6-3.9c-0.1-0.7-0.1-1.3-0.1-2c0-0.7,0-1.3,0-2c0.2-5.2,1.7-10.4,4.7-14.5
					C326,165.6,330.3,162.8,334.9,161z M335.2,161.6c-4.4,1.8-8.5,4.9-10.7,9.1c-2.3,4.1-2.8,8.9-2,13.4c0.3,2.3,0.9,4.5,1.7,6.6
					c0.2,0.5,0.4,1.1,0.6,1.6l0.7,1.5c0.2,0.5,0.5,1,0.7,1.5c0.3,0.5,0.5,0.9,0.8,1.4c2.5,3.7,5.5,7.4,8.6,11
					c6.3,7.2,12.9,14.2,19.6,21.2l2.5,2.6l1.2,1.2c0.3,0.3,0.6,0.5,0.9,0.7c1.3,0.9,2.9,1.3,4.5,1c0.8-0.1,1.6-0.4,2.3-0.8
					c0.4-0.2,0.7-0.4,1-0.7l1.4-1.2l5.5-4.8c7.3-6.4,14.7-12.7,21.2-19.8c3.2-3.6,6.3-7.4,8.1-11.7c1-2.2,1.5-4.5,2-6.8
					c0.3-2.3,0.5-4.7,0.2-7c-0.3-2.3-0.8-4.5-1.8-6.5c-1-2-2.2-3.8-3.8-5.3c-0.4-0.4-0.8-0.7-1.2-1.1c-0.4-0.4-0.8-0.7-1.3-1
					c-0.5-0.3-0.9-0.6-1.3-0.9l-1.4-0.8c-0.5-0.3-1-0.5-1.5-0.7c-0.5-0.2-1-0.5-1.5-0.6l-1.5-0.5c-0.5-0.2-1-0.3-1.6-0.4
					c-4.1-0.9-8.4-0.7-12.4,0.7c-4,1.5-7.7,4-10.9,7.3l-2.2,2.3l-1.4-2.3c-1.4-2.2-3-4.3-4.9-6c-1.9-1.8-4.1-3.3-6.6-4.3
					c-2.4-1.1-5.1-1.6-7.8-1.6C340.4,160.1,337.7,160.7,335.2,161.6z"/>
			</g>
		</g>
		<g id="XMLID_17_">
			<g>
				<path id="XMLID_109_" fill="#FF5A58" d="M120.3,161.3c11.5-4.5,22.3,0.2,29.2,9.4c7.1-9,18.1-13.3,29.5-8.5
					c14.3,6.1,17,20.8,10.8,34.7c-4.5,10.1-24.1,28.9-34.7,38.5c-3.8,3.5-9.7,3.4-13.4-0.2c-10.2-10-29.2-29.4-33.4-39.6
					C102.5,181.5,105.8,166.9,120.3,161.3z"/>
				<path id="XMLID_15_" fill="#403408" d="M120.1,161c2.6-1,5.4-1.7,8.2-1.8c2.8-0.2,5.7,0.1,8.5,0.8c5.6,1.5,10.6,4.9,14.5,9.4
					l-3.6-0.1c2.9-4.3,7-8.1,12.1-10.3c5-2.2,11-2.6,16.3-1c2.7,0.7,5.1,1.9,7.4,3.4c2.3,1.5,4.3,3.4,6,5.5c1.7,2.2,2.9,4.6,3.7,7.1
					c0.8,2.5,1.1,5.2,1.2,7.7c0,2.6-0.3,5.1-0.9,7.6c-0.3,1.2-0.6,2.5-1,3.6l-0.6,1.8l-0.7,1.7c-0.9,2.3-2.2,4.6-3.7,6.6
					c-1.4,2.1-2.9,4-4.4,6c-6.1,7.8-12.5,15.2-19.3,22.3c-1.7,1.8-3.4,3.5-5.2,5.2l-1.3,1.3c-0.6,0.5-1.2,1.1-1.9,1.5
					c-1.4,0.9-2.9,1.5-4.5,1.8c-3.2,0.7-6.7,0.1-9.5-1.7c-0.7-0.4-1.4-0.9-2-1.5c-0.2-0.1-0.3-0.3-0.4-0.4l-0.3-0.3l-0.7-0.6
					l-2.7-2.5c-7.1-6.8-13.9-13.9-20.1-21.7c-3.1-3.9-6.1-8-8.4-12.7c-0.3-0.6-0.6-1.2-0.8-1.9c-0.3-0.6-0.5-1.3-0.7-1.9l-0.6-1.9
					c-0.2-0.6-0.3-1.3-0.4-1.9c-0.3-1.3-0.4-2.6-0.6-3.9c-0.1-0.7-0.1-1.3-0.1-2c0-0.7,0-1.3,0-2c0.2-5.2,1.7-10.4,4.7-14.5
					C111.3,165.6,115.6,162.8,120.1,161z M120.4,161.6c-4.4,1.8-8.5,4.9-10.7,9.1c-2.3,4.1-2.8,8.9-2.1,13.4
					c0.3,2.3,0.9,4.5,1.7,6.6c0.2,0.5,0.4,1.1,0.6,1.6l0.7,1.5c0.2,0.5,0.5,1,0.7,1.5c0.3,0.5,0.5,0.9,0.8,1.4
					c2.5,3.7,5.5,7.4,8.6,11c6.3,7.2,12.9,14.2,19.6,21.2l2.5,2.6l1.2,1.2c0.3,0.3,0.6,0.5,0.9,0.7c1.3,0.9,2.9,1.3,4.5,1
					c0.8-0.1,1.6-0.4,2.3-0.8c0.4-0.2,0.7-0.4,1-0.7l1.4-1.2l5.5-4.8c7.3-6.4,14.7-12.7,21.2-19.8c3.2-3.6,6.3-7.4,8.1-11.7
					c1-2.2,1.5-4.5,2-6.8c0.3-2.3,0.5-4.7,0.2-7c-0.3-2.3-0.8-4.5-1.8-6.5c-1-2-2.2-3.8-3.8-5.3c-0.4-0.4-0.8-0.7-1.2-1.1
					c-0.4-0.4-0.8-0.7-1.3-1c-0.5-0.3-0.9-0.6-1.3-0.9l-1.4-0.8c-0.5-0.3-1-0.5-1.5-0.7c-0.5-0.2-1-0.5-1.5-0.6l-1.5-0.5
					c-0.5-0.2-1-0.3-1.6-0.4c-4.1-0.9-8.4-0.7-12.4,0.7c-4,1.5-7.7,4-10.9,7.3l-0.3,0.3c-0.8,0.8-2.1,0.9-3,0.1
					c-0.1-0.1-0.3-0.3-0.3-0.4c-1.4-2.2-3-4.3-4.9-6c-1.9-1.8-4.1-3.3-6.6-4.3c-2.4-1.1-5.1-1.6-7.8-1.6
					C125.6,160.1,122.9,160.7,120.4,161.6z"/>
			</g>
		</g>
	</g>
</g>
</svg>
