<?xml version="1.0" encoding="utf-8"?>
<!-- Generator: Adobe Illustrator 21.1.0, SVG Export Plug-In . SVG Version: 6.00 Build 0)  -->
<svg version="1.1" baseProfile="tiny" id="Слой_1"
	 xmlns="http://www.w3.org/2000/svg" xmlns:xlink="http://www.w3.org/1999/xlink" x="0px" y="0px" viewBox="0 0 512 512"
	 overflow="scroll" xml:space="preserve">
<g>
	<g>
		<path fill="#4C83AA" d="M229.6,209.3c0,0-197.6-69.1-208.5-64.8c-10.9,4.3-20.3,87.1-20.3,109.9c0,22.8,9.4,105.6,20.3,109.9
			c10.9,4.3,209-63.2,209-63.2l-8.7-46.7L229.6,209.3z"/>
		<path fill="#4C83AA" d="M285.2,299.9c0,0,196.3,72.3,207.2,68c10.9-4.3,20.3-87.1,20.3-109.9c0-22.8-9.4-105.6-20.3-109.9
			c-10.9-4.3-208.7,62.8-208.7,62.8l8.4,47.1L285.2,299.9z"/>
		<path fill="#4C83AA" d="M21.1,364.4c10.9,4.3,208.7-62.6,208.7-62.6l-8.4-47.3"/>
	</g>
	<g>
		<path fill="#406687" d="M218.5,250.1c-0.6,0-1.2-0.1-1.8-0.3c-8.4-2.7-19.2-5.8-28.1-7c-9.7-1.2-19.5-1.5-29.3-0.7
			c-3.3,0.3-6.1-2.2-6.4-5.4c-0.3-3.3,2.2-6.1,5.4-6.4c10.6-0.9,21.2-0.6,31.7,0.7c9.8,1.2,21.2,4.6,30.1,7.4c3.1,1,4.9,4.3,3.9,7.5
			C223.3,248.5,221,250.1,218.5,250.1z"/>
		<path fill="#406687" d="M172.7,285.3c-3.1,0-5.8-2.5-5.9-5.6c-0.2-3.3,2.4-6.1,5.6-6.2c5.4-0.3,10.8-0.8,16.1-1.6
			c9.5-1.5,18.9-3.8,28.1-6.9c3.1-1.1,6.5,0.6,7.6,3.7c1.1,3.1-0.6,6.5-3.7,7.6c-9.8,3.4-19.9,5.9-30.1,7.4
			c-5.7,0.9-11.5,1.5-17.3,1.8C172.9,285.3,172.8,285.3,172.7,285.3z"/>
		<path fill="#406687" d="M302.3,249.9c-2.3,0-4.4-1.6-5.1-4.2c-0.9-3.1,0.7-6.5,3.5-7.5c8-2.8,18.2-6.2,27-7.5
			c9.4-1.3,18.9-1.6,28.4-0.7c2.9,0.3,5.1,3.1,4.9,6.4c-0.2,3.3-2.8,5.7-5.7,5.5c-8.7-0.8-17.5-0.6-26.2,0.7
			c-7.9,1.1-17.6,4.3-25.1,7C303.4,249.8,302.8,249.9,302.3,249.9z"/>
		<path fill="#406687" d="M343.2,285.3c-0.1,0-0.2,0-0.3,0c-5.1-0.3-10.3-0.9-15.4-1.8c-9.1-1.6-18.2-4.1-27-7.5
			c-2.8-1.1-4.2-4.5-3.3-7.6c1-3.1,4-4.8,6.8-3.7c8.2,3.2,16.6,5.5,25.1,7c4.7,0.8,9.6,1.4,14.4,1.6c2.9,0.2,5.2,3,5,6.3
			C348.4,282.9,346,285.3,343.2,285.3z"/>
	</g>
	<polyline fill="#D69B61" points="218.2,306.1 218.3,206.5 218.3,206.4 218.3,206.4 218.2,204.4 212.2,203.3 212.2,307.7 	"/>
	<polyline fill="#D69B61" points="300.9,306.2 300.8,206.6 300.8,206.5 300.8,206.5 300.9,205.1 306.9,203.1 306.9,307.8 	"/>
	<polygon fill="#FFBC73" points="305.5,206.4 305.5,206.4 305.5,203.5 213.5,203.5 213.5,206.4 213.5,219.5 213.5,307.4 
		287.7,307.4 305.5,307.4 305.5,206.5 	"/>
</g>
</svg>
