<?xml version="1.0" encoding="utf-8"?>
<!-- Generator: Adobe Illustrator 21.1.0, SVG Export Plug-In . SVG Version: 6.00 Build 0)  -->
<svg version="1.1" baseProfile="tiny" id="Слой_1"
	 xmlns="http://www.w3.org/2000/svg" xmlns:xlink="http://www.w3.org/1999/xlink" x="0px" y="0px" viewBox="0 0 512 512"
	 overflow="scroll" xml:space="preserve">
<path fill="#D8DBDB" d="M211.8,427.2l89.8-0.2c4.9,0,44.8,21,44.8,25.9l0,17.8c0,4.9-4,8.9-8.9,8.9h-9.4l-71.3,0
	c-29,0-58.2,0.2-72.2,0l-8.9,0c-4.9,0-8.9-4-8.9-8.9l0-17.8C166.8,448,206.9,427.2,211.8,427.2L211.8,427.2z M211.8,417.2"/>
<path fill="#B3B3B3" d="M86.1,230.1c-6.7,6.7-6.7,17.8,0,24.5c6.7,6.7,17.8,6.7,24.5,0c6.7-6.7,6.7-17.8,0-24.5
	C104,223.4,92.8,223.4,86.1,230.1L86.1,230.1z M137.4,205.6c-6.7,6.7-6.7,17.8,0,24.5c6.7,6.7,17.8,6.7,24.5,0
	c6.7-6.7,6.7-17.8,0-24.5C155.2,198.9,144.1,198.9,137.4,205.6L137.4,205.6z M373.6,203.4c-6.7-6.7-17.8-6.7-24.5,0
	c-6.7,6.7-6.7,17.8,0,24.5c6.7,6.7,17.8,6.7,24.5,0C380.3,221.2,380.5,210.3,373.6,203.4L373.6,203.4z M400.4,227.9
	c-6.7,6.7-6.7,17.8,0,24.5c6.7,6.7,17.8,6.7,24.5,0c6.7-6.7,6.7-17.8,0-24.5C418.2,221.2,407.1,221.2,400.4,227.9L400.4,227.9z
	 M420.4,235.9"/>
<path fill="#D8DBDB" d="M212.7,186.9H301c9.8,0,194.1,87.1,194.1,96.9V299c0,9.8-7.8,17.6-17.6,17.6l-221-0.3l-220.3,0.5
	c-9.8,0-17.6-7.8-17.6-17.6l0-15.2C18.5,274.2,202.9,186.9,212.7,186.9L212.7,186.9z M212.7,186.9"/>
<path fill="#E4E7E7" d="M256.8,4.6c24.5,0,44.1,41.4,44.3,70.6L301,393.6c0,29.4-19.6,115-44.1,115c-24.5,0-44.1-85.6-44.1-115
	l-0.2-318.4C212.5,45.8,232.3,4.6,256.8,4.6L256.8,4.6z M256.8,4.6"/>
<path fill="#DDE0E0" d="M257,508.5c24.3-0.2,44.1-85.7,44.1-115.1V75.2c0-29.4-19.6-70.8-44.1-70.9 M279.3,393.4"/>
<path fill="#8FE5F7" d="M272.2,60.9c-1.3,0-2.5-0.5-3.5-1.4c-7-6.6-18.3-6.6-25.3,0c-1.9,1.8-5.1,1.8-7,0c-1.9-1.8-1.9-4.8,0-6.6
	c10.8-10.2,28.5-10.2,39.3,0c1.9,1.8,1.9,4.8,0,6.6C274.7,60.4,273.4,60.9,272.2,60.9L272.2,60.9z M272.2,60.9"/>
<g>
	<path fill="#B3B3B3" d="M184.8,294.8H64c-5.9,0-10.8,4.9-10.8,10.8v11h142.4v-11C195.6,299.6,190.8,294.8,184.8,294.8z"/>
	<path fill="#B3B3B3" d="M450,294.8H329.2c-5.9,0-10.8,4.9-10.8,10.8v11h142.4v-11C460.8,299.6,455.9,294.8,450,294.8z"/>
</g>
<path fill="#C9C9C9" d="M244.9,295.3"/>
<path fill="#B3B3B3" d="M256.7,488.4c-8,0-6.7-6.5-6.7-14.5v-36.4c0-8-1.4-14.5,6.7-14.5c8.1,0,6.7,6.5,6.7,14.5v36.4
	C263.4,481.9,264.8,488.4,256.7,488.4z"/>
</svg>
