<?xml version="1.0" encoding="utf-8"?>
<!-- Generator: Adobe Illustrator 21.1.0, SVG Export Plug-In . SVG Version: 6.00 Build 0)  -->
<svg version="1.1" baseProfile="tiny" id="Слой_1"
	 xmlns="http://www.w3.org/2000/svg" xmlns:xlink="http://www.w3.org/1999/xlink" x="0px" y="0px" viewBox="0 0 512 512"
	 overflow="scroll" xml:space="preserve">
<g>
	<path fill="#3C250C" d="M511.6,339.3c0,34.3-114.6,68-256,68s-256-33.7-256-68c0-34.3,114.6-56.1,256-56.1S511.6,305.1,511.6,339.3
		z"/>
	<ellipse fill="#7D5637" cx="255.6" cy="338" rx="256" ry="62"/>
	<path fill="#996945" d="M258.7,341.9c107.2-0.4,160.1-25.1,160.1-25.1L383,149.4c-3.2-14.9-11.6-27.7-23.4-35.7
		c-11.8-8-26-10.6-39.6-7.1c-23.5,6.1-49.2,11.8-62.8,11.8c-13.6,0-39.3-5.7-62.8-11.8c-13.5-3.5-27.7-1-39.6,7.1
		c-11.8,8-20.2,20.9-23.4,35.7L95.6,316.8c0,0,52.9,24.7,160.1,25.1v0c0.5,0,1,0,1.5,0C257.7,341.9,258.2,341.9,258.7,341.9
		L258.7,341.9z"/>
	<path fill="#272628" d="M258.7,290.2L258.7,290.2c-0.5,0-1,0-1.5,0c-0.5,0-1,0-1.5,0v0c-80.1-0.3-129.8-14.2-149.9-21.2l-10.2,47.7
		c0,0,52.9,24.7,160.1,25.1v0c0.5,0,1,0,1.5,0c0.5,0,1,0,1.5,0v0c107.2-0.4,160.1-25.1,160.1-25.1L408.6,269
		C388.5,276,338.8,289.9,258.7,290.2z"/>
	<path fill="#272628" d="M258.7,292.6L258.7,292.6c-0.5,0-1,0-1.5,0c-0.5,0-1,0-1.5,0v0c-80.1-0.3-129.8-14.2-149.9-21.2l-10.7,47.5
		c0,0,53.4,24.9,160.6,25.3v0c0.5,0,1,0,1.5,0c0.5,0,1,0,1.5,0v0c107.2-0.4,160.6-25.3,160.6-25.3l-10.7-47.6
		C388.5,278.4,338.8,292.2,258.7,292.6z"/>
	<path fill="#272628" d="M258.7,290.2L258.7,290.2c-0.5,0-1,0-1.5,0c-0.5,0-1,0-1.5,0v0c-80.1-0.3-129.8-14.2-149.9-21.2l-10.2,47.7
		c0,0,52.9,24.7,160.1,25.1v0c0.5,0,1,0,1.5,0c0.5,0,1,0,1.5,0v0c107.2-0.4,160.1-25.1,160.1-25.1L408.6,269
		C388.5,276,338.8,289.9,258.7,290.2z"/>
	<path fill="#5E5E5E" d="M258.7,288.4L258.7,288.4c-0.5,0-1,0-1.5,0c-0.5,0-1,0-1.5,0v0c-80.1-0.3-129.5-14-149.6-21l-10.1,47.7
		c0,0,52.5,24.5,159.7,25v0c0.5,0,1,0,1.5,0c0.5,0,1,0,1.5,0v0c107.2-0.4,159.7-25.1,159.7-25.1l-10.2-47.7
		C388.2,274.4,338.8,288.1,258.7,288.4z"/>
	<path fill="#484649" d="M258.7,290.2L258.7,290.2c-0.5,0-1,0-1.5,0c-0.5,0-1,0-1.5,0v0c-80.1-0.3-129.8-14.2-149.9-21.2l-10.2,47.7
		c0,0,52.9,24.7,160.1,25.1v0c0.5,0,1,0,1.5,0c0.5,0,1,0,1.5,0v0c107.2-0.4,160.1-25.1,160.1-25.1L408.6,269
		C388.5,276,338.8,289.9,258.7,290.2z"/>
</g>
</svg>
