<?xml version="1.0" encoding="iso-8859-1"?>
<!-- Generator: Adobe Illustrator 21.1.0, SVG Export Plug-In . SVG Version: 6.00 Build 0)  -->
<svg version="1.1" baseProfile="tiny" id="Layer_1" xmlns="http://www.w3.org/2000/svg" xmlns:xlink="http://www.w3.org/1999/xlink"
	 x="0px" y="0px" viewBox="-49 141 512 512" overflow="scroll" xml:space="preserve" fill="#000000" stroke="#000000" stroke-width="0" stroke-opacity="1.0" fill-opacity="1.0">

<defs>
  <linearGradient id="retain_FECE00">
    <stop offset="0" stop-color="#FECE00" stop-opacity="1"/>
    <stop offset="1" stop-color="#FECE00" stop-opacity="1"/>
  </linearGradient>
  <linearGradient id="retain_000000">
    <stop offset="0" stop-color="#000000" stop-opacity="1"/>
    <stop offset="1" stop-color="#000000" stop-opacity="1"/>
  </linearGradient>
  <linearGradient id="retain_FFBC00">
    <stop offset="0" stop-color="#FFBC00" stop-opacity="1"/>
    <stop offset="1" stop-color="#FFBC00" stop-opacity="1"/>
  </linearGradient>
  <linearGradient id="retain_F2ECD3">
    <stop offset="0" stop-color="#F2ECD3" stop-opacity="1"/>
    <stop offset="1" stop-color="#F2ECD3" stop-opacity="1"/>
  </linearGradient>
  <linearGradient id="retain_E2DDC7">
    <stop offset="0" stop-color="#E2DDC7" stop-opacity="1"/>
    <stop offset="1" stop-color="#E2DDC7" stop-opacity="1"/>
  </linearGradient>
</defs>

<polygon fill="url(#retain_FECE00)" points="305.33,355.25 207,653 197.69,624.8 192,607.57 169.23,538.64 163.82,522.25 152.15,486.94 
	152.14,486.9 146.46,469.71 146.45,469.69 146.45,469.68 129.92,419.63 129.92,419.62 129.38,417.99 123.74,400.92 118.05,383.69 
	108.66,355.25 207,323.62 " stroke="url(#retain_000000)" stroke-width="0" stroke-opacity="1.0" fill-opacity="1.0" />
<g>
	<polygon fill="url(#retain_FFBC00)" points="254.958,407.061 266.397,395.592 277.877,407.061 266.397,418.5 	"/>
	<path fill="url(#retain_FFBC00)" d="M254.958,407.061"/>
	<polygon fill="url(#retain_FFBC00)" points="209.091,384.153 220.57,395.592 209.091,407.061 197.612,395.592 	"/>
	<path fill="url(#retain_FFBC00)" d="M209.091,384.153"/>
	<polygon fill="url(#retain_FFBC00)" points="243.479,418.54 231.999,430.02 220.57,418.54 231.999,407.061 	"/>
	<path fill="url(#retain_FFBC00)" d="M243.479,418.54"/>
	
		<rect x="246.841" y="433.342" transform="matrix(0.7071 -0.7071 0.7071 0.7071 -237.4832 309.5829)" fill="url(#retain_FFBC00)" width="16.234" height="16.234"/>
	<path fill="url(#retain_FFBC00)" d="M254.958,452.939"/>
	<polygon fill="url(#retain_FFBC00)" points="174.693,395.592 186.172,407.061 174.693,418.54 163.254,407.061 	"/>
	<path fill="url(#retain_FFBC00)" d="M174.693,395.592"/>
	<polygon fill="url(#retain_FFBC00)" points="209.091,430.02 197.652,441.459 186.172,430.02 197.652,418.54 	"/>
	<path fill="url(#retain_FFBC00)" d="M209.091,430.02"/>
	<polygon fill="url(#retain_FFBC00)" points="220.57,441.459 232.04,452.898 220.57,464.377 209.091,452.898 	"/>
	<path fill="url(#retain_FFBC00)" d="M220.57,441.459"/>
	<polygon fill="url(#retain_FFBC00)" points="243.479,487.286 232.04,475.857 243.479,464.377 254.958,475.857 	"/>
	<path fill="url(#retain_FFBC00)" d="M243.479,487.286"/>
	<polygon fill="url(#retain_FFBC00)" points="174.693,464.377 186.172,452.898 197.652,464.377 186.172,475.816 	"/>
	<path fill="url(#retain_FFBC00)" d="M174.693,464.377"/>
	<polygon fill="url(#retain_FFBC00)" points="209.091,475.857 220.57,487.286 209.091,498.765 197.652,487.286 	"/>
	<path fill="url(#retain_FFBC00)" d="M209.091,475.857"/>
	<polygon fill="url(#retain_FFBC00)" points="231.999,521.684 220.57,510.244 231.999,498.765 243.479,510.244 	"/>
	<path fill="url(#retain_FFBC00)" d="M231.999,521.684"/>
	<polygon fill="url(#retain_FFBC00)" points="220.57,556.082 209.131,544.643 220.57,533.163 232.04,544.643 	"/>
	<path fill="url(#retain_FFBC00)" d="M220.57,556.082"/>
	<polygon fill="url(#retain_FFBC00)" points="209.131,590.469 197.652,579.03 209.131,567.551 220.57,579.03 	"/>
	<path fill="url(#retain_FFBC00)" d="M209.131,590.469"/>
	<polygon fill="url(#retain_FFBC00)" points="197.612,533.143 186.172,521.704 197.612,510.224 209.081,521.704 	"/>
	<path fill="url(#retain_FFBC00)" d="M197.612,533.143"/>
	<path fill="url(#retain_FFBC00)" d="M186.172,567.531"/>
	<polygon fill="url(#retain_FFBC00)" points="175.14,556.54 186.17,567.53 197.61,556.09 186.17,544.61 174.92,555.86 	"/>
	<polygon fill="url(#retain_FFBC00)" points="174.703,510.224 163.264,498.785 174.703,487.306 186.172,498.785 	"/>
	<path fill="url(#retain_FFBC00)" d="M174.703,510.224"/>
	<polygon fill="url(#retain_FFBC00)" points="163.82,522.25 169.23,538.64 174.7,533.17 	"/>
	<polygon fill="url(#retain_FFBC00)" points="163.224,452.923 151.784,441.484 163.224,430.005 174.693,441.484 	"/>
	<path fill="url(#retain_FFBC00)" d="M163.224,452.923"/>
	<polygon fill="url(#retain_FFBC00)" points="151.78,464.39 146.46,469.71 152.14,486.9 152.15,486.94 163.22,475.87 	"/>
	<polygon fill="url(#retain_FFBC00)" points="151.77,464.35 146.45,469.68 146.45,469.69 152.14,486.9 163.24,475.83 	"/>
	<polygon fill="url(#retain_FFBC00)" points="140.31,407.06 129.38,417.99 129.92,419.62 129.92,419.63 140.31,429.98 151.75,418.54 	"/>
	<polygon fill="url(#retain_FFBC00)" points="209.071,590.469 197.632,579.03 209.071,567.551 220.54,579.03 	"/>
	<path fill="url(#retain_FFBC00)" d="M209.071,590.469"/>
	<polygon fill="url(#retain_FFBC00)" points="197.63,601.94 192,607.57 197.69,624.8 209.07,613.42 	"/>
	<polygon fill="url(#retain_FFBC00)" points="153.16,394.966 141.291,383.097 153.16,371.186 165.06,383.097 	"/>
	<path fill="url(#retain_FFBC00)" d="M153.16,394.966"/>
	<polygon fill="url(#retain_FFBC00)" points="118.43,383.31 118.05,383.69 123.74,400.92 129.88,394.79 	"/>
</g>
<polygon fill="url(#retain_FFBC00)" points="191.605,328.574 207.002,323.622 305.336,355.247 207.002,653 274.542,355.247 "/>
<path fill="url(#retain_F2ECD3)" d="M206.998,141c-83.64,0-151.444,64.882-151.444,144.917c0,9.841,1.025,19.453,2.98,28.742
	c4.98,23.677,25.936,40.587,50.131,40.587h53.018h36.871h29.754h36.871h40.156c24.196,0,45.151-16.911,50.131-40.587
	c1.954-9.289,2.98-18.901,2.98-28.742C358.443,205.882,290.639,141,206.998,141z"/>
<path fill="url(#retain_F2ECD3)" d="M236.942,395.009c-8.034,0-14.547-6.513-14.547-14.547v-50.43c0-8.034,6.513-14.547,14.547-14.547
	s14.547,6.513,14.547,14.547v50.43C251.49,388.495,244.976,395.009,236.942,395.009z"/>
<path fill="url(#retain_F2ECD3)" d="M180.077,408.524c-8.034,0-14.547-6.513-14.547-14.547v-50.43c0-8.034,6.513-14.547,14.547-14.547
	c8.034,0,14.547,6.513,14.547,14.547v50.43C194.624,402.011,188.111,408.524,180.077,408.524z"/>
<path fill="url(#retain_E2DDC7)" d="M324.672,314.659c1.954-9.289,2.98-18.901,2.98-28.742c0-75.061-59.639-136.794-136.047-144.176
	c5.064-0.49,10.199-0.741,15.397-0.741c83.64,0,151.444,64.882,151.444,144.917c0,9.841-1.025,19.453-2.98,28.742
	c-4.98,23.677-25.936,40.588-50.131,40.588h-30.794C298.737,355.247,319.693,338.337,324.672,314.659z"/>

</svg>
