<?xml version="1.0" encoding="utf-8"?>
<!-- Generator: Adobe Illustrator 21.1.0, SVG Export Plug-In . SVG Version: 6.00 Build 0)  -->
<svg version="1.1" baseProfile="tiny" id="Слой_1"
	 xmlns="http://www.w3.org/2000/svg" xmlns:xlink="http://www.w3.org/1999/xlink" x="0px" y="0px" viewBox="0 0 512 512"
	 overflow="scroll" xml:space="preserve">
<g>
	<g id="XMLID_3_">
		<path id="XMLID_68_" fill="#63977E" d="M297.6,68c3.5,7.1,12.2,15.8,4.8,23.4c-0.2,0.2-0.6,0.3-0.9,0.1
			c-5.7-2.9-6.1-11.4-12.6-13.2c-9.1-2.5-7.8,14-5.8,17.8c3,5.8,26.8,24.2,25.8,29.1c-0.1,1.3-5.1,11-10.8,22.1
			c0.7,0.3,1.5,0.5,2.2,0.8c5.1-11.1,9.7-20.7,11-21.5c4.7-2.7,10.5,0.1,15.9-0.6c6.7-0.9,13.7-1.2,20.2-3.4c3.2-1.1,9-5.1,7.9-9.3
			c-1.5-5.8-14.2,1.1-17.9,0.4c-2-0.4-2.6-1.8-2.1-3.7c1.1-3.7,4.6-7,7.9-8.8c6.8-3.7,18.9-3.9,21.6-12.7c2.7-8.5-15.5-2.3-18.7-2
			c-2.1,0.2-5.1,0.5-6.3-1.7c-1.2-2.2,0.3-5,1.8-6.6c5.5-5.9,14.6-6.6,21.7-9.6c3.2-1.4,6.2-3.8,8.5-6.3c1.3-1.4,2.9-3.4,3-5.4
			c0.1-2.3-2.2-4-4.4-4c-4.7,0-11.2,9.4-15.7,5.1c-0.3-0.3-0.4-0.8-0.2-1.2c4.5-7.2,10.9-13.7,13.8-21.9c2.1-5.9,2.4-12.8,1.2-18.9
			c-1.3-6.5-4.7-12.9-11.3-15.4c-7.1-2.6-14.5,0.4-18.8,6.4c-4,5.7-3.4,11.6-2.6,18.1c0.6,4.7,1.3,9.8-1.2,14.1
			c-4.5,7.9-9.4-0.4-11.7-5.1c-1.6-3.4-2.9-7.4-6.5-9.1c-4.9-2.2-4.8,3.5-4.4,6.8c0.7,6.5,3.1,12.8,4.1,19.3
			c0.6,3.8,2.5,16-4.8,14.7c-3.8-0.7-5.6-4.8-6.9-7.9c-1.6-3.7-3.5-11-8.7-10.9C289.6,47.2,295.9,64.6,297.6,68z"/>
		<path id="XMLID_44_" fill="#63977E" d="M149.1,198.9c5.8-5.4,11.7-16.2,21.1-11.2c0.3,0.2,0.4,0.5,0.4,0.8
			c-1.2,6.3-9.2,9.1-9.1,15.8c0.2,9.5,15.6,3.5,18.7,0.5c4.7-4.5,15.6-32.6,20.6-33c1.3-0.3,12,1.8,24.2,4.1c0-0.8,0.1-1.6,0.2-2.4
			c-12.1-1.8-22.6-3.4-23.7-4.5c-4-3.8-2.9-10.1-5.1-15c-2.7-6.2-5-12.8-9-18.4c-2-2.7-7.4-7.2-11.2-4.9c-5.1,3.1,5.1,13.3,5.5,17.1
			c0.2,2-1,3-3,3c-3.9,0-8-2.4-10.7-5.1c-5.5-5.5-9.1-17-18.3-17.1c-8.9-0.1,2.2,15.6,3.4,18.5c0.8,1.9,1.9,4.8,0.2,6.5
			c-1.8,1.8-4.9,1.1-6.9,0.2c-7.2-3.6-10.5-12.2-15.3-18.1c-2.2-2.7-5.4-4.9-8.5-6.4c-1.7-0.8-4.1-1.9-6-1.3
			c-2.2,0.6-3.2,3.2-2.6,5.3c1.3,4.5,12.2,8.1,9.3,13.6c-0.2,0.4-0.7,0.6-1.1,0.5c-8.2-2.3-16.3-6.5-24.9-7
			c-6.3-0.3-12.9,1.3-18.5,4.3c-5.9,3.1-11.1,8.2-11.5,15.2c-0.5,7.5,4.5,13.8,11.5,16.2c6.6,2.3,12.1,0,18.1-2.7
			c4.3-1.9,9-4,13.8-2.9c8.9,2.1,2.3,9.1-1.6,12.7c-2.8,2.5-6.3,4.9-6.8,8.8c-0.7,5.4,4.7,3.6,7.8,2.3c6.1-2.5,11.4-6.6,17.3-9.4
			c3.5-1.7,14.7-6.9,15.5,0.4c0.4,3.8-3,6.7-5.6,8.9c-3.1,2.6-9.6,6.5-8,11.4C131.4,212.5,146.3,201.5,149.1,198.9z"/>
		<path id="XMLID_45_" fill="#43785B" d="M169.7,101.9c7.9-0.9,19-6.1,23.7,3.4c0.2,0.3,0,0.7-0.2,0.9c-4.7,4.4-12.8,1.9-16.7,7.3
			c-5.5,7.7,10.5,12.1,14.8,11.5c6.5-0.9,31.9-17,36.1-14.4c1.2,0.5,8.6,8.5,17.1,17.6c0.5-0.6,1-1.2,1.5-1.8
			c-8.7-8.6-16.2-16.1-16.5-17.7c-1-5.4,3.7-9.8,4.8-15.1c1.5-6.6,3.6-13.3,3.6-20.1c0-3.4-1.7-10.2-6.1-10.6
			c-6-0.5-3.8,13.7-5.7,17c-1,1.7-2.6,1.8-4.2,0.7c-3.2-2.3-5-6.7-5.6-10.4c-1.2-7.7,2.7-19.1-4.6-24.7c-7.1-5.4-7.5,13.8-8.2,16.9
			c-0.5,2-1.3,5-3.7,5.3c-2.5,0.4-4.6-2-5.6-3.9c-3.7-7.2-1.3-16-1.7-23.6c-0.2-3.5-1.4-7.1-3.1-10.2c-0.9-1.7-2.2-3.9-4.1-4.7
			c-2.1-0.8-4.5,0.7-5.3,2.7c-1.6,4.4,5,13.8-0.6,16.5c-0.4,0.2-0.9,0.1-1.2-0.3c-5.3-6.7-9.2-14.9-15.9-20.4
			c-4.9-4-11.2-6.6-17.4-7.5c-6.6-1-13.8,0-18.3,5.4c-4.9,5.8-4.6,13.8-0.4,19.9c4,5.7,9.7,7.1,16.2,8.6c4.6,1,9.6,2.1,12.9,5.9
			c5.9,6.9-3.5,8.7-8.8,9.3c-3.7,0.4-8,0.2-10.7,3.1c-3.7,3.9,1.6,5.7,4.9,6.5c6.4,1.6,13.1,1.4,19.5,2.7c3.8,0.7,15.9,3.1,12.2,9.5
			c-1.9,3.3-6.4,3.6-9.8,3.8c-4,0.2-11.6-0.5-13.2,4.5C147.4,102.4,165.9,102.4,169.7,101.9z"/>
		<path id="XMLID_67_" fill="#43785B" d="M361.2,115.1c-6.3,4.8-13.2,15-22.1,9.1c-0.3-0.2-0.4-0.6-0.3-0.9
			c1.8-6.1,10.1-8.2,10.6-14.9c0.8-9.5-11.8-2-15.2,0.7c-5.1,4.1-22,27.9-27.1,27.8c-1.3,0.2-11.8-2.9-23.7-6.4
			c-0.1,0.8-0.3,1.6-0.4,2.3c11.9,2.9,22.2,5.5,23.2,6.7c3.6,4.1,1.9,10.3,3.6,15.5c2.1,6.4,3.7,13.2,7.2,19.1
			c1.7,2.9,6.7,7.9,10.6,6c5.4-2.6-3.8-13.7-3.8-17.5c0-2,1.3-2.9,3.2-2.7c3.9,0.3,7.7,3.2,10.1,6.1c5,6,7.4,17.8,16.6,18.8
			c8.9,1-0.7-15.7-1.6-18.7c-0.6-2-1.4-4.9,0.5-6.5c1.9-1.6,5-0.7,6.8,0.5c6.8,4.3,9.3,13.1,13.5,19.5c1.9,2.9,4.9,5.4,7.8,7.2
			c1.6,1,3.9,2.2,5.9,1.9c2.2-0.4,3.5-2.9,3.1-5c-0.9-4.6-11.3-9.3-8-14.5c0.2-0.4,0.7-0.5,1.1-0.4c8,3.1,15.6,8.1,24.1,9.3
			c6.2,0.9,13-0.1,18.8-2.5c6.2-2.5,11.8-7.1,13-14c1.2-7.5-3.2-14.2-9.9-17.3c-6.3-2.9-12-1.2-18.3,0.9c-4.5,1.5-9.4,3.1-14.1,1.5
			c-8.6-2.9-1.4-9.3,2.8-12.5c3-2.3,6.7-4.2,7.7-8.1c1.2-5.3-4.3-4-7.5-3c-6.3,1.9-12,5.4-18.1,7.7c-3.7,1.3-15.3,5.5-15.4-1.9
			c-0.1-3.8,3.6-6.4,6.4-8.3c3.3-2.3,10.2-5.5,9.1-10.6C380.1,103.3,364.2,112.8,361.2,115.1z"/>
		<g id="XMLID_54_">
			<path id="XMLID_60_" fill="#71917F" d="M269.3,11.1c-0.7,0-1.3,0.9-1.5,1.6c-0.1,0.2-0.1,0.4-0.1,0.7c-0.8,1.6-1.6,3.4-1,5.1
				c0,0.1,0.1,0.2,0.1,0.3c-2,12.8-2.7,26-6,38.6c-0.2-1.2-0.4-2.3-0.7-3.5c-1.5-7-3.9-13.7-5.6-20.6c-0.8-3.2-3.2-13.6-3.8-15.8
				c2.8-0.9,4-6,2.4-8.2c-0.4-0.5-0.8-0.9-1.4-1c-0.6-0.7-1.3-1.2-2.2-1.5c-0.3-0.1-4.5,3.8-4.4,3.2c0-0.4-0.5-0.5-0.6-0.1
				c-0.3,1.9-0.2,4.1,1.1,5.7c0.4,0.5,1,0.9,1.6,1.1c0.3,0.2,0.5,0.3,0.8,0.5c0,0,0,0.1,0.1,0.1c0.8,1.9,3.8,18,5.2,23.3
				c-0.9-1-1.7-2-2.6-3c-3.1-3.6-6.6-6.8-9.6-10.5c-3.5-4.3-11-11.5-10.9-11.9c0.4-1.9-0.8-3.8-2.8-3.8c-2.2,0-3.4,2-3.6,4.2
				c-0.8,1.4-0.3,2.6,0.6,3.5c0.1,0.2,0.3,0.4,0.4,0.6c0.1,0.1,0.3,0.2,0.5,0.2c0.3,0.3,3.3-1.3,3.7-2c0.1-0.1,0.1-0.1,0.1-0.2
				c1.3,1.1,9.2,9.2,11.8,12.2c3.6,4.3,8.1,9.9,13,13.2c0,0.2,0.1,0.3,0.1,0.5c3,10.1,5,20.4,6,30.8c-4.2-8.2-11.7-15.9-19.3-20.1
				c-0.1-0.9-7.9-7.3-9.3-5.1c-0.7,1.2-0.6,4.5-0.3,5.8c-0.1,0.5,2.3,7.6,3,7.8c0.5,0.2,5.8-5,6.1-6.5c8.4,6.2,15.5,14,20.2,23.3
				c0.1,1.8,0.2,3.7,0.3,5.6c0.3,7.9,0,15.9-0.8,23.8c-1.1-2.1-2.7-4-4.2-5.8c-3.7-4.7-6.2-10.3-9.7-15.1c0-0.2,0-0.5,0-0.7
				c-0.1-1.6-1.6-2.5-3.1-2.8c-0.4-0.1-0.9,0.1-1,0.5c-0.2,0.4-0.4,0.8-0.6,1.2c-0.2,0.1-0.4,0.3-0.6,0.4c-1.7,1.6-0.6,4.2,1.2,5.3
				c0.5,0.7,1.3,1.2,2.2,1.4c0.4,0.1,0.8-0.1,1-0.5c0.1-0.2,0.2-0.4,0.2-0.7c3.7,7.5,11.3,13.1,13.9,21.1c-0.5,4.7-1.2,9.3-2,14
				c-1.3,7.4-2.9,14.5-5.8,21.5c-2.2,5.4-5,10.5-7.4,15.9c-0.3,0.6,0,1.1,0.4,1.3c0.4,0.3,1,0.2,1.3-0.4
				c8.9-15.1,13.6-31.4,15.9-48.3c3.5-0.2,9.3-6.6,10.8-8.2c3.3-3.6,5.9-8,8.4-12.1c0.5-0.8,1.4-2.6,2.5-4.4
				c0.6,0.3,1.1,0.4,1.6,0.4c0.1,0.1,0.3,0.1,0.4,0.2c0.4,0.1,0.9-0.2,1.1-0.5c0.7-1.2,1.7-2.4,1.8-3.7c0.1-0.6,0.2-1.1,0.3-1.5
				c0.1-1.3-0.4-2.8-1.5-3.6c-1.4-1-3.3-0.4-4.5,0.8c-1.3,1.3-1.5,2.9-1.1,4.4c0,0.4,0,0.8,0.1,1.2c-0.9,1.6-1.7,3.2-2.2,4
				c-2.8,4.5-5.4,9-8.7,13.1c-0.8,1-5.9,6.8-8.7,7.7c0.9-7.3,1.3-14.7,1.5-22.2c0-2.5,0-4.9-0.1-7.4c0.1-0.1,0.2-0.2,0.3-0.3l0,0
				c2.5-4.1,4.5-8.4,6.9-12.5c1.7-3,3.7-5.6,5.8-8.3c1.1,0.9,2.6,0.8,3.7-0.2c3-2.6,2.6-8-1.4-9.4c-0.4-0.1-0.9,0.2-1.1,0.5
				c-0.3,0.5-0.6,1.2-0.9,1.8l0,0c-1.1,1.2-1.6,2.7-1.3,4c-5.5,5.2-9.2,13.1-12.1,20c-0.4-6.9-1.2-13.9-2.4-20.7
				c0.4-1.1,0.9-2.2,1.1-2.8c1.2-4.7,2.2-9.4,3.1-14.1c1.5-7.5,3.1-15.4,3.6-23.2c0.7,0.1,1.3,0,1.8-0.3c0.1,0.1,0.3,0.2,0.4,0.2
				c0.4,0.2,0.9,0.1,1.2-0.2c0.9-1.1,1.1-2.3,0.8-3.3c0.3-1.8-0.5-3.8-2-4.8C270.7,11.5,269.9,11.1,269.3,11.1z M247.9,11.6
				c0.2,0.5,0.8,0.7,1.1,1.1c0,0.1,0.1,0.1,0.1,0.1c-0.1,0.3-0.3,0.6-0.5,0.9c-0.2,0-0.5,0.1-0.6,0.3
				C247.2,13.4,247,12.7,247.9,11.6C247.8,11.6,247.8,11.6,247.9,11.6z M227.7,13.5c0.2,0.2,0.3,0.4,0.4,0.7c-0.1,0-0.2,0.1-0.3,0.1
				c-0.1-0.1-0.3-0.2-0.4-0.4c-0.2-0.2-0.5-0.2-0.8,0c-0.1,0-0.1,0-0.2,0C226.7,13.5,227.2,13.1,227.7,13.5z M284,86.3
				c0.3-0.6,1.5-1.3,2.2-1c0.3,0.1,0.4,0.4,0.5,0.7c-1.1-0.2-2.2,0.1-2.8,1.1c0,0,0,0.1-0.1,0.1c0,0-0.1,0-0.1,0
				C283.8,86.9,283.9,86.6,284,86.3z M286.7,88.7c0,0.1,0,0.2-0.1,0.4c-0.1,0.2-0.1,0.4-0.2,0.5c-0.2,0.1-0.4,0.1-0.7,0.2
				C286.1,89.3,286.4,88.9,286.7,88.7z M271.1,16.8c-0.1,0.4-0.3,0.7-0.5,0.9c-0.5-0.3-1.1-0.6-1.5-1c0-0.1,0-0.2,0-0.3
				c0.1,0.1,0.3,0.2,0.5,0.3c0.5,0.2,1,0,1.2-0.4C271,16.5,271.1,16.7,271.1,16.8z"/>
			<path id="XMLID_59_" fill="#E86769" d="M232.2,49.1c-1.3-0.3-2.6-0.2-3.8,0.2c-1.9,0.6-3.5,2-4.4,3.7c-0.6,1.2-0.9,2.5-0.8,3.8
				c0.1,1.8,0.9,4,2.4,5.1c0.8,0.6,1.5,1.1,2.4,1.5c1.9,0.8,3.7,1.1,5.7,0.5c1.9-0.6,3.5-1.9,4.4-3.7c0.9-1.8,1.1-3.8,0.5-5.7
				c-0.6-2-2-3.3-3.7-4.4C234,49.6,233.2,49.4,232.2,49.1z"/>
			<path id="XMLID_57_" fill="#E86769" d="M248.6,4.2c-0.9-0.2-1.9-0.1-2.8,0.1c-1.4,0.4-2.5,1.4-3.2,2.7c-0.4,0.9-0.6,1.8-0.6,2.8
				c0.1,1.3,0.7,2.9,1.8,3.7c0.6,0.5,1.1,0.8,1.8,1.1c1.4,0.6,2.7,0.8,4.1,0.3c1.4-0.4,2.5-1.4,3.2-2.7c0.7-1.3,0.8-2.8,0.3-4.1
				c-0.5-1.5-1.4-2.4-2.7-3.2C249.9,4.6,249.3,4.4,248.6,4.2z"/>
			<path id="XMLID_46_" fill="#E86769" d="M224,8.2c-0.9-0.2-1.9-0.1-2.8,0.1c-1.4,0.4-2.5,1.4-3.2,2.7c-0.4,0.9-0.6,1.8-0.6,2.8
				c0.1,1.3,0.7,2.9,1.8,3.7c0.6,0.5,1.1,0.8,1.8,1.1c1.4,0.6,2.7,0.8,4.1,0.3c1.4-0.4,2.5-1.4,3.2-2.7c0.7-1.3,0.8-2.8,0.3-4.1
				c-0.5-1.5-1.4-2.4-2.7-3.2C225.3,8.6,224.7,8.4,224,8.2z"/>
			<path id="XMLID_56_" fill="#E86769" d="M272.3,8.5c-1.1-0.2-2.3-0.2-3.4,0.2c-1.7,0.5-3.1,1.7-3.9,3.3c-0.5,1.1-0.8,2.2-0.7,3.4
				c0.1,1.6,0.8,3.5,2.1,4.5c0.7,0.6,1.3,1,2.1,1.3c1.7,0.7,3.3,1,5,0.4c1.7-0.5,3.1-1.7,3.8-3.3c0.8-1.5,0.9-3.4,0.4-5
				c-0.6-1.8-1.7-2.9-3.3-3.8C273.9,9,273.1,8.8,272.3,8.5z"/>
			<path id="XMLID_55_" fill="#E86769" d="M276.6,55.4c-1.7,3.3-0.3,7.5,3,9.2c3.3,1.7,7.5,0.3,9.2-3c1.7-3.3,0.3-7.5-3-9.2
				C282.4,50.7,278.3,52.1,276.6,55.4z"/>
		</g>
		<g id="XMLID_48_">
			<path id="XMLID_52_" fill="#BBDEFB" d="M332.6,72.5c1.7-2,6-6.5,3.5-9.2c-2.1-2.2-5.1,0.4-7.4,2.2c0.9-5.9,4.1-11.5,1.4-17.5
				c-0.9-2.1-2.1-3.3-3.4-3.9c0-0.3-0.2-0.6-0.6-0.5c-0.2,0.1-0.4,0.1-0.6,0.2c-2.2-0.3-4.6,4.5-7.3,2.8
				c-18-11.2-17.2,36.7-13.5,41.9c3.5,4.9,10.5,0.1,13.6-2.2C323.8,82.3,328.3,77.5,332.6,72.5z"/>
			<path id="XMLID_50_" fill="#81D4FA" d="M316.6,59.8c0.1-2.6,0.7-8.8-3-9.4c-3-0.5-3.8,3.5-4.4,6.3c-2.9-5.2-3.9-11.5-9.8-14.6
				c-2-1.1-3.7-1.3-5.1-0.9c-0.2-0.3-0.6-0.4-0.8,0c-0.1,0.2-0.2,0.3-0.3,0.5c-2,1.2-0.9,6.4-3.9,6.7c-21.1,2.3,9.3,39.5,15.4,41.2
				c5.7,1.7,8.3-6.4,9.3-10.2C315.8,73,316.3,66.4,316.6,59.8z"/>
			<path id="XMLID_49_" fill="#43785B" d="M312.1,94.1c9.7-2.3,19.8-19.7,18.4-18.4c-3.2,3-11.4,10.3-15.8,12.9
				c1.2-0.8,4.1-6.5,4.7-10.6c0.2-1.2-3.9,2.9-4.9,4.4c-1.3,1.5-2.8,2.8-4.4,4c0.8-1.6-0.6-5.1-0.5-6.5c0.1-1.8-1.6,7.4-2,8.9
				c-1.5,1-2.1-4-2.7-5.4c-1-2.6-0.4-1.1-3.4-7.4c0,0-0.1,10.4,1.8,12.6c-2.7-1.4-6.1-6.6-7.5-8.3c-2-2.6-4.2-6.2-7-8
				c-0.3-0.2-0.6,0.2-0.5,0.4c1.3,4.6,3.9,9.4,6.8,13.1c5,6.4,6.9,6.1,9.1,7.4c-2,4.5,0.4,9.9,4.7,10.1
				C314.4,103.6,314.4,98.2,312.1,94.1z"/>
		</g>
		<g id="XMLID_43_">
			<path id="XMLID_47_" fill="#D0697D" d="M294.2,164.6c6.5-2.9,6.5-9.4,4-15.2c-2.9-6.7-6.3-13.2-10.4-19.3c-0.9-1.4-1.9-2.8-3-4.1
				c2,2.1,3.7,4.3,5.2,6.1c3.4,4,8.9,9.9,14.7,10c6.5,0.2,11.5-2.5,14.9-8.1c1.8-2.8,1.7-5.8,0.8-8.5c1.7-1.5,2.6-3.6,2-6.1
				c-0.7-2.7-1.5-4.8-3.7-6.7c-0.2-0.2-0.5-0.5-0.8-0.7c0.6-0.3,1.1-0.8,1.6-1.4c1.3-1.7,2.5-4,1.9-6.3c-1.3-5.1-4.5-9.4-10.2-9.5
				c-2.8,0-6,0.3-8.7,1c-4,1-5.2,2-8.6,3.6c-1.2,0.6-2.4,1.2-3.6,1.8c6.3-6.7,13.8-13.7,9.7-21c-3.4-6.1-9-6.6-14.2-4.4
				c-0.5-0.9-1.1-1.8-1.8-2.5c-4.2-4.4-9.4-2-12.9,1.8c-2.2,2.3-3.6,5.3-4.5,8.5c-1.2-3.5-2.9-6.7-5.4-9.5c-3.3-3.6-8.5-4.5-12-0.7
				c-0.4,0.4-0.7,0.9-1,1.4c-1.8-0.7-3.7-1-5.8-0.8c-8,0.8-11.3,7.1-10.3,14.5c0.6,4.5,3.3,8.3,6.4,11.6c-2.3-1.4-4.8-2.8-7.4-2.8
				c-6.6-0.1-11.1,3.3-12,10c-0.4,3.4,1.4,6.8,3.7,9.1c0.5,0.5,1.1,1,1.8,1.3c-0.9,1-1.7,2.3-2.2,3.8c-2,5.9-1.6,10.7,3.1,15
				c4,3.6,14.6,2.1,18.9,0.3c2-0.8,3.8-1.9,5.8-2.3c-2.3,5.8-18,16-15.7,22.3c1.7,4.9,22.2,2.7,26.7,3.8c1.5,0.4,3,0.4,4.4,0.2
				c0.4,0.5,0.8,0.9,1.2,1.3c3,2.9,6.4,4.5,10.7,4.3c2.6-0.1,4.8-0.6,7.1-1.8c0.4-0.2,0.9-0.4,1.2-0.7
				C288.3,165.3,291.2,165.9,294.2,164.6z"/>
		</g>
		<path id="XMLID_41_" fill="#74AEA3" d="M364.2,256.7c6.2-53.9,24-107,7.4-107c-32.4,0-56.2,18.6-82.7,35.2
			c-23.8,14.9-67.9,54.7-66.8,58.1c15.1,47.1,52.2,187,68.2,189.3c2.8,0.4,5.4,0.4,7.8,0.2c0.7,10.1,2,20,4.7,29.8
			c3,10.9,6.5,24.6,15.6,32.2c2,1.6,4.4-0.1,4.5-2.3c0.3-8.8,15.3-26.2,14.8-28.4c5.5,2.5,11,4.7,17,5.6c2.4,0.4,3.7-2.1,2.6-4.1
			c-5.9-10.4-13.8-20-21.8-28.8c-4-4.4-11.9-10.2-15-16.5c9.2-10.7,14.8-26.3,18.5-38.7C351,340.6,359.4,298.8,364.2,256.7z"/>
		<path id="XMLID_39_" fill="#A2D2CA" d="M342.9,244.8c-25.6-25.5-37.8,2.6-64.5-21.8c-38.8-35.6-115.1-11.5-115.2-11.4
			c7.6,44.4,94.2,182.3,109.1,200c0.2,1.8,6.8,12.9,14,18.2c-0.3,0.1-0.6,0.2-0.9,0.5c-10,9.8-10.8,83.9-8.9,81.3
			c5.9-7.9,40.2-16.2,49.7-12.6c1.8,0.7,17.7-9.3-6.8-46c-5.8-8.8-13.2-15.9-20-23.8c19.6-22.9,35.1-152,44.3-180.7
			C344.2,247,344,245.9,342.9,244.8z"/>
		<path id="XMLID_35_" fill="#D0697D" d="M319.4,417.8c-3.4,3.3-7.2,5.1-11.2,6.2c6.1-4.7,9.9-13,11.5-20.3
			c2-9.3,0.8-25.2-11.2-27.3c-10.8-1.9-14,12.8-14.7,26.9c-4.4-11.8-11.2-23-20.3-20.7c-9.5,2.5-7.4,14.9-4.8,21.7
			c3.9,10.1,12.8,16.7,22.2,21.7c-2.3,0.2-4.7,0.4-7,0.8c-3,0.5-3.6,5-0.3,5.6c2,0.4,4.1,0.6,6.3,0.7c-2.8,5.9-4.8,12.2-7.5,18
			c-3.8,8.1-8.2,15.2-13.6,22.3c-1,1.3,0.5,2.7,1.9,2c7.3-4,12.2-12.4,15.7-19.7c2.1-4.4,4.3-9.1,6.1-14c0.8,7.5,1.6,15,2.8,22.4
			c1.2,6.8,2.9,17.3,10.2,20.1c1.3,0.5,2.3-0.6,2-1.8c-2-8.9-5.2-17.1-6.5-26.3c-1-7.6-1.3-15.9-4.4-23c10.5-0.5,21.1-3.8,28.5-10.8
			C328.3,419.3,322.8,414.7,319.4,417.8z M276.7,407.2c-2.3-3.9-7.8-24.3,2.2-17.9c5.3,3.4,8.1,12.2,10.2,17.7
			c1.6,4.3,3.2,8.8,4.1,13.4C287.2,416.5,280.6,413.6,276.7,407.2z M299.5,406.8c0.3-5.3,0.4-13.6,2.7-19.3c0.9,0.1,1.7,0.2,2.5,0.3
			c0.1,0.2,0.4,0.3,0.5,0.1c0.5,0.1,1,0.2,1.5,0.3c1,0.9,2.4,2.7,3.4,4.3c0.1,3.5-0.9,7.2-1.9,10.4c-1.9,6.2-4.5,13.5-9.1,18.3
			C299.2,416.4,299.2,411.6,299.5,406.8z"/>
		<g id="XMLID_32_">
			<path id="XMLID_34_" fill="#81C784" d="M241.1,106.2c-0.1-1.4-4.9,1-5.7,1.7c-0.3,0.2-0.6,0.3-0.9,0.5c2-1.9,7.1-10.7,7.1-10.7
				s-4.1,0.3-5.2,0.6c0.2-0.2,4.4-8.5,3.9-9.9c-0.3-1-3.2,0.9-4,1.4c1.7-2.5,3-10.3,3-10.3s-3.7,1.3-5,2.1
				c0.9-1.2,4.5-10.3,3.7-12.6c-0.4-1.1-4.4,4-5,4.2c0-0.1,0.1-0.1,0.1-0.2c1.3-2.3,2.7-13.4,2.7-13.4s-3.1,3.6-3.4,4.1
				c-0.6,0.9-0.3-1.7-0.3-1.7c0.7-2.1-0.2-11-0.2-11s-2.8,3-3.2,4.2c-0.2,0.2-1.2-12.7-2-10.7c-0.2,0.5-2.1,2.9-2.4,3.4
				c-0.7-1.2-4.8-10.9-6.5-11.8c-0.9-0.5-4.4,13.5-4.8,14.3c-0.4-0.5-1.5-2.4-1.8-2.9c-0.9-1.3-2.9-3.3-3.3-1.9
				c-0.6,2.3-1.3,9.3-1.3,11.8c-0.1-0.2-3.7-3.2-3.7-3.2s-1,7.2-0.8,9.9c-0.3-0.3-4-3.1-4-3.1s-1.7,10.1-1,13.8c0,0-4.2-2.6-4.2-2.7
				c-2.1-1.7,1.1,10.5,2.2,13.2c-9.2-9.4-4.7,8.7-2.3,12.6c-2.5-0.6-6.6-1.3-5.2,0.4c-2.4-0.1,20.7,30.7,25.4,31.1
				c0.4,0.6,1.1,1,2,1C217.1,130.2,241.4,109.7,241.1,106.2z"/>
			<path id="XMLID_33_" fill="#63977E" d="M216.8,127.9c0.4,0.1,12.1-14.1,11.8-13.8c-2,2.1-9.7,9.6-11.6,11.2
				c0.2-3.5,0.5-6.9,0.7-10.4c0.2,0,0.4-0.1,0.6-0.3c2-1.8,11.5-9.9,12.3-12.8c0.1-0.4-0.3-0.8-0.7-0.5c-2.4,2-4.3,4.6-6.7,6.7
				c-1.7,1.4-3.5,2.6-5.3,3.9c0.2-2.6,0.3-5.2,0.5-7.7c2.1-0.3,4.3-4.4,5.2-5.7c2.6-4.2,7-8.3,8.2-13.2c0.1-0.4-0.4-0.7-0.6-0.3
				c-2.2,3-4.2,6-6.5,8.9c-1.1,1.4-4.1,6.6-6.1,8c0.2-3.3,0.4-6.7,0.5-10c0.6-0.1,3.7-3.9,3.8-4.1c1.4-1.7,2.6-3.6,3.8-5.5
				c1.7-2.7,3.5-5.7,4-9c0-0.1-0.2-0.2-0.2-0.1c-1.6,2.8-2.9,5.6-4.9,8.2c-1.1,1.4-2.2,2.8-3.4,4.1c-0.9,1.1-2,1.7-3,2.5
				c0.1-3,0.2-5.9,0.3-8.9c0.4,0,1.2-1.3,1.3-1.4c-0.1,0.2,7.3-14.8,7.1-14.5c-1.8,2.9-6.8,10.8-7.5,11.9c-0.2,0.4-0.5,0.8-0.9,1.1
				c0,0,0,0,0-0.1c0-2.7,0.1-5.4,0-8.1c0.4-0.2,2.2-4.3,2.5-5.2c0.6-1.6,1.1-3.2,1.6-4.8c0.1-0.3-0.4-0.5-0.5-0.2
				c-0.6,1.3-1.2,2.7-1.8,3.9c-0.4,0.8-0.9,1.6-1.4,2.4c-0.1,0.1-0.3,0.5-0.5,0.9c-0.2-4.1-1.2-8.9-0.3-12.9
				c0.1-0.4-0.6-0.6-0.8-0.2c-1.1,4.1-0.9,8.8-0.6,13.3c-0.5-0.7-1-1.4-1.4-2c-0.6-1-1.4-1.9-1.9-3c-0.5-0.9-1.3-1.6-1.7-2.6
				c-0.2-0.4-0.4,1.6,0.1,2.3c0.7,1,1.1,2.2,1.7,3.2c0.9,1.4,1.8,4.1,3.3,4.9c0.1,1.8,0.2,3.6,0.1,5.3c0,1.8-0.1,3.6-0.2,5.4
				c-1.7-1.9-2.9-4.2-4.4-6.3c-1.7-2.5-3.6-5.1-5-7.7c-0.2-0.4,2.1,5.1,3.5,7.5c1.8,2.8,3.4,6,5.8,8.4c-0.1,2.7-0.2,5.4-0.4,8.1
				c-1.2-1.7-3.2-3.5-4-4.6c-1.6-2.3-3.4-4.5-4.9-6.8c-1.4-2.1-2.5-4.6-4.6-6.1c-0.6-0.4,3.9,8.7,6.3,12.1c2,2.8,6.8,8.8,7,8.8
				c-0.2,2.5-0.3,4.9-0.5,7.4c-6.1-2.8-14.5-14.5-16.4-18.5c-0.3-0.6,3.1,7.2,5.2,10.2c1.6,2.2,10.7,11.3,10.9,11.4
				c-0.3,3.3-0.6,6.6-0.9,10c-6.9-6-11.5-14.7-18.1-21c-0.4-0.4,4.7,8.3,7.4,11.6c3.2,3.9,6.1,8.3,9.9,11.6c0.1,0.2,0.3,0.4,0.5,0.5
				l0,0c-0.3,2.9-0.5,5.7-0.7,8.6c-6.1-3.8-11.4-12-15.4-15.9c-0.7-0.7,8.6,14.9,15.2,18.6c-0.6,8.4-1,16.7-0.7,25.1
				c0,0.6,0.9,0.5,0.9,0C215.6,143.5,216.3,135.7,216.8,127.9z"/>
		</g>
		<g id="XMLID_29_">
			<path id="XMLID_31_" fill="#81C784" d="M200.4,122.6c-1.8-0.1,0.6,6.3,1.3,7.5c0.2,0.4,0.3,0.8,0.5,1.2
				c-2-2.9-12.4-10.7-12.4-10.7s-0.3,5.2,0,6.6c-0.2-0.3-10-6.8-11.9-6.5c-1.3,0.2,0.6,4.2,1.1,5.3c-2.9-2.6-12.5-5.4-12.5-5.4
				s1,4.8,1.9,6.7c-1.4-1.3-12.3-7.3-15.3-6.6c-1.5,0.4,4.3,6.2,4.6,7c-0.1-0.1-0.2-0.1-0.2-0.2c-2.7-1.9-16.5-5.5-16.5-5.5
				s4,4.5,4.6,4.9c1,0.9-2.1,0.1-2.1,0.1c-2.6-1.2-13.9-1.4-13.9-1.4s3.3,4,4.8,4.7c0.3,0.2-16.2-0.5-13.8,0.9
				c0.6,0.3,3.4,3.1,3.9,3.6c-1.7,0.7-14.5,4.3-15.9,6.4c-0.8,1.1,16.4,7.7,17.3,8.3c-0.7,0.4-3.3,1.5-4,1.9c-1.8,1-4.6,3.1-2.9,3.8
				c2.8,1.1,11.5,3.1,14.7,3.5c-0.2,0.2-4.6,4.1-4.6,4.1s8.9,2.4,12.3,2.5c-0.5,0.4-4.5,4.6-4.5,4.6s12.5,3.8,17.2,3.4
				c0,0-4,4.9-4,4.9c-2.4,2.4,13.5,0.2,16.9-0.8c-13.3,10.1,10.3,7.2,15.5,4.8c-1.2,3-2.6,8.1-0.3,6.7c-0.5,3,41.9-21.4,43.2-27.2
				c0.8-0.4,1.5-1.3,1.6-2.4C227,156.6,204.9,122.8,200.4,122.6z"/>
			<path id="XMLID_30_" fill="#63977E" d="M224,156.5c0.2-0.5-15.9-17.5-15.5-17c2.3,2.8,10.6,13.7,12.3,16.4
				c-4.3-0.8-8.7-1.7-13-2.5c0-0.2-0.1-0.5-0.2-0.7c-1.9-2.8-10.7-16-14.3-17.5c-0.5-0.2-1,0.3-0.7,0.8c2.1,3.4,5.1,6.1,7.4,9.5
				c1.6,2.3,2.7,4.9,4.1,7.3c-3.2-0.6-6.4-1.2-9.7-1.8c-0.1-2.7-4.9-6.2-6.4-7.4c-4.9-3.9-9.4-10.1-15.4-12.4
				c-0.4-0.2-0.9,0.4-0.5,0.7c3.4,3.2,6.9,6.3,10.3,9.6c1.6,1.6,7.7,6.2,9.1,9c-4.2-0.8-8.3-1.5-12.5-2.2c0-0.8-4.4-5.3-4.5-5.5
				c-2-2-4.1-3.9-6.3-5.7c-3.2-2.6-6.7-5.2-10.7-6.4c-0.1,0-0.3,0.2-0.1,0.3c3.3,2.5,6.6,4.5,9.6,7.4c1.6,1.6,3.2,3.2,4.7,4.9
				c1.2,1.3,1.9,2.8,2.7,4.2c-3.7-0.6-7.5-1.2-11.2-1.7c0.1-0.5-1.5-1.8-1.6-1.8c0.3,0.1-17.6-11.6-17.2-11.2
				c3.3,2.8,12.6,10.3,13.8,11.3c0.5,0.3,0.9,0.8,1.2,1.3c0,0-0.1,0-0.1,0c-3.4-0.5-6.8-0.9-10.3-1.3c-0.2-0.5-5.1-3.4-6.1-4
				c-1.9-1-3.9-1.9-5.8-2.8c-0.4-0.2-0.7,0.4-0.3,0.6c1.6,0.9,3.2,1.9,4.7,2.9c1,0.7,1.9,1.4,2.8,2.1c0.2,0.1,0.6,0.4,1,0.8
				c-5.3-0.4-11.4,0.1-16.3-1.7c-0.5-0.2-0.9,0.7-0.3,0.9c5,2,10.9,2.5,16.7,2.8c-1,0.5-1.9,1-2.8,1.4c-1.4,0.6-2.7,1.4-4.1,2
				c-1.2,0.5-2.2,1.4-3.5,1.7c-0.6,0.1,2,0.7,2.9,0.3c1.4-0.7,2.9-1,4.3-1.7c1.9-0.9,5.4-1.6,6.7-3.5c2.3,0.2,4.6,0.3,6.7,0.6
				c2.2,0.3,4.5,0.7,6.7,1c-2.7,1.9-5.8,3-8.7,4.5c-3.4,1.8-6.9,3.7-10.5,5.2c-0.6,0.2,6.8-1.8,10-3.3c3.8-1.8,8.1-3.4,11.5-6.1
				c3.4,0.5,6.8,1.1,10.2,1.7c-2.3,1.3-4.9,3.5-6.4,4.3c-3.1,1.7-6.2,3.5-9.4,5.2c-2.8,1.4-6.3,2.4-8.4,4.8
				c-0.6,0.7,11.5-3.6,16.2-6.1c3.9-2.1,12.1-7.2,12.2-7.5c3.1,0.6,6.2,1.2,9.2,1.8c-4.4,7.2-20.5,16-25.9,17.8
				c-0.8,0.3,9.5-2.8,13.7-5c3.1-1.6,15.9-11.7,16-12c4.1,0.9,8.3,1.7,12.4,2.6c-8.7,7.8-20.3,12.2-29.3,19.5
				c-0.6,0.5,11.2-4.6,15.8-7.5c5.4-3.4,11.4-6.4,16.1-10.7c0.3-0.1,0.5-0.3,0.7-0.6l0,0c3.6,0.8,7.1,1.5,10.7,2.3
				c-5.7,7.1-16.9,12.5-22.4,17c-0.9,0.8,20.1-8.6,25.9-16.3c10.4,2.1,20.9,3.9,31.5,4.8c0.7,0.1,0.7-1,0.1-1.2
				C243.6,160.5,233.8,158.5,224,156.5z"/>
		</g>
		<g id="XMLID_26_">
			<path id="XMLID_28_" fill="#81C784" d="M295.4,176.6c0.4,1.3-4.8,1.7-5.9,1.5c-0.3,0-0.7,0-1,0.1c2.6,0.5,10.7,5.4,10.7,5.4
				s-3.8,1.9-4.9,2.2c0.2,0,7.3,4.9,7.5,6.4c0.1,1-3.3,0.9-4.2,0.9c2.6,1.2,6.8,7.2,6.8,7.2s-3.8,0.9-5.4,0.9
				c1.3,0.5,8.2,6.4,8.3,8.8c0.1,1.2-5.6-1.1-6.2-1c0.1,0,0.1,0.1,0.2,0.1c2,1.3,7.7,10,7.7,10s-4.3-1.4-4.7-1.7
				c-0.9-0.4,0.4,1.6,0.4,1.6c1.5,1.4,4.1,9.5,4.1,9.5s-3.7-1-4.6-1.9c-0.2-0.1,4,11.4,2.4,10.2c-0.4-0.3-3.1-1.4-3.5-1.6
				c-0.2,1.5,0,11.8-1.2,13.5c-0.6,0.9-9.3-9.2-10-9.7c-0.1,0.6-0.4,2.8-0.5,3.5c-0.3,1.6-1.3,4.3-2.2,3.3c-1.5-1.6-4.9-7.2-5.9-9.4
				c-0.1,0.2-2,4.7-2,4.7s-3.8-5.6-4.6-8c-0.2,0.5-2.4,4.8-2.4,4.8s-5.6-7.7-6.3-11.2c0,0-2.8,4.5-2.8,4.5
				c-1.2,2.5-3.2-9.6-3.2-12.4c-4.5,12.9-7.7-5-7-9.5c-2,1.8-5.4,4.5-4.9,2.4c-2.1,1.3,6.5-37.1,10.6-39.9c0.1-0.7,0.6-1.5,1.4-1.9
				C264.3,168.7,294.3,173.3,295.4,176.6z"/>
			<path id="XMLID_27_" fill="#63977E" d="M265,170.8c0.3-0.3,16.6,5.6,16.1,5.5c-2.6-0.7-12.6-3.1-14.9-3.4
				c1.6,2.8,3.2,5.7,4.8,8.5c0.2-0.1,0.4-0.1,0.6-0.1c2.5,0.5,14.3,2.4,16.2,4.4c0.3,0.3,0,0.8-0.4,0.8c-3-0.4-5.7-1.7-8.7-2.2
				c-2.1-0.3-4.2-0.3-6.3-0.5c1.2,2.1,2.3,4.2,3.5,6.3c2-0.8,5.7,1.5,6.9,2.2c4,2.2,9.6,3.4,12.6,7c0.2,0.3-0.1,0.8-0.4,0.6
				c-3.1-1.4-6.2-2.9-9.4-4.2c-1.6-0.6-6.3-3.5-8.7-3.6c1.5,2.7,3,5.5,4.4,8.3c0.6-0.2,4.9,1.4,5.1,1.4c1.9,0.8,3.8,1.7,5.6,2.7
				c2.6,1.4,5.4,3.1,7.1,5.5c0.1,0.1-0.1,0.2-0.2,0.2c-2.6-1.6-4.8-3.3-7.6-4.5c-1.5-0.7-3.1-1.2-4.7-1.7c-1.3-0.4-2.5-0.4-3.7-0.5
				c1.3,2.5,2.5,5,3.8,7.5c0.3-0.2,1.6,0.5,1.7,0.5c-0.1-0.1,12.5,8.8,12.2,8.6c-2.8-1.5-10.4-5.6-11.5-6.2
				c-0.4-0.3-0.8-0.4-1.2-0.4c0,0,0,0,0,0.1c1.1,2.3,2.2,4.6,3.2,6.9c0.4-0.1,3.7,2.5,4.3,3.1c1.2,1,2.2,2.2,3.4,3.3
				c0.2,0.2-0.1,0.6-0.4,0.4c-1-0.8-2.1-1.7-3.2-2.4c-0.7-0.5-1.4-0.9-2.2-1.3c-0.1-0.1-0.5-0.3-0.8-0.5c1.5,3.6,2.5,8.2,4.9,11.1
				c0.3,0.3-0.3,0.9-0.6,0.6c-2.6-2.9-4.3-7-5.8-11.1c-0.1,0.9-0.3,1.7-0.4,2.5c-0.2,1.2-0.5,2.4-0.6,3.6c-0.1,1-0.6,2-0.5,3.1
				c0,0.5-1-1.2-0.8-2c0.2-1.2,0.1-2.4,0.3-3.6c0.3-1.6,0-4.4,1.1-5.9c-0.6-1.6-1.3-3.2-2-4.6c-0.7-1.5-1.5-3-2.3-4.5
				c-0.8,2.5-0.9,5.1-1.4,7.7c-0.6,3-1.2,6.2-1.5,9.2c0,0.5-0.2-5.5,0.2-8.2c0.5-3.3,0.7-6.9,1.9-10.2c-1.2-2.2-2.4-4.5-3.6-6.7
				c-0.4,2.1-1.5,4.6-1.8,6c-0.6,2.8-1.3,5.6-1.8,8.4c-0.4,2.5-0.4,5.3-1.7,7.6c-0.4,0.6,0.1-9.4,0.9-13.6
				c0.7-3.5,2.6-11.1,2.8-11.2c-1.1-2-2.2-4-3.4-6c-4.4,5.6-7.4,20-7.5,24.5c0,0.6,0-7.8,0.7-11.4c0.5-2.7,5.1-15.3,5.3-15.4
				c-1.6-2.7-3.1-5.4-4.7-8c-3.8,8.8-4.6,18.6-8,27.5c-0.2,0.6,0.9-9.6,2.1-13.8c1.3-5,2.2-10.2,4.4-15.1c0-0.2,0.1-0.4,0.3-0.7l0,0
				c-1.4-2.3-2.7-4.6-4.1-6.9c-4,6.4-5.6,16.2-7.7,21.7c-0.4,0.9,1.9-17.3,6.4-23.9c-3.9-6.8-7.6-13.7-10.6-21
				c-0.2-0.5,0.6-0.9,0.9-0.5C257.7,158.1,261.4,164.4,265,170.8z"/>
		</g>
		<g id="XMLID_20_">
			<path id="XMLID_24_" fill="#BBDEFB" d="M195.6,86c-0.4-3.1-0.9-10.6-5.4-10.5c-3.7,0.1-3.7,4.8-3.9,8.4
				c-4.5-5.6-7-12.8-14.5-15.3c-2.6-0.9-4.6-0.8-6.2,0c-0.3-0.3-0.7-0.3-1,0.1c-0.1,0.2-0.2,0.4-0.3,0.7c-2.1,1.8,0.3,7.7-3.3,8.7
				c-24.4,7,18.9,44.7,26.5,45.5c7.1,0.8,8.5-9.2,8.9-13.9C197.3,101.7,196.6,93.8,195.6,86z"/>
			<path id="XMLID_22_" fill="#4FC3F7" d="M171.6,90.1c-2.2-2.1-7.3-7.7-10.7-4.9c-2.8,2.3,0.1,6.1,2.1,9c-7-1.6-13.4-5.7-20.8-3
				c-2.6,0.9-4.1,2.3-4.9,3.8c-0.4,0-0.8,0.2-0.7,0.7c0.1,0.2,0.1,0.5,0.2,0.7c-0.5,2.7,5,5.9,2.8,8.9c-14.8,20.6,42.5,23.3,49,19.3
				c6.1-3.8,0.9-12.5-1.6-16.5C182.7,101.4,177.2,95.6,171.6,90.1z"/>
			<path id="XMLID_21_" fill="#43785B" d="M198.5,121.5c5.7-10.4-1.7-33.4-1.7-31.1c0.1,5.2,0,18.4-1.1,24.4
				c0.3-1.7-2.4-8.9-5.7-12.7c-1-1.1-0.6,5.7,0,7.9c0.4,2.3,0.3,4.8,0,7.2c-0.8-1.9-5-3.5-6.2-4.7c-1.5-1.5,5.3,7.3,6.3,8.9
				c-0.3,2.1-5.2-1.4-7-1.9c-3-1.2-1.3-0.6-9.3-2.9c0,0,9.2,8.4,12.7,8.4c-3.5,1.3-10.8,0.2-13.4,0c-4-0.3-8.8-1.2-12.7-0.1
				c-0.4,0.1-0.4,0.7,0,0.8c5.1,2.5,11.4,4.1,17.1,4.4c9.7,0.6,10.9-1.2,13.9-2.1c2.4,5.4,9.1,7.6,12.7,3.9
				C208.7,127,203.9,122.7,198.5,121.5z"/>
		</g>
		<g id="XMLID_14_">
			<path id="XMLID_18_" fill="#4FC3F7" d="M387,121.1c3.1,0.4,10.5,1.7,11.5-2.7c0.8-3.6-3.8-4.8-7.2-5.8c6.5-3,14.1-3.7,18.4-10.3
				c1.5-2.3,1.9-4.3,1.6-6c0.3-0.2,0.5-0.6,0.1-1c-0.2-0.2-0.4-0.3-0.6-0.4c-1.2-2.4-7.5-1.6-7.6-5.3c-0.9-25.4-47.9,7.5-50.6,14.6
				c-2.5,6.7,6.9,10.4,11.3,12C371.4,118.9,379.2,120.2,387,121.1z"/>
			<path id="XMLID_16_" fill="#BBDEFB" d="M388.9,96.8c2.6-1.6,9.2-5.2,7.3-9.2c-1.6-3.3-5.9-1.4-9.2-0.1c3.2-6.4,8.8-11.6,8-19.5
				c-0.3-2.7-1.2-4.5-2.5-5.7c0.1-0.3,0-0.8-0.5-0.8c-0.2,0-0.5,0-0.7,0c-2.4-1.2-6.9,3.4-9.3,0.6c-16.4-19.4-33,35.6-30.6,42.8
				c2.2,6.8,11.9,3.9,16.4,2.4C375.2,104.8,382.1,101,388.9,96.8z"/>
			<path id="XMLID_15_" fill="#43785B" d="M351.9,115.3c8.7,8.1,32.8,6.5,30.6,6c-5.1-1.2-17.8-4.5-23.4-7c1.6,0.7,9.2-0.2,13.7-2.5
				c1.3-0.7-5.4-1.9-7.7-1.9c-2.4-0.2-4.7-0.9-7-1.7c2.1-0.3,4.6-4,6.1-4.9c1.8-1.1-8.4,3.4-10.2,4c-2-0.8,2.6-4.7,3.5-6.3
				c1.9-2.7,0.9-1.1,5.1-8.3c0,0-10.4,6.8-11.2,10.2c-0.4-3.7,2.4-10.5,3.2-13c1.2-3.8,3.3-8.3,3.2-12.3c0-0.4-0.6-0.5-0.8-0.2
				c-3.7,4.3-6.7,10.1-8.4,15.5c-3,9.3-1.5,10.9-1.3,14c-5.8,1-9.6,7-6.9,11.4C344,123.9,349.3,120.3,351.9,115.3z"/>
		</g>
		<g id="XMLID_4_">
			<path id="XMLID_8_" fill="#F090A3" d="M281.4,152c-2.8-8.7-11-9.6-18.8-7.2c-8.9,2.8-17.7,6.2-26,10.5c-1.9,1,0.4-0.9,2.8-2.5
				c5.6-3.8,13.8-10,14.8-17.3c1.1-8.3-1.6-15-8.3-20.1c-3.4-2.6-7.1-3-10.7-2.2c-1.7-2.3-4.2-3.8-7.5-3.3c-3.6,0.5-6.3,1.3-9.1,3.8
				c-0.3,0.3-0.7,0.6-1,0.9c-0.3-0.8-0.8-1.5-1.6-2.2c-2-1.8-4.8-3.7-7.7-3.3c-6.6,0.9-12.6,4.4-13.5,11.6c-0.4,3.6,1.1,6.4,2.7,9.5
				c2.2,4.3,3.6,9,5.2,13.6c0.6,1.6,1.2,3.3,1.8,4.9c-7.7-8.9-20-19.9-29.8-15.7c-8.2,3.5-9.6,10.6-7.6,17.4
				c-1.2,0.5-2.4,1.1-3.5,1.9c-6.2,4.7-3.8,11.6,0.5,16.6c2.7,3.1,6.3,5.3,10.2,6.9c-4.6,1-8.9,2.7-12.9,5.6
				c-5.1,3.7-6.9,10.2-2.5,15.2c0.5,0.6,1.1,1.1,1.6,1.5c-1.1,2.2-1.7,4.6-1.8,7.3c-0.1,10.3,7.4,15.4,17,15.1
				c5.8-0.2,10.9-3,15.6-6.6c-2.1,2.8-4.2,5.8-4.6,9c-1.1,8.4,2.7,14.6,11.1,16.6c4.3,1,8.8-0.9,12.1-3.5c0.8-0.6,1.4-1.3,1.9-2.1
				c1.2,1.3,2.7,2.4,4.6,3.3c7.2,3.4,13.4,3.5,19.5-1.9c5.1-4.6,4.7-18.3,3-24.1c-0.8-2.7-1.6-3.8-1.9-6.4c7,3.7,14.5,4.3,22.9,2.4
				c6.5-1.5,9.6-8.4,11.6-14c0.7-1.9,1-3.8,0.9-5.6c0.6-0.4,1.2-0.8,1.8-1.3c4.1-3.4,6.6-7.6,7-13c0.2-3.3-0.1-6.1-1.3-9.2
				c-0.2-0.6-0.5-1.1-0.8-1.7C281.5,159.5,282.7,155.9,281.4,152z"/>
		</g>
		<g id="XMLID_5_">
			<path id="XMLID_6_" fill="#F4BAC3" d="M242.9,173.1c-0.9-3.9-4.5-4.7-7.9-3.9c-4,0.8-11.6,3.2-10.5,2.6c2.6-1.4,6.5-3.8,7.2-7
				c0.8-3.6-0.1-6.6-2.8-9.2c-1.4-1.3-3-1.6-4.6-1.4c-0.7-1.1-1.7-1.8-3.2-1.8c-1.6,0.1-2.8,0.3-4.1,1.3c-0.2,0.1-0.3,0.2-0.5,0.3
				c-0.1-0.4-0.3-0.7-0.6-1c-0.8-0.9-2-1.8-3.2-1.8c-2.9,0.1-5.7,1.4-6.4,4.5c-0.3,1.6,0.2,2.9,0.8,4.3c0.8,2,1.2,4.1,1.7,6.2
				c0.2,0.7,0.4,1.5,0.6,2.2c-3-4.2-7.9-9.6-12.4-8.1c-3.7,1.2-4.7,4.3-4,7.3c-0.5,0.2-1.1,0.4-1.6,0.7c-2.9,1.8-2.1,4.9-0.5,7.3
				c1,1.5,2.5,2.6,4.2,3.4c-2.1,0.3-4,0.8-5.9,1.9c-2.4,1.4-3.4,4.2-1.7,6.6c0.2,0.3,0.4,0.5,0.6,0.7c-0.6,0.9-0.9,1.9-1.1,3.1
				c-0.5,4.5,2.6,7.1,6.8,7.3c2.6,0.2,4.9-0.9,7.1-2.3c-1,1.1-2.1,2.4-2.4,3.7c-0.8,3.6,0.6,6.5,4.2,7.7c1.8,0.6,3.9,0,5.5-1
				c0.4-0.2,0.7-0.5,0.9-0.8c0.5,0.6,1.1,1.2,1.9,1.6c3,1.8,5.7,2.1,8.6,0c2.4-1.8,2.8-7.8,2.3-10.4c-0.2-1.2-0.6-2.3-0.6-3.4
				c2.9,1.9,6.2,3.1,10,2.5c2.9-0.4,4.5-3.3,5.6-5.7c0.4-0.8,0.6-1.6,0.6-2.4c0.3-0.2,0.6-0.3,0.9-0.5c2-1.3,3.2-3.1,3.6-5.4
				c0.2-1.4,0.2-2.7-0.2-4.1c-0.1-0.3-0.2-0.5-0.3-0.8C242.6,176.4,243.3,174.9,242.9,173.1z"/>
		</g>
		<g id="XMLID_9_">
			<path id="XMLID_13_" fill="#AD4358" d="M332,224.9c8.4-1.5,10.3-9,9.1-16.5c-1.4-8.6-3.6-17.2-6.5-25.4c-0.7-1.9-1.4-3.8-2.3-5.6
				c1.7,3,3.1,6.1,4.3,8.5c2.8,5.7,7.6,14.1,14.2,15.9c7.5,2.1,14.1,0.4,19.7-5.2c2.9-2.8,3.7-6.2,3.4-9.7c2.4-1.3,4.1-3.4,4-6.6
				c0-3.4-0.4-6-2.4-8.9c-0.2-0.4-0.5-0.7-0.7-1c0.8-0.2,1.5-0.6,2.2-1.2c1.9-1.6,12-10.7,1.5-21.2c-7.1-7.1-30.6,4.3-32.1,4.7
				c9.3-6,16.6-14.5,16.7-24.6c0.2-14-9.8-11.8-10.3-13c-4.4-8.6-16.6-4.7-21.7-1.4c-3.2,2.1-6.5,4.3-8.4,7.7
				c-0.4-4.4-0.6-7.7-2.8-11.7c-2.8-5.2-8.6-7.7-13.8-4.2c-0.6,0.4-1.1,0.8-1.6,1.3c-1.9-1.3-4.1-2.2-6.6-2.6
				c-9.5-1.4-15.2,4.9-16.2,13.9c-0.6,5.4,4.6,9.6,7.3,14.4c-2.3-2.3-8-3.7-10.9-4.4c-7.6-2-13.9,0.7-16.8,8.2
				c-1.5,3.9-0.3,8.3,1.7,11.7c0.5,0.8,1.1,1.4,1.7,2c-1.3,0.9-2.6,2.2-3.6,3.8c-4,6.3-5,12-0.7,18.4c3.6,5.3,16.4,6.7,22,5.8
				c2.6-0.4,5-1.1,7.4-1c-4.3,6.1-7,12.9-6.3,21c0.6,6.2,6.6,10,11.5,12.5c1.7,0.9,3.4,1.4,5.1,1.6c0.3,0.6,0.6,1.3,1,1.9
				c2.6,4.3,6.2,7.1,11.2,8.1c3,0.6,5.7,0.7,8.7,0c0.6-0.1,1.1-0.3,1.6-0.5C325,224.1,328.2,225.6,332,224.9z"/>
		</g>
	</g>
	<g id="XMLID_11_">
		<path id="XMLID_12_" fill="#F090A3" d="M246.9,115.5c1.3,2.6,3.9,2.5,6.2,1.4c2.7-1.3,7.5-4.1,6.8-3.5c-1.6,1.4-3.8,3.7-3.8,6
			c0,2.6,1.2,4.6,3.5,5.9c1.2,0.7,2.3,0.6,3.4,0.2c0.6,0.6,1.5,1,2.5,0.7c1.1-0.3,1.9-0.7,2.7-1.6c0.1-0.1,0.2-0.2,0.3-0.3
			c0.1,0.2,0.3,0.4,0.6,0.6c0.7,0.5,1.7,0.9,2.5,0.7c2-0.6,3.7-1.9,3.7-4.2c0-1.1-0.6-2-1.3-2.8c-0.9-1.2-1.5-2.6-2.2-4
			c-0.2-0.5-0.5-1-0.8-1.4c2.8,2.4,7.1,5.3,10,3.6c2.4-1.5,2.5-3.7,1.6-5.8c0.4-0.2,0.7-0.4,1-0.8c1.7-1.8,0.7-3.8-0.9-5.1
			c-1-0.8-2.2-1.4-3.5-1.7c-8.3-0.7,2.7-1.2,3.8-2.3c1.4-1.4,1.7-3.5,0.1-4.8c-0.2-0.2-0.4-0.3-0.6-0.4c0.2-0.7,0.3-1.5,0.2-2.3
			c-0.4-3.2-3-4.5-6-4c-1.8,0.3-3.3,1.4-4.6,2.8c0.5-1,1-2,1-3c0-2.6-1.5-4.4-4.2-4.7c-1.4-0.1-2.7,0.7-3.6,1.6
			c-0.2,0.2-0.4,0.5-0.5,0.7c-0.4-0.3-0.9-0.6-1.6-0.8c-2.4-0.7-4.3-0.5-6,1.5c-1.4,1.6-0.6,5.9,0.1,7.6c0.4,0.8,0.8,1.5,1,2.3
			c-2.4-0.8-4.8-1.1-7.3-0.1c-1.9,0.8-2.6,3.1-3,4.9c-0.1,0.6-0.1,1.2,0,1.8c-0.2,0.2-0.4,0.3-0.5,0.5c-1.1,1.2-1.7,2.7-1.6,4.4
			c0.1,1,0.3,1.9,0.8,2.8c0.1,0.2,0.2,0.3,0.3,0.5C246.5,113.1,246.3,114.3,246.9,115.5z"/>
	</g>
	
		<ellipse transform="matrix(0.9723 -0.2335 0.2335 0.9723 -17.2764 64.8483)" fill="#FFE082" cx="265.2" cy="105.4" rx="5.5" ry="5.9"/>
	<ellipse fill="#FFE082" cx="212.2" cy="182.8" rx="6.2" ry="6.7"/>
	<g id="XMLID_7_">
		<path id="XMLID_10_" fill="#D0697D" d="M286.4,156.6c-0.8,3.5,1.8,5.5,4.8,6.2c3.6,0.9,10.5,2,9.4,2c-2.6,0.1-6.7,0.6-8.5,2.8
			c-2.1,2.5-2.5,5.3-1.3,8.4c0.6,1.6,1.8,2.4,3.2,2.9c0.1,1.1,0.6,2.1,1.8,2.6c1.3,0.5,2.4,0.8,3.8,0.6c0.2,0,0.3-0.1,0.5-0.1
			c0,0.3,0,0.7,0.1,1.1c0.3,1,0.9,2.2,1.9,2.7c2.4,1,5.1,1.1,6.9-1.2c0.9-1.1,0.9-2.4,1-3.7c0.1-1.9,0.6-3.8,1-5.6
			c0.1-0.7,0.3-1.3,0.4-2c0.8,4.6,2.6,10.7,6.8,11.3c3.5,0.5,5.4-1.6,6.1-4.3c0.5,0.1,1,0.1,1.6,0.1c3-0.3,3.6-3.1,3.2-5.7
			c-0.3-1.6-1-3.1-2-4.4c-7.4-7.2,3.6,0.9,5.4,0.7c2.4-0.2,4.4-2,3.9-4.6c-0.1-0.3-0.1-0.6-0.2-0.8c0.8-0.5,1.5-1.2,2.1-2.1
			c2.1-3.4,0.6-6.7-2.6-8.5c-2-1.1-4.3-1.2-6.6-0.9c1.3-0.5,2.6-1.1,3.4-2.1c2.1-2.6,2.1-5.4-0.4-7.8c-1.2-1.2-3.1-1.5-4.8-1.3
			c-0.4,0-0.7,0.2-1.1,0.3c-0.1-0.7-0.4-1.4-0.9-2c-1.7-2.6-3.8-3.9-6.9-3.3c-2.7,0.5-5.3,5.2-5.9,7.5c-0.3,1.1-0.4,2.1-0.8,3
			c-1.6-2.7-3.8-4.9-7-5.9c-2.5-0.8-4.9,0.9-6.7,2.3c-0.6,0.5-1.1,1.1-1.4,1.7c-0.3,0-0.6,0-0.9,0.1c-2.1,0.3-3.7,1.2-5,2.9
			c-0.8,1.1-1.2,2.1-1.4,3.4c-0.1,0.2-0.1,0.5-0.1,0.7C287.9,154,286.7,155,286.4,156.6z"/>
	</g>
	
		<ellipse transform="matrix(0.4361 -0.8999 0.8999 0.4361 32.8083 373.8746)" fill="#FFE082" cx="314.7" cy="160.8" rx="5.9" ry="5.5"/>
</g>
</svg>
