<?xml version="1.0" encoding="utf-8"?>
<!-- Generator: Adobe Illustrator 21.1.0, SVG Export Plug-In . SVG Version: 6.00 Build 0)  -->
<svg version="1.1" baseProfile="tiny" id="Слой_1"
	 xmlns="http://www.w3.org/2000/svg" xmlns:xlink="http://www.w3.org/1999/xlink" x="0px" y="0px" viewBox="0 0 512 512"
	 overflow="scroll" xml:space="preserve">
<g>
	<g>
		<path fill="#484649" d="M244,292.5l10.7,17.2l3.5,16.8c0,0,107.2-44.5,149.9-56c37.7-10.1,83.6-14.2,95.2-10.6
			c1.6,0.5,3.4-0.2,4.1-1.7l4.7-8.9c0.4-0.7,0.4-1.5,0.2-2.2c-0.2-0.7-0.7-1.3-1.4-1.7c-13-6.5-73.1-17.5-122.7-2.7
			C345.5,255.5,244,292.5,244,292.5z"/>
		<path fill="#996945" d="M177.5,310.6c-8,3.5-17.3,2.7-24.6-2.1c-7.3-4.8-11.7-13-11.7-21.7v-46.8H0.4c0,0,0,57.4,0,76.6
			c0,33.9,28.2,67.1,65.9,75.9c31,7.3,75.1,0.5,104.2-12.5l133.7-60c0,0,6-16,0-32.2c-7.9-21.3-22.7-22.3-22.7-22.3L177.5,310.6z"/>
		<path fill="#FFBC73" d="M278,297.9c-7.4-22.1-20.3-22.3-20.3-22.3l-22.1,9.6c4.9,2,14.7,6.8,20,22.4c5.2,15.7,0.6,30.8-0.4,34.1
			l22.5-10.1C277.8,331.7,283.6,314.6,278,297.9z"/>
		<path fill="#898790" d="M99.8,144.9c-1.1-7.2-4.2-13.9-9.3-19.5c-2.3-2.5-4.8-4.7-7.4-6.4c-3.1-2.1-6.1-3.5-9.2-4.3
			c-2.7-0.7-5.6,0.1-7.5,2.1c-1.9,2.1-2.5,5-1.5,7.6c1.8,4.9,2.9,8.7,3.5,12.1c0.7,3.9,0.4,6.6,0,8.2c-0.5,2-1.3,3.8-2.7,5.8
			c-0.8,1.1-1.6,2.2-2.6,3.2c-0.5,0.6-1,1.1-1.6,1.6l-1.9,1.8c-5.3,4.9-9.4,10.3-12.1,16.1c-1.6,3.5-2.8,7.1-3.4,10.9
			c-0.6,4-0.7,7.9-0.1,11.7c1.1,7.2,4.2,13.9,9.3,19.5c2.3,2.5,4.8,4.7,7.4,6.4c3.1,2.1,6.1,3.5,9.1,4.3c0.7,0.2,1.3,0.3,2,0.3
			c0,0,0.1,0,0.1,0c4.1,0,7.4-3.3,7.4-7.4c0-1.1-0.2-2.2-0.7-3.1c-1.7-4.6-2.8-8.3-3.3-11.6c-0.7-3.9-0.4-6.6,0-8.2
			c0.5-2,1.3-3.8,2.7-5.8c0.8-1.1,1.7-2.2,2.6-3.2c0.5-0.6,1-1.1,1.6-1.7l1.9-1.8c5.3-4.8,9.4-10.3,12.1-16.1
			c1.7-3.5,2.8-7.2,3.4-10.9C100.4,152.6,100.4,148.6,99.8,144.9z"/>
		<path fill="#696675" d="M70.9,219.5c-5.2-5.4-8.6-12.1-9.9-19.2c-0.7-3.7-0.8-7.7-0.3-11.7c0.5-3.8,1.5-7.5,3.1-11
			c2.5-5.9,6.4-11.5,11.6-16.5l1.8-1.9c0.5-0.5,1-1.1,1.5-1.7c0.9-1.1,1.8-2.2,2.5-3.3c1.4-2.1,2.1-3.9,2.5-5.9
			c0.3-1.6,0.5-4.3-0.3-8.1c-0.7-3.4-1.9-7.2-3.9-12c-1.1-2.6-0.6-5.5,1.2-7.7c0.6-0.7,1.3-1.3,2.1-1.7c-3-2-6-3.4-8.9-4.2
			c-2.7-0.7-5.6,0.1-7.5,2.1c-1.9,2.1-2.5,5-1.5,7.6c1.8,4.9,2.9,8.7,3.5,12.1c0.7,3.9,0.4,6.6,0,8.2c-0.5,2-1.3,3.8-2.7,5.8
			c-0.8,1.1-1.6,2.2-2.6,3.2c-0.5,0.6-1,1.1-1.6,1.6l-1.9,1.8c-5.3,4.9-9.4,10.3-12.1,16.1c-1.6,3.5-2.8,7.1-3.4,10.9
			c-0.6,4-0.7,7.9-0.1,11.7c1.1,7.2,4.2,13.9,9.3,19.5c2.3,2.5,4.8,4.7,7.4,6.4c3.1,2.1,6.1,3.5,9.1,4.3c0.7,0.2,1.3,0.3,2,0.3
			c0,0,0.1,0,0.1,0c1.9,0,3.6-0.7,4.9-1.9C74.8,223.1,72.8,221.4,70.9,219.5z"/>
	</g>
	<rect x="0.4" y="240" fill="#7D5637" width="140.7" height="24.9"/>
</g>
</svg>
