<?xml version="1.0" encoding="utf-8"?>
<!-- Generator: Adobe Illustrator 21.1.0, SVG Export Plug-In . SVG Version: 6.00 Build 0)  -->
<svg version="1.1" baseProfile="tiny" id="Слой_1"
	 xmlns="http://www.w3.org/2000/svg" xmlns:xlink="http://www.w3.org/1999/xlink" x="0px" y="0px" viewBox="0 0 512 512"
	 overflow="scroll" xml:space="preserve">
<g>
	<g>
		<ellipse id="XMLID_115_" fill="#FECE00" cx="257.3" cy="257.1" rx="228.6" ry="223.6"/>
		<path id="XMLID_114_" fill="#403408" d="M486.5,257.1c0,29.7-5.7,59.3-16.9,87c-1.4,3.4-3,6.8-4.4,10.3c-1.6,3.4-3.3,6.7-4.9,10
			l-5.4,9.8l-5.9,9.5c-8.2,12.5-17.6,24.3-28.2,35c-10.6,10.7-22.2,20.5-34.8,28.8l-4.8,3.1c-1.6,1-3.2,2.1-4.8,3l-4.9,2.9L369,458
			c-0.8,0.5-1.7,0.9-2.5,1.3c-6.7,3.5-13.5,6.8-20.5,9.6c-28,11.4-58.4,17.1-88.6,16.7c-15.1-0.2-30.2-1.9-44.9-5
			c-14.7-3.1-29.2-7.7-43-13.6c-13.8-5.9-27.1-13-39.5-21.4c-12.4-8.3-24.1-17.8-34.7-28.2c-21.4-20.9-38.7-45.8-50.7-73.2
			c-1.4-3.5-2.9-6.9-4.2-10.4c-1.2-3.5-2.6-7-3.7-10.6c-1.1-3.6-2.2-7.1-3.2-10.7c-0.9-3.6-1.9-7.2-2.7-10.9
			c-3.2-14.6-5-29.6-5.3-44.6c-0.5-30,5-60.3,16.6-88.3c11.5-28,29-53.5,50.6-74.7c10.8-10.6,22.7-20.2,35.4-28.5
			c12.7-8.3,26.2-15.4,40.3-21.2c14.1-5.8,28.7-10.1,43.7-12.9c14.9-2.9,30.1-4.4,45.3-4.3c15.2,0.1,30.4,1.6,45.3,4.6
			c14.9,2.9,29.5,7.3,43.5,13.2c7,2.9,13.9,6.2,20.5,9.7c0.8,0.4,1.7,0.9,2.5,1.3l2.4,1.4l4.9,2.9c1.6,0.9,3.2,2,4.8,3l4.7,3.1
			c12.6,8.4,24.1,18.2,34.7,29c10.5,10.8,20,22.5,28.2,35.1l5.9,9.6l5.4,9.8c1.6,3.4,3.3,6.7,4.9,10.1c1.5,3.4,3,6.8,4.4,10.3
			C480.9,197.7,486.5,227.4,486.5,257.1z M485.3,257.1c0-29.5-6.4-59-18.6-85.8c-12.1-26.8-30-50.7-51.4-70.4
			c-10.7-9.8-22.4-18.5-34.7-26.2l-4.7-2.8c-1.5-0.9-3.1-1.9-4.7-2.7l-4.8-2.6l-2.4-1.3c-0.8-0.4-1.6-0.8-2.4-1.2
			c-6.5-3.2-13.1-6.2-19.8-8.8c-13.5-5.2-27.4-9.2-41.5-11.8c-14.2-2.6-28.6-3.9-43-3.8c-14.4,0.1-28.8,1.4-42.9,4.1
			c-14.1,2.7-28,6.8-41.4,12c-26.8,10.6-51.5,26.3-72.5,46.2c-20.9,19.9-37.9,43.9-49.7,70.4c-5.9,13.2-10.5,27.1-13.6,41.2
			C34,228,32.3,242.5,32,257.1c-0.5,29.2,4.9,58.6,16.3,85.6c5.6,13.5,12.8,26.5,21.1,38.6c8.3,12.1,18,23.3,28.6,33.4
			c10.6,10.1,22.3,19.1,34.7,26.9c12.4,7.7,25.6,14.3,39.3,19.4c27.3,10.3,56.5,15.1,85.4,14.8c58-0.6,115.2-22.9,158.1-62.4
			c21.4-19.7,39.3-43.6,51.4-70.4C479,316.1,485.3,286.6,485.3,257.1z"/>
	</g>
	<path fill="#EAB51F" d="M353.3,454.3c-27.4,14.6-70.2,22.8-109.5,21.3c-76.7-3-158.8-45.1-194.1-129.1
		C6,242.4,53.9,166.4,60.9,152.8c0,0-18.9,123.1,81.9,223.1C258.4,490.6,353.3,454.3,353.3,454.3z"/>
	<g id="XMLID_116_">
		<path id="XMLID_118_" fill="#403408" d="M153.8,260L153.8,260c-9.1,0-16.6-7.3-16.6-16.2v-39c0-8.9,7.5-16.2,16.6-16.2l0,0
			c9.1,0,16.6,7.3,16.6,16.2v39C170.4,252.7,163,260,153.8,260z"/>
		<path id="XMLID_117_" fill="#403408" d="M361.9,260L361.9,260c-9.1,0-16.6-7.3-16.6-16.2v-39c0-8.9,7.5-16.2,16.6-16.2l0,0
			c9.1,0,16.6,7.3,16.6,16.2v39C378.6,252.7,371.1,260,361.9,260z"/>
	</g>
	<g>
		<path fill="#403408" d="M381.6,321.6c-5.7,13.3-18.8,37.9-43.7,56.8c-0.2,0.1-0.4,0.3-0.5,0.4c-0.2,0.1-0.4,0.3-0.6,0.4
			c-19.1,14.2-44.9,25-79.4,25c-34.7,0-60.5-10.8-79.4-25c-0.7-0.5-1.5-1.1-2.2-1.7c-0.7-0.5-1.4-1.1-2.1-1.7
			c-22.4-18.4-34.3-41.1-39.6-53.7c-1.9-4.5,1.5-9.4,6.5-9.4l234.4-0.7C380.1,312.1,383.5,317.1,381.6,321.6z"/>
		<path fill="#403408" d="M384,313.3c-2-3-5.3-4.7-8.9-4.7c0,0,0,0,0,0l-234.4,0.7c-3.6,0-6.9,1.8-8.9,4.7c-1.9,2.9-2.3,6.5-0.9,9.6
			c5.7,13.5,17.9,36.7,40.7,55.3c0.7,0.6,1.3,1.1,2,1.6c0.7,0.5,1.4,1.1,2.1,1.6c0.7-1,1.5-1.9,2.4-2.8c18.9,14.2,44.7,25,79.4,25
			c34.5,0,60.4-10.8,79.4-25c0.8,0.9,1.5,1.9,2.2,2.9c0.2-0.1,0.3-0.2,0.5-0.4c0.2-0.1,0.3-0.2,0.5-0.4
			c25.3-19.1,38.8-44.1,44.9-58.4C386.3,319.8,385.9,316.2,384,313.3z M257.4,400.6c-33.5,0-58.5-10.3-76.9-23.9
			c-0.8-0.6-1.5-1.1-2.3-1.7c-0.7-0.6-1.5-1.1-2.2-1.7c-21.6-17.6-33.2-39.6-38.6-52.4c-0.5-1.3,0-2.4,0.3-2.9
			c0.6-1,1.7-1.5,2.9-1.5l234.4-0.7c0,0,0,0,0,0c1.2,0,2.3,0.6,2.9,1.5c0.3,0.5,0.8,1.6,0.3,2.9c-5.8,13.6-18.6,37.3-42.6,55.5
			c-0.2,0.2-0.4,0.3-0.6,0.5c-0.2,0.2-0.4,0.3-0.7,0.5C315.9,390.3,290.8,400.6,257.4,400.6z"/>
		<path fill="#403408" d="M339,382.2c-19.6,14.6-46.2,25.6-81.6,25.6c-35.7,0-62.3-11.1-81.8-25.7c0.7-1,1.5-1.9,2.4-2.8
			c18.9,14.2,44.7,25,79.4,25c34.5,0,60.4-10.8,79.4-25C337.6,380.2,338.3,381.2,339,382.2z"/>
		<path fill="#FF5A58" d="M339.5,378.2c-0.2,0.1-0.3,0.3-0.5,0.4c-0.7-1-1.4-2-2.2-2.9c-19.1,14.2-44.9,25-79.4,25
			c-34.7,0-60.5-10.8-79.4-25c-0.8,0.9-1.6,1.9-2.4,2.8c-0.7-0.5-1.4-1-2.1-1.6c0.7-1,1.4-2,2.2-2.9c0.8-0.9,1.6-1.8,2.4-2.6
			c14.7-14.8,44.1-24.9,77.9-24.9c34.7,0,64.6,10.6,79,26.1c0.8,0.9,1.6,1.8,2.3,2.7C338.2,376.2,338.9,377.2,339.5,378.2z"/>
		<path id="XMLID_107_" fill="#403408" d="M337.9,374.8c-0.7-0.9-1.4-1.9-2.2-2.7c-0.9-1.1-1.9-2.1-2.8-3.1
			c-6.6-6.5-14.5-11.5-22.9-15.3c-4.2-1.9-8.5-3.6-12.9-5c-2.2-0.7-4.4-1.3-6.7-1.9L287,346l-3.4-0.7c-9.1-1.8-18.3-2.5-27.5-2.7
			c-18.4,0-37,3-54.3,10.1c-8.6,3.6-16.9,8.2-23.8,14.9c-0.7,0.7-1.4,1.3-2,2c-0.8,0.9-1.6,1.8-2.3,2.7c-0.8,1-1.5,1.9-2.2,3
			c0.7,0.6,1.3,1.1,2,1.6c0.7,0.5,1.4,1.1,2.1,1.6c0.7-1,1.5-1.9,2.4-2.8c0.8-0.9,1.6-1.7,2.5-2.5c0.5-0.4,0.9-0.9,1.4-1.3
			c6.5-5.6,14.3-9.7,22.4-12.8c8.2-3.1,16.7-5.2,25.4-6.6c4.3-0.7,8.7-1.2,13.1-1.6c4.4-0.3,8.8-0.5,13.2-0.5
			c4.4,0,8.8,0.1,13.2,0.4c5,0.4,8.2,0.8,13.2,1.4c8.7,1.3,17.4,3.2,25.8,6c4.2,1.4,8.3,3.1,12.2,5.1c3.9,2,7.7,4.4,11.1,7.2
			c1,0.8,1.9,1.7,2.9,2.6c0.8,0.8,1.6,1.7,2.4,2.6c0.8,0.9,1.5,1.9,2.2,2.9c0.2-0.1,0.3-0.2,0.5-0.4c0.2-0.1,0.3-0.2,0.5-0.4
			C339.4,376.8,338.7,375.8,337.9,374.8z"/>
	</g>
</g>
</svg>
