<?xml version="1.0" encoding="utf-8"?>
<!-- Generator: Adobe Illustrator 21.1.0, SVG Export Plug-In . SVG Version: 6.00 Build 0)  -->
<svg version="1.1" baseProfile="tiny" id="Слой_1"
	 xmlns="http://www.w3.org/2000/svg" xmlns:xlink="http://www.w3.org/1999/xlink" x="0px" y="0px" viewBox="0 0 512 512"
	 overflow="scroll" xml:space="preserve">
<g>
	<path fill="#63977E" d="M245.2,216.4l-1.6-7.6c11.1-2.3,25-4.6,27.2-6.2l2.9,2.1C269.1,207.9,251,215.1,245.2,216.4z"/>
	<path fill="#B3E5FC" d="M369.2,283.6h-242l17.6,204.4c1.2,13.7,12.6,24.2,26.4,24.2h154.1c13.7,0,25.2-10.5,26.4-24.2L369.2,283.6z
		"/>
	<path fill="#F4B0C2" d="M367.6,302.3l-2.7,30.9c-24.5,7.2-67.5,11.9-116.5,11.9c-49.3,0-92.5-4.8-116.9-12l-2.7-31
		c2.4,0.8,4.9,1.5,7.7,2.2h0c25.1,6.4,65.9,10.6,111.9,10.6c46,0,86.8-4.2,111.9-10.6h0C362.9,303.7,365.3,303,367.6,302.3z"/>
	<path fill="#4FC3F7" d="M302,283.6c19,22.5,30.3,51,30.3,81.9c0,72.6-62.3,131.5-139,131.5c-17,0-33.3-2.9-48.4-8.2
		c1.5,13.3,12.8,23.4,26.3,23.4h154.1c13.7,0,25.2-10.5,26.4-24.2l17.6-204.4H302z"/>
	<path fill="#81D4FA" d="M360.3,293.1L360.3,293.1c-25.1,6.5-65.9,10.6-111.9,10.6c-46,0-86.8-4.2-111.9-10.6h0
		c-16.4-4.2-26.2-9.4-26.2-15.1v30.1v0c0.1,14.2,61.8,25.7,138.1,25.7c76.2,0,138-11.5,138-25.7V278
		C386.4,283.6,376.7,288.8,360.3,293.1z"/>
	<path fill="#29B6F6" d="M365.9,321.6l-1,11.6c-24.5,7.2-67.5,11.9-116.5,11.9c-49.3,0-92.5-4.8-116.9-12l-1-11.6
		c24.2,7.4,68,12.3,117.9,12.3C298,333.9,341.6,329,365.9,321.6z"/>
	<path fill="#7A4E2E" d="M341.5,265.1c-25.3-4.4-58.4-6.8-93.1-6.8c-34.8,0-67.8,2.4-93.1,6.8c-28.3,4.9-37.4,10.7-38.8,12.9
		c0.8,1,4.7,5,21.6,9.3c25.5,6.6,66.7,10.5,110.4,10.5c43.7,0,84.9-3.9,110.4-10.5c16.9-4.3,20.8-8.3,21.6-9.3
		C378.9,275.8,369.8,270,341.5,265.1z"/>
	<path fill="#4FC3F7" d="M248.4,252.3c-76.2,0-138.1,11.5-138.1,25.7c0,5.6,9.7,10.8,26.2,15.1c25.1,6.5,65.9,10.7,111.9,10.7
		c46,0,86.8-4.2,111.9-10.7c16.5-4.2,26.2-9.4,26.2-15.1C386.4,263.8,324.6,252.3,248.4,252.3z M358.8,287.3
		c-25.5,6.6-66.7,10.5-110.4,10.5c-43.7,0-84.9-3.9-110.4-10.5c-16.9-4.3-20.8-8.3-21.6-9.3c1.5-2.2,10.5-8,38.8-12.9
		c25.3-4.4,58.4-6.8,93.1-6.8c34.8,0,67.8,2.4,93.1,6.8c28.3,4.9,37.4,10.7,38.8,12.9C379.6,279,375.6,283,358.8,287.3z"/>
	<path fill="#63977E" d="M297.6,211.5c13.4-4.9,22.2-25,22.2-25s-19.6-9.7-33.1-4.8c-13.4,4.9-21.9,15.6-18.9,23.8
		C270.8,213.7,284.1,216.4,297.6,211.5z"/>
	<path fill="#63977E" d="M244.1,206.6c-11.1-6.4-45.1-29.7-48.3-32.6l2.3-2.6c2.5,2.2,32.2,18.1,49.9,28.5L244.1,206.6z"/>
	<path fill="#80C683" d="M189.2,144.5c-14.5-10.7-41.6-6-41.6-6s3.4,27.4,17.9,38.1c14.5,10.7,31.5,12.2,38.1,3.4
		C210.1,171.1,203.7,155.2,189.2,144.5z"/>
	<path fill="#63977E" d="M255.7,278.8c-5.1-9.2-20.3-34.8-7.7-64.7c15.2-36.1,8.7-80.6,2.8-95.3l-3.4,2.3
		c5.5,13.7,7.8,55.9-6.6,89.9c-12.5,29.7-7.2,55.3-1.1,67.8H255.7z"/>
	<g>
		<path id="XMLID_1238_" fill="#EB6372" d="M293.5,0.3c-16.3,0-30.8,7.9-39.8,20.1l0,0c-9-12.2-23.5-20.1-39.8-20.1
			c-27.3,0-49.5,22.2-49.5,49.5c0,40.7,87.1,107,89.3,108.8l0.1,0c0,0,89.3-66,89.3-108.8C343,22.5,320.8,0.3,293.5,0.3z"/>
	</g>
	<path fill="#E74256" d="M293.5,0.3c-7.6,0-14.7,1.7-21.1,4.8c11.4,13.1,18.4,30.3,18.4,49.1c0,40.4-32,73.3-72.1,74.7
		c18.1,16.8,34,29,35,29.7l0.1,0c0,0,89.3-66,89.3-108.8C343,22.5,320.8,0.3,293.5,0.3z"/>
	<path fill="#E98FA1" d="M222.8,50.6c7.6-15.1,4.6-32-6.9-37.8c-11.4-5.8-26.9,1.8-34.5,16.9c-7.6,15.1-4.6,32,6.8,37.8
		C199.7,73.2,215.2,65.7,222.8,50.6z"/>
	<ellipse transform="matrix(0.7072 -0.707 0.707 0.7072 1.295 167.2214)" fill="#E98FA1" cx="202.6" cy="82" rx="7.1" ry="6.7"/>
	<path fill="#63977E" d="M189.2,144.5c-10.4-7.7-27.5-7.4-36.2-6.7c20.3,0.3,36.6,14.7,36.6,32.4c0,5.5-1.6,10.6-4.3,15.1
		c7.8,1.2,14.6-0.5,18.3-5.4C210.1,171.1,203.7,155.2,189.2,144.5z"/>
	<g>
		<path fill="#80C683" d="M286.7,181.7c-6.2,2.3-11.3,5.8-14.8,9.7c0.1,0.4,0.3,0.8,0.4,1.2c4.4,10.9,19.2,15.1,33.1,9.5
			c2.9-1.2,5.6-2.7,7.9-4.5c4.1-5.8,6.4-11.1,6.4-11.1S300.1,176.8,286.7,181.7z"/>
	</g>
</g>
</svg>
