<?xml version="1.0" encoding="utf-8"?>
<!-- Generator: Adobe Illustrator 21.1.0, SVG Export Plug-In . SVG Version: 6.00 Build 0)  -->
<svg version="1.1" baseProfile="tiny" id="Слой_1"
	 xmlns="http://www.w3.org/2000/svg" xmlns:xlink="http://www.w3.org/1999/xlink" x="0px" y="0px" viewBox="0 0 512 512"
	 overflow="scroll" xml:space="preserve">
<g>
	<path fill="#F4AFB2" d="M387.8,163.4c0,0,94,80.9,123.1,119.7c0,0,12.7,39.5-36.4,152.7c0,0-75.3-87.3-125.2-133.4
		c-49.8-46.2-92.9-90.5-99.3-138.5L387.8,163.4z"/>
	<path fill="#F08890" d="M258.5,178.6l-0.9-7.4c-1.8,1.8-3.3,3.9-4.6,6.3c11.9,42.9,51.4,83.1,96.4,124.9
		c49.8,46.1,125.2,133.4,125.2,133.4c49.1-113.2,36.4-152.7,36.4-152.7c-4.8-6.4-11.4-14-19-22.1l0,0
		C425.1,400.3,258.5,178.6,258.5,178.6z"/>
	<path fill="#EB6372" d="M242.8,136.7c0,0,95.2-101.6,136.6-109.7c0,0,44.7,46,68.6,108.4c0,0-42.4,25.4-72.5,49.1
		c-30.1,23.7-107,12.1-117.7,3.7l-5.9-13.7L242.8,136.7z"/>
	<path fill="#D83F59" d="M242.8,136.7c0,0,19.9,25.5,14.7,53.1c0,0-12.8,11.2-23.2,2.7l-7.7-21c0,0,6.4-17.2,0.9-28
		C227.6,143.6,225.6,132.2,242.8,136.7z"/>
	<path fill="#9F191B" d="M32.5,206.3C32.5,206.3,32.6,206.3,32.5,206.3c0.1,0,0-0.1,0-0.2C32.5,206.2,32.5,206.2,32.5,206.3z"/>
	<path fill="#F08890" d="M227.6,143.6c-8.4-6.6-102-55.1-171-60.4c0,0-32.1,79-24.1,122.8c-0.1-3.1,23.6,0.5,58.4,11.2
		c6.7,0,13.7-0.4,20.6-1.6c39.8-6.8,118.6-47.7,118.6-47.7S235.9,150.2,227.6,143.6z"/>
	<path fill="#E62359" d="M32.5,206.1c0,0,0-0.1,0-0.1C32.5,206.1,32.5,206.1,32.5,206.1z"/>
	<path fill="#E62359" d="M91,217.3C90.9,217.3,90.9,217.3,91,217.3c-0.2,0-0.2,0-0.3,0C90.8,217.3,91,217.3,91,217.3z"/>
	<path fill="#D83F59" d="M32.5,206c0,0,0,0.1,0,0.1c0,0,0.1,0.1,0.1,0.2c0.2,0.4,0.6,0.9,1.5,1.5c3.5,2.4,13.5,4.4,24.2,5.9
		c14.7,2.1,30.5,3.4,32.4,3.5c0.1,0,0.1,0,0.2,0C56,206.5,32.3,202.9,32.5,206z"/>
	<path fill="#EB6372" d="M232.1,154.8C134.4,111,83.9,176.3,65.3,210.1c7.6,1.9,16.1,4.2,25.6,7.2c6.7,0,13.7-0.4,20.6-1.6
		c39.8-6.8,118.6-47.7,118.6-47.7S232.3,161.4,232.1,154.8z"/>
	<path fill="#F08890" d="M60.8,484.9l-60.3-135c0,0,133.2-254.3,231.4-189.9c0,0,10.6,19.4-1.1,44.2
		C219.1,229,60.8,484.9,60.8,484.9z"/>
	<path fill="#F4AFB2" d="M135.7,363.1c-156,56.3-15.3-175.9-15.3-175.9l0,0c-64.2,57.4-120,162.7-120,162.7l60.3,135
		C60.8,484.9,96.8,426.7,135.7,363.1z"/>
	<path fill="#F8D2D1" d="M369.9,30.1c-11.9,5-26.4,14.8-41.3,26.6c0,0,38.5,31.8,48.4,41.2c7.6,7.2,33.8,39.7,45.1,53.9
		c3.9-2.5,7.6-4.9,10.8-6.9C417.5,75.5,384.8,42.1,369.9,30.1z"/>
	<path fill="#F08890" d="M349.3,41.5c-45.6,30.1-106.5,95.2-106.5,95.2l1.5,6.1c4.9-6.1,37.4-44.5,74.3-25.8
		c28.4,14.3,37,51.2,32.7,78.1c9.4-2.2,17.9-5.6,24.3-10.6c16.2-12.8,35.9-25.9,50.7-35.5C419.6,122.5,400.7,73.7,349.3,41.5z"/>
	<path fill="#EB6372" d="M233,135.9c1.6,14.6,7.8,56.7,25.5,42.6c-0.3-23.3-15.6-41.9-15.6-41.9C237,135.2,235.6,134.7,233,135.9z"
		/>
	<path fill="#EEA1C6" d="M250.4,153.2c2.4,7,4.5,14-0.3,15.3c-5.1,1.5-8-5.2-10.4-12.1c-2.4-7-4.8-14.5-0.4-14.9
		C242,141.1,248,146.2,250.4,153.2z"/>
</g>
</svg>
