<?xml version="1.0" encoding="utf-8"?>
<!-- Generator: Adobe Illustrator 21.1.0, SVG Export Plug-In . SVG Version: 6.00 Build 0)  -->
<svg version="1.1" baseProfile="tiny" id="Слой_1"
	 xmlns="http://www.w3.org/2000/svg" xmlns:xlink="http://www.w3.org/1999/xlink" x="0px" y="0px" viewBox="0 0 512 512"
	 overflow="scroll" xml:space="preserve">
<g>
	<g id="XMLID_97_">
		<g id="XMLID_360_">
			<ellipse id="XMLID_361_" fill="#FFD21F" cx="256.5" cy="256.4" rx="228.6" ry="223.6"/>
		</g>
		<g>
			<ellipse id="XMLID_60_" fill="#FECE00" cx="257.4" cy="255.7" rx="228.6" ry="223.6"/>
			<path id="XMLID_59_" fill="#403408" d="M486.6,255.7c0,29.7-5.7,59.3-16.9,87c-1.4,3.4-3,6.8-4.4,10.3c-1.6,3.4-3.3,6.7-4.9,10
				l-5.4,9.8l-5.9,9.5c-8.2,12.5-17.6,24.3-28.2,35c-10.6,10.7-22.2,20.5-34.8,28.8l-4.8,3.1c-1.6,1-3.2,2.1-4.8,3l-4.9,2.9
				l-2.5,1.4c-0.8,0.5-1.7,0.9-2.5,1.3c-6.7,3.5-13.5,6.8-20.5,9.6c-28,11.4-58.4,17.1-88.6,16.7c-15.1-0.2-30.2-1.9-44.9-5
				c-14.7-3.1-29.2-7.7-43-13.6c-13.8-5.9-27.1-13-39.5-21.4c-12.4-8.3-24.1-17.8-34.7-28.2c-21.4-20.9-38.7-45.8-50.7-73.2
				c-1.4-3.5-2.9-6.9-4.2-10.4c-1.2-3.5-2.6-7-3.7-10.6c-1.1-3.6-2.2-7.1-3.2-10.7c-0.9-3.6-1.9-7.2-2.7-10.9
				c-3.2-14.6-5-29.6-5.3-44.6c-0.5-30,5-60.3,16.6-88.3c11.5-28,29-53.5,50.6-74.7c10.8-10.6,22.7-20.2,35.4-28.5
				c12.7-8.3,26.2-15.4,40.3-21.2c14.1-5.8,28.7-10.1,43.7-12.9c14.9-2.9,30.1-4.4,45.3-4.3c15.2,0.1,30.4,1.6,45.3,4.6
				c14.9,2.9,29.5,7.3,43.5,13.2c7,2.9,13.9,6.2,20.5,9.7c0.8,0.4,1.7,0.9,2.5,1.3l2.4,1.4l4.9,2.9c1.6,0.9,3.2,2,4.8,3l4.7,3.1
				c12.6,8.4,24.1,18.2,34.7,29c10.5,10.8,20,22.5,28.2,35.1l5.9,9.6l5.4,9.8c1.6,3.4,3.3,6.7,4.9,10.1c1.5,3.4,3,6.8,4.4,10.3
				C481,196.3,486.6,226,486.6,255.7z M485.4,255.7c0-29.5-6.4-59-18.6-85.8c-12.1-26.8-30-50.7-51.4-70.4
				C404.7,89.7,393,81,380.7,73.4l-4.7-2.8c-1.5-0.9-3.1-1.9-4.7-2.7l-4.8-2.6l-2.4-1.3c-0.8-0.4-1.6-0.8-2.4-1.2
				c-6.5-3.2-13.1-6.2-19.8-8.8c-13.5-5.2-27.4-9.2-41.5-11.8c-14.2-2.6-28.6-3.9-43-3.8c-14.4,0.1-28.8,1.4-42.9,4.1
				c-14.1,2.7-28,6.8-41.4,12c-26.8,10.6-51.5,26.3-72.5,46.2c-20.9,19.9-37.9,43.9-49.7,70.4c-5.9,13.2-10.5,27.1-13.6,41.2
				c-3.2,14.2-4.9,28.7-5.2,43.3c-0.5,29.2,4.9,58.6,16.3,85.6c5.6,13.5,12.8,26.5,21.1,38.6c8.3,12.1,18,23.3,28.6,33.4
				c10.6,10.1,22.3,19.1,34.7,26.9c12.4,7.7,25.6,14.3,39.3,19.4c27.3,10.3,56.5,15.1,85.4,14.8c58-0.6,115.2-22.9,158.1-62.4
				c21.4-19.7,39.3-43.6,51.4-70.4C479.1,314.7,485.4,285.2,485.4,255.7z"/>
		</g>
		<path fill="#EAB51F" d="M353.4,452.9c-27.4,14.6-70.2,22.8-109.5,21.3c-76.7-3-158.8-45.1-194.1-129.1C6.1,241,54,165,61,151.4
			c0,0-18.9,123.1,81.9,223.1C258.5,489.2,353.4,452.9,353.4,452.9z"/>
		<g id="XMLID_55_">
			<path id="XMLID_57_" fill="#403408" d="M152.5,265.6L152.5,265.6c-9.1,0-16.6-7.3-16.6-16.2v-39c0-8.9,7.5-16.2,16.6-16.2l0,0
				c9.1,0,16.6,7.3,16.6,16.2v39C169.1,258.3,161.6,265.6,152.5,265.6z"/>
			<path id="XMLID_56_" fill="#403408" d="M360.6,265.6L360.6,265.6c-9.1,0-16.6-7.3-16.6-16.2v-39c0-8.9,7.5-16.2,16.6-16.2l0,0
				c9.1,0,16.6,7.3,16.6,16.2v39C377.2,258.3,369.7,265.6,360.6,265.6z"/>
		</g>
		<g id="XMLID_53_">
			<path fill="#403408" d="M143.5,158.9c-9.5,0-17.4-3.1-17.5-3.1c-1.2-0.5-1.8-1.9-1.3-3.1c0.5-1.2,1.9-1.8,3.1-1.3
				c1.3,0.5,30.7,11.9,41.3-14.2c0.5-1.2,1.9-1.8,3.1-1.3c1.2,0.5,1.8,1.9,1.3,3.1C167,155.1,154.2,158.9,143.5,158.9z"/>
		</g>
		<g id="XMLID_58_">
			<path fill="#403408" d="M366.4,158.9c-10.7,0-23.4-3.8-30-19.9c-0.5-1.2,0.1-2.6,1.3-3.1c1.2-0.5,2.6,0.1,3.1,1.3
				c10.6,26.2,40.1,14.7,41.3,14.2c1.2-0.5,2.6,0.1,3.1,1.3c0.5,1.2-0.1,2.6-1.3,3.1C383.8,155.8,375.9,158.9,366.4,158.9z"/>
		</g>
	</g>
	<path id="XMLID_54_" fill="#403408" d="M332.2,391.1c3.8,3.8,10.5,0.3,9-4.8c0,0,0-0.1,0-0.1c-7.1-23.3-31-82-90.3-82
		c-59.2,0-83.6,59.1-91,82.6c0,0,0,0.1,0,0.1c-1.5,5.1,5.3,8.7,9,4.8c12-12.3,47.4-32,81.7-32C284.9,359.6,320.3,378.9,332.2,391.1z
		"/>
</g>
</svg>
