<?xml version="1.0" encoding="utf-8"?>
<!-- Generator: Adobe Illustrator 21.1.0, SVG Export Plug-In . SVG Version: 6.00 Build 0)  -->
<svg version="1.1" baseProfile="tiny" id="Слой_1"
	 xmlns="http://www.w3.org/2000/svg" xmlns:xlink="http://www.w3.org/1999/xlink" x="0px" y="0px" viewBox="0 0 512 512"
	 overflow="scroll" xml:space="preserve">
<g>
	<g>
		<path id="XMLID_72_" fill="#DD264C" d="M265.9,4c-8.7,2.6-15.2,9.2-18,17.1l0,0c-6.8-5.1-15.8-7-24.5-4.4
			c-14.6,4.4-22.9,19.8-18.5,34.4c6.5,21.7,63.7,43.2,65.2,43.8l0,0c0,0,37.1-49.6,30.2-72.4C295.9,7.9,280.5-0.4,265.9,4z"/>
	</g>
	<path fill="#BB1637" d="M265.9,4c-4,1.2-7.6,3.3-10.5,5.9c8.2,5.2,14.7,13.2,17.7,23.3c6.5,21.6-5.3,44.3-26.5,51.5
		c12.4,6.1,22.8,10,23.4,10.2l0,0c0,0,37.1-49.6,30.2-72.4C295.9,7.9,280.5-0.4,265.9,4z"/>
	
		<ellipse transform="matrix(0.1758 -0.9844 0.9844 0.1758 144.9098 252.9306)" fill="#E37692" cx="223.5" cy="39.9" rx="17.1" ry="12.9"/>
	
		<ellipse transform="matrix(0.4737 -0.8807 0.8807 0.4737 66.4483 235.7227)" fill="#E37692" cx="230.4" cy="62.3" rx="4" ry="3.7"/>
	<path fill="#B3F8FF" d="M379.9,494.5c1.2,1.2,2.7,2.3,4.5,3.3c12.1,6.1,38,5.3,66.1-2.8c28.2-8.2,50.4-21.4,57.4-33
		c1.1-1.8,1.8-3.5,2.1-5.2c0.3-1.6,0.3-3.1-0.2-4.5l2.4,8.4c3.8,13-22.8,32.1-59.3,42.7c-36.5,10.6-69.2,8.7-72.9-4.3l-2.5-8.4
		C378,492,378.8,493.3,379.9,494.5z"/>
	<path fill="#8BBDC9" d="M436.9,447.8c36.5-10.6,69.2-8.7,72.9,4.3c0.4,1.4,0.5,3,0.2,4.5c-0.3,1.7-1,3.4-2.1,5.2
		c-7,11.6-29.2,24.9-57.4,33c-28.2,8.2-54,8.9-66.1,2.8c-1.8-0.9-3.4-2-4.5-3.3c-1.1-1.2-1.9-2.5-2.3-3.9
		C373.8,477.6,400.4,458.4,436.9,447.8z"/>
	<path fill="#79A7B5" d="M399.5,463.5c-4.4,4.7-6.4,9.2-5.2,13.2c0.4,1.3,1.1,2.4,2,3.5c1,1.1,2.4,2.1,4,2.9
		c10.7,5.4,33.7,4.7,58.7-2.5c24.7-7.2,44.2-18.7,50.6-28.9c0.1,0.2,0.2,0.4,0.2,0.6c0.4,1.4,0.5,3,0.2,4.5c-0.3,1.7-1,3.4-2.1,5.2
		c-7,11.6-29.2,24.9-57.4,33c-28.2,8.2-54,8.9-66.1,2.8c-1.8-0.9-3.4-2-4.5-3.3c-1.1-1.2-1.9-2.5-2.3-3.9
		C375.3,482.7,384.1,472.6,399.5,463.5z"/>
	<path fill="#96D2DB" d="M413.6,475.3c-4.2-14.6,21.1-16.3,13.1-43.9L398,332.5c-4-13.8-10.7-26.6-20-36.9c-3.6-4-7.5-7.6-11.3-9.5
		l22.1-6.4l0.7-0.2l22.1-6.4c-2.1,3.6-3.5,8.7-4.4,14.1c-2.3,13.7-1.1,28.1,2.9,41.9l28.7,98.9c8,27.5,30.3,15.4,34.6,30
		c2.2,7.7-9.8,14.9-26.2,20.2l0,0c-0.1,0-0.2,0.1-0.3,0.1c-0.1,0-0.2,0.1-0.3,0.1l0,0C429.9,482.7,415.8,483,413.6,475.3z"/>
	<path fill="#96D2DB" d="M270.3,141.8L414,100.1l24.6,84.8c11.5,39.7-8.8,89.9-48.4,101.4l0,0c-39.7,11.5-83.7-20.1-95.2-59.7
		L270.3,141.8z"/>
	<path fill="#DD264C" d="M295.1,198.5l7.5,25.8c5.1,17.6,17.4,33.9,33.8,44.6c16.8,11,35.1,14.5,51.6,9.7
		c16.4-4.8,30.1-17.5,38.3-35.8c8.1-17.8,9.7-38.1,4.6-55.7L420.1,150c-18.1-1.1-40.6,2.6-59.3,21.2
		C343.3,188.8,318.9,196.9,295.1,198.5z"/>
	<path fill="#B3F8FF" d="M270.4,141.9c3,10.3,37.6,9.3,77.2-2.2c39.7-11.5,69.4-29.2,66.4-39.5c-3-10.3-37.6-9.3-77.2,2.2
		C297.1,114,267.4,131.7,270.4,141.9z M289.7,126.3c12.2-7.3,29.4-14.3,48.2-19.8c20.1-5.8,39.9-9.2,54.2-9.2
		c13.6,0,17.5,2.9,17.8,4.1c0.3,1.2-1.7,6.4-15.3,14.5c-12.2,7.3-29.4,14.3-48.2,19.8c-20.1,5.8-39.9,9.2-54.2,9.2
		c-13.6,0-17.5-2.9-17.8-4.1C274,139.6,276.1,134.3,289.7,126.3z"/>
	<path fill="#96D2DB" d="M289.7,126.3c12.2-7.3,29.4-14.3,48.2-19.8c20.1-5.8,39.9-9.2,54.2-9.2c13.6,0,17.5,2.9,17.8,4.1
		c0.3,1.2-1.7,6.4-15.3,14.5c-12.2,7.3-29.4,14.3-48.2,19.8c-20.1,5.8-39.9,9.2-54.2,9.2c-13.6,0-17.5-2.9-17.8-4.1
		C274,139.6,276.1,134.3,289.7,126.3z"/>
	<path fill="#BB1637" d="M324.2,193c0.3,2.9,0.8,5.8,1.5,8.7c9.3,37.9,49.9,60.5,90.7,50.4c2-0.5,4-1.1,5.9-1.7
		c-8.4,14.2-20.3,24-34.3,28.1c-16.4,4.8-34.8,1.3-51.6-9.7c-16.3-10.7-28.6-27-33.8-44.6l-7.5-25.8
		C304.9,197.8,314.7,196.1,324.2,193z"/>
	<path fill="#C6E4E7" d="M407,187.6l-17-50.7l16-9.4l17.8,59.1c6.3,21.6,2,46.8-10.4,65.4C413.4,252,413.1,208.8,407,187.6z"/>
	<circle fill="#BB1637" cx="378.4" cy="173.5" r="4.6"/>
	<circle fill="#BB1637" cx="371.3" cy="200.6" r="4.6"/>
	<path fill="#B3DCE4" d="M432.4,441.1c0.4-0.1,3.7,10.4,0.5,20.1c-0.9,2.7,8,14.5,2.9,15.6c-5.1,1.1-15.9,2-16.8-1.7
		c-0.9-3.8,0-11.1,3.9-13.8C431,455.6,432.4,441.1,432.4,441.1z"/>
	<path fill="#B3F8FF" d="M133.4,495.2c-1.2,1.2-2.7,2.3-4.5,3.3c-12.1,6.1-38,5.3-66.1-2.8c-28.2-8.2-50.4-21.4-57.4-33
		c-1.1-1.8-1.8-3.5-2.1-5.2c-0.3-1.6-0.3-3.1,0.2-4.5L1,461.3c-3.8,13,22.8,32.1,59.3,42.7c36.5,10.6,69.2,8.7,72.9-4.3l2.5-8.4
		C135.3,492.7,134.5,494,133.4,495.2z"/>
	<path fill="#8BBDC9" d="M76.4,448.5c-36.5-10.6-69.2-8.7-72.9,4.3c-0.4,1.4-0.5,3-0.2,4.5c0.3,1.7,1,3.4,2.1,5.2
		c7,11.6,29.2,24.9,57.4,33c28.2,8.2,54,8.9,66.1,2.8c1.8-0.9,3.4-2,4.5-3.3c1.1-1.2,1.9-2.5,2.3-3.9
		C139.4,478.3,112.9,459.1,76.4,448.5z"/>
	<path fill="#79A7B5" d="M113.8,464.2c4.4,4.7,6.4,9.2,5.2,13.2c-0.4,1.3-1.1,2.4-2,3.5c-1,1.1-2.4,2.1-4,2.9
		c-10.7,5.4-33.7,4.7-58.7-2.5c-24.7-7.2-44.2-18.7-50.6-28.9c-0.1,0.2-0.2,0.4-0.2,0.6c-0.4,1.4-0.5,3-0.2,4.5
		c0.3,1.7,1,3.4,2.1,5.2c7,11.6,29.2,24.9,57.4,33c28.2,8.2,54,8.9,66.1,2.8c1.8-0.9,3.4-2,4.5-3.3c1.1-1.2,1.9-2.5,2.3-3.9
		C138,483.4,129.2,473.3,113.8,464.2z"/>
	<path fill="#96D2DB" d="M99.7,476c4.2-14.6-21.1-16.3-13.1-43.9l28.7-98.9c4-13.8,10.7-26.6,20-36.9c3.6-4,7.5-7.6,11.3-9.5
		l-22.1-6.4l-0.7-0.2l-22.1-6.4c2.1,3.6,3.5,8.7,4.4,14.1c2.3,13.7,1.1,28.1-2.9,41.9l-28.7,98.9c-8,27.5-30.3,15.4-34.6,30
		c-2.2,7.7,9.8,14.9,26.2,20.2l0,0c0.1,0,0.2,0.1,0.3,0.1c0.1,0,0.2,0.1,0.3,0.1l0,0C83.4,483.4,97.5,483.7,99.7,476z"/>
	<path fill="#96D2DB" d="M243,142.5L99.3,100.8l-24.6,84.8c-11.5,39.7,8.8,89.9,48.4,101.4l0,0c39.7,11.5,83.7-20.1,95.2-59.7
		L243,142.5z"/>
	<path fill="#DD264C" d="M218.2,199.2l-7.5,25.8c-5.1,17.6-17.4,33.9-33.8,44.6c-16.8,11-35.1,14.5-51.6,9.7
		c-16.4-4.8-30.1-17.5-38.3-35.8c-8.1-17.8-9.7-38.1-4.6-55.7l10.8-37.1c18.1-1.1,40.6,2.6,59.3,21.2
		C170,189.5,194.4,197.6,218.2,199.2z"/>
	<path fill="#B3F8FF" d="M176.5,103.2c-39.7-11.5-74.2-12.5-77.2-2.2c-3,10.3,26.7,27.9,66.4,39.5c39.7,11.5,74.2,12.5,77.2,2.2
		C245.9,132.4,216.2,114.7,176.5,103.2z M238.9,141.5c-0.3,1.1-4.2,4.1-17.8,4.1c-14.4,0-34.2-3.3-54.2-9.2
		c-18.9-5.5-36-12.5-48.2-19.8c-13.6-8.1-15.7-13.3-15.3-14.5c0.3-1.1,4.2-4.1,17.8-4.1c14.4,0,34.2,3.3,54.2,9.2
		c18.9,5.5,36,12.5,48.2,19.8C237.2,135.1,239.2,140.3,238.9,141.5z"/>
	<path fill="#96D2DB" d="M223.6,127c-12.2-7.3-29.4-14.3-48.2-19.8c-20.1-5.8-39.9-9.2-54.2-9.2c-13.6,0-17.5,2.9-17.8,4.1
		c-0.3,1.2,1.7,6.4,15.3,14.5c12.2,7.3,29.4,14.3,48.2,19.8c20.1,5.8,39.9,9.2,54.2,9.2c13.6,0,17.5-2.9,17.8-4.1
		C239.2,140.3,237.2,135.1,223.6,127z"/>
	<path fill="#BB1637" d="M189.1,193.7c-0.3,2.9-0.8,5.8-1.5,8.7c-9.3,37.9-49.9,60.5-90.7,50.4c-2-0.5-4-1.1-5.9-1.7
		c8.4,14.2,20.3,24,34.3,28.1c16.4,4.8,34.8,1.3,51.6-9.7c16.3-10.7,28.6-27,33.8-44.6l7.5-25.8
		C208.4,198.5,198.6,196.8,189.1,193.7z"/>
	<path fill="#C6E4E7" d="M163.6,199.8c4.6-10.6,16.7-46.8,16.7-46.8l18.6,2.7c0,0-15.7,43.1-21.3,56c-8.9,20.7-34.2,34.6-56,39.9
		C121.6,251.5,154.8,220.1,163.6,199.8z"/>
	<circle fill="#BB1637" cx="134.8" cy="174.2" r="4.6"/>
	<circle fill="#BB1637" cx="142" cy="201.3" r="4.6"/>
	<circle fill="#BB1637" cx="103.7" cy="204" r="4.6"/>
	<path fill="#B3DCE4" d="M80.8,441.8c-0.4-0.1-3.7,10.4-0.5,20.1c0.9,2.7-8,14.5-2.9,15.6c5.1,1.1,15.9,2,16.8-1.7
		c0.9-3.8,0-11.1-3.9-13.8C82.2,456.3,80.8,441.8,80.8,441.8z"/>
</g>
<path fill="#DA9FAE" d="M407,187.6L395,152c4.5-0.9,12-2.2,17.7-2.2l11.1,36.8c6.3,21.6,2,46.8-10.4,65.4
	C413.4,252,413.1,208.8,407,187.6z"/>
<path fill="#DA9FAE" d="M163.6,199.8c3.9-9.4,5.6-14.9,5.6-14.9s9.3,6.1,15.9,7.5c0,0-2,6.4-7.6,19.2c-8.9,20.7-34.2,34.6-56,39.9
	C121.6,251.5,155.2,220.3,163.6,199.8z"/>
</svg>
