<?xml version="1.0" encoding="iso-8859-1"?>
<!-- Generator: Adobe Illustrator 21.1.0, SVG Export Plug-In . SVG Version: 6.00 Build 0)  -->
<svg version="1.1" baseProfile="tiny" id="Layer_1" xmlns="http://www.w3.org/2000/svg" xmlns:xlink="http://www.w3.org/1999/xlink"
	 x="0px" y="0px" viewBox="-49 141 512 512" overflow="scroll" xml:space="preserve" fill="#000000" stroke="#000000" stroke-width="0" stroke-opacity="1.0" fill-opacity="1.0">

<defs>
  <linearGradient id="retain_FFF064">
    <stop offset="0" stop-color="#FFF064" stop-opacity="1"/>
    <stop offset="1" stop-color="#FFF064" stop-opacity="1"/>
  </linearGradient> 
  <linearGradient id="retain_4B4B4B">
    <stop offset="0" stop-color="#4B4B4B" stop-opacity="1"/>
    <stop offset="1" stop-color="#4B4B4B" stop-opacity="1"/>
  </linearGradient> 
</defs>

<circle fill="url(#retain_FFF064)" cx="207" cy="397" r="256"/>
<path fill="url(#retain_4B4B4B)" d="M200.7,277.57c-0.08,0.07-0.16,0.15-0.24,0.23c-1.2,1.22-2.19,2.77-3.09,4.33
	c-0.47,0.11-0.91,0.28-1.31,0.55c-0.95,0.66-1.83,1.4-2.7,2.14c-0.27-0.04-0.54-0.11-0.81-0.19c-0.12-0.03-0.21-0.07-0.32-0.1
	c-1.07-0.39-2-1.05-2.71-1.91c0,0-0.02-0.01-0.02-0.02l-0.85-1.31l-6.08-9.31c-1.9-2.92-1.08-6.85,1.84-8.75
	c2.92-1.9,6.85-1.08,8.76,1.83l6.08,9.33c0.01,0,0.01,0.01,0.02,0.02l0.83,1.28c0.05,0.08,0.08,0.16,0.12,0.24
	c0.04,0.1,0.09,0.21,0.13,0.32c0.05,0.12,0.09,0.24,0.13,0.37C200.58,276.93,200.65,277.25,200.7,277.57z"/>
<polygon fill="url(#retain_4B4B4B)" points="207.598,186.598 198.517,191.372 200.251,181.259 192.904,174.098 203.057,172.622 207.598,163.421 
	212.139,172.622 222.293,174.098 214.946,181.259 216.68,191.372 "/>
<polygon fill="url(#retain_4B4B4B)" points="141.624,196.857 134.462,204.205 132.987,194.051 123.786,189.51 132.987,184.969 134.462,174.815 
	141.624,182.163 151.737,180.428 146.962,189.51 151.737,198.592 "/>
<polygon fill="url(#retain_4B4B4B)" points="82.049,227.002 77.508,236.203 72.967,227.002 62.814,225.527 70.161,218.365 68.427,208.252 
	77.508,213.027 86.59,208.252 84.856,218.365 92.203,225.527 "/>
<polygon fill="url(#retain_4B4B4B)" points="34.705,274.081 33.23,284.235 26.068,276.888 15.955,278.622 20.73,269.54 15.955,260.458 
	26.068,262.193 33.23,254.846 34.705,264.999 43.906,269.54 "/>
<polygon fill="url(#retain_4B4B4B)" points="4.227,333.486 5.962,343.599 -3.12,338.824 -12.202,343.599 -10.468,333.486 -17.815,326.324 
	-7.661,324.849 -3.12,315.648 1.421,324.849 11.574,326.324 "/>
<polygon fill="url(#retain_4B4B4B)" points="-6.402,399.402 -1.628,408.483 -11.741,406.749 -18.902,414.096 -20.378,403.943 -29.579,399.402 
	-20.378,394.861 -18.902,384.707 -11.741,392.054 -1.628,390.32 "/>
<polygon fill="url(#retain_4B4B4B)" points="3.857,465.376 11.205,472.538 1.051,474.013 -3.49,483.214 -8.031,474.013 -18.185,472.538 
	-10.837,465.376 -12.572,455.263 -3.49,460.038 5.592,455.263 "/>
<polygon fill="url(#retain_4B4B4B)" points="34.002,524.951 43.203,529.492 34.002,534.033 32.527,544.186 25.365,536.839 15.252,538.573 
	20.027,529.492 15.252,520.41 25.365,522.144 32.527,514.797 "/>
<polygon fill="url(#retain_4B4B4B)" points="81.081,572.294 91.235,573.77 83.888,580.932 85.622,591.044 76.54,586.27 67.458,591.044 
	69.193,580.932 61.846,573.77 71.999,572.294 76.54,563.094 "/>
<polygon fill="url(#retain_4B4B4B)" points="140.486,602.773 150.599,601.038 145.824,610.12 150.599,619.202 140.486,617.468 133.324,624.815 
	131.849,614.661 122.648,610.12 131.849,605.579 133.324,595.426 "/>
<polygon fill="url(#retain_4B4B4B)" points="206.402,613.402 215.483,608.628 213.749,618.741 221.096,625.902 210.943,627.378 206.402,636.579 
	201.861,627.378 191.707,625.902 199.054,618.741 197.32,608.628 "/>
<polygon fill="url(#retain_4B4B4B)" points="272.376,603.143 279.538,595.795 281.013,605.949 290.214,610.49 281.013,615.031 279.538,625.185 
	272.376,617.837 262.263,619.572 267.038,610.49 262.263,601.408 "/>
<polygon fill="url(#retain_4B4B4B)" points="331.951,572.998 336.492,563.797 341.033,572.998 351.186,574.473 343.839,581.635 345.573,591.748 
	336.492,586.973 327.41,591.748 329.144,581.635 321.797,574.473 "/>
<polygon fill="url(#retain_4B4B4B)" points="379.295,525.919 380.77,515.765 387.932,523.112 398.045,521.378 393.27,530.46 398.045,539.542 
	387.932,537.807 380.77,545.154 379.295,535.001 370.094,530.46 "/>
<polygon fill="url(#retain_4B4B4B)" points="409.773,466.514 408.038,456.401 417.12,461.176 426.202,456.401 424.468,466.514 431.815,473.676 
	421.661,475.151 417.12,484.352 412.579,475.151 402.426,473.676 "/>
<polygon fill="url(#retain_4B4B4B)" points="420.402,400.598 415.628,391.517 425.741,393.251 432.902,385.904 434.378,396.057 443.579,400.598 
	434.378,405.139 432.902,415.293 425.741,407.946 415.628,409.68 "/>
<polygon fill="url(#retain_4B4B4B)" points="410.143,334.624 402.795,327.462 412.949,325.987 417.49,316.786 422.031,325.987 432.185,327.462 
	424.837,334.624 426.572,344.737 417.49,339.962 408.408,344.737 "/>
<polygon fill="url(#retain_4B4B4B)" points="379.998,275.049 370.797,270.508 379.998,265.967 381.473,255.814 388.635,263.161 398.748,261.427 
	393.973,270.508 398.748,279.59 388.635,277.856 381.473,285.203 "/>
<polygon fill="url(#retain_4B4B4B)" points="332.919,227.705 322.765,226.23 330.112,219.068 328.378,208.955 337.46,213.73 346.542,208.955 
	344.807,219.068 352.154,226.23 342.001,227.705 337.46,236.906 "/>
<polygon fill="url(#retain_4B4B4B)" points="273.514,197.227 263.401,198.962 268.176,189.88 263.401,180.798 273.514,182.532 280.676,175.185 
	282.151,185.339 291.352,189.88 282.151,194.421 280.676,204.574 "/>
<path fill="url(#retain_4B4B4B)" d="M200.78,278.53c0,0.59-0.08,1.15-0.24,1.69c0,0.01-0.01,0.02-0.01,0.03c-0.1,0.29-0.19,0.58-0.3,0.86
	c-0.04,0.1-0.09,0.19-0.13,0.28c-1.04,2.09-3.21,3.52-5.71,3.52c-0.08,0-0.16,0-0.25-0.01c-0.26-0.01-0.52-0.04-0.78-0.08
	c-0.27-0.04-0.54-0.11-0.81-0.19c-0.12-0.03-0.21-0.07-0.32-0.1c-1.07-0.39-2-1.05-2.71-1.91c0,0-0.02-0.01-0.02-0.02
	c-0.34-0.4-0.62-0.84-0.85-1.31c-0.4-0.84-0.63-1.78-0.63-2.76c0-0.57,0.06-1.12,0.21-1.65c0.03-0.09,0.05-0.19,0.09-0.29
	c0-0.02,0.01-0.05,0.03-0.07c0.06-0.16,0.13-0.33,0.18-0.5c0.01-0.05,0.03-0.09,0.05-0.13c0.14-0.29,0.29-0.56,0.47-0.82
	c0.08-0.12,0.16-0.24,0.24-0.35c1.14-1.56,3.01-2.58,5.1-2.58c0.63,0,1.22,0.09,1.81,0.26c0.16,0.05,0.34,0.1,0.49,0.17
	c0.06,0.02,0.12,0.05,0.18,0.07c0.92,0.4,1.74,1,2.38,1.75c0.01,0,0.01,0.01,0.02,0.02c0.33,0.39,0.61,0.81,0.83,1.28
	c0.05,0.08,0.08,0.16,0.12,0.24c0.04,0.1,0.09,0.21,0.13,0.32c0.05,0.12,0.09,0.24,0.13,0.37c0.1,0.31,0.17,0.63,0.22,0.95
	S200.78,278.21,200.78,278.53z"/>
<path fill="url(#retain_4B4B4B)" d="M337.23,485.74c0,0-112.35-172.19-112.36-172.19c-0.06-0.06-0.11-0.13-0.18-0.19
	c-0.61-0.67-1.37-1.2-2.22-1.57c-0.06-0.02-0.12-0.05-0.18-0.07c-0.15-0.07-0.33-0.12-0.49-0.17c-0.24-0.07-0.48-0.13-0.73-0.17
	c-0.35-0.06-0.72-0.1-1.09-0.1c-2.1,0-3.98,1.03-5.13,2.6c-0.08,0.11-0.16,0.23-0.24,0.35c-0.18,0.26-0.33,0.53-0.47,0.82
	c-0.02,0.04-0.04,0.09-0.05,0.14c-0.05,0.17-0.12,0.34-0.18,0.5c-0.02,0.02-0.03,0.05-0.03,0.07c-0.04,0.1-0.06,0.2-0.09,0.29
	c-0.13,0.46-0.19,0.94-0.2,1.43c-0.01,0.08-0.01,0.15-0.01,0.23c0,0.93,0.21,1.83,0.57,2.63c0.02,0.05,0.04,0.09,0.06,0.14
	c0.23,0.48,0.88,1.34,0.88,1.34c0.03,0.03,105.35,161.33,105.35,161.33H246.9l-34.76-111.73l-0.06-0.17l-0.11-0.15
	c-1.05-1.33-2.55-2.17-4.22-2.37c-1.68-0.2-3.33,0.27-4.66,1.31c-0.37,0.29-0.71,0.63-1.06,1.08l-0.12,0.14l-35.45,111.89H93.55
	l113.44-173.76l7.56-11.57l16.86-25.84c0.93-1.41,1.25-3.1,0.9-4.76c-0.35-1.65-1.32-3.07-2.73-3.99c-2.92-1.91-6.85-1.08-8.76,1.83
	L207,286.42l-7.56,11.4L76.58,486.02c-1.28,1.95-1.38,4.43-0.27,6.47c1.1,2.04,3.23,3.32,5.56,3.32h94.88l3.48-11.36l0.38-1.3h-0.01
	l26.39-86.47l26.4,86.47h-0.01l3.87,12.66h94.88c3.49,0,6.33-2.84,6.33-6.33C338.46,488.12,338.04,486.83,337.23,485.74z"/>
</svg>
