<?xml version="1.0" encoding="utf-8"?>
<!-- Generator: Adobe Illustrator 21.1.0, SVG Export Plug-In . SVG Version: 6.00 Build 0)  -->
<svg version="1.1" baseProfile="tiny" id="Слой_1"
	 xmlns="http://www.w3.org/2000/svg" xmlns:xlink="http://www.w3.org/1999/xlink" x="0px" y="0px" viewBox="0 0 512 512"
	 overflow="scroll" xml:space="preserve">
<g>
	<g id="XMLID_87_">
		<g>
			<ellipse id="XMLID_124_" fill="#FECE00" cx="257.1" cy="256" rx="228.6" ry="223.6"/>
			<path id="XMLID_33_" fill="#403408" d="M486.2,256c0,29.7-5.7,59.3-16.9,87c-1.4,3.4-3,6.8-4.4,10.3c-1.6,3.4-3.3,6.7-4.9,10
				l-5.4,9.8l-5.9,9.5c-8.2,12.5-17.6,24.3-28.2,35c-10.6,10.7-22.2,20.5-34.8,28.8l-4.8,3.1c-1.6,1-3.2,2.1-4.8,3l-4.9,2.9
				l-2.5,1.4c-0.8,0.5-1.7,0.9-2.5,1.3c-6.7,3.5-13.5,6.8-20.5,9.6c-28,11.4-58.4,17.1-88.6,16.7c-15.1-0.2-30.2-1.9-44.9-5
				c-14.7-3.1-29.2-7.7-43-13.6c-13.8-5.9-27.1-13-39.5-21.4c-12.4-8.3-24.1-17.8-34.7-28.2c-21.4-20.9-38.7-45.8-50.7-73.2
				c-1.4-3.5-2.9-6.9-4.2-10.4c-1.2-3.5-2.6-7-3.7-10.6c-1.1-3.6-2.2-7.1-3.2-10.7c-0.9-3.6-1.9-7.2-2.7-10.9
				c-3.2-14.6-5-29.6-5.3-44.6c-0.5-30,5-60.3,16.6-88.3c11.5-28,29-53.5,50.6-74.7c10.8-10.6,22.7-20.2,35.4-28.5
				c12.7-8.3,26.2-15.4,40.3-21.2c14.1-5.8,28.7-10.1,43.7-12.9c14.9-2.9,30.1-4.4,45.3-4.3c15.2,0.1,30.4,1.6,45.3,4.6
				c14.9,2.9,29.5,7.3,43.5,13.2c7,2.9,13.9,6.2,20.5,9.7c0.8,0.4,1.7,0.9,2.5,1.3l2.4,1.4l4.9,2.9c1.6,0.9,3.2,2,4.8,3l4.7,3.1
				c12.6,8.4,24.1,18.2,34.7,29c10.5,10.8,20,22.5,28.2,35.1l5.9,9.6l5.4,9.8c1.6,3.4,3.3,6.7,4.9,10.1c1.5,3.4,3,6.8,4.4,10.3
				C480.6,196.6,486.3,226.3,486.2,256z M485.1,256c0-29.5-6.4-59-18.6-85.8c-12.1-26.8-30-50.7-51.4-70.4
				c-10.7-9.8-22.4-18.5-34.7-26.2l-4.7-2.8c-1.5-0.9-3.1-1.9-4.7-2.7l-4.8-2.6l-2.4-1.3c-0.8-0.4-1.6-0.8-2.4-1.2
				c-6.5-3.2-13.1-6.2-19.8-8.8c-13.5-5.2-27.4-9.2-41.5-11.8c-14.2-2.6-28.6-3.9-43-3.8c-14.4,0.1-28.8,1.4-42.9,4.1
				c-14.1,2.7-28,6.8-41.4,12c-26.8,10.6-51.5,26.3-72.5,46.2C79.3,121,62.3,145,50.6,171.5c-5.9,13.2-10.5,27.1-13.6,41.2
				c-3.2,14.2-4.9,28.7-5.2,43.3c-0.5,29.2,4.9,58.6,16.3,85.6c5.6,13.5,12.8,26.5,21.1,38.6c8.3,12.1,18,23.3,28.6,33.4
				c10.6,10.1,22.3,19.1,34.7,26.9c12.4,7.7,25.6,14.3,39.3,19.4c27.3,10.3,56.5,15.1,85.4,14.8c58-0.6,115.2-22.9,158.1-62.4
				c21.4-19.7,39.3-43.6,51.4-70.4C478.8,315.1,485.1,285.5,485.1,256z"/>
		</g>
		<path fill="#EAB51F" d="M353.1,453.2c-27.4,14.6-70.2,22.8-109.4,21.3c-76.7-3-158.8-45.1-194.1-129.1
			C5.8,241.3,53.7,165.3,60.7,151.7c0,0-7.4,47.8,11.5,108c5.5,17.6,13.2,36.2,24,55c11.6,20.2,26.7,40.6,46.4,60.1
			C256.8,488.1,350.8,454.1,353.1,453.2z"/>
		<g id="XMLID_323_">
			<path id="XMLID_31_" fill="#403408" d="M153.5,258.1L153.5,258.1c-9.1,0-16.6-7.3-16.6-16.2v-39c0-8.9,7.5-16.2,16.6-16.2l0,0
				c9.1,0,16.6,7.3,16.6,16.2v39C170.1,250.8,162.6,258.1,153.5,258.1z"/>
			<path id="XMLID_19_" fill="#403408" d="M361.6,258.1L361.6,258.1c-9.1,0-16.6-7.3-16.6-16.2v-39c0-8.9,7.5-16.2,16.6-16.2l0,0
				c9.1,0,16.6,7.3,16.6,16.2v39C378.2,250.8,370.8,258.1,361.6,258.1z"/>
		</g>
		<path fill="#403408" d="M257.2,335.1c-66.9,0-84.6-36.1-85.3-37.6c-1-2.1-0.1-4.6,2-5.6c2.1-1,4.6-0.1,5.6,2
			c0.6,1.3,16.6,32.8,77.8,32.8c61.6,0,78.4-32.8,78.5-33.1c1-2.1,3.5-2.9,5.6-1.9c2.1,1,2.9,3.5,1.9,5.6
			C342.5,298.8,324,335.1,257.2,335.1z"/>
		<path id="XMLID_148_" fill="#F7984B" d="M129.4,282.2c0,18-14.9,32.5-33.3,32.5c-18.4,0-33.3-14.6-33.3-32.5
			c0-18,14.9-32.5,33.3-32.5C114.5,249.6,129.4,264.2,129.4,282.2z"/>
		<ellipse id="XMLID_104_" fill="#F7984B" cx="416.3" cy="282.2" rx="33.3" ry="32.5"/>
	</g>
	<path fill="#EF8E5A" d="M96.2,314.8c-18.4,0-33.3-14.6-33.3-32.5c0-8.7,3.5-16.6,9.2-22.5C77.7,277.3,85.4,295.9,96.2,314.8z"/>
</g>
</svg>
