<?xml version="1.0" encoding="utf-8"?>
<!-- Generator: Adobe Illustrator 21.1.0, SVG Export Plug-In . SVG Version: 6.00 Build 0)  -->
<svg version="1.1" id="Слой_1" xmlns="http://www.w3.org/2000/svg" xmlns:xlink="http://www.w3.org/1999/xlink" x="0px" y="0px"
	 viewBox="0 0 512 512" style="enable-background:new 0 0 512 512;" xml:space="preserve">
<style type="text/css">
	.st0{fill:#E5353E;}
	.st1{fill:#EA4344;}
	.st2{fill:#FFBC00;}
	.st3{enable-background:new    ;}
	.st4{fill:#FECE00;}
</style>
<g>
	<path class="st0" d="M403.3,8.7h-16c30.8,0,56,25.2,56,56v383.9c0,30.8-25.2,56-56,56h16c30.8,0,56-25.2,56-56V64.7
		C459.3,33.9,434.1,8.7,403.3,8.7z"/>
	<path class="st1" d="M115.2,0.7h261.2c30.8,0,56,25.2,56,56v399.9c0,30.8-25.2,56-56,56H115.2c-30.8,0-56-25.2-56-56V56.7
		C59.2,25.9,84.4,0.7,115.2,0.7L115.2,0.7z"/>
	<path class="st0" d="M246,0.5h130.2l0,0c30.8,0,56,25.2,56,56v399.9c0,30.8-25.2,56-56,56H246"/>
	<path class="st2" d="M284.2,143.7h28c-10.8-14.4-27.6-26-46.8-30.4C273,121.7,279.4,132.1,284.2,143.7 M294.2,189.3h35.2
		c-0.8-13.2-4.4-25.6-10.8-36.8h-30.8C291.4,164.1,293.4,176.5,294.2,189.3 M287.4,234.9h30.8c6.4-10.8,10-23.2,10.8-36.8h-34.8
		C293.4,211.3,291.4,223.3,287.4,234.9 M284.2,244.1c-4.8,11.2-11.2,22-18.8,30.4c19.2-4.4,36-16,46.8-30.4H284.2z M274.6,244.1H251
		v32.8C260.2,268.1,268.6,256.9,274.6,244.1 M285,198.1h-34.4v36.8h27.6C282.2,223.3,284.6,211.3,285,198.1 M278.2,152.5H251v36.8
		h34.4C284.6,176.5,282.2,164.1,278.2,152.5 M274.6,143.7c-6-12.8-14-24-23.6-32.8v32.8H274.6z M217.8,143.7h23.6v-32.8
		C232.2,119.3,223.8,130.5,217.8,143.7 M207.4,189.3h34.4v-36.8h-27.6C210.2,164.1,207.8,176.5,207.4,189.3 M214.2,234.9h27.2v-36.8
		H207C207.8,211.3,210.2,223.3,214.2,234.9 M217.8,244.1c6,12.8,14,24,23.6,32.8v-32.8L217.8,244.1L217.8,244.1z M208.2,244.1h-28
		c10.8,14.4,27.6,26,46.8,30.4C219.4,265.7,213,255.3,208.2,244.1 M198.6,198.1h-35.2c0.8,13.2,4.4,25.6,10.8,36.8H205
		C201,223.3,199,211.3,198.6,198.1 M205,152.5h-30.8c-6.4,10.8-10,23.2-10.8,36.8h35.2C199,176.5,201,164.1,205,152.5 M180.2,143.7
		h28c4.8-11.2,11.2-22,18.8-30.4C207.8,117.3,191,128.9,180.2,143.7 M154.2,193.7c0-50.8,41.2-92,92-92s92,41.2,92,92
		s-41.2,92-92,92S154.2,244.5,154.2,193.7"/>
</g>
<g class="st3">
	<path class="st4" d="M143.2,381.6c0,1.5-0.3,2.9-0.8,4.4c-0.5,1.4-1.3,2.6-2.2,3.6c-1.3,1.3-2.8,2.3-4.4,3c-1.6,0.7-3.7,1-6.1,1
		h-5.3v10.8h-8.6v-33.2h14.1c2.1,0,3.9,0.2,5.3,0.5s2.7,0.9,3.8,1.6c1.3,0.9,2.4,2,3.1,3.4S143.2,379.7,143.2,381.6z M134.4,381.8
		c0-0.9-0.3-1.7-0.8-2.4c-0.5-0.7-1.1-1.1-1.8-1.4c-0.9-0.4-1.8-0.6-2.6-0.6c-0.8,0-2-0.1-3.4-0.1h-1.5v9.9h2.5
		c1.5,0,2.7-0.1,3.6-0.3c0.9-0.2,1.7-0.5,2.4-1.1c0.5-0.5,0.9-1,1.2-1.7C134.2,383.6,134.4,382.7,134.4,381.8z"/>
	<path class="st4" d="M180,404.3h-8.8l-2.3-6.7h-12.3l-2.3,6.7h-8.6l12.3-33.2h9.9L180,404.3z M166.8,391.5l-4.1-11.9l-4.1,11.9
		H166.8z"/>
	<path class="st4" d="M211.4,393.9c0,3.3-1.4,5.9-4.2,8c-2.8,2-6.5,3.1-11.3,3.1c-2.8,0-5.2-0.2-7.2-0.7c-2-0.5-4-1.1-5.7-1.8v-8
		h0.9c1.8,1.4,3.8,2.5,5.9,3.3c2.2,0.8,4.3,1.1,6.3,1.1c0.5,0,1.2,0,2.1-0.1c0.8-0.1,1.5-0.2,2.1-0.4c0.7-0.3,1.2-0.6,1.6-1
		c0.4-0.4,0.6-1,0.6-1.8c0-0.7-0.3-1.4-0.9-1.9c-0.6-0.5-1.5-0.9-2.7-1.2c-1.2-0.3-2.6-0.6-4-0.8c-1.4-0.3-2.7-0.6-3.9-1
		c-2.8-0.9-4.8-2.1-6-3.7c-1.2-1.6-1.8-3.5-1.8-5.8c0-3.1,1.4-5.6,4.2-7.6c2.8-2,6.3-2.9,10.7-2.9c2.2,0,4.3,0.2,6.5,0.6
		c2.1,0.4,4,1,5.5,1.6v7.7h-0.9c-1.3-1.1-3-2-4.9-2.7c-1.9-0.7-3.9-1.1-5.9-1.1c-0.7,0-1.4,0-2.1,0.1c-0.7,0.1-1.4,0.3-2,0.5
		c-0.6,0.2-1.1,0.6-1.5,1s-0.6,1-0.6,1.6c0,0.9,0.3,1.6,1,2c0.7,0.5,1.9,0.9,3.8,1.3c1.2,0.3,2.4,0.5,3.5,0.7c1.1,0.2,2.3,0.6,3.6,1
		c2.5,0.8,4.4,2,5.6,3.4C210.8,389.7,211.4,391.6,211.4,393.9z"/>
	<path class="st4" d="M243.8,393.9c0,3.3-1.4,5.9-4.2,8c-2.8,2-6.5,3.1-11.3,3.1c-2.8,0-5.2-0.2-7.2-0.7c-2-0.5-4-1.1-5.7-1.8v-8
		h0.9c1.8,1.4,3.8,2.5,5.9,3.3c2.2,0.8,4.3,1.1,6.3,1.1c0.5,0,1.2,0,2.1-0.1c0.8-0.1,1.5-0.2,2.1-0.4c0.7-0.3,1.2-0.6,1.6-1
		c0.4-0.4,0.6-1,0.6-1.8c0-0.7-0.3-1.4-0.9-1.9c-0.6-0.5-1.5-0.9-2.7-1.2c-1.2-0.3-2.6-0.6-4-0.8c-1.4-0.3-2.7-0.6-3.9-1
		c-2.8-0.9-4.8-2.1-6-3.7c-1.2-1.6-1.8-3.5-1.8-5.8c0-3.1,1.4-5.6,4.2-7.6c2.8-2,6.3-2.9,10.7-2.9c2.2,0,4.3,0.2,6.5,0.6
		c2.1,0.4,4,1,5.5,1.6v7.7h-0.9c-1.3-1.1-3-2-4.9-2.7c-1.9-0.7-3.9-1.1-5.9-1.1c-0.7,0-1.4,0-2.1,0.1c-0.7,0.1-1.4,0.3-2,0.5
		c-0.6,0.2-1.1,0.6-1.5,1s-0.6,1-0.6,1.6c0,0.9,0.3,1.6,1,2c0.7,0.5,1.9,0.9,3.8,1.3c1.2,0.3,2.4,0.5,3.5,0.7c1.1,0.2,2.3,0.6,3.6,1
		c2.5,0.8,4.4,2,5.6,3.4C243.2,389.7,243.8,391.6,243.8,393.9z"/>
</g>
<g class="st3">
	<path class="st2" d="M277.1,381.6c0,1.5-0.3,2.9-0.8,4.4c-0.5,1.4-1.3,2.6-2.2,3.6c-1.3,1.3-2.8,2.3-4.4,3c-1.6,0.7-3.7,1-6.1,1
		h-5.3v10.8h-8.6v-33.2h14.1c2.1,0,3.9,0.2,5.3,0.5s2.7,0.9,3.8,1.6c1.3,0.9,2.4,2,3.1,3.4C276.8,378,277.1,379.7,277.1,381.6z
		 M268.3,381.8c0-0.9-0.3-1.7-0.8-2.4c-0.5-0.7-1.1-1.1-1.8-1.4c-0.9-0.4-1.8-0.6-2.6-0.6c-0.8,0-2-0.1-3.4-0.1h-1.5v9.9h2.5
		c1.5,0,2.7-0.1,3.6-0.3c0.9-0.2,1.7-0.5,2.4-1.1c0.5-0.5,0.9-1,1.2-1.7S268.3,382.7,268.3,381.8z"/>
	<path class="st2" d="M315.5,387.7c0,5.3-1.5,9.5-4.6,12.6s-7.2,4.7-12.6,4.7c-5.3,0-9.5-1.6-12.6-4.7s-4.6-7.3-4.6-12.6
		c0-5.3,1.5-9.6,4.6-12.7s7.2-4.7,12.6-4.7c5.3,0,9.5,1.5,12.6,4.7C314,378.2,315.5,382.4,315.5,387.7z M304.1,396.2
		c0.8-1,1.5-2.2,1.9-3.6c0.4-1.4,0.6-3,0.6-4.9c0-2-0.2-3.7-0.7-5.1s-1.1-2.5-1.8-3.4c-0.8-0.9-1.6-1.5-2.6-1.9
		c-1-0.4-2-0.6-3.1-0.6c-1.1,0-2.1,0.2-3.1,0.6s-1.8,1-2.6,1.9c-0.7,0.8-1.4,2-1.8,3.4c-0.5,1.5-0.7,3.2-0.7,5.1
		c0,2,0.2,3.7,0.7,5.1c0.5,1.4,1.1,2.5,1.8,3.4c0.7,0.9,1.6,1.5,2.6,1.9c1,0.4,2,0.6,3.1,0.6s2.1-0.2,3.1-0.6
		C302.5,397.7,303.4,397,304.1,396.2z"/>
	<path class="st2" d="M354,404.3h-10.5l-9-12.2h-4v12.2H322v-33.2h14.4c2,0,3.7,0.1,5.1,0.3c1.4,0.2,2.7,0.7,4,1.5
		c1.2,0.7,2.2,1.7,3,2.9s1.1,2.7,1.1,4.5c0,2.5-0.6,4.5-1.7,6s-2.8,2.8-4.9,3.9L354,404.3z M340.7,381.3c0-0.8-0.2-1.5-0.5-2.1
		c-0.3-0.6-0.9-1.1-1.8-1.4c-0.6-0.2-1.3-0.4-2-0.4s-1.7-0.1-2.7-0.1h-3.1v8.9h2.6c1.4,0,2.5-0.1,3.4-0.2c0.9-0.1,1.7-0.4,2.3-0.9
		c0.6-0.5,1-1,1.3-1.5C340.5,383,340.7,382.2,340.7,381.3z"/>
	<path class="st2" d="M383.8,377.5h-10.4v26.8h-8.6v-26.8h-10.4v-6.4h29.3V377.5z"/>
</g>
<path class="st4" d="M246.3,101.8C246.2,101.8,246.2,101.7,246.3,101.8c-50.9,0-92.1,41.2-92.1,92s41.2,92,92,92h0.1L246.3,101.8
	L246.3,101.8z M241.4,110.9v32.8h-23.6C223.8,130.5,232.2,119.3,241.4,110.9z M227,113.3c-7.6,8.4-14,19.2-18.8,30.4h-28
	C191,128.9,207.8,117.3,227,113.3z M174.2,152.5H205c-4,11.6-6,24-6.4,36.8h-35.2C164.2,175.7,167.8,163.3,174.2,152.5z
	 M163.4,198.1h35.2c0.4,13.2,2.4,25.2,6.4,36.8h-30.8C167.8,223.7,164.2,211.3,163.4,198.1z M180.2,244.1h28
	c4.8,11.2,11.2,21.6,18.8,30.4C207.8,270.1,191,258.5,180.2,244.1z M241.4,276.9c-9.6-8.8-17.6-20-23.6-32.8h23.6V276.9z
	 M241.4,234.9h-27.2c-4-11.6-6.4-23.6-7.2-36.8h34.4V234.9z M241.8,189.3h-34.4c0.4-12.8,2.8-25.2,6.8-36.8h27.6V189.3z"/>
</svg>
