<?xml version="1.0" encoding="utf-8"?>
<!-- Generator: Adobe Illustrator 21.1.0, SVG Export Plug-In . SVG Version: 6.00 Build 0)  -->
<svg version="1.1" baseProfile="tiny" id="Слой_1"
	 xmlns="http://www.w3.org/2000/svg" xmlns:xlink="http://www.w3.org/1999/xlink" x="0px" y="0px" viewBox="0 0 512 512"
	 overflow="scroll" xml:space="preserve">
<g>
	<polygon fill="#FFD54F" points="207.8,419.1 139,253.8 139.7,252 207.8,88.4 216.1,91.8 148.7,253.8 216.1,415.7 	"/>
	<path fill="#FFD54F" d="M235.8,469.9c-2.1-2.6-3.6-5.8-4.3-9.2c-0.7-3.3-0.6-6.8,0.3-10.1c0.8-3.2,2.2-6.3,4.2-9
		c2-2.7,4.6-5,7.4-6.7c2.8-1.7,6-2.9,9.2-3.6c1.6-0.3,3.3-0.5,5-0.6c1.7,0,3.4,0.1,5.1,0.3c3.4,0.5,6.8,1.8,9.9,3.7
		c3.1,1.9,5.8,4.5,7.8,7.5c0.5,0.7,0.9,1.5,1.4,2.3c0.4,0.8,0.7,1.5,1.1,2.3l0.5,1.2c0.2,0.4,0.3,0.8,0.4,1.2
		c0.3,0.8,0.5,1.6,0.8,2.4c0.3,1.6,0.8,3.2,0.9,4.8c0.1,0.8,0.2,1.6,0.2,2.4l0.1,2.4c0,0.8,0,1.6-0.1,2.3c-0.1,0.8-0.1,1.6-0.2,2.3
		c-0.2,1.5-0.4,3-0.7,4.5c-0.6,3-1.5,5.8-2.6,8.6c-2.3,5.6-5.5,10.8-10.2,15.5l-0.9,0.9l-0.9,0.8l-1.9,1.5c-0.7,0.5-1.3,0.9-2,1.4
		c-0.7,0.4-1.3,0.9-2,1.3l-2.1,1.2c-0.7,0.4-1.4,0.7-2.1,1c-0.7,0.3-1.4,0.7-2.1,0.9l-2.2,0.8c-0.4,0.1-0.7,0.3-1.1,0.4l-1.1,0.3
		l-2.2,0.6c-0.7,0.2-1.5,0.3-2.2,0.5c-0.7,0.1-1.5,0.3-2.2,0.4c-1.5,0.2-3,0.5-4.5,0.5l-2.2,0.2l-2.3,0c-1.5,0-3-0.1-4.5-0.2
		c-0.8,0-1.5-0.1-2.3-0.2c-0.8-0.1-1.5-0.2-2.3-0.3c-3-0.5-6-1.2-9-2.3c-1.5-0.5-3-1.2-4.5-1.8c-0.7-0.3-1.5-0.7-2.2-1.1l-1.1-0.6
		l-1.1-0.7c-2.9-1.8-5.6-4-7.9-6.4c-2.3-2.4-4.4-5-6.1-7.8c-1.7-2.8-3.1-5.6-4.3-8.6c-2.3-5.8-3.5-11.9-3.9-17.9c-0.2-3-0.2-6,0-9
		c0.1-1.5,0.3-3,0.5-4.5c0.1-0.7,0.2-1.5,0.4-2.2l0.2-1.1l0.2-1.1c1.3-5.9,3.4-11.7,6.3-17.1c1.5-2.7,3.1-5.3,4.9-7.7
		c1.8-2.5,3.9-4.8,6-6.9c4.2-4.3,8.9-7.9,13.4-10.9c2.3-1.5,4.6-2.9,6.9-4.2c2.3-1.3,4.5-2.5,6.8-3.7c4.6-2.4,9.2-4.6,13.9-6.7
		c2.4-1,4.7-2,7.1-2.9l3.6-1.4l1.8-0.7c0.6-0.2,1.2-0.4,1.9-0.7l3.5-1.2c1.1-0.4,2.1-0.7,3.1-1.1c2-0.7,3.9-1.5,5.7-2.3
		c3.7-1.6,7.3-3.5,10.7-5.6c3.4-2.1,6.6-4.4,9.7-7c0.8-0.6,1.5-1.3,2.2-2l1.1-1l1.1-1.1c0.7-0.7,1.4-1.4,2.1-2.1l2-2.2
		c0.7-0.7,1.3-1.5,1.9-2.3c0.6-0.8,1.3-1.5,1.9-2.3c1.2-1.6,2.4-3.2,3.5-4.9l1.7-2.5l1.5-2.6c1.1-1.7,2-3.6,2.9-5.4
		c3.7-7.4,6.6-15.3,8.7-23.6c2.2-8.3,3.7-16.9,4.7-25.6l0.6-6.6c0.1-1.1,0.2-2.2,0.2-3.3l0.2-3.3l0.2-3.3c0.1-1.1,0-2.2,0.1-3.4
		l0.1-6.7c-0.1-8.9-0.4-17.8-1.4-26.5c-1.1-8.7-2.7-17.2-5-25.4c-4.5-16.4-12.1-31.5-22.8-43.7c-2.6-3.1-5.6-5.9-8.6-8.6
		c-3-2.7-6.3-5.1-9.7-7.4c-3.4-2.2-6.9-4.2-10.6-6.1c-1.8-0.9-3.7-1.7-5.6-2.5c-1-0.4-1.9-0.8-2.9-1.2c-0.5-0.2-1-0.4-1.5-0.6
		l-1.6-0.6c-9.5-3.4-19-7.4-28.2-12.3c-2.3-1.2-4.5-2.4-6.8-3.7c-2.3-1.3-4.6-2.7-6.9-4.2c-4.6-3-9.2-6.6-13.5-10.9
		c-2.1-2.2-4.1-4.5-6-6.9c-1.9-2.4-3.5-5.1-5-7.7c-2.9-5.4-5.1-11.2-6.4-17.1l-0.2-1.1l-0.2-1.1c-0.1-0.7-0.3-1.5-0.4-2.2
		c-0.2-1.5-0.4-3-0.5-4.5c-0.3-3-0.2-6.1-0.1-9.1c0.4-6,1.6-12.1,3.9-17.9c1.2-2.9,2.5-5.8,4.3-8.6c1.7-2.8,3.8-5.4,6.1-7.8
		c2.3-2.4,5-4.6,7.9-6.4l1.1-0.7l1.1-0.6c0.7-0.4,1.5-0.8,2.2-1.1c1.5-0.7,3-1.3,4.5-1.8c3-1.1,6-1.8,9-2.3c0.8-0.1,1.5-0.2,2.3-0.3
		c0.8-0.1,1.5-0.2,2.3-0.2c1.5-0.1,3-0.2,4.5-0.2c6,0,12,0.9,17.9,3l2.2,0.8c0.7,0.3,1.4,0.6,2.2,0.9c0.7,0.3,1.4,0.6,2.1,1l2.1,1.2
		c0.7,0.4,1.4,0.8,2,1.3c0.7,0.5,1.3,0.9,2,1.4l1.9,1.6l0.9,0.8l0.9,0.9c4.8,4.6,8,9.9,10.3,15.5c1.1,2.8,2,5.7,2.6,8.7
		c0.3,1.5,0.5,3,0.7,4.5c0.1,0.8,0.1,1.5,0.2,2.3c0,0.8,0.1,1.5,0.1,2.3l-0.1,2.4c0,0.8-0.2,1.6-0.2,2.4c-0.1,1.6-0.6,3.2-0.9,4.8
		c-0.2,0.8-0.5,1.6-0.8,2.4c-0.1,0.4-0.3,0.8-0.4,1.2l-0.5,1.2c-0.4,0.8-0.7,1.5-1.1,2.3c-0.5,0.8-0.9,1.6-1.4,2.3
		c-2,3-4.7,5.7-7.8,7.6c-3.1,1.9-6.5,3.2-9.9,3.7c-1.7,0.3-3.4,0.4-5.1,0.4c-1.7-0.1-3.4-0.2-5-0.6c-3.3-0.6-6.4-1.8-9.3-3.6
		c-2.9-1.7-5.4-4.1-7.5-6.8c-2.1-2.7-3.5-5.9-4.3-9.1c-0.8-3.3-0.9-6.8-0.3-10.2c0.7-3.4,2.2-6.6,4.4-9.3c2.3-2.8,6.3-3.2,9.1-0.9
		c2.5,2,3.1,5.6,1.5,8.3l-0.2,0.3c-0.7,1.2-1.1,2.5-1.1,3.8c-0.1,1.3,0.1,2.7,0.7,4c1,2.7,3,4.7,5.6,5.9c2.6,1.2,5.7,1.4,8.3,0.7
		c1.3-0.3,2.4-0.9,3.2-1.6c0.9-0.7,1.5-1.6,2.1-2.6c0.2-0.2,0.2-0.5,0.4-0.8c0.1-0.3,0.2-0.6,0.3-1l0.2-0.5c0-0.2,0.1-0.3,0.1-0.5
		c0.1-0.3,0.2-0.7,0.2-1c0-0.4,0.1-0.7,0.1-1.1c0.1-0.4,0.1-0.8,0.1-1.1c0-0.4,0-0.8,0-1.2l-0.1-1.2c0-0.4-0.1-0.8-0.1-1.2
		c-0.1-0.4-0.1-0.8-0.2-1.2c-0.2-0.8-0.3-1.7-0.6-2.5c-0.5-1.7-1.2-3.3-1.9-4.9c-0.4-0.8-0.8-1.6-1.3-2.3c-0.2-0.4-0.4-0.7-0.7-1.1
		l-0.7-1c-1-1.3-2.1-2.5-3.2-3.4c-2.2-1.9-5.2-3.2-8.4-4.1c-3.2-0.9-6.8-1.2-10.3-0.9c-0.9,0-1.7,0.2-2.6,0.3
		c-0.4,0-0.9,0.1-1.3,0.2c-0.4,0.1-0.8,0.2-1.3,0.2c-1.6,0.4-3.3,0.9-4.7,1.5c-0.8,0.3-1.4,0.7-2.1,1c-0.4,0.2-0.6,0.4-0.9,0.5
		l-0.4,0.3l-0.4,0.3c-1.1,0.8-2.1,1.7-3,2.8c-0.9,1.1-1.7,2.3-2.4,3.6c-0.7,1.3-1.3,2.8-1.8,4.3c-1,3.1-1.5,6.5-1.5,10
		c0,1.7,0.1,3.5,0.3,5.2c0.1,0.9,0.3,1.7,0.4,2.6l0.3,1.3l0.1,0.6l0.2,0.6c0.9,3.3,2.3,6.5,4.1,9.4c0.9,1.4,1.9,2.8,3,4.2
		c1.1,1.3,2.2,2.6,3.5,3.8c2.6,2.4,5.6,4.6,9,6.7c1.7,1,3.5,2.1,5.4,3.1c1.9,1,3.9,2,5.9,3c3.9,1.9,7.9,3.7,12,5.3
		c2,0.8,4.1,1.6,6.2,2.3l3.1,1.1l3.2,1.1l1.8,0.6c0.6,0.2,1.2,0.4,1.9,0.6c1.3,0.4,2.5,0.9,3.8,1.4c2.5,1,5.1,2,7.5,3.1
		c5,2.2,9.8,4.9,14.4,7.8c4.6,2.9,9.1,6.1,13.3,9.7c4.2,3.5,8.2,7.3,11.9,11.4c7.5,8,13.6,17.1,18.7,26.7c5.1,9.5,9,19.5,12,29.6
		c2.9,10.1,4.9,20.4,6.2,30.6l0.8,7.7c0.2,1.3,0.2,2.6,0.3,3.8l0.2,3.8l0.2,3.8l0.1,3.8c0,2.5,0.1,5.1,0.1,7.6l-0.2,7.6
		c0,1.3,0,2.5-0.1,3.8l-0.2,3.8l-0.2,3.8c-0.1,1.3-0.1,2.5-0.3,3.8l-0.8,7.6c-1.2,10.2-3.1,20.4-5.9,30.6
		c-2.8,10.1-6.6,20.2-11.6,29.8c-1.3,2.4-2.5,4.8-4,7.1l-2.1,3.5l-2.3,3.4c-1.5,2.3-3.2,4.5-4.9,6.6c-0.8,1.1-1.8,2.1-2.7,3.2
		c-0.9,1-1.8,2.1-2.8,3.1l-2.9,3c-1,1-2,1.9-3,2.9l-1.5,1.4l-1.6,1.4c-1.1,0.9-2.1,1.8-3.2,2.7c-4.3,3.5-9,6.6-13.7,9.4
		c-4.8,2.8-9.8,5.2-14.8,7.3c-2.5,1-5.1,1.9-7.6,2.8c-1.2,0.4-2.5,0.8-3.7,1.2l-3.3,1c-0.4,0.1-1,0.3-1.5,0.5l-1.6,0.5l-3.1,1.1
		c-2.1,0.7-4.2,1.5-6.2,2.3c-4.1,1.6-8.1,3.4-12.1,5.3c-2,1-4,2-5.9,3c-1.9,1-3.7,2-5.4,3.1c-3.4,2.1-6.5,4.3-9.1,6.7
		c-1.3,1.2-2.5,2.5-3.5,3.8c-1.1,1.3-2.1,2.7-3,4.2c-1.8,2.9-3.2,6.1-4.1,9.5l-0.2,0.6l-0.1,0.6l-0.3,1.3c-0.1,0.9-0.3,1.7-0.4,2.6
		c-0.2,1.7-0.3,3.5-0.3,5.2c0.1,3.5,0.5,7,1.6,10.1c0.5,1.5,1.1,3,1.8,4.4c0.7,1.3,1.6,2.5,2.5,3.6c0.9,1.1,1.9,2,3,2.8l0.4,0.3
		l0.4,0.3c0.3,0.2,0.5,0.4,0.9,0.6c0.7,0.3,1.3,0.7,2.1,1c1.4,0.7,3.1,1.1,4.7,1.6c0.4,0.1,0.8,0.2,1.3,0.2c0.4,0.1,0.8,0.2,1.3,0.2
		c0.9,0.1,1.7,0.3,2.6,0.3c3.5,0.2,7.1-0.1,10.4-1c3.2-0.9,6.2-2.2,8.5-4.1c1.1-0.9,2.2-2.1,3.3-3.4l0.8-1c0.3-0.3,0.5-0.7,0.7-1.1
		c0.5-0.7,0.9-1.5,1.3-2.3c0.8-1.6,1.5-3.2,1.9-4.9c0.3-0.8,0.4-1.7,0.6-2.5c0.1-0.4,0.1-0.8,0.2-1.2c0.1-0.4,0.1-0.8,0.1-1.2
		l0.1-1.2c0-0.4,0-0.8,0-1.2c0-0.4,0-0.8-0.1-1.2c0-0.4-0.1-0.7-0.1-1.1c-0.1-0.3-0.2-0.7-0.2-1c0-0.2-0.1-0.4-0.1-0.5l-0.2-0.5
		c-0.1-0.3-0.2-0.7-0.3-1c-0.1-0.3-0.2-0.6-0.4-0.8c-0.6-1-1.2-1.9-2.1-2.6c-0.9-0.7-2-1.3-3.3-1.7c-2.6-0.8-5.8-0.5-8.4,0.7
		c-2.7,1.2-4.7,3.2-5.7,6c-0.5,1.3-0.7,2.7-0.7,4.1c0.1,1.4,0.5,2.7,1.2,3.9l0.2,0.3c1.7,3,0.8,6.8-2.2,8.5
		C241.1,472.9,237.7,472.2,235.8,469.9z"/>
	<path fill="#DC800B" d="M365.9,257.1l-0.2,7.6c0,1.3,0,2.5-0.1,3.8l-0.2,3.8l-0.2,3.8c-0.1,1.3-0.1,2.5-0.3,3.8l-0.8,7.6
		c-1.2,10.2-3.1,20.4-5.9,30.5c-2.8,10.1-6.6,20.2-11.6,29.8c-1.3,2.4-2.5,4.8-4,7.1l-2.1,3.5l-2.3,3.4c-1.5,2.3-3.2,4.5-4.9,6.6
		c-0.8,1.1-1.8,2.1-2.7,3.2c-0.9,1-1.8,2.1-2.8,3.1l-2.9,3c-1,1-2,1.9-3,2.9l-1.5,1.4l-1.6,1.4c-1.1,0.9-2.1,1.8-3.2,2.7
		c-4.3,3.5-9,6.6-13.7,9.4c-4.8,2.8-9.8,5.2-14.9,7.3c-2.5,1-5.1,1.9-7.6,2.8c-1.3,0.4-2.5,0.8-3.7,1.2l-3.3,1
		c-0.4,0.1-1,0.3-1.5,0.5l-1.6,0.5l-3.1,1.1c-2.1,0.7-4.1,1.5-6.2,2.3c-4.1,1.6-8.1,3.4-12.1,5.3c-2,1-4,2-5.9,3
		c-1.9,1-3.7,2-5.4,3.1c-3.4,2.1-6.5,4.3-9.1,6.7c-1.3,1.2-2.4,2.4-3.5,3.8c-1.1,1.3-2.1,2.7-3,4.2c-1.8,2.9-3.2,6.1-4.1,9.5
		l-0.2,0.6l-0.1,0.6l-0.3,1.3c-0.1,0.9-0.3,1.7-0.4,2.6c-0.2,1.7-0.3,3.5-0.3,5.2c0.1,3.6,0.5,7,1.6,10.1c0.5,1.5,1.1,3,1.8,4.4
		c0.7,1.3,1.6,2.5,2.5,3.6c0.9,1.1,1.9,2,3,2.8l0.4,0.3l0.4,0.3c0.3,0.2,0.5,0.4,0.9,0.6c0.7,0.3,1.3,0.7,2.1,1
		c1.4,0.7,3.1,1.1,4.7,1.6c0.4,0.1,0.9,0.2,1.3,0.2c0.4,0.1,0.8,0.2,1.3,0.2c0.9,0.1,1.7,0.3,2.6,0.3c3.5,0.2,7.1-0.1,10.4-1
		c3.3-0.9,6.2-2.2,8.5-4.1c1.1-0.9,2.2-2.1,3.3-3.4l0.8-1c0.3-0.3,0.5-0.7,0.7-1.1c0.5-0.7,0.9-1.5,1.3-2.3c0.8-1.6,1.5-3.2,1.9-4.9
		c0.3-0.8,0.4-1.7,0.6-2.5c0.1-0.4,0.1-0.8,0.2-1.2c0.1-0.4,0.2-0.8,0.1-1.2l0.1-1.2c0-0.4,0-0.8,0-1.2c0-0.4,0-0.8-0.1-1.2
		c-0.1-0.4-0.1-0.7-0.1-1.1c-0.1-0.3-0.2-0.7-0.2-1c0-0.2-0.1-0.4-0.1-0.5l-0.2-0.5c-0.1-0.3-0.2-0.7-0.3-1
		c-0.1-0.3-0.2-0.6-0.4-0.8c-0.6-1-1.2-1.9-2.1-2.6c-0.9-0.7-2-1.3-3.3-1.7c-2.6-0.8-5.8-0.5-8.4,0.7c-2.7,1.2-4.7,3.2-5.7,6
		c-0.5,1.3-0.7,2.7-0.7,4.1c0.1,1.4,0.5,2.7,1.2,3.9l0.2,0.3c1.8,3,0.8,6.8-2.2,8.5c-1-2.5-1.9-4.9-1.9-5c0.1-0.2,0.1-0.6-0.1-1
		l-0.2-0.3c-1.1-1.9-1.7-3.9-1.8-6.1c-0.1-2.1,0.2-4.2,1-6.1c1.5-3.9,4.4-6.9,8.3-8.7c2.3-1,4.8-1.6,7.3-1.6c1.6,0,3.1,0.2,4.5,0.6
		c1.8,0.5,3.5,1.3,5,2.5c1.3,1,2.4,2.4,3.4,4c0.3,0.4,0.4,0.8,0.5,1.1l0,0.1l0.1,0.2c0.2,0.4,0.3,0.8,0.4,1l0.1,0.2l0.2,0.6l0,0.1
		c0.1,0.3,0.1,0.6,0.2,0.8l0,0.1c0,0.2,0.1,0.4,0.1,0.6l0.2,0.7l0,0.3c0,0.3,0.1,0.6,0.1,0.8c0.1,0.7,0.1,1.3,0.1,1.7v0.1
		c0,0.1,0,0.2,0,0.2c0,0.3,0,0.7,0,1.2l-0.1,1.1c0,0.6-0.1,1.1-0.1,1.4l-0.1,0.5c0,0.1,0,0.2,0,0.2c0,0.3-0.1,0.8-0.2,1.3
		c0,0.2-0.1,0.4-0.1,0.6c-0.1,0.6-0.3,1.4-0.6,2.2c-0.6,2.1-1.4,4-2.2,5.6l-0.1,0.1l-0.1,0.1c-0.1,0.2-0.2,0.4-0.3,0.6
		c-0.3,0.6-0.7,1.3-1.2,2c-0.1,0.1-0.1,0.2-0.1,0.2c-0.2,0.3-0.4,0.6-0.7,1.1l-0.7,1l-0.1,0.2c-1.1,1.4-2.4,2.9-4,4.2
		c-2.6,2.2-6.1,3.9-10.2,5c-2.9,0.8-6,1.2-9.4,1.2c-0.8,0-1.7,0-2.5-0.1c-0.8,0-1.6-0.1-2.2-0.2c-0.2,0-0.4-0.1-0.7-0.1
		c-0.6,0-1-0.1-1.4-0.2c-0.1,0-0.7-0.1-0.8-0.2c-0.3-0.1-0.6-0.1-0.9-0.2l-0.2,0c-1.6-0.4-3.5-0.9-5.4-1.8c-0.7-0.3-1.4-0.6-1.9-0.9
		c-0.1-0.1-0.3-0.2-0.4-0.2c-0.6-0.3-1-0.6-1.2-0.7l-0.8-0.5l-0.6-0.4c-1.5-1.1-2.8-2.3-3.9-3.6c-1.1-1.3-2.1-2.8-3-4.4
		c-0.8-1.5-1.5-3.2-2.2-5.2c-1.1-3.4-1.7-7.1-1.8-11.6c0-2.2,0.1-4.1,0.3-5.9c0.1-0.8,0.2-1.4,0.3-2c0-0.2,0.1-0.5,0.1-0.7l0-0.2
		l0.5-2.2l0.2-0.7c1-3.6,2.5-7.2,4.6-10.7l0.1-0.1c1.2-1.9,2.3-3.4,3.3-4.6c1.2-1.5,2.5-2.8,4-4.3c2.8-2.6,6-5,9.8-7.3
		c1.7-1,3.6-2.1,5.7-3.2c1.7-0.9,3.7-1.9,6.1-3c4.4-2.1,8.4-3.9,12.4-5.4c2.1-0.8,4.2-1.6,6.4-2.4l3.2-1.1l1.9-0.6
		c0.5-0.2,1-0.3,1.3-0.4l3.3-1c1-0.3,2-0.6,2.9-0.9l0.6-0.2c2.8-0.9,5.1-1.8,7.4-2.7c4.8-1.9,9.6-4.3,14.2-6.9
		c4.8-2.8,9.2-5.8,13.1-9l0.1-0.1c0.6-0.5,1.3-1,2-1.6c0.4-0.3,0.7-0.6,1-0.9l1.5-1.3l1.4-1.3c0.3-0.3,0.7-0.7,1-1
		c0.7-0.6,1.3-1.2,1.8-1.8l2.9-3.1c0.6-0.6,1.1-1.2,1.7-2c0.3-0.3,0.5-0.6,0.8-0.9l0.9-1.1c0.6-0.7,1.1-1.3,1.6-1.9l1-1.3
		c1.3-1.7,2.6-3.4,3.7-5.1l2.3-3.4l2.1-3.5c1.1-1.7,2-3.4,3-5.3c0.3-0.5,0.5-1,0.8-1.5c4.5-8.8,8.3-18.5,11.2-28.8
		c2.5-9,4.4-18.8,5.7-29.8l0.8-7.7c0.1-1,0.2-2,0.2-3.1l0.2-4.3l0.2-3.8c0-0.7,0.1-1.4,0.1-2.2c0-0.5,0-0.9,0-1.4l0.2-7.5
		c0-1.6,0-3.3-0.1-4.9c0-0.9,0-1.7-0.1-2.6l-0.1-3.7l-0.2-3.7c0,0-0.3-4.5-0.3-4.9c0-0.9-0.1-1.7-0.2-2.5l-0.8-7.6
		c-1.4-10.9-3.4-20.6-6-29.8c-3-10.2-6.9-19.9-11.6-28.7c-5.2-9.8-11.3-18.4-18.1-25.7c-3.3-3.6-7-7.2-11.4-10.9
		c-3.8-3.2-8.1-6.4-12.7-9.3c-4.6-2.9-9.2-5.4-13.9-7.5c-2.6-1.2-5.2-2.2-7.2-3l-0.6-0.2c-1-0.4-2.1-0.8-3.1-1.1
		c-0.6-0.2-1.2-0.4-1.8-0.6l-1.8-0.6l-3.3-1.1l-3.2-1.1c-2.1-0.8-4.3-1.6-6.4-2.4c-4-1.6-8.1-3.4-12.4-5.4c-2.3-1.1-4.3-2.1-6.1-3
		c-2.1-1.1-3.9-2.1-5.7-3.2c-3.8-2.3-7-4.7-9.9-7.3c-1.5-1.4-2.8-2.8-3.9-4.2c-1.1-1.3-2.1-2.7-3.3-4.6l-0.1-0.1
		c-2.1-3.4-3.6-7-4.6-10.7l-0.2-0.7l-0.5-2.2l0-0.2c0-0.2-0.1-0.5-0.1-0.7c-0.1-0.6-0.2-1.3-0.3-2c-0.2-1.8-0.3-3.7-0.3-5.9
		c0.1-4.3,0.7-8.1,1.8-11.4c0.6-1.9,1.3-3.6,2.2-5.2c0.9-1.6,1.9-3.1,3-4.4c1.1-1.3,2.4-2.5,3.9-3.6l0.6-0.4l0.8-0.5
		c0.2-0.2,0.6-0.4,1.2-0.7c0.1-0.1,0.3-0.2,0.4-0.2c0.5-0.3,1.1-0.6,1.9-0.9c1.8-0.8,3.8-1.4,5.3-1.8l0.2-0.1
		c0.3-0.1,0.6-0.1,0.9-0.2c0.1,0,0.8-0.1,0.8-0.2c0.4-0.1,0.8-0.2,1.4-0.2c0.2,0,0.4,0,0.7-0.1c0.7-0.1,1.4-0.2,2.2-0.2
		c0.8,0,1.7-0.1,2.5-0.1c3.3,0,6.5,0.4,9.3,1.2c4.1,1.1,7.6,2.8,10.2,5c1.6,1.2,2.9,2.8,4,4.1l0.1,0.1l0.8,1.1
		c0.3,0.4,0.5,0.8,0.7,1c0,0.1,0.1,0.1,0.1,0.2c0.5,0.7,0.9,1.4,1.2,2.1c0.1,0.2,0.2,0.4,0.3,0.6l0.1,0.1l0.1,0.1
		c0.8,1.6,1.6,3.5,2.2,5.6c0.3,0.8,0.4,1.5,0.6,2.2c0.1,0.2,0.1,0.4,0.1,0.6c0.1,0.6,0.2,1.1,0.2,1.4c0,0.1,0,0.1,0,0.2l0.1,0.4
		c0.1,0.3,0.1,0.8,0.1,1.4l0.1,1.1c0,0.5,0,0.9,0,1.2c0,0.1,0,0.1,0,0.3v0.1c0,0.4,0,1-0.1,1.7c0,0.3-0.1,0.5-0.1,0.8l0,0.3
		l-0.2,0.7c0,0.2-0.1,0.4-0.1,0.6l0,0.1c-0.1,0.3-0.1,0.6-0.2,0.8l0,0.1l-0.2,0.6l0,0.2c-0.1,0.3-0.2,0.6-0.4,1l-0.1,0.2l0,0.1
		c-0.1,0.2-0.3,0.6-0.5,1.1c-0.9,1.7-2,3-3.3,4c-1.5,1.2-3.1,2-4.9,2.5c-1.4,0.4-2.9,0.6-4.4,0.6c-2.5,0-5-0.5-7.2-1.5
		c-3.9-1.7-6.7-4.7-8.2-8.5c-0.8-1.9-1.1-4-1-6c0.1-2.2,0.7-4.2,1.8-6l0.2-0.3c0.2-0.3,1.5-3.1,2.6-5.9c0,0,0.1,0.1,0.1,0.1
		c2.5,2,3.1,5.6,1.5,8.3l-0.2,0.3c-0.7,1.2-1.1,2.5-1.1,3.8c-0.1,1.3,0.1,2.7,0.7,4c1,2.7,3,4.7,5.6,5.9c2.6,1.2,5.7,1.4,8.3,0.7
		c1.3-0.3,2.4-0.9,3.2-1.6c0.9-0.7,1.5-1.6,2.1-2.6c0.2-0.2,0.2-0.5,0.4-0.8c0.1-0.3,0.2-0.6,0.3-1l0.2-0.5c0-0.2,0.1-0.3,0.1-0.5
		c0.1-0.3,0.2-0.7,0.2-1c0-0.4,0.1-0.7,0.1-1.1c0.1-0.4,0.1-0.7,0.1-1.1c0-0.4,0-0.8,0-1.2l-0.1-1.2c0-0.4-0.1-0.8-0.1-1.2
		c-0.1-0.4-0.1-0.8-0.2-1.2c-0.2-0.8-0.3-1.7-0.6-2.5c-0.5-1.7-1.2-3.3-1.9-4.9c-0.4-0.8-0.8-1.6-1.3-2.3c-0.2-0.3-0.4-0.7-0.7-1.1
		l-0.7-1c-1-1.3-2.1-2.5-3.2-3.4c-2.2-1.9-5.2-3.2-8.4-4.1c-3.2-0.9-6.8-1.2-10.3-0.9c-0.9,0-1.7,0.2-2.6,0.3
		c-0.4,0-0.9,0.1-1.3,0.2c-0.4,0.1-0.8,0.2-1.3,0.2c-1.6,0.4-3.3,0.9-4.7,1.6c-0.8,0.3-1.4,0.7-2.1,1c-0.4,0.2-0.6,0.4-0.9,0.5
		l-0.4,0.3l-0.4,0.3c-1.1,0.8-2.1,1.7-3,2.8c-0.9,1.1-1.7,2.3-2.4,3.6c-0.7,1.3-1.3,2.8-1.8,4.3c-1,3.1-1.5,6.5-1.5,10
		c0,1.7,0,3.5,0.3,5.2c0.1,0.9,0.3,1.7,0.4,2.6l0.3,1.3l0.1,0.6l0.2,0.6c0.9,3.3,2.3,6.5,4.1,9.4c0.9,1.4,1.9,2.8,3,4.2
		c1.1,1.3,2.2,2.6,3.5,3.8c2.6,2.4,5.6,4.6,9,6.7c1.7,1,3.5,2.1,5.4,3.1c1.9,1,3.9,2,5.9,3c3.9,1.9,7.9,3.7,12,5.3
		c2,0.8,4.1,1.6,6.2,2.3l3.1,1.1l3.2,1.1l1.8,0.6c0.6,0.2,1.2,0.4,1.9,0.6c1.3,0.4,2.5,0.9,3.8,1.4c2.5,1,5,2,7.5,3.1
		c5,2.2,9.8,4.9,14.4,7.8c4.6,2.9,9.1,6.1,13.3,9.7c4.2,3.5,8.2,7.3,11.9,11.4c7.5,8,13.6,17.2,18.7,26.7c5.1,9.5,9,19.5,12,29.6
		c2.9,10.1,4.9,20.4,6.2,30.6l0.8,7.7c0.2,1.3,0.2,2.5,0.3,3.8l0.2,3.8l0.2,3.8l0.1,3.8C365.8,252,365.9,254.6,365.9,257.1z"/>
	<rect x="39.9" y="245" fill="#FFB300" width="388.2" height="14.8"/>
	<rect x="39.9" y="254.6" fill="#DC800B" width="388.2" height="5.2"/>
	<polygon fill="#FFD54F" points="85.8,206.8 0,206.8 40.3,245 126.2,245 	"/>
	<polygon fill="#FFD54F" points="85.8,298 0,298 40.3,259.8 126.2,259.8 	"/>
	<g>
		<g>
			<path id="XMLID_1_" fill="#DD264C" d="M402.2,223.5c0,11.3,5.5,21.4,14,27.6l0,0c-8.5,6.2-14,16.3-14,27.6
				c0,19,15.4,34.3,34.3,34.3c28.2,0,74.3-60.4,75.4-62l0,0c0,0-45.8-61.9-75.5-61.9C417.5,189.1,402.2,204.5,402.2,223.5z"/>
		</g>
		<path fill="#BB1637" d="M402.2,223.5c0,5.2,1.2,10.2,3.3,14.7c9.1-7.9,21-12.7,34.1-12.7c28,0,50.8,22.2,51.8,50
			c11.7-12.6,20.1-23.6,20.6-24.3l0,0c0,0-45.8-61.9-75.5-61.9C417.5,189.1,402.2,204.5,402.2,223.5z"/>
		
			<ellipse transform="matrix(0.4516 -0.8922 0.8922 0.4516 -20.2463 540.745)" fill="#E37692" cx="429.8" cy="286.8" rx="16.1" ry="21.2"/>
		
			<ellipse transform="matrix(0.7071 -0.7071 0.7071 0.7071 -68.2276 408.406)" fill="#E37692" cx="458.9" cy="286.6" rx="4.7" ry="4.9"/>
	</g>
</g>
</svg>
