<svg stroke="#ffffff" xmlns:xlink="http://www.w3.org/1999/xlink" xmlns="http://www.w3.org/2000/svg" viewBox="0 0 295 265" fill="#ffffff">
 <g transform="translate(-49,-65)">
  <path stroke="#010202" id="heart_full_4s" stroke-dasharray="0 135 0 715" stroke-miterlimit="10" fill="none" stroke-width="4" d="M314.3,93.9c-14.4-14.5-33.6-22.5-53.9-22.5&#xa;&#x9;&#x9;&#x9;c-20.4,0-39.5,8-53.9,22.5l-10.7,10.8l-10.7-10.8c-14.4-14.5-33.6-22.5-53.9-22.5c-20.4,0-39.5,8-53.9,22.5&#xa;&#x9;&#x9;&#x9;c-29.7,29.9-30.3,81.5,5.2,117.1c34.4,34.4,113.5,110.5,113.5,110.5c4.6-4.4,78.9-76,113.3-110.5C344.6,175.4,344,123.8,314.3,93.9z">
   <animate dur="2523ms" attributeName="stroke-dasharray" to="0 135 715 0" repeatCount="1" from="0 135 0 715" begin="0ms"/>
   <animate dur="476ms" attributeName="stroke-dasharray" to="135 0 715 0" repeatCount="1" from="0 135 715 0" fill="freeze" begin="2523ms"/>
  </path>
  <g stroke-dashoffset="0" stroke="#010202" id="heart_dashed_4s" fill="none" stroke-width="3">
   <path stroke-dasharray="0 184 14 11 14 11 14 11 14 11 14 11 14 11 14 11 14 11" d="&#x9;M 195.6,122 L 204.4,113.2 L 214.7,102.9 C 227.1,90.4 243.7,83.5 261.2,83.5 C 278.7,83.5 295.3,90.4 307.7,102.9 C 320.4,115.6 327,132.9 326.5,151.7 ">
    <animate dur="736ms" calcMode="discrete" id="segment3" attributeName="stroke-dashoffset" values="0; 9; 34; 59; 84; 109; 134; 159; 184" repeatCount="1" fill="freeze" begin="segment2.end-147ms"/>
   </path>
   <path stroke-dasharray="0 359 14 11 14 11 14 11 14 11 14 11 14 11 14 11 14 11 14 11 14 11 14 11 14 11 14 11 14 11 14 11" d="&#x9;M 326.5,151.7 C 326,171.3 317.4,190.4 302.4,205.4 C 277.1,230.7 229.9,276.5 202.7,302.75 C 199,306.4 197.3,308 195.8,309.5 C 194.3,308.1 192.6,306.4 186.85,300.85 C 156.7,271.8 112.2,228.8 88.8,205.3 ">
    <animate dur="1467ms" calcMode="discrete" id="segment2" attributeName="stroke-dashoffset" values="0; 17; 42; 67; 92; 117; 142; 167; 192; 217; 242; 267; 292; 317; 342; 367" repeatCount="1" fill="freeze" begin="segment1.end-105ms"/>
   </path>
   <path stroke-dasharray="0 246 14 11 14 11 14 11 14 11 14 11 14 11 14 11 14 11 14 11 14 11 14 11" d="&#x9;M 88.8,205.3 C 73.8,190.3 65.2,171.2 64.7,151.6 C 64.2,132.9 70.9,115.6 83.5,102.8 C 95.9,90.3 112.5,83.4 130,83.4 C 147.6,83.4 164.1,90.3 176.5,102.8 L 196.5,123 ">
    <animate dur="1047ms" calcMode="discrete" id="segment1" attributeName="stroke-dashoffset" values="0; 12; 37; 62; 87; 112; 137; 162; 187; 212; 237; 262" repeatCount="1" fill="freeze" begin="0ms"/>
   </path>
  </g>
  <polygon transform="translate(87, 0)" fill="#010202">
   <animate dur="200ms" id="left_arrow_grow" attributeName="points" to="86.7,164.9  109,158.7  109,171.1" repeatCount="1" from="109,164.9  109,164.9  109,164.9" begin="segment3.end"/>
   <animate dur="800ms" id="left_arrow_move" attributeName="points" to="0,164.9  22.3,158.7  22.3,171.1" repeatCount="1" from="86.7,164.9  109,158.7  109,171.1" fill="freeze" begin="left_arrow_grow.end"/>
  </polygon>
  <polygon transform="translate(-87, 0)" fill="#010202">
   <animate dur="200ms" id="right_arrow_grow" attributeName="points" to="305.3,164.9  283,171.1  283,158.7" repeatCount="1" from="283,164.9  283,164.9  283,164.9" begin="segment3.end"/>
   <animate dur="800ms" id="right_arrow_move" attributeName="points" to="390,164.9  367.7,171.1  367.7,158.7" repeatCount="1" from="305.3,164.9  283,171.1  283,158.7" fill="freeze" begin="right_arrow_grow.end"/>
  </polygon>
  <circle cy="244.2" visibility="hidden" r="3.1" cx="195.6" fill="#010202">
   <animate dur="800ms" attributeName="visibility" values="visible" repeatCount="1" fill="freeze" begin="left_arrow_grow.end"/>
  </circle>
 </g>
 <animate dur="1000ms" id="CONCLUSION" attributeName="stroke-opacity" to="0" from="1" repeatCount="1" fill="freeze" begin="left_arrow_move.end"/>
 <animate dur="1000ms" attributeName="fill-opacity" to="0" from="1" repeatCount="1" fill="freeze" begin="CONCLUSION.begin"/>
</svg>
