<?xml version="1.0" encoding="utf-8"?>
<!-- Generator: Adobe Illustrator 21.1.0, SVG Export Plug-In . SVG Version: 6.00 Build 0)  -->
<svg version="1.1" baseProfile="tiny" id="Слой_1"
	 xmlns="http://www.w3.org/2000/svg" xmlns:xlink="http://www.w3.org/1999/xlink" x="0px" y="0px" viewBox="0 0 512 512"
	 overflow="scroll" xml:space="preserve">
<g>
	<path fill="#E2BDA1" d="M489.8,284.8c6.4,6.3,10.4,15.3,10.4,25.3c0,15.8-9.9,29-23.2,32.9c5.9,5.7,9.7,14,9.7,23.3v1
		c0,14.1-8.6,26-20.4,29.8c6.6,5.9,10.9,14.9,10.9,24.9v3c0,17.6-13.1,31.9-29.1,31.9H287.3c0,0-43.1,0.1-51.2-10.2
		c-5.2-6.7-15-12.5-21.2-15.7c-3.4-1.8-5.7-2.8-5.7-2.8h-49.4V257.6c0,0,43.6-2.8,70.1-16.8c4.9-2.6,9.2-5.5,12.5-8.9
		c21.6-21.7,53.9-81.9,58.4-113.5c4.5-31.6-3.6-53.3,0-69.1c3.6-15.8,57.5-27.6,73.7,57.2c7,36.9,4.9,66.9,0.2,89.1
		c-1,4.9-2.2,9.5-3.4,13.6h105.4c7,0,13.5,2.2,19,6c10,7,16.7,19.3,16.7,33.2C512.3,264.9,503,279,489.8,284.8z"/>
	<path fill="#D8AC8B" d="M229.9,240.8l-15,190.3c-3.4-1.8-5.7-2.8-5.7-2.8h-49.4V257.6C159.8,257.6,203.3,254.7,229.9,240.8z"/>
	<path fill="#D3A888" d="M512.3,248.4c0-13.9-6.7-26.2-16.7-33.2v0c0,0,0,0-0.1,0c-0.7-0.5-1.3-0.9-2-1.3c0,0,0,0-0.1,0
		c-0.6-0.4-1.2-0.7-1.9-1c-0.2-0.1-0.4-0.2-0.6-0.3c-0.5-0.3-1.1-0.5-1.7-0.8c-0.1-0.1-0.3-0.1-0.4-0.2c-0.7-0.3-1.3-0.5-2-0.7
		c-0.3-0.1-0.5-0.2-0.8-0.2c-0.5-0.2-1-0.3-1.5-0.4c-0.2-0.1-0.4-0.1-0.6-0.2c-0.7-0.2-1.4-0.3-2.2-0.4c-0.2,0-0.3,0-0.5-0.1
		c-0.6-0.1-1.2-0.2-1.8-0.2c-0.2,0-0.4,0-0.6-0.1c-0.8-0.1-1.5-0.1-2.3-0.1h-32.1h-73.3c0.3-1.2,0.7-2.4,1-3.6
		c0.2-0.7,0.4-1.3,0.5-2c0.2-0.7,0.3-1.3,0.5-2c0.2-0.7,0.3-1.3,0.5-2c0.3-1.3,0.6-2.6,0.9-3.9l0,0c4.7-22.1,6.8-52.1-0.2-89.1
		c-13.6-71.4-53.9-74.3-68.5-64.1c14.4,7.6,29.2,26.2,36.4,64.1c8.6,45.1,3.5,79.9-3.2,102.6v16.1h117.7c12.7,0,23.2,10.1,23.3,22.8
		c0,0.1,0,0.3,0,0.4c0,16.5-9.4,30.6-22.5,36.4c6.4,6.3,10.4,15.3,10.4,25.3c0,15.8-9.9,29-23.2,32.9c5.9,5.7,9.7,14,9.7,23.3v1
		c0,14.1-8.6,26-20.4,29.8c6.6,5.9,10.9,14.9,10.9,24.9v3c0,17.6-13.1,31.9-29.1,31.9h32.1c16,0,29.1-14.4,29.1-31.9v-3
		c0-10-4.3-19-10.9-24.9c11.7-3.8,20.4-15.7,20.4-29.8v-1c0-9.3-3.8-17.6-9.7-23.3c13.3-3.8,23.2-17.1,23.2-32.9
		c0-10-4-19.1-10.4-25.3C503,279,512.3,264.9,512.3,248.4z"/>
	<path fill="#E6E6E6" d="M164,466H0.3V206.2H164c16.5,0,30,13.5,30,30V436C194,452.5,180.5,466,164,466z"/>
	<rect x="0.3" y="206.2" fill="#0071BC" width="166.8" height="259.8"/>
	<rect x="0.3" y="206.2" fill="#1286C6" width="166.8" height="129.4"/>
	<circle fill="#1286C6" cx="118.5" cy="422.5" r="18.2"/>
	
		<ellipse transform="matrix(0.7355 -0.6775 0.6775 0.7355 -250.4923 185.7282)" fill="#FFFFFF" cx="112.6" cy="413.7" rx="6.3" ry="4.5"/>
</g>
</svg>
