<?xml version="1.0" encoding="utf-8"?>
<!-- Generator: Adobe Illustrator 21.1.0, SVG Export Plug-In . SVG Version: 6.00 Build 0)  -->
<svg version="1.1" baseProfile="tiny" id="Слой_1"
	 xmlns="http://www.w3.org/2000/svg" xmlns:xlink="http://www.w3.org/1999/xlink" x="0px" y="0px" viewBox="0 0 512 512"
	 overflow="scroll" xml:space="preserve">
<g>
	<g>
		<path fill="#BEF668" d="M400,505.4c0,0,0.3,0.4,1-1.1L400,505.4z"/>
	</g>
	<g>
		<path fill="#7AC424" d="M456.6,184.6c-30-50.6-92-71.5-147.2-51.3c-16.7,6.1-34.8,9.5-53.6,9.5c-18.8,0-36.9-3.4-53.6-9.5
			C147,113.1,85,134,55,184.6c-20.7,34.9-32.6,75.6-32.6,119.1c0,83.4,43.7,156.6,109.5,197.9c19.9,12.5,44.7,14.6,66.5,6
			c17.8-7.1,37.2-11,57.5-11c20.3,0,39.7,3.9,57.5,11c21.8,8.7,46.6,6.6,66.5-6c65.8-41.3,109.5-114.5,109.5-197.9
			C489.2,260.2,477.4,219.5,456.6,184.6z"/>
		<path fill="#64AA1D" d="M309.4,133.3c-4.4,1.6-8.8,3-13.3,4.2l-0.7,0.7c0,0,103.1,35.2,114.8,128.3
			c11.6,93.2-65.2,138-161.6,135.4c-43.5-1.2-157.2-37.9-184.3,35.2c18,25.8,41,47.7,67.6,64.5c19.9,12.5,44.7,14.6,66.5,6
			c17.8-7.1,37.2-11,57.5-11c20.3,0,39.7,3.9,57.5,11c21.8,8.7,46.6,6.6,66.5-6c65.8-41.3,109.5-114.5,109.5-197.9
			c0-43.5-11.9-84.2-32.6-119.1C426.6,134,364.6,113.1,309.4,133.3z"/>
		<path fill="#99D446" d="M170.7,251.8c-21.9,41.9-22.1,85-65.1,62.5s-60.2-74.7-38.4-116.5s74.5-57.5,117.6-35
			S192.6,210,170.7,251.8z"/>
		<path fill="#B0EB60" d="M149.6,232.6c-14.2,27.2-14.3,55.2-42.3,40.6s-39.2-48.6-24.9-75.8s48.4-37.4,76.4-22.8
			C186.8,189.3,163.8,205.4,149.6,232.6z"/>
		<path fill="#789A44" d="M245.4,150.6c0,0-11.4,4.9-30.9-4.9c-15.7-7.8-27.7-1.6-19.5,8.1c6.7,8,14.6,17.9,55.3,17.9
			c16.3,0,34.2-8.1,43.9-16.3c3.4-2.8,22.8-24.4-9.4-14.9C259,148.2,245.4,150.6,245.4,150.6z"/>
		<path fill="#44950D" d="M250.5,160.3c0,0-29.3-135.6,124.6-159.4C391.6,136.5,250.5,160.3,250.5,160.3z"/>
		<circle fill="#B0EB60" cx="329.2" cy="214.9" r="9"/>
		<circle fill="#B0EB60" cx="375.6" cy="272.7" r="11.4"/>
		<circle fill="#B0EB60" cx="312.1" cy="318.2" r="8.1"/>
		<path fill="#845F4C" d="M178.6,33.4c-0.1,0.1-16.1,16.8-3.3,22.8c16.4,7.6,48.3,47.5,65.7,93.5c5,18.9,13.3,7.3,13.3,7.3
			S198.2,12.3,178.6,33.4z"/>
		<path fill="#4D2A1F" d="M193.3,62.7c-9.3-8.2-8.6-11.3-7.5-12.4c1.7-1.6,3.1-3.5,4.1-5.6c4-9.4-5.6-12.7-7.6-13.2
			c-0.3,0-0.5,0.1-0.7,0.2l-2.5,1.6c-0.1,0.1-0.2,0.2-0.3,0.3c-0.1,0.1-16.1,16.8-3.3,22.8c16.1,7.4,47.2,46.1,64.7,91c0,0,0,0,0,0
			C239.8,124.2,206.3,74.1,193.3,62.7z"/>
		<path fill="#4EAD13" d="M250.4,159.9c0,0.2,0.1,0.4,0.1,0.4S391.4,136.5,375.1,1.1C281.5,52.9,252.4,152.6,250.4,159.9z"/>
	</g>
</g>
</svg>
