<?xml version="1.0" encoding="iso-8859-1"?>
<!-- Generator: Adobe Illustrator 21.1.0, SVG Export Plug-In . SVG Version: 6.00 Build 0)  -->
<svg version="1.1" baseProfile="tiny" id="Layer_1" xmlns="http://www.w3.org/2000/svg" xmlns:xlink="http://www.w3.org/1999/xlink"
	 x="0px" y="0px" viewBox="-49 141 512 512" overflow="scroll" xml:space="preserve"  fill="#000000" stroke="#000000" stroke-width="0" stroke-opacity="1.0" fill-opacity="1.0">

<defs>
  <linearGradient id="retain_ECF0F1">
    <stop offset="0" stop-color="#ECF0F1" stop-opacity="1"/>
    <stop offset="1" stop-color="#ECF0F1" stop-opacity="1"/>
  </linearGradient> 
  <linearGradient id="retain_4B4B4B">
    <stop offset="0" stop-color="#4B4B4B" stop-opacity="1"/>
    <stop offset="1" stop-color="#4B4B4B" stop-opacity="1"/>
  </linearGradient> 
</defs>

<circle fill="url(#retain_ECF0F1)" cx="206.542" cy="397.104" r="256"/>
<path fill="url(#retain_4B4B4B)" stroke="url(#retain_4B4B4B)" stroke-width="3" stroke-miterlimit="10" d="M52.145,485.741h309.709
	c2.582,0,4.674-2.092,4.674-4.674c0-2.582-2.092-4.674-4.674-4.674H52.145c-2.582,0-4.674,2.092-4.674,4.674
	C47.472,483.649,49.564,485.741,52.145,485.741z"/>
<path fill="url(#retain_4B4B4B)" stroke="url(#retain_4B4B4B)" stroke-width="3" stroke-miterlimit="10" d="M268.175,515.653h-56.084
	c-2.582,0-4.674,2.092-4.674,4.674c0,2.582,2.092,4.674,4.674,4.674h56.084c2.582,0,4.674-2.092,4.674-4.674
	C272.848,517.745,270.756,515.653,268.175,515.653z"/>
<path fill="url(#retain_4B4B4B)" stroke="url(#retain_4B4B4B)" stroke-width="3" stroke-miterlimit="10" d="M249.48,536.217h-18.695
	c-2.582,0-4.674,2.092-4.674,4.674c0,2.582,2.092,4.674,4.674,4.674h18.695c2.582,0,4.674-2.092,4.674-4.674
	C254.154,538.309,252.062,536.217,249.48,536.217z"/>
<path fill="url(#retain_4B4B4B)" stroke="url(#retain_4B4B4B)" stroke-width="3" stroke-miterlimit="10" d="M291.543,495.088H188.722
	c-2.582,0-4.674,2.092-4.674,4.674s2.092,4.674,4.674,4.674h102.821c2.582,0,4.674-2.092,4.674-4.674
	S294.125,495.088,291.543,495.088z"/>
<path fill="url(#retain_4B4B4B)" stroke="url(#retain_4B4B4B)" stroke-miterlimit="10" d="M305,363.11c-6.14-0.33-9.65-2.42-12.5-4.14
	c-0.69-0.41-1.32-0.78-1.94-1.11c-1.68-0.88-3.36-1.42-6.26-1.42c-3.97,0-5.64,1.01-8.18,2.53c-3.12,1.87-7,4.19-14.22,4.19
	c-7.22,0-11.09-2.32-14.21-4.19c-2.54-1.52-4.21-2.53-8.19-2.53s-5.65,1.01-8.18,2.53c-3.13,1.87-7,4.19-14.22,4.19
	c-7.22,0-11.09-2.32-14.2-4.19c-2.55-1.52-4.23-2.53-8.2-2.53c-1.67,0-3.18-0.7-4.24-1.83c-1-1.05-1.62-2.46-1.62-4.03
	c0-3.23,2.63-5.86,5.86-5.86c0.71,0,1.39,0.02,2.03,0.07c5.95,0.38,9.38,2.44,12.18,4.13c2.54,1.52,4.21,2.52,8.19,2.52
	c3.98,0,5.65-1,8.18-2.52c3.12-1.87,7-4.2,14.22-4.2s11.1,2.33,14.22,4.2c2.53,1.52,4.2,2.52,8.18,2.52c3.98,0,5.65-1,8.19-2.52
	c2.8-1.68,6.21-3.73,12.12-4.13c0.66-0.05,1.36-0.07,2.09-0.07c4.53,0,7.74,0.92,10.27,2.06l0.17,0.27
	c0.01,0.01,0.02,0.02,0.02,0.03L305,363.11z"/>
<path fill="url(#retain_4B4B4B)" stroke="url(#retain_4B4B4B)" stroke-miterlimit="10" d="M367.63,459.32l-71.88-112.55l-0.01-0.12l-0.21-0.22l-51.28-80.29
	c-1.04-1.64-2.83-2.62-4.78-2.62c-1.95,0-3.74,0.98-4.78,2.62l-51.34,80.37l-0.03,0.05c-1.2,1.88-59.67,93.23-59.91,93.79
	c-0.01,0.01-0.01,0.03-0.02,0.04c-0.29,0.69-0.45,1.44-0.45,2.23c0,0.95,0.23,1.84,0.64,2.63c0.95,1.84,2.87,3.1,5.09,3.1
	c2.24,0,4.18-1.29,5.12-3.16l105.68-165.45L352.5,456.7H63.51l56.31-88.18l15.6,24.42c1.68,2.63,5.2,3.4,7.84,1.72
	c1.27-0.81,2.16-2.08,2.48-3.56c0.33-1.48,0.06-3-0.76-4.27l-20.38-31.91c-1.05-1.64-2.84-2.62-4.78-2.62s-3.73,0.98-4.78,2.62
	l-66.67,104.4c-1.12,1.75-1.19,3.96-0.2,5.78c1,1.82,2.9,2.95,4.98,2.95h309.7c2.07,0,3.98-1.13,4.98-2.95
	C368.82,463.28,368.75,461.07,367.63,459.32z"/>
<polygon fill="url(#retain_4B4B4B)" stroke="url(#retain_4B4B4B)" stroke-miterlimit="10" points="207.598,186.598 198.517,191.372 200.251,181.259 
	192.904,174.098 203.057,172.622 207.598,163.421 212.139,172.622 222.293,174.098 214.946,181.259 216.68,191.372 "/>
<polygon fill="url(#retain_4B4B4B)" stroke="url(#retain_4B4B4B)" stroke-miterlimit="10" points="243.817,188.618 238.579,191.372 239.579,185.539 
	235.341,181.408 241.198,180.557 243.817,175.25 246.436,180.557 252.293,181.408 248.055,185.539 249.055,191.372 "/>
<polygon fill="url(#retain_4B4B4B)" stroke="url(#retain_4B4B4B)" stroke-miterlimit="10" points="243.817,188.618 238.579,191.372 239.579,185.539 
	235.341,181.408 241.198,180.557 243.817,175.25 246.436,180.557 252.293,181.408 248.055,185.539 249.055,191.372 "/>
<polygon fill="url(#retain_4B4B4B)" stroke="url(#retain_4B4B4B)" stroke-miterlimit="10" points="171.095,188.618 165.857,191.372 166.857,185.539 
	162.619,181.408 168.476,180.557 171.095,175.25 173.715,180.557 179.571,181.408 175.333,185.539 176.334,191.372 "/>
<path fill="url(#retain_4B4B4B)" stroke="url(#retain_4B4B4B)" stroke-width="10" stroke-linejoin="round" stroke-miterlimit="10" d="M99.107,322.419
	c0.149,0,0.298,0,0.447-0.009c-5.424,4.031-12.144,6.414-19.426,6.414c-18.033,0-32.657-14.624-32.657-32.657
	c0-18.033,14.624-32.648,32.657-32.648c7.29,0,14.011,2.383,19.443,6.414c-0.158-0.009-0.307-0.009-0.464-0.009
	c-14.466,0-26.243,11.776-26.243,26.243C72.864,310.643,84.641,322.419,99.107,322.419z"/>
<path fill="url(#retain_ECF0F1)" d="M84.056,324.047l-0.55,0.077c-18.631,1.752-31.047-12.608-31.047-27.094
	c0-14.486,10.604-27.029,26.478-27.973c2.617-0.155,5.118,0.243,5.118,0.243s-0.229,0.138-0.341,0.196
	c-7.797,4.025-15.831,14.654-15.831,26.275C67.882,308.271,73.439,317.831,84.056,324.047z"/>
</svg>
