<?xml version="1.0" encoding="utf-8"?>
<!-- Generator: Adobe Illustrator 21.1.0, SVG Export Plug-In . SVG Version: 6.00 Build 0)  -->
<svg version="1.1" baseProfile="tiny" id="Слой_1"
	 xmlns="http://www.w3.org/2000/svg" xmlns:xlink="http://www.w3.org/1999/xlink" x="0px" y="0px" viewBox="0 0 512 512"
	 overflow="scroll" xml:space="preserve">
<g>
	<g>
		<path fill="#FF6F43" d="M478.1,477.3H34.3c-18.8,0-34.1-15.3-34.1-34.1V149.4c0-18.8,15.3-34.1,34.1-34.1h443.9
			c18.8,0,34.1,15.2,34.1,34.1v293.8C512.2,462.1,497,477.3,478.1,477.3L478.1,477.3z M478.1,477.3"/>
		<path fill="#F26346" d="M255.3,115.4h222.9c18.8,0,34.1,15.2,34.1,34.1v293.8c0,18.8-15.3,34.1-34.1,34.1H34.3h221V115.4z
			 M34.3,477.4"/>
		<polygon fill="#FFCA28" points="99.1,477.7 129.1,477.7 129.1,177.2 99.1,177.2 		"/>
		<polygon fill="#FFCA28" points="382.4,477.3 412.4,477.3 412.4,176.9 382.4,176.9 		"/>
		<path fill="#C94D31" d="M88.5,115.4h53v42.5c0,14.4-11.6,26-26,26h-1c-14.4,0-26-11.6-26-26V115.4z"/>
		<path fill="#C94D31" d="M371,115.4h52.9v42.5c0,14.4-11.6,26-26,26H397c-14.4,0-26-11.6-26-26V115.4z"/>
		<path fill="#73D888" d="M286.1,349.8l74.1,31.3l-20.9,49.4l-74.1-31.3L286.1,349.8z M286.1,349.8"/>
	</g>
	<g>
		<polygon fill="#FFB92C" points="164.6,115.4 201.2,115.4 201.2,87.9 164.6,87.9 		"/>
		<polygon fill="#FFB92C" points="310.9,115.4 347.4,115.4 347.4,87.9 310.9,87.9 		"/>
	</g>
	<path fill="#FFCA28" d="M283.5,31.9h-54.9c-35.3,0-64,20.7-64,56h36.6c0-15.1,12.3-19.4,27.4-19.4h54.9c15.1,0,27.4,4.3,27.4,19.4
		h36.6C347.5,52.7,318.8,31.9,283.5,31.9"/>
	<ellipse fill="#F2ECD3" cx="311.9" cy="228.7" rx="42.5" ry="30.6"/>
	<path fill="#FFB278" d="M237.1,308.2L214,256.1c-2.4-5.5-7.6-9.2-13.5-9.8l-22.4-2.3c-5.9-0.6-11.6,2-15.1,6.7l-13.3,18.1
		c-3.5,4.8-4.2,11.1-1.8,16.6l23.1,52.1c3.7,8.4,13.6,12.2,21.9,8.4l35.7-15.9C237.1,326.4,240.8,316.6,237.1,308.2z M188.7,284.2
		c-5.6,3.7-13,0.8-14.7-5.7c-1-3.9,0.6-8.2,4-10.4c5.6-3.7,13-0.8,14.7,5.7C193.7,277.7,192.1,282,188.7,284.2z"/>
</g>
</svg>
