<?xml version="1.0" encoding="utf-8"?>
<!-- Generator: Adobe Illustrator 21.1.0, SVG Export Plug-In . SVG Version: 6.00 Build 0)  -->
<svg version="1.1" baseProfile="tiny" id="Слой_1"
	 xmlns="http://www.w3.org/2000/svg" xmlns:xlink="http://www.w3.org/1999/xlink" x="0px" y="0px" viewBox="0 0 512 512"
	 overflow="scroll" xml:space="preserve">
<g>
	<g>
		<ellipse fill="#74AEA3" cx="249" cy="475.5" rx="192.2" ry="36.5"/>
	</g>
	<g>
		<g>
			<g>
				<g>
					<g>
						<ellipse fill="#F8D2D1" cx="249" cy="340.7" rx="154.3" ry="27.9"/>
						<path fill="#F4AFB2" d="M249,368.6c-85.2,0-154.3-12.5-154.3-27.9v124.7c0,0,5.8,26.1,154.3,26.1
							c148.5,0,154.3-26.1,154.3-26.1V340.7C403.3,356.1,334.2,368.6,249,368.6z"/>
					</g>
				</g>
				<g>
					<g>
						<g>
							<path fill="#703E3A" d="M249,461.6c-85.2,0-154.3-12.5-154.3-27.9V447c0,0,5.8,26.1,154.3,26.1
								c148.5,0,154.3-26.1,154.3-26.1v-13.2C403.3,449.2,334.2,461.6,249,461.6z"/>
						</g>
						<g>
							<path fill="#703E3A" d="M249,438.1c-85.2,0-154.3-12.5-154.3-27.9v13.2c0,0,5.8,26.1,154.3,26.1
								c148.5,0,154.3-26.1,154.3-26.1v-13.2C403.3,425.6,334.2,438.1,249,438.1z"/>
						</g>
					</g>
					<g>
						<path fill="#F08890" d="M94.7,340.7c0,0,12.5,64.4,101.4,26.2C196.1,366.9,101.4,454.9,94.7,340.7z"/>
						<path fill="#F08890" d="M403.3,340.7c0,0-12.5,64.4-101.4,26.2C301.9,366.9,396.6,454.9,403.3,340.7z"/>
						<path fill="#F08890" d="M196.1,366.9c0,0,44.2,39.4,105.8,0C301.9,366.9,253.1,457.6,196.1,366.9z"/>
						<g>
							<path fill="#EB6372" d="M187.7,364.3c0,0-5.8-8.3-18.8-11.2c0,0-11.4,19.7-2.8,33.2c0,0,12.5,1.5,18.5-9.2
								C184.7,377.1,188.1,371.1,187.7,364.3z"/>
							<g>
								<path fill="#EB6372" d="M198.3,367.1c0,0,8.3-10.3,22.5-8.5c0,0,3.4,15-3.5,32.4c0,0-17.6-2.6-20.4-11.4L198.3,367.1z"/>
								<path fill="#E74256" d="M187.7,364.3c0,0,1.5-0.9,4.7,0c3.2,0.9,3.6,0,5.9,2.9l-1.4,12.6c0,0-4.5,0.8-6.7-0.7
									c-2.3-1.5-5.6-0.9-5.5-1.9c0.1-1,2.6-6.1,2.6-8.7C187.2,365.9,187.7,364.3,187.7,364.3z"/>
								<g>
									<path fill="#E74256" d="M199.9,372.3l0-0.2c1.5-0.1,4.9-1.4,5-2c0-0.1-0.1-0.2-0.2-0.2c-1.3-0.7-5.4,1.2-7.7,2.6l-0.6-0.7
										c1.1-0.6,6.6-3.7,8.8-2.6c0.7,0.4,0.7,0.8,0.7,1.1C205.5,371.7,201.1,372.3,199.9,372.3z"/>
								</g>
								<g>
									<path fill="#E74256" d="M203.5,380.4c-1.5-0.2-3.7-1.2-4.8-1.8l0.1-0.2c2.2,1.1,4.9,1.4,5.2,1.1c0,0,0.1-0.2-0.1-0.6
										c-1.2-2.7-7.6-3.9-7.6-3.9l0.2-0.8c0.3,0,7,1.4,8.4,4.5c0.3,0.7,0.3,1.2-0.2,1.5C204.4,380.4,204,380.4,203.5,380.4z"/>
								</g>
								<g>
									<path fill="#E74256" d="M182.5,369.9c-1.2-0.6-5.2-2.6-5.4-3.9c0-0.3,0.1-0.6,0.4-0.8c1.7-1,8.6,3.2,10.7,4.6l-0.6,0.7
										c-4-2.6-8.7-5-9.5-4.6C177.9,366.3,179.6,368.5,182.5,369.9L182.5,369.9z"/>
								</g>
								<g>
									<path fill="#E74256" d="M178.9,375.7c-0.3,0-0.5-0.1-0.7-0.2c-0.2-0.1-0.5-0.4-0.4-1c0.4-1.9,7.7-2.3,9.9-2.4l0.1,0.8
										c-4.2,0.2-8.9,0.9-9.1,1.8c0,0.1,0,0.1,0,0.1c0.3,0.2,2.1-0.1,4-0.9l0.1,0.2C182.1,374.4,180.2,375.8,178.9,375.7z"/>
								</g>
								<path fill="#E74256" d="M204.2,385.3c0,0,7.3,4.4,11.5,2.2c3.5-1.9,4.2-16.2,3.6-19.9C219.3,367.7,219.1,387.5,204.2,385.3z
									"/>
								<path fill="#E74256" d="M177.3,379.2c0,0-6.7,1.6-8.8-2.1c-1.8-3.1-0.4-15.7-0.4-15.7s-5.7,16.1-1.7,20.6
									C170.4,386.7,175.3,381.9,177.3,379.2z"/>
								<path fill="#E74256" d="M200.7,366.7c0,0,12.9-8.2,17-7.2C217.8,359.4,218.3,362.1,200.7,366.7z"/>
								<path fill="#E74256" d="M185.3,365c0,0-10.9-10.8-15.1-10.7C170.2,354.3,169.1,356.8,185.3,365z"/>
							</g>
						</g>
						<g>
							<path fill="#EB6372" d="M310.9,364.3c0,0,5.8-8.3,18.8-11.2c0,0,11.4,19.7,2.8,33.2c0,0-12.5,1.5-18.5-9.2
								C313.9,377.1,310.5,371.1,310.9,364.3z"/>
							<g>
								<path fill="#EB6372" d="M300.3,367.1c0,0-8.3-10.3-22.5-8.5c0,0-3.4,15,3.5,32.4c0,0,17.6-2.6,20.4-11.4L300.3,367.1z"/>
								<path fill="#E74256" d="M310.9,364.3c0,0-1.6-0.9-4.7,0c-3.2,0.9-3.6,0-5.9,2.9l1.4,12.6c0,0,4.5,0.8,6.7-0.7
									c2.3-1.5,5.6-0.9,5.5-1.9c-0.1-1-2.6-6.1-2.6-8.7C311.4,365.9,310.9,364.3,310.9,364.3z"/>
								<g>
									<path fill="#E74256" d="M298.7,372.3l0-0.2c-1.5-0.1-4.9-1.4-5-2c0-0.1,0.1-0.2,0.2-0.2c1.3-0.7,5.4,1.2,7.7,2.6l0.6-0.7
										c-1.1-0.6-6.6-3.7-8.8-2.6c-0.7,0.4-0.7,0.8-0.7,1.1C293.1,371.7,297.4,372.3,298.7,372.3z"/>
								</g>
								<g>
									<path fill="#E74256" d="M295.1,380.4c1.5-0.2,3.7-1.2,4.8-1.8l-0.1-0.2c-2.2,1.1-4.9,1.4-5.2,1.1c0,0-0.1-0.2,0.1-0.6
										c1.2-2.7,7.6-3.9,7.6-3.9l-0.2-0.8c-0.3,0-7,1.4-8.4,4.5c-0.3,0.7-0.3,1.2,0.2,1.5C294.2,380.4,294.6,380.4,295.1,380.4z"
										/>
								</g>
								<g>
									<path fill="#E74256" d="M316.1,369.9c1.2-0.6,5.2-2.6,5.4-3.9c0-0.3-0.1-0.6-0.4-0.8c-1.7-1-8.6,3.2-10.7,4.6l0.6,0.7
										c4-2.6,8.7-5,9.5-4.6C320.6,366.3,319,368.5,316.1,369.9L316.1,369.9z"/>
								</g>
								<g>
									<path fill="#E74256" d="M319.7,375.7c0.3,0,0.5-0.1,0.7-0.2c0.2-0.1,0.5-0.4,0.4-1c-0.4-1.9-7.7-2.3-9.9-2.4l-0.1,0.8
										c4.2,0.2,8.9,0.9,9.1,1.8c0,0.1,0,0.1,0,0.1c-0.3,0.2-2.1-0.1-4-0.9l-0.1,0.2C316.4,374.4,318.3,375.8,319.7,375.7z"/>
								</g>
								<path fill="#E74256" d="M294.3,385.3c0,0-7.3,4.4-11.5,2.2c-3.5-1.9-4.2-16.2-3.6-19.9C279.3,367.7,279.5,387.5,294.3,385.3
									z"/>
								<path fill="#E74256" d="M321.2,379.2c0,0,6.7,1.6,8.8-2.1c1.8-3.1,0.4-15.7,0.4-15.7s5.7,16.1,1.7,20.6
									C328.2,386.7,323.3,381.9,321.2,379.2z"/>
								<path fill="#E74256" d="M297.8,366.7c0,0-12.9-8.2-17-7.2C280.8,359.4,280.3,362.1,297.8,366.7z"/>
								<path fill="#E74256" d="M313.2,365c0,0,10.9-10.8,15.1-10.7C328.3,354.3,329.4,356.8,313.2,365z"/>
							</g>
						</g>
					</g>
				</g>
			</g>
			<g>
				<g>
					<ellipse fill="#F8D2D1" cx="249" cy="200.2" rx="123.4" ry="22.3"/>
					<path fill="#F4AFB2" d="M249,222.5c-68.1,0-123.4-10-123.4-22.3v124.7c0,0,4.6,20.9,123.4,20.9c118.7,0,123.4-20.9,123.4-20.9
						V200.2C372.3,212.5,317.1,222.5,249,222.5z"/>
				</g>
				<g>
					<g>
						<g>
							<path fill="#703E3A" d="M249,315.9c-68.1,0-123.4-10-123.4-22.3v12.3c0,0,4.6,20.8,123.4,20.8c118.7,0,123.4-20.8,123.4-20.8
								v-12.3C372.3,305.9,317.1,315.9,249,315.9z"/>
						</g>
						<g>
							<path fill="#703E3A" d="M249,292.8c-68.1,0-123.4-10-123.4-22.3v12.3c0,0,4.6,20.8,123.4,20.8c118.7,0,123.4-20.8,123.4-20.8
								v-12.3C372.3,282.8,317.1,292.8,249,292.8z"/>
						</g>
					</g>
					<g>
						<path fill="#F08890" d="M125.6,200.4c0,0,10,51,81.2,20.8C206.8,221.1,131,290.9,125.6,200.4z"/>
						<path fill="#F08890" d="M372.7,200.4c0,0-10,51-81.2,20.8C291.5,221.1,367.4,290.9,372.7,200.4z"/>
						<path fill="#F08890" d="M206.8,221.1c0,0,35.4,31.3,84.7,0C291.5,221.1,252.5,293.1,206.8,221.1z"/>
						<g>
							<path fill="#EB6372" d="M200.1,219c0,0-4.6-6.6-15.1-8.9c0,0-9.1,15.6-2.2,26.4c0,0,10,1.2,14.8-7.3
								C197.7,229.2,200.4,224.5,200.1,219z"/>
							<g>
								<path fill="#EB6372" d="M208.6,221.3c0,0,6.6-8.2,18-6.7c0,0,2.7,11.9-2.8,25.7c0,0-14.1-2.1-16.3-9.1L208.6,221.3z"/>
								<path fill="#E74256" d="M200.1,219c0,0,1.2-0.7,3.8,0c2.5,0.7,2.9,0,4.7,2.3l-1.1,10c0,0-3.6,0.6-5.4-0.6
									c-1.8-1.2-4.5-0.7-4.4-1.5c0.1-0.8,2.1-4.9,2.1-6.9C199.7,220.3,200.1,219,200.1,219z"/>
								<g>
									<path fill="#E74256" d="M209.9,225.5l0-0.1c1.2-0.1,3.9-1.1,4-1.6c0-0.1-0.1-0.1-0.2-0.1c-1-0.5-4.3,1-6.2,2.1l-0.4-0.6
										c0.9-0.5,5.3-3,7-2.1c0.6,0.3,0.6,0.7,0.5,0.9C214.4,224.9,210.9,225.4,209.9,225.5z"/>
								</g>
								<g>
									<path fill="#E74256" d="M212.7,231.8c-1.2-0.1-3-1-3.8-1.4l0.1-0.2c1.8,0.9,3.9,1.1,4.2,0.9c0,0,0.1-0.1-0.1-0.5
										c-0.9-2.1-6.1-3.1-6.1-3.1l0.1-0.6c0.2,0,5.6,1.1,6.7,3.6c0.2,0.6,0.2,1-0.1,1.2C213.5,231.8,213.1,231.9,212.7,231.8z"/>
								</g>
								<g>
									<path fill="#E74256" d="M195.9,223.5c-1-0.5-4.2-2.1-4.3-3.1c0-0.2,0.1-0.5,0.4-0.6c1.4-0.8,6.9,2.6,8.5,3.6L200,224
										c-3.2-2-7-4-7.6-3.6C192.3,220.7,193.6,222.4,195.9,223.5L195.9,223.5z"/>
								</g>
								<g>
									<path fill="#E74256" d="M193.1,228.1c-0.2,0-0.4-0.1-0.5-0.2c-0.1-0.1-0.4-0.3-0.3-0.8c0.3-1.5,6.2-1.9,7.9-1.9l0.1,0.7
										c-3.4,0.1-7.1,0.7-7.3,1.4c0,0.1,0,0.1,0,0.1c0.2,0.2,1.6-0.1,3.2-0.7l0.1,0.2C195.7,227.1,194.1,228.2,193.1,228.1z"/>
								</g>
								<path fill="#E74256" d="M213.3,235.7c0,0,5.9,3.5,9.2,1.8c2.8-1.5,3.4-12.8,2.9-15.8C225.4,221.8,225.3,237.5,213.3,235.7z"
									/>
								<path fill="#E74256" d="M191.8,230.9c0,0-5.4,1.3-7-1.6c-1.4-2.5-0.3-12.4-0.3-12.4s-4.6,12.7-1.4,16.4
									C186.2,236.8,190.2,233.1,191.8,230.9z"/>
								<path fill="#E74256" d="M210.5,221c0,0,10.3-6.5,13.6-5.7C224.2,215.2,224.6,217.4,210.5,221z"/>
								<path fill="#E74256" d="M198.2,219.6c0,0-8.7-8.6-12.1-8.5C186.1,211.1,185.2,213.2,198.2,219.6z"/>
							</g>
						</g>
						<g>
							<path fill="#EB6372" d="M298.7,219c0,0,4.6-6.6,15.1-8.9c0,0,9.1,15.6,2.2,26.4c0,0-10,1.2-14.9-7.3
								C301.2,229.2,298.4,224.5,298.7,219z"/>
							<g>
								<path fill="#EB6372" d="M290.3,221.3c0,0-6.6-8.2-18-6.7c0,0-2.7,11.9,2.8,25.7c0,0,14.1-2.1,16.3-9.1L290.3,221.3z"/>
								<path fill="#E74256" d="M298.7,219c0,0-1.2-0.7-3.8,0c-2.5,0.7-2.9,0-4.7,2.3l1.1,10c0,0,3.6,0.6,5.4-0.6
									c1.8-1.2,4.5-0.7,4.4-1.5c-0.1-0.8-2.1-4.9-2.1-6.9C299.2,220.3,298.7,219,298.7,219z"/>
								<g>
									<path fill="#E74256" d="M289,225.5l0-0.1c-1.2-0.1-3.9-1.1-4-1.6c0-0.1,0.1-0.1,0.2-0.1c1-0.5,4.3,1,6.2,2.1l0.4-0.6
										c-0.9-0.5-5.3-3-7-2.1c-0.6,0.3-0.6,0.7-0.5,0.9C284.5,224.9,288,225.4,289,225.5z"/>
								</g>
								<g>
									<path fill="#E74256" d="M286.1,231.8c1.2-0.1,3-1,3.8-1.4l-0.1-0.2c-1.7,0.9-3.9,1.1-4.2,0.9c0,0-0.1-0.1,0.1-0.5
										c0.9-2.1,6.1-3.1,6.1-3.1l-0.1-0.6c-0.2,0-5.6,1.1-6.7,3.6c-0.2,0.6-0.2,1,0.1,1.2C285.4,231.8,285.7,231.9,286.1,231.8z"
										/>
								</g>
								<g>
									<path fill="#E74256" d="M302.9,223.5c1-0.5,4.2-2.1,4.3-3.1c0-0.2-0.1-0.5-0.4-0.6c-1.4-0.8-6.9,2.6-8.5,3.6l0.5,0.5
										c3.2-2,7-4,7.6-3.6C306.6,220.7,305.3,222.4,302.9,223.5L302.9,223.5z"/>
								</g>
								<g>
									<path fill="#E74256" d="M305.8,228.1c0.2,0,0.4-0.1,0.5-0.2c0.1-0.1,0.4-0.3,0.3-0.8c-0.3-1.5-6.2-1.9-8-1.9l-0.1,0.7
										c3.4,0.1,7.1,0.7,7.2,1.4c0,0.1,0,0.1,0,0.1c-0.2,0.2-1.6-0.1-3.2-0.7l-0.1,0.2C303.2,227.1,304.7,228.2,305.8,228.1z"/>
								</g>
								<path fill="#E74256" d="M285.5,235.7c0,0-5.9,3.5-9.2,1.8c-2.8-1.5-3.4-12.8-2.9-15.8C273.4,221.8,273.6,237.5,285.5,235.7z
									"/>
								<path fill="#E74256" d="M307,230.9c0,0,5.4,1.3,7-1.6c1.4-2.5,0.3-12.4,0.3-12.4s4.6,12.7,1.4,16.4
									C312.6,236.8,308.7,233.1,307,230.9z"/>
								<path fill="#E74256" d="M288.3,221c0,0-10.3-6.5-13.6-5.7C274.7,215.2,274.2,217.4,288.3,221z"/>
								<path fill="#E74256" d="M300.6,219.6c0,0,8.7-8.6,12.1-8.5C312.7,211.1,313.6,213.2,300.6,219.6z"/>
							</g>
						</g>
					</g>
				</g>
			</g>
			<g>
				<g>
					<ellipse fill="#F8D2D1" cx="249" cy="92" rx="91.1" ry="16.5"/>
					<path fill="#F4AFB2" d="M249,108.5c-50.3,0-91.1-7.4-91.1-16.5v92.1c0,0,3.4,15.4,91.1,15.4c87.7,0,91.1-15.4,91.1-15.4V92
						C340.1,101.1,299.3,108.5,249,108.5z"/>
				</g>
				<g>
					<g>
						<g>
							<path fill="#703E3A" d="M249,171.9c-50.3,0-91.1-7.4-91.1-16.6V167c0,0,3.4,15.6,91.1,15.6c87.7,0,91.1-15.6,91.1-15.6v-11.7
								C340.1,164.4,299.3,171.9,249,171.9z"/>
						</g>
						<g>
							<path fill="#703E3A" d="M249,150.7c-50.3,0-91.1-7.4-91.1-16.6v11.7c0,0,3.4,15.6,91.1,15.6c87.7,0,91.1-15.6,91.1-15.6
								v-11.7C340.1,143.2,299.3,150.7,249,150.7z"/>
						</g>
					</g>
					<g>
						<path fill="#F08890" d="M157.9,88.7c0,0,7.4,37.4,59.9,15.2C217.7,104,161.8,155.1,157.9,88.7z"/>
						<path fill="#F08890" d="M340.1,88.7c0,0-7.4,37.4-59.9,15.2C280.2,104,336.1,155.1,340.1,88.7z"/>
						<path fill="#F08890" d="M217.7,104c0,0,26.1,22.9,62.4,0C280.2,104,251.4,156.7,217.7,104z"/>
						<g>
							<path fill="#EB6372" d="M213,102c0,0-3.9-5.6-12.8-7.6c0,0-7.8,13.3-1.9,22.3c0,0,8.5,1,12.7-6.2
								C210.9,110.6,213.3,106.6,213,102z"/>
							<g>
								<path fill="#EB6372" d="M220.2,103.9c0,0,5.6-6.9,15.4-5.7c0,0,2.3,10.1-2.4,21.8c0,0-12-1.7-13.9-7.7L220.2,103.9z"/>
								<path fill="#E74256" d="M213,102c0,0,1.1-0.6,3.2,0c2.2,0.6,2.4,0,4,1.9l-0.9,8.4c0,0-3.1,0.5-4.6-0.5
									c-1.6-1-3.8-0.6-3.7-1.2c0.1-0.7,1.8-4.1,1.8-5.8C212.6,103.1,213,102,213,102z"/>
								<g>
									<path fill="#E74256" d="M221.3,107.4l0-0.1c1-0.1,3.3-0.9,3.4-1.3c0,0-0.1-0.1-0.1-0.1c-0.9-0.4-3.7,0.8-5.3,1.7l-0.4-0.5
										c0.7-0.4,4.5-2.5,6-1.7c0.5,0.3,0.5,0.6,0.4,0.7C225.1,107,222.2,107.3,221.3,107.4z"/>
								</g>
								<g>
									<path fill="#E74256" d="M223.8,112.8c-1-0.1-2.5-0.8-3.3-1.2l0.1-0.1c1.5,0.8,3.3,1,3.6,0.8c0,0,0-0.1-0.1-0.4
										c-0.8-1.8-5.2-2.6-5.2-2.7l0.1-0.5c0.2,0,4.8,0.9,5.7,3c0.2,0.5,0.2,0.8-0.1,1C224.4,112.8,224.1,112.8,223.8,112.8z"/>
								</g>
								<g>
									<path fill="#E74256" d="M209.4,105.8c-0.8-0.4-3.6-1.7-3.7-2.6c0-0.2,0.1-0.4,0.3-0.5c1.2-0.7,5.9,2.2,7.3,3.1l-0.4,0.4
										c-2.7-1.7-6-3.4-6.5-3.1C206.3,103.3,207.4,104.8,209.4,105.8L209.4,105.8z"/>
								</g>
								<g>
									<path fill="#E74256" d="M207,109.6c-0.2,0-0.3-0.1-0.5-0.1c-0.1-0.1-0.3-0.3-0.3-0.6c0.3-1.3,5.3-1.6,6.8-1.6l0.1,0.6
										c-2.9,0.1-6.1,0.6-6.2,1.2c0,0.1,0,0.1,0,0.1c0.2,0.1,1.4-0.1,2.7-0.6l0.1,0.1C209.2,108.8,207.9,109.7,207,109.6z"/>
								</g>
								<path fill="#E74256" d="M224.3,116.1c0,0,5,3,7.8,1.5c2.4-1.2,2.9-10.9,2.5-13.3C234.6,104.3,234.4,117.6,224.3,116.1z"/>
								<path fill="#E74256" d="M205.9,112c0,0-4.6,1.1-6-1.4c-1.2-2.1-0.3-10.5-0.3-10.5s-3.9,10.8-1.2,13.9
									C201.2,117,204.5,113.8,205.9,112z"/>
								<path fill="#E74256" d="M221.9,103.6c0,0,8.8-5.5,11.6-4.9C233.5,98.7,233.9,100.5,221.9,103.6z"/>
								<path fill="#E74256" d="M211.4,102.5c0,0-7.4-7.3-10.3-7.2C201,95.3,200.3,97,211.4,102.5z"/>
							</g>
						</g>
						<g>
							<path fill="#EB6372" d="M287.1,101.9c0,0,4-5.6,12.8-7.6c0,0,7.8,13.3,1.9,22.3c0,0-8.5,1-12.7-6.2
								C289.2,110.5,286.9,106.5,287.1,101.9z"/>
							<g>
								<path fill="#EB6372" d="M279.9,103.8c0,0-5.6-6.9-15.4-5.7c0,0-2.3,10.1,2.4,21.8c0,0,12-1.7,13.9-7.7L279.9,103.8z"/>
								<path fill="#E74256" d="M287.1,101.9c0,0-1.1-0.6-3.2,0c-2.2,0.6-2.4,0-4,1.9l0.9,8.4c0,0,3.1,0.5,4.6-0.5
									c1.6-1,3.8-0.6,3.7-1.2c-0.1-0.6-1.8-4.1-1.8-5.8C287.5,103,287.1,101.9,287.1,101.9z"/>
								<g>
									<path fill="#E74256" d="M278.8,107.3l0-0.1c-1-0.1-3.3-0.9-3.4-1.3c0,0,0.1-0.1,0.1-0.1c0.9-0.4,3.7,0.8,5.3,1.7l0.4-0.5
										c-0.7-0.4-4.5-2.5-6-1.8c-0.5,0.3-0.5,0.6-0.4,0.7C275,106.9,277.9,107.2,278.8,107.3z"/>
								</g>
								<g>
									<path fill="#E74256" d="M276.4,112.7c1-0.1,2.5-0.8,3.3-1.2l-0.1-0.1c-1.5,0.8-3.3,0.9-3.6,0.8c0,0,0-0.1,0.1-0.4
										c0.8-1.8,5.2-2.6,5.2-2.7l-0.1-0.5c-0.2,0-4.8,0.9-5.7,3c-0.2,0.5-0.2,0.8,0.1,1C275.7,112.7,276,112.7,276.4,112.7z"/>
								</g>
								<g>
									<path fill="#E74256" d="M290.7,105.7c0.8-0.4,3.6-1.7,3.7-2.6c0-0.2-0.1-0.4-0.3-0.5c-1.2-0.7-5.9,2.2-7.3,3.1l0.4,0.4
										c2.7-1.7,6-3.4,6.5-3.1C293.8,103.3,292.7,104.8,290.7,105.7L290.7,105.7z"/>
								</g>
								<g>
									<path fill="#E74256" d="M293.1,109.5c0.2,0,0.3-0.1,0.5-0.1c0.1-0.1,0.3-0.3,0.3-0.6c-0.3-1.3-5.3-1.6-6.8-1.6l-0.1,0.6
										c2.9,0.1,6.1,0.6,6.2,1.2c0,0.1,0,0.1,0,0.1c-0.2,0.1-1.4-0.1-2.7-0.6l-0.1,0.1C290.9,108.7,292.2,109.6,293.1,109.5z"/>
								</g>
								<path fill="#E74256" d="M275.8,116c0,0-5,3-7.8,1.5c-2.4-1.2-2.9-10.9-2.5-13.3C265.6,104.2,265.7,117.5,275.8,116z"/>
								<path fill="#E74256" d="M294.2,111.9c0,0,4.6,1.1,6-1.4c1.2-2.1,0.3-10.5,0.3-10.5s3.9,10.8,1.2,13.9
									C299,116.9,295.6,113.8,294.2,111.9z"/>
								<path fill="#E74256" d="M278.2,103.5c0,0-8.8-5.5-11.6-4.9C266.6,98.6,266.2,100.4,278.2,103.5z"/>
								<path fill="#E74256" d="M288.8,102.4c0,0,7.4-7.3,10.3-7.2C299.1,95.2,299.8,96.9,288.8,102.4z"/>
							</g>
						</g>
					</g>
				</g>
			</g>
		</g>
		<g>
			<g>
				
					<ellipse transform="matrix(0.9756 -0.2194 0.2194 0.9756 -12.8085 52.183)" fill="#F1C3C3" cx="228.6" cy="83.8" rx="10.9" ry="5.4"/>
				<g>
					<path fill="#684334" d="M230.7,83.1c0.2,0.7-0.7,1.5-1.9,1.8l0,0c-1.2,0.3-2.3-0.1-2.4-0.8L212,20.2c-0.2-0.7,0.7-1.5,1.9-1.8
						l0,0c1.2-0.3,2.3,0.1,2.4,0.8L230.7,83.1z"/>
					<g>
						<path fill="#EB6372" d="M244.4,11.3c-2.3-6.1-8.3-11.3-15.6-11.3c-1.6,0-3.1,0.2-4.5,0.5c-3.9,0.9-7.2,3-10.2,6.6
							c-1.3,1.6-2.1,3.3-2.6,4.7c0,0,0,0,0,0c0,0,0,0,0,0c-1-1.1-2.5-2.3-4.4-3.1c-4.3-2-8.1-2.5-12-1.6c-1.4,0.3-2.8,0.8-4.2,1.5
							c-6.5,3.1-9.1,10.2-8.6,16.7c0.4,5,4,10.9,12.3,16.1c7.7,4.8,20.3,11.4,25.8,13.7l1.7,0.8l0.7-0.7c4-4.5,12.7-15.1,17.6-22.8
							C245.8,24.2,246.2,16,244.4,11.3z"/>
						<path fill="#E94D61" d="M241.7,30.4c-6.8,9.3-14.6,16.7-19.7,18.9c-5.2,2.3-26.3-10.9-32.4-18.7c-6.1-7.8-5.2-15.8-5.2-15.8
							l0,0c-1.7,3.1-2.3,6.9-2,10.4c0.4,5,4,10.9,12.3,16.1c7.7,4.8,20.3,11.4,25.8,13.7l1.7,0.8l0.7-0.7c4-4.5,12.7-15.1,17.6-22.8
							C240.9,31.8,241.3,31.1,241.7,30.4z"/>
						<path fill="#EE7D8D" d="M215,18.2c-2-2.8,2.2-10.9,12.6-13c10.4-2.1,14.9,11.6,11.1,18c-3.8,6.4-8.4-4.7-11.2-5.6
							C221.8,15.7,217.6,21.8,215,18.2z"/>
					</g>
				</g>
			</g>
			<g>
				<path fill="#F1C3C3" d="M285.8,88.9c-0.5,3-5.6,4.6-11.6,3.7c-6-0.9-10.4-4-10-7c0.4-2.9,5.6-4.6,11.6-3.7
					C281.7,82.8,286.2,86,285.8,88.9z"/>
				<g>
					<path fill="#684334" d="M277.2,87.4c-0.1,0.7-1.2,1.2-2.4,1l0,0c-1.2-0.2-2.1-0.9-2-1.6l9.9-64.7c0.1-0.7,1.2-1.2,2.4-1l0,0
						c1.2,0.2,2.1,0.9,2,1.7L277.2,87.4z"/>
					<g>
						<path fill="#EB6372" d="M316.1,25.5c0.1-6.5-3.7-13.5-10.4-16.1c-1.5-0.6-2.9-1-4.3-1.2c-4-0.6-7.8,0.2-11.9,2.5
							c-1.8,1-3.2,2.3-4.1,3.4c0,0,0,0,0,0c0,0,0,0,0,0c-0.6-1.4-1.5-3-2.9-4.5c-3.3-3.4-6.6-5.3-10.6-5.9c-1.4-0.2-2.9-0.3-4.5-0.2
							c-7.2,0.5-12.2,6.2-14.1,12.4c-1.4,4.8-0.3,11.6,5.6,19.5c5.4,7.3,14.8,18,19.1,22.1l1.3,1.4l0.9-0.3
							c5.4-2.7,17.3-9.5,24.7-14.8C312.7,38,316,30.6,316.1,25.5z"/>
						<path fill="#E94D61" d="M306.6,42.3c-9.7,6.1-19.7,10.2-25.3,10.5c-5.6,0.2-20.5-19.7-23.4-29.2c-2.9-9.5,0.9-16.6,0.9-16.6h0
							c-2.7,2.3-4.7,5.5-5.7,9c-1.4,4.8-0.3,11.6,5.6,19.5c5.4,7.3,14.8,18,19.1,22.1l1.3,1.4l0.9-0.3c5.4-2.7,17.3-9.5,24.7-14.8
							C305.4,43.3,306,42.8,306.6,42.3z"/>
						<path fill="#EE7D8D" d="M286.2,21.2c-0.9-3.3,6-9.3,16.5-7.5c10.4,1.8,9.7,16.2,3.8,20.8c-5.9,4.6-6.1-7.5-8.4-9.3
							C293.4,21.4,287.3,25.6,286.2,21.2z"/>
					</g>
				</g>
			</g>
		</g>
	</g>
</g>
</svg>
