<?xml version="1.0" encoding="utf-8"?>
<!-- Generator: Adobe Illustrator 21.1.0, SVG Export Plug-In . SVG Version: 6.00 Build 0)  -->
<svg version="1.1" baseProfile="tiny" id="Слой_1"
	 xmlns="http://www.w3.org/2000/svg" xmlns:xlink="http://www.w3.org/1999/xlink" x="0px" y="0px" viewBox="0 0 512 512"
	 overflow="scroll" xml:space="preserve">
<g>
	<g>
		<path fill="#333333" d="M248,319.1c-39.7,76.9-140.1,95.6-204.7,38.1C-1.1,317.7-13.2,252.7,14,199.9
			c39.7-76.9,140.1-95.6,204.7-38.1C263.1,201.3,275.2,266.3,248,319.1z"/>
		<path fill="#4D4D4D" d="M228,227.2c-1.6-35.9-18.9-67.4-45-88.2c-56.5-24.4-124.1-6.4-160.2,46.3C1.1,216.8-4.9,254.5,3.1,289.1
			C24.1,328,65.9,353.7,112.9,352C179,349.5,230.9,293.2,228,227.2z"/>
		<path fill="#666666" d="M189.7,207.3c1.4,50.9-48.1,98.6-100,100c-27,0.7-66-11-79.5-42.7c-19-44.7,28.1-90.8,33-95.5
			c25-23.8,74.7-48.9,112.3-26C187.9,162.9,189.7,205.1,189.7,207.3z"/>
		<path fill="#757575" d="M119.7,143.2c-39.1-1.2-66.3,25.9-71.7,31.6c-13.5,14.1-37.3,47-27,62.4c13.6,20.4,83.6,6.1,123.9-32.4
			c7.9-7.6,27-25.8,22-41.3C160.9,144.9,124.3,143.4,119.7,143.2z"/>
		<path fill="#BDBDBD" d="M83.2,153.7c-8.5,4-15.2,14.4-12.4,19.8c3.1,5.8,17.4,6.1,25.9-0.5c5.3-4.1,10.1-12.5,7.2-17.6
			C100.7,150,90,150.5,83.2,153.7z"/>
	</g>
	
		<ellipse transform="matrix(0.8931 -0.4499 0.4499 0.8931 -59.8347 137.6188)" fill="#232222" cx="259.6" cy="194.7" rx="5.4" ry="31.9"/>
	<g>
		<path fill="#D0AF65" d="M247.2,199.8c0.3,0.2-2.3,1.3-2,1.5c10.2,7.5,17.8,1.1,17.7,1.1c0,0,7-16.8,14-27
			c7.2-10.5,20.6-16.6,33.1-16.3c13.1,0.3,21,11.8,27.6,21.5c5.3,7.9,11.2,20,20.7,23.6c2.6,1,4.7,1.3,6.5,1
			c7.4-1,7.5-11.4,7.5-11.4c-3.5-0.4-6.5-2.3-9.2-5.1c-0.2-0.2-0.5-0.5-0.7-0.7c-1.8-1.9-3.4-4.1-4.8-6.3c-0.3-0.5-0.6-1-0.9-1.5
			c-2.5-4.1-4.7-8.3-6.6-11.3c-0.9-1.4-1.8-2.8-2.7-4.1c-0.3-0.4-0.6-0.9-0.9-1.3c-4-5.5-8.6-10.4-14.5-13.7
			c-0.7-0.4-1.4-0.8-2.1-1.2c-0.7-0.4-1.5-0.7-2.2-1c-3-1.2-6-2.2-9.2-2.9c-0.1,0-0.2,0-0.3-0.1c-3.5-0.8-7.2-1.3-10.8-1.4
			c-0.8,0-1.5,0-2.3,0c-6.3,0.1-12.6,1.3-18.3,4c-0.4,0.2-0.7,0.3-1,0.5c-0.4,0.2-0.7,0.4-1.1,0.6c-5.9,3.2-10.9,7.6-15.3,12.6
			c-0.7,0.8-1.3,1.6-2,2.4c-3.4,4.2-6.4,8.7-9.1,13.4c-0.1,0.2-0.2,0.3-0.3,0.5c-0.2,0.3-0.3,0.6-0.5,0.9c-2.8,4.9-5.2,9.9-7.4,15.1
			C249.4,194.1,246.3,199.2,247.2,199.8z"/>
		<path fill="#E3BF6A" d="M318.1,144.9c4.1,1.3,8,3,11.6,5.5c13.6,9.1,20.6,25.1,26.5,40.4c1.9,4.9,3.9,10.1,7.6,13.9
			c0.3,0.3,0.6,0.6,0.9,0.8c7.4-1,7.5-11.4,7.5-11.4c-3.5-0.4-6.5-2.3-9.2-5.1c-0.2-0.2-0.5-0.5-0.7-0.7c-1.8-1.9-3.4-4.1-4.8-6.3
			c-0.3-0.5-0.6-1-0.9-1.5c-2.5-4.1-4.7-8.3-6.6-11.3c-0.9-1.4-1.8-2.8-2.7-4.1c-0.3-0.4-0.6-0.9-0.9-1.3c-4-5.5-8.6-10.4-14.5-13.7
			c-0.7-0.4-1.4-0.8-2.1-1.2c-0.7-0.4-1.5-0.7-2.2-1C324.4,146.6,321.3,145.6,318.1,144.9z"/>
		<path fill="#B39455" d="M248,200.5c10.2,7.5,12,9,11.9,9c0,0,9.9-23.9,16.9-34c7.2-10.5,20.6-16.6,33.1-16.3
			c13.1,0.3,21,11.8,27.6,21.5c5.3,7.9,11.2,20,20.7,23.6c-0.5-0.6-1-1.2-1.6-1.8c-4.6-5.6-7.6-12.2-11.6-18.2
			c-7.1-10.5-15.3-20.9-27.2-26.2c-16.9-7.5-36.9-0.5-47.6,13.9C264.3,180.2,258.4,195.6,248,200.5z"/>
		<path fill="#B39455" d="M353.7,195.1c-0.9,0.9-1.7,2.1-1.8,3.3c-0.1,0.9,0.7,2.6,1.8,2.6c1.2-0.1,1.3-2.2,1.6-3.1
			c1.1-2.6,2.8-4.9,4.9-6.8c0.8-0.8,1.7-1.5,2.6-2.1c-0.2-0.2-0.5-0.5-0.7-0.7C359,190.1,356.1,192.4,353.7,195.1z"/>
		<path fill="#B39455" d="M345.6,190.8c-0.3,1.8,1.4,0.9,2.2,0.2c2.5-2.4,4.5-5.1,7.3-7.3c0.8-0.6,1.6-1.2,2.3-1.7
			c-0.3-0.5-0.6-1-0.9-1.5c-0.1,0-0.2,0.1-0.3,0.1c-2.9,1.5-5.6,3.6-7.8,6.1C347.5,187.7,345.8,189.4,345.6,190.8z"/>
		<path fill="#B39455" d="M335.7,172.2c-0.6,0.6-1.8,2-1.2,3c0.5,0.8,1.3,0.4,2-0.1c1.8-1.5,3.2-3.9,4.9-5.6
			c1.8-1.7,3.7-3.2,5.8-4.4c-0.3-0.4-0.6-0.9-0.9-1.3c-0.8,0.4-1.5,0.8-2.3,1.3C340.9,167,338.2,169.5,335.7,172.2z"/>
		<path fill="#B39455" d="M322.9,157.5c-0.5,0.9-3.6,4.9-1,4.7c2.1-0.1,3.3-3.4,4.3-4.9c1.5-2.3,3.2-4.6,5.1-6.7
			c0.2-0.2,0.3-0.4,0.5-0.6c-0.7-0.4-1.4-0.8-2.1-1.2c-0.6,0.5-1.1,1.1-1.6,1.6C326.1,152.6,324.5,155,322.9,157.5z"/>
		<path fill="#B39455" d="M303.7,148.8c-0.1,1.2-1.1,7,0.2,7.7c2.7,1.4,2.7-10.7,2.8-11.7c0.1-0.5,0.1-1,0.2-1.4c-0.8,0-1.5,0-2.3,0
			C304.3,145.1,303.9,147,303.7,148.8z"/>
		<path fill="#B39455" d="M285.4,147.8c-0.6,3.7-0.7,7.5,0.6,10.9c0.4,1,0.8,2.1,2.1,1.8c0.9-0.2,1.2-1.1,1.1-1.9
			c-0.2-1.3-1.1-2.7-1.5-3.9c-0.4-1.4-0.7-2.8-0.9-4.2c-0.2-1-0.2-2.1-0.3-3.2C286.1,147.5,285.8,147.6,285.4,147.8z"/>
		<path fill="#F98D25" d="M300.9,217.9c0,0,47.7,6.1,66.7-23.4c19-29.5,10.9-64.4,10.9-64.4S416,201,492.4,166.3
			c-45.5,52.3,18.3,96.1,19.2,96.7c0,0-42.8,0.1-56.3,22.5c-10,16.7-12.6,47.1-12.6,47.1s-17.9-31.4-52.9-36.5
			c-24.3-3.6-49.6,17.9-49.6,17.9s17.4-30.3,8.3-55.9C338.5,230.5,300.9,217.9,300.9,217.9z"/>
		<path fill="#FFF200" d="M346.9,224.2c0,0,26.7,3.4,37.4-13.1s6.1-36.1,6.1-36.1s21,39.7,63.8,20.3c-25.2,29,10.8,54.2,10.8,54.2
			s-24,0-31.5,12.6c-5.6,9.4-7.1,26.4-7.1,26.4s-10-17.6-29.7-20.5c-13.6-2-27.8,10-27.8,10s9.8-17,4.6-31.3
			C368,231.2,346.9,224.2,346.9,224.2z"/>
	</g>
	<path fill="#424242" d="M254.8,197.1c-7.9-15.7-12.2-29.6-9.5-30.9l-16.8,8.5c-3,1.5-3.1,10.5-1.4,18.5
		c2.2,10.5,8.1,20.7,15.2,28.8c5.5,6.3,11.8,11.2,14.9,9.7l16.8-8.5C271.3,224.5,262.7,212.9,254.8,197.1z"/>
</g>
</svg>
