<?xml version="1.0" encoding="utf-8"?>
<!-- Generator: Adobe Illustrator 21.1.0, SVG Export Plug-In . SVG Version: 6.00 Build 0)  -->
<svg version="1.1" baseProfile="tiny" id="Слой_1"
	 xmlns="http://www.w3.org/2000/svg" xmlns:xlink="http://www.w3.org/1999/xlink" x="0px" y="0px" viewBox="0 0 512 512"
	 overflow="scroll" xml:space="preserve">
<g>
	<path id="XMLID_3343_" fill="#EF9A9A" d="M64.1,162.3c-3.3-3.4-10.9-12.2-16.4-7.9c-4.5,3.5-0.1,9.4,2.9,13.9
		c-10.8-2.7-20.5-9.4-32-5.5c-4,1.3-6.4,3.3-7.7,5.7c-0.6-0.1-1.2,0.3-1,1.1c0.1,0.4,0.2,0.7,0.2,1.1c-0.9,4.1,7.4,9.2,4,13.8
		C-9.5,215.7,78.8,222,89,216.1c9.5-5.6,1.9-19.2-1.9-25.5C80.7,180.1,72.6,171,64.1,162.3z"/>
	<path id="XMLID_3341_" fill="#E57373" d="M38.3,189.6c-4.7-0.6-16.1-2.8-17.7,3.9c-1.3,5.5,5.7,7.5,10.9,9.1
		c-10.1,4.6-21.9,5.3-28.5,15.5c-2.3,3.6-3,6.6-2.5,9.2c-0.5,0.3-0.7,1-0.2,1.5c0.3,0.2,0.6,0.5,0.9,0.7c1.8,3.8,11.6,2.6,11.7,8.3
		c0.9,39.2,74.1-10.6,78.4-21.5c4-10.3-10.4-16.3-17.3-18.8C62.4,193.3,50.4,191.2,38.3,189.6z"/>
	<path id="XMLID_3339_" fill="#EF9A9A" d="M70.5,92.3C70.7,89,71.8,81,67,80.1c-3.9-0.7-5,4.3-5.9,8c-3.6-6.8-4.6-15-12-19.2
		c-2.6-1.5-4.7-1.8-6.5-1.4c-0.2-0.3-0.7-0.5-1-0.1c-0.2,0.2-0.3,0.4-0.4,0.6c-2.6,1.4-1.4,8.1-5.3,8.5c-27.2,2.2,10.4,51,18.2,53.6
		c7.3,2.4,10.9-7.9,12.4-12.8C69,109.2,69.9,100.8,70.5,92.3z"/>
	<path id="XMLID_3337_" fill="#E57373" d="M44.4,91.5c-1.9-2.7-6-9.7-10.3-7.4c-3.5,1.8-1.2,6.4,0.3,9.9c-7-3.1-12.9-8.9-21.3-7.6
		c-2.9,0.4-4.8,1.5-6,3c-0.4-0.1-0.9,0.1-0.8,0.6c0,0.3,0,0.5,0,0.8c-1.1,2.7,4,7.2,1.1,9.9c-19.9,18.6,39.8,33.6,47.5,30.7
		c7.2-2.7,3.6-13,1.8-17.7C53.6,105.8,49.2,98.5,44.4,91.5z"/>
	<path id="XMLID_3336_" fill="#63977E" d="M201.3,224.3c-11.3-7.4-23.6-12.7-35.9-18.3c-18.9-8.6-37.2-17.9-54.1-30
		c-14.2-10.1-28.6-21.5-40.9-34c5-4,1-9.3-4.3-11.7c8.2-9.8,5.3-35.5,4.9-33.1c-1,5.5-3.9,19.4-6.4,25.5c0.7-1.8-0.7-9.9-3.3-14.5
		c-0.8-1.4-1.8,5.9-1.7,8.3c-0.1,2.5-0.7,5.1-1.5,7.6c-0.4-2.2-4.5-4.8-5.5-6.3c-1.3-1.9,4.1,8.9,4.8,10.8c-0.8,2.2-5.2-2.6-6.9-3.5
		c-2.9-1.9-1.2-0.9-9.1-5c0,0,7.8,10.8,11.5,11.5c-3.9,0.6-11.4-2.1-14.1-2.8c-4.1-1.1-9-3.2-13.4-2.9c-0.4,0-0.5,0.6-0.2,0.9
		c4.8,3.7,11.2,6.7,17,8.3c10.1,2.7,11.8,1,15.1,0.7c1.3,5.8,7.2,9.5,11.6,7.3c4.3,5.1,9.8,9.4,14.6,13.8c6.5,6,13.1,11.8,20.2,17.1
		c14.5,11,30,20.5,46.4,28.3c14,6.7,29.1,12,42.5,20c1.6,1,3.3,2,4.9,3c-4.7-2.8-9.4-5.5-14.7-7.3c-8.2-2.8-16.8-4.3-25.4-5.4
		c-8.8-1.1-17.6-2.1-26.4-2.8c-4.6-0.4-9.1,0-13.7,0.3c0.4-9.2-9-10-16.6-6.6c-2.6-18.1-33-39.7-30.9-36.9
		c4.9,6.4,17,22.7,21.2,31.2c-1.2-2.4-11.2-8.7-18.8-10.3c-2.2-0.5,4.6,7.6,7.3,9.8c2.6,2.6,4.8,5.6,6.7,8.8
		c-2.7-1.7-9.4,0.2-12-0.1c-3.2-0.4,13.4,4.1,16.1,5.2c1.6,2.9-7.8,3.1-10.4,4.1c-4.9,1.3-2.1,0.5-14.1,5c0,0,19.1,1.9,23.4-1.3
		c-3.1,4.8-13.1,10.2-16.5,12.4c-5.2,3.3-12,6.7-15.8,11.6c-0.4,0.5,0.2,1.2,0.7,1.1c8.6-1.6,17.9-5.6,25.2-10.4
		c12.5-8.2,12.4-11.6,15.1-15.5c7,3.9,15.8,1.7,18.5-4.2c3.3,0,6.9-0.8,9.8-0.7c9.3,0.2,18.9,1.8,28.2,2.9
		c9.4,1.1,18.8,2.6,27.7,5.7c8.2,2.9,15.9,7.1,24.1,10.1c0.2,0.1,0.4,0,0.6-0.2c1.4,1,2.8,2,4.2,3c1,0.8,2.9,3,3.3,1.8
		c-0.6,1.8,2.1,3,2.7,1.2C218.3,233.3,204,226.1,201.3,224.3z"/>
	<g>
		<path fill="#81C784" d="M232.9,279.2c0,0-91.8-62-136.5-214.5C167.6,255.1,246.2,274.6,232.9,279.2z"/>
		<path fill="#81C784" d="M235.9,217.9c0,0,15.2,38.5-14.2,51.8C208.4,234,235.9,217.9,235.9,217.9z"/>
		<path fill="#81C784" d="M210.6,194.5c0,0,15.2,38.5-14.2,51.8C183.1,210.6,210.6,194.5,210.6,194.5z"/>
		<path fill="#81C784" d="M178.6,268.8c0,0,27.2-19.3,43.4,1.1C196.6,287.3,178.6,268.8,178.6,268.8z"/>
		<path fill="#81C784" d="M188.4,168.1c0,0,15.2,38.5-14.2,51.8C160.9,184.3,188.4,168.1,188.4,168.1z"/>
		<path fill="#81C784" d="M164.2,138.5c0,0,13.7,34.7-12.8,46.7C139.4,153.1,164.2,138.5,164.2,138.5z"/>
		<path fill="#81C784" d="M143.7,117.4c0,0,10.8,27.5-10.1,37C124.1,129,143.7,117.4,143.7,117.4z"/>
		<path fill="#81C784" d="M132.4,90.7c0,0,10.8,27.5-10.1,37C112.7,102.2,132.4,90.7,132.4,90.7z"/>
		<path fill="#81C784" d="M120.1,70.2c0,0,9.5,24.1-8.9,32.5C102.8,80.3,120.1,70.2,120.1,70.2z"/>
		<path fill="#81C784" d="M104.4,143.5c0,0,23-7.8,30,9.7C113.1,160,104.4,143.5,104.4,143.5z"/>
		<path fill="#81C784" d="M117,173.6c0,0,26.9-9.2,35.2,11.4C127.3,193.1,117,173.6,117,173.6z"/>
		<path fill="#81C784" d="M91.6,117.6c0,0,23-7.8,30,9.7C100.3,134.2,91.6,117.6,91.6,117.6z"/>
		<path fill="#81C784" d="M88,90.3c0,0,24.3,0.5,24.8,19.4C90.5,108.9,88,90.3,88,90.3z"/>
		<path fill="#81C784" d="M94.4,61.7c0,0,17.2,10.8,9.5,24.6C88.2,76.1,94.4,61.7,94.4,61.7z"/>
	</g>
	<path id="XMLID_3329_" fill="#81C784" d="M335,356.6c-0.9,2-6.4-3.9-7.3-5.4c-0.3-0.4-0.7-0.8-1-1.1c2,3.7,4.8,18.9,4.8,18.9
		s-5.7-2.5-7.1-3.4c0.2,0.3,2,14.3,0.6,16.2c-0.9,1.3-4.1-2.9-5-4c1.2,4.5-0.9,16.2-0.9,16.2s-4.6-3.6-6.1-5.6
		c0.7,2.1,1.3,17-1.1,19.8c-1.2,1.4-4.3-7.9-5-8.6c0,0.1,0,0.2,0.1,0.3c0.7,3.9-2.9,20.5-2.9,20.5s-2.7-6.7-2.8-7.5
		c-0.5-1.6-1.3,2.2-1.3,2.2c-0.1,3.4-5.8,15.5-5.8,15.5s-2.5-5.7-2.5-7.6c-0.1-0.4-8,17.5-8.2,14.2c-0.1-0.8-1.6-5.2-1.7-6.1
		c-1.7,1.4-12.3,13.1-15.2,13.6c-1.6,0.3,0.5-21.5,0.3-22.9c-0.8,0.5-3.3,2.7-4.1,3.3c-2,1.4-5.8,3.3-5.6,1.1
		c0.3-3.6,2.8-13.9,4.1-17.6c-0.3,0.2-6.8,2.7-6.8,2.7s2.1-10.8,3.9-14.4c-0.7,0.3-7.3,2.4-7.3,2.4s2.6-15.3,5.5-20.1
		c0,0-7.3,1.7-7.4,1.7c-3.8,1.4,6.9-14.5,9.8-17.7c-17.8,8.8-2.3-14.8,3-19.1c-3.8-0.4-10-1.5-7.3-3.2c-3.4-1.1,45-33.4,51.8-31.6
		c0.9-0.7,2.1-0.9,3.4-0.4C312.9,310.3,337.3,351.7,335,356.6z"/>
	<g id="XMLID_3326_">
		<path id="XMLID_3328_" fill="#43785B" d="M168.1,241.9c-0.3-2.2,7.7-0.2,9.2,0.6c0.5,0.1,1,0.3,1.5,0.4
			c-3.7-2-14.5-13.5-14.5-13.5s6.2-1,7.9-0.9c-0.4-0.2-9.5-11.1-9.4-13.5c0.1-1.6,5.1,0.2,6.5,0.7c-3.5-3.2-8.2-14.4-8.2-14.4
			s5.9,0.6,8.3,1.4c-1.7-1.5-10.5-13.8-10-17.6c0.3-1.9,8,4.4,9,4.6c-0.1-0.1-0.2-0.2-0.2-0.3c-2.7-3-8.8-19.1-8.8-19.1
			s6,4.3,6.5,4.9c1.3,1.1-0.1-2.6-0.1-2.6c-1.8-2.9-3.6-16.5-3.6-16.5s5.3,3.4,6.3,5.1c0.3,0.3-2.8-19.4-0.8-16.7
			c0.5,0.7,4.2,3.6,4.8,4.3c0.7-2.1,3.2-18,5.5-20c1.2-1.1,11.4,18.7,12.3,19.8c0.4-0.9,1.4-4.2,1.7-5.1c0.9-2.2,3.1-6,4.2-4
			c1.8,3.3,5.3,13.4,6.2,17.3c0.2-0.3,4.3-6.1,4.3-6.1s4.1,10.4,4.6,14.5c0.4-0.6,4.9-6.1,4.9-6.1s6.2,14.5,6.4,20.3
			c0,0,5.4-5.5,5.4-5.5c2.5-3.3,2.1,16.2,1.4,20.5c10.4-17.4,10.1,11.4,7.9,18c3.5-1.8,9.4-4.2,8-1.3c3.6-1-20.1,53.3-26.9,55.6
			c-0.4,1-1.3,2-2.7,2.2C212.5,269.4,168.9,247.3,168.1,241.9z"/>
		<path id="XMLID_3327_" fill="#63977E" d="M212,265.7c-0.5,0.3-23.2-16.8-22.6-16.4c3.7,2.4,17.9,10.9,21.4,12.6
			c-1.6-5.1-3.2-10.2-4.7-15.3c-0.3,0-0.6,0-0.9-0.2c-3.6-1.9-20.7-10.8-23-14.8c-0.3-0.6,0.2-1.3,0.8-1c4.3,2.1,8.1,5.4,12.4,7.6
			c3,1.6,6.2,2.6,9.3,4c-1.2-3.8-2.3-7.6-3.5-11.4c-3.3,0.2-8.1-5-9.8-6.7c-5.4-5.3-13.4-10-17-16.9c-0.3-0.5,0.3-1.1,0.8-0.7
			c4.3,3.7,8.5,7.5,12.9,11.1c2.2,1.8,8.4,8.5,12,9.7c-1.5-4.9-2.9-9.8-4.4-14.8c-0.9,0-7-4.6-7.2-4.7c-2.7-2.1-5.2-4.4-7.6-6.8
			c-3.5-3.5-7.2-7.3-9.1-12c-0.1-0.2,0.2-0.3,0.3-0.2c3.4,3.6,6.3,7.4,10.2,10.6c2.1,1.8,4.3,3.4,6.6,4.9c1.8,1.2,3.6,1.9,5.4,2.7
			c-1.2-4.4-2.4-8.8-3.6-13.3c-0.6,0.2-2.3-1.5-2.4-1.6c0.2,0.3-16.3-19.6-15.9-19.2c3.8,3.7,14.1,13.7,15.4,15.2
			c0.5,0.6,1,1,1.7,1.3c0,0,0-0.1,0-0.1c-1-4-2-8.1-2.9-12.2c-0.7-0.1-4.8-5.6-5.6-6.9c-1.4-2.2-2.8-4.4-4.1-6.6
			c-0.3-0.5,0.4-0.9,0.7-0.5c1.3,1.8,2.7,3.6,4.1,5.3c0.9,1.1,1.9,2.1,2.9,3.1c0.2,0.2,0.6,0.7,1.1,1.1c-1.2-6.3-1.4-13.7-4.2-19.4
			c-0.3-0.6,0.8-1.1,1.1-0.5c3.1,5.7,4.4,12.8,5.7,19.8c0.4-1.2,1-2.5,1.4-3.6c0.6-1.7,1.3-3.4,1.8-5.2c0.4-1.5,1.4-2.8,1.6-4.4
			c0.1-0.7,1.1,2.3,0.7,3.4c-0.7,1.7-0.8,3.6-1.5,5.4c-0.9,2.4-1.2,6.7-3.3,8.5c0.5,2.8,1,5.5,1.7,8c0.7,2.7,1.4,5.3,2.1,8
			c1.9-3.5,2.8-7.4,4.3-11c1.7-4.3,3.6-8.9,4.8-13.3c0.2-0.7-1.3,8.4-2.6,12.4c-1.6,4.9-3,10.3-5.7,14.6c1.1,4,2.3,8,3.5,12
			c1.2-3,3.5-6.3,4.3-8.3c1.6-4,3.4-7.9,5-12c1.4-3.6,2.1-7.9,4.7-10.7c0.7-0.8-2.7,14.3-5.2,20.3c-2,5-7,15.5-7.3,15.7
			c1.1,3.6,2.2,7.3,3.4,10.9c8.1-6.3,16.6-26.8,17.9-33.6c0.2-1-2.1,11.9-4.2,17.1c-1.6,3.9-11.9,20.7-12.3,20.9
			c1.6,4.9,3.2,9.7,4.9,14.6c8.2-11.5,12-26,19.6-37.9c0.5-0.8-4.1,14.1-6.9,20c-3.4,7-6.2,14.5-10.8,20.9c-0.1,0.3-0.3,0.6-0.6,0.9
			l0,0c1.4,4.2,2.8,8.4,4.2,12.6c7.8-7.8,12.8-22,17.5-29.3c0.8-1.2-7.6,25.4-16.2,33.3c3.9,12.3,7.5,24.7,10,37.3
			c0.2,0.8-1.2,1-1.4,0.3C219.4,288.7,215.7,277.2,212,265.7z"/>
	</g>
	<g id="XMLID_3323_">
		<path id="XMLID_3325_" fill="#43785B" d="M292.5,215.1c1.5-1.7,5.1,5.7,5.6,7.4c0.2,0.5,0.4,0.9,0.7,1.4
			c-0.9-4.2,0.9-19.9,0.9-19.9s4.8,4.1,5.9,5.4c-0.1-0.4,2.2-14.5,4.1-16c1.3-1,3.2,4,3.7,5.4c0.1-4.7,5.6-15.6,5.6-15.6
			s3.4,4.9,4.4,7.2c0-2.3,3.7-17,6.9-19.1c1.6-1,1.9,9,2.4,9.8c0-0.1,0-0.2,0-0.4c0.5-4,8.8-19.2,8.8-19.2s0.7,7.3,0.5,8.2
			c0,1.7,1.9-1.8,1.9-1.8c1.1-3.3,10.2-13.5,10.2-13.5s0.8,6.3,0.2,8.2c0,0.5,13-14.8,12.2-11.5c-0.2,0.8,0,5.6-0.1,6.4
			c2.1-0.9,15.8-9.3,18.9-8.9c1.6,0.2-6.8,20.9-7,22.3c0.9-0.3,4.1-1.7,5-2c2.3-0.8,6.6-1.5,5.8,0.6c-1.3,3.5-6.8,12.8-9.2,16
			c0.3-0.1,7.5-0.7,7.5-0.7s-5.2,9.9-8,13c0.7-0.1,7.8-0.2,7.8-0.2s-7,14.2-11.3,18.1c0,0,7.7,0.5,7.7,0.5
			c4.1-0.2-11,12.1-14.7,14.4c20-3.4-2.1,15.1-8.6,17.7c3.7,1.5,9.4,4.4,6.2,5.3c3,2.1-53.7,19.5-60,15.7c-1,0.4-2.4,0.3-3.5-0.6
			C300.4,266.9,288.8,219.2,292.5,215.1z"/>
		<path id="XMLID_3324_" fill="#63977E" d="M302.9,264.1c-0.6-0.2-2.3-28.7-2.2-27.9c0.6,4.4,3.3,20.8,4.3,24.5
			c2.8-4.5,5.7-9.1,8.6-13.6c-0.2-0.2-0.4-0.5-0.5-0.8c-0.9-4-5.3-22.8-3.7-27.2c0.2-0.6,1.1-0.7,1.3,0c1.2,4.7,1.2,9.6,2.3,14.4
			c0.8,3.3,2.1,6.4,3,9.7c2.1-3.4,4.3-6.7,6.4-10.1c-2.3-2.3-1.4-9.4-1.2-11.8c0.6-7.6-1.2-16.7,1.8-23.9c0.2-0.5,1.1-0.5,1.1,0.1
			c0,5.7-0.2,11.3,0,17c0.1,2.8-0.9,11.9,0.4,15.5c2.8-4.3,5.6-8.7,8.4-13c-0.6-0.7-1.1-8.3-1.1-8.6c-0.1-3.4,0-6.9,0.2-10.3
			c0.4-5,0.9-10.3,3.2-14.8c0.1-0.2,0.4-0.1,0.3,0.1c-0.5,5-1.5,9.6-1.4,14.7c0,2.7,0.3,5.5,0.5,8.2c0.2,2.2,0.9,4,1.5,5.8
			c2.6-3.8,5.1-7.6,7.8-11.4c-0.5-0.3-0.4-2.8-0.3-2.9c-0.1,0.3,4.3-25.2,4.3-24.6c-0.3,5.2-1.3,19.7-1.5,21.6
			c-0.1,0.7-0.1,1.4,0.2,2.1c0,0,0-0.1,0.1-0.1c2.4-3.4,4.9-6.8,7.4-10.2c-0.3-0.6,1.2-7.3,1.6-8.7c0.7-2.5,1.6-5,2.4-7.5
			c0.2-0.5,0.9-0.3,0.8,0.2c-0.5,2.2-1,4.4-1.3,6.6c-0.2,1.4-0.3,2.8-0.5,4.2c0,0.2-0.1,0.9-0.2,1.6c4-5,9.5-10,12-15.8
			c0.3-0.6,1.4-0.2,1.1,0.5c-2.4,6.1-6.9,11.7-11.4,17.2c1.2-0.5,2.5-0.9,3.6-1.3c1.7-0.7,3.5-1.2,5.1-2c1.4-0.7,3.1-0.7,4.4-1.7
			c0.6-0.4-1,2.3-2.1,2.8c-1.7,0.6-3.3,1.7-5,2.4c-2.4,0.9-5.9,3.5-8.6,3c-1.8,2.2-3.5,4.3-5,6.5c-1.6,2.3-3.1,4.5-4.7,6.8
			c3.9-0.8,7.4-2.7,11.2-3.9c4.4-1.5,9.1-3.1,13.3-5c0.7-0.3-7.2,4.5-11.2,6.1c-4.8,1.9-9.7,4.4-14.9,5.1c-2.3,3.5-4.6,6.9-6.9,10.4
			c3.1-1,7.1-1.5,9.1-2.1c4.1-1.3,8.3-2.5,12.3-4c3.6-1.3,7.4-3.5,11.2-3.4c1.1,0-12.7,7.3-18.9,9.3c-5.1,1.7-16.4,4.8-16.7,4.6
			c-2,3.2-4.1,6.4-6.1,9.7c10.1,2.1,31.3-4.9,37.3-8.2c0.9-0.5-10.4,6.1-15.8,7.9c-4,1.4-23.6,4.4-23.9,4.3c-2.7,4.4-5.3,8.8-8,13.2
			c14.1-1.3,27.7-7.8,41.7-9.8c1-0.1-13.4,6.1-19.7,7.8c-7.6,2-15.1,4.8-22.9,5.4c-0.3,0.1-0.7,0.2-1.1,0.1l0,0
			c-2.3,3.8-4.5,7.6-6.9,11.4c11,0.8,25.1-4.6,33.7-5.8c1.4-0.2-24.3,10.7-35.9,9.4c-6.8,11-13.9,21.8-21.9,31.9
			c-0.5,0.7-1.5-0.2-1.1-0.9C290.2,284.8,296.5,274.4,302.9,264.1z"/>
	</g>
	<g>
		<path fill="#81C784" d="M315.6,298.6c0,0-89.4,89.7-270.2,107.1C274.4,366.6,313.3,282.6,315.6,298.6z"/>
		<path fill="#81C784" d="M247.4,281.9c0,0,46.4-8.8,55.1,27.1C259.6,316.3,247.4,281.9,247.4,281.9z"/>
		<path fill="#81C784" d="M215.7,305.3c0,0,46.4-8.8,55.2,27.1C227.9,339.6,215.7,305.3,215.7,305.3z"/>
		<path fill="#81C784" d="M260.2,379.7c0,0-15.9-34.7,10.5-48.5C284.8,363.5,260.2,379.7,260.2,379.7z"/>
		<path fill="#81C784" d="M292.3,357.3c0,0-15.9-34.7,10.5-48.5C316.8,341,292.3,357.3,292.3,357.3z"/>
		<path fill="#81C784" d="M181.3,324.6c0,0,46.4-8.8,55.1,27.1C193.6,358.9,181.3,324.6,181.3,324.6z"/>
		<path fill="#81C784" d="M142.8,345.4c0,0,41.8-7.9,49.7,24.4C153.9,376.3,142.8,345.4,142.8,345.4z"/>
		<path fill="#81C784" d="M114.8,363.8c0,0,33.2-6.2,39.4,19.4C123.5,388.3,114.8,363.8,114.8,363.8z"/>
		<path fill="#81C784" d="M82.3,370.8c0,0,33.2-6.3,39.4,19.4C91,395.4,82.3,370.8,82.3,370.8z"/>
		<path fill="#81C784" d="M56.7,380.2c0,0,29.2-5.5,34.6,17C64.3,401.8,56.7,380.2,56.7,380.2z"/>
		<path fill="#81C784" d="M135.6,413.6c0,0-3.9-27.5,17.4-31.6C156,407.4,135.6,413.6,135.6,413.6z"/>
		<path fill="#81C784" d="M172.1,405.9c0,0-4.5-32.2,20.4-37.1C196.2,398.6,172.1,405.9,172.1,405.9z"/>
		<path fill="#81C784" d="M216.4,388.4c0,0-4.5-32.2,20.4-37.1C240.4,381.1,216.4,388.4,216.4,388.4z"/>
		<path fill="#81C784" d="M103.8,422.4c0,0-3.9-27.5,17.4-31.6C124.3,416.2,103.8,422.4,103.8,422.4z"/>
		<path fill="#81C784" d="M72.4,420.6c0,0,5.8-27.1,27.2-23.7C93.8,421.8,72.4,420.6,72.4,420.6z"/>
		<path fill="#81C784" d="M41.6,407.2c0,0,15.8-17,29.7-5.3C56.4,417.3,41.6,407.2,41.6,407.2z"/>
	</g>
	<g id="XMLID_3320_">
		<path id="XMLID_3322_" fill="#43785B" d="M147,320.4c-2.8-0.5,2.9-9.2,4.5-10.8c0.4-0.5,0.7-1.1,1.1-1.7
			c-4,3.6-22.2,11.8-22.2,11.8s1.3-7.9,2.1-9.9c-0.3,0.4-17.2,6.9-20,5.8c-1.9-0.7,2.3-6.1,3.5-7.6c-5.2,2.9-20.6,4-20.6,4
			s3.1-6.9,5.1-9.4c-2.5,1.5-20.9,6.9-25.2,4.7c-2.1-1.1,8.5-7.8,9.2-8.9c-0.1,0.1-0.3,0.1-0.4,0.2c-4.7,2-26.5,2.7-26.5,2.7
			s7.6-5.4,8.6-5.8c1.8-1.1-3.2-0.9-3.2-0.9c-4.2,0.9-21.2-2.5-21.2-2.5s6.3-4.9,8.7-5.5c0.5-0.3-24.4-4.6-20.4-5.9
			c1-0.3,6.1-3.6,7.1-4c-2.3-1.7-20.2-11.3-21.8-14.8c-0.8-1.9,27-6,28.7-6.6c-0.9-0.8-4.4-3.4-5.4-4.1c-2.3-2-5.9-6.2-3.1-6.7
			c4.6-0.8,18.3-0.8,23.2-0.3c-0.3-0.3-5.5-7.7-5.5-7.7s14.1-0.7,19.3,0.4c-0.6-0.7-5.3-8.4-5.3-8.4s20-1.5,26.9,0.7
			c0,0-4.3-8.7-4.4-8.7c-2.9-4.4,20.3,4.2,25.1,6.8c-16.6-19.6,17.8-7.4,24.8-2.1c-0.7-4.9-1.2-13,1.8-10.1
			c0.3-4.6,55.7,46,55.6,55.1c1.1,0.9,1.8,2.4,1.6,4.2C198.2,278.5,153.9,321.7,147,320.4z"/>
		<path id="XMLID_3321_" fill="#63977E" d="M193.6,277.5c0.2,0.8-29.7,20.9-28.9,20.3c4.4-3.5,20.5-17,23.9-20.4
			c-6.8-0.2-13.5-0.4-20.3-0.6c-0.1,0.4-0.3,0.7-0.6,1c-3.8,3.6-21.4,20.4-27.2,21.5c-0.8,0.1-1.5-0.8-0.8-1.4
			c4.3-4.3,9.7-7.5,14.2-11.7c3.1-3,5.7-6.4,8.6-9.5c-5-0.2-10.1-0.3-15.1-0.5c-1.1,4-9.3,7.6-12.1,9c-8.6,4.3-17.5,12-27.2,13.4
			c-0.7,0.1-1.2-0.8-0.5-1.3c6.2-3.7,12.5-7.1,18.5-10.9c3-1.9,13.6-6.6,16.6-10.4c-6.5-0.2-13-0.5-19.5-0.9
			c-0.3,1.1-8.3,6.5-8.6,6.7c-3.6,2.4-7.4,4.4-11.3,6.4c-5.7,2.8-11.8,5.6-18.1,6c-0.2,0-0.3-0.3-0.1-0.4c5.8-2.6,11.4-4.5,16.9-7.9
			c3-1.8,5.8-3.8,8.6-5.8c2.2-1.6,3.7-3.5,5.4-5.3c-5.8-0.4-11.6-0.7-17.4-1.2c0,0.8-2.8,2.2-3,2.2c0.4-0.1-30.2,11.5-29.5,11.1
			c5.9-3,22.2-11.2,24.5-12.2c0.9-0.3,1.6-0.9,2.2-1.5c0,0-0.1,0-0.1,0c-5.3-0.4-10.5-0.9-15.8-1.5c-0.4,0.8-8.7,3.4-10.5,3.9
			c-3.2,0.8-6.4,1.5-9.6,2.2c-0.7,0.1-0.9-0.8-0.3-1c2.7-0.9,5.4-1.7,8-2.8c1.7-0.7,3.3-1.4,4.9-2.2c0.3-0.1,1-0.5,1.8-0.8
			c-8-1.2-17-3.9-24.9-2.9c-0.9,0.1-1-1.4-0.2-1.5c8.1-1.3,17.2-0.1,26,1.3c-1.3-1-2.6-2.2-3.7-3.1c-1.8-1.4-3.5-3-5.5-4.3
			c-1.6-1.1-2.8-2.9-4.6-3.7c-0.8-0.4,3.2-0.4,4.4,0.6c1.8,1.5,4,2.5,5.8,4c2.5,2,7.6,4.2,8.8,7.4c3.5,0.5,7,1,10.3,1.3
			c3.5,0.3,6.9,0.5,10.4,0.7c-3.4-3.7-7.7-6.4-11.5-9.7c-4.4-3.8-9.2-7.9-14-11.2c-0.8-0.5,9.6,5,13.8,8.2c5.2,4,11.1,7.7,15.1,12.9
			c5.3,0.3,10.5,0.6,15.8,0.8c-3.1-2.7-6.2-6.8-8.2-8.6c-4.1-3.6-8.1-7.4-12.3-10.9c-3.7-3.1-8.6-5.8-10.9-10.1
			c-0.6-1.2,16.1,9.2,22.2,14.5c5.1,4.5,15.7,14.8,15.8,15.2c4.8,0.2,9.6,0.3,14.4,0.4c-4.2-12.3-25.4-30.9-32.9-35.3
			c-1.1-0.6,13.3,7.4,18.8,12.1c4.1,3.5,20,22.8,20,23.3c6.5,0.1,13,0.2,19.5,0.2c-10.4-14.5-26.3-25.1-37.4-39
			c-0.8-1,15.2,10.7,21.1,16.5c7,6.9,14.9,13.3,20.6,21.5c0.4,0.2,0.6,0.6,0.8,1.1l0,0c5.6,0,11.2,0.1,16.8,0.2
			c-6.2-12.5-21.1-24.4-27.9-32.9c-1.1-1.4,27.3,19.6,33.3,33c16.3,0.3,32.7,1.1,48.8,3.4c1.1,0.1,0.8,1.8-0.3,1.8
			C224.2,278.1,208.9,277.9,193.6,277.5z"/>
	</g>
	<g id="XMLID_3317_">
		<path id="XMLID_3319_" fill="#81C784" d="M388.7,291c2.7,0.9-4.1,8.8-5.8,10.2c-0.4,0.5-0.9,1-1.3,1.5c4.4-3.1,23.5-8.9,23.5-8.9
			s-2.3,7.7-3.4,9.6c0.4-0.3,18-4.7,20.6-3.2c1.8,1-3.1,5.7-4.4,7.1c5.5-2.2,20.9-1.3,20.9-1.3s-4,6.4-6.2,8.7
			c2.6-1.2,21.6-4.2,25.6-1.5c2,1.3-9.5,6.7-10.2,7.7c0.1,0,0.3-0.1,0.4-0.1c4.9-1.4,26.6,0.7,26.6,0.7s-8.2,4.4-9.2,4.6
			c-2,0.8,3,1.3,3,1.3c4.3-0.4,20.8,5.1,20.8,5.1s-6.9,4.1-9.3,4.4c-0.5,0.2,23.7,7.7,19.5,8.4c-1.1,0.2-6.5,2.8-7.5,3.1
			c2,1.9,18.6,13.7,19.7,17.4c0.6,2-27.6,2.6-29.3,3c0.8,0.9,4,3.9,4.8,4.8c2,2.3,5.1,6.9,2.2,7c-4.7,0.2-18.2-1.5-23.1-2.6
			c0.2,0.3,4.5,8.3,4.5,8.3s-14.1-1.1-19.1-2.8c0.5,0.8,4.2,9,4.2,9s-20-1.1-26.6-4.1c0,0,3.2,9.1,3.2,9.2
			c2.3,4.7-19.6-6.7-24.1-9.9c14,21.5-18.6,5.1-24.9-1.1c0.1,5-0.4,13.1-3,9.8c-0.9,4.6-49.4-52.6-48.2-61.7c-1-1-1.5-2.6-1-4.3
			C332.6,326.1,382,288.8,388.7,291z"/>
		<path id="XMLID_3318_" fill="#63977E" d="M337,327.7c-0.1-0.8,32.1-17,31.3-16.5c-4.8,2.9-22.5,14.3-26.3,17.2
			c6.7,1,13.4,2.1,20.1,3.1c0.1-0.3,0.4-0.7,0.7-0.9c4.2-3.1,23.8-17.5,29.7-17.9c0.8,0,1.3,1,0.6,1.5c-4.8,3.7-10.6,6.2-15.6,9.9
			c-3.5,2.5-6.4,5.6-9.7,8.4c5,0.8,9.9,1.6,14.9,2.4c1.6-3.9,10.2-6.4,13.1-7.4c9.1-3.2,18.8-9.7,28.7-9.9c0.7,0,1.1,1,0.4,1.3
			c-6.6,2.9-13.3,5.4-19.8,8.5c-3.2,1.5-14.3,4.9-17.8,8.2c6.4,1,12.8,2.1,19.2,3.3c0.5-1.1,9.1-5.4,9.4-5.5c3.9-1.9,7.9-3.5,12-4.9
			c6-2.1,12.4-4.1,18.7-3.7c0.2,0,0.3,0.4,0.1,0.4c-6,1.9-11.9,3.1-17.7,5.7c-3.2,1.4-6.2,3-9.3,4.7c-2.4,1.3-4.2,3-6,4.6
			c5.7,1.1,11.4,2.2,17.1,3.3c0.1-0.8,3-1.8,3.2-1.8c-0.4,0,31.4-7.6,30.7-7.3c-6.3,2.2-23.5,8.3-25.8,9.1c-0.9,0.2-1.7,0.7-2.4,1.2
			c0,0,0.1,0,0.1,0c5.2,1.1,10.3,2.2,15.5,3.5c0.5-0.7,9.1-2.3,10.9-2.5c3.3-0.4,6.6-0.7,9.8-1c0.7-0.1,0.8,0.9,0.1,1
			c-2.8,0.5-5.5,1-8.3,1.8c-1.7,0.4-3.4,1-5.1,1.5c-0.3,0.1-1.1,0.3-1.9,0.6c7.8,2.2,16.4,6.1,24.4,6.1c0.9,0,0.9,1.5,0,1.5
			c-8.3,0.3-17-2.1-25.6-4.6c1.2,1.2,2.3,2.5,3.3,3.5c1.7,1.6,3.1,3.4,4.9,5c1.5,1.3,2.4,3.2,4.1,4.3c0.8,0.5-3.2,0-4.3-1.1
			c-1.6-1.7-3.6-3-5.3-4.7c-2.2-2.3-7-5.1-7.8-8.5c-3.4-1-6.8-1.9-10-2.6c-3.4-0.7-6.8-1.4-10.2-2c2.9,4.1,6.8,7.3,10.2,11
			c3.9,4.4,8.1,9,12.4,12.9c0.7,0.6-8.9-6.1-12.7-9.9c-4.6-4.6-10-9.1-13.4-14.7c-5.2-1-10.4-1.9-15.6-2.8c2.7,3.1,5.3,7.5,7,9.5
			c3.6,4.1,7.1,8.3,10.8,12.3c3.3,3.5,7.8,6.8,9.6,11.3c0.5,1.2-14.8-11.1-20.2-17.2c-4.5-5.1-13.8-16.7-13.7-17.1
			c-4.8-0.8-9.5-1.5-14.3-2.2c2.6,12.7,21.3,33.8,28.2,39.2c1,0.8-12.3-9-17.1-14.4c-3.6-4-16.9-25.1-16.9-25.6
			c-6.4-0.9-12.9-1.8-19.3-2.6c8.5,15.7,22.9,28.2,32.2,43.4c0.6,1-13.8-12.5-18.9-19c-6.1-7.8-13.1-15.1-17.7-23.9
			c-0.3-0.3-0.6-0.7-0.6-1.2l0,0c-5.5-0.7-11.1-1.5-16.6-2.3c4.6,13.2,17.9,26.9,23.5,36.2c1,1.6-24.6-22.8-28.9-37
			c-16.2-2.4-32.3-5.3-48-9.5c-1-0.3-0.5-1.9,0.5-1.8C306.7,323.2,321.9,325.4,337,327.7z"/>
	</g>
	<g id="XMLID_3304_">
		<path id="XMLID_3315_" fill="#E57373" d="M311.8,298.8c5.7-7.8,9-17.3,8.9-27.5c-0.2-16.1-5.5-26.1-12.8-32.2
			c-2.6-24-23.1-41.8-40.8-43.9c-8.2-1-21.5,2.5-29.5,6.4c-10.4-3.5-22.9-2.4-33.9,4c-6.9,4.1-12.3,9.6-15.8,15.9
			c-21,2.4-37.3,25.8-37.3,43.6c0,21.2,12,35.1,17.7,42.5c-0.4,14.5,5.9,28.2,18.3,37.8c13,10,29.9,11.8,45.3,6.5
			c16.1,7.1,50.9,12.3,67.3-5.9c11.5-12.8,15.3-36.2,13.2-47.7C312,298.6,311.9,298.7,311.8,298.8z"/>
		<path id="XMLID_3314_" fill="#F6BFC2" d="M221.7,260.6c0-9.4,11.6-19.6,19.7-23.1c-0.6-5-7.5-8.5-13.3-7.1
			c-17,4.2-24.4,17.6-24.4,30.2c0,12.6,10.2,22.9,22.9,22.9c3.2,0,6.2-0.7,9-1.8C227.4,278.2,221.7,270.1,221.7,260.6z"/>
		<path id="XMLID_3313_" fill="#F6BFC2" d="M255.6,257.9c-1.2,8.8-7.6,15.6-15.6,17.8c2.4,1.5,5.2,2.5,8.1,2.9
			c11.7,1.6,22.6-6.6,24.2-18.4c1.6-11.7-6.6-22.6-18.4-24.2c-3-0.4-5.9-0.2-8.6,0.6C252.5,240.9,256.8,249.2,255.6,257.9z"/>
		<path id="XMLID_3312_" fill="#F5BCBF" d="M235.5,287.7c-15.7,0-29.1-5.4-34.9-19c-2,4.6-3.1,9.6-3,14.9c0,21,17,37.9,38,37.9
			c21,0,41.7-17.2,41.7-38.1c0-5.3-0.6-12.8-2.6-17.4C268.9,279.6,251.2,287.7,235.5,287.7z"/>
		<path id="XMLID_3311_" fill="#FBCDD2" d="M286.3,277.3c-1.1,18.8-16.1,34.2-30,40.8c4.6,2.5,12.6,0.6,17.9,0.5
			c25.4-0.5,46.3-21.8,46-47.1c-0.6-51.7-53.8-40.8-58.5-38.6C278.7,248,287.2,261.4,286.3,277.3z"/>
		<path id="XMLID_3310_" fill="#FBCDD2" d="M217.1,229.5c13.2-9.6,30.5-7.7,42,0c-0.4-4.7-1.7-9.3-4.2-13.5
			c-9.7-16.7-32.9-21.3-51.7-10.3c-18.8,11-26.2,33.4-16.5,50.1c2.5,4.2,9.2,7.7,13.1,10.3C198.8,252.3,203.7,239.3,217.1,229.5z"/>
		<path id="XMLID_3309_" fill="#E48989" d="M209.7,315.7c-16.1-12.4-17.9-29.7-12.1-49.6c-9.6,0-13.3,3.8-17.9,9.8
			c-18.2,23.7-15.3,53.2,6.3,69.7c21.6,16.6,53.9,10.8,72.1-13c4.6-6,5.9-5.8,7.9-12.6C248.2,330.8,225.9,328,209.7,315.7z"/>
		<path id="XMLID_3308_" fill="#F5BCBF" d="M268.8,320.5c-6,13.9-7.1,11.3-12.5,17.8c-3.2,3.9-16.6,12.5-20.7,14.8
			c15.8,7.2,46.4,11.6,63-6.9c11.5-12.8,14.7-29.7,12.5-41.2C299.2,316.3,283,321.6,268.8,320.5z"/>
		<path id="XMLID_3307_" fill="#E48989" d="M263.4,228.9c16.4-9.8,36.8,3.4,41,5.7c-1.8-24.8-19.6-37.1-37.7-39.3
			c-9.2-1.1-18,1-25.3,5.5C252.8,206.1,261,216.6,263.4,228.9z"/>
		<path id="XMLID_3306_" fill="#FBCDD2" d="M192.3,263.9c-16.6-7.6-11.8-38.3-9.8-42.6c-17,3.7-33.6,25.6-33.6,43.8
			c0,22.7,11.9,34.6,16.9,41.5C166.8,292.4,171,274.9,192.3,263.9z"/>
		
			<ellipse id="XMLID_3305_" transform="matrix(0.4266 -0.9044 0.9044 0.4266 -96.9616 363.1442)" fill="#FBCDD2" cx="237.9" cy="258" rx="18.4" ry="10.1"/>
	</g>
	<g id="XMLID_3291_">
		<path id="XMLID_3302_" fill="#DD6464" d="M379.8,355.1c8.1-0.8,15.9-4,22.2-9.8c10-9.1,13.3-18,13.1-26
			c13.6-15,13.3-37.9,4.7-50.1c-4-5.7-13.6-12.1-20.5-14.9c-3.6-8.5-11.3-15.7-21.5-19.1c-6.4-2.1-12.9-2.3-18.9-1
			c-13.2-11.8-37.1-9-48.3,1c-13.3,11.8-15.3,27.1-16.8,34.9c-9.3,7.9-14.4,19.5-13.5,32.6c1,13.8,9.3,25.4,21.2,32.1
			c4.6,14.1,20.7,38.8,41.3,38.9c14.5,0.1,31.3-10.6,37.3-18.4C380.1,355.1,379.9,355.1,379.8,355.1z"/>
		<path id="XMLID_3301_" fill="#EAA0A2" d="M353.3,277.2c5.9-5.3,18.8-3.7,25.5-0.6c2.8-3.1,1.1-9.4-3-12.3
			c-12.1-8.3-24.7-5.5-32.6,1.5c-7.9,7.1-8.6,19.2-1.6,27.2c1.8,2,3.9,3.5,6.2,4.6C345.5,290.6,347.4,282.5,353.3,277.2z"/>
		<path id="XMLID_3300_" fill="#EAA0A2" d="M374,297c-6.2,4.2-14,4-19.9,0.2c0.4,2.3,1.3,4.6,2.8,6.7c5.6,8.3,16.8,10.5,25,4.9
			c8.3-5.6,10.5-16.8,4.9-25c-1.4-2.1-3.2-3.8-5.2-5.1C383,285.5,380.2,292.8,374,297z"/>
		<path id="XMLID_3299_" fill="#EA9FA0" d="M344.1,301.1c-8.8-9.8-12.9-21.3-7.6-32.5c-4,1.3-7.7,3.5-11.1,6.4
			c-13.1,11.7-14.3,31.9-2.6,45c11.7,13.1,34.1,16.6,47.2,4.8c3.3-3,7.7-7.6,9.5-11.4C367.8,317.4,352.9,310.9,344.1,301.1z"/>
		<path id="XMLID_3298_" fill="#EEADAE" d="M379,327c-12.4,9.8-30.5,9-42.4,4c1,4.3,6.6,8.2,9.7,11.5c14.5,15.7,39.6,16.8,55.3,2.5
			c32.1-29.3-4.5-56.5-8.5-58.2C393.2,305.9,389.6,318.7,379,327z"/>
		<path id="XMLID_3297_" fill="#F4ADAF" d="M370.3,256.9c13.4,2.9,21.9,14.8,23.5,26.4c2.7-2.8,4.8-6.3,6.1-10.2
			c5-15.4-5.1-32.5-22.5-38.2c-17.4-5.7-35.6,2.3-40.6,17.7c-1.3,3.9,0.4,10.1,0.9,14C345.8,258.2,356.6,254,370.3,256.9z"/>
		<path id="XMLID_3296_" fill="#E59898" d="M312.1,300.5c-1.3-17,8.6-27.8,24.3-35.3c-5.4-6-9.8-6.3-16.1-5.8
			c-25.1,1.9-41.9,20.1-40.2,43c1.7,22.8,23.4,39.8,48.4,38c6.3-0.5,7,0.4,12.3-2.1C324.2,333.1,313.4,317.5,312.1,300.5z"/>
		<path id="XMLID_3295_" fill="#EA9FA0" d="M342.2,340.3c-12.1,4-11.1,1.8-18.2,2.1c-4.2,0.2-17.1-3.4-20.9-4.7
			c4.3,13.9,18.7,35.6,39.5,35.7c14.5,0.1,26.8-7.4,32.9-15.2C361.8,356.9,349.4,349.8,342.2,340.3z"/>
		<path id="XMLID_3294_" fill="#E48F90" d="M396.6,285.7c15.3,4.8,18.4,25,19.3,28.9c14.5-15,12.3-33.1,3.6-45.6
			c-4.4-6.4-10.7-10.7-17.6-12.8C404.9,266.2,402.9,277.3,396.6,285.7z"/>
		<path id="XMLID_3293_" fill="#EEADAE" d="M334.9,260.6c-4.5-14.7,17.4-28.8,21.2-30c-11.8-8.6-34.8-6.8-46.3,3.4
			c-14.3,12.7-15,26.8-16.6,33.8C302.7,260.6,316.1,253.4,334.9,260.6z"/>
		
			<ellipse id="XMLID_3292_" transform="matrix(0.959 -0.2834 0.2834 0.959 -66.106 114.8801)" fill="#E59898" cx="364.1" cy="286" rx="15.5" ry="8.5"/>
	</g>
</g>
</svg>
