<svg xmlns="http://www.w3.org/2000/svg" xmlns:xlink="http://www.w3.org/1999/xlink" viewBox="0 0 420 240" fill="#EDD434" stroke="#EDD434" stroke-width="0" stroke-opacity="1.0" fill-opacity="1.0" >

	<defs>
		<clipPath id="clipMovavi">
			<g transform="scale(-1,1) translate(-422,0)" >
				<path fill="#EDD434" stroke="none" stroke-width="0" >
					<animate id="rightTop" attributeName="d" begin="0ms" dur="400ms" fill="freeze" repeatCount="1" values="
										M210,120 L210,0   L420,0   L420,120  Z;
										M210,120 L420,0   L420,0   L420,120  Z;
										M210,120 L420,120 L420,120 L420,120  Z"/>
				</path>
				
				<path fill="#EDD434" stroke="none" stroke-width="0" d="M210,120 L420,120 L420,240 L210,240  Z" >
					<animate id="rightBottom" attributeName="d" begin="rightTop.end" dur="400ms" fill="freeze" repeatCount="1" values="
										M210,120 L420,120 L420,240 L210,240  Z;
										M210,120 L420,240 L420,240 L210,240  Z;
										M210,120 L210,240 L210,240 L210,240  Z"/>
				</path>
				
				<path transform="rotate(180,210,120)" fill="#EDD434" stroke="none" stroke-width="0" d="M210,120 L210,0   L420,0   L420,120  Z" >
					<animate id="leftBottom" attributeName="d" begin="rightBottom.end" dur="400ms" fill="freeze" repeatCount="1" values="
										M210,120 L210,0   L420,0   L420,120  Z;
										M210,120 L420,0   L420,0   L420,120  Z;
										M210,120 L420,120 L420,120 L420,120  Z"/>
				</path>
				
				<path transform="rotate(180,210,120)" fill="#EDD434" stroke="none" stroke-width="0" d="M210,120 L420,120 L420,240 L210,240  Z" >
					<animate id="leftTop" attributeName="d" begin="leftBottom.end" dur="400ms" fill="freeze" repeatCount="1" values="
										M210,120 L420,120 L420,240 L210,240  Z;
										M210,120 L420,240 L420,240 L210,240  Z;
										M210,120 L210,240 L210,240 L210,240  Z"/>
				</path>
			</g>
		</clipPath>
	</defs>
	

	<g clip-path="url(#clipMovavi)">
		
		<path transform="translate(11,-12) scale(0.79)"
				
				d="	M255,62
					C422,72 476,154 470,195
					C448,298 42,319 33,188
					C37,108 169,58 236,55
					A17,13 0 0 0 252,40
					A15,10 0 0 0 239,32
					
					C 210,33 210,34 191,37
					C 175,40 145,48 121,59
					C 145,48 175,40 191,37
					C 175,40 145,48 121,59
					C 93,72 1,115 8,198
					
					C31,356 487,327 493,197
					C502,132 425,46 255,40 " >

			<animate attributeName="d" begin="leftTop.end" dur="200ms" fill="freeze" repeatCount="1"
			
					values="M255,62
							C422,72 476,154 470,195
							C448,298 42,319 33,188
							C37,108 169,58 236,55
							A17,13 0 0 0 252,40
							A15,10 0 0 0 239,32
							
							C 210,33 210,34 191,37
							C 175,40 145,48 121,59
							C 145,48 175,40 191,37
							C 175,40 145,48 121,59
							C 93,72 1,115 8,198
							
							C31,356 487,327 493,197
							C502,132 425,46 255,40
							
							;
						
							M196,61
							C427,56 475,158 470,195
							C448,298 42,319 33,188
							C37,108 169,58 236,55
							A17,13 0 0 0 252,40
							A15,10 0 0 0 239,32
							
							C 210,33 210,34 191,37
							C 175,40 145,48 121,59
							C 145,48 175,40 191,37
							C 175,40 145,48 121,59
							C 93,72 1,115 8,198
							
							C31,356 487,327 493,197
							C502,132 425,46 252,40
							
							;
							
							M196,61
							C427,56 475,158 470,195
							C448,298 42,319 33,188
							C37,108 169,58 236,55
							A17,13 0 0 0 252,40
							A15,10 0 0 0 239,32
							
							C 210,33 210,34 191,37
							C 175,40 145,48 121,59
							C 115,38 170,40 191,37
							C 175,40 145,48 121,59
							C 93,72 1,115 8,198
							
							C31,356 487,327 493,197
							C502,132 425,46 252,40
							"
					/>
		</path>
	
	</g>
	
</svg>
