<?xml version="1.0" encoding="utf-8"?>
<!-- Generator: Adobe Illustrator 21.1.0, SVG Export Plug-In . SVG Version: 6.00 Build 0)  -->
<svg version="1.1" baseProfile="tiny" id="Слой_1"
	 xmlns="http://www.w3.org/2000/svg" xmlns:xlink="http://www.w3.org/1999/xlink" x="0px" y="0px" viewBox="0 0 512 512"
	 overflow="scroll" xml:space="preserve">
<g>
	<path fill="#79BD8B" d="M512.2,195.1c0-2.6-2-4.8-4.6-5c-11.1-0.7-31.3-3.3-45.6-3.3l0.1,0.1c-0.8-0.1-1.5-0.2-2.3-0.2l-148.6-0.1
		c-8.5,0-16.6,3.6-22.2,9.8c-6.1,6.6-23.9,9.4-32.7,9.4c-8.8,0-26.6-2.8-32.7-9.4c-5.7-6.3-13.8-9.9-22.3-9.9l-148.6-0.1
		c-0.7,0-1.5,0.2-2.2,0.3l0-0.1c-14.3-0.1-34.5,2.5-45.6,3.2c-2.6,0.1-4.7,2.3-4.6,4.9l0,16.6c0,2.5,1.9,4.6,4.4,4.9
		c12.6,1.5,18.7,9.7,19.6,18.3l4.4,63.4c1.2,15.6,14.2,27.8,30,27.8l135,0.1c15.5,0,28.5-11.7,30-27.2l3.4-35.2c0.5-1.8,1-3.2,1.1-4
		c1.7-13.2,5.6-32.3,28.2-32.4c22.5,0.2,26.4,19.3,28.1,32.5c0.1,0.8,0.6,2.1,1.1,4l3.3,35.2c1.5,15.4,14.5,27.2,29.9,27.2l135,0.1
		c15.8,0,28.8-12.1,30-27.8l4.5-63.3c0.5-4.3,2.3-8.5,5.5-11.8c3.2-3.3,7.9-5.7,14.2-6.5c2.5-0.3,4.4-2.4,4.3-4.9L512.2,195.1z
		 M205.7,296.8c-0.7,6.3-5.8,11-12.1,11l-135.1-0.1c-6.3,0-11.6-4.9-12-11.1l-6-79.2c-0.2-3.4,0.9-6.7,3.3-9.2
		c2.2-2.5,5.5-3.8,8.9-3.9l148.5,0.1c3.4,0,6.7,1.4,9,4c2.2,2.5,3.4,6,3.1,9.3L205.7,296.8z M471.7,219.4l-6,77.4
		c-0.4,6.3-5.8,11.2-12.1,11.2l-135-0.1c-6.3,0-11.5-4.7-12-11l-7.3-77.7l0-0.1l-0.1-1.4c-0.4-3.4,0.8-6.8,3.1-9.3
		c2.3-2.5,5.5-4,9-3.9l148.6,0.1c3.4,0,6.6,1.4,8.9,3.9c2.3,2.5,3.5,5.8,3.2,9.2L471.7,219.4z"/>
</g>
</svg>
