<?xml version="1.0" encoding="utf-8"?>
<!-- Generator: Adobe Illustrator 21.1.0, SVG Export Plug-In . SVG Version: 6.00 Build 0)  -->
<svg version="1.1" baseProfile="tiny" id="Слой_1"
	 xmlns="http://www.w3.org/2000/svg" xmlns:xlink="http://www.w3.org/1999/xlink" x="0px" y="0px" viewBox="0 0 512 512"
	 overflow="scroll" xml:space="preserve">
<g id="XMLID_88_">
	<g>
		<ellipse id="XMLID_37_" fill="#FECE00" cx="258" cy="257.1" rx="228.6" ry="223.6"/>
		<path id="XMLID_36_" fill="#403408" d="M487.1,257.1c0,29.7-5.7,59.3-16.9,87c-1.4,3.4-3,6.8-4.4,10.3c-1.6,3.4-3.3,6.7-4.9,10
			l-5.4,9.8l-5.9,9.5c-8.2,12.5-17.6,24.3-28.2,35c-10.6,10.7-22.2,20.5-34.8,28.8l-4.8,3.1c-1.6,1-3.2,2.1-4.8,3l-4.9,2.9l-2.5,1.4
			c-0.8,0.5-1.7,0.9-2.5,1.3c-6.7,3.5-13.5,6.8-20.5,9.6c-28,11.4-58.4,17.1-88.6,16.7c-15.1-0.2-30.2-1.9-44.9-5
			c-14.7-3.1-29.2-7.7-43-13.6c-13.8-5.9-27.1-13-39.5-21.4c-12.4-8.3-24.1-17.8-34.7-28.2c-21.4-20.9-38.7-45.8-50.7-73.2
			c-1.4-3.5-2.9-6.9-4.2-10.4c-1.2-3.5-2.6-7-3.7-10.6c-1.1-3.6-2.2-7.1-3.2-10.7c-0.9-3.6-1.9-7.2-2.7-10.9
			c-3.2-14.6-5-29.6-5.3-44.6c-0.5-30,5-60.3,16.6-88.3c11.5-28,29-53.5,50.6-74.7c10.8-10.6,22.7-20.2,35.4-28.5
			c12.7-8.3,26.2-15.4,40.3-21.2c14.1-5.8,28.7-10.1,43.7-12.9c14.9-2.9,30.1-4.4,45.3-4.3c15.2,0.1,30.4,1.6,45.3,4.6
			c14.9,2.9,29.5,7.3,43.5,13.2c7,2.9,13.9,6.2,20.5,9.7c0.8,0.4,1.7,0.9,2.5,1.3l2.4,1.4l4.9,2.9c1.6,0.9,3.2,2,4.8,3l4.7,3.1
			c12.6,8.4,24.1,18.2,34.7,29c10.5,10.8,20,22.5,28.2,35.1l5.9,9.6l5.4,9.8c1.6,3.4,3.3,6.7,4.9,10.1c1.5,3.4,3,6.8,4.4,10.3
			C481.5,197.7,487.2,227.4,487.1,257.1z M485.9,257.1c0-29.5-6.4-59-18.6-85.8c-12.1-26.8-30-50.7-51.4-70.4
			c-10.7-9.8-22.4-18.5-34.7-26.2l-4.7-2.8c-1.5-0.9-3.1-1.9-4.7-2.7l-4.8-2.6l-2.4-1.3c-0.8-0.4-1.6-0.8-2.4-1.2
			c-6.5-3.2-13.1-6.2-19.8-8.8c-13.5-5.2-27.4-9.2-41.5-11.8c-14.2-2.6-28.6-3.9-43-3.8c-14.4,0.1-28.8,1.4-42.9,4.1
			c-14.1,2.7-28,6.8-41.4,12c-26.8,10.6-51.5,26.3-72.5,46.2c-20.9,19.9-37.9,43.9-49.7,70.4c-5.9,13.2-10.5,27.1-13.6,41.2
			c-3.2,14.2-4.9,28.7-5.2,43.3c-0.5,29.2,4.9,58.6,16.3,85.6c5.6,13.5,12.8,26.5,21.1,38.6c8.3,12.1,18,23.3,28.6,33.4
			c10.6,10.1,22.3,19.1,34.7,26.9c12.4,7.7,25.6,14.3,39.3,19.4c27.3,10.3,56.5,15.1,85.4,14.8c58-0.6,115.2-22.9,158.1-62.4
			c21.4-19.7,39.3-43.6,51.4-70.4C479.7,316.1,486,286.6,485.9,257.1z"/>
	</g>
	<path fill="#EAB51F" d="M354,454.3c-27.4,14.6-70.2,22.8-109.5,21.3c-76.7-3-158.8-45.1-194.1-129.1
		C6.7,242.4,54.6,166.4,61.6,152.8c0,0-18.9,123.1,81.9,223.1C259.1,490.6,354,454.3,354,454.3z"/>
	<g id="XMLID_35_">
		<path fill="#403408" d="M133.8,246.7c-1.8,0-3.6-1-4.6-2.7c-1.4-2.5-0.5-5.7,2-7.1l46.2-25.6l-46.7-25.9c-2.5-1.4-3.4-4.6-2-7.1
			c1.4-2.5,4.6-3.4,7.1-2l54.9,30.5c1.7,0.9,2.7,2.7,2.7,4.6s-1,3.6-2.7,4.6L136.3,246C135.5,246.4,134.7,246.7,133.8,246.7z"/>
		<path fill="#403408" d="M377.2,246.6c-0.9,0-1.7-0.2-2.5-0.7L321,215.5c-1.6-0.9-2.6-2.6-2.6-4.5c0-1.9,1-3.6,2.6-4.5l53.2-30.2
			c2.5-1.4,5.6-0.5,7,1.9c1.4,2.5,0.5,5.6-1.9,7L334,211l45.7,26c2.5,1.4,3.3,4.5,1.9,7C380.7,245.7,379,246.6,377.2,246.6z"/>
	</g>
	<g>
		<path id="XMLID_129_" fill="#2FA7BF" d="M496.9,246.2c15.8,12.3,18.4,34.8,5.8,50.3c-12.6,15.5-35.6,18-51.4,5.7
			c-15.8-12.3-47-82.3-47-82.3S481.1,233.9,496.9,246.2z"/>
		<path id="XMLID_127_" fill="#403408" d="M497.1,245.9c6.9,5.4,12.1,13.1,14.4,21.9c1.1,4.4,1.5,9,0.8,13.7
			c-0.6,4.6-2.1,9.2-4.6,13.2c-2.4,4-5.7,7.6-9.5,10.5c-3.8,2.8-8.2,4.9-12.7,6.1c-9.1,2.4-18.8,1-26.9-3l-1.5-0.8
			c-0.5-0.3-1-0.6-1.5-0.9c-1-0.6-2-1.1-2.8-1.8c-0.9-0.7-1.8-1.3-2.7-2.1c-0.4-0.4-0.9-0.8-1.3-1.2l-1.2-1.2
			c-3-3.3-5.6-6.9-8.1-10.5c-5-7.2-9.6-14.6-14.2-22.1c-9.2-14.9-17-30.5-24.5-46.4c-0.9-1.8-0.1-4,1.7-4.9c0.7-0.3,1.5-0.4,2.2-0.3
			l0.1,0c8,1.3,15.9,2.9,23.8,4.7c7.9,1.8,15.7,3.7,23.5,6.2c7.7,2.4,15.4,5.2,22.9,8.2c3.8,1.5,7.5,3.1,11.2,4.7
			C490.1,241.7,493.8,243.4,497.1,245.9z M496.7,246.5c-3.2-2.3-6.9-3.9-10.7-5.3c-3.8-1.4-7.7-2.4-11.5-3.4
			c-7.8-1.9-15.7-3.2-23.6-4.8c-7.9-1.5-15.7-3.1-23.6-4.7l-23.5-4.8l4.1-5.2c6.8,15.9,14.2,31.6,21.5,47.3
			c3.7,7.8,7.6,15.6,12.3,22.9c2.4,3.6,4.8,7.2,7.8,10.2l1.1,1.1c0.4,0.4,0.8,0.7,1.2,1c0.8,0.7,1.7,1.2,2.6,1.8
			c0.9,0.6,1.8,1,2.7,1.5c0.5,0.2,0.9,0.5,1.4,0.7l1.5,0.6c7.8,3,16.5,2.8,24.1,0.1c7.6-2.6,14.1-7.7,18.7-14.2
			c4.6-6.5,7-14.8,6.1-23.1c-0.1-1.1-0.3-2.1-0.5-3.1c-0.1-0.5-0.2-1-0.3-1.6l-0.5-1.5l-0.5-1.5l-0.6-1.5l-0.6-1.5
			c-0.2-0.5-0.5-0.9-0.8-1.4C502.9,252.4,500,249.1,496.7,246.5z"/>
	</g>
	<g>
		<path id="XMLID_119_" fill="#2FA7BF" d="M16.3,246.2C0.5,258.5-2.1,281,10.5,296.4c12.6,15.5,35.6,18,51.4,5.7
			c15.8-12.3,47-82.3,47-82.3S32.1,233.9,16.3,246.2z"/>
		<path id="XMLID_67_" fill="#403408" d="M16.5,246.5c-3.4,2.7-6.3,6-8.3,9.7c-0.3,0.5-0.5,0.9-0.8,1.4l-0.6,1.5l-0.6,1.5l-0.5,1.5
			l-0.5,1.5c-0.1,0.5-0.2,1-0.3,1.6c-0.2,1-0.4,2.1-0.5,3.1c-0.9,8.4,1.6,16.6,6.1,23.1c4.5,6.5,11.1,11.6,18.7,14.2
			c7.6,2.7,16.3,2.9,24.1-0.1l1.5-0.6c0.5-0.2,0.9-0.5,1.4-0.7c0.9-0.5,1.9-0.9,2.7-1.5c0.9-0.6,1.8-1.1,2.6-1.8
			c0.4-0.3,0.8-0.6,1.2-1l1.1-1.1c2.9-3,5.4-6.6,7.8-10.2c4.7-7.3,8.6-15,12.3-22.9c7.3-15.7,14.7-31.5,21.5-47.3l4.1,5.2L86,228.4
			c-7.9,1.6-15.7,3.3-23.6,4.7c-7.9,1.5-15.8,2.9-23.6,4.8c-3.9,1-7.8,2-11.5,3.4C23.5,242.5,19.7,244.1,16.5,246.5z M16.1,245.9
			c3.3-2.5,7-4.2,10.7-5.8c3.7-1.7,7.4-3.2,11.2-4.7c7.5-3,15.2-5.8,22.9-8.2c7.7-2.5,15.6-4.4,23.5-6.2c7.9-1.8,15.8-3.4,23.8-4.7
			l0.1,0c2-0.3,3.9,1,4.2,3c0.1,0.8,0,1.5-0.3,2.2c-7.5,15.8-15.3,31.4-24.5,46.4c-4.6,7.5-9.2,14.9-14.2,22.1
			c-2.5,3.6-5.1,7.2-8.1,10.5l-1.2,1.2c-0.4,0.4-0.8,0.8-1.3,1.2c-0.9,0.8-1.8,1.4-2.7,2.1c-0.9,0.7-1.9,1.2-2.8,1.8
			c-0.5,0.3-1,0.6-1.5,0.9l-1.5,0.8c-8.1,4-17.8,5.4-26.9,3c-4.5-1.2-8.9-3.2-12.7-6.1c-3.8-2.8-7-6.4-9.5-10.5
			c-2.5-4-4-8.6-4.6-13.2c-0.6-4.6-0.3-9.3,0.8-13.7C3.9,258.9,9.2,251.3,16.1,245.9z"/>
	</g>
	<g>
		<path id="XMLID_102_" fill="#403408" d="M141.3,292.3c-5,0-8.4,4.9-6.5,9.4c9.8,23.3,42.4,82,123.2,82
			c80.8,0,114.1-59.1,124.2-82.6c1.9-4.5-1.5-9.5-6.5-9.5L141.3,292.3z"/>
		<path fill="#403408" d="M384.7,292.8c-2-3-5.3-4.8-8.9-4.8c0,0,0,0,0,0l-234.4,0.7c-3.6,0-6.9,1.8-8.9,4.7
			c-1.9,2.9-2.2,6.5-0.9,9.6c5.6,13.4,17.6,36.2,39.9,54.6c0.9,0.8,1.9,1.5,2.8,2.3c0.9,0.7,1.9,1.4,2.8,2.2
			c19.4,14.3,45.7,25.1,81,25.1c34.1,0,59.9-10.2,79.2-23.9c1-0.7,1.9-1.4,2.9-2.1c1-0.7,1.9-1.5,2.9-2.2
			c23.7-18.9,36.6-42.7,42.5-56.6C386.9,299.3,386.6,295.7,384.7,292.8z M258,380.1c-33.2,0-58-10.1-76.3-23.5
			c-1-0.7-1.9-1.4-2.9-2.2c-1-0.7-1.9-1.5-2.8-2.3c-21.2-17.5-32.6-39.2-37.9-51.9c-0.6-1.3-0.1-2.4,0.3-2.9c0.6-1,1.7-1.5,2.9-1.5
			l234.4-0.7c0,0,0,0,0,0c1.2,0,2.3,0.6,2.9,1.5c0.3,0.5,0.8,1.6,0.3,2.9c-5.6,13.2-17.8,35.8-40.3,53.7c-0.9,0.7-1.9,1.5-2.9,2.2
			c-0.9,0.7-1.9,1.4-2.9,2.1C314.5,370.6,290.1,380.1,258,380.1z"/>
	</g>
	<g>
		<path fill="#FF5A58" d="M340.2,354.1c-0.9,0.7-1.9,1.4-2.9,2.1c-19.4,13.7-45.2,23.9-79.2,23.9c-35.3,0-61.6-10.8-81-25.1
			c-1-0.7-1.9-1.4-2.8-2.2c0.7-1,1.4-2,2.2-2.9c0.8-0.9,1.6-1.8,2.4-2.6c14.7-14.8,44.1-24.9,77.9-24.9c34.7,0,64.6,10.6,79,26.1
			c0.8,0.9,1.6,1.8,2.3,2.7C338.8,352.1,339.5,353.1,340.2,354.1z"/>
		<path fill="#403408" d="M340.9,351.3c-0.7-0.9-1.5-1.8-2.3-2.7c-4.5-4.9-10.5-9.4-17.9-13.4c-17.1-9.1-39.8-14.1-63.9-14.1
			s-46.8,5-63.9,14.1c-6.8,3.6-12.4,7.7-16.8,12.1c-0.8,0.9-1.6,1.7-2.4,2.6c-0.8,0.9-1.6,1.9-2.2,2.9c0.9,0.8,1.9,1.5,2.8,2.3
			c0.9,0.7,1.9,1.4,2.8,2.2c0.7-1,1.4-2,2.2-2.9c0.8-0.9,1.6-1.7,2.4-2.6c3.8-3.7,8.6-7.1,14.5-10.3c16.1-8.6,37.6-13.3,60.5-13.3
			s44.4,4.7,60.5,13.3c6.4,3.4,11.6,7.2,15.5,11.3c0.8,0.9,1.6,1.8,2.3,2.7c0.8,1,1.5,2,2.1,3c1-0.7,1.9-1.4,2.9-2.1
			c1-0.7,1.9-1.5,2.9-2.2C342.4,353.3,341.7,352.3,340.9,351.3z"/>
	</g>
</g>
</svg>
