<?xml version="1.0" encoding="iso-8859-1"?>
<!-- Generator: Adobe Illustrator 21.1.0, SVG Export Plug-In . SVG Version: 6.00 Build 0)  -->
<svg version="1.1" baseProfile="tiny" id="&#x421;&#x43B;&#x43E;&#x439;_1"
	 xmlns="http://www.w3.org/2000/svg" xmlns:xlink="http://www.w3.org/1999/xlink" x="0px" y="0px" viewBox="0 0 512 512"
	 overflow="scroll" xml:space="preserve" fill="#000000" stroke="#000000" stroke-width="0" stroke-opacity="1.0" fill-opacity="1.0">

<defs>
  <linearGradient id="retain_B4E66E">
    <stop offset="0" stop-color="#B4E66E" stop-opacity="1"/>
    <stop offset="1" stop-color="#B4E66E" stop-opacity="1"/>
  </linearGradient>
  <linearGradient id="retain_83BA1A">
    <stop offset="0" stop-color="#83BA1A" stop-opacity="1"/>
    <stop offset="1" stop-color="#83BA1A" stop-opacity="1"/>
  </linearGradient>
  <linearGradient id="retain_B99473">
    <stop offset="0" stop-color="#B99473" stop-opacity="1"/>
    <stop offset="1" stop-color="#B99473" stop-opacity="1"/>
  </linearGradient>
  <linearGradient id="retain_B08663">
    <stop offset="0" stop-color="#B08663" stop-opacity="1"/>
    <stop offset="1" stop-color="#B08663" stop-opacity="1"/>
  </linearGradient> 
  <linearGradient id="retain_7F6E5D">
    <stop offset="0" stop-color="#7F6E5D" stop-opacity="1"/>
    <stop offset="1" stop-color="#7F6E5D" stop-opacity="1"/>
  </linearGradient> 
  <linearGradient id="retain_CBB292">
    <stop offset="0" stop-color="#CBB292" stop-opacity="1"/>
    <stop offset="1" stop-color="#CBB292" stop-opacity="1"/>
  </linearGradient>
  <linearGradient id="retain_94CC3B">
    <stop offset="0" stop-color="#94CC3B" stop-opacity="1"/>
    <stop offset="1" stop-color="#94CC3B" stop-opacity="1"/>
  </linearGradient>

  
</defs>

<g>
<path fill="url(#retain_B4E66E)" d="M230.766,142.44C154.837,199.894,96.615,288.035,96.615,288.035
	C77.329,230.987,119.418,138.519,230.766,142.44L230.766,142.44z"/>
<path fill="url(#retain_B4E66E)" d="M230.766,142.44c-96.794-25.956-164.072-0.766-164.072-0.766C110.359,75.568,173.312,66.511,230.766,142.44
	L230.766,142.44z"/>
<path fill="url(#retain_B4E66E)" d="M230.766,142.44c0,0-96.388,69.26-6.67,153.841L230.766,142.44"/>
<path fill="url(#retain_83BA1A)" d="M230.766,142.44c87.737-36.996,193.181-43.304,193.181-43.304C384.201,53.894,283.082,44.07,230.766,142.44
	L230.766,142.44z"/>
<path fill="url(#retain_94CC3B)" d="M230.766,142.44C256.722,45.648,312.193,0,312.193,0C233.109,4.731,193.77,54.705,230.766,142.44
	L230.766,142.44z"/>
<path fill="url(#retain_83BA1A)" d="M230.766,142.44c0,0,108.195-48.801,136.538,71.199L230.766,142.44"/>
<path fill="url(#retain_B99473)" d="M334.333,431.444c-0.355-4.194-0.749-8.586-1.196-13.148c-1.512-15.699-3.603-33.475-6.443-52.448
	c-0.644-4.326-1.328-8.717-2.051-13.148c-2.551-15.567-5.614-31.766-9.296-48.122c-0.986-4.378-2.012-8.757-3.09-13.148
	c-3.681-15.107-7.928-30.254-12.78-45.085c-1.459-4.405-2.958-8.796-4.523-13.148c-6.916-19.275-14.963-37.788-24.311-54.749
	c-1.565-2.853-3.182-5.68-4.839-8.441c-2.104-3.524-4.273-6.955-6.495-10.308c-0.947,0.079-1.814,0.263-2.761,0.263
	c-7.757,0-14.778-2.827-20.327-7.363c2.551,4.576,4.207,9.782,4.207,15.449c0,4.838,4.825,6.298,2.893,10.4
	c6.193,17.29,12.004,35.684,17.145,54.749c1.183,4.352,2.327,8.73,3.432,13.148c3.695,14.752,6.968,29.846,9.703,45.085
	c0.802,4.365,1.551,8.757,2.235,13.148c2.551,16.014,4.47,32.121,5.627,48.122c0.316,4.392,0.579,8.783,0.776,13.148
	c0.828,17.803,0.644,35.382-0.71,52.448c-0.355,4.418-0.776,8.809-1.288,13.148c-2.13,17.973-5.68,35.25-10.874,51.462h67.91
	C337.279,482.906,336.976,462.697,334.333,431.444z"/>
<path fill="url(#retain_B08663)" d="M312.258,291.43h-38.655c0.802,4.365,1.551,8.757,2.235,13.148h39.51
	C314.362,300.2,313.336,295.822,312.258,291.43z"/>
<path fill="url(#retain_B08663)" d="M294.955,233.197h-34.487c1.183,4.352,2.327,8.73,3.432,13.148h35.579L294.955,233.197z"/>
<path fill="url(#retain_B08663)" d="M333.137,418.296h-51.606c-0.355,4.418-0.776,8.809-1.288,13.148h54.091
	C333.979,427.25,333.584,422.858,333.137,418.296z"/>
<path fill="url(#retain_B08663)" d="M324.643,352.7h-43.178c0.316,4.392,0.579,8.783,0.776,13.148h44.454
	C326.05,361.523,325.367,357.131,324.643,352.7z"/>
<path fill="url(#retain_B08663)" d="M309.102,431.444c-1.052,17.355-2.985,34.514-5.772,51.462h33.948c0,0-0.302-20.209-2.945-51.462
	c-0.355-4.194-0.749-8.586-1.196-13.148c-1.512-15.699-3.603-33.475-6.443-52.448c-0.644-4.326-1.328-8.717-2.051-13.148
	c-2.551-15.567-5.614-31.766-9.296-48.122c-0.986-4.378-2.012-8.757-3.09-13.148c-3.681-15.107-7.928-30.254-12.78-45.085
	c-1.459-4.405-2.958-8.796-4.523-13.148c-6.916-19.275-14.963-37.788-24.311-54.749c-0.368,1.065-5.706,1.959-6.18,2.971
	c7.218,17.355,13.529,34.619,18.96,51.777c1.407,4.392,2.748,8.77,4.01,13.148c4.444,15.107,8.191,30.149,11.281,45.085
	c0.92,4.391,1.775,8.783,2.577,13.148c2.958,16.159,5.141,32.2,6.587,48.122c0.408,4.392,0.763,8.783,1.039,13.148
	c1.17,17.658,1.433,35.145,0.828,52.448C309.589,422.701,309.378,427.079,309.102,431.444z"/>

<path fill="url(#retain_7F6E5D)" d="M288.044,127.76c0,16.267-13.17,29.399-29.399,29.399c-16.23,0-29.399-13.133-29.399-29.399
	c0-16.23,13.17-29.399,29.399-29.399C274.875,98.362,288.044,111.531,288.044,127.76L288.044,127.76z M288.044,127.76"/>
<path fill="url(#retain_CBB292)" d="M288.835,163.013c0,16.266-13.133,29.399-29.399,29.399c-16.22,0-29.399-13.133-29.399-29.399
	c0-16.23,13.178-29.399,29.399-29.399C275.702,133.615,288.835,146.784,288.835,163.013L288.835,163.013z M288.835,163.013"/>
<path fill="url(#retain_7F6E5D)" d="M254.972,164.678c0,16.267-13.17,29.399-29.399,29.399c-16.23,0-29.399-13.133-29.399-29.399

	c0-16.23,13.17-29.399,29.399-29.399C241.802,135.28,254.972,148.449,254.972,164.678L254.972,164.678z M254.972,164.678"/>
<path fill="url(#retain_B4E66E)" d="M512,497.45c0,4.02-1.63,7.66-4.26,10.29s-6.27,4.26-10.29,4.26H14.55C6.51,512,0,505.49,0,497.45
	c0-4.01,1.63-7.65,4.26-10.28s6.27-4.26,10.29-4.26h482.9C505.49,482.91,512,489.42,512,497.45z"/>
<path fill="url(#retain_B4E66E)" d="M185.88,504.394c-6.627,0-12-6.513-12-14.547v-50.43c0-8.034,5.373-14.547,12-14.547s12,6.513,12,14.547
	v50.43C197.88,497.881,192.507,504.394,185.88,504.394z"/>
<path fill="url(#retain_B4E66E)" d="M386.547,504.394c-6.627,0-12-6.513-12-14.547v-50.43c0-8.034,5.373-14.547,12-14.547s12,6.513,12,14.547
	v50.43C398.547,497.881,393.174,504.394,386.547,504.394z"/>
<path fill="url(#retain_B4E66E)" d="M443.88,463.42V512h-24v-48.58c0-8.04,5.377-14.55,12-14.55C438.503,448.87,443.88,455.38,443.88,463.42z"/>
<path fill="url(#retain_B4E66E)" d="M95.547,504.394c-6.627,0-12-6.513-12-14.547v-50.43c0-8.034,5.373-14.547,12-14.547s12,6.513,12,14.547
	v50.43C107.547,497.881,102.174,504.394,95.547,504.394z"/>
<path fill="url(#retain_B4E66E)" d="M152.88,463.42V512h-24v-48.58c0-8.04,5.377-14.55,12-14.55C147.503,448.87,152.88,455.38,152.88,463.42z"/>
</g>
</svg>
