<?xml version="1.0" encoding="utf-8"?>
<!-- Generator: Adobe Illustrator 21.1.0, SVG Export Plug-In . SVG Version: 6.00 Build 0)  -->
<svg version="1.1" baseProfile="tiny" id="Слой_1"
	 xmlns="http://www.w3.org/2000/svg" xmlns:xlink="http://www.w3.org/1999/xlink" x="0px" y="0px" viewBox="0 0 512 512"
	 overflow="scroll" xml:space="preserve">
<g>
	<g>
		<path fill="#484649" d="M97.1,323.2c-33.1,0-56.7-6.4-66.9-11.8c-21-11.2-37-37.3-26.1-59.7c7.4-16,19.6-18.4,26.2-18.4
			c11.6,0,22.8,6.9,26.8,16.4c3.3,7.9,1,16.3-6.4,23.9c-3.7,2.9-8.3,3.6-11.4,3.6c-6.8,0-12.3-3-13-5c0-0.1-0.1-0.4,0.6-0.9
			c0.4-0.3,0.5-0.3,0.5-0.3c0,0.1,0.5,0.4,0.8,0.6c0.5,0.3,1,0.7,1.7,1.1c2.2,1.2,5,1.8,7.8,1.8c4.2,0,8.1-1.4,10.8-3.9l0.3-0.4
			c0.3-0.4,0.5-0.6,0.6-0.7c3.5-4.6,4.5-10.3,2.7-15.6c-2-5.8-6.9-10.2-13.2-11.9c-1.8-0.5-3.6-0.7-5.4-0.7c-8.5,0-16.3,5.5-19.8,14
			c-4,9.5-1.6,20.1,6.3,28.2l0.1,0l0.7,0.6l0.1,0c7,5.1,16.8,7.9,27.7,7.9c9.3,0,18.7-2,26.4-5.7c20.1-9.6,29.8-24.1,40.1-39.6
			c10.1-15.2,20.6-30.9,42-45.6c12.1-8.3,28.3-13,44.5-13c26.5,0,46.2,11.9,52.5,31.8c5.3,16.9,4.2,32.2-3.3,45.5
			c-12.3,21.8-42,39-85.9,49.6C141.9,320.4,119.2,323.2,97.1,323.2L97.1,323.2z"/>
		<path fill="#484649" d="M415.9,323.2c-22.1,0-44.8-2.8-67.7-8.3c-43.9-10.7-73.6-27.8-85.9-49.6c-7.5-13.4-8.6-28.7-3.3-45.5
			c6.3-19.9,25.9-31.8,52.5-31.8c16.2,0,32.4,4.7,44.5,13c21.5,14.7,31.9,30.4,42,45.5c10.3,15.4,20,30,40.1,39.6
			c7.8,3.7,17.1,5.7,26.4,5.7c10.6,0,20.2-2.7,27.2-7.5l0.1,0l1.2-1l0.1,0c8-8.1,10.3-18.7,6.3-28.2c-3.6-8.5-11.4-14-19.8-14
			c-1.8,0-3.6,0.2-5.4,0.7c-6.3,1.7-11.3,6.2-13.2,11.9c-1.8,5.3-0.8,11,2.7,15.7l0.4,0.4l0.5,0.7c2.7,2.5,6.5,3.9,10.8,3.9
			c2.8,0,5.5-0.6,7.7-1.7c0.7-0.4,1.2-0.7,1.7-1.1c0.3-0.2,0.7-0.5,0.9-0.6c0,0,0.2,0.1,0.4,0.3c0.7,0.6,0.6,0.8,0.6,0.9
			c-0.7,2-6.2,5-13,5c-3.1,0-7.7-0.7-11.6-3.8c-7.2-7.3-9.4-15.8-6.1-23.7c4-9.5,15.3-16.4,26.8-16.4c6.6,0,18.8,2.4,26.2,18.3
			c10.9,22.5-5.1,48.5-26.1,59.7C472.7,316.8,449,323.2,415.9,323.2z"/>
	</g>
</g>
</svg>
