<?xml version="1.0" encoding="utf-8"?>
<!-- Generator: Adobe Illustrator 21.1.0, SVG Export Plug-In . SVG Version: 6.00 Build 0)  -->
<svg version="1.1" baseProfile="tiny" id="Слой_1"
	 xmlns="http://www.w3.org/2000/svg" xmlns:xlink="http://www.w3.org/1999/xlink" x="0px" y="0px" viewBox="0 0 512 512"
	 overflow="scroll" xml:space="preserve">
<g>
	<g>
		<path fill="#FFFBFF" d="M254.2,502.9c45.8,0,83-37.2,83-83c0-24.6-10.7-46.7-27.8-61.9c-2.7-2.4-5.5-4.6-8.5-6.6V40.9
			c0-30.3-31.4-32.7-41.1-32.7h-9.2c-19.9,0-43.2,8.6-43.2,32.7v310.3c-3,2-5.8,4.3-8.5,6.6c-17,15.2-27.8,37.3-27.8,61.9
			C171.2,465.7,208.4,502.9,254.2,502.9z"/>
	</g>
	<path fill="#F56050" d="M283.9,361.4V152.7c-32.2,20.2-33.3-21.2-59.5,0v208.7c-21.3,10.9-35.9,33-35.9,58.5
		c0,36.2,29.5,65.7,65.7,65.7c36.2,0,65.7-29.5,65.7-65.7C319.9,394.4,305.2,372.2,283.9,361.4L283.9,361.4z M281.4,428.8"/>
	<path d="M233,50.7h51c2.3,0,4.2-1.9,4.2-4.2c0-2.3-1.9-4.2-4.2-4.2h-51c-2.3,0-4.2,1.9-4.2,4.2C228.7,48.8,230.6,50.7,233,50.7
		L233,50.7z M233,50.7"/>
	<path d="M283.9,59.2h-25.5c-2.3,0-4.2,1.9-4.2,4.2c0,2.3,1.9,4.2,4.2,4.2h25.5c2.3,0,4.2-1.9,4.2-4.2
		C288.2,61.1,286.3,59.2,283.9,59.2L283.9,59.2z M283.9,59.2"/>
	<path d="M233,84.7h51c2.3,0,4.2-1.9,4.2-4.2c0-2.3-1.9-4.2-4.2-4.2h-51c-2.3,0-4.2,1.9-4.2,4.2C228.7,82.8,230.6,84.7,233,84.7
		L233,84.7z M233,84.7"/>
	<path d="M283.9,93.2h-25.5c-2.3,0-4.2,1.9-4.2,4.2c0,2.3,1.9,4.2,4.2,4.2h25.5c2.3,0,4.2-1.9,4.2-4.2
		C288.2,95.1,286.3,93.2,283.9,93.2L283.9,93.2z M283.9,93.2"/>
	<path d="M233,118.7h51c2.3,0,4.2-1.9,4.2-4.3c0-2.3-1.9-4.2-4.2-4.2h-51c-2.3,0-4.2,1.9-4.2,4.2C228.7,116.8,230.6,118.7,233,118.7
		L233,118.7z M233,118.7"/>
	<g>
		<path d="M283.9,127.2h-25.5c-2.3,0-4.2,1.9-4.2,4.2c0,2.3,1.9,4.2,4.2,4.2h25.5c2.3,0,4.2-1.9,4.2-4.2
			C288.2,129.1,286.3,127.2,283.9,127.2L283.9,127.2z M283.9,127.2"/>
		<path fill="#1286C6" d="M309.4,346.5V40.9c0-25.4-19-41.2-49.6-41.2h-9.2c-30.9,0-51.7,16.6-51.7,41.2v305.6
			c-22.2,16.8-36.7,43.4-36.7,73.4c0,50.7,41.2,91.9,91.9,91.9c50.7,0,91.9-41.2,91.9-91.9C346.1,389.9,331.7,363.3,309.4,346.5
			L309.4,346.5z M254.2,502.9c-45.8,0-83-37.2-83-83c0-24.6,10.7-46.7,27.8-61.9c2.7-2.4,5.5-4.6,8.5-6.6V40.9
			c0-24.1,23.3-32.7,43.2-32.7h9.2c9.6,0,41.1,2.4,41.1,32.7v310.3c3,2,5.8,4.3,8.5,6.6c17,15.2,27.8,37.3,27.8,61.9
			C337.2,465.7,300,502.9,254.2,502.9L254.2,502.9z M254.2,502.9"/>
	</g>
	<circle fill="#F2F2F2" cx="282.2" cy="409.8" r="17"/>
</g>
</svg>
