<?xml version="1.0" encoding="iso-8859-1"?>
<!-- Generator: Adobe Illustrator 21.1.0, SVG Export Plug-In . SVG Version: 6.00 Build 0)  -->
<svg version="1.1" baseProfile="tiny" id="Layer_1" xmlns="http://www.w3.org/2000/svg" xmlns:xlink="http://www.w3.org/1999/xlink"
	 x="0px" y="0px" viewBox="-49 141 512 512" overflow="scroll" xml:space="preserve" fill="#000000" stroke="#000000" stroke-width="0" stroke-opacity="1.0" fill-opacity="1.0">

<defs>
  <linearGradient id="retain_4363AD">
    <stop offset="0" stop-color="#4363AD" stop-opacity="1"/>
    <stop offset="1" stop-color="#4363AD" stop-opacity="1"/>
  </linearGradient> 
  <linearGradient id="retain_8FE5F7">
    <stop offset="0" stop-color="#8FE5F7" stop-opacity="1"/>
    <stop offset="1" stop-color="#8FE5F7" stop-opacity="1"/>
  </linearGradient> 
  <linearGradient id="retain_FECE00">
    <stop offset="0" stop-color="#FECE00" stop-opacity="1"/>
    <stop offset="1" stop-color="#FECE00" stop-opacity="1"/>
  </linearGradient> 
  <linearGradient id="retain_FFBC00">
    <stop offset="0" stop-color="#FFBC00" stop-opacity="1"/>
    <stop offset="1" stop-color="#FFBC00" stop-opacity="1"/>
  </linearGradient> 
  <linearGradient id="retain_38599B">
    <stop offset="0" stop-color="#38599B" stop-opacity="1"/>
    <stop offset="1" stop-color="#38599B" stop-opacity="1"/>
  </linearGradient> 
  <linearGradient id="retain_FFFFFF">
    <stop offset="0" stop-color="#FFFFFF" stop-opacity="1"/>
    <stop offset="1" stop-color="#FFFFFF" stop-opacity="1"/>
  </linearGradient> 
</defs>

<path fill="url(#retain_4363AD)" d="M331.307,313.322H-22.549c-14.609,0-26.451,11.843-26.451,26.451v69.083
	c0,45.767,37.101,82.869,82.869,82.869l0,0c32.154,0,61.405-18.6,75.045-47.718l3.193-6.816c16.788-35.84,67.759-35.84,84.547,0
	l3.193,6.816c13.638,29.118,42.891,47.718,75.045,47.718l0,0c45.767,0,82.869-37.101,82.869-82.869v-69.083
	C357.758,325.165,345.915,313.322,331.307,313.322z"/>
<path fill="url(#retain_8FE5F7)" d="M274.889,458.735c-19.267,0-36.997-11.274-45.17-28.721l-3.192-6.814
	c-13.256-28.3-40.902-45.879-72.15-45.879S95.484,394.9,82.229,423.198l-3.193,6.816c-8.173,17.448-25.903,28.721-45.169,28.721
	c-27.503,0-49.879-22.376-49.879-49.88v-62.543h340.777v62.543C324.768,436.359,302.392,458.735,274.889,458.735z"/>
<circle fill="url(#retain_FECE00)" cx="154.381" cy="550.267" r="51.225"/>
<path fill="url(#retain_FFBC00)" d="M205.58,551.73c-0.76,27.62-23.4,49.76-51.2,49.76s-50.43-22.14-51.19-49.76H205.58z"/>
<path fill="url(#retain_4363AD)" d="M438.15,248.56v165.18c0,42.64-14.23,82.14-40.07,111.21c-27.16,30.57-65.35,47.4-107.54,47.4H157.07
	c-11.68,0-21.23-9.11-21.94-20.62c-0.04-0.46-0.05-0.92-0.05-1.38c0-12.14,9.85-21.99,21.99-21.99h133.47
	c29.87,0,55.69-11.28,74.67-32.63c18.67-21.01,28.96-50.13,28.96-81.99V248.56H438.15z"/>
<path fill="url(#retain_38599B)" d="M438.15,233.12v180.62c0,42.64-14.23,82.14-40.07,111.21c-27.16,30.57-65.35,47.4-107.54,47.4H157.07
	c-11.68,0-21.23-9.11-21.94-20.62h155.41c73.96,0,126.62-66.23,126.62-135.48c0-25.76,0.71-131.75,0-167.69
	C416.89,234.86,438.15,247.45,438.15,233.12z"/>
<path fill="url(#retain_FFFFFF)" d="M10.329,401.023c-0.951,0-1.918-0.181-2.853-0.566c-3.839-1.577-5.673-5.968-4.096-9.806l9.899-24.097
	c1.577-3.839,5.967-5.673,9.806-4.095c3.839,1.577,5.673,5.968,4.096,9.806l-9.899,24.097
	C16.09,399.267,13.286,401.023,10.329,401.023z"/>
<path fill="url(#retain_FFFFFF)" d="M55.569,360.959c-3.84-1.578-8.229,0.256-9.806,4.095l-9.899,24.097c-0.073,0.178-0.131,0.357-0.19,0.537
	l-8.844,21.528c-1.577,3.839,0.256,8.229,4.096,9.806c0.935,0.385,1.902,0.566,2.853,0.566c2.957,0,5.761-1.756,6.954-4.661
	l9.899-24.097c0.073-0.178,0.131-0.358,0.19-0.538l8.844-21.528C61.242,366.927,59.408,362.536,55.569,360.959z"/>
<path fill="url(#retain_FECE00)" d="M445.863,248.556h-59.406c-9.464,0-17.136-7.673-17.136-17.136s7.673-17.136,17.136-17.136h59.406
	c9.464,0,17.136,7.673,17.136,17.136S455.326,248.556,445.863,248.556z"/>
<path fill="url(#retain_FFFFFF)" d="M242.329,401.023c-0.951,0-1.918-0.181-2.853-0.566c-3.839-1.577-5.673-5.968-4.096-9.806l9.899-24.097
	c1.577-3.839,5.967-5.673,9.806-4.095c3.84,1.577,5.673,5.968,4.096,9.806l-9.899,24.097
	C248.09,399.267,245.286,401.023,242.329,401.023z"/>
<path fill="url(#retain_FFFFFF)" d="M287.569,360.959c-3.84-1.578-8.229,0.256-9.806,4.095l-9.899,24.097c-0.073,0.178-0.131,0.357-0.19,0.537
	l-8.844,21.528c-1.577,3.839,0.256,8.229,4.096,9.806c0.935,0.385,1.902,0.566,2.853,0.566c2.957,0,5.761-1.756,6.954-4.661
	l9.899-24.097c0.073-0.178,0.131-0.358,0.19-0.538l8.844-21.528C293.242,366.927,291.408,362.536,287.569,360.959z"/>
<path fill="url(#retain_FFBC00)" d="M463,231.42c0,9.46-7.67,17.14-17.14,17.14h-28.48v-34.28h28.48C455.33,214.28,463,221.96,463,231.42z"/>
</svg>
