<?xml version="1.0" encoding="iso-8859-1"?>
<!-- Generator: Adobe Illustrator 21.1.0, SVG Export Plug-In . SVG Version: 6.00 Build 0)  -->
<svg version="1.1" id="Layer_1" xmlns="http://www.w3.org/2000/svg" xmlns:xlink="http://www.w3.org/1999/xlink" x="0px" y="0px"
	 viewBox="-49 141 512 512" style="enable-background:new -49 141 512 512;" xml:space="preserve" fill="#000000" stroke="#000000" stroke-width="0" stroke-opacity="1.0" fill-opacity="1.0">

<defs>
  <linearGradient id="retain_FECE00">
    <stop offset="0" stop-color="#FECE00" stop-opacity="1"/>
    <stop offset="1" stop-color="#FECE00" stop-opacity="1"/>
  </linearGradient> 
    <linearGradient id="retain_FFBC00">
    <stop offset="0" stop-color="#FFBC00" stop-opacity="1"/>
    <stop offset="1" stop-color="#FFBC00" stop-opacity="1"/>
  </linearGradient> 
</defs>

<circle fill="url(#retain_FECE00)" cx="207" cy="397" r="132.998"/>
<path fill="url(#retain_FFBC00)" d="M340,397c0,73.454-59.546,133-133,133V264C280.454,264,340,323.546,340,397z"/>
<path fill="url(#retain_FFBC00)" d="M54,397c0,10.406-8.436,18.841-18.841,18.841h-65.317C-40.564,415.841-49,407.406-49,397
	s8.436-18.841,18.841-18.841h65.317C45.564,378.159,54,386.594,54,397z"/>
<path fill="url(#retain_FFBC00)" d="M463.001,397c0,10.406-8.436,18.841-18.841,18.841h-65.317c-10.406,0-18.841-8.436-18.841-18.841
	s8.436-18.841,18.841-18.841h65.317C454.565,378.159,463.001,386.594,463.001,397z"/>
<path fill="url(#retain_FFBC00)" d="M207,244c-10.406,0-18.841-8.436-18.841-18.841v-65.317c0-10.406,8.436-18.841,18.841-18.841
	c10.406,0,18.841,8.436,18.841,18.841v65.317C225.842,235.564,217.406,244,207,244z"/>
<path fill="url(#retain_FFBC00)" d="M207,653c-10.406,0-18.841-8.436-18.841-18.841v-65.317c0-10.406,8.436-18.841,18.841-18.841
	c10.406,0,18.841,8.436,18.841,18.841v65.317C225.842,644.565,217.406,653,207,653z"/>
<path fill="url(#retain_FFBC00)" d="M100.482,288.812c-7.358,7.358-19.288,7.358-26.646,0L27.65,242.626
	c-7.358-7.358-7.358-19.288,0-26.646c7.358-7.358,19.288-7.358,26.646,0l46.186,46.186
	C107.84,269.524,107.84,281.455,100.482,288.812z"/>
<path fill="url(#retain_FFBC00)" d="M389.689,578.02c-7.358,7.358-19.288,7.358-26.646,0l-46.186-46.186
	c-7.358-7.358-7.358-19.288,0-26.646c7.358-7.358,19.288-7.358,26.646,0l46.186,46.186
	C397.047,558.732,397.047,570.662,389.689,578.02z"/>
<path fill="url(#retain_FFBC00)" d="M316.857,288.812c-7.358-7.358-7.358-19.288,0-26.646l46.186-46.186
	c7.358-7.358,19.288-7.358,26.646,0c7.358,7.358,7.358,19.288,0,26.646l-46.186,46.186
	C336.145,296.17,324.215,296.17,316.857,288.812z"/>
<path fill="url(#retain_FFBC00)" d="M27.65,578.02c-7.358-7.358-7.358-19.288,0-26.646l46.186-46.186c7.358-7.358,19.288-7.358,26.646,0
	c7.358,7.358,7.358,19.288,0,26.646L54.296,578.02C46.938,585.377,35.008,585.377,27.65,578.02z"/>
</svg>
