<?xml version="1.0" encoding="utf-8"?>
<!-- Generator: Adobe Illustrator 21.1.0, SVG Export Plug-In . SVG Version: 6.00 Build 0)  -->
<svg version="1.1" baseProfile="tiny" id="Слой_1"
	 xmlns="http://www.w3.org/2000/svg" xmlns:xlink="http://www.w3.org/1999/xlink" x="0px" y="0px" viewBox="0 0 512 512"
	 overflow="scroll" xml:space="preserve">
<g>
	<g>
		<path id="XMLID_73_" fill="#DD264C" d="M490.5,61.3c-12.1-5.9-25.8-5.3-36.9,0.5l0,0c-2.3-12.3-10.1-23.5-22.3-29.4
			c-20.3-9.9-44.8-1.5-54.8,18.8c-14.8,30.3,25.8,111.2,26.9,113.3l0,0.1c0,0,90.3-16.6,105.9-48.4
			C519.2,95.8,510.8,71.2,490.5,61.3z"/>
	</g>
	<g>
		<path id="XMLID_74_" fill="#BB1637" d="M123,45.8C109.8,48.9,99.7,58,94.7,69.6l0,0c-9.6-8.1-22.7-11.7-35.9-8.6
			c-22,5.2-35.6,27.2-30.4,49.2c7.7,32.8,90.4,69.7,92.6,70.6l0.1,0c0,0,59.3-70.1,51.2-104.6C167,54.2,145,40.6,123,45.8z"/>
	</g>
	<polygon fill="#DC800B" points="151.2,157.7 118.8,172.6 84.7,173.4 92.8,207.9 159.3,192.2 	"/>
	<circle fill="#E2758D" cx="408" cy="61.2" r="16.8"/>
	<path fill="#BB1637" d="M490.5,61.3c-1.5-0.7-3-1.4-4.5-1.9c-4.8,39.5-38.5,70.1-79.3,70.1c-6.7,0-13.3-0.8-19.5-2.4
		c7.7,20.3,15.8,36.4,16.2,37.4l0,0.1c0,0,90.3-16.6,105.9-48.4C519.2,95.8,510.8,71.2,490.5,61.3z"/>
	<path fill="#BB1637" d="M204.6,220.7c9.3,4.4,18,9.9,25.9,16.5c-1,1.6-1.9,3.2-2.8,4.9c-0.2-0.2-0.5-0.4-0.7-0.6
		c-7.5-6.3-15.9-11.6-24.7-15.7c-0.2-0.1-0.3-0.1-0.5-0.2C202.7,223.9,203.6,222.3,204.6,220.7z"/>
	<path fill="#BB1637" d="M249.7,213.3c-8.1-6.7-16.8-12.5-26.1-17.4c1.3-1.4,2.7-2.8,4.1-4.1c9,4.9,17.6,10.7,25.5,17.2
		c0.2,0.2,0.4,0.3,0.6,0.5C252.5,210.7,251.1,212,249.7,213.3z"/>
	<path fill="#FFD54F" d="M300.7,295.4c-7.9-33.5-26.4-61.8-51-82.1c-8.1-6.7-16.8-12.5-26.1-17.4c-31.2-16.4-68.3-22.1-105.3-13.3
		C36.8,201.8-13.7,283.5,5.5,365c19.2,81.5,100.9,132,182.4,112.8c29.8-7,55.5-22.4,75.1-43.1c-9.4-5-18.2-10.8-26.1-17.3
		c-15.1,14.6-34.2,25.4-56.1,30.5c-65,15.3-130.1-24.9-145.5-89.9c-15.3-65,24.9-130.1,89.9-145.5c27.7-6.5,55.3-3,79.2,8.3
		c9.3,4.4,18,9.9,25.9,16.5c19.5,16.2,34.1,38.6,40.3,65.2c7.6,32.3,1.5,64.7-14.6,91c7.3,6.1,15.4,11.4,24.3,15.7
		c0.6,0.3,1.1,0.5,1.7,0.8C302.6,376.9,310.4,336.1,300.7,295.4z"/>
	<path fill="#BB1637" d="M263.1,434.7c-1.3,1.4-2.7,2.8-4.1,4.1c-9.1-4.9-17.7-10.7-25.6-17.2c-0.2-0.2-0.4-0.3-0.6-0.5
		c1.4-1.2,2.8-2.5,4.1-3.8C244.9,423.9,253.6,429.7,263.1,434.7z"/>
	<path fill="#BB1637" d="M285,405.1c-0.9,1.6-1.9,3.2-2.8,4.8c-0.5-0.3-1.1-0.5-1.7-0.8c-8.9-4.3-17-9.6-24.3-15.7
		c1-1.6,1.9-3.2,2.8-4.9c0.2,0.2,0.5,0.4,0.7,0.6c7.1,5.9,14.9,10.9,23.2,15c0.4,0.2,0.8,0.4,1.1,0.5l0.5,0.2
		C284.7,404.9,284.9,405,285,405.1z"/>
	<path fill="#DC800B" d="M237,417.3c7.9,6.5,16.6,12.4,26.1,17.3c-1.3,1.4-2.7,2.8-4.1,4.1c-9.1-4.9-17.7-10.7-25.6-17.2
		c-0.2-0.2-0.4-0.3-0.6-0.5C234.3,419.9,235.6,418.6,237,417.3z"/>
	<polygon fill="#DC800B" points="441.4,165.8 406.9,156.8 380,135.8 364.5,167.6 425.8,197.6 	"/>
	<path fill="#DC800B" d="M285,405.1c-0.9,1.6-1.9,3.2-2.8,4.8c-0.5-0.3-1.1-0.5-1.7-0.8c-8.9-4.3-17-9.6-24.3-15.7
		c1-1.6,1.9-3.2,2.8-4.9c0.2,0.2,0.5,0.4,0.7,0.6c7.1,5.9,14.9,10.9,23.2,15c0.4,0.2,0.8,0.4,1.1,0.5l0.5,0.2
		C284.7,404.9,284.9,405,285,405.1z"/>
	<path fill="#F7AC1B" d="M400.2,164.2c-61-29.8-132.2-15-176.5,31.7c9.3,4.9,18,10.7,26.1,17.4c35.6-34.2,90.1-44.4,137-21.5
		c60,29.3,84.9,101.7,55.5,161.7c-29.1,59.5-100.4,84.4-160.1,56.3c-0.6-0.3-1.1-0.5-1.7-0.8c-8.9-4.3-17-9.6-24.3-15.7
		c-41.9-34.8-56.2-94.9-31.3-146.1c1.7-3.5,3.6-6.8,5.5-10.1c-7.9-6.6-16.6-12.1-25.9-16.5c-2.6,4.2-5,8.6-7.2,13.1
		c-31.4,64.3-13.2,139.9,39.6,183.5c7.9,6.5,16.6,12.4,26.1,17.3c1.3,0.7,2.6,1.4,4,2c75.3,36.8,166.1,5.6,202.8-69.7
		C506.6,291.8,475.5,201,400.2,164.2z"/>
	<path fill="#DC800B" d="M230.5,237.2c-1,1.6-1.9,3.2-2.8,4.9c-0.2-0.2-0.5-0.4-0.7-0.6c-7.5-6.3-15.9-11.6-24.7-15.7
		c-0.2-0.1-0.3-0.1-0.5-0.2c0.9-1.6,1.9-3.2,2.8-4.8C213.9,225.1,222.6,230.7,230.5,237.2z"/>
	<path fill="#DC800B" d="M253.9,209.5c-1.4,1.2-2.8,2.5-4.1,3.8c-8.1-6.7-16.8-12.5-26.1-17.4c1.3-1.4,2.7-2.8,4.1-4.1
		c9,4.9,17.6,10.7,25.5,17.2C253.5,209.2,253.7,209.3,253.9,209.5z"/>
	<path fill="#DD264C" d="M122.7,96.8c0,27.9-14.9,52.4-37.2,65.8c-24.2-13.9-52.8-33.8-57.1-52.4c-5.2-22,8.4-44.1,30.4-49.2
		c3.2-0.7,6.3-1.1,9.4-1.1c9.9,0,19.2,3.6,26.5,9.8c2.9-6.8,7.7-12.8,13.8-17.2C117.4,64.9,122.7,80.2,122.7,96.8z"/>
	<circle fill="#E2758D" cx="61.1" cy="102.8" r="16.7"/>
</g>
</svg>
