<?xml version="1.0" encoding="utf-8"?>
<!-- Generator: Adobe Illustrator 21.1.0, SVG Export Plug-In . SVG Version: 6.00 Build 0)  -->
<svg version="1.1" baseProfile="tiny" id="Слой_1"
	 xmlns="http://www.w3.org/2000/svg" xmlns:xlink="http://www.w3.org/1999/xlink" x="0px" y="0px" viewBox="0 0 512 512"
	 overflow="scroll" xml:space="preserve">
<g>
	<path fill="#60721E" d="M360.8,158c0,0,5.5,7.9,0.4,13.4c-5.1,5.5,15.4,2.4,15.4,2.4l-6.3-14.2L360.8,158z"/>
	<path fill="#60721E" d="M503,203.8c0,0-4.1,1.5-4.4,7s-6.6-0.7-6.6-0.7l-4.7-9.5L503,203.8z"/>
	<path fill="#E41515" d="M375,162.7c-55.3,14.2-85.3,267.1-260.7,270.2c-39.3,0.7-70.3-13.1-89.7-22.6c-7.5-3.7-15.6-0.2-17.5,7.9
		c-0.1,0.4-0.2,0.8-0.2,1.2c-0.1,0.9-0.1,1.7,0,2.6c0.2,2.3,1.2,6.5,4.7,10.9c5,6.4,81.4,87.9,207,79
		c96.5-6.9,160.4-62.8,180.2-80.6c54-48.7,134.5-154.1,98-224.4C477.2,169.6,410.9,153.5,375,162.7z"/>
	<path fill="#C51010" d="M496.7,207c-2.3-4.5-5.3-8.6-8.9-12.5l-25.3,17.1c3.3,2.9,5.9,6,7.5,9.2c7.8,15.1,11.6,43.3-14.8,92.2
		c-21,38.9-53.4,75.1-76.6,96.1c-7.4,6.7-26.5,25.6-55.9,40.5C119,553,7.1,418.2,7.1,418.2c0,0,0,0,0,0.1c-0.1,0.4-0.2,0.8-0.2,1.2
		c-0.1,0.9-0.1,1.7,0,2.6c0.2,2.3,1.2,6.5,4.7,10.9c4.8,6,73.7,79.7,187.9,79.7c6.2,0,12.6-0.2,19.1-0.7
		c96.5-6.9,160.4-62.8,180.2-80.6C452.7,382.7,533.2,277.3,496.7,207z"/>
	<path fill="#B5D25E" d="M375.1,7.4c-8.3,2.5,4.7,16.6,9.8,17.2c4.6,0.6,7.9-4.9,14.3-8.2c14.2-7.5,45.3-5.5,51.7,26.2
		c2.7,13.7,14.2,115.4-90.1,115.4c6.3,3.2,17.4,15.8,4.7,33.2c0,0,35.4-13.8,49,31.6c17.4-19,36.3-19,56.9,3.2
		c3.2-25.3,31.6-22.1,31.6-22.1s-26.9-22.1-36.8-37.3c-9.4-14.2-4.3-29.1-2.6-40.5C466,110,501.4-31.7,375.1,7.4z"/>
	<path fill="#99B54E" d="M471.4,225.9c3.2-25.3,31.6-22.1,31.6-22.1s-26.9-22.1-36.8-37.3c-9.4-14.2-4.3-29.1-2.6-40.5
		c1-6.8,7.9-35.9,6-64.4c-0.8,18.2-7.7,73.9-34,91.2c-4.9,3.2-6,11.8-0.6,14.1c22.7,9.4,22.1,20.3,17.4,28.5c-1.9,3.4,0,7.6,3.7,8.8
		C462.2,206.2,467.2,212.2,471.4,225.9z"/>
	<path fill="#99B54E" d="M372.6,11.9L372.6,11.9c1.1,5.1,8.7,12.3,12.3,12.8c4.6,0.6,7.9-4.9,14.3-8.2c14.2-7.5,45.3-5.5,51.7,26.2
		c0.5,2.4,1.2,7.5,1.6,14.2c0,0,0,0,0,0c-1.6-72.7-60-42.7-66.4-39.5S372.6,11.9,372.6,11.9z"/>
	<path fill="#DEF28B" d="M419.9,194.5c-4.6,9.6-8-6.2-19-11.5c-11-5.3-25.5,1.9-20.9-7.7c4.6-9.6,17.3-13,28.3-7.7
		S424.5,184.9,419.9,194.5z"/>
	<path fill="#F18686" d="M83.3,447.7c-2.8-0.5-3.7,3.5-1,4.3c48.3,14.6,147.1,29,232.7-55.4c118.5-116.9,97.6-162.1,61.6-150.1
		c-23.7,7.9-43.7,61.2-59.5,91c-16.6,31.4-40.5,58.6-70.1,78.3C210.1,440.3,156.1,460.1,83.3,447.7z"/>
</g>
</svg>
