<?xml version="1.0" encoding="utf-8"?>
<!-- Generator: Adobe Illustrator 21.1.0, SVG Export Plug-In . SVG Version: 6.00 Build 0)  -->
<svg version="1.1" baseProfile="tiny" id="Слой_1"
	 xmlns="http://www.w3.org/2000/svg" xmlns:xlink="http://www.w3.org/1999/xlink" x="0px" y="0px" viewBox="0 0 512 512"
	 overflow="scroll" xml:space="preserve">
<g>
	<path fill="#93784D" d="M196,203.4c0-58.9-45.4-106.6-101.4-106.6S1,135.4,1,194.3C1,253.2,66,310,85,310
		C141.1,310,196,262.3,196,203.4"/>
	<path fill="#CE9595" d="M101.4,308.7c49.9-8.1,94.6-52.1,94.6-105.3c0-23.4-7.2-45-19.3-62.5c-16.2-15-37.5-24.1-60.8-24.1
		c-50.8,0-84.8,35-84.8,88.4C31.1,253.5,79.4,300.3,101.4,308.7"/>
	<path fill="#93784D" d="M318,203.4c0-58.9,45.4-106.6,101.4-106.6s93.5,38.6,93.5,97.5c0,58.9-65,115.7-84,115.7
		C373,310,318,262.3,318,203.4"/>
	<path fill="#CE9595" d="M412.7,308.7c-49.9-8.1-94.6-52.1-94.6-105.3c0-23.4,7.2-45,19.3-62.5c16.2-15,37.5-24.1,60.8-24.1
		c50.8,0,84.8,35,84.8,88.4C482.9,253.5,434.6,300.3,412.7,308.7"/>
	<path fill="#A08652" d="M456.2,246.6c-7.8-16-18.9-44.2-26-84.5c-9.6-54.8-43.6-102.6-93.3-127.6C293.4,12.6,254.2,12,254.2,12
		h-9.5c0,0-39.2,0.5-82.7,22.4c-49.7,25-83.7,72.8-93.3,127.6c-7,40.3-18.2,68.5-26,84.5c-13,26.8-18.7,56.6-15.2,86.2
		c6.5,54.9,43.4,126.2,183.1,152.9c4.7,0.9,28.6,3.7,37.3,4.7l0,0.4c0,0,0.6-0.1,1.6-0.2c1,0.1,1.6,0.2,1.6,0.2l0-0.4
		c8.7-1,32.5-3.8,37.3-4.7c139.7-26.8,176.6-98.1,183.1-152.9C474.8,303.2,469.2,273.4,456.2,246.6"/>
	<path fill="#C2AF84" d="M409.5,268c0-47.7-38.7-86.4-86.4-86.4c-30.9,0-58,16.3-73.3,40.7H249c-15.3-24.4-42.4-40.7-73.3-40.7
		c-47.7,0-86.4,38.7-86.4,86.4c0,39.6,26.7,73,63.1,83.2c-10.8,15.5-17.2,34.4-17.2,54.7c0,26.2,10.5,49.9,27.5,67.2
		c14.8,4.8,31.2,9.1,49.3,12.5c5.8,1.1,11.5,3.1,16.6,6c9.8,5.6,31.5,5.6,41.4,0c5.1-3,10.8-4.9,16.6-6c18.1-3.5,34.5-7.7,49.3-12.5
		c17-17.3,27.5-41,27.5-67.2c0-20.3-6.4-39.2-17.2-54.7C382.8,341.1,409.5,307.7,409.5,268"/>
	<path fill="#00092D" d="M195.2,283.1c0,19.7-11.7,35.7-26.2,35.7c-14.4,0-26.2-16-26.2-35.7c0-19.7,11.7-35.7,26.2-35.7
		C183.5,247.4,195.2,263.4,195.2,283.1"/>
	<path fill="#EDFFE3" d="M182.5,267.2c0,3.9-3.2,7.1-7.1,7.1c-3.9,0-7.1-3.2-7.1-7.1c0-3.9,3.2-7.1,7.1-7.1
		C179.3,260.1,182.5,263.3,182.5,267.2"/>
	<path fill="#00092D" d="M306.2,283.1c0,19.7,11.7,35.7,26.2,35.7s26.2-16,26.2-35.7c0-19.7-11.7-35.7-26.2-35.7
		S306.2,263.4,306.2,283.1"/>
	<path fill="#EDFFE3" d="M318.8,267.2c0,3.9,3.2,7.1,7.1,7.1c3.9,0,7.1-3.2,7.1-7.1c0-3.9-3.2-7.1-7.1-7.1
		C322,260.1,318.8,263.3,318.8,267.2"/>
	<path fill="#9D6766" d="M254.1,338.2c-2.4-0.2-7.1-0.3-9.5,0c-15.7,1.7-44.7,10.2-40.3,25.2c6,20.4,18.1,12.9,24.6,6.9
		c6.5-6,9.4-0.8,9.2,1.5c-0.5,5.2-6.1,9.1,6.9,11.6c4.2,0.8,5.1,0.7,9.3,0.1c13.1-2.1,6.7-6.5,6.3-11.7c-0.2-2.3,2.6-7.4,9.2-1.5
		c6.5,6,18.6,13.4,24.6-6.9C298.8,348.4,269.9,339.7,254.1,338.2z"/>
	<path fill="#A55656" d="M293.2,410.9h-43.8v0h-43.9c-7.7,0-12.6,8.3-8.9,15c9.6,17.7,29.2,29.9,51.9,30.5l0,0.1c0.3,0,0.6,0,0.8,0
		c0.3,0,0.6,0,0.9,0l0-0.1c22.7-0.6,42.2-12.8,51.8-30.5C305.8,419.1,300.9,410.9,293.2,410.9z"/>
	<path fill="#AA7272" d="M248.6,424.4c-18.8,0-35.1,5.2-43.6,12.9c10.6,11.3,26.2,18.6,43.5,19.1l0,0.1c0.3,0,0.6,0,0.8,0
		c0.3,0,0.6,0,0.9,0l0-0.1c16.9-0.4,32.1-7.4,42.7-18.3C284.9,430,268,424.4,248.6,424.4z"/>
</g>
</svg>
