<?xml version="1.0" encoding="utf-8"?>
<!-- Generator: Adobe Illustrator 21.1.0, SVG Export Plug-In . SVG Version: 6.00 Build 0)  -->
<svg version="1.1" baseProfile="tiny" id="Слой_1"
	 xmlns="http://www.w3.org/2000/svg" xmlns:xlink="http://www.w3.org/1999/xlink" x="0px" y="0px" viewBox="0 0 512 512"
	 overflow="scroll" xml:space="preserve">
<g>
	<path fill="#FFD54F" d="M191.9,73.7C96.8,63.5,11.4,132.2,1.2,227.3C-9.1,322.4,59.7,407.8,154.8,418
		c95.1,10.2,180.5-58.5,190.7-153.6C355.7,169.3,287,84,191.9,73.7z M158,387.8C79.7,379.3,23,309,31.4,230.6
		c8.4-78.4,78.8-135.1,157.2-126.6c78.4,8.4,135.1,78.8,126.6,157.2C306.8,339.5,236.4,396.2,158,387.8z"/>
	<path fill="#DC800B" d="M332,272.4c6.3-58.1-23.3-111.8-70.9-139.1c37.6,29.4,59.6,76.9,54.2,127.8
		c-8.4,78.4-78.8,135.1-157.2,126.6c-20.3-2.2-39.1-8.5-55.7-18.1c20.3,15.8,45,26.4,72.5,29.4C253.2,407.5,323.5,350.8,332,272.4z"
		/>
	<path fill="#FFD54F" d="M356.9,158.8C280.2,150.5,211.3,206,203,282.7c-8.3,76.7,47.2,145.6,123.9,153.9
		c76.7,8.3,145.6-47.2,153.9-123.9C489.1,235.9,433.6,167,356.9,158.8z M329.6,412.2c-63.2-6.8-109-63.6-102.2-126.8
		c6.8-63.2,63.6-109,126.8-102.2c63.2,6.8,109,63.6,102.2,126.8C449.6,373.2,392.8,419,329.6,412.2z"/>
	<path fill="#F7AC1B" d="M17.9,238.6C28.2,143.5,113.5,74.7,208.6,85c25.5,2.7,49.1,10.9,69.8,23.2c-24.3-18.6-53.9-31-86.5-34.5
		C96.8,63.5,11.4,132.2,1.2,227.3C-6.3,296.9,28.5,361.3,85,394.8C38.5,359.3,11.2,301,17.9,238.6z"/>
	<path fill="#DC800B" d="M473.1,321.3c5.1-47.6-19.5-91.6-59-113.3c29.5,23.8,46.7,61.6,42.3,102c-6.8,63.2-63.6,109-126.8,102.2
		c-15.6-1.7-30.2-6.4-43.1-13.5c16.6,13.4,37.1,22.4,59.9,24.8C409.5,430.2,466.3,384.5,473.1,321.3z"/>
	<path fill="#FFB300" d="M219.7,294c8.3-76.7,77.2-132.2,153.9-123.9c19.8,2.1,38.1,8.3,54.3,17.6c-19.9-15.6-44.1-25.9-71.1-28.8
		C280.2,150.5,211.3,206,203,282.7c-6.1,56.9,22.9,109.6,69.6,136.3C235.9,390.2,214.4,343.8,219.7,294z"/>
	<g>
		<polygon fill="#F2A3B7" points="503.9,160.3 489.2,143.6 477.3,165 		"/>
		<polygon fill="#F5B6C5" points="501.5,192.4 512.2,169.7 503.9,160.3 477.3,165 		"/>
		<polygon fill="#F9DAE2" points="477.3,165 489.2,143.6 479.8,132.9 454.1,138.6 		"/>
		<polygon fill="#F9DAE2" points="463.3,114.1 457,107 431.1,111.6 431,112.4 454.1,138.6 		"/>
		<polygon fill="#F2A3B7" points="479.8,132.9 463.3,114.1 454.1,138.6 		"/>
		<polygon fill="#F5B6C5" points="431,112.4 413.7,199 454.1,138.6 		"/>
		<polygon fill="#F9DAE2" points="477.3,165 413.7,199 501,193.4 501.5,192.4 		"/>
		<polygon fill="#FBECEF" points="454.1,138.6 413.7,199 477.3,165 		"/>
	</g>
</g>
</svg>
