<?xml version="1.0" encoding="utf-8"?>
<!-- Generator: Adobe Illustrator 21.1.0, SVG Export Plug-In . SVG Version: 6.00 Build 0)  -->
<svg version="1.1" baseProfile="tiny" id="Слой_1"
	 xmlns="http://www.w3.org/2000/svg" xmlns:xlink="http://www.w3.org/1999/xlink" x="0px" y="0px" viewBox="0 0 512 512"
	 overflow="scroll" xml:space="preserve">
<g>
	<g>
		<path fill="#70A8E2" d="M274,494V18.1c0-10-8.1-18.1-18.1-18.1c-10,0-18.1,8.1-18.1,18.1V494c0,10,8.1,18.1,18.1,18.1
			C265.9,512.1,274,504,274,494z"/>
		<g>
			<g>
				<path fill="#70A8E2" d="M332.6,85.2c-7.1-7.1-18.5-7.1-25.5,0l-51.1,51.1l-51.1-51.1c-7.1-7.1-18.5-7.1-25.5,0
					c-7.1,7.1-7.1,18.5,0,25.5l63.2,63.2c3.7,3.7,8.6,5.4,13.5,5.3c4.9,0.2,9.8-1.6,13.5-5.3l63.2-63.2
					C339.6,103.7,339.6,92.3,332.6,85.2z"/>
				<path fill="#70A8E2" d="M312.9,28.1c-7.1-7.1-18.5-7.1-25.5,0l-31.5,31.5l-31.5-31.5c-7.1-7.1-18.5-7.1-25.5,0
					c-7.1,7.1-7.1,18.5,0,25.5l43.5,43.5c3.7,3.7,8.6,5.4,13.5,5.3c4.9,0.2,9.8-1.6,13.5-5.3l43.5-43.5
					C320,46.6,320,35.2,312.9,28.1z"/>
			</g>
			<g>
				<path fill="#70A8E2" d="M332.6,427c-7.1,7.1-18.5,7.1-25.5,0l-51.1-51.1L204.8,427c-7.1,7.1-18.5,7.1-25.5,0
					c-7.1-7.1-7.1-18.5,0-25.5l63.2-63.2c3.7-3.7,8.6-5.4,13.5-5.3c4.9-0.2,9.8,1.6,13.5,5.3l63.2,63.2
					C339.6,408.5,339.6,419.9,332.6,427z"/>
				<path fill="#70A8E2" d="M312.9,484.1c-7.1,7.1-18.5,7.1-25.5,0l-31.5-31.5l-31.5,31.5c-7.1,7.1-18.5,7.1-25.5,0
					c-7.1-7.1-7.1-18.5,0-25.5l43.5-43.5c3.7-3.7,8.6-5.4,13.5-5.3c4.9-0.2,9.8,1.6,13.5,5.3l43.5,43.5
					C320,465.6,320,477,312.9,484.1z"/>
			</g>
		</g>
	</g>
	<g>
		<path fill="#70A8E2" d="M471,359.4L58.9,121.5c-8.6-5-19.7-2-24.7,6.6c-5,8.6-2,19.7,6.6,24.7l412.1,237.9c8.6,5,19.7,2,24.7-6.6
			C482.6,375.5,479.6,364.4,471,359.4z"/>
		<g>
			<g>
				<path fill="#70A8E2" d="M146.2,104.3c-9.6,2.6-15.3,12.5-12.8,22.1l18.7,69.8l-69.8,18.7c-9.6,2.6-15.3,12.5-12.8,22.1
					c2.6,9.6,12.5,15.3,22.1,12.8l86.3-23.1c5.1-1.4,9-4.7,11.3-9c2.6-4.1,3.5-9.2,2.2-14.3L168.4,117
					C165.8,107.4,155.9,101.7,146.2,104.3z"/>
				<path fill="#70A8E2" d="M87,92.7c-9.6,2.6-15.3,12.5-12.8,22.1l11.5,43l-43,11.5c-9.6,2.6-15.3,12.5-12.8,22.1
					c2.6,9.6,12.5,15.3,22.1,12.8l59.5-15.9c5.1-1.4,9-4.7,11.3-9c2.6-4.1,3.5-9.2,2.2-14.3l-15.9-59.5
					C106.5,95.9,96.6,90.1,87,92.7z"/>
			</g>
			<g>
				<path fill="#70A8E2" d="M442.2,275.1c2.6,9.6-3.1,19.5-12.8,22.1L359.6,316l18.7,69.8c2.6,9.6-3.1,19.5-12.8,22.1
					c-9.6,2.6-19.5-3.1-22.1-12.8l-23.1-86.3c-1.4-5.1-0.4-10.2,2.2-14.3c2.3-4.3,6.2-7.7,11.3-9l86.3-23.1
					C429.7,259.8,439.6,265.5,442.2,275.1z"/>
				<path fill="#70A8E2" d="M481.9,320.7c2.6,9.6-3.1,19.5-12.8,22.1l-43,11.5l11.5,43c2.6,9.6-3.1,19.5-12.8,22.1
					c-9.6,2.6-19.5-3.1-22.1-12.8l-15.9-59.5c-1.4-5.1-0.4-10.2,2.2-14.3c2.3-4.3,6.2-7.7,11.3-9l59.5-15.9
					C469.4,305.4,479.3,311.1,481.9,320.7z"/>
			</g>
		</g>
	</g>
	<g>
		<path fill="#70A8E2" d="M452.9,121.5L40.8,359.4c-8.6,5-11.6,16-6.6,24.7c5,8.6,16,11.6,24.7,6.6L471,152.7
			c8.6-5,11.6-16,6.6-24.7C472.6,119.5,461.6,116.5,452.9,121.5z"/>
		<g>
			<g>
				<path fill="#70A8E2" d="M69.6,275.1c-2.6,9.6,3.1,19.5,12.8,22.1l69.8,18.7l-18.7,69.8c-2.6,9.6,3.1,19.5,12.8,22.1
					c9.6,2.6,19.5-3.1,22.1-12.8l23.1-86.3c1.4-5.1,0.4-10.2-2.2-14.3c-2.3-4.3-6.2-7.7-11.3-9l-86.3-23.1
					C82.1,259.8,72.2,265.5,69.6,275.1z"/>
				<path fill="#70A8E2" d="M30,320.7c-2.6,9.6,3.1,19.5,12.8,22.1l43,11.5l-11.5,43c-2.6,9.6,3.1,19.5,12.8,22.1
					c9.6,2.6,19.5-3.1,22.1-12.8l15.9-59.5c1.4-5.1,0.4-10.2-2.2-14.3c-2.3-4.3-6.2-7.7-11.3-9l-59.5-15.9
					C42.4,305.4,32.5,311.1,30,320.7z"/>
			</g>
			<g>
				<path fill="#70A8E2" d="M365.6,104.3c9.6,2.6,15.3,12.5,12.8,22.1l-18.7,69.8l69.8,18.7c9.6,2.6,15.3,12.5,12.8,22.1
					c-2.6,9.6-12.5,15.3-22.1,12.8l-86.3-23.1c-5.1-1.4-9-4.7-11.3-9c-2.6-4.1-3.5-9.2-2.2-14.3l23.1-86.3
					C346,107.4,355.9,101.7,365.6,104.3z"/>
				<path fill="#70A8E2" d="M424.8,92.7c9.6,2.6,15.3,12.5,12.8,22.1l-11.5,43l43,11.5c9.6,2.6,15.3,12.5,12.8,22.1
					c-2.6,9.6-12.5,15.3-22.1,12.8l-59.5-15.9c-5.1-1.4-9-4.7-11.3-9c-2.6-4.1-3.5-9.2-2.2-14.3l15.9-59.5
					C405.3,95.9,415.2,90.1,424.8,92.7z"/>
			</g>
		</g>
	</g>
</g>
</svg>
