<?xml version="1.0" encoding="utf-8"?>
<!-- Generator: Adobe Illustrator 21.1.0, SVG Export Plug-In . SVG Version: 6.00 Build 0)  -->
<svg version="1.1" baseProfile="tiny" id="Слой_1"
	 xmlns="http://www.w3.org/2000/svg" xmlns:xlink="http://www.w3.org/1999/xlink" x="0px" y="0px" viewBox="0 0 512 512"
	 overflow="scroll" xml:space="preserve">
<g>
	<path fill="#E74757" d="M0.6,183.7c3.5-0.3,22.6-2,43.9-5.2c12.8-2,24.9-4.5,33-6.4c3.3-0.9,6.6-1.8,10.1-2.5
		c0.3-0.1,0.4-0.1,0.4-0.1l0,0c8.7-1.7,18-2.6,27.8-2.6c6.4,0,13.1,0.4,19.7,1.1c26,3,45.5,11.3,59.9,22.3l-0.1-0.1
		c18.8,13.5,31.7,10.7,60.5,10.7c28.8,0,41.7,2.8,60.5-10.7l-0.1,0.1c14.4-11,34-19.3,59.9-22.3c6.7-0.8,13.3-1.1,19.7-1.1
		c9.7,0,19,0.9,27.8,2.6l0,0c0,0,0.2,0,0.4,0.1c3.5,0.7,6.8,1.5,10.1,2.5c8.2,1.9,20.2,4.5,33.1,6.4c21.3,3.3,40.4,4.9,43.9,5.2
		c0.3,0,0.6,0.3,0.6,0.6v21.5c0,0.3-0.3,0.6-0.6,0.6c-3.6,0.3-22.6,2.8-20.4,25.8l0,0c1.3,26.6-8.5,53.6-27.5,74.9
		c-21.5,24.2-51.8,37.5-85.1,37.5c-27,0-50.6-9.7-68.3-28.1c-15.7-16.4-23.3-35.6-25.8-51l0,0c-3.7-23.7-14.8-42.3-28.3-42.3
		c-13.5,0-24.6,18.5-28.3,42.3l0,0c-2.5,15.4-10.1,34.6-25.8,51c-17.7,18.4-41.3,28.1-68.3,28.1c-33.3,0-63.6-13.3-85.1-37.5
		c-19-21.3-28.8-48.3-27.5-74.9l0,0c2.2-23-16.8-25.5-20.4-25.8c-0.3,0-0.6-0.3-0.6-0.6v-21.5C0,184,0.2,183.7,0.6,183.7z"/>
	<path fill="#FCFDC4" d="M378.4,325.3c27.8,0,52.9-11,70.8-31.1c16.8-18.9,24.9-43,22.2-66.1c-2.8-24-35.1-42.1-75.3-42.1
		c-5.7,0-11.6,0.3-17.6,1c-54.4,6.2-74.9,38.1-76,65.9c-0.4,10,3.7,31.8,21.4,50.1C338,317.6,356.8,325.3,378.4,325.3z"/>
	<path fill="#FCFDC4" d="M133.6,325.3c-27.8,0-52.9-11-70.8-31.1c-16.8-18.9-24.9-43-22.2-66.1c2.8-24,35.1-42.1,75.3-42.1
		c5.7,0,11.6,0.3,17.6,1c54.4,6.2,74.9,38.1,76,65.9c0.4,10-3.7,31.8-21.4,50.1C174,317.6,155.2,325.3,133.6,325.3z"/>
	<path fill="#E8D567" d="M133.4,191.9c-6-0.7-11.9-1-17.6-1c-40.1,0-72.5,18.1-75.3,42.1c-0.2,2.1-0.3,4.2-0.4,6.4
		c-0.1-3.7-0.1-7.5,0.4-11.2c2.8-24,35.1-42.1,75.3-42.1c5.7,0,11.6,0.3,17.6,1c54.4,6.2,74.9,38.1,76,65.9c0,1.2,0,2.5-0.1,3.9
		C207.9,229.3,187.3,198,133.4,191.9z"/>
	<path fill="#E8D567" d="M378.6,191.9c6-0.7,11.9-1,17.6-1c40.1,0,72.5,18.1,75.3,42.1c0.2,2.1,0.3,4.2,0.4,6.4
		c0.1-3.7,0.1-7.5-0.4-11.2c-2.8-24-35.1-42.1-75.3-42.1c-5.7,0-11.6,0.3-17.6,1c-54.4,6.2-74.9,38.1-76,65.9c0,1.2,0,2.5,0.1,3.9
		C304.1,229.3,324.7,198,378.6,191.9z"/>
</g>
</svg>
