<?xml version="1.0" encoding="utf-8"?>
<!-- Generator: Adobe Illustrator 21.1.0, SVG Export Plug-In . SVG Version: 6.00 Build 0)  -->
<svg version="1.1" baseProfile="tiny" id="Слой_1"
	 xmlns="http://www.w3.org/2000/svg" xmlns:xlink="http://www.w3.org/1999/xlink" x="0px" y="0px" viewBox="0 0 512 512"
	 overflow="scroll" xml:space="preserve">
<g id="XMLID_84_">
	<g>
		<ellipse id="XMLID_8_" fill="#FECE00" cx="258" cy="255.7" rx="228.6" ry="223.6"/>
		<path id="XMLID_7_" fill="#403408" d="M487.1,255.7c0,29.7-5.7,59.3-16.9,87c-1.4,3.4-3,6.8-4.4,10.3c-1.6,3.4-3.3,6.7-4.9,10
			l-5.4,9.8l-5.9,9.5c-8.2,12.5-17.6,24.3-28.2,35c-10.6,10.7-22.2,20.5-34.8,28.8l-4.8,3.1c-1.6,1-3.2,2.1-4.8,3l-4.9,2.9l-2.5,1.4
			c-0.8,0.5-1.7,0.9-2.5,1.3c-6.7,3.5-13.5,6.8-20.5,9.6c-28,11.4-58.4,17.1-88.6,16.7c-15.1-0.2-30.2-1.9-44.9-5
			c-14.7-3.1-29.2-7.7-43-13.6c-13.8-5.9-27.1-13-39.5-21.4c-12.4-8.3-24.1-17.8-34.7-28.2c-21.4-20.9-38.7-45.8-50.7-73.2
			c-1.4-3.5-2.9-6.9-4.2-10.4c-1.2-3.5-2.6-7-3.7-10.6c-1.1-3.6-2.2-7.1-3.2-10.7c-0.9-3.6-1.9-7.2-2.7-10.9
			c-3.2-14.6-5-29.6-5.3-44.6c-0.5-30,5-60.3,16.6-88.3c11.5-28,29-53.5,50.6-74.7c10.8-10.6,22.7-20.2,35.4-28.5
			c12.7-8.3,26.2-15.4,40.3-21.2c14.1-5.8,28.7-10.1,43.7-12.9c14.9-2.9,30.1-4.4,45.3-4.3c15.2,0.1,30.4,1.6,45.3,4.6
			c14.9,2.9,29.5,7.3,43.5,13.2c7,2.9,13.9,6.2,20.5,9.7c0.8,0.4,1.7,0.9,2.5,1.3l2.4,1.4l4.9,2.9c1.6,0.9,3.2,2,4.8,3l4.7,3.1
			c12.6,8.4,24.1,18.2,34.7,29c10.5,10.8,20,22.5,28.2,35.1l5.9,9.6l5.4,9.8c1.6,3.4,3.3,6.7,4.9,10.1c1.5,3.4,3,6.8,4.4,10.3
			C481.5,196.3,487.2,226.1,487.1,255.7z M485.9,255.7c0-29.5-6.4-59-18.6-85.8c-12.1-26.8-30-50.7-51.4-70.4
			c-10.7-9.8-22.4-18.5-34.7-26.2l-4.7-2.8c-1.5-0.9-3.1-1.9-4.7-2.7l-4.8-2.6l-2.4-1.3c-0.8-0.4-1.6-0.8-2.4-1.2
			c-6.5-3.2-13.1-6.2-19.8-8.8C329,49,315.1,45,300.9,42.3c-14.2-2.6-28.6-3.9-43-3.8c-14.4,0.1-28.8,1.4-42.9,4.1
			c-14.1,2.7-28,6.8-41.4,12c-26.8,10.6-51.5,26.3-72.5,46.2c-20.9,19.9-37.9,43.9-49.7,70.4c-5.9,13.2-10.5,27.1-13.6,41.2
			c-3.2,14.2-4.9,28.7-5.2,43.3c-0.5,29.2,4.9,58.6,16.3,85.6c5.6,13.5,12.8,26.5,21.1,38.6c8.3,12.1,18,23.3,28.6,33.4
			c10.6,10.1,22.3,19.1,34.7,26.9c12.4,7.7,25.6,14.3,39.3,19.4c27.3,10.3,56.5,15.1,85.4,14.8c58-0.6,115.2-22.9,158.1-62.4
			c21.4-19.7,39.3-43.6,51.4-70.4C479.6,314.8,486,285.3,485.9,255.7z"/>
	</g>
	<path fill="#EAB51F" d="M354,452.9c-27.4,14.6-70.2,22.8-109.5,21.3c-76.7-3-158.8-45.1-194.1-129.1C6.7,241,54.6,165,61.6,151.4
		c0,0-18.9,123.1,81.9,223.1C259.1,489.2,354,452.9,354,452.9z"/>
	<g id="XMLID_6_">
		<path fill="#403408" d="M123.4,235.9c-2.3,0-4.2-1.8-4.2-4.1c0-0.7-0.1-18.2,11.1-29.6c6.1-6.2,14.2-9.3,24.2-9.3
			c10,0,18.2,3.1,24.2,9.3c11.1,11.3,10.8,28.6,10.8,29.3c0,2.3-2,4.1-4.3,4.1c-2.3,0-4.1-2-4.1-4.3c0-0.1,0.1-14.6-8.5-23.3
			c-4.4-4.5-10.5-6.8-18.2-6.8c-7.6,0-13.8,2.3-18.2,6.8c-8.8,8.9-8.7,23.5-8.7,23.6C127.6,234,125.7,235.9,123.4,235.9
			C123.4,235.9,123.4,235.9,123.4,235.9z"/>
		<path fill="#403408" d="M331.8,235.9c-2.3,0-4.2-1.8-4.2-4.1c0-0.7-0.1-18.2,11.1-29.6c6.1-6.2,14.2-9.3,24.2-9.3
			c10,0,18.2,3.1,24.2,9.3c11.1,11.3,10.8,28.6,10.8,29.3c0,2.3-2,4.1-4.3,4.1c-2.3,0-4.1-2-4.1-4.3c0-0.1,0.1-14.6-8.5-23.3
			c-4.4-4.5-10.5-6.8-18.2-6.8c-7.6,0-13.8,2.3-18.2,6.8c-8.8,8.9-8.7,23.5-8.7,23.6C336,234,334.1,235.9,331.8,235.9
			C331.8,235.9,331.8,235.9,331.8,235.9z"/>
	</g>
	<g id="XMLID_2_">
		<g id="XMLID_10_">
			<g>
				<path id="XMLID_103_" fill="#403408" d="M141.3,294.5c-5,0-8.4,4.9-6.5,9.4c9.8,23.3,42.4,82,123.2,82
					c80.8,0,114.1-59.1,124.2-82.6c1.9-4.5-1.5-9.1-6.5-9.1L141.3,294.5z"/>
				<path id="XMLID_28_" fill="#403408" d="M375.3,301.4c-10.5,24-42.2,77.3-117.2,77.3c-75.3,0-106.3-53.4-116.4-77L375.3,301.4
					 M375.8,294.2C375.8,294.2,375.8,294.2,375.8,294.2l-234.5,0.3c-5,0-8.4,4.9-6.5,9.4c9.8,23.3,42.4,82,123.2,82
					c80.8,0,114.1-59.1,124.2-82.6C384.2,298.8,380.8,294.2,375.8,294.2L375.8,294.2z"/>
			</g>
		</g>
		<g>
			<path id="XMLID_27_" fill="#FF5A58" d="M177.8,308.6c0,0,9.4,129.3,83.7,127.5c74.3-1.9,76.7-131.5,76.7-131.5"/>
			<path fill="#403408" d="M259.9,439.7c-31.3,0-56-22.6-71.5-65.4c-11.7-32.2-14.1-64.1-14.2-65.4l7.2-0.5
				c0.1,1.3,9.9,124.2,78.5,124.2c0.5,0,1,0,1.5,0c70-1.7,73.2-126.7,73.2-128l7.2,0.1c0,1.3-0.7,33.3-10.7,66
				c-13.4,44.3-37.5,68.2-69.6,69C261,439.7,260.5,439.7,259.9,439.7z"/>
		</g>
	</g>
</g>
<g>
	<path fill="#FFFFFF" d="M258.1,316.6c53.2,0,83.1-8.1,99.1-15l-197.9,0.1C174.6,308.5,204.1,316.6,258.1,316.6z"/>
	<path fill="#FFFFFF" d="M370.3,294.4L370.3,294.4C370.6,294.3,370.6,294.3,370.3,294.4z"/>
	<polygon fill="#403408" points="143.4,294.5 143.4,301.7 159.2,301.7 357.2,301.6 372.7,301.6 372.6,294.4 370.3,294.4 
		370.3,294.4 144.5,294.5 	"/>
</g>
</svg>
