<?xml version="1.0" encoding="utf-8"?>
<!-- Generator: Adobe Illustrator 21.1.0, SVG Export Plug-In . SVG Version: 6.00 Build 0)  -->
<svg version="1.1" baseProfile="tiny" id="Слой_1"
	 xmlns="http://www.w3.org/2000/svg" xmlns:xlink="http://www.w3.org/1999/xlink" x="0px" y="0px" viewBox="0 0 512 512"
	 overflow="scroll" xml:space="preserve">
<g>
	<path fill="#484649" d="M452.5,163.5h-48.1c-1.2,0-2.1,1-2.1,2.3v68c0,1.4,1,2.3,2.1,2.3h48.1c2.9,0,5.6-0.4,8.3-1.2
		c16-3.5,28-18,28-35.1C488.8,179.7,472.6,163.5,452.5,163.5z M452.5,180.3c10.6,0,19.5,8.9,19.5,19.5c0,7.7-4.6,14.5-11.2,17.6
		c-2.5,1.2-5.4,1.9-8.3,1.9c-2.5,0-4.8-0.4-7-1.4c-7.3-2.9-12.6-10-12.6-18.2C433,189.2,441.9,180.3,452.5,180.3z"/>
	<path fill="#484649" d="M420.3,165.8c-0.2-0.8-0.2-1.5-0.4-2.3C402.9,70.6,321.4,0.2,223.5,0.2C113.3,0.2,23.8,89.6,23.8,199.8
		s89.4,199.7,199.7,199.7c97.9,0,179.4-70.5,196.4-163.4c0.2-0.8,0.2-1.5,0.4-2.3c1.9-11,2.9-22.4,2.9-34
		C423.2,188.2,422.2,176.8,420.3,165.8z M223.5,368.2c-92.9,0-168.4-75.3-168.4-168.4S130.6,31.4,223.5,31.4
		c93.1,0,168.6,75.3,168.6,168.4S316.6,368.2,223.5,368.2z"/>
	<path fill="#996945" d="M453.1,512.2c-4.2,0-7.6-3.4-7.6-7.6V214.3c0-4.2,3.4-7.6,7.6-7.6c4.2,0,7.6,3.4,7.6,7.6v290.3
		C460.7,508.8,457.3,512.2,453.1,512.2z"/>
</g>
</svg>
