<svg xmlns="http://www.w3.org/2000/svg" xmlns:xlink="http://www.w3.org/1999/xlink" viewBox="0 0 500 335" fill="#000000" stroke="#000000" stroke-width="0" stroke-opacity="1.0" fill-opacity="1.0" >

<defs>
  <linearGradient id="retain_211c1d">
    <stop offset="0" stop-color="#211c1d" stop-opacity="1"/>
    <stop offset="1" stop-color="#211c1d" stop-opacity="1"/>
  </linearGradient>

  <linearGradient id="retain_b282c8">
    <stop offset="0" stop-color="#b282c8" stop-opacity="1"/>
    <stop offset="1" stop-color="#b282c8" stop-opacity="1"/>
  </linearGradient>

  <linearGradient id="retain_653198">
    <stop offset="0" stop-color="#653198" stop-opacity="1"/>
    <stop offset="1" stop-color="#653198" stop-opacity="1"/>
  </linearGradient>

  <linearGradient id="retain_f5f013">
    <stop offset="0" stop-color="#f5f013" stop-opacity="1"/>
    <stop offset="1" stop-color="#f5f013" stop-opacity="1"/>
  </linearGradient>

  <linearGradient id="retain_151413">
    <stop offset="0" stop-color="#151413" stop-opacity="1"/>
    <stop offset="1" stop-color="#151413" stop-opacity="1"/>
  </linearGradient>

  <linearGradient id="retain_ffffff">
    <stop offset="0" stop-color="#ffffff" stop-opacity="1"/>
    <stop offset="1" stop-color="#ffffff" stop-opacity="1"/>
  </linearGradient>

</defs>

  <g
     id="layer1" transform="scale(1.5 1.5) translate(-4 -265)">
     <g
     transform="matrix(1.3333333,0,0,-1.3333333,0,685.96)"
     id="g10"><g
       transform="scale(0.1)"
       id="g12">

<path
         id="path6908"
         fill="url(#retain_211c1d)"
         d="m 2481.9,2357.78 c -3.22,5.94 -9.43,9.62 -16.23,9.62 -2.03,0 -4.01,-0.3 -5.93,-0.94 -17.83,-6.11 -42.31,-9.47 -68.95,-9.47 -58.47,0 -128.6,16.94 -153.43,54.81 -45.68,69.59 45.45,196.2 86.74,247.38 5.78,7.16 5.44,17.28 -0.9,24.18 -3.5,3.68 -8.4,5.78 -13.44,5.78 -3.85,0 -7.5,-1.15 -10.51,-3.29 -20.63,-14.34 -40.38,-30.34 -59.6,-45.9 -37.5,-30.37 -76.27,-61.75 -120.97,-79.43 -28.19,-11.22 -61.69,-16.91 -99.53,-16.91 -5.07,0 -10.06,0.12 -15,0.32 -0.81,1.79 -1.88,3.46 -3.25,4.92 -3.47,3.74 -8.39,5.87 -13.48,5.87 -3.78,0 -7.44,-1.14 -10.52,-3.31 -2.06,-1.43 -4.06,-2.94 -6.06,-4.46 l -0.4,-0.31 c -36.7,4.33 -67.89,12.57 -87.85,18.81 -58.35,18.25 -83.42,46.86 -81.22,92.81 1.61,33.74 10.37,68.18 24.65,96.97 3.95,7.97 1.62,17.63 -5.58,23.01 -3.16,2.31 -7.03,3.57 -10.93,3.57 -4.69,0 -9.16,-1.77 -12.6,-4.99 -25.03,-23.51 -75.71,-41.24 -117.93,-41.24 -15.35,0 -28.26,2.58 -36.38,7.25 -10.41,5.95 -16.75,14.8 -19.99,27.82 -10.05,40.76 16.86,108.64 39.18,143.85 5.11,8.08 3.13,18.89 -4.53,24.61 -3.21,2.39 -7.01,3.63 -11.01,3.63 -5.38,0 -10.45,-2.3 -13.87,-6.25 -11.35,-12.99 -21.76,-26.74 -31.92,-40.14 -20.4,-26.89 -41.49,-54.71 -68.74,-73.27 -23.45,-15.95 -61.75,-25.88 -99.92,-25.88 -17.97,0 -34.66,2.27 -48.28,6.53 -92.2,28.79 -77.71,130.51 -60.9,248.38 l 0.23,1.65 c 1.49,10.54 2.99,21.07 4.37,31.52 1.27,9.53 -5.09,18.52 -14.44,20.46 -1.21,0.24 -2.5,0.38 -3.81,0.38 -8.12,0 -15.4,-5.45 -17.71,-13.29 -12.4,-43.01 -21.16,-94.71 -29.72,-145.17 -6.99,-41.16 -14.22,-83.7 -23.17,-118.74 -16.46,-64.62 -39.18,-108.39 -101.43,-126.9 -7.87,-2.34 -15.25,-3.53 -21.94,-3.53 -2.41,0 -4.78,0.18 -7.08,0.48 -1.02,8.44 -7.86,15.29 -16.52,16.14 -0.29,0.03 -1.44,0.07 -1.73,0.07 -3.03,0 -5.95,-0.77 -8.54,-2.15 -26.47,27.51 -40.07,93.9 -38.26,187.1 0.19,9.6 -7.15,17.82 -16.69,18.68 -0.29,0.05 -1.45,0.08 -1.74,0.08 -8.98,0 -16.61,-6.44 -18.15,-15.33 -12.845,-76.34 -39.642,-142.01 -75.423,-184.92 -12.078,-14.46 -36.453,-27.14 -64.187,-33.53 -2.516,1.27 -5.239,1.91 -8.047,1.91 -1.074,0 -2.149,-0.05 -3.168,-0.24 -3.727,-0.67 -7.125,-2.5 -9.758,-5.21 -5.859,-0.61 -11.602,-0.94 -17.113,-0.94 -12.328,0 -23.281,1.46 -32.539,4.32 -22.754,7.01 -65.071,90.89 -80.723,159.77 -1.074,6.29 -2.266,12.65 -3.594,19.16 -1.765,8.51 -9.355,14.7 -18.011,14.7 -1.114,0 -2.211,-0.1 -3.098,-0.27 -9.813,-1.68 -16.496,-10.74 -15.168,-20.69 0.863,-5.99 2.113,-12.75 3.625,-19.65 15.461,-91.23 3.863,-166.23 -33.551,-216.86 -20.437,-27.68 -48.519,-47.73 -83.492,-59.67 -0.945,1.11 -1.887,2.22 -2.844,3.35 -3.535,4.21 -8.679,6.62 -14.117,6.62 -3.535,0 -7.012,-1.02 -10.141,-3.05 -5.421,-3.57 -8.378,-9.57 -8.277,-15.7 -2.656,-0.46 -5.211,-0.85 -7.684,-1.2 -6.707,-0.86 -13.621,-1.33 -20.535,-1.33 -73.215,0 -151.558,51.14 -239.523,156.31 -3.5,4.19 -8.649,6.57 -14.117,6.57 -3.617,0 -7.09,-1.03 -10.11,-2.99 -7.836,-5.15 -10.558,-15.35 -6.336,-23.68 4.825,-9.61 11.832,-22.56 19.957,-37.55 l 1.497,-2.73 c 17.265,-31.89 38.742,-71.55 46.21,-91.48 14.098,-37.69 26.2,-79.54 9.082,-104.2 -12.367,-17.82 -40.945,-26.89 -84.949,-26.9 -32.992,0 -74.789,5.29 -124.1872,15.74 -1.2852,0.27 -2.5782,0.4 -3.8243,0.4 -7.414,0 -14.0625,-4.42 -16.957,-11.27 -3.418,-8.15 -0.5781,-17.6 6.7539,-22.47 19.5786,-13.02 49.5786,-24.58 81.9996,-37.07 59.372,-22.86 133.239,-51.28 144.379,-93.04 3.649,-13.79 2.168,-19.34 0.938,-21.42 -2.594,-4.43 -11.504,-8.48 -28.035,-12.75 -52.27,-13.37 -111.77,-21.99 -176.883,-25.61 -9.4728,-0.53 -16.9377,-8.1 -17.3595,-17.59 -0.4219,-9.47 6.3554,-17.65 15.8085,-19.06 54.16,-7.65 106.805,-11.37 160.934,-11.37 29.015,0 54.257,1.04 72.738,1.83 l 8.832,0.43 c 18.223,0.82 32.094,1.4 44.402,1.4 40.7,0 45.789,-7.41 48.903,-18.69 16.132,-58.47 -38.34,-86.09 -86.391,-110.46 -14.371,-7.24 -29.215,-14.75 -39.973,-22.56 -7.933,-5.73 -9.984,-16.66 -4.699,-24.86 3.41,-5.3 9.195,-8.47 15.492,-8.47 3.168,0 6.305,0.82 9.067,2.39 12.508,7.05 26.699,10.66 42.219,10.66 54.929,0 118.851,-47.54 129.05,-95.98 10.145,-48.17 -38.164,-129.14 -83.109,-184.51 -3.164,-1.97 -7.027,-5.74 -8.258,-12.38 -1.058,-3.66 -1.019,-7.61 0.117,-11.82 l 0.016,-0.22 c 0.023,-2.37 0.078,-8.63 5.551,-13.99 3.457,-3.38 8.011,-5.22 13.273,-5.22 5.094,0.11 11.352,2.45 15.039,8.45 16.766,11.54 33.942,21.22 52.094,31.44 13.555,7.66 28.941,16.34 45.922,26.81 58.254,35.79 114.984,48.61 187.648,57.74 6.953,0.88 14.035,1.34 21.055,1.34 49.777,0 96.82,-23.59 129.047,-64.7 35.781,-45.64 48.961,-106.18 35.246,-161.92 -2.309,-9.3 2.801,-18.67 12.004,-21.86 1.937,-0.63 3.918,-0.94 5.879,-0.94 7.242,0 13.828,4.25 16.746,10.78 9.949,21.77 16.996,48.13 24.543,76.36 12.316,46 25.014,93.51 49.004,110.3 0.63,-0.05 1.26,-0.09 1.92,-0.09 5.34,0 10.35,2.33 13.78,6.22 1.41,0.17 2.72,0.27 4,0.27 49.32,0 80.33,-78.31 89.14,-130.95 1.52,-8.89 9.14,-15.35 18.71,-15.35 9.14,0.27 16.79,7.32 17.79,16.41 5.84,53.91 33.57,152.56 58.46,173.15 34.54,28.6 87.2,62.69 141.84,62.69 29.12,0 56.32,-10.04 80.86,-29.87 3.38,-10.2 6.38,-20.34 9.18,-30.96 2.16,-8.05 9.47,-13.67 17.79,-13.67 0.96,0 1.92,0.07 2.86,0.21 3.02,0.48 5.76,1.66 8.09,3.37 8.26,-11.48 16.13,-24.3 23.49,-38.24 21.4,-40.46 36.97,-81.37 50.51,-132.66 2.15,-8.08 9.47,-13.71 17.81,-13.71 0.96,0 1.92,0.08 2.9,0.24 9.33,1.49 16,9.73 15.5,19.18 -3.94,72.26 53.01,133.37 141.92,152.71 10.66,-18.97 14.69,-29.85 16.17,-35.7 2.04,-8.23 9.39,-13.99 17.88,-13.99 1.39,0 2.76,0.16 3.98,0.44 9.83,2.15 16.02,11.62 14.08,21.57 l -2.37,11.79 c -0.85,4.12 -1.67,8.25 -2.48,12.39 26.87,-7.47 51.59,-21.37 63.05,-32.32 33.26,-31.85 42.94,-45.22 68.56,-82.72 48.86,-71.53 64.11,-106.63 68.28,-123.41 2.02,-8.27 9.36,-14.04 17.86,-14.04 1.33,0 2.65,0.16 4.04,0.46 9.69,2.17 15.98,11.86 14.04,21.56 l -3.42,17.08 c -11.39,56.32 -23.15,114.55 -11.76,170.43 16.89,82.9 58.68,147.72 117.64,182.54 28.14,16.65 62.35,25.1 101.66,25.1 92.55,0 180.28,-44.76 213.69,-64 2.82,-1.64 5.91,-2.47 9.19,-2.47 5.77,0 11.28,2.75 14.78,7.4 5.54,7.43 4.66,17.89 -2.06,24.35 -86.05,81.92 -129.48,161.94 -129.09,237.78 0.44,82.39 65.51,132.91 128.46,181.8 l 13.09,10.19 c 7.13,5.53 9.19,15.33 4.9,23.28" />
<path
         id="path6910"
         fill="url(#retain_ffffff)"
         d="m 2454.28,2394.61 c -3.23,5.94 -9.43,9.62 -16.23,9.62 -2.03,0 -4.01,-0.31 -5.94,-0.93 -17.82,-6.11 -42.31,-9.48 -68.95,-9.48 -58.46,0 -128.59,16.94 -153.42,54.8 -45.67,69.6 45.45,196.2 86.74,247.38 5.78,7.17 5.43,17.29 -0.9,24.19 -3.5,3.69 -8.4,5.78 -13.45,5.78 -3.84,0 -7.49,-1.16 -10.5,-3.29 -20.63,-14.34 -40.38,-30.34 -59.6,-45.9 -37.5,-30.37 -76.27,-61.75 -120.97,-79.44 -28.19,-11.22 -61.69,-16.9 -99.53,-16.9 -5.07,0 -10.07,0.12 -15,0.32 -0.81,1.79 -1.89,3.46 -3.24,4.92 -3.48,3.73 -8.4,5.86 -13.49,5.86 -3.78,0 -7.44,-1.13 -10.52,-3.31 -2.06,-1.42 -4.06,-2.94 -6.05,-4.45 l -0.41,-0.31 c -36.7,4.32 -67.89,12.57 -87.85,18.81 -58.35,18.24 -83.41,46.86 -81.23,92.8 1.62,33.75 10.38,68.18 24.66,96.98 3.94,7.97 1.62,17.63 -5.58,23.01 -3.16,2.3 -7.03,3.57 -10.94,3.57 -4.68,0 -9.16,-1.77 -12.59,-4.99 -25.03,-23.52 -75.72,-41.24 -117.93,-41.24 -15.35,0 -28.26,2.58 -36.38,7.24 -10.41,5.95 -16.75,14.81 -20,27.83 -10.04,40.76 16.87,108.64 39.18,143.84 5.12,8.09 3.14,18.9 -4.53,24.63 -3.2,2.38 -7,3.62 -11,3.62 -5.38,0 -10.45,-2.3 -13.87,-6.26 -11.35,-12.98 -21.76,-26.73 -31.92,-40.14 -20.4,-26.89 -41.49,-54.7 -68.74,-73.25 -23.46,-15.97 -61.75,-25.9 -99.92,-25.9 -17.97,0 -34.66,2.27 -48.28,6.53 -92.2,28.8 -77.72,130.52 -60.91,248.39 l 0.23,1.65 c 1.5,10.55 3,21.07 4.38,31.52 1.27,9.53 -5.09,18.51 -14.44,20.46 -1.21,0.25 -2.5,0.38 -3.81,0.38 -8.12,0 -15.4,-5.46 -17.7,-13.29 -12.42,-43.01 -21.17,-94.71 -29.73,-145.17 -7,-41.16 -14.22,-83.7 -23.17,-118.73 -16.46,-64.63 -39.18,-108.41 -101.43,-126.9 -7.88,-2.35 -15.25,-3.54 -21.94,-3.54 -2.41,0 -4.78,0.18 -7.08,0.48 -1.02,8.44 -7.86,15.29 -16.52,16.14 -0.29,0.03 -1.44,0.07 -1.73,0.07 -3.03,0 -5.95,-0.77 -8.54,-2.15 -26.47,27.51 -40.07,93.9 -38.27,187.09 0.19,9.61 -7.14,17.83 -16.685,18.69 -0.289,0.04 -1.446,0.08 -1.735,0.08 -8.984,0 -16.609,-6.43 -18.148,-15.33 -12.848,-76.34 -39.645,-142.01 -75.426,-184.92 -12.078,-14.46 -36.453,-27.14 -64.187,-33.53 -2.512,1.27 -5.243,1.92 -8.047,1.92 -1.074,0 -2.149,-0.06 -3.168,-0.26 -3.727,-0.67 -7.125,-2.49 -9.758,-5.2 -5.859,-0.61 -11.602,-0.94 -17.113,-0.94 -12.328,0 -23.282,1.46 -32.539,4.32 -22.754,7.01 -65.071,90.89 -80.723,159.77 -1.074,6.29 -2.266,12.65 -3.594,19.16 -1.769,8.51 -9.355,14.69 -18.012,14.69 -1.117,0 -2.214,-0.09 -3.097,-0.27 -9.809,-1.66 -16.5,-10.73 -15.172,-20.68 0.863,-5.99 2.113,-12.75 3.629,-19.65 15.461,-91.23 3.863,-166.23 -33.551,-216.87 -20.437,-27.67 -48.519,-47.72 -83.496,-59.66 -0.941,1.1 -1.883,2.22 -2.84,3.35 -3.535,4.21 -8.683,6.61 -14.117,6.61 -3.535,0 -7.012,-1.01 -10.141,-3.04 -5.422,-3.57 -8.379,-9.58 -8.277,-15.71 -2.656,-0.46 -5.211,-0.84 -7.688,-1.19 -6.703,-0.86 -13.617,-1.32 -20.531,-1.32 -73.219,0 -151.562,51.12 -239.523,156.3 -3.504,4.19 -8.649,6.57 -14.117,6.57 -3.621,0 -7.09,-1.04 -10.11,-2.99 -7.836,-5.15 -10.558,-15.35 -6.336,-23.69 4.825,-9.6 11.828,-22.55 19.953,-37.55 l 1.5,-2.73 c 17.266,-31.88 38.743,-71.54 46.211,-91.48 14.098,-37.68 26.203,-79.53 9.082,-104.19 -12.367,-17.83 -40.945,-26.89 -84.949,-26.91 -32.996,0 -74.793,5.29 -124.1912,15.74 -1.2813,0.28 -2.5743,0.41 -3.8165,0.41 -7.4179,0 -14.0664,-4.41 -16.9648,-11.28 -3.418,-8.14 -0.5742,-17.59 6.7578,-22.47 19.5742,-13.01 49.5747,-24.58 81.9957,-37.07 59.372,-22.85 133.239,-51.28 144.383,-93.03 3.649,-13.79 2.168,-19.34 0.938,-21.42 -2.594,-4.43 -11.504,-8.49 -28.039,-12.74 -52.266,-13.38 -111.766,-22.01 -176.8792,-25.62 -9.4727,-0.54 -16.9375,-8.09 -17.3594,-17.59 -0.4219,-9.47 6.3554,-17.65 15.8047,-19.06 54.1599,-7.66 106.8129,-11.38 160.9339,-11.38 29.019,0 54.257,1.06 72.742,1.85 l 8.832,0.42 c 18.223,0.83 32.094,1.4 44.402,1.4 40.699,0 45.785,-7.42 48.903,-18.7 16.132,-58.45 -38.336,-86.08 -86.391,-110.45 -14.371,-7.24 -29.215,-14.75 -39.973,-22.56 -7.929,-5.73 -9.984,-16.66 -4.703,-24.87 3.414,-5.29 9.195,-8.46 15.496,-8.46 3.168,0 6.305,0.83 9.067,2.4 12.504,7.05 26.699,10.64 42.215,10.64 54.933,0 118.855,-47.54 129.054,-95.97 10.141,-48.18 -38.164,-129.13 -83.109,-184.5 -3.164,-1.99 -7.028,-5.76 -8.258,-12.4 -1.059,-3.65 -1.016,-7.6 0.117,-11.81 l 0.016,-0.23 c 0.023,-2.36 0.078,-8.62 5.551,-13.98 3.457,-3.38 8.011,-5.23 13.269,-5.23 5.094,0.12 11.356,2.46 15.039,8.46 16.77,11.53 33.942,21.22 52.098,31.44 13.558,7.66 28.937,16.34 45.922,26.8 58.254,35.79 114.984,48.63 187.644,57.75 6.953,0.88 14.039,1.33 21.059,1.33 49.777,0 96.82,-23.58 129.047,-64.69 35.781,-45.65 48.961,-106.19 35.242,-161.93 -2.305,-9.29 2.805,-18.66 12.008,-21.85 1.937,-0.63 3.918,-0.94 5.879,-0.94 7.242,0 13.828,4.25 16.742,10.77 9.953,21.78 17.004,48.14 24.547,76.37 12.312,46 25.008,93.5 49,110.31 0.633,-0.07 1.269,-0.1 1.922,-0.1 5.333,0 10.353,2.33 13.783,6.22 1.41,0.17 2.72,0.27 4,0.27 49.32,0 80.33,-78.3 89.14,-130.95 1.51,-8.9 9.14,-15.35 18.71,-15.35 9.14,0.27 16.78,7.32 17.79,16.42 5.83,53.9 33.57,152.54 58.46,173.14 34.53,28.59 87.19,62.68 141.84,62.68 29.12,0 56.32,-10.03 80.86,-29.86 3.38,-10.19 6.37,-20.34 9.18,-30.96 2.16,-8.05 9.47,-13.68 17.78,-13.68 0.97,0 1.93,0.08 2.87,0.22 3.02,0.48 5.76,1.67 8.09,3.37 8.26,-11.48 16.13,-24.29 23.48,-38.24 21.4,-40.46 36.98,-81.37 50.52,-132.66 2.15,-8.09 9.47,-13.71 17.8,-13.71 0.97,0 1.93,0.08 2.9,0.23 9.34,1.5 16.01,9.74 15.51,19.19 -3.94,72.26 53,133.37 141.92,152.72 10.66,-18.99 14.69,-29.86 16.16,-35.72 2.04,-8.23 9.4,-13.97 17.89,-13.97 1.39,0 2.76,0.14 3.97,0.44 9.84,2.15 16.02,11.61 14.09,21.57 l -2.37,11.79 c -0.85,4.11 -1.67,8.24 -2.48,12.38 26.87,-7.47 51.59,-21.37 63.04,-32.32 33.27,-31.85 42.94,-45.23 68.57,-82.72 48.86,-71.53 64.11,-106.62 68.28,-123.41 2.02,-8.27 9.35,-14.04 17.87,-14.04 1.31,0 2.64,0.16 4.02,0.46 9.7,2.17 15.99,11.85 14.05,21.55 l -3.43,17.1 c -11.38,56.31 -23.14,114.53 -11.75,170.42 16.89,82.89 58.68,147.73 117.64,182.54 28.14,16.65 62.35,25.1 101.66,25.1 92.55,0 180.28,-44.77 213.68,-64.01 2.83,-1.64 5.92,-2.46 9.2,-2.46 5.77,0 11.28,2.75 14.77,7.4 5.55,7.43 4.67,17.9 -2.05,24.35 -86.05,81.92 -129.48,161.93 -129.09,237.78 0.44,82.4 65.51,132.9 128.45,181.79 l 13.1,10.21 c 7.13,5.52 9.18,15.32 4.9,23.27" />
<path
         id="path6912"
         fill="url(#retain_ffffff)"
         d="m 2430.64,2368.39 13.1,10.2 c 3.55,2.78 4.57,7.7 2.44,11.63 -1.65,3.06 -4.8,4.82 -8.12,4.82 -0.99,0 -1.98,-0.15 -2.96,-0.47 -18.76,-6.41 -44.3,-9.94 -71.94,-9.94 -56.5,0 -132.58,15.45 -161.12,58.94 -49.02,74.69 44.7,205.46 87.28,258.21 2.88,3.57 2.69,8.7 -0.42,12.06 -1.81,1.92 -4.27,2.94 -6.76,2.94 -1.83,0 -3.65,-0.54 -5.25,-1.65 -20.39,-14.2 -40.06,-30.12 -59.07,-45.52 -38.03,-30.78 -77.35,-62.63 -123.37,-80.85 -29.35,-11.64 -63.97,-17.53 -102.92,-17.53 -7.71,0 -15.29,0.27 -22.76,0.68 0.37,2.67 -0.3,5.41 -2.23,7.49 -1.81,1.94 -4.26,2.93 -6.75,2.93 -1.82,0 -3.65,-0.52 -5.24,-1.64 -3.11,-2.17 -6.1,-4.53 -9.16,-6.78 -37.3,4.09 -69.91,12.29 -93.17,19.57 -62.2,19.46 -90.07,51.89 -87.68,102.04 1.67,34.97 10.75,70.71 25.6,100.63 1.97,3.99 0.8,8.84 -2.77,11.48 -1.63,1.21 -3.57,1.81 -5.49,1.81 -2.27,0 -4.54,-0.84 -6.3,-2.5 -26.53,-24.92 -79.93,-43.73 -124.22,-43.73 -17.17,0 -31.34,2.93 -40.96,8.45 -12.58,7.21 -20.53,18.21 -24.35,33.61 -11.31,45.84 18.74,116.94 40.35,150.97 2.57,4.07 1.59,9.43 -2.27,12.31 -1.65,1.23 -3.57,1.82 -5.51,1.82 -2.57,0 -5.13,-1.05 -6.94,-3.13 -11.06,-12.63 -21.41,-26.29 -31.41,-39.5 -20.88,-27.52 -42.44,-56 -70.98,-75.44 -24.89,-16.94 -65.16,-27.48 -105.11,-27.48 -18.9,0 -36.54,2.4 -51.03,6.94 -99.69,31.13 -83.94,141.57 -67.29,258.47 1.58,11.08 3.15,22.12 4.61,33.09 0.63,4.78 -2.52,9.26 -7.22,10.23 -0.63,0.14 -1.29,0.2 -1.9,0.2 -4.04,0 -7.68,-2.65 -8.86,-6.65 -12.21,-42.33 -20.97,-93.85 -29.42,-143.7 -7.05,-41.49 -14.32,-84.39 -23.39,-119.92 -16.78,-65.87 -41.54,-113.79 -107.75,-133.45 -8.74,-2.6 -17,-3.9 -24.55,-3.9 -5.74,0 -11.12,0.75 -16.19,2.23 0.02,1.7 0.01,3.35 0.04,5.07 0.1,4.81 -3.55,8.89 -8.34,9.35 -0.29,0.02 -0.58,0.04 -0.85,0.04 -3.65,0 -6.8,-2.21 -8.29,-5.44 -2.2,1.71 -4.36,3.54 -6.43,5.65 -28.88,29.46 -43.15,96.58 -41.27,194.12 0.1,4.82 -3.53,8.89 -8.331,9.33 -0.285,0.02 -0.602,0.04 -0.887,0.04 -4.437,0 -8.312,-3.21 -9.062,-7.66 -13.137,-77.91 -40.637,-145.15 -77.454,-189.28 -14.418,-17.27 -42.371,-31.08 -73.093,-37.47 -1.676,1.57 -3.848,2.55 -6.223,2.55 -0.516,0 -1.035,-0.03 -1.547,-0.13 -2.898,-0.5 -5.129,-2.38 -6.426,-4.81 -7.339,-0.93 -14.73,-1.47 -22.058,-1.47 -13.196,0 -25.067,1.59 -35.246,4.73 -28.496,8.77 -71.668,99.13 -87.09,167.04 -1.055,6.18 -2.231,12.46 -3.516,18.82 -0.902,4.34 -4.726,7.37 -9.023,7.37 -0.504,0 -1.02,-0.04 -1.539,-0.13 -4.914,-0.85 -8.254,-5.42 -7.586,-10.33 0.808,-5.82 2.015,-12.33 3.594,-19.4 15.863,-93.82 3.667,-171.23 -35.243,-223.89 -22.726,-30.78 -54.785,-52.74 -93.879,-64.81 -2.3,2.67 -4.601,5.28 -6.921,8.06 -1.821,2.16 -4.426,3.31 -7.063,3.31 -1.742,0 -3.508,-0.5 -5.059,-1.52 -3.906,-2.56 -5.269,-7.66 -3.16,-11.83 0.496,-1 1.114,-2.18 1.684,-3.28 -6.004,-1.26 -12.098,-2.38 -18.383,-3.21 -7.184,-0.95 -14.476,-1.41 -21.719,-1.41 -76.109,-0.01 -156.765,52.2 -246.566,159.6 -1.809,2.14 -4.418,3.28 -7.066,3.28 -1.754,0 -3.5,-0.49 -5.055,-1.5 -3.914,-2.57 -5.278,-7.66 -3.164,-11.85 5.051,-10.05 12.594,-23.94 21.312,-40.04 17.422,-32.15 39.082,-72.15 46.746,-92.62 14.922,-39.92 27.539,-84.56 8.028,-112.68 -14.196,-20.47 -45.325,-30.84 -92.512,-30.86 -33.719,0 -76.141,5.38 -126.0938,15.94 -0.6328,0.14 -1.289,0.21 -1.9219,0.21 -3.6289,0 -7.0078,-2.19 -8.4687,-5.64 -1.707,-4.07 -0.2891,-8.8 3.3789,-11.23 18.8047,-12.53 48.5315,-23.96 79.9925,-36.07 61.39,-23.63 137.812,-53.01 150.156,-99.35 3.496,-13.15 3.496,-22.45 0,-28.43 -4.066,-6.95 -13.824,-11.88 -33.707,-17.01 -52.711,-13.5 -112.809,-22.22 -178.6368,-25.89 -4.7227,-0.26 -8.4688,-4.07 -8.6836,-8.81 -0.207,-4.72 3.2109,-8.83 7.8945,-9.51 53.5429,-7.6 105.7579,-11.31 159.6519,-11.31 27.844,0 51.907,0.96 72.278,1.84 l 8.879,0.41 c 17.168,0.77 31.996,1.42 44.824,1.42 38.406,0 52.445,-6.18 57.762,-25.46 18.132,-65.73 -42.442,-96.43 -91.121,-121.11 -14.727,-7.45 -28.653,-14.5 -38.715,-21.81 -3.961,-2.87 -4.992,-8.32 -2.348,-12.44 1.75,-2.72 4.707,-4.23 7.742,-4.23 1.532,0 3.114,0.4 4.532,1.21 13.906,7.85 29.632,11.84 46.761,11.84 59.785,0 126.864,-50.2 138.047,-103.28 10.902,-51.86 -38.91,-135.81 -86.117,-193.6 -2.227,-1 -4.531,-3.17 -5.41,-7.78 -0.832,-2.84 -0.215,-5.61 0.32,-7.41 l 0.176,-1.33 v -0.61 c 0.019,-1.81 0.035,-4.82 2.785,-7.51 1.707,-1.67 4.012,-2.62 6.414,-2.62 0.074,0 0.133,0 0.211,0 1.617,0.05 6.121,0.61 8.102,5.54 17.511,12.2 34.82,21.97 54.695,33.18 14.25,8.05 28.98,16.37 45.648,26.62 59.653,36.66 117.418,49.79 191.317,59.06 7.418,0.93 14.886,1.39 22.203,1.39 52.621,0 102.305,-24.86 136.297,-68.22 37.5,-47.84 51.312,-111.32 36.926,-169.8 -1.133,-4.59 1.445,-9.33 5.933,-10.88 0.996,-0.35 2.02,-0.52 3.02,-0.52 3.515,0 6.855,2.04 8.371,5.4 9.66,21.18 16.633,47.29 24.019,74.93 13.352,49.89 27.114,101.11 56.297,117.82 0.18,-0.07 0.301,-0.22 0.492,-0.28 0.996,-0.34 2.032,-0.52 3.028,-0.52 3.517,0 6.857,2.03 8.387,5.4 3,0.67 6.1,1.11 9.41,1.11 59.32,0 90.18,-90.69 98.21,-138.63 0.75,-4.43 4.59,-7.67 9.08,-7.67 0.1,0 0.18,0 0.27,0 4.59,0.13 8.39,3.63 8.89,8.2 5.4,49.64 32.95,155.4 61.76,179.23 35.71,29.56 90.34,64.81 147.73,64.81 32.36,0 62,-11.34 88.76,-33.66 3.61,-10.71 6.97,-21.91 10.16,-33.98 1.09,-4.1 4.79,-6.87 8.9,-6.87 0.49,0 0.96,0.05 1.45,0.12 4.65,0.73 8,4.88 7.75,9.59 -0.04,0.73 0.02,1.45 -0.01,2.18 11.83,-14.62 22.98,-31.73 33.39,-51.42 21.75,-41.14 37.55,-82.65 51.26,-134.62 1.1,-4.1 4.8,-6.86 8.91,-6.86 0.48,0 0.97,0.04 1.44,0.1 4.65,0.76 8.01,4.89 7.76,9.6 -4.22,77.73 56.87,143.16 151.99,162.83 1.23,0.25 2.59,0.39 3.92,0.56 13.03,-22.39 18.37,-35.82 20.32,-43.67 1.03,-4.18 4.79,-6.99 8.94,-6.99 0.66,0 1.35,0.08 2.02,0.23 4.88,1.09 7.98,5.86 7.03,10.77 l -2.38,11.79 c -1.76,8.73 -3.51,17.53 -5.13,26.36 31.31,-5.82 65.1,-22.52 81.1,-37.82 33.9,-32.46 43.75,-46.08 69.79,-84.2 39.31,-57.56 63.37,-101.26 69.64,-126.42 1.01,-4.18 4.77,-7 8.91,-7 0.67,0 1.34,0.09 2.01,0.23 4.88,1.11 8.01,5.88 7.03,10.77 l -3.42,17.06 c -11.56,57.23 -23.5,116.4 -11.75,174.1 17.42,85.47 60.74,152.48 121.97,188.64 29.59,17.5 65.39,26.37 106.35,26.37 94.8,0 184.23,-45.63 218.3,-65.24 1.44,-0.85 3.02,-1.24 4.59,-1.24 2.83,0 5.59,1.3 7.38,3.7 2.78,3.72 2.34,8.97 -1.02,12.17 -87.96,83.75 -132.34,166.03 -131.93,244.51 0.46,86.87 67.32,138.79 132,189" />
<path
         id="path6914"
         fill="url(#retain_b282c8)"
         d="m 2289.43,2179.43 c 0.51,97.51 80.06,152.74 148.65,206.42 -64.9,-22.12 -201.97,-10.99 -243.74,52.67 -51.23,78.04 38.92,208.45 87.82,269.04 -61.22,-42.55 -113.81,-99.44 -184.31,-127.38 -75.12,-29.75 -172.76,-19.15 -248.37,4.5 -56.41,17.65 -97.1,49.05 -94.15,111.29 1.66,34.7 10.53,71.97 26.54,104.27 -41.04,-38.58 -135.56,-59.82 -176.07,-36.56 -63.38,36.37 -16,152.07 12.82,197.49 -34.11,-38.92 -60.47,-86.73 -104.15,-116.48 -41.49,-28.26 -115.88,-36.79 -164.07,-21.73 -117.28,36.64 -86.02,174.85 -69.05,301.6 -22.36,-77.39 -32.83,-185.26 -52.73,-263.34 -16.21,-63.57 -40.78,-118.25 -114.08,-140.02 -102.48,-30.4 -119.806,107.23 -117.688,216.12 -12.028,-71.29 -38.18,-144.12 -79.469,-193.64 -30.797,-36.92 -107.348,-53.98 -154.356,-39.5 -40.507,12.47 -89.164,136.17 -96.933,192.82 39.011,-191.85 -33.965,-308.78 -172.36,-326.94 -105.879,-13.88 -201.093,71.17 -276.543,161.38 15.497,-30.77 56.825,-102.46 68.461,-133.59 31.809,-85.16 55.282,-198.34 -221.1051,-139.81 55.3631,-36.89 213.8711,-65.42 233.9261,-140.71 9.847,-36.97 -5.207,-47.68 -40.309,-56.72 -57.93,-14.85 -120.652,-22.83 -180.3984,-26.18 233.8984,-33.27 333.2114,24.54 350.9614,-39.77 26.015,-94.29 -91.325,-122.4 -133.321,-152.82 74.942,42.39 183.293,-26.04 198.348,-97.54 13.008,-61.8 -50.008,-155.81 -91.621,-205.74 -0.723,-0.87 1.582,-5.15 0.84,-6.03 -0.106,-8.06 0.175,14.15 -0.84,6.03 0.301,-1.99 0.547,-4.03 0.84,-6.03 31.582,22.47 62.629,36.86 103.789,62.19 62.269,38.29 121.867,51.18 194.968,60.34 137.368,17.19 237.122,-119.38 205.54,-247.95 31.48,69.17 36.632,203.86 110,203.86 61.78,0 97.12,-85.57 107.3,-146.32 4.73,43.58 31.15,157.31 65.03,185.34 94.29,78.04 222.45,117.59 312.15,-52.02 23.56,-44.57 39,-87.18 52.03,-136.58 -4.76,87.75 65.03,152.83 159.32,172.33 36.46,7.56 98.25,-16.47 124.04,-41.15 34.31,-32.82 44.46,-46.72 71.05,-85.66 20.85,-30.53 61.9,-92.88 70.96,-129.37 -12.68,64.02 -28.46,129.47 -15.17,194.78 16.33,80.17 56.85,153.7 126.31,194.73 98.44,58.15 241.3,14.53 333.91,-38.84 -68.39,65.14 -135.29,153.66 -134.77,251.22" />
<path
         id="path6916"
         fill="url(#retain_653198)"
         d="m 1964.87,2204.24 c 0.36,68.1 55.93,106.67 103.83,144.18 -45.33,-15.45 -141.07,-7.68 -170.25,36.78 -35.78,54.53 27.19,145.61 61.34,187.92 -42.75,-29.72 -79.49,-69.45 -128.73,-88.96 -52.47,-20.8 -120.67,-13.38 -173.49,3.13 -39.39,12.33 -67.82,34.27 -65.75,77.73 1.15,24.25 7.35,50.28 18.53,72.83 -28.66,-26.94 -94.68,-41.77 -122.98,-25.53 -44.27,25.4 -11.17,106.21 8.96,137.94 -23.84,-27.19 -42.24,-60.57 -72.75,-81.35 -28.99,-19.74 -80.94,-25.7 -114.6,-15.18 -81.92,25.59 -60.08,122.12 -48.23,210.66 -15.62,-54.06 -22.93,-129.4 -36.84,-183.94 -11.31,-44.4 -28.48,-82.6 -79.68,-97.81 -71.57,-21.22 -83.67,74.91 -82.19,150.96 -8.41,-49.79 -26.67,-100.66 -55.51,-135.24 -21.51,-25.8 -74.987,-37.72 -107.819,-27.61 -28.289,8.72 -62.281,95.13 -67.703,134.7 27.254,-134.02 -23.727,-215.7 -120.387,-228.37 -73.957,-9.7 -140.461,49.71 -193.164,112.72 10.824,-21.48 39.688,-71.56 47.82,-93.3 22.219,-59.49 38.61,-138.54 -154.441,-97.67 38.672,-25.76 149.391,-45.69 163.402,-98.27 6.875,-25.82 -3.648,-33.32 -28.164,-39.6 -40.461,-10.4 -84.273,-15.97 -126,-18.3 163.367,-23.25 232.742,17.13 245.137,-27.79 18.172,-65.86 -63.785,-85.48 -93.117,-106.75 52.344,29.61 128.019,-18.18 138.535,-68.12 9.094,-43.18 -34.93,-108.82 -63.992,-143.69 -0.508,-0.62 1.105,-3.62 0.59,-4.22 -0.079,-5.65 0.121,9.87 -0.59,4.22 0.211,-1.4 0.379,-2.83 0.59,-4.22 22.058,15.68 43.742,25.75 72.496,43.44 43.492,26.74 85.117,35.75 136.172,42.14 95.945,12 165.625,-83.38 143.574,-173.2 21.981,48.32 25.581,142.4 76.821,142.4 43.15,0 67.85,-59.76 74.95,-102.2 3.31,30.44 21.76,109.87 45.42,129.45 65.86,54.51 155.38,82.14 218.04,-36.33 16.45,-31.13 27.24,-60.88 36.33,-95.39 -3.32,61.29 45.42,106.74 111.29,120.37 25.46,5.28 68.63,-11.5 86.64,-28.75 23.96,-22.92 31.05,-32.63 49.63,-59.82 14.55,-21.32 43.23,-64.89 49.56,-90.38 -8.86,44.71 -19.88,90.44 -10.6,136.07 11.4,55.99 39.71,107.35 88.23,136 68.75,40.61 168.54,10.14 233.23,-27.12 -47.77,45.5 -94.5,107.32 -94.14,175.47" />
<path
         id="path6918"
         fill="url(#retain_211c1d)"
         d="m 576.77,2472.27 128.753,-253.78 5.196,158.2 100.058,16.08 70.555,-125.04 -24.637,278.05 117.774,35.32 5.289,-489.24 -84.231,-25.26 -94.359,149.25 0.941,-177.26 c -24.097,-2.87 -47.711,-7.77 -70.871,-14.72 -13.308,-4 -26.543,-8.68 -39.718,-14.08 l -221.676,393.87 106.926,68.61" />
<path
         id="path6920"
         fill="url(#retain_211c1d)"
         d="m 1291.8,2361.97 c -21.67,20.56 -42.09,30.82 -61.26,30.82 -23.34,0 -44.88,-15.55 -64.61,-46.65 -17.79,-28.08 -26.67,-55.45 -26.67,-82.11 0,-25.29 8.06,-50.98 24.17,-77.11 18.06,-29.46 38.9,-44.19 62.52,-44.19 24.73,0 48.77,15.02 72.11,45.02 21.94,28.34 32.92,55.44 32.92,81.27 0,30.29 -13.06,61.26 -39.18,92.95 z m -271.33,-113.38 c 2.23,71.14 19.46,132.82 51.68,185.06 38.63,62.79 90.87,94.21 156.72,94.21 68.62,0 118.22,-17.37 148.79,-52.11 24.73,-28.33 44.32,-79.48 58.78,-153.37 5.54,-28.63 8.33,-55.87 8.33,-81.71 0,-54.72 -13.35,-100.57 -40.02,-137.53 -38.9,-53.91 -97.95,-79.62 -177.14,-77.1 -79.19,2.48 -133.5,22.65 -162.96,60.43 -31.67,40.3 -46.4,94.32 -44.18,162.12" />
<path
         id="path6922"
         fill="url(#retain_211c1d)"
         d="m 1650.67,2549.23 -51.39,-279.89 100.02,122.67 89.32,-47.83 -19.64,-142.22 148.91,236.1 115.08,-43.29 -292.27,-392.36 -82.33,30.96 15.4,175.91 -106.68,-141.57 c -20.9,12.3 -42.65,22.73 -65.3,31.22 -13,4.89 -26.38,9.19 -40.12,12.88 l 62.37,447.66 126.63,-10.24" />
<path
         id="path6924"
         fill="url(#retain_211c1d)"
         d="m 1922,2215.27 c 7.13,64.44 10.69,142.3 10.69,233.56 0,54.69 -1.3,114.27 -3.89,178.7 l 159.76,-33.04 c -29.46,-159.56 -53.25,-292.28 -71.38,-398.15 z m -14.1,-187.42 c -9.04,14.91 -13.57,29 -13.57,42.28 0,11.29 3.24,22.16 9.67,32.51 13.88,22 32.25,33.97 55.2,35.94 22.89,1.92 42.89,-7.47 60.01,-28.16 11.88,-14.25 17.87,-29.15 17.87,-44.67 0,-7.13 -1.12,-13.94 -3.38,-20.4 -7.74,-22.33 -24.05,-37.72 -48.9,-46.15 -5.78,-1.93 -11.61,-2.91 -17.39,-2.91 -19.37,0 -39.21,10.53 -59.51,31.56" />
<path
         id="path6926"
         fill="url(#retain_f5f013)"
         d="m 539,2510.04 128.754,-253.77 5.199,158.18 100.055,16.1 70.555,-125.03 -24.637,278.02 117.773,35.32 5.289,-489.21 -84.23,-25.28 -94.36,149.25 0.942,-177.26 c -24.098,-2.87 -47.707,-7.78 -70.867,-14.71 -13.313,-4.01 -26.543,-8.69 -39.723,-14.09 L 432.074,2441.43 539,2510.04" />
<path
         id="path6928"
         fill="url(#retain_151413)"
         d="m 438.383,2439.91 217.445,-386.4 c 12.055,4.81 24.133,9.02 36.281,12.67 v 0 c 22.09,6.62 44.606,11.42 67.504,14.38 v 0 l -1.008,189.47 101.18,-160.07 77.445,23.22 -5.199,479.38 -108.09,-32.4 24.34,-274.22 -8.824,-2.75 -68.949,122.2 -92.969,-14.93 -5.074,-154.33 -8.934,-1.99 -126.375,249.13 -98.773,-63.36 z m -12.625,3.15 110.668,70.96 4.41,2.82 122.773,-242.03 4.77,143.7 107.09,17.23 61.449,-108.88 -23.063,260.12 127.458,38.26 5.406,-499.09 -91.067,-27.29 -87.449,138.38 0.875,-165.06 -4.207,-0.48 c -23.816,-2.86 -47.156,-7.7 -70.051,-14.56 v 0 c -13.148,-3.94 -26.246,-8.59 -39.273,-13.94 v 0 l -3.883,-1.59 -225.906,401.45 v 0" />
<path
         id="path6930"
         fill="url(#retain_f5f013)"
         d="m 1254.03,2399.74 c -21.67,20.56 -42.09,30.82 -61.26,30.82 -23.34,0 -44.88,-15.56 -64.61,-46.67 -17.78,-28.06 -26.67,-55.43 -26.67,-82.08 0,-25.31 8.06,-51.02 24.17,-77.11 18.07,-29.5 38.9,-44.19 62.52,-44.19 24.73,0 48.76,15.02 72.11,45.01 21.96,28.35 32.92,55.43 32.92,81.28 0,30.28 -13.06,61.26 -39.18,92.94 z M 982.703,2286.36 c 2.231,71.13 19.457,132.82 51.677,185.06 38.63,62.8 90.87,94.2 156.72,94.2 68.63,0 118.23,-17.37 148.79,-52.1 24.73,-28.34 44.32,-79.49 58.77,-153.38 5.55,-28.62 8.34,-55.84 8.34,-81.69 0,-54.74 -13.34,-100.58 -40.02,-137.54 -38.9,-53.92 -97.95,-79.61 -177.14,-77.1 -79.19,2.48 -133.5,22.64 -162.96,60.43 -31.665,40.29 -46.396,94.33 -44.177,162.12" />
<path
         id="path6932"
         fill="url(#retain_151413)"
         d="m 1132.15,2381.38 c -17.43,-27.5 -25.95,-53.94 -25.95,-79.57 v 0 c 0,-24.28 7.73,-49.1 23.49,-74.64 v 0 c 17.7,-28.77 37.03,-41.91 58.5,-41.91 v 0 c 22.62,-0.06 45.45,13.71 68.35,43.17 v 0 c 21.55,27.84 31.95,53.91 31.95,78.37 v 0 c 0,28.8 -12.4,58.64 -37.88,89.7 v 0 c -21.16,20 -40.52,29.41 -57.86,29.41 v 0 c -20.99,0 -41.23,-14.01 -60.6,-44.53 z m -10.52,-159.14 c -16.47,26.68 -24.89,53.24 -24.84,79.57 v 0 c -0.05,27.72 9.24,56.02 27.39,84.62 v 0 c 20.03,31.73 42.9,48.82 68.57,48.88 v 0 c 20.97,-0.06 42.4,-11.11 64.51,-32.13 v 0 l -3.22,-3.44 3.61,3.02 c 26.6,-32.23 40.29,-64.27 40.29,-95.96 v 0 c 0,-27.21 -11.59,-55.3 -33.94,-84.17 v 0 c -23.73,-30.54 -49.02,-46.79 -75.81,-46.83 v 0 c -25.79,-0.04 -48.15,16.29 -66.56,46.44 z m -134.235,63.96 c -0.161,-4.35 -0.2,-8.67 -0.2,-12.96 v 0 c 0,-60.93 14.615,-109.42 43.385,-146.09 v 0 c 28.1,-36.13 80.85,-56.15 159.36,-58.63 v 0 c 3.49,-0.05 6.95,-0.12 10.36,-0.12 v 0 c 72.91,0.09 126.53,25.09 162.85,75.29 v 0 c 26,36.04 39.1,80.77 39.1,134.76 v 0 c 0.04,25.51 -2.74,52.47 -8.22,80.82 v 0 c -14.33,73.5 -33.94,124.02 -57.71,151.14 v 0 c -29.29,33.34 -77.32,50.47 -145.23,50.51 v 0 c -64.29,-0.12 -114.55,-30.24 -152.69,-91.95 v 0 c -31.76,-51.49 -48.787,-112.3 -51.005,-182.74 v 0 l -4.692,0.15 4.692,-0.18 z M 1200.3,2058.96 c -3.53,0 -7.07,0.07 -10.61,0.16 v 0 c -79.81,2.49 -135.73,22.76 -166.53,62.23 v 0 c -30.402,38.67 -45.418,89.51 -45.418,151.89 v 0 c 0,4.39 0.051,8.82 0.246,13.34 h 0.004 c 2.235,71.83 19.653,134.33 52.348,187.34 v 0 c 39.14,63.83 93.32,96.58 160.75,96.46 v 0 c 69.34,0 120.54,-17.59 152.34,-53.74 v 0 c 25.72,-29.54 45.29,-81.29 59.85,-155.6 v 0 c 5.6,-28.85 8.41,-56.39 8.41,-82.59 v 0 c 0.05,-55.46 -13.54,-102.41 -40.88,-140.28 v 0 c -37.94,-52.66 -95.27,-79.21 -170.01,-79.21 v 0 c -0.17,0 -0.34,0 -0.5,0 v 0" />
<path
         id="path6934"
         fill="url(#retain_f5f013)"
         d="m 1612.91,2586.99 -51.4,-279.88 100.03,122.67 89.32,-47.83 -19.65,-142.23 148.9,236.11 115.09,-43.28 -292.27,-392.37 -82.33,30.95 15.4,175.92 -106.68,-141.56 c -20.9,12.29 -42.65,22.71 -65.3,31.21 -13,4.9 -26.37,9.19 -40.12,12.87 l 62.38,447.65 126.63,-10.23" />
<path
         id="path6936"
         fill="url(#retain_151413)"
         d="m 1625.6,2074.34 75.65,-28.46 286.43,384.47 -105.64,39.73 -146.84,-232.84 -8.69,3.17 19.2,138.97 -83,44.44 -97.53,-119.66 -8.34,3.85 50.46,274.73 -116.95,9.46 -61.2,-439.13 c 12.49,-3.47 24.64,-7.48 36.55,-11.91 v 0 c 21.55,-8.12 42.32,-17.98 62.36,-29.48 v 0 l 114.05,151.38 -16.51,-188.72 z m -10.04,-6.3 14.28,163.03 -99.28,-131.75 -3.66,2.11 c -20.67,12.17 -42.15,22.45 -64.54,30.86 v 0 c -12.86,4.86 -26.08,9.09 -39.7,12.75 v 0 l -4.05,1.13 63.6,456.16 131.08,-10.62 -0.4,-4.72 0.4,4.72 5.2,-0.4 -49.03,-266.9 90.87,111.38 95.63,-51.2 -17.12,-123.83 139.34,220.88 124.54,-46.84 -298.17,-400.26 -88.99,33.5 v 0" />
<path
         id="path6938"
         fill="url(#retain_f5f013)"
         d="m 1884.23,2253.05 c 7.13,64.42 10.7,142.29 10.7,233.54 0,54.7 -1.31,114.29 -3.89,178.71 l 159.75,-33.03 c -29.46,-159.57 -53.25,-292.3 -71.38,-398.16 z m -14.11,-187.43 c -9.02,14.91 -13.56,29 -13.56,42.28 0,11.3 3.24,22.16 9.67,32.51 13.88,22 32.25,33.98 55.2,35.94 22.89,1.92 42.89,-7.47 60.01,-28.15 11.88,-14.26 17.88,-29.17 17.88,-44.68 0,-7.13 -1.13,-13.94 -3.4,-20.4 -7.73,-22.34 -24.04,-37.71 -48.88,-46.15 -5.79,-1.92 -11.61,-2.92 -17.4,-2.92 -19.38,0 -39.21,10.55 -59.52,31.57" />
<path
         id="path6940"
         fill="url(#retain_151413)"
         d="m 1975.59,2239.72 c 17.82,104.07 41.08,233.7 69.72,388.88 v 0 l -149.35,30.87 c 2.42,-62.18 3.66,-119.8 3.7,-172.88 v 0 c -0.04,-89.34 -3.43,-165.91 -10.3,-229.71 v 0 l 86.23,-17.16 z m -92.29,8.71 0.92,4.66 4.68,-0.53 -4.68,0.53 -0.92,-4.66 -4.25,0.86 0.49,4.29 c 7.1,64.19 10.66,141.89 10.66,233.01 v 0 c 0,54.65 -1.3,114.15 -3.89,178.54 v 0 l -0.24,6.04 170.19,-35.18 -0.82,-4.57 c -29.46,-159.53 -53.25,-292.25 -71.38,-398.08 v 0 l -0.85,-4.79 -99.91,19.88 z m 46.32,-209.65 c 5.25,0.04 10.57,0.91 15.88,2.69 v 0 c 23.78,8.14 38.63,22.27 45.94,43.24 v 0 c 2.1,5.93 3.14,12.17 3.14,18.82 v 0 c 0,14.28 -5.44,28.01 -16.79,41.68 v 0 c -15.09,18.19 -31.6,26.66 -50.54,26.71 v 0 c -1.76,0 -3.58,-0.11 -5.44,-0.29 v 0 c -21.47,-1.89 -38.2,-12.7 -51.57,-33.69 v 0 c -6.03,-9.74 -8.97,-19.62 -8.97,-30.01 v 0 c 0,-12.09 4.1,-25.23 12.68,-39.5 v 0 c 19.68,-20.18 38.26,-29.65 55.67,-29.65 z m -62.92,23.57 3.42,3.27 -4.06,-2.44 c -9.32,15.45 -14.24,30.37 -14.24,44.75 v 0 c 0,12.21 3.53,24.01 10.4,35 v 0 c 14.37,23 34.38,36.14 58.8,38.13 v 0 c 2.02,0.18 4.12,0.29 6.23,0.32 v 0 c 21.99,0.03 41.61,-10.41 57.79,-30.14 v 0 c 12.44,-14.89 19.02,-30.93 18.98,-47.71 v 0 c 0,-7.6 -1.19,-14.97 -3.65,-21.92 v 0 c -8.14,-23.74 -25.92,-40.38 -51.84,-49.13 v 0 c -6.23,-2.03 -12.59,-3.12 -18.91,-3.12 v 0 c -21.19,0.04 -42.12,11.47 -62.92,32.99 v 0" />





       </g>
    </g>
 </g>
</svg>