<?xml version="1.0" encoding="utf-8"?>
<!-- Generator: Adobe Illustrator 21.1.0, SVG Export Plug-In . SVG Version: 6.00 Build 0)  -->
<svg version="1.1" baseProfile="tiny" id="Слой_1"
	 xmlns="http://www.w3.org/2000/svg" xmlns:xlink="http://www.w3.org/1999/xlink" x="0px" y="0px" viewBox="0 0 512 512"
	 overflow="scroll" xml:space="preserve">
<g>
	<polygon fill="none" points="254.6,234.2 254.6,234.2 382.7,193.6 	"/>
	<polygon fill="#B3E5FC" points="254.6,102.6 254.6,102.6 49.4,168.4 254.5,234.2 254.6,234.2 382.7,193.6 463.7,167.8 	"/>
	<polygon fill="#B3E5FC" points="254.4,319.3 254.4,319.3 254.4,319.3 66.4,258.9 66.4,450.3 254.5,510.7 254.6,510.7 254.6,319.3 	
		"/>
	<polygon fill="#4FC3F7" points="254.6,510.7 444.7,450.3 444.7,258.9 396.3,274.3 254.6,319.3 	"/>
	<polygon fill="#B3E5FC" points="254.6,234.2 254.6,319.3 254.4,319.3 47.4,252.8 47.4,169 49.4,168.4 254.5,234.2 	"/>
	<polygon fill="#4FC3F7" points="463.7,167.8 382.7,193.6 254.6,234.2 254.6,319.3 396.3,274.3 463.7,252.9 	"/>
	<polygon fill="#F4B0C2" points="254.6,319.3 396.3,274.3 254.6,319.3 	"/>
	<polygon fill="#F4B0C2" points="254.6,319.3 254.6,319.3 254.4,319.3 254.4,319.3 	"/>
	<g>
		<polyline fill="#FFFFFF" points="121,467.9 189.6,489.9 189.6,213.4 121,191.4 		"/>
	</g>
	<g>
		<path fill="#131313" d="M463.2,168.5l0.1,0v-0.1L463.2,168.5z"/>
	</g>
	<polygon fill="#FF7186" points="189.6,213.4 258.6,181.2 258.6,148.6 199,149.4 121,191.4 	"/>
	<polygon fill="#E74256" points="320.4,213.4 251.5,181.2 251.5,148.6 311,149.4 389,191.4 	"/>
	<g>
		<path fill="#E74256" d="M229.6,143C229.6,143,192-9.4,120-1C51.2,7.1,229.6,143,229.6,143z"/>
		<path fill="#FF7186" d="M229.6,143c0,0-80.5-151-112.9-143.4c-32.4,7.6-11.4,56.5-47.3,94.2c-12.1,12.7-32.3,58.8,153.8,84.5
			L229.6,143z"/>
	</g>
	<g>
		<path fill="#D63450" d="M281.1,143c0,0,37.7-152.4,109.7-144C459.6,7.1,281.1,143,281.1,143z"/>
		<path fill="#EB6372" d="M281.1,143c0,0,80.5-151,112.9-143.4c32.4,7.6,11.4,56.5,47.3,94.2c12.1,12.7,32.3,58.8-153.8,84.5
			L281.1,143z"/>
	</g>
	<g>
		<path fill="#DD264C" d="M229.6,143l-6.4,35.2c-5-0.7-9.8-1.4-14.5-2.1c-2.2-4.9-3.4-10.3-3.4-16c0-14.8,8.2-24.2,20.8-29.3
			C228.5,138.4,229.6,143,229.6,143z"/>
		<path fill="#DD264C" d="M303.3,160.2c0,5.8-1.2,11.2-3.5,16.3c-4,0.6-8.1,1.2-12.3,1.8l-6.4-35.2c0,0,1.1-4.3,3.2-11.4
			C295.9,136.8,303.3,146.1,303.3,160.2z"/>
	</g>
	<path fill="#D63450" d="M226.2,130.8c2.3,7.6,3.4,12.2,3.4,12.2l-6.4,35.2c-5-0.7-9.8-1.4-14.5-2.1c-2.2-4.9-3.4-10.3-3.4-16
		C205.4,145.4,213.6,135.9,226.2,130.8z"/>
	<path fill="#D63450" d="M303.3,160.2c0,5.8-1.2,11.2-3.5,16.3c-4,0.6-14.5,3-18.7,3.6v-37c0,0,1.1-4.3,3.2-11.4
		C295.9,136.8,303.3,146.1,303.3,160.2z"/>
	<polygon fill="#039BE5" points="444.7,258.9 444.7,268.2 396.3,283.6 254.6,328.6 254.4,328.6 66.4,268.3 66.4,258.9 254.4,319.3 
		254.6,319.3 396.3,274.3 	"/>
	<polygon fill="#FF7186" points="190.4,213.4 190.4,489.9 121,467.9 121,191.4 	"/>
	<polygon fill="#E74256" points="389.3,191.4 389.3,467.9 320.8,489.6 320.8,213.2 	"/>
	<path fill="#EB6372" d="M293.7,161.1c6.7-45.8-39.3-25.6-39.3-25.6s-44.5-17.1-39.3,25.6c2.4,19.9,39.3,35.1,39.3,35.1
		S290.8,181,293.7,161.1z"/>
	<path fill="#F28398" d="M285.1,155c0-12-16.1-3.6-30.5-3.6c-14.4,0-30.3-9.6-30.3,3.6c0,7.8,15.9,18.6,30.3,18.6
		C269,173.6,285.1,162.8,285.1,155z"/>
</g>
</svg>
