<?xml version="1.0" encoding="iso-8859-1"?>
<!-- Generator: Adobe Illustrator 21.1.0, SVG Export Plug-In . SVG Version: 6.00 Build 0)  -->
<svg version="1.1" baseProfile="tiny" id="&#x421;&#x43B;&#x43E;&#x439;_1"
	 xmlns="http://www.w3.org/2000/svg" xmlns:xlink="http://www.w3.org/1999/xlink" x="0px" y="0px" viewBox="0 0 512 512"
	 overflow="scroll" xml:space="preserve" fill="#000000" stroke="#000000" stroke-width="0" stroke-opacity="1.0" fill-opacity="1.0">

<defs>
  <linearGradient id="retain_ECB97B">
    <stop offset="0" stop-color="#ECB97B" stop-opacity="1"/>
    <stop offset="1" stop-color="#ECB97B" stop-opacity="1"/>
  </linearGradient>
  <linearGradient id="retain_4A4A4A">
    <stop offset="0" stop-color="#4A4A4A" stop-opacity="1"/>
    <stop offset="1" stop-color="#4A4A4A" stop-opacity="1"/>
  </linearGradient>
  <linearGradient id="retain_4B4B4B">
    <stop offset="0" stop-color="#4B4B4B" stop-opacity="1"/>
    <stop offset="1" stop-color="#4B4B4B" stop-opacity="1"/>
  </linearGradient>
  
  
</defs>

<circle fill="url(#retain_ECB97B)" cx="256" cy="256" r="256"/>
<g>
	<path fill="url(#retain_4A4A4A)" stroke="url(#retain_4A4A4A)" stroke-width="3" stroke-miterlimit="10" d="M283.365,330.713
		c-0.022,0-0.043-0.007-0.065-0.007h-76.924c-0.005,0-0.008-0.003-0.013-0.003l-0.435,0.003h-7.978
		c-0.193,0-0.378,0.029-0.563,0.057l-60.896,0.405c-0.009,0.123,0.132,2.973,0.149,3.622v22.601c0,2.14,1.736,3.885,3.885,3.885
		h65.715c2.149,0,3.885-1.745,3.885-3.885v-4.718c0,0,58.9,8.604,61.049,8.604h97.252c2.149,0,3.885-1.745,3.885-3.885l0.079-26.661
		C372.377,330.607,309.999,330.677,283.365,330.713z M364.54,353.506h-89.49c0,0-3.096,0.061-3.166,0.044l-64.934-9.375
		c-1.131-0.21-2.307,0.088-3.192,0.833c-0.895,0.737-1.403,1.833-1.403,2.991v5.508H144.41v-14.83h61.47l64.575-0.237
		c0.237,0.044,0.474,0.061,0.719,0.061h93.367V353.506z"/>
	<path fill="url(#retain_4A4A4A)" stroke="url(#retain_4A4A4A)" stroke-width="3" stroke-miterlimit="10" d="M137.192,318.468
		c0.702,1.009,1.868,1.666,3.184,1.666c1.254,0,2.368-0.588,3.078-1.517c0.386-0.491,0.649-1.079,0.754-1.719
		c0.035-0.149,0.044-0.298,0.053-0.456c0.009-0.061,0.009-0.132,0.009-0.202c0-0.061,0-0.132-0.009-0.193v-16.452
		c0-4.771,1.052-12.34,2.429-17.988c15.918,1.158,48.894,4.656,54.84,36.045c0.307,1.649,2.061,2.543,3.648,2.543
		c0.447,0,0.895-0.079,1.342-0.237c2.008-0.745,2.719-2.885,2.298-4.99c-7.235-36.747-41.816-39.114-60.181-40.982
		c1.377-6.7,2.359-15.9,2.359-22.908v-52.612h80.817l1.333,12.954h-0.868c-2.149,0-3.885,1.736-3.885,3.885s1.736,3.885,3.885,3.885
		h1.675l1.342,12.962h-0.877c-2.14,0-3.885,1.736-3.885,3.885c0,2.14,1.745,3.885,3.885,3.885h1.684l0.535,5.201
		c0.284,2.74,0.793,5.471,1.492,8.173h-1.59c-2.133,0-3.861,1.729-3.861,3.861c0,2.133,1.729,3.861,3.861,3.861h4.156
		c7.03,17.302,21.904,32.317,39.223,38.54v8.068h-16.225c-4.446,0-8.577,1.71-11.989,6.691c-0.009,0.009-0.018,0.026-0.026,0.035
		c-0.088,0.132-0.184,0.263-0.272,0.395c-0.035,0.044-0.061,0.088-0.088,0.14l0.002,0.073c-0.266,0.496-0.431,1.054-0.431,1.655
		c0,0.15,0.008,0.293,0.032,0.436c0.214,1.734,1.687,3.08,3.476,3.08c1.35,0,2.519-0.768,3.105-1.891
		c0.075-0.118,0.149-0.239,0.226-0.354c1.772-2.649,3.78-2.49,5.964-2.49h20.119c2.14,0,3.885-1.745,3.885-3.885v-25.775
		c0.158,0.044,0.324,0.096,0.482,0.149l49.507,13.313c10.191,2.736,19.277,8.357,23.899,18.461c0.061,0.132,0.123,0.263,0.175,0.395
		l0.009,0.009c0.149,0.272,0.324,0.517,0.526,0.745c0.71,0.816,1.754,1.324,2.92,1.324c1.342,0,2.526-0.675,3.236-1.71
		c0.307-0.456,0.535-0.982,0.623-1.552c0.009-0.053,0.026-0.105,0.026-0.167c0.018-0.096,0.018-0.193,0.026-0.289
		c0.009-0.061,0.009-0.132,0.009-0.202c0-0.061,0-0.132-0.009-0.193c-0.009-0.289-0.053-0.57-0.132-0.842
		c0-0.009-0.009-0.026-0.009-0.035c-0.07-0.263-0.175-0.509-0.298-0.746c-0.053-0.105-0.114-0.219-0.184-0.316
		c-5.595-12.024-16.4-19.066-28.801-22.39l-49.499-13.313c-14.883-4.008-28.784-20.329-30.371-35.651l-7.165-69.284
		c-0.21-1.982-1.877-3.482-3.868-3.482H147.172c0,0-3.947,0-3.947,4.236v76.879c0,8.095-1.456,19.698-3.192,25.363
		c0,0.017,0,0.026-0.009,0.035c-1.947,6.367-3.534,16.742-3.534,23.118v16.645c0,0.167,0.009,0.324,0.035,0.482
		C136.604,317.363,136.841,317.96,137.192,318.468z M279.917,282.625v8.577c-13.022-5.572-24.432-17.055-30.692-30.182h8.724
		C263.066,270.071,270.98,277.969,279.917,282.625z M251.73,239.923l0.368,3.596c0.34,3.272,1.129,6.557,2.29,9.778h-8.181
		c-0.904-2.966-1.532-5.971-1.844-8.971l-0.447-4.403H251.73z M249.581,219.191l1.342,12.962h-7.814l-1.342-12.962H249.581z
		 M248.783,211.421h-7.823l-1.333-12.954h7.814L248.783,211.421z M150.996,177.734h94.297l1.342,12.954h-95.638V177.734z"/>
</g>
<rect x="103.813" y="133.24" fill="url(#retain_4B4B4B)" width="300" height="10"/>
<rect x="103.813" y="398" fill="url(#retain_4B4B4B)" width="300" height="10"/>
<polygon fill="url(#retain_4B4B4B)" points="67.813,272.847 52.306,281 55.268,263.732 42.722,251.504 60.06,248.984 67.813,233.274 
	75.567,248.984 92.904,251.504 80.359,263.732 83.32,281 "/>
<polygon fill="url(#retain_4B4B4B)" points="445.813,272.847 430.306,281 433.268,263.732 420.722,251.504 438.06,248.984 445.813,233.274 
	453.567,248.984 470.904,251.504 458.359,263.732 461.32,281 "/>
<path fill="url(#retain_4A4A4A)" d="M354.222,427.554c-9.42-5.047-16.575-0.007-19.158,1.963c18.308,2.728,27.105,18.282,27.105,18.282
	s-20.689-16.976-39.411-14.153c-1.477,0.224-1.243,4.007,0.543,3.801c5.315-0.607,10.072,0.183,10.072,0.183
	c0.977,4.899,3.494,12.859,9.945,15.62c8.569,3.669,18.279-3.243,28.921,2.973C374.727,457.676,366.993,434.395,354.222,427.554
	L354.222,427.554z M354.222,427.554"/>
<path fill="url(#retain_4A4A4A)" d="M154.971,427.554c-12.771,6.841-20.505,30.122-18.017,28.669c10.642-6.216,20.352,0.696,28.921-2.973
	c6.451-2.761,8.968-10.721,9.945-15.62c0,0,4.756-0.79,10.072-0.183c1.786,0.206,2.02-3.577,0.543-3.801
	c-18.722-2.823-39.411,14.153-39.411,14.153s8.797-15.554,27.105-18.282C171.546,427.547,164.391,422.507,154.971,427.554
	L154.971,427.554z M154.971,427.554"/>
<path fill="url(#retain_4A4A4A)" d="M354.222,103.686c12.771-6.841,20.505-30.122,18.017-28.669c-10.642,6.216-20.352-0.696-28.921,2.973
	c-6.451,2.761-8.968,10.721-9.945,15.62c0,0-4.757,0.79-10.072,0.183c-1.786-0.206-2.02,3.577-0.543,3.801
	c18.722,2.823,39.411-14.153,39.411-14.153s-8.797,15.554-27.105,18.282C337.648,103.693,344.802,108.733,354.222,103.686
	L354.222,103.686z M354.222,103.686"/>
<path fill="url(#retain_4A4A4A)" d="M154.971,103.686c9.42,5.047,16.575,0.007,19.158-1.963c-18.308-2.728-27.105-18.282-27.105-18.282
	s20.689,16.976,39.411,14.153c1.477-0.224,1.243-4.007-0.543-3.801c-5.315,0.607-10.072-0.183-10.072-0.183
	c-0.977-4.899-3.494-12.859-9.945-15.62c-8.569-3.669-18.279,3.243-28.921-2.973C134.466,73.564,142.201,96.845,154.971,103.686
	L154.971,103.686z M154.971,103.686"/>
</svg>
