<svg xmlns="http://www.w3.org/2000/svg" xmlns:xlink="http://www.w3.org/1999/xlink" viewBox="0 0 370 315" fill="#000000" stroke="#000000" stroke-width="0" stroke-opacity="1.0" fill-opacity="1.0" >

<defs>
  <linearGradient id="retain_13100f">
    <stop offset="0" stop-color="#13100f" stop-opacity="1"/>
    <stop offset="1" stop-color="#13100f" stop-opacity="1"/>
  </linearGradient>

  <linearGradient id="retain_ef2e32">
    <stop offset="0" stop-color="#ef2e32" stop-opacity="1"/>
    <stop offset="1" stop-color="#ef2e32" stop-opacity="1"/>
  </linearGradient>

  <linearGradient id="retain_ffffff">
    <stop offset="0" stop-color="#ffffff" stop-opacity="1"/>
    <stop offset="1" stop-color="#ffffff" stop-opacity="1"/>
  </linearGradient>

</defs>

  <g
     id="layer1" transform="scale(2 2) translate(-70 -500)">

     <g
     transform="matrix(1.3333333,0,0,-1.3333333,0,685.96)"
     id="g10"><g
       transform="scale(0.1)"
       id="g12">

<path
         id="path7174"
         fill="url(#retain_13100f)"
         d="m 1217.94,1079.57 -46.96,6.87 33.27,65.3 z m -542.842,48.65 v 108.12 c 8.593,0.7 18.664,1.06 30.023,1.06 70.938,0 79.152,-30.36 79.152,-53.19 0,-33.49 -31.25,-55.99 -77.742,-55.99 z M 799.695,967.582 c 0,-45.082 -32.754,-67.953 -97.355,-67.953 -10.68,0 -19.672,0.191 -27.242,0.562 v 134.589 h 26.523 c 23.004,0 98.074,-4.84 98.074,-67.198 z m 867.985,-68.141 -78.89,358.229 c -2.35,10.9 -12.2,18.83 -23.41,18.83 -1.88,0 -3.65,-0.18 -5.17,-0.54 l -46.75,-10.31 c -12.9,-2.83 -21.1,-15.63 -18.27,-28.58 l 27.83,-126.49 -126.49,-27.84 -27.83,126.54 c -1.42,6.29 -5.16,11.63 -10.5,14.99 -3.85,2.45 -8.33,3.76 -12.91,3.76 -1.87,0 -3.63,-0.18 -5.17,-0.54 l -46.79,-10.29 c -1.77,-0.39 -3.46,-0.98 -5.05,-1.72 l -11.65,62.66 c -1.89,10.06 -9.96,17.82 -20.1,19.33 l -58.07,8.47 c -1.1,0.15 -2.13,0.2 -3.16,0.2 -9.06,0 -17.26,-4.98 -21.35,-13.04 L 991.504,937.32 c -0.418,-0.82 -0.797,-1.668 -1.106,-2.55 l -8.66,1.242 47.822,337.618 c 0.86,6.28 -0.73,12.53 -4.52,17.64 -3.8,5.13 -9.41,8.48 -15.85,9.42 l -53.077,7.5 c -1.054,0.15 -2.172,0.24 -3.246,0.24 -11.82,0 -22.012,-8.85 -23.722,-20.62 l -35.407,-250.1 c -11.765,20.56 -28.883,37.98 -50.129,50.89 32.539,25.45 50.946,61.96 50.946,101.92 0,43.1 -16.922,78.41 -48.586,101.87 -33.25,27.59 -77.754,39.9 -144.348,39.9 -43.16,0 -87.973,-4.28 -116.965,-11.13 -10.871,-2.57 -18.461,-12.14 -18.461,-23.33 V 833.621 c 0,-11.871 8.871,-22.082 20.676,-23.742 15.863,-2.168 49.66,-5.797 97.942,-5.797 84.035,0 142.542,16.488 178.804,50.398 4.071,3.719 7.938,7.711 11.621,11.95 0.328,-0.508 0.684,-1.02 1.063,-1.528 3.734,-5.043 9.492,-8.472 15.832,-9.422 l 226.227,-32.011 c 1.1,-0.149 2.14,-0.219 3.21,-0.219 5.12,0 10.21,1.68 14.34,4.762 5.1,3.797 8.54,9.59 9.41,15.847 l 6.21,43.903 c 0.88,6.34 -0.75,12.648 -4.58,17.75 -3.85,5.097 -9.47,8.418 -15.79,9.32 l -40.78,5.758 42.21,84.43 98.63,-14.438 19.72,-106.742 c 1.87,-10.059 9.93,-17.828 20.09,-19.34 l 51.89,-7.57 c 1.08,-0.149 2.16,-0.211 3.24,-0.211 6.5,0 12.79,2.672 17.23,7.332 0.93,0.961 1.77,1.98 2.5,3.051 l 8.1,-36.731 c 2.35,-10.922 12.2,-18.851 23.41,-18.851 1.74,0 3.48,0.179 5.16,0.55 l 46.81,10.309 c 6.25,1.402 11.6,5.121 15.05,10.531 3.41,5.379 4.55,11.801 3.19,18.051 l -31.85,144.59 126.51,27.799 31.81,-144.498 c 2.36,-10.911 12.29,-18.832 23.86,-18.832 1.55,0.043 3.12,0.199 4.7,0.531 l 46.82,10.301 c 6.27,1.41 11.63,5.148 15.04,10.539 3.41,5.39 4.54,11.781 3.18,18.05" />
<path
         id="path7176"
         fill="url(#retain_13100f)"
         d="m 667.105,1160.18 v 108.1 c 8.602,0.71 18.661,1.07 30.028,1.07 70.937,0 79.152,-30.37 79.152,-53.19 0,-33.48 -31.246,-55.98 -77.738,-55.98 z M 791.711,999.531 c 0,-45.082 -32.758,-67.949 -97.356,-67.949 -10.687,0 -19.671,0.199 -27.25,0.578 v 134.58 h 26.532 c 23,0 98.074,-4.86 98.074,-67.209 z m 418.239,111.979 -46.96,6.89 33.27,65.28 z M 1659.7,931.379 1580.81,1289.6 c -2.36,10.94 -12.21,18.85 -23.41,18.85 -1.89,0 -3.66,-0.18 -5.17,-0.54 l -46.76,-10.3 c -12.9,-2.84 -21.1,-15.65 -18.27,-28.58 l 27.83,-126.51 -126.49,-27.83 -27.83,126.54 c -1.41,6.29 -5.15,11.62 -10.5,14.98 -3.85,2.46 -8.33,3.76 -12.91,3.76 -1.87,0 -3.62,-0.18 -5.17,-0.54 l -46.78,-10.28 c -1.78,-0.39 -3.47,-0.99 -5.06,-1.73 l -11.65,62.67 c -1.89,10.07 -9.95,17.81 -20.1,19.32 l -58.07,8.47 c -1.1,0.15 -2.13,0.22 -3.16,0.22 -9.06,0 -17.25,-4.99 -21.35,-13.04 L 983.516,969.27 c -0.414,-0.821 -0.797,-1.668 -1.098,-2.54 l -8.672,1.211 47.824,337.649 c 0.87,6.27 -0.73,12.53 -4.51,17.64 -3.81,5.12 -9.41,8.47 -15.86,9.43 l -53.075,7.49 c -1.055,0.14 -2.172,0.22 -3.242,0.22 -11.824,0 -22.016,-8.84 -23.727,-20.61 l -35.402,-250.1 c -11.77,20.56 -28.891,37.99 -50.133,50.9 32.539,25.44 50.945,61.95 50.945,101.91 0,43.1 -16.921,78.43 -48.586,101.87 -33.25,27.59 -77.753,39.9 -144.343,39.9 -43.157,0 -87.977,-4.27 -116.961,-11.15 -10.879,-2.54 -18.469,-12.11 -18.469,-23.32 V 865.582 c 0,-11.891 8.871,-22.09 20.68,-23.75 15.863,-2.16 49.66,-5.812 97.945,-5.812 84.023,0 142.531,16.511 178.797,50.421 4.066,3.731 7.934,7.7 11.621,11.938 0.328,-0.52 0.684,-1.027 1.066,-1.527 3.731,-5.032 9.489,-8.473 15.829,-9.422 l 226.235,-32.008 c 1.09,-0.152 2.13,-0.242 3.2,-0.242 5.12,0 10.21,1.691 14.34,4.769 5.11,3.813 8.53,9.602 9.41,15.852 l 6.21,43.91 c 0.88,6.328 -0.74,12.648 -4.58,17.73 -3.85,5.129 -9.46,8.45 -15.79,9.34 l -40.78,5.77 42.21,84.419 98.63,-14.43 19.72,-106.77 c 1.87,-10.04 9.93,-17.801 20.09,-19.329 l 51.9,-7.57 c 1.07,-0.152 2.15,-0.211 3.23,-0.211 6.5,0 12.79,2.692 17.23,7.332 0.93,0.969 1.77,1.988 2.5,3.047 l 8.1,-36.719 c 2.35,-10.91 12.21,-18.851 23.41,-18.851 1.74,0 3.48,0.183 5.17,0.551 l 46.8,10.32 c 6.26,1.379 11.61,5.109 15.06,10.519 3.41,5.371 4.55,11.793 3.18,18.051 l -31.85,144.58 126.51,27.81 31.81,-144.491 c 2.36,-10.938 12.29,-18.848 23.87,-18.848 1.54,0.051 3.12,0.219 4.69,0.539 l 46.82,10.301 c 6.28,1.41 11.63,5.148 15.04,10.539 3.41,5.379 4.53,11.789 3.19,18.039" />
<path
         id="path7178"
         fill="url(#retain_ef2e32)"
         d="m 784.27,1216.16 c 0,-38.25 -34.465,-63.95 -85.731,-63.95 h -39.418 v 123.31 c 10.371,1.21 23.121,1.81 38.004,1.81 58.633,0 87.145,-19.99 87.145,-61.17 z M 694.352,923.602 c -14.7,0 -26.125,0.328 -35.231,1.039 v 150.089 h 34.512 c 24.887,0 106.058,-5.44 106.058,-75.199 0,-62.742 -57.293,-75.929 -105.339,-75.929 z m 456.458,188.498 42.35,83.06 c 2.37,4.62 4.63,9.25 6.74,13.77 0.85,-5.38 1.74,-10.59 2.7,-15.78 L 1219.89,1102 Z M 1651.9,929.672 1573,1287.91 c -1.58,7.28 -8.15,12.55 -15.61,12.55 -1.21,0 -2.4,-0.12 -3.44,-0.35 l -46.77,-10.32 c -8.61,-1.88 -14.07,-10.41 -12.18,-19.04 l 29.56,-134.32 -142.09,-31.27 -29.57,134.32 c -0.92,4.17 -3.41,7.74 -7,10.02 -2.57,1.63 -5.54,2.5 -8.6,2.5 -1.23,0 -2.39,-0.11 -3.44,-0.36 l -46.8,-10.3 c -4.17,-0.93 -7.73,-3.42 -10.02,-7.01 -0.77,-1.22 -1.3,-2.52 -1.72,-3.86 l -14.53,78.15 c -1.25,6.7 -6.63,11.89 -13.4,12.89 l -57.97,8.46 c -0.72,0.1 -1.42,0.15 -2.12,0.15 -6.05,0 -11.5,-3.35 -14.23,-8.7 L 990.637,965.652 c -1.274,-2.48 -1.785,-5.211 -1.668,-7.933 l -24.246,3.441 48.937,345.53 c 0.58,4.2 -0.5,8.39 -3.02,11.78 -2.53,3.41 -6.27,5.63 -10.56,6.27 l -53.017,7.49 c -0.719,0.09 -1.465,0.16 -2.18,0.16 -7.903,0 -14.692,-5.92 -15.817,-13.75 l -39.339,-277.86 c -10.758,34.02 -34.766,61.81 -69.067,78.92 36.57,23.79 57.926,61.22 57.926,102.77 0,40.46 -15.93,73.66 -45.715,95.74 -31.699,26.31 -74.644,38.04 -139.238,38.04 -42.586,0 -86.699,-4.19 -115.149,-10.94 -7.25,-1.69 -12.3,-8.07 -12.3,-15.54 V 865.582 c 0,-7.922 5.918,-14.73 13.781,-15.84 15.683,-2.14 49.121,-5.742 96.859,-5.742 81.906,0 138.645,15.832 173.403,48.34 8.605,7.851 15.906,16.582 22.144,25.871 l -0.676,-4.809 c -0.586,-4.211 0.5,-8.402 3.024,-11.781 2.5,-3.371 6.316,-5.641 10.547,-6.281 l 226.174,-32.008 c 0.73,-0.102 1.42,-0.16 2.14,-0.16 3.41,0 6.81,1.137 9.57,3.187 3.4,2.532 5.69,6.371 6.27,10.563 l 6.21,43.887 c 0.59,4.222 -0.48,8.433 -3.05,11.851 -2.57,3.399 -6.31,5.621 -10.53,6.219 l -51.75,7.332 49.76,99.479 109.98,-16.08 20.76,-112.36 c 1.25,-6.711 6.65,-11.891 13.4,-12.898 l 51.81,-7.563 c 0.71,-0.098 1.45,-0.137 2.16,-0.137 4.31,0 8.52,1.789 11.5,4.887 3.61,3.731 5.16,9 4.2,14.02 l -46.53,250.251 66.46,-301.798 c 1.58,-7.282 8.14,-12.563 15.6,-12.563 1.17,0 2.35,0.141 3.45,0.391 l 46.8,10.301 c 4.18,0.929 7.74,3.41 10.03,7 2.28,3.589 3.04,7.859 2.13,12.05 l -33.56,152.379 142.11,31.26 33.53,-152.33 c 1.57,-7.289 8.15,-12.559 15.83,-12.559 1.09,0.02 2.19,0.149 3.21,0.36 l 46.82,10.301 c 4.17,0.937 7.73,3.418 10.02,7.027 2.28,3.582 3.04,7.84 2.13,12.043" />
<path
         id="path7180"
         fill="url(#retain_ef2e32)"
         d="m 792.242,1216.16 c 0,-43.04 -37.652,-71.95 -93.695,-71.95 h -47.41 v 138.27 c 11.801,1.87 27.226,2.84 45.996,2.84 63.105,0 95.109,-23.28 95.109,-69.16 z M 694.355,915.621 c -19.046,0 -32.785,0.559 -43.218,1.758 v 165.311 h 42.508 c 26.746,0 114.023,-6.01 114.023,-83.17 0,-73 -70.992,-83.899 -113.313,-83.899 z m 108.629,203.089 c 42.157,21.33 67.621,59.73 67.621,103.76 0,37.8 -14.917,68.88 -42.835,89.59 -30.176,25.05 -71.543,36.22 -134.125,36.22 -42.02,0 -85.442,-4.12 -113.332,-10.73 -3.61,-0.84 -6.141,-4.06 -6.141,-7.77 V 865.582 c 0,-4.012 2.937,-7.383 6.891,-7.934 15.437,-2.097 48.394,-5.668 95.753,-5.668 79.782,0 134.766,15.149 168.032,46.262 28.332,25.867 43.3,60.656 43.3,100.559 0,65.289 -42.55,103.739 -85.164,119.909" />
<path
         id="path7182"
         fill="url(#retain_ef2e32)"
         d="m 1120.92,930.969 -165.236,23.39 50.056,353.431 c 0.29,2.09 -0.26,4.22 -1.53,5.91 -1.26,1.71 -3.16,2.81 -5.261,3.13 l -52.933,7.48 c -0.371,0.05 -0.762,0.08 -1.133,0.08 -3.914,0 -7.328,-2.87 -7.895,-6.87 L 879.602,912.301 c -0.293,-2.11 0.257,-4.231 1.527,-5.91 1.266,-1.711 3.168,-2.821 5.258,-3.141 l 226.083,-32 c 0.38,-0.039 0.73,-0.078 1.11,-0.078 1.72,0 3.41,0.57 4.81,1.598 1.7,1.281 2.83,3.179 3.12,5.281 l 6.2,43.879 c 0.62,4.371 -2.42,8.41 -6.79,9.039" />
<path
         id="path7184"
         fill="url(#retain_ef2e32)"
         d="m 1138.62,1105.81 47.42,92.98 c 6.66,12.97 12.49,26.11 17.99,39.08 1.62,-13.75 3.61,-28.01 6.42,-43.22 l 19.38,-102.18 z m 114.32,201.34 c -0.63,3.37 -3.33,5.94 -6.7,6.44 l -57.8,8.45 c -0.39,0.06 -0.76,0.08 -1.15,0.08 -2.95,0 -5.73,-1.63 -7.11,-4.35 L 997.75,962.02 c -1.172,-2.29 -1.172,-5 0.016,-7.29 1.183,-2.289 3.394,-3.878 5.944,-4.25 l 50,-7.32 c 0.39,-0.039 0.76,-0.07 1.13,-0.07 3.01,0 5.8,1.672 7.17,4.422 l 53.49,106.908 121.36,-17.73 21.79,-117.971 c 0.63,-3.36 3.32,-5.969 6.7,-6.469 l 51.66,-7.539 c 0.39,-0.039 0.76,-0.07 1.15,-0.07 2.14,0 4.24,0.871 5.77,2.449 1.78,1.84 2.56,4.449 2.09,6.992 l -73.08,393.068" />
<path
         id="path7186"
         fill="url(#retain_ef2e32)"
         d="m 1644.1,927.941 -78.91,358.279 c -0.81,3.74 -4.13,6.26 -7.8,6.26 -0.57,0 -1.16,-0.06 -1.72,-0.19 l -46.79,-10.3 c -4.31,-0.94 -7.02,-5.21 -6.08,-9.52 l 31.29,-142.11 -157.7,-34.73 -31.28,142.12 c -0.46,2.07 -1.71,3.88 -3.49,5.02 -1.31,0.83 -2.8,1.24 -4.31,1.24 -0.59,0 -1.15,-0.05 -1.72,-0.16 l -46.81,-10.32 c -2.06,-0.45 -3.86,-1.69 -5,-3.49 -1.14,-1.78 -1.52,-3.94 -1.07,-6.03 l 78.89,-358.311 c 0.82,-3.73 4.13,-6.258 7.8,-6.258 0.57,0 1.16,0.059 1.73,0.2 l 46.79,10.289 c 2.07,0.461 3.88,1.711 5.01,3.5 1.14,1.781 1.53,3.941 1.07,6.031 l -35.27,160.199 157.71,34.7 35.26,-160.169 c 0.81,-3.742 4.12,-6.281 7.8,-6.281 0.57,0.02 1.15,0.07 1.73,0.199 l 46.79,10.313 c 2.07,0.449 3.87,1.707 5.01,3.48 1.13,1.789 1.53,3.95 1.07,6.039" />
<path
         id="path7188"
         fill="url(#retain_ffffff)"
         d="m 643.16,910.449 c 12.61,-2.109 29.438,-2.801 51.192,-2.801 63.082,0 121.293,23.133 121.293,91.872 0,63.8 -55.387,91.15 -122.008,91.15 H 643.16 Z m 0,225.781 h 55.379 c 63.801,0 101.688,34.37 101.688,79.94 0,54.69 -41.364,77.13 -103.086,77.13 -28.036,0 -44.157,-2.08 -53.981,-4.2 z m -61.012,193.56 c 26.641,6.31 69.411,10.5 111.489,10.5 61.004,0 100.285,-10.5 129.031,-34.37 24.523,-18.21 39.965,-46.28 39.965,-83.44 0,-46.28 -30.86,-86.25 -79.938,-103.77 v -2.13 c 44.883,-10.5 97.465,-47.66 97.465,-117.779 0,-40.68 -16.129,-72.231 -40.683,-94.66 -32.25,-30.149 -85.532,-44.172 -162.657,-44.172 -42.09,0 -74.34,2.801 -94.672,5.601 v 464.22" />
<path
         id="path7190"
         fill="url(#retain_ffffff)"
         d="m 944.902,1316.4 52.926,-7.49 -51.183,-361.328 173.155,-24.523 -6.21,-43.899 -226.074,32.02 57.386,405.22" />
<path
         id="path7192"
         fill="url(#retain_ffffff)"
         d="m 1239.78,1082.94 -21.49,113.19 c -4.75,25.65 -7.06,48.69 -9.45,71.17 l -1.13,0.16 c -8.7,-20.85 -17.67,-43.37 -28.78,-65.01 l -52.48,-102.95 z m -128.84,-19.78 -56.08,-112.09 -50,7.321 182.43,355.739 57.79,-8.45 73.07,-393.051 -51.66,7.531 -22.79,123.61 -132.76,19.39" />
<path
         id="path7194"
         fill="url(#retain_ffffff)"
         d="m 1337.31,1236.03 33.01,-149.91 173.29,38.17 -33.01,149.92 46.79,10.3 78.91,-358.311 -46.81,-10.297 -36.98,167.998 -173.3,-38.17 36.99,-168 -46.8,-10.3 -78.9,358.31 46.81,10.29" />
<path
         id="path7196"
         fill="url(#retain_ffffff)"
         d="m 643.16,910.449 c 12.61,-2.109 29.438,-2.801 51.192,-2.801 63.082,0 121.293,23.133 121.293,91.872 0,63.8 -55.387,91.15 -122.008,91.15 H 643.16 Z m 0,225.781 h 55.379 c 63.801,0 101.688,34.37 101.688,79.94 0,54.69 -41.364,77.13 -103.086,77.13 -28.036,0 -44.157,-2.08 -53.981,-4.2 z m -61.012,193.56 c 26.641,6.31 69.411,10.5 111.489,10.5 61.004,0 100.285,-10.5 129.031,-34.37 24.523,-18.21 39.965,-46.28 39.965,-83.44 0,-46.28 -30.86,-86.25 -79.938,-103.77 v -2.13 c 44.883,-10.5 97.465,-47.66 97.465,-117.779 0,-40.68 -16.129,-72.231 -40.683,-94.66 -32.25,-30.149 -85.532,-44.172 -162.657,-44.172 -42.09,0 -74.34,2.801 -94.672,5.601 v 464.22" />
<path
         id="path7198"
         fill="url(#retain_ffffff)"
         d="m 944.902,1316.4 52.926,-7.49 -51.183,-361.328 173.155,-24.523 -6.21,-43.899 -226.074,32.02 57.386,405.22" />
<path
         id="path7200"
         fill="url(#retain_ffffff)"
         d="m 1239.78,1082.94 -21.49,113.19 c -4.75,25.65 -7.06,48.69 -9.45,71.17 l -1.13,0.16 c -8.7,-20.85 -17.67,-43.37 -28.78,-65.01 l -52.48,-102.95 z m -128.84,-19.78 -56.08,-112.09 -50,7.321 182.43,355.739 57.79,-8.45 73.07,-393.051 -51.66,7.531 -22.79,123.61 -132.76,19.39" />
<path
         id="path7202"
         fill="url(#retain_ffffff)"
         d="m 1337.31,1236.03 33.01,-149.91 173.29,38.17 -33.01,149.92 46.79,10.3 78.91,-358.311 -46.81,-10.297 -36.98,167.998 -173.3,-38.17 36.99,-168 -46.8,-10.3 -78.9,358.31 46.81,10.29" />
<path
         id="path7204"
         fill="url(#retain_13100f)"
         d="m 1498.55,477.172 -40.27,5.898 28.53,55.961 z m -465.45,41.719 v 92.679 c 7.38,0.621 16.01,0.922 25.75,0.922 60.82,0 67.86,-26.043 67.86,-45.613 0,-28.707 -26.78,-47.988 -66.65,-47.988 z m 106.85,-137.75 c 0,-38.649 -28.1,-58.25 -83.49,-58.25 -9.16,0 -16.87,0.168 -23.36,0.488 v 115.383 h 22.75 c 19.72,0 84.1,-4.141 84.1,-57.621 z m 744.21,-58.422 -67.64,307.14 c -2.02,9.371 -10.47,16.153 -20.07,16.153 -1.62,0 -3.14,-0.141 -4.43,-0.453 l -40.09,-8.84 c -11.07,-2.41 -18.09,-13.41 -15.67,-24.5 l 23.86,-108.469 -108.45,-23.871 -23.86,108.492 c -1.22,5.399 -4.42,9.981 -9.01,12.859 -3.3,2.11 -7.14,3.219 -11.07,3.219 -1.59,0 -3.11,-0.14 -4.42,-0.457 l -40.12,-8.812 c -1.52,-0.348 -2.97,-0.84 -4.34,-1.481 l -9.98,53.731 c -1.62,8.621 -8.54,15.261 -17.23,16.562 l -49.79,7.27 c -0.95,0.129 -1.84,0.168 -2.72,0.168 -7.76,0 -14.79,-4.27 -18.3,-11.168 L 1304.4,355.199 c -0.36,-0.707 -0.68,-1.429 -0.95,-2.179 l -7.43,1.05 41.01,289.489 c 0.74,5.371 -0.63,10.75 -3.88,15.132 -3.26,4.391 -8.07,7.27 -13.59,8.079 l -45.51,6.429 c -0.9,0.121 -1.86,0.203 -2.78,0.203 -10.14,0 -18.87,-7.593 -20.34,-17.683 L 1220.57,441.27 c -10.09,17.64 -24.76,32.582 -42.98,43.652 27.9,21.808 43.68,53.117 43.68,87.367 0,36.961 -14.51,67.242 -41.66,87.363 -28.51,23.657 -66.67,34.207 -123.76,34.207 -37.01,0 -75.428,-3.679 -100.284,-9.55 -9.328,-2.188 -15.836,-10.411 -15.836,-20.008 v -398 c 0,-10.199 7.614,-18.949 17.735,-20.371 13.605,-1.848 42.575,-4.981 83.975,-4.981 72.05,0 122.21,14.153 153.31,43.223 3.48,3.18 6.8,6.617 9.97,10.25 0.27,-0.453 0.58,-0.883 0.9,-1.301 3.2,-4.32 8.13,-7.262 13.58,-8.101 l 193.97,-27.438 c 0.94,-0.133 1.83,-0.18 2.75,-0.18 4.39,0 8.75,1.438 12.3,4.078 4.37,3.262 7.31,8.219 8.06,13.583 l 5.33,37.648 c 0.75,5.43 -0.64,10.84 -3.93,15.211 -3.31,4.387 -8.12,7.238 -13.54,8.008 l -34.97,4.941 36.2,72.371 84.56,-12.371 16.91,-91.531 c 1.6,-8.621 8.52,-15.277 17.23,-16.578 l 44.49,-6.492 c 0.92,-0.118 1.85,-0.18 2.77,-0.18 5.57,0 10.96,2.301 14.77,6.281 0.8,0.828 1.53,1.699 2.15,2.621 l 6.94,-31.48 c 2.02,-9.371 10.47,-16.172 20.08,-16.172 1.49,0 2.97,0.16 4.43,0.473 l 40.12,8.839 c 5.37,1.2 9.95,4.387 12.91,9.028 2.92,4.609 3.91,10.109 2.73,15.472 l -27.3,123.969 108.47,23.848 27.27,-123.887 c 2.03,-9.371 10.54,-16.152 20.46,-16.152 1.33,0.019 2.68,0.172 4.04,0.441 l 40.13,8.848 c 5.38,1.203 9.97,4.39 12.9,9.031 2.92,4.59 3.89,10.102 2.73,15.469" />
<path
         id="path7206"
         fill="url(#retain_13100f)"
         d="m 1026.26,546.281 v 92.68 c 7.37,0.621 16,0.93 25.74,0.93 60.83,0 67.87,-26.032 67.87,-45.602 0,-28.707 -26.79,-48.008 -66.66,-48.008 z M 1133.1,408.539 c 0,-38.648 -28.1,-58.258 -83.48,-58.258 -9.16,0 -16.87,0.168 -23.36,0.481 V 466.16 H 1049 c 19.73,0 84.1,-4.148 84.1,-57.621 z m 358.6,96.02 -40.27,5.89 28.53,55.981 z m 385.61,-154.438 -67.64,307.141 c -2.02,9.359 -10.47,16.16 -20.07,16.16 -1.62,0 -3.14,-0.172 -4.43,-0.473 l -40.09,-8.828 c -11.07,-2.43 -18.09,-13.422 -15.67,-24.512 l 23.87,-108.468 -108.46,-23.871 -23.86,108.511 c -1.21,5.391 -4.42,9.961 -9.01,12.84 -3.3,2.109 -7.13,3.219 -11.06,3.219 -1.6,0 -3.11,-0.141 -4.44,-0.449 l -40.11,-8.828 c -1.52,-0.321 -2.97,-0.833 -4.33,-1.481 l -10,53.727 c -1.61,8.64 -8.52,15.293 -17.23,16.582 l -49.78,7.25 c -0.95,0.14 -1.83,0.199 -2.72,0.199 -7.76,0 -14.79,-4.289 -18.3,-11.18 L 1297.55,382.602 c -0.36,-0.711 -0.69,-1.442 -0.95,-2.18 l -7.43,1.039 41.02,289.488 c 0.73,5.391 -0.63,10.762 -3.89,15.133 -3.26,4.387 -8.06,7.258 -13.59,8.09 l -45.5,6.418 c -0.91,0.121 -1.87,0.191 -2.79,0.191 -10.13,0 -18.87,-7.582 -20.34,-17.679 L 1213.72,468.68 c -10.09,17.621 -24.76,32.57 -42.98,43.621 27.91,21.82 43.69,53.129 43.69,87.39 0,36.95 -14.52,67.231 -41.67,87.36 -28.5,23.64 -66.67,34.199 -123.76,34.199 -37,0 -75.426,-3.668 -100.277,-9.551 -9.332,-2.187 -15.836,-10.386 -15.836,-20 V 293.691 c 0,-10.191 7.609,-18.929 17.726,-20.371 13.606,-1.851 42.586,-4.968 83.977,-4.968 72.05,0 122.22,14.148 153.31,43.23 3.48,3.18 6.8,6.598 9.97,10.238 0.27,-0.449 0.58,-0.879 0.9,-1.3 3.21,-4.34 8.14,-7.27 13.57,-8.11 l 193.98,-27.441 c 0.94,-0.117 1.83,-0.188 2.75,-0.188 4.39,0 8.76,1.449 12.3,4.09 4.37,3.25 7.32,8.219 8.06,13.59 l 5.33,37.648 c 0.75,5.422 -0.64,10.84 -3.93,15.204 -3.31,4.398 -8.11,7.226 -13.54,8.007 l -34.97,4.942 36.2,72.379 84.57,-12.379 16.9,-91.532 c 1.6,-8.621 8.52,-15.281 17.23,-16.57 l 44.49,-6.5 c 0.92,-0.121 1.85,-0.168 2.77,-0.168 5.57,0 10.97,2.297 14.78,6.278 0.79,0.82 1.52,1.699 2.15,2.621 l 6.94,-31.489 c 2.01,-9.371 10.46,-16.16 20.07,-16.16 1.49,0 2.98,0.149 4.43,0.457 l 40.13,8.852 c 5.36,1.179 9.95,4.39 12.9,9.031 2.93,4.609 3.91,10.098 2.73,15.469 l -27.3,123.969 108.47,23.839 27.28,-123.879 c 2.02,-9.39 10.53,-16.167 20.45,-16.167 1.33,0.039 2.68,0.179 4.03,0.457 l 40.15,8.832 c 5.38,1.218 9.96,4.41 12.89,9.039 2.92,4.621 3.89,10.101 2.73,15.48" />
<path
         id="path7208"
         fill="url(#retain_ef2e32)"
         d="m 1126.71,594.281 c 0,-32.801 -29.55,-54.84 -73.5,-54.84 h -33.8 V 645.18 c 8.89,1.031 19.82,1.562 32.59,1.562 50.26,0 74.71,-17.152 74.71,-52.461 z m -77.1,-250.832 c -12.59,0 -22.39,0.281 -30.2,0.883 v 128.68 H 1049 c 21.34,0 90.94,-4.653 90.94,-64.481 0,-53.789 -49.13,-65.082 -90.33,-65.082 z m 391.38,161.614 36.3,71.207 c 2.05,3.972 3.98,7.941 5.79,11.82 0.73,-4.61 1.49,-9.09 2.31,-13.531 l 14.83,-78.161 z m 429.64,-156.434 -67.66,307.172 c -1.35,6.25 -6.98,10.762 -13.38,10.762 -1.04,0 -2.06,-0.102 -2.94,-0.301 l -40.11,-8.84 c -7.38,-1.621 -12.06,-8.93 -10.44,-16.332 l 25.34,-115.16 -121.83,-26.828 -25.35,115.179 c -0.79,3.578 -2.92,6.629 -6,8.578 -2.2,1.411 -4.75,2.153 -7.37,2.153 -1.06,0 -2.05,-0.102 -2.96,-0.313 l -40.11,-8.828 c -3.59,-0.789 -6.63,-2.93 -8.6,-6.012 -0.66,-1.039 -1.12,-2.168 -1.48,-3.32 l -12.45,67.02 c -1.08,5.75 -5.69,10.191 -11.49,11.062 l -49.7,7.238 c -0.63,0.082 -1.23,0.133 -1.83,0.133 -5.18,0 -9.86,-2.871 -12.19,-7.461 L 1303.65,379.5 c -1.09,-2.141 -1.53,-4.48 -1.43,-6.809 l -20.79,2.938 41.96,296.262 c 0.51,3.609 -0.43,7.211 -2.58,10.101 -2.18,2.93 -5.38,4.84 -9.06,5.379 l -45.46,6.43 c -0.62,0.078 -1.26,0.129 -1.87,0.129 -6.77,0 -12.59,-5.059 -13.56,-11.77 l -33.73,-238.25 c -9.22,29.18 -29.81,52.992 -59.22,67.66 31.36,20.399 49.67,52.493 49.67,88.121 0,34.68 -13.65,63.161 -39.2,82.09 -27.17,22.559 -64,32.61 -119.38,32.61 -36.52,0 -74.344,-3.59 -98.73,-9.371 -6.211,-1.45 -10.547,-6.93 -10.547,-13.321 V 293.691 c 0,-6.812 5.074,-12.632 11.816,-13.582 13.449,-1.839 42.117,-4.91 83.051,-4.91 70.22,0 118.88,13.571 148.67,41.43 7.39,6.75 13.65,14.211 19,22.203 l -0.59,-4.141 c -0.5,-3.621 0.43,-7.199 2.59,-10.089 2.15,-2.891 5.42,-4.84 9.04,-5.383 l 193.93,-27.449 c 0.63,-0.079 1.22,-0.141 1.84,-0.141 2.92,0 5.84,0.973 8.2,2.723 2.92,2.179 4.88,5.48 5.39,9.07 l 5.31,37.617 c 0.5,3.633 -0.41,7.231 -2.62,10.16 -2.2,2.93 -5.4,4.813 -9.02,5.332 l -44.38,6.289 42.67,85.301 94.31,-13.781 17.79,-96.36 c 1.07,-5.75 5.7,-10.199 11.48,-11.05 l 44.43,-6.481 c 0.61,-0.09 1.24,-0.117 1.85,-0.117 3.7,0 7.31,1.527 9.87,4.199 3.09,3.188 4.42,7.699 3.6,12.008 l -39.9,214.57 56.98,-258.757 c 1.36,-6.25 6.99,-10.77 13.38,-10.77 1,0 2.02,0.109 2.96,0.32 l 40.13,8.84 c 3.58,0.789 6.63,2.93 8.6,6.008 1.95,3.059 2.6,6.742 1.82,10.32 l -28.78,130.66 121.85,26.79 28.75,-130.59 c 1.35,-6.25 6.98,-10.789 13.57,-10.789 0.94,0.039 1.88,0.14 2.76,0.328 l 40.13,8.832 c 3.58,0.801 6.64,2.918 8.6,6.008 1.95,3.089 2.6,6.742 1.83,10.32" />
<path
         id="path7210"
         fill="url(#retain_ef2e32)"
         d="m 1133.55,594.289 c 0,-36.898 -32.29,-61.699 -80.34,-61.699 h -40.65 v 118.539 c 10.13,1.621 23.35,2.453 39.44,2.453 54.11,0 81.55,-19.961 81.55,-59.293 z m -83.93,-257.687 c -16.33,0 -28.11,0.48 -37.06,1.5 V 479.84 H 1049 c 22.94,0 97.77,-5.141 97.77,-71.309 0,-62.582 -60.87,-71.929 -97.15,-71.929 z m 93.14,174.128 c 36.15,18.282 57.98,51.211 57.98,88.961 0,32.418 -12.79,59.051 -36.73,76.809 -25.88,21.492 -61.34,31.07 -115.01,31.07 -36.02,0 -73.246,-3.531 -97.16,-9.199 -3.102,-0.73 -5.27,-3.5 -5.27,-6.672 V 293.691 c 0,-3.441 2.524,-6.339 5.91,-6.812 13.239,-1.789 41.5,-4.848 82.1,-4.848 68.41,0 115.55,12.989 144.08,39.66 24.28,22.188 37.12,52 37.12,86.219 0,55.988 -36.48,88.949 -73.02,102.82" />
<path
         id="path7212"
         fill="url(#retain_ef2e32)"
         d="m 1415.36,349.75 -141.67,20.051 42.92,303.039 c 0.24,1.801 -0.23,3.621 -1.32,5.07 -1.08,1.461 -2.71,2.41 -4.5,2.68 l -45.39,6.422 c -0.32,0.039 -0.66,0.07 -0.98,0.07 -3.36,0 -6.28,-2.461 -6.77,-5.902 l -49.2,-347.438 c -0.26,-1.793 0.22,-3.621 1.31,-5.07 1.08,-1.453 2.72,-2.41 4.51,-2.66 l 193.84,-27.453 c 0.33,-0.047 0.63,-0.067 0.96,-0.067 1.47,0 2.92,0.477 4.12,1.36 1.46,1.109 2.42,2.73 2.67,4.527 l 5.33,37.633 c 0.52,3.738 -2.08,7.207 -5.83,7.738" />
<path
         id="path7214"
         fill="url(#retain_ef2e32)"
         d="m 1430.54,499.672 40.66,79.707 c 5.7,11.141 10.7,22.391 15.42,33.523 1.39,-11.8 3.1,-24.023 5.5,-37.062 l 16.62,-87.621 z m 98.02,172.629 c -0.54,2.879 -2.86,5.09 -5.75,5.519 l -49.55,7.25 c -0.34,0.039 -0.66,0.071 -0.99,0.071 -2.53,0 -4.92,-1.399 -6.1,-3.743 L 1309.76,376.379 c -1.01,-1.969 -1.01,-4.289 0.01,-6.238 1.02,-1.969 2.9,-3.332 5.09,-3.661 l 42.87,-6.261 c 0.34,-0.047 0.66,-0.059 0.98,-0.059 2.57,0 4.97,1.41 6.13,3.77 l 45.87,91.672 104.06,-15.2 18.67,-101.14 c 0.55,-2.903 2.86,-5.121 5.75,-5.563 l 44.3,-6.449 c 0.33,-0.051 0.65,-0.078 0.99,-0.078 1.83,0 3.63,0.758 4.94,2.109 1.53,1.59 2.2,3.821 1.8,6 l -62.66,337.02" />
<path
         id="path7216"
         fill="url(#retain_ef2e32)"
         d="m 1863.94,347.152 -67.66,307.2 c -0.69,3.211 -3.54,5.367 -6.69,5.367 -0.49,0 -0.99,-0.039 -1.48,-0.149 L 1748,650.73 c -3.69,-0.808 -6.02,-4.468 -5.21,-8.16 l 26.82,-121.851 -135.21,-29.778 -26.82,121.86 c -0.39,1.769 -1.46,3.32 -2.99,4.289 -1.12,0.723 -2.4,1.082 -3.7,1.082 -0.49,0 -0.99,-0.051 -1.48,-0.152 l -40.12,-8.84 c -1.77,-0.391 -3.32,-1.461 -4.3,-3 -0.97,-1.52 -1.3,-3.379 -0.91,-5.168 l 67.65,-307.211 c 0.69,-3.211 3.53,-5.379 6.68,-5.379 0.49,0 0.99,0.058 1.48,0.168 l 40.12,8.84 c 1.77,0.383 3.32,1.468 4.3,2.992 0.97,1.527 1.3,3.391 0.91,5.168 l -30.24,137.359 135.22,29.75 30.23,-137.328 c 0.7,-3.199 3.54,-5.379 6.69,-5.379 0.49,0.008 0.99,0.059 1.48,0.168 l 40.13,8.82 c 1.77,0.399 3.31,1.481 4.29,3 0.97,1.532 1.31,3.391 0.92,5.172" />
<path
         id="path7218"
         fill="url(#retain_ffffff)"
         d="m 1005.73,332.172 c 10.81,-1.82 25.23,-2.41 43.88,-2.41 54.09,0 104.01,19.84 104.01,78.758 0,54.71 -47.5,78.171 -104.62,78.171 h -43.27 z m 0,193.59 h 47.48 c 54.7,0 87.19,29.457 87.19,68.527 0,46.902 -35.47,66.133 -88.39,66.133 -24.04,0 -37.86,-1.793 -46.28,-3.59 z m -52.316,165.937 c 22.836,5.422 59.506,9.012 95.586,9.012 52.3,0 85.99,-9.012 110.64,-29.469 21.02,-15.613 34.27,-39.672 34.27,-71.531 0,-39.691 -26.47,-73.949 -68.55,-88.992 v -1.809 c 38.49,-9.008 83.57,-40.879 83.57,-101 0,-34.871 -13.83,-61.918 -34.88,-81.16 -27.66,-25.848 -73.34,-37.871 -139.47,-37.871 -36.084,0 -63.728,2.41 -81.166,4.812 v 398.008" />
<path
         id="path7220"
         fill="url(#retain_ffffff)"
         d="m 1264.44,680.23 45.38,-6.429 -43.88,-309.809 148.46,-21.023 -5.33,-37.629 -193.84,27.449 49.21,347.441" />
<path
         id="path7222"
         fill="url(#retain_ffffff)"
         d="m 1517.27,480.063 -18.42,97.058 c -4.08,21.969 -6.06,41.738 -8.1,61.008 l -0.98,0.152 c -7.45,-17.89 -15.15,-37.199 -24.67,-55.761 l -45,-88.258 z m -110.47,-16.961 -48.08,-96.11 -42.87,6.27 156.42,305.019 49.54,-7.242 62.66,-337.019 -44.29,6.48 -19.56,105.969 -113.82,16.633" />
<path
         id="path7224"
         fill="url(#retain_ffffff)"
         d="m 1600.89,611.32 28.3,-128.55 148.59,32.742 -28.3,128.539 40.11,8.828 67.66,-307.207 -40.13,-8.832 -31.71,144.031 -148.59,-32.711 31.71,-144.051 -40.12,-8.828 -67.65,307.211 40.13,8.828" />
<path
         id="path7226"
         fill="url(#retain_ffffff)"
         d="m 1005.73,332.172 c 10.81,-1.82 25.23,-2.41 43.88,-2.41 54.09,0 104.01,19.84 104.01,78.758 0,54.71 -47.5,78.171 -104.62,78.171 h -43.27 z m 0,193.59 h 47.48 c 54.7,0 87.19,29.457 87.19,68.527 0,46.902 -35.47,66.133 -88.39,66.133 -24.04,0 -37.86,-1.793 -46.28,-3.59 z m -52.316,165.937 c 22.836,5.422 59.506,9.012 95.586,9.012 52.3,0 85.99,-9.012 110.64,-29.469 21.02,-15.613 34.27,-39.672 34.27,-71.531 0,-39.691 -26.47,-73.949 -68.55,-88.992 v -1.809 c 38.49,-9.008 83.57,-40.879 83.57,-101 0,-34.871 -13.83,-61.918 -34.88,-81.16 -27.66,-25.848 -73.34,-37.871 -139.47,-37.871 -36.084,0 -63.728,2.41 -81.166,4.812 v 398.008" />
<path
         id="path7228"
         fill="url(#retain_ffffff)"
         d="m 1264.44,680.23 45.38,-6.429 -43.88,-309.809 148.46,-21.023 -5.33,-37.629 -193.84,27.449 49.21,347.441" />
<path
         id="path7230"
         fill="url(#retain_ffffff)"
         d="m 1517.27,480.063 -18.42,97.058 c -4.08,21.969 -6.06,41.738 -8.1,61.008 l -0.98,0.152 c -7.45,-17.89 -15.15,-37.199 -24.67,-55.761 l -45,-88.258 z m -110.47,-16.961 -48.08,-96.11 -42.87,6.27 156.42,305.019 49.54,-7.242 62.66,-337.019 -44.29,6.48 -19.56,105.969 -113.82,16.633" />
<path
         id="path7232"
         fill="url(#retain_ffffff)"
         d="m 1600.89,611.32 28.3,-128.55 148.59,32.742 -28.3,128.539 40.11,8.828 67.66,-307.207 -40.13,-8.832 -31.71,144.031 -148.59,-32.711 31.71,-144.051 -40.12,-8.828 -67.65,307.211 40.13,8.828" />



    </g></g>
 </g>
</svg>