<?xml version="1.0" encoding="utf-8"?>
<!-- Generator: Adobe Illustrator 21.1.0, SVG Export Plug-In . SVG Version: 6.00 Build 0)  -->
<svg version="1.1" baseProfile="tiny" id="Слой_1"
	 xmlns="http://www.w3.org/2000/svg" xmlns:xlink="http://www.w3.org/1999/xlink" x="0px" y="0px" viewBox="0 0 512 512"
	 overflow="scroll" xml:space="preserve">
<g>
	<g>
		<g>
			<g>
				<path fill="#BB89A3" d="M446.4,208.1c-9.4,5-1.6,18.7,9,15.6c10.6-3.1,15-16,15-16S455.8,203.1,446.4,208.1z M455.6,220.7
					c-4.8,1.4-12.9-3.5-9.2-8.7c3.7-5.3,22.1-2.9,22.1-2.9S461.6,218.9,455.6,220.7z"/>
				<path fill="#BB89A3" d="M468.4,208.6c0,0,12.4,5.6,21.9,0.1c9.5-5.5,5-20.6-5.2-17.2C475,194.8,468.4,208.6,468.4,208.6z
					 M470.6,208.1c0,0,10.9-15,17.3-14c6.4,1,4.3,10.2,0,12.7C482.5,210,470.6,208.1,470.6,208.1z"/>
				<path fill="#BB89A3" d="M468.9,211.1c0,0-1.7,2.2-0.6,9.7c1.1,7.4-0.8,13.2-5.6,17.2c0,0,2.5,2.5,4.4,2
					c1.9-0.5,5.6-9.5,4.7-14.9c-0.9-5.4-1.5-11.3-1-13.9L468.9,211.1z"/>
				<path fill="#BB89A3" d="M471.9,209.8c0,0,2.8,0.3,7.4,6.2c4.6,5.9,10.1,8.5,16.4,7.8c0,0,0.1,3.5-1.6,4.5
					c-1.6,1-10.7-2.5-14-6.8c-3.3-4.4-7.2-8.9-9.4-10.3L471.9,209.8z"/>
				
					<ellipse transform="matrix(0.9186 -0.3951 0.3951 0.9186 -44.4082 202.6369)" fill="#BB89A3" cx="469.8" cy="209.1" rx="2.2" ry="2.2"/>
			</g>
		</g>
		<path fill="#BB89A3" d="M512.3,179.1c-3.3,0.3-8.8,4.8-11.6,6.2c-5.7,2.9-11.4,5.7-17.2,8.4c-13,6.1-26.4,11.4-40,16.3
			c-46.4,16.5-95.4,25.1-144.5,27.5c-77.9,3.8-156.4-8.9-230.6-32.3c-20-6.3-39.8-13.5-59-21.9c-3-1.3-5.9-2.6-8.8-4
			c-0.1-0.1-0.3-0.1-0.4-0.1v2.4c0.1,0,0.2,0,0.2,0.1c1.6,0.8,3.3,1.5,4.9,2.2c16.8,7.5,34.1,13.9,51.5,19.8
			c69.9,23.6,143.9,36.6,217.7,36.6c46.5,0,93-6,137.9-18.2c23.7-6.5,46.9-15,69.3-25.1c5.8-2.6,11.5-5.4,17.2-8.2
			c1.5-0.8,12.5-7.8,13.2-7.5c0,0,0.1,0,0.1,0V179.1z"/>
		<g>
			<g>
				<path fill="#BB89A3" d="M46.4,207.8c0,0,4.4,12.8,15,16c10.6,3.1,18.4-10.6,9-15.6C61,203.1,46.4,207.8,46.4,207.8z M48.3,209
					c0,0,18.4-2.4,22.1,2.9c3.7,5.3-4.4,10.1-9.2,8.7C55.1,218.9,48.3,209,48.3,209z"/>
				<path fill="#BB89A3" d="M31.6,191.5c-10.1-3.4-14.7,11.7-5.2,17.2c9.5,5.5,21.9-0.1,21.9-0.1S41.7,194.8,31.6,191.5z
					 M28.9,206.8c-4.3-2.6-6.4-11.8,0-12.7c6.4-1,17.3,14,17.3,14S34.3,210,28.9,206.8z"/>
				<path fill="#BB89A3" d="M47.9,211.1c0,0,1.7,2.2,0.6,9.7c-1.1,7.4,0.8,13.2,5.6,17.2c0,0-2.5,2.5-4.4,2
					c-1.9-0.5-5.6-9.5-4.7-14.9c0.9-5.4,1.5-11.3,1-13.9L47.9,211.1z"/>
				<path fill="#BB89A3" d="M44.9,209.8c0,0-2.8,0.3-7.4,6.2c-4.6,5.9-10.1,8.5-16.4,7.8c0,0-0.1,3.5,1.6,4.5c1.6,1,10.7-2.5,14-6.8
					c3.3-4.4,7.2-8.9,9.4-10.3L44.9,209.8z"/>
				
					<ellipse transform="matrix(0.3952 -0.9186 0.9186 0.3952 -163.7117 169.6284)" fill="#BB89A3" cx="47" cy="209.1" rx="2.2" ry="2.2"/>
			</g>
		</g>
	</g>
	<g>
		<g>
			<g>
				<polygon fill="#F4AFB2" points="88,210.8 109.4,295 165.6,228.7 				"/>
			</g>
		</g>
		<g>
			<polygon fill="#DB9ABA" points="171.5,229.5 203.1,310.4 250.7,237.7 			"/>
		</g>
		<g>
			<g>
				<polygon fill="#F090A3" points="256.1,237.3 298.9,312.9 335.6,234.1 				"/>
			</g>
		</g>
		<g>
			<g>
				<polygon fill="#E8B8D6" points="339.4,234.2 393.9,301.9 417.4,218.3 				"/>
			</g>
		</g>
	</g>
</g>
<g>
	<path fill="#F090A3" d="M95.9,212.6C95.9,212.6,96,212.6,95.9,212.6L95.9,212.6C95.9,212.6,95.9,212.6,95.9,212.6z"/>
	<path fill="#F090A3" d="M107,215.2C107,215.2,107,215.2,107,215.2L107,215.2C107,215.2,107,215.2,107,215.2z"/>
	<path fill="#F090A3" d="M118.1,217.8C118.1,217.8,118.1,217.8,118.1,217.8L118.1,217.8C118.1,217.8,118.1,217.8,118.1,217.8z"/>
	<path fill="#F090A3" d="M129.2,220.3C129.2,220.3,129.2,220.3,129.2,220.3L129.2,220.3C129.2,220.3,129.2,220.3,129.2,220.3z"/>
	<polygon fill="#F090A3" points="140.2,222.9 140.3,222.9 140.2,222.9 	"/>
	<polygon fill="#F090A3" points="151.3,225.5 151.3,225.5 151.3,225.5 	"/>
	<path fill="#F090A3" d="M90.1,216.3c-0.2-0.1-0.5-0.1-0.7-0.1l1.5,6.1c0.8-0.4,1.4-1.2,1.6-2.1C92.9,218.4,91.8,216.7,90.1,216.3z"
		/>
	
		<ellipse transform="matrix(0.2258 -0.9742 0.9742 0.2258 -138.5192 269.7135)" fill="#F090A3" cx="100.4" cy="222" rx="3.2" ry="3.2"/>
	
		<ellipse transform="matrix(0.2257 -0.9742 0.9742 0.2257 -132.433 282.5168)" fill="#F090A3" cx="111.5" cy="224.6" rx="3.2" ry="3.2"/>
	
		<ellipse transform="matrix(0.2252 -0.9743 0.9743 0.2252 -126.3196 295.4304)" fill="#F090A3" cx="122.6" cy="227.1" rx="3.2" ry="3.2"/>
	
		<ellipse transform="matrix(0.2253 -0.9743 0.9743 0.2253 -120.2429 308.1845)" fill="#F090A3" cx="133.7" cy="229.7" rx="3.2" ry="3.2"/>
	
		<ellipse transform="matrix(0.2258 -0.9742 0.9742 0.2258 -114.206 320.8303)" fill="#F090A3" cx="144.7" cy="232.3" rx="3.2" ry="3.2"/>
	
		<ellipse transform="matrix(0.2259 -0.9742 0.9742 0.2259 -108.141 333.57)" fill="#F090A3" cx="155.8" cy="234.8" rx="3.2" ry="3.2"/>
	<path fill="#F090A3" d="M92.5,228.5l1.4,5.3c0.4-0.4,0.7-0.9,0.8-1.5C95.1,230.7,94.1,229,92.5,228.5z"/>
	
		<ellipse transform="matrix(0.2258 -0.9742 0.9742 0.2258 -148.6836 281.2856)" fill="#F090A3" cx="102.6" cy="234.2" rx="3.2" ry="3.2"/>
	
		<ellipse transform="matrix(0.2252 -0.9743 0.9743 0.2252 -142.5711 294.2128)" fill="#F090A3" cx="113.7" cy="236.7" rx="3.2" ry="3.2"/>
	
		<ellipse transform="matrix(0.2256 -0.9742 0.9742 0.2256 -136.5184 306.8788)" fill="#F090A3" cx="124.8" cy="239.3" rx="3.2" ry="3.2"/>
	
		<ellipse transform="matrix(0.2253 -0.9743 0.9743 0.2253 -130.4159 319.731)" fill="#F090A3" cx="135.8" cy="241.9" rx="3.2" ry="3.2"/>
	
		<ellipse transform="matrix(0.2257 -0.9742 0.9742 0.2257 -124.3746 332.386)" fill="#F090A3" cx="146.9" cy="244.4" rx="3.2" ry="3.2"/>
	<path fill="#F090A3" d="M95.7,240.9l1.5,5.9c0.6-0.4,1.1-1.1,1.3-1.9c0.4-1.7-0.7-3.5-2.4-3.9C95.9,241,95.8,241,95.7,240.9z"/>
	
		<ellipse transform="matrix(0.2252 -0.9743 0.9743 0.2252 -157.9571 294.8207)" fill="#F090A3" cx="106.4" cy="246.7" rx="3.2" ry="3.2"/>
	
		<ellipse transform="matrix(0.2256 -0.9742 0.9742 0.2256 -151.9007 307.4707)" fill="#F090A3" cx="117.5" cy="249.3" rx="3.2" ry="3.2"/>
	
		<ellipse transform="matrix(0.2256 -0.9742 0.9742 0.2256 -145.8177 320.2616)" fill="#F090A3" cx="128.5" cy="251.9" rx="3.2" ry="3.2"/>
	<path fill="#F090A3" d="M140.3,251.3c-1.7-0.4-3.5,0.7-3.9,2.4c-0.4,1.7,0.7,3.5,2.4,3.9c1,0.2,2.1-0.1,2.8-0.7l0.7-0.8
		c0.2-0.3,0.3-0.6,0.4-1C143.2,253.4,142.1,251.7,140.3,251.3z"/>
	<path fill="#F090A3" d="M98.8,253.4l1.3,4.9c0.3-0.4,0.5-0.8,0.6-1.2C101,255.5,100.2,254,98.8,253.4z"/>
	
		<ellipse transform="matrix(0.2258 -0.9742 0.9742 0.2258 -168.155 306.2105)" fill="#F090A3" cx="108.6" cy="258.9" rx="3.2" ry="3.2"/>
	
		<ellipse transform="matrix(0.2258 -0.9742 0.9742 0.2258 -162.0772 318.9897)" fill="#F090A3" cx="119.6" cy="261.5" rx="3.2" ry="3.2"/>
	
		<ellipse transform="matrix(0.2258 -0.9742 0.9742 0.2258 -156.006 331.743)" fill="#F090A3" cx="130.7" cy="264" rx="3.2" ry="3.2"/>
	<path fill="#F090A3" d="M102,265.7C102,265.7,102,265.7,102,265.7l1.4,5.6c0.5-0.4,0.9-1,1.1-1.7
		C104.8,267.9,103.7,266.1,102,265.7z"/>
	
		<ellipse transform="matrix(0.2254 -0.9743 0.9743 0.2254 -177.439 319.6927)" fill="#F090A3" cx="112.3" cy="271.4" rx="3.2" ry="3.2"/>
	<path fill="#F090A3" d="M126.6,274.7c0.4-1.7-0.7-3.5-2.4-3.9c-1.7-0.4-3.5,0.7-3.9,2.4c-0.4,1.7,0.7,3.5,2.4,3.9
		c0.7,0.2,1.4,0.1,2-0.2L126.6,274.7C126.6,274.7,126.6,274.7,126.6,274.7z"/>
	<path fill="#F090A3" d="M105.1,278.3l1.1,4.4c0.2-0.3,0.3-0.6,0.4-0.9C106.9,280.4,106.3,279,105.1,278.3z"/>
	
		<ellipse transform="matrix(0.2253 -0.9743 0.9743 0.2253 -187.6061 331.2775)" fill="#F090A3" cx="114.5" cy="283.6" rx="3.2" ry="3.2"/>
	<path fill="#F090A3" d="M108.2,290.5l1.1,4.5l1.1-1.3C110.5,292.3,109.6,291,108.2,290.5z"/>
</g>
<g>
	<polygon fill="#E8B8D6" points="176.3,230 172.8,232.8 173.8,235.4 180,230.3 	"/>
	<polygon fill="#E8B8D6" points="196.2,232 192.5,231.6 177.2,244 178.2,246.6 	"/>
	<polygon fill="#E8B8D6" points="181.6,255.3 182.6,257.8 212.3,233.7 208.7,233.3 	"/>
	<polygon fill="#E8B8D6" points="224.8,235 186,266.5 187,269.1 228.5,235.4 	"/>
	<polygon fill="#E8B8D6" points="244.7,237 241,236.7 190.4,277.7 191.4,280.3 	"/>
	<polygon fill="#E8B8D6" points="194.8,289 195.8,291.5 237.8,257.4 242.5,250.2 	"/>
	<polygon fill="#E8B8D6" points="199.2,300.2 200.2,302.8 217.1,289 221.9,281.8 	"/>
</g>
<g>
	
		<rect x="289.5" y="259" transform="matrix(0.6786 -0.7345 0.7345 0.6786 -98.9824 300.5485)" fill="none" width="8.9" height="8.9"/>
	
		<rect x="298" y="266.8" transform="matrix(0.6786 -0.7345 0.7345 0.6786 -101.995 309.2542)" fill="none" width="8.9" height="8.9"/>
	
		<rect x="288.9" y="242.7" transform="matrix(0.6787 -0.7345 0.7345 0.6787 -87.2696 294.8525)" fill="none" width="8.9" height="8.9"/>
	
		<rect x="272.7" y="243.4" transform="matrix(0.6787 -0.7345 0.7345 0.6787 -92.9562 283.147)" fill="none" width="8.9" height="8.9"/>
	
		<rect x="297.3" y="250.5" transform="matrix(0.6786 -0.7345 0.7345 0.6786 -90.2822 303.5623)" fill="none" width="8.9" height="8.9"/>
	
		<rect x="281.1" y="251.2" transform="matrix(0.6787 -0.7344 0.7344 0.6787 -95.9696 291.8378)" fill="none" width="8.9" height="8.9"/>
	
		<rect x="281.7" y="267.4" transform="matrix(0.6787 -0.7344 0.7344 0.6787 -107.6819 297.5229)" fill="none" width="8.9" height="8.9"/>
	
		<rect x="305.8" y="258.3" transform="matrix(0.6786 -0.7345 0.7345 0.6786 -93.2943 312.2688)" fill="none" width="8.9" height="8.9"/>
	
		<rect x="273.3" y="259.6" transform="matrix(0.6786 -0.7345 0.7345 0.6786 -104.6671 288.8421)" fill="none" width="8.9" height="8.9"/>
	
		<rect x="313.6" y="249.9" transform="matrix(0.6786 -0.7345 0.7345 0.6786 -84.5951 315.2809)" fill="none" width="8.9" height="8.9"/>
	
		<rect x="298.6" y="283" transform="matrix(0.6786 -0.7345 0.7345 0.6786 -113.7073 314.9429)" fill="none" width="8.9" height="8.9"/>
	
		<rect x="290.2" y="275.2" transform="matrix(0.6786 -0.7345 0.7345 0.6786 -110.6943 306.235)" fill="none" width="8.9" height="8.9"/>
	
		<rect x="305.1" y="242.1" transform="matrix(0.6786 -0.7345 0.7345 0.6786 -81.583 306.5768)" fill="none" width="8.9" height="8.9"/>
	<polygon fill="#F5B4C6" points="265.5,236.9 261.8,237 260.5,238.5 262.4,240.3 	"/>
	<polygon fill="#F5B4C6" points="259.5,243.4 260.6,242.2 258.7,240.4 258.2,241 	"/>
	
		<rect x="268.5" y="242.6" transform="matrix(0.6787 -0.7345 0.7345 0.6787 -91.4496 278.7964)" fill="#F5B4C6" width="8.9" height="2.6"/>
	<polygon fill="#F5B4C6" points="281.7,236.2 278,236.4 276.7,237.8 278.6,239.6 	"/>
	<polygon fill="#F5B4C6" points="264.1,251.5 265.5,253.9 269.1,250 267.1,248.2 	"/>
	
		<rect x="284.7" y="242" transform="matrix(0.6787 -0.7345 0.7345 0.6787 -85.7625 290.51)" fill="#F5B4C6" width="8.9" height="2.6"/>
	<polygon fill="#F5B4C6" points="298,235.6 294.3,235.7 292.9,237.2 294.9,239 	"/>
	<polygon fill="#F5B4C6" points="277.5,257.8 275.6,256 270,262 271.2,264 271.5,264.3 	"/>
	
		<rect x="276.9" y="250.4" transform="matrix(0.6786 -0.7345 0.7345 0.6786 -94.4623 287.4988)" fill="#F5B4C6" width="8.9" height="2.6"/>
	
		<rect x="285.3" y="258.2" transform="matrix(0.6786 -0.7345 0.7345 0.6786 -97.475 296.2044)" fill="#F5B4C6" width="8.9" height="2.6"/>
	<polygon fill="#F5B4C6" points="276,272.5 277.3,274.9 278.1,274 276.2,272.2 	"/>
	
		<rect x="293.1" y="249.7" transform="matrix(0.6786 -0.7345 0.7345 0.6786 -88.7746 299.2177)" fill="#F5B4C6" width="8.9" height="2.6"/>
	
		<rect x="277.5" y="266.6" transform="matrix(0.6786 -0.7345 0.7345 0.6786 -106.1744 293.1867)" fill="#F5B4C6" width="8.9" height="2.6"/>
	<polygon fill="#F5B4C6" points="314.2,235 310.5,235.1 309.2,236.5 311.1,238.3 	"/>
	
		<rect x="300.9" y="241.3" transform="matrix(0.6786 -0.7345 0.7345 0.6786 -80.0762 302.225)" fill="#F5B4C6" width="8.9" height="2.6"/>
	
		<rect x="301.5" y="257.5" transform="matrix(0.6787 -0.7344 0.7344 0.6787 -91.7904 307.8983)" fill="#F5B4C6" width="8.9" height="2.6"/>
	<polygon fill="#F5B4C6" points="281.9,282.9 283.3,285.3 286.6,281.8 284.6,280 	"/>
	
		<rect x="293.8" y="266" transform="matrix(0.6787 -0.7344 0.7344 0.6787 -100.4902 304.8856)" fill="#F5B4C6" width="8.9" height="2.6"/>
	
		<rect x="317.1" y="240.7" transform="matrix(0.6786 -0.7345 0.7345 0.6786 -74.3905 313.9421)" fill="#F5B4C6" width="8.9" height="2.6"/>
	<polygon fill="#F5B4C6" points="330.4,234.3 326.7,234.5 325.4,235.9 327.3,237.7 	"/>
	
		<rect x="286" y="274.4" transform="matrix(0.6786 -0.7345 0.7345 0.6786 -109.1874 301.8896)" fill="#F5B4C6" width="8.9" height="2.6"/>
	
		<rect x="309.3" y="249.1" transform="matrix(0.6787 -0.7344 0.7344 0.6787 -83.0913 310.9145)" fill="#F5B4C6" width="8.9" height="2.6"/>
	
		<rect x="310" y="265.3" transform="matrix(0.6786 -0.7345 0.7345 0.6786 -94.801 316.6193)" fill="#F5B4C6" width="8.9" height="2.6"/>
	<polygon fill="#F5B4C6" points="318.2,260.6 320.2,262.4 324.7,257.4 325.7,255.4 324.2,254.1 	"/>
	<polygon fill="#F5B4C6" points="287.9,293.4 289.2,295.8 295,289.6 293.1,287.8 	"/>
	
		<rect x="294.4" y="282.2" transform="matrix(0.6786 -0.7345 0.7345 0.6786 -112.201 310.5847)" fill="#F5B4C6" width="8.9" height="2.6"/>
	
		<rect x="302.2" y="273.8" transform="matrix(0.6786 -0.7345 0.7345 0.6786 -103.5023 313.5985)" fill="#F5B4C6" width="8.9" height="2.6"/>
	<polygon fill="#F5B4C6" points="328.3,249.6 326,252.1 326.8,252.9 	"/>
	<polygon fill="#F5B4C6" points="303.3,293.7 305.2,295.4 308.8,291.6 310.4,288.2 309.3,287.2 	"/>
	
		<rect x="295" y="298.4" transform="matrix(0.6786 -0.7345 0.7345 0.6786 -123.9135 316.2682)" fill="#F5B4C6" width="8.9" height="2.6"/>
	<polygon fill="#F5B4C6" points="295.2,306.3 295.6,305.8 294,304.3 	"/>
	<polygon fill="#F5B4C6" points="312.4,283.8 311.1,285.2 311.5,285.7 	"/>
	<polygon fill="#F5B4C6" points="289.8,296.8 294,304.3 295.6,305.8 300.2,310 301.4,307.5 297.4,303.9 295.5,302.1 	"/>
	<polygon fill="#F5B4C6" points="296.8,287.7 294.9,285.9 288.3,279.9 286.4,278.1 279.9,272.1 278,270.3 271.5,264.3 271.2,264 
		275.5,271.5 276.2,272.2 278.1,274 284.6,280 286.6,281.8 293.1,287.8 295,289.6 301.5,295.6 303.4,297.4 305.3,299.1 306.4,296.6 
		305.2,295.4 303.3,293.7 	"/>
	<polygon fill="#F5B4C6" points="267.1,248.2 269.1,250 275.6,256 277.5,257.8 284,263.8 285.9,265.6 292.4,271.6 294.4,273.4 
		300.9,279.4 302.8,281.1 309.3,287.2 310.4,288.2 311.5,285.7 311.1,285.2 304.6,279.2 302.6,277.4 296.1,271.4 294.2,269.6 
		287.7,263.6 285.8,261.9 279.3,255.8 277.3,254.1 270.8,248 268.9,246.3 262.4,240.3 260.5,238.5 259,237.1 256.1,237.3 
		256.9,238.7 258.7,240.4 260.6,242.2 	"/>
	<polygon fill="#F5B4C6" points="283.4,247.6 285.3,249.3 291.8,255.3 293.7,257.1 300.2,263.1 302.2,264.9 308.7,270.9 
		310.6,272.7 315.5,277.2 316.6,274.7 312.4,270.8 310.4,269 303.9,263 302,261.2 295.5,255.2 293.6,253.4 287.1,247.4 285.1,245.6 
		278.6,239.6 276.7,237.8 275.3,236.5 271.5,236.6 274.9,239.8 276.8,241.5 	"/>
	<polygon fill="#F5B4C6" points="299.6,246.9 301.5,248.7 308,254.7 309.9,256.5 316.4,262.5 318.4,264.3 320.6,266.3 321.7,263.8 
		320.2,262.4 318.2,260.6 311.7,254.6 309.8,252.8 303.3,246.8 301.4,245 294.9,239 292.9,237.2 291.5,235.9 287.8,236 291.1,239.1 
		293.1,240.9 	"/>
	<polygon fill="#F5B4C6" points="315.8,246.3 317.7,248.1 324.2,254.1 325.7,255.4 326.8,252.9 326,252.1 319.5,246.1 317.6,244.3 
		311.1,238.3 309.2,236.5 307.7,235.2 304,235.4 307.4,238.5 309.3,240.3 	"/>
	<polygon fill="#F5B4C6" points="330.8,244.4 331.9,241.9 327.3,237.7 325.4,235.9 323.9,234.6 320.2,234.7 323.6,237.8 
		325.5,239.6 	"/>
</g>
<g>
	<polygon fill="#F7E0EE" points="344.2,240.1 353.7,252 349.7,232.1 342.9,233.5 	"/>
	<polygon fill="#F7E0EE" points="365.6,228.9 358.8,230.3 366.4,267.8 376,279.6 	"/>
	<polygon fill="#F7E0EE" points="381.5,225.6 374.7,227 388.7,295.4 393.9,301.9 395.8,295.3 	"/>
	<polygon fill="#F7E0EE" points="397.4,222.4 390.6,223.8 401.2,275.8 405.4,261.2 	"/>
	<polygon fill="#F7E0EE" points="413.3,219.1 406.5,220.5 410.8,241.7 414.9,227.1 	"/>
</g>
</svg>
