<?xml version="1.0" encoding="utf-8"?>
<!-- Generator: Adobe Illustrator 21.1.0, SVG Export Plug-In . SVG Version: 6.00 Build 0)  -->
<svg version="1.1" baseProfile="tiny" id="Слой_1"
	 xmlns="http://www.w3.org/2000/svg" xmlns:xlink="http://www.w3.org/1999/xlink" x="0px" y="0px" viewBox="0 0 512 512"
	 overflow="scroll" xml:space="preserve">
<g>
	<path fill="#5C546A" d="M257.3,32.9c27.2,0,49.4,14.7,49.4,32.9h32.9c0-36.3-36.8-65.8-82.3-65.8s-82.3,29.5-82.3,65.8H208
		C208,47.6,230.1,32.9,257.3,32.9L257.3,32.9z"/>
	<path fill="#514B5E" d="M257.5,32.9L257.5,32.9c27.2,0,49.4,14.7,49.4,32.9h32.9c0-36.3-36.8-65.8-82.3-65.8"/>
	<path fill="#6D350F" d="M80.5,322.8h-16c-13.2,0-23.9,10.7-23.9,23.9v113.7c0,13.2,10.7,23.9,23.9,23.9h16c4.4,0,8-3.6,8-8V330.8
		C88.5,326.4,84.9,322.8,80.5,322.8L80.5,322.8z M80.5,322.8"/>
	<path fill="#6D350F" d="M431.3,322.8h15.8c13.1,0,23.7,10.7,23.7,23.9v113.7c0,13.2-10.6,23.9-23.7,23.9h-15.8
		c-4.4,0-7.9-3.6-7.9-8V330.8C423.4,326.4,426.9,322.8,431.3,322.8L431.3,322.8z M431.3,322.8"/>
	<path fill="#935116" d="M434.7,476.4c0,19.6-15.9,35.6-35.6,35.6H112.6C92.9,512,77,496,77,476.4V93c0-19.6,15.9-35.6,35.6-35.6
		h286.5c19.7,0,35.6,15.9,35.6,35.6V476.4z M434.7,476.4"/>
	<path fill="#6D350F" d="M399.1,57.5H112.6C92.9,57.5,77,73.4,77,95.5v104.8c0,17.2,15.9,33.1,35.6,35.6h286.5
		c19.7-2.5,35.6-18.4,35.6-35.6V95.5C434.7,73.4,418.7,57.5,399.1,57.5L399.1,57.5z M399.1,57.5"/>
	<path fill="#BBE6EA" d="M163,251.2"/>
	<path fill="#A2B9BC" d="M343.6,265.7"/>
	<path fill="#BBE6EA" d="M360.8,251.2"/>
	<path fill="#6D350F" d="M398.2,436.1c0,29.1-23.6,52.8-52.8,52.8H166.2c-29.2,0-52.8-23.6-52.8-52.8v-62.7
		c0-29.2,23.6-52.8,52.8-52.8h179.2c29.2,0,52.8,23.6,52.8,52.8L398.2,436.1L398.2,436.1z M398.2,436.1"/>
</g>
<path fill="#BC8F35" d="M164.9,57.4h-48v268.9c0,0,12.3,32,24.5,32c11.8,0,23.5-32,23.5-32"/>
<line fill="#EFC75E" x1="164.9" y1="326.3" x2="164.9" y2="57.4"/>
<path fill="#BC8F35" d="M349.7,57.4v268.8c0,0,12.3,32,24.5,32c11.8,0,23.5-32,23.5-32V57.4H349.7z"/>
<path fill="#EFC75E" d="M324.8,56.5"/>
<path fill="#F2ECD3" d="M100.9,294.3h80v-48h-80V294.3z M308.8,246.3"/>
<rect x="332.9" y="246.5" fill="#F2ECD3" width="80" height="48"/>
<rect x="40.6" y="373.2" fill="#5C546A" width="36.4" height="16"/>
<rect x="434.7" y="373.2" fill="#514B5E" width="36.1" height="16"/>
<rect x="113.4" y="373.2" fill="#5C546A" width="284.8" height="16"/>
<path fill="#F2ECD3" d="M182.2,403c-2.7,0-5-2.2-5-5v-19.9c0-2.7,2.2-5,5-5c2.7,0,5,2.2,5,5V398C187.2,400.8,184.9,403,182.2,403
	L182.2,403z M182.2,403"/>
<path fill="#F2ECD3" d="M187,423.6h-9.9c-2.7,0-5-2.2-5-5v-14.9c0-5.5,4.4-9.9,9.9-9.9c5.5,0,9.9,4.4,9.9,9.9v14.9
	C192,421.4,189.8,423.6,187,423.6L187,423.6z M187,423.6"/>
<rect x="256.9" y="373.2" fill="#514B5E" width="141.3" height="16"/>
</svg>
