<?xml version="1.0" encoding="utf-8"?>
<!-- Generator: Adobe Illustrator 21.1.0, SVG Export Plug-In . SVG Version: 6.00 Build 0)  -->
<svg version="1.1" baseProfile="tiny" id="Слой_1"
	 xmlns="http://www.w3.org/2000/svg" xmlns:xlink="http://www.w3.org/1999/xlink" x="0px" y="0px" viewBox="0 0 512 512"
	 xml:space="preserve">
<path fill="#80C683" d="M50.6,297.1c-2.1,0.6-8.8-5.3-11.3-14.2c-2.6-8.9-1.6-17,2-18c3.7-1.1,8.8,5.3,11.3,14.2
	C55.2,288,52.4,296.6,50.6,297.1z"/>
<path fill="#80C683" d="M33.4,289.9c-1.2,2.1-11.1,2.6-20-2.5C4.5,282.3-1.1,275.2,1,271.5c2.1-3.7,11.1-2.6,20,2.5
	C30,279.1,34.5,288.1,33.4,289.9z"/>
<path fill="#80C683" d="M49.7,297.9c1.2,1.8-2.5,9.9-10.3,14.9c-7.8,5-15.8,6.5-17.8,3.3c-2.1-3.2,2.5-9.9,10.3-14.9
	C39.7,296.2,48.7,296.4,49.7,297.9z"/>
<path fill="#63977E" d="M43.2,273.2c0,0-0.7,12.1,6.9,24l0.8-0.6C50.9,296.5,43.5,283.7,43.2,273.2z"/>
<path fill="#63977E" d="M30.4,313.8c0,0,5.9-10.6,18.6-16.6l0.4,1C49.4,298.2,36.3,305.1,30.4,313.8z"/>
<g>
	<path fill="#80C683" d="M131.9,311.1c-2.5,1.5-13.1-3.9-19.3-14.5c-6.3-10.6-7.8-21.3-3.4-23.9c4.4-2.6,13.1,3.9,19.3,14.5
		C134.8,297.8,134,309.8,131.9,311.1z"/>
	<path fill="#F4BAC3" d="M378,239.7c6.2-0.1,11.3-2.2,11.2-4.8c0-2.6-5.1-4.6-11.3-4.5c-1.4,0-2.7,0.2-3.9,0.5
		c0.8-0.9,1.6-2,2.3-3.2c3.1-5.4,3.7-10.9,1.4-12.1c-2.3-1.3-6.6,2.1-9.6,7.5c-0.7,1.2-1.2,2.5-1.6,3.7c-0.4-1.2-0.9-2.4-1.6-3.6
		c-3.2-5.4-7.6-8.6-9.8-7.3c-2.2,1.3-1.5,6.7,1.7,12.1c0.7,1.2,1.5,2.3,2.4,3.2c-1.2-0.3-2.6-0.4-3.9-0.4
		c-6.2,0.1-11.3,2.2-11.2,4.8c0,2.6,5.1,4.6,11.3,4.6c1.4,0,2.7-0.2,3.9-0.5c-0.8,0.9-1.6,2-2.3,3.2c-3.1,5.4-3.7,10.9-1.5,12.1
		c2.3,1.3,6.6-2.1,9.6-7.5c0.7-1.2,1.2-2.5,1.6-3.7c0.4,1.2,0.9,2.4,1.6,3.6c3.2,5.4,7.6,8.6,9.8,7.3c2.2-1.3,1.4-6.7-1.7-12.1
		c-0.7-1.2-1.5-2.3-2.4-3.2C375.3,239.5,376.7,239.7,378,239.7z"/>
	<path fill="#80C683" d="M134.5,309.2c2.6,1.4,3.6,13.1-2.1,24.1c-5.7,10.9-14,17.9-18.5,15.5c-4.5-2.4-3.6-13.1,2.1-24.1
		C121.6,313.8,132.3,308.1,134.5,309.2z"/>
	<path fill="#80C683" d="M91.1,308.2c-2.4,1.1-11.5-4.6-16.3-14.8c-4.8-10.1-5.3-20-1.1-22c4.2-2,11.5,4.6,16.3,14.8
		C94.8,296.3,93.1,307.2,91.1,308.2z"/>
	<path fill="#80C683" d="M91.6,308.7c2.1,1.7,0.9,12.4-6.1,21.1c-7,8.8-15.6,13.5-19.3,10.6c-3.6-2.9-0.9-12.4,6.1-21.1
		C79.3,310.6,89.8,307.3,91.6,308.7z"/>
	<path fill="#63977E" d="M154.7,301.9c-1.3,0.3-2.6,0.6-4,0.9c-2,0.4-4.1,0.8-6.3,1.2c-2.2,0.3-4.5,0.7-6.8,1
		c-4.7,0.5-9.6,1.1-14.8,1.3c-5.1,0.4-10.4,0.4-15.9,0.4c-2.7,0-5.4-0.2-8.2-0.4c-2.7-0.3-5.5-0.5-8.2-0.8c-2.7-0.4-5.5-0.7-8.2-1.2
		c-1.4-0.2-2.7-0.5-4.1-0.7c-1.3-0.3-2.7-0.6-4-0.9c-5.3-1.1-10.5-2.6-15.5-4.1c-5-1.6-9.7-3.2-14.2-5c-4.5-1.7-8.6-3.5-12.4-5.2
		c-7.6-3.5-13.7-6.9-17.9-9.4c-4.2-2.5-6.5-4.1-6.5-4.1l-0.3,0.4c0,0,8.8,7,23.8,14.8c3.7,2,7.8,4,12.2,5.9c4.4,2,9.2,3.8,14.1,5.6
		c5,1.7,10.2,3.4,15.6,4.7c1.3,0.3,2.7,0.7,4.1,1c1.4,0.3,2.7,0.6,4.1,0.9c2.7,0.6,5.5,1.1,8.3,1.6c2.8,0.5,5.6,0.8,8.4,1.2
		c2.8,0.3,5.6,0.6,8.4,0.8c5.6,0.4,11.1,0.4,16.4,0.2c5.3-0.3,10.5-0.9,15.3-1.8c2.4-0.5,4.7-1,7-1.4c2.2-0.6,4.4-1.2,6.4-1.7
		c1.4-0.3,2.6-0.8,3.9-1.2L154.7,301.9z"/>
	<path fill="#63977E" d="M76.9,276.8c0,0,1.1,16.2,13,30.7l1-1C90.9,306.5,79.1,290.7,76.9,276.8z"/>
	<path fill="#63977E" d="M70.9,335.9c0,0,4.4-15.7,19.1-27.4l0.8,1.1C90.8,309.7,75.9,322.7,70.9,335.9z"/>
	<path fill="#63977E" d="M112.1,278c0,0,3.6,17.5,18.7,31.4l0.9-1.2C131.7,308.2,116.5,292.8,112.1,278z"/>
	<path fill="#63977E" d="M117.6,343.4c0,0,1.4-18.3,15.1-34.4l1.1,1.1C133.8,310.1,120.2,327.7,117.6,343.4z"/>
	<path fill="#80C683" d="M183.6,331.7c-2.1,0.5-4.8,8.8-2.6,17.6c2.2,8.8,7,15.2,10.6,14.2c3.6-0.9,4.8-8.8,2.6-17.6
		C192,337.2,185.4,331.3,183.6,331.7z"/>
	<path fill="#80C683" d="M172.8,343.9c-2.1-1.2-10.6,3.3-15.7,12c-5.1,8.7-6.2,17.5-2.6,19.6c3.6,2.1,10.6-3.3,15.7-12
		C175.2,354.7,174.6,344.9,172.8,343.9z"/>
	<path fill="#80C683" d="M182.5,331.4c0.1-2.2-7-7.1-16.1-7.5c-9.1-0.4-16.5,2.3-16.7,6c-0.2,3.8,7,7.1,16.1,7.5
		C174.8,337.9,182.4,333.3,182.5,331.4z"/>
	<path fill="#63977E" d="M168.9,348c1.8-2.9,3.8-5.9,6.1-9c2.2-3.1,4.8-6.3,7.5-9.6c2.8-3.2,5.7-6.4,8.9-9.6
		c0.8-0.8,1.6-1.6,2.4-2.3c0.8-0.8,1.7-1.5,2.5-2.3c1.6-1.6,3.4-3,5.1-4.4c1.7-1.5,3.6-2.8,5.3-4.2c1.8-1.3,3.6-2.7,5.5-3.9
		c0.9-0.6,1.8-1.2,2.8-1.8l2,3.9c-0.8,0.5-1.7,1-2.5,1.5c-1.9,1.1-3.7,2.3-5.5,3.5c-1.8,1.3-3.6,2.5-5.4,3.9
		c-1.7,1.4-3.5,2.7-5.2,4.1c-0.8,0.7-1.7,1.4-2.5,2.1c-0.8,0.7-1.6,1.5-2.4,2.2c-3.2,2.9-6.2,6-9.1,9.1c-2.8,3.1-5.4,6.1-7.8,9.1
		c-2.4,3-4.5,5.9-6.5,8.6c-3.8,5.5-6.7,10.3-8.6,13.7c-1.9,3.4-2.8,5.5-2.8,5.5l-0.4-0.2C158.5,367.8,161.8,359.4,168.9,348z"/>
	<path fill="#63977E" d="M156.9,330.9c0,0,19,4,25.2,1.4l0.1-1.2C182.1,331.1,175.2,332.8,156.9,330.9z"/>
	<path fill="#63977E" d="M189,356.2c0,0-8-17.6-6.9-24.3l1.2-0.3C183.3,331.6,183.2,338.8,189,356.2z"/>
	<path fill="#80C683" d="M384.2,266.2c2.2,0,6.9-7.3,7-16.3c0.1-9.1-2.8-16.4-6.6-16.5c-3.8,0-6.9,7.3-7,16.3
		C377.5,258.8,382.4,266.2,384.2,266.2z"/>
	<path fill="#80C683" d="M397.8,257.3c1.7,1.7,11.1-0.4,18.3-7.5c7.1-7.1,10.5-15.3,7.6-18.2c-3-3-11.1,0.4-18.3,7.5
		C398.3,246.1,396.4,255.8,397.8,257.3z"/>
	<path fill="#80C683" d="M385.3,266.8c-0.7,2.1,5,8.7,13.6,11.4c8.6,2.7,16.6,2,17.7-1.5c1.1-3.6-5-8.7-13.6-11.4
		C394.3,262.5,385.8,265,385.3,266.8z"/>
	<path fill="#63977E" d="M366.3,275.9c1-0.5,2-0.9,3-1.4c1-0.5,1.9-1,2.9-1.5c3.9-2,7.6-4.2,11.1-6.4c3.5-2.2,6.8-4.5,9.9-6.8
		c3.1-2.3,5.9-4.5,8.5-6.7c5.1-4.3,9.1-8.2,11.8-11c2.7-2.8,4.1-4.5,4.1-4.5l0.3,0.3c0,0-5.3,7.3-15.2,16.5
		c-2.5,2.3-5.2,4.7-8.2,7.2c-3,2.5-6.3,4.9-9.7,7.3c-3.5,2.4-7.2,4.8-11,7c-1,0.5-1.9,1.1-2.9,1.7c-1,0.5-2,1-3,1.6"/>
	<path fill="#63977E" d="M409.9,273.9c0,0-17.3-8.7-24-7.8l-0.4,1.2C385.5,267.2,392.7,267.4,409.9,273.9z"/>
	<path fill="#63977E" d="M385.4,241.1c0,0,3.2,19.1,0.4,25.2l-1.2,0C384.5,266.4,386.5,259.5,385.4,241.1z"/>
	<path fill="#E57373" d="M112.2,322.4c4.3,0,7.8-1.5,7.8-3.3c0-1.8-3.5-3.2-7.8-3.1c-1,0-1.9,0.1-2.7,0.3c0.6-0.6,1.1-1.4,1.6-2.2
		c2.1-3.7,2.6-7.5,1-8.4c-1.6-0.9-4.5,1.5-6.6,5.2c-0.5,0.8-0.8,1.7-1.1,2.5c-0.3-0.8-0.6-1.7-1.1-2.5c-2.2-3.7-5.2-6-6.7-5.1
		c-1.5,0.9-1,4.6,1.2,8.3c0.5,0.8,1.1,1.6,1.6,2.2c-0.8-0.2-1.8-0.3-2.7-0.3c-4.3,0.1-7.8,1.5-7.7,3.3c0,1.8,3.5,3.2,7.8,3.1
		c1,0,1.9-0.1,2.7-0.3c-0.6,0.6-1.1,1.4-1.6,2.2c-2.1,3.7-2.6,7.5-1,8.4c1.6,0.9,4.5-1.5,6.6-5.2c0.5-0.8,0.8-1.7,1.1-2.5
		c0.3,0.8,0.6,1.7,1.1,2.5c2.2,3.7,5.2,6,6.8,5c1.5-0.9,1-4.6-1.2-8.3c-0.5-0.8-1-1.6-1.6-2.2C110.3,322.3,111.2,322.4,112.2,322.4z
		"/>
	
		<ellipse transform="matrix(5.489447e-02 -0.9985 0.9985 5.489447e-02 -220.4107 406.1555)" fill="#FFD54F" cx="104.3" cy="319.5" rx="1.9" ry="1.9"/>
	
		<ellipse transform="matrix(5.463909e-02 -0.9985 0.9985 5.463909e-02 111.0017 589.2574)" fill="#FFECB3" cx="366.7" cy="236" rx="2.7" ry="2.7"/>
	<g>
		<path fill="#80C683" d="M478.1,314.3c1,2.2,10.7,3.8,20.2-0.3c9.5-4.1,15.7-10.6,14-14.5c-1.7-3.9-10.7-3.8-20.2,0.3
			C482.7,303.9,477.3,312.4,478.1,314.3z"/>
		<path fill="#80C683" d="M377.9,324.5c2.3,1.8,13.4-2.4,20.8-12.3c7.4-9.9,10.1-20.3,6-23.4c-4.1-3.1-13.4,2.4-20.8,12.3
			C376.5,311,375.9,323.1,377.9,324.5z"/>
		<path fill="#80C683" d="M375.6,322.4c-2.7,1.1-5,12.7-0.5,24.2c4.5,11.5,11.9,19.3,16.7,17.5c4.8-1.9,5-12.7,0.5-24.2
			C387.8,328.4,377.9,321.5,375.6,322.4z"/>
		<path fill="#80C683" d="M418.8,326.1c2.3,1.4,11.9-3.3,17.8-12.9c5.9-9.6,7.4-19.3,3.5-21.7c-4-2.4-11.9,3.3-17.8,12.9
			C416.4,314,416.9,324.9,418.8,326.1z"/>
		<path fill="#80C683" d="M418.3,326.6c-2.3,1.4-2.2,12.2,3.8,21.7c6,9.5,14.1,15.1,18,12.6c3.9-2.5,2.2-12.2-3.8-21.7
			C430.3,329.8,420.2,325.4,418.3,326.6z"/>
		<path fill="#80C683" d="M460.3,319.6c2,0.8,9.3-4.3,12.8-12.9c3.5-8.6,3.5-16.7-0.1-18.1c-3.5-1.5-9.3,4.3-12.8,12.9
			C456.7,310,458.6,318.9,460.3,319.6z"/>
		<path fill="#80C683" d="M461,320.5c-1.4,1.7,1.4,10.1,8.6,16c7.2,5.8,15,8.2,17.4,5.2c2.4-3-1.4-10.1-8.6-16
			C471.2,319.8,462.2,319,461,320.5z"/>
		<path fill="#63977E" d="M356.3,312.9c1.3,0.4,2.6,0.9,3.9,1.3c2,0.6,4,1.2,6.2,1.9c2.2,0.6,4.4,1.1,6.7,1.7
			c4.6,1.1,9.5,2.1,14.5,2.9c5.1,0.9,10.3,1.6,15.7,2.1c2.7,0.2,5.4,0.4,8.2,0.5c2.7,0,5.5,0.1,8.3,0.1c2.8-0.1,5.5-0.1,8.3-0.3
			c1.4-0.1,2.7-0.2,4.1-0.3c1.4-0.1,2.7-0.3,4.1-0.4c5.4-0.5,10.7-1.4,15.8-2.4c5.1-1,10-2.1,14.6-3.4c4.6-1.2,8.9-2.5,12.9-3.9
			c7.9-2.6,14.4-5.3,18.8-7.4c4.4-2,6.9-3.4,6.9-3.4l0.3,0.5c0,0-9.5,6-25.3,12.1c-3.9,1.5-8.2,3.1-12.8,4.6
			c-4.6,1.5-9.5,2.8-14.7,4c-5.2,1.2-10.5,2.2-16,3c-1.4,0.2-2.8,0.4-4.1,0.6c-1.4,0.1-2.8,0.3-4.2,0.4c-2.8,0.3-5.6,0.5-8.5,0.7
			c-2.8,0.2-5.7,0.2-8.5,0.3c-2.8-0.1-5.6,0-8.4-0.2c-5.6-0.2-11.1-0.8-16.3-1.6c-5.3-0.9-10.3-2.1-15-3.5c-2.3-0.7-4.6-1.5-6.8-2.2
			c-2.1-0.8-4.2-1.7-6.2-2.4c-1.3-0.5-2.5-1-3.7-1.6L356.3,312.9z"/>
		<g>
			<path fill="#63977E" d="M470.3,296.6c0,0-0.7,12.2-9.5,23.1l-0.7-0.7C460.1,318.9,468.8,307,470.3,296.6z"/>
			<path fill="#63977E" d="M478.5,338.4c0,0-4.7-11.2-16.7-18.5l-0.5,0.9C461.3,320.8,473.6,329,478.5,338.4z"/>
		</g>
		<g>
			<path fill="#63977E" d="M436.3,296.4c0,0-2.8,16-16.3,29.1l-0.9-1.1C419.1,324.5,432.6,310.1,436.3,296.4z"/>
			<path fill="#63977E" d="M435.8,355.9c0,0-2.6-16.1-16-29.3l-0.9,1.1C419,327.6,432.3,342.2,435.8,355.9z"/>
		</g>
		<g>
			<path fill="#63977E" d="M401.2,293.9c0,0-5.4,17-22,29.1l-0.8-1.3C378.5,321.7,395.2,308.1,401.2,293.9z"/>
			<path fill="#63977E" d="M388.6,358.2c0,0,0.6-18.3-11.2-35.8l-1.2,1C376.2,323.4,387.7,342.4,388.6,358.2z"/>
		</g>
		<path fill="#E57373" d="M412.6,305.4c7.4-0.1,13.3-2.6,13.3-5.7c0-3.1-6-5.5-13.4-5.4c-1.6,0-3.2,0.2-4.7,0.6
			c1-1.1,1.9-2.4,2.7-3.8c3.6-6.4,4.4-12.8,1.7-14.3c-2.7-1.5-7.8,2.5-11.4,8.9c-0.8,1.4-1.4,2.9-1.9,4.3c-0.5-1.4-1.1-2.9-1.9-4.3
			c-3.8-6.3-8.9-10.2-11.6-8.7c-2.6,1.6-1.7,8,2,14.3c0.8,1.4,1.8,2.7,2.8,3.8c-1.5-0.3-3-0.5-4.7-0.5c-7.4,0.1-13.3,2.6-13.3,5.7
			c0,3.1,6,5.5,13.4,5.4c1.6,0,3.2-0.2,4.7-0.6c-1,1.1-1.9,2.4-2.7,3.8c-3.6,6.4-4.4,12.8-1.7,14.3c2.7,1.5,7.7-2.5,11.4-8.9
			c0.8-1.4,1.4-2.9,1.8-4.3c0.5,1.4,1.1,2.9,1.9,4.3c3.8,6.3,8.9,10.2,11.6,8.6c2.6-1.6,1.7-8-2-14.3c-0.8-1.4-1.8-2.7-2.8-3.8
			C409.4,305.3,410.9,305.5,412.6,305.4z"/>
		
			<ellipse transform="matrix(5.489753e-02 -0.9985 0.9985 5.489753e-02 76.3352 683.4199)" fill="#FFD54F" cx="399.2" cy="301.4" rx="3.1" ry="3.1"/>
	</g>
	<path fill="#DC800B" d="M303.3,241.9c35,13.4,72.1,43.4,68.7,55.6c2.4-1.9,6.2-7,7.2-9.7c7.3-18.4-22.4-47.5-66.4-65.1
		c-44-17.6-85.6-17-93,1.4c-1.1,2.7-1.3,5.6-0.9,8.7C238.6,226.5,270.4,229.4,303.3,241.9z"/>
	<path fill="#C46C14" d="M263.1,210.3c-0.5,2.7-2.4,10-10,19.7c3.6,0.3,7.4,0.7,11.2,1.3l6.6-11.3v-8.9
		C268.3,210.8,265.7,210.5,263.1,210.3z"/>
	<path fill="#C46C14" d="M340,236c43,40.2,32.7,61.3,31.8,63c2.3-2.3,6.6-8.9,7.5-11.2C385,273.6,368.3,252.8,340,236z"/>
	<path fill="#D0D2D3" d="M314.7,220.3c-46.2-18.1-90.1-16.6-97.9,3.4c-1.2,3.2-1.5,6.6-0.9,10.2c3.3,19.2,31.5,43.5,70.4,58.8
		c37.2,14.6,72.8,16.4,89.4,6.2c4-2.5,7-5.7,8.5-9.6C392,269.3,360.9,238.4,314.7,220.3z M379.3,287.8c-1.1,2.7-2.9,5-5.3,6.9
		c-14.2,11.3-50.1,9.5-87.7-5.5c-37.5-15-64.6-38.4-67.3-56.4c-0.5-3.1-0.2-6,0.9-8.7c7.3-18.4,49-19,93-1.4
		C356.9,240.3,386.6,269.5,379.3,287.8z"/>
	<path fill="#DC800B" d="M285.4,167.8c-1.1-6.2-4.3-16.2-8.5-19.5c-18.2-14.4-59.8,7.9-92.8,49.8c-33,41.9-45,87.5-26.7,101.8
		c3.2,2.5,11.7,1.1,16.1,1.5c-7.1-11.9,10.9-52.5,36.5-83.2C234.8,188.5,272,159.5,285.4,167.8z"/>
	<path fill="#FDC802" d="M284.7,145.2c-14.1-5-30.7-0.2-30.7-0.2c9.3-2.2,17.3-1.3,23,3.2c4.2,3.3,6.8,8.3,7.9,14.4
		c3.7,20.7-9.2,55.1-34.6,87.4c-27.3,34.6-60.3,55.8-81.3,54c-4.4-0.4-8.3-1.7-11.5-4.2c-9.7-7.6-10.8-24-4.9-43.9
		c0,0-23.4,63.5,30.8,74.6c8.9,1.8,22.1,0,31.8-4.4c3-1.3,6.1-2.8,9-4.4c6-3.2,11.6-7.3,17-11.3c6.2-4.6,12.1-9.6,17.7-15
		c6.1-5.8,11.9-11.9,17.3-18.3c0.7-0.8,1.3-1.6,2-2.4c25.1-30.1,39.9-62.1,41.1-84.5C321.6,163.5,297.6,149.8,284.7,145.2z"/>
	<path fill="#C46C14" d="M285.4,167.8c-0.6-3.2-1.5-5.2-3.1-9c-8.5-1.7-30.5,6-55.4,41.1C249.3,178,274.8,161.3,285.4,167.8z"/>
	
		<ellipse transform="matrix(0.6191 -0.7853 0.7853 0.6191 -93.2591 255.9448)" fill="none" cx="217.2" cy="224.1" rx="96.5" ry="42"/>
	<path fill="#F7AC1B" d="M276.9,148.3c-18.2-14.4-59.8,7.9-92.8,49.8c-33,41.9-45,87.5-26.7,101.8c18.2,14.4,59.8-7.9,92.8-49.8
		C283.2,208.3,295.2,162.7,276.9,148.3z M247.3,247.8c-24.9,31.5-55.4,52.7-75.9,52.7c-4.7,0-8.7-1.2-11.7-3.6
		c-16.3-12.9-3.8-57.1,27.3-96.6c24.9-31.5,55.4-52.7,75.9-52.7c4.7,0,8.7,1.2,11.7,3.6C291,164.1,278.4,208.3,247.3,247.8z"/>
	
		<ellipse transform="matrix(0.6191 -0.7853 0.7853 0.6191 -93.2591 255.9448)" fill="none" cx="217.2" cy="224.1" rx="96.5" ry="42"/>
	<path fill="#FAF5BE" d="M314.7,220.3c-0.8-0.3-1.7-0.6-2.5-0.9c-0.3,0.9-0.7,1.8-1.1,2.7c0.6,0.2,1.2,0.4,1.7,0.7
		c44,17.6,73.7,46.7,66.4,65.1c-1.1,2.7-2.9,5-5.3,6.9c-14.2,11.3-50.1,9.5-87.7-5.5c-37.5-15-64.6-38.4-67.3-56.4
		c-0.5-3.1-0.2-6,0.9-8.7c4.9-12.2,24.8-16.5,50.5-13c0.4-0.8,0.7-1.5,1.1-2.3c-27.7-3.7-49.4,1.4-54.7,14.9
		c-1.2,3.2-1.5,6.6-0.9,10.2c3.3,19.2,31.5,43.5,70.4,58.8c37.2,14.6,72.8,16.4,89.4,6.2c4-2.5,7-5.7,8.5-9.6
		C392,269.3,360.9,238.4,314.7,220.3z"/>
	<image width="315" height="549" xlink:href="D8717C8F.png"  transform="matrix(0.24 0 0 0.24 240.96 155.04)">
	</image>
	<image width="373" height="166" xlink:href="D8717C8D.png"  transform="matrix(0.24 0 0 0.24 158.64 288.96)">
	</image>
	<image width="190" height="134" xlink:href="D8717C93.png"  transform="matrix(0.24 0 0 0.24 206.88 278.16)">
	</image>
	<path fill="#FFDF2F" d="M269.3,281.5c-28.5-14.6-48.1-33.5-50.3-48.7c-0.5-3.1-0.2-6,0.9-8.7c4.9-12.2,24.8-16.5,50.5-13
		c0.4-0.8,0.7-1.5,1.1-2.3c-27.7-3.7-49.4,1.4-54.7,14.9c-1.2,3.2-1.5,6.6-0.9,10.2c3.1,18.3,28.6,41.1,64.5,56.4
		C276,287.5,272.3,284.5,269.3,281.5z"/>
	<path fill="#FDC802" d="M385.3,281.1c0.2,2.9-0.1,5.7-1.1,8.3c-1.5,3.9-4.5,7.1-8.5,9.6v0v0c0,0,0,0,0,0
		c-16.6,10.3-52.2,8.4-89.4-6.2c-38.9-15.2-67.1-39.6-70.4-58.8c0,0,0,0,0,0l0,0v0c-0.6-3.6-0.4-7.1,0.9-10.2c1.6-4.1,4.7-7.3,9-9.9
		l0,0c-22.1,8.2-25.8,35.9-25.8,35.9c-5.6,21.6,26.4,52.8,73.3,70.7c34,13,66.7,15.6,86.1,8.5l0,0
		C388.8,319.8,388.5,295.5,385.3,281.1z"/>
	<path fill="#F9B410" d="M252.6,311.2c-52.6-32.3-52.4-62.8-46.2-79.8c-5.1,9.3-6.3,18.4-6.3,18.4
		C195.3,268.1,217.4,293.1,252.6,311.2z"/>
	<image width="362" height="116" xlink:href="D8717C95.png"  transform="matrix(0.24 0 0 0.24 297.84 294.48)">
	</image>
	<path fill="#E89706" d="M172.3,300.5c-0.3,0-0.6,0-0.9,0c-4.7,0-8.7-1.2-11.7-3.6c-12.9-10.2-7.7-40.1,10.5-71.7
		c10.4-18.7,24.1-37,34.3-49.6c-1.7,1.7-3.5,3.4-5.2,5.1c0,0,0,0,0,0c-1.7,1.7-3.3,3.5-5,5.3c-0.1,0.1-0.1,0.1-0.2,0.2
		c-1.6,1.7-3.1,3.5-4.6,5.3c-0.3,0.3-0.6,0.7-0.9,1c-1.5,1.8-3,3.6-4.5,5.5c-33,41.9-45,87.5-26.7,101.8c0.5,0.4,1.1,0.8,1.6,1.1
		c0.2,0.1,0.4,0.2,0.6,0.3c0.4,0.2,0.8,0.4,1.2,0.6c0.2,0.1,0.5,0.2,0.7,0.3c0.4,0.2,0.8,0.3,1.2,0.5c0.2,0.1,0.5,0.2,0.7,0.3
		c0.5,0.2,0.9,0.3,1.4,0.4c0.2,0.1,0.4,0.1,0.6,0.2c0.7,0.2,1.3,0.3,2,0.4c0.2,0,0.5,0.1,0.7,0.1c0.5,0.1,0.9,0.1,1.4,0.1
		c0.3,0,0.6,0,1,0c0.4,0,0.9,0,1.3,0c0.3,0,0.7,0,1,0c0.4,0,0.9-0.1,1.3-0.1c0.4,0,0.7-0.1,1.1-0.1c0.5-0.1,1-0.1,1.6-0.2
		c0.6-0.1,1.1-0.2,1.7-0.3c0.5-0.1,1-0.2,1.5-0.3c0.4-0.1,0.9-0.2,1.3-0.3c0.4-0.1,0.8-0.2,1.3-0.3c0.4-0.1,0.9-0.3,1.4-0.4
		c0.4-0.1,0.8-0.3,1.3-0.4c0.5-0.2,0.9-0.3,1.4-0.5c0.4-0.2,0.9-0.3,1.3-0.5c0.1,0,0.2-0.1,0.3-0.1
		C181,301.7,175.9,301.4,172.3,300.5z"/>
	<path fill="#DC800B" d="M303.3,241.9c35,13.4,72.1,43.4,68.7,55.6c2.4-1.9,6.2-7,7.2-9.7c7.3-18.4-22.4-47.5-66.4-65.1
		c-44-17.6-85.6-17-93,1.4c-1.1,2.7-1.3,5.6-0.9,8.7C238.6,226.5,270.4,229.4,303.3,241.9z"/>
	<path fill="#C46C14" d="M263.1,210.3c-0.5,2.7-2.4,10-10,19.7c3.6,0.3,7.4,0.7,11.2,1.3l6.6-11.3v-8.9
		C268.3,210.8,265.7,210.5,263.1,210.3z"/>
	<path fill="#FFD54F" d="M314.7,220.3c-46.2-18.1-90.1-16.6-97.9,3.4c-1.2,3.2-1.5,6.6-0.9,10.2c3.3,19.2,31.5,43.5,70.4,58.8
		c37.2,14.6,72.8,16.4,89.4,6.2c4-2.5,7-5.7,8.5-9.6C392,269.3,360.9,238.4,314.7,220.3z M379.3,287.8c-1.1,2.7-2.9,5-5.3,6.9
		c-14.2,11.3-50.1,9.5-87.7-5.5c-37.5-15-64.6-38.4-67.3-56.4c-0.5-3.1-0.2-6,0.9-8.7c7.3-18.4,49-19,93-1.4
		C356.9,240.3,386.6,269.5,379.3,287.8z"/>
	<path fill="#DC800B" d="M285.4,167.8c-1.1-6.2-4.3-16.2-8.5-19.5c-18.2-14.4-59.8,7.9-92.8,49.8c-33,41.9-45,87.5-26.7,101.8
		c3.2,2.5,11.7,1.1,16.1,1.5c-7.1-11.9,10.9-52.5,36.5-83.2C234.8,188.5,272,159.5,285.4,167.8z"/>
	<path fill="#FFD54F" d="M284.7,145.2c-14.1-5-30.7-0.2-30.7-0.2c9.3-2.2,17.3-1.3,23,3.2c4.2,3.3,6.8,8.3,7.9,14.4
		c3.7,20.7-9.2,55.1-34.6,87.4c-27.3,34.6-60.3,55.8-81.3,54c-4.4-0.4-8.3-1.7-11.5-4.2c-9.7-7.6-10.8-24-4.9-43.9
		c0,0-23.4,63.5,30.8,74.6c8.9,1.8,22.1,0,31.8-4.4c3-1.3,6.1-2.8,9-4.4c6-3.2,11.6-7.3,17-11.3c6.2-4.6,12.1-9.6,17.7-15
		c6.1-5.8,11.9-11.9,17.3-18.3c0.7-0.8,1.3-1.6,2-2.4c25.1-30.1,39.9-62.1,41.1-84.5C321.6,163.5,297.6,149.8,284.7,145.2z"/>
	
		<ellipse transform="matrix(0.6191 -0.7853 0.7853 0.6191 -93.2591 255.9448)" fill="none" cx="217.2" cy="224.1" rx="96.5" ry="42"/>
	<path fill="#F7AC1B" d="M276.9,148.3c-18.2-14.4-59.8,7.9-92.8,49.8c-33,41.9-45,87.5-26.7,101.8c18.2,14.4,59.8-7.9,92.8-49.8
		C283.2,208.3,295.2,162.7,276.9,148.3z M247.3,247.8c-24.9,31.5-55.4,52.7-75.9,52.7c-4.7,0-8.7-1.2-11.7-3.6
		c-16.3-12.9-3.8-57.1,27.3-96.6c24.9-31.5,55.4-52.7,75.9-52.7c4.7,0,8.7,1.2,11.7,3.6C291,164.1,278.4,208.3,247.3,247.8z"/>
	
		<ellipse transform="matrix(0.6191 -0.7853 0.7853 0.6191 -93.2591 255.9448)" fill="none" cx="217.2" cy="224.1" rx="96.5" ry="42"/>
	<image width="190" height="134" xlink:href="D8717C97.png"  transform="matrix(0.24 0 0 0.24 206.88 278.16)">
	</image>
	<path fill="#FFDF2F" d="M269.3,281.5c-28.5-14.6-48.1-33.5-50.3-48.7c-0.5-3.1-0.2-6,0.9-8.7c4.9-12.2,24.8-16.5,50.5-13
		c0.4-0.8,0.7-1.5,1.1-2.3c-27.7-3.7-49.4,1.4-54.7,14.9c-1.2,3.2-1.5,6.6-0.9,10.2c3.1,18.3,28.6,41.1,64.5,56.4
		C276,287.5,272.3,284.5,269.3,281.5z"/>
	<path fill="#FFB300" d="M385.3,281.1c0.2,2.9-0.1,5.7-1.1,8.3c-1.5,3.9-4.5,7.1-8.5,9.6v0v0c0,0,0,0,0,0
		c-16.6,10.3-52.2,8.4-89.4-6.2c-38.9-15.2-67.1-39.6-70.4-58.8c0,0,0,0,0,0l0,0v0c-0.6-3.6-0.4-7.1,0.9-10.2c1.6-4.1,4.7-7.3,9-9.9
		l0,0c-22.1,8.2-25.8,35.9-25.8,35.9c-5.6,21.6,26.4,52.8,73.3,70.7c34,13,66.7,15.6,86.1,8.5l0,0
		C388.8,319.8,388.5,295.5,385.3,281.1z"/>
	<g>
		<path id="XMLID_91_" fill="#EF9A9A" d="M330,373.2c2,2.8,6.6,9.8,10.9,7.2c3.5-2,1-6.7-0.7-10.2c7.4,3,14.1,10.1,22.3,7.1
			c7.3-2.7,2.4-12.1,5.3-15c19.9-20-42.5-33.2-50.3-29.9c-7.3,3.1-3.2,13.5-1.2,18.4C319.8,358.8,324.7,366.1,330,373.2z"/>
		<path id="XMLID_89_" fill="#E57373" d="M351.1,356.2c3.3,0.9,11.2,3.6,13.1-1.1c1.5-3.8-3.4-5.9-6.9-7.6
			c7.7-2.3,14.6-3.5,21.9-8.3c3.8-2.5,2.6-7.8,2.4-8c-0.9-2.9-7.6-3-7.1-7.1c3.2-28.1-54.4,0.3-58.5,7.7
			c-3.9,6.9,5.9,12.6,10.5,15.1C334.2,351.2,342.6,353.9,351.1,356.2z"/>
		<path id="XMLID_88_" fill="#63977E" d="M268.4,328.1c6.1,1.6,12.4,3.2,18.6,4.6c3.2,0.7,6.5,0.9,9.8,1.1c-1.2,6.6,5.4,8,11.2,6.4
			c0.1,13.2,19.7,31.6,18.4,29.4c-2.9-5-9.9-17.9-12.1-24.3c0.6,1.9,7.2,7.3,12.4,9.2c1.6,0.6-2.6-5.9-4.3-7.7
			c-1.6-2.1-2.8-4.5-3.9-7c1.8,1.5,6.7,0.8,8.6,1.3c2.3,0.6-9.2-4.2-11-5.3c-0.8-2.2,5.9-1.5,7.8-1.9c3.6-0.5,1.6-0.1,10.6-2.2
			c0,0-13.5-3.3-16.8-1.3c2.7-3.1,10.4-6,13-7.2c4-1.9,9.2-3.6,12.5-6.7c0.3-0.3,0-0.9-0.4-0.8c-6.3,0.3-13.3,2.2-19,4.9
			c-9.8,4.6-10,7.1-12.3,9.6c-4.6-3.5-11.1-2.8-13.6,1.2c-2.4-0.3-5-0.1-7.1-0.4c-6.6-1.1-13.3-3.1-19.9-4.8
			C264.2,324.3,262.3,326.5,268.4,328.1z"/>
	</g>
	<g id="XMLID_2_">
		<path id="XMLID_86_" fill="#E57373" d="M190,324.3c-2.1,6.4-2.2,13.4,0,20.1c3.6,10.6,9.2,16.1,15.4,18.6
			c6.9,15.3,24.3,22.7,36.5,20.3c5.6-1.1,13.7-6.3,18.1-10.6c7.7,0.1,15.7-3.3,21.6-10c3.7-4.2,6.1-9,7.1-14
			c13.4-6.1,19.2-25.2,15.3-37c-4.6-14-15.5-20.7-20.9-24.4c-2.9-9.7-10-17.4-20.2-21.1c-10.8-3.8-22.4-1.4-31.4,5.4
			c-12.2-1.2-36.4,2.8-43.3,18.4c-4.9,11-2.4,27.3,1.5,34.4C189.9,324.5,189.9,324.4,190,324.3z"/>
		<path id="XMLID_85_" fill="#F4BAC3" d="M257.9,330.1c2,6.3-3.4,15.5-8.1,19.6c1.5,3.2,6.8,4,10.3,1.8c10.4-6.4,12.4-16.9,9.7-25.3
			c-2.7-8.4-11.7-13-20.1-10.2c-2.1,0.7-4,1.8-5.6,3.2C250.3,319.8,255.9,323.9,257.9,330.1z"/>
		<path id="XMLID_84_" fill="#F4BAC3" d="M236,339.2c-1.1-6.1,1.6-11.9,6.5-15.1c-1.9-0.4-3.9-0.5-6-0.1
			c-8.1,1.5-13.5,9.2-12.1,17.4c1.5,8.1,9.2,13.5,17.4,12.1c2.1-0.4,3.9-1.1,5.6-2.2C241.7,349.9,237.1,345.3,236,339.2z"/>
		<path id="XMLID_83_" fill="#F4BAC3" d="M242.9,315.2c10.4-3.4,20.4-2.7,27.2,5c0.3-3.5-0.1-7-1.2-10.6
			c-4.5-13.9-19.4-21.5-33.3-16.9c-13.9,4.5-23.9,20.3-19.4,34.2c1.1,3.5,3.2,8.4,5.5,11C222.5,327.7,232.5,318.6,242.9,315.2z"/>
		<path id="XMLID_82_" fill="#EF9A9A" d="M211.5,333c-3.3-12.7,3.3-26.1,11.1-33.5c-3.6-0.7-8.5,2.3-12,3.5
			c-16.7,5.8-26,24.4-20.4,41.1c11.5,34.1,44.4,15.4,47,13C222.8,350.8,214.3,343.8,211.5,333z"/>
		<path id="XMLID_81_" fill="#EF9A9A" d="M267.6,349.8c-6.6,9.2-18.6,11.7-27.8,9.1c1.2,3,3.1,5.8,5.7,8c10,8.9,26.4,7,36.5-4.3
			c10.1-11.3,10.2-27.8,0.1-36.7c-2.5-2.3-7.8-3.1-10.9-4C274.8,330.8,274.4,340.4,267.6,349.8z"/>
		<path id="XMLID_80_" fill="#EF9A9A" d="M254,291.1c13.4,4.7,18.2,15.8,18.7,30.2c6.4-2.1,8-5.4,9.8-10.3
			c6.9-19.6-1.3-38.5-19.2-44.8c-17.9-6.3-38,4.5-45,24.1c-1.8,5-2.7,5.1-2.5,10C225.2,289.4,240.6,286.4,254,291.1z"/>
		<path id="XMLID_78_" fill="#EF9A9A" d="M237.1,360.1c-8.7,10-25.1,5.7-28.4,5.1c6.5,16,21,20.3,33.4,17.9
			c6.3-1.2,11.7-4.6,15.6-9.1C249,373,241.3,367.8,237.1,360.1z"/>
		
			<ellipse id="XMLID_76_" transform="matrix(0.1261 -0.992 0.992 0.1261 -116.2462 538.7708)" fill="#F4BAC3" cx="247.7" cy="335.4" rx="12.8" ry="7.1"/>
	</g>
</g>
</svg>
