<?xml version="1.0" encoding="utf-8"?>
<!-- Generator: Adobe Illustrator 21.1.0, SVG Export Plug-In . SVG Version: 6.00 Build 0)  -->
<svg version="1.1" baseProfile="tiny" id="Слой_1"
	 xmlns="http://www.w3.org/2000/svg" xmlns:xlink="http://www.w3.org/1999/xlink" x="0px" y="0px" viewBox="0 0 512 512"
	 overflow="scroll" xml:space="preserve">
<g>
	<path d="M253.9,430.3v0.1c0.8,0,1.7-0.1,2.5-0.1c0.9,0,1.7,0.1,2.5,0.1v-0.1c179-2.5,275.9-137.4,248.4-176.9
		c-27.8-39.9-91.8-19-91.8-19l-12.3-83.5C400,78.8,275.5,86.4,256.4,88.1c-19.1-1.6-143.6-9.3-146.8,62.9l-12.3,83.9
		c0,0-64.1-21.3-91.8,18.6C-22,293,75,427.8,253.9,430.3z"/>
	<path fill="#161616" d="M252.9,426.5v0.1c0.8,0,1.7-0.1,2.5-0.1c0.9,0,1.7,0.1,2.5,0.1v-0.1c179-2.5,275.9-137.4,248.4-176.9
		c-27.8-39.9-91.8-19-91.8-19L402.2,147C399,74.9,274.6,82.6,255.5,84.2c-19.1-1.6-143.6-9.3-146.8,62.9l-12.3,83.9
		c0,0-64.1-21.3-91.8,18.6C-22.9,289.1,74,423.9,252.9,426.5z"/>
	<path d="M96.4,234.3l-1,48.7c0,0,15.2,44.5,160,44.5c144.8,0,160.2-45.9,160.2-45.9l-1.1-47.7C416.4,273.9,94.5,274.3,96.4,234.3z"
		/>
	<path fill="#636263" d="M96.4,230.9l-1,48.7c0,0,15.2,44.5,160,44.5c144.8,0,160.2-45.9,160.2-45.9l-1.1-47.7
		C416.4,270.5,94.5,270.9,96.4,230.9z"/>
</g>
</svg>
