<?xml version="1.0" encoding="utf-8"?>
<!-- Generator: Adobe Illustrator 21.1.0, SVG Export Plug-In . SVG Version: 6.00 Build 0)  -->
<svg version="1.1" baseProfile="tiny" id="Слой_1"
	 xmlns="http://www.w3.org/2000/svg" xmlns:xlink="http://www.w3.org/1999/xlink" x="0px" y="0px" viewBox="0 0 512 512"
	 overflow="scroll" xml:space="preserve">
<g id="XMLID_3230_">
	<g id="XMLID_4655_">
		<path id="XMLID_4737_" fill="#F2BC65" d="M362.2,486.4c-73.3,40.5-165.1,26.9-209.1,1.1c-17.7-10.4-33.2-115.9-54.6-148.8
			c-63.7-97.9,383.2-97.6,316.9,4.6C383.8,391.8,368.3,483,362.2,486.4z"/>
		<g>
			<path id="XMLID_4736_" fill="#C99C54" d="M182.4,355.3c-0.1-0.2-0.4-0.2-0.5,0.1c-1.6,8.3,12.9,108.2,19.2,130.2
				c0.6,2,3.3,1.6,3.6-0.5C208.7,458.8,193.2,369,182.4,355.3z"/>
			<path id="XMLID_4735_" fill="#C99C54" d="M210.1,357.7c-0.1-0.2-0.4-0.2-0.4,0c-1.9,8.2,5.8,108.7,10.2,130.9
				c0.4,2.1,2.9,1.8,3.3-0.3C228.1,462.3,219.1,371.9,210.1,357.7z"/>
			<path id="XMLID_4734_" fill="#C99C54" d="M234.8,361.3c-0.1-0.2-0.3-0.2-0.4,0c-1.9,8.2-0.1,108.6,2.6,130.9
				c0.2,2.1,2.3,1.8,2.7-0.3C245.1,466.1,241.6,375.6,234.8,361.3z"/>
			<path id="XMLID_4733_" fill="#C99C54" d="M257.6,362.8c-0.1-0.2-0.3-0.2-0.4,0c-2.1,8.1-2.5,108.6-0.2,131
				c0.2,2.1,2.3,1.9,2.7-0.2C265.7,467.9,264.1,377.3,257.6,362.8z"/>
			<path id="XMLID_4732_" fill="#C99C54" d="M279.4,362.9c-0.1-0.2-0.3-0.2-0.4,0c-2.1,8.1-2.4,108.6-0.2,131
				c0.2,2.1,2.3,1.9,2.7-0.2C287.4,467.9,285.9,377.3,279.4,362.9z"/>
			<path id="XMLID_4731_" fill="#C99C54" d="M165.2,366.4c-0.1-0.1-0.4-0.2-0.5,0.1c-1.5,7.3,12.2,94.7,18.1,114
				c0.6,1.8,3.1,1.4,3.4-0.4C190.1,457,175.5,378.4,165.2,366.4z"/>
			<path id="XMLID_4730_" fill="#C99C54" d="M150.4,372.7c-0.1-0.1-0.4-0.1-0.4,0.1c-1.3,6.1,10.2,79.7,15.2,95.9
				c0.5,1.5,2.6,1.2,2.9-0.4C171.3,449,159,382.8,150.4,372.7z"/>
			<path id="XMLID_4729_" fill="#C99C54" d="M131.8,379.6c-0.1-0.1-0.3-0.1-0.3,0.1c-0.7,5.1,13.4,65.1,18.6,78.2
				c0.5,1.2,2.2,0.8,2.3-0.5C153.9,441.2,139.6,387.3,131.8,379.6z"/>
			<path id="XMLID_4728_" fill="#C99C54" d="M317.3,364.9c-7.4,19.7-10.6,41.3-13,62.1c-2.3,20.1-5.6,43.3-1,63.2
				c0.2,1.1,2,1.1,2.2,0c3.5-19.8,1.7-40.9,3.7-61c2.2-21.6,7-42.6,9.8-64C319.3,364,317.7,364,317.3,364.9z"/>
			<path id="XMLID_4727_" fill="#C99C54" d="M337.9,360.7c-6.1,1.6-6.7,8.9-8.3,14.3c-3.7,13-6.4,26.3-8.6,39.6
				c-4,24.4-7.7,50.5-5.1,75.2c0.2,1.9,2.8,1.9,3,0c2.6-21.1,2.7-42.4,5.6-63.6c1.5-10.5,3.2-20.9,5.3-31.3c1.7-8.3,2.2-26.9,9-32.7
				C339.6,361.7,338.8,360.5,337.9,360.7z"/>
			<path id="XMLID_4723_" fill="#C99C54" d="M354.2,359.3c-9.5,19.2-14.1,41.4-17.9,62.3c-3.4,19.1-8.4,41.7-4.9,61
				c0.2,1.3,2.2,1.2,2.5,0c4.9-19.8,4-41.5,7.8-61.7c3.8-20.5,10.5-40.3,14.8-60.6C356.8,359,354.9,358,354.2,359.3z"/>
			<path id="XMLID_4722_" fill="#C99C54" d="M380,351c-9.7,16.8-14.2,37.8-18.9,56.5c-4.6,18.5-11.1,39.7-9.5,58.8
				c0.1,1,1.4,1.2,1.7,0.2c6.8-18.1,8.1-38.9,12.7-57.7c4.7-19,12.5-37.8,15.8-57C382,350.7,380.6,349.9,380,351z"/>
			<path id="XMLID_4699_" fill="#C99C54" d="M400.3,342.9c-10.1,18.8-17.2,39.4-23.7,59.7c-6.3,19.7-14.3,41.5-15,62.3
				c0,1.2,1.5,1.2,1.9,0.3c7.7-19.6,10.8-41.3,17.2-61.4c6.5-20.3,14.8-39.8,21.8-59.9C403,342.5,401,341.7,400.3,342.9z"/>
		</g>
	</g>
	<path id="XMLID_4634_" fill="#7A4E2E" d="M410.3,316.3c0,20-88.8,36.2-151,36.2c-83.4,0-151-16.2-151-36.2c0-20,67.6-36.2,151-36.2
		C342.7,280,410.3,296.3,410.3,316.3z"/>
	<g id="XMLID_4554_">
		<path id="XMLID_17_" fill="#FCE6E2" d="M307.7,5.1c-2.6-2-5.5-3.6-8.8-4.9c-0.6-0.2-1.1-0.2-1.5-0.1c-1.4-0.3-3,0.4-3.1,2
			c-0.9,1.1-1.2,2.7-0.2,4.2c0.2,0.2,0.3,0.5,0.4,0.7c0.4,5.2,0.8,10.3-0.2,15.6c-0.5,2.5-1.2,4.7-2.2,6.8
			c-19.1,25.7-86.3,48.1-102.1,54c-16.6,6.1-64.8,18.5-61.6,43.6c-0.1,1.1-0.2,2.2-0.1,3.3c-1.6,0.5-3.2,1-4.7,1.5
			c-32.5,3.4-52.7,32.2-48.8,28.7c-5.6,5-11.1,15.3-10.5,25c-0.8,5.1,0.1,10.5,2,15.8c2.2,5.9,6.3,14,11.3,20.6c0.6,1,1.3,2,2,3
			c-10.5,5.1-20,15.6-22.7,26c-1.2,4.5-1,8.7,0.2,12.6c-0.6,12.6,5.3,26.1,14.9,36.2c6,6.4,12.7,10.6,19.6,13.1
			c5.7,3.8,11.9,6.6,18.4,8.4c8.7,2.3,17.7,2.9,26.7,2c10.3-1,19.8-5.8,30-6.3c3.9-0.2,7.7,0.6,11.5,1.8
			c18.8,14.1,64.8,29.1,126.3,23.9c38.1-3.2,81.9-14.2,113.1-37.4c26-19.4,38.4-46.3,29.8-79.5c-7-27.3-26.9-50.7-50.3-63.3
			c0.5-14.2-8.1-30.2-19.8-37.9c-1-0.8-2.1-1.6-3.1-2.4c0-2.3-0.1-4.6-0.3-6.9c-1.2-19.2-5.6-37.4-16.9-53.2
			c-9.1-12.8-20.8-23.2-32.9-33.1c-1.6-4.1-3.5-8.1-5.8-11.7c-2.1-3.5-4.6-6.8-7.5-9.6"/>
		<path id="XMLID_18_" fill="#F7DCD3" d="M307.7,5.1c-2.6-2-5.5-3.6-8.8-4.9c-0.6-0.2-1.1-0.2-1.5-0.1c-1.4-0.3-3,0.4-3.1,2
			c-0.9,1.1-1.2,2.7-0.2,4.2c0.2,0.2,0.3,0.5,0.4,0.7c0.4,5.2,0.8,10.3-0.2,15.6c-0.5,2.5-1.2,4.7-2.2,6.8c-2,2.6-4.4,5.2-7.3,7.8
			c13,5.3,24,14.3,30.1,28c5.2,11.6,5.6,25.2,2.8,37.9c3.8,0.4,7.5,3,8.5,6.8c3.7,13.8,4.1,28.7-2.8,41.6
			c-6,11.3-16.1,19.1-27.6,24.4c-19.1,8.7-42.2,10.1-62.8,5.1c-0.5,0.2-1.1,0.4-1.6,0.5c9.7,7.5,17.3,17.5,18.4,30.4
			c0.4,5.3-0.3,10.4-1.9,15.1c-0.2,11.1-4.1,21.8-11.3,30.5c-9.9,12-26,22-41.8,23.1c-12.7,0.9-24.1-3.7-34.3-10.9
			c-9.6-2.5-18.4-7.5-25.4-15.4c-1.9-1.5-3.8-3.2-5.5-5.1c-11.6,9.7-27.9,13.7-42.9,12.9c-11.1-0.6-21.2-3.7-30.2-8.8
			c-0.6,3.6-0.3,7,0.7,10.2c-0.6,12.6,5.3,26.1,14.9,36.2c6,6.4,12.7,10.6,19.6,13.1c5.7,3.8,11.9,6.6,18.4,8.4
			c8.7,2.3,17.7,2.9,26.7,2c10.3-1,19.8-5.8,30-6.3c3.9-0.2,7.7,0.6,11.5,1.8c18.8,14.1,64.8,29.1,126.3,23.9
			c38.1-3.2,81.9-14.2,113.1-37.4c26-19.4,38.4-46.3,29.8-79.5c-7-27.3-26.9-50.7-50.3-63.3c0.5-14.2-8.1-30.2-19.8-37.9
			c-1-0.8-2.1-1.6-3.1-2.4c0-2.3-0.1-4.6-0.3-6.9c-1.2-19.2-5.6-37.4-16.9-53.2c-9.1-12.8-20.8-23.2-32.9-33.1
			c-1.6-4.1-3.5-8.1-5.8-11.7c-2.1-3.5-4.6-6.8-7.5-9.6"/>
		<path id="XMLID_1_" fill="#F6D4C7" d="M307.7,5.1c-2.6-2-5.5-3.6-8.8-4.9c-0.6-0.2-1.1-0.2-1.5-0.1c-1.4-0.3-3,0.4-3.1,2
			c-0.9,1.1-1.2,2.7-0.2,4.2c0.2,0.2,0.3,0.5,0.4,0.7c0.4,5.2,0.8,10.3-0.2,15.6c-0.5,2.5-1.2,4.7-2.2,6.8c-2,2.6-4.4,5.2-7.3,7.8
			c13,5.3,24,14.3,30.1,28c6.5,14.6,5.5,32.2,0.1,47.3c2.7-0.5,5.4-0.6,8.1-0.5c12.1,0.6,24.7,7.9,30.8,18.6
			c5.5,9.8,6.1,21.3,3.5,32c-2.9,11.9-9.1,23.8-17.7,33.5c10.9,1.7,21.5,5.1,30.8,10.5c16.2,9.4,26.4,25.1,23.5,44.2
			c-3.2,21.2-19.1,41-38.8,49c-18.2,7.4-39.4,4.4-57.5-1.7c-15.8-5.4-30.6-13.1-44.2-22.6c-14.8,13.9-36.6,20.5-56.4,21.5
			c-19.1,1-40.5-3.6-54-17.6c-13.9,9.1-30.8,13.8-47.1,15.7c-8.9,1.1-18.5,1.3-27.9,0c1.2,1.6,2.5,3.1,3.9,4.6
			c6,6.4,12.7,10.6,19.6,13.1c5.7,3.8,11.9,6.6,18.4,8.4c8.7,2.3,17.7,2.9,26.7,2c10.3-1,19.8-5.8,30-6.3c3.9-0.2,7.7,0.6,11.5,1.8
			c18.8,14.1,64.8,29.1,126.3,23.9c38.1-3.2,81.9-14.2,113.1-37.4c26-19.4,38.4-46.3,29.8-79.5c-7-27.3-26.9-50.7-50.3-63.3
			c0.5-14.2-8.1-30.2-19.8-37.9c-1-0.8-2.1-1.6-3.1-2.4c0-2.3-0.1-4.6-0.3-6.9c-1.2-19.2-5.6-37.4-16.9-53.2
			c-9.1-12.8-20.8-23.2-32.9-33.1c-1.6-4.1-3.5-8.1-5.8-11.7c-2.1-3.5-4.6-6.8-7.5-9.6"/>
		<path id="XMLID_4621_" fill="#FBEDEB" d="M301.3,5.6c-0.8-3-6-2.5-5.6,0.8c5.1,40.6-40.6,60.9-71.6,73.6
			c-14.4,5.9-29.2,10.9-43.6,17.1c-11.9,5.1-25.2,10.2-32.2,21.8c-1.2,1.9,0.3,5,2.7,4.8c11.6-1.1,23.1-2.2,34.7-3.3
			c8.5-0.9,20.3,0,28.5-3c6.3-2.3,8.4-7.2,12.9-12.2c6.8-7.6,15-13.7,23.2-19.6c21.9-15.7,49.2-34.5,52.1-62.4
			C303.2,17.4,302.9,11.6,301.3,5.6z"/>
		<path id="XMLID_4620_" fill="#FDF2F1" d="M249.2,71c-9.1,5.4-19.1,9.7-27.6,13.1c-11.2,4.6-22.7,8.5-33.9,13.2
			c-9.3,4-19.6,7.9-25,16.9c-0.9,1.5,0.2,3.9,2.1,3.7c9-0.9,18-1.7,26.9-2.6c6.6-0.7,15.8,0,22.1-2.3c4.9-1.8,6.5-5.6,10-9.5
			c5.3-5.9,11.6-10.7,18-15.3c14.9-10.7,33-23.2,38.8-40.7C272.3,57.4,261.2,65,249.2,71z"/>
		<path id="XMLID_20_" fill="#F7E1D7" d="M295.8,42.9c0,0,5-7.6,6.5-19.8c0.8-5.5,0.6-11.3-1.1-17.3c-0.8-3-6.1-2.5-5.6,0.8
			c2.5,19.1-7.8,32-7.8,32"/>
		<path id="XMLID_4580_" fill="#F5D5BC" d="M395.1,172.5c1.6-7.3,0.9-15.1-2.1-22.1c-4.5-10.7-17.9-24.9-30.4-26.4
			c7.4-16,4.7-35.9-2.4-51.6c-5.8-12.9-22.6-41.3-39.2-40c-0.1,0-0.2,0.1-0.4,0.1c-2.4-12.5-9-24-20.7-30.4c-0.3-0.7-1-1.1-1.8-1
			c-2.3-0.9-4.1,2.3-1.9,3.6c20.5,11.9,22.6,32.8,19.7,54.3c-0.3,2,2.9,2.3,3.5,0.5c2-7.4,2.6-15.4,1.7-23.1
			c15.6,3.9,29.2,27.2,34.4,40.7c6.9,17.8,5,34.3-0.5,52.1c-0.7,2.3,2.4,3.3,3.7,1.6c0.5-0.7,0.9-1.5,1.4-2.2c0,0,0,0,0,0
			c24.9,9.3,35.9,33.2,23.5,56.8c-1,1.9,1.4,4,3.1,2.4c3.5-3.5,6-7.7,7.5-12.2c31.7,3.9,44.8,39.5,41.5,67.6
			c-3.1,26.1-17.4,49.5-38.8,64.4c-1.8,1.2-0.2,4.1,1.7,2.9c27-16.3,44.4-45.1,44.4-76.8C443.1,203.7,426.7,174.5,395.1,172.5z"/>
	</g>
</g>
<g>
	<g>
		<path fill="#EE788C" d="M309.5,237.9c-10.9-6.1-22-14.4-30.6-25.3c-11.1-14-23.6-19.1-34.5-20.3c-8.1-25.8-13.6-54.1-5.7-69.8
			c11.3-22.2,38.5-31.1,60.7-19.8c3.2,1.6,6.1,3.6,8.7,5.8c8.3,7,13.6,16.7,15.3,27c12.4-6.2,27.4-6.7,40.7,0.1
			c22.2,11.3,31.1,38.5,19.8,60.7C374.1,215.7,338.8,229.5,309.5,237.9z"/>
	</g>
	<path fill="#DD264C" d="M384,196.3c11.3-22.2,2.4-49.4-19.8-60.7c-1.4-0.7-2.8-1.3-4.2-1.9c-0.4,16.7-6.3,33.5-17.9,47.2
		c-17.4,20.5-43.2,29.5-68,26.2c1.6,1.7,3.2,3.4,4.8,5.4c8.7,10.9,19.7,19.1,30.6,25.3C338.8,229.5,374.1,215.7,384,196.3z"/>
	
		<ellipse transform="matrix(0.646 -0.7633 0.7633 0.646 -5.1596 254.7849)" fill="#EEAAB7" cx="272.1" cy="133" rx="24.1" ry="24.1"/>
</g>
</svg>
