<?xml version="1.0" encoding="utf-8"?>
<!-- Generator: Adobe Illustrator 21.1.0, SVG Export Plug-In . SVG Version: 6.00 Build 0)  -->
<svg version="1.1" baseProfile="tiny" id="Слой_1"
	 xmlns="http://www.w3.org/2000/svg" xmlns:xlink="http://www.w3.org/1999/xlink" x="0px" y="0px" viewBox="0 0 512 512"
	 overflow="scroll" xml:space="preserve">
<g>
	<path fill="#57D4D4" d="M151.7,462.2V180.6c0-14.1,11.5-25.6,25.6-25.6c14.1,0,25.6,11.5,25.6,25.6v281.6H151.7z"/>
	<g>
		<path fill="#4DBFBF" d="M458.9,359.8V78.2c0-14.1-11.5-25.6-25.6-25.6c-14.1,0-25.6,11.5-25.6,25.6v281.6H458.9z"/>
		<path fill="#4DBFBF" d="M382.1,411c-42.3,0-76.8-23-76.8-51.2c0-28.2,34.5-51.2,76.8-51.2s76.8,23,76.8,51.2
			C458.9,388,424.4,411,382.1,411z"/>
	</g>
	<g>
		<path fill="#57D4D4" d="M126.1,513.4c-42.3,0-76.8-23-76.8-51.2c0-28.2,34.5-51.2,76.8-51.2s76.8,23,76.8,51.2
			C202.9,490.4,168.4,513.4,126.1,513.4z"/>
		<path fill="#57D4D4" d="M447.6,5.8c-7-4.8-16-5.8-23.9-2.6L305.3,50.6l-137.5,55c-9.7,3.9-16.1,13.3-16.1,23.8v89L305.3,157
			l153.6-61.4V27C458.9,18.5,454.6,10.6,447.6,5.8z"/>
	</g>
	<path fill="#4DBFBF" d="M458.9,27v68.5L305.3,157V50.6L423.8,3.2c7.9-3.2,16.8-2.2,23.9,2.6C454.6,10.6,458.9,18.5,458.9,27z"/>
</g>
</svg>
