<?xml version="1.0" encoding="utf-8"?>
<!-- Generator: Adobe Illustrator 21.1.0, SVG Export Plug-In . SVG Version: 6.00 Build 0)  -->
<svg version="1.1" baseProfile="tiny" id="Слой_1"
	 xmlns="http://www.w3.org/2000/svg" xmlns:xlink="http://www.w3.org/1999/xlink" x="0px" y="0px" viewBox="0 0 512 512"
	 overflow="scroll" xml:space="preserve">
<g>
	<path fill="#161616" d="M41.7,472.2c45.6,25.6,122,39,210.9,40.1v0.1c2.7,0,5.2,0,7.9-0.1c2.6,0,5.2,0.1,7.9,0.1v-0.1
		c88.9-1.1,159.8-13.7,205-40.1c104.5-61-55.3-101.7-55.3-101.7l-1.6-0.1c-0.5-15.8-0.8-39.7-0.8-57.8c0-56.5,11.3-191.6,23.3-234.4
		c12-42.8,5.1-51.4-29.1-65.1C375.5-0.7,252.9,4.5,252.9,4.5c0,0-122.6-5.1-156.9,8.6C61.7,26.7,54.9,35.3,66.9,78.1
		C78.9,121,90.1,256,90.1,312.6c0,18.1-0.4,42.1-0.8,57.9C67.2,373.7-61.8,414.1,41.7,472.2z"/>
	<path fill="#272628" d="M41.7,469.1c47.3,22.3,121.7,37.1,210.6,38.2v0.1c2.7,0,5.2,0,7.9-0.1c2.6,0,5.2,0.1,7.9,0.1v-0.1
		c88.9-1.1,158.3-15.4,205.4-38.2c105-50.7-55.3-101.7-55.3-101.7l-1.6-0.1c-0.5-15.8-0.8-39.7-0.8-57.8
		c0-56.5,11.3-191.6,23.3-234.4c12-42.8,5.1-51.4-29.1-65.1C375.5-3.8,252.9,1.4,252.9,1.4c0,0-122.6-5.1-156.9,8.6
		C61.7,23.7,54.9,32.2,66.9,75c12,42.8,23.3,177.9,23.3,234.4c0,18.1-0.1,42.2-0.6,58C67.4,370.7-61.4,420.5,41.7,469.1z"/>
	<path fill="#373639" d="M416.1,346.7c-1.5-115.4,11.3-228.7,23.3-271.5c12-42.8,5.1-51.4-29.1-65.1C376-3.6,253.4,1.5,253.4,1.5
		c0,0-122.6-5.1-156.9,8.6C62.2,23.8,55.4,32.4,67.4,75.2c12,42.8,26,221.8,22.7,280.6L416.1,346.7z"/>
	<path fill="#636263" d="M90.1,317.7l-0.5,77.9c0,0,40.7,33.1,160.9,33.1c120.1,0,166.1-33.7,166.1-33.7l-0.8-77.1
		c0,0-42.9,25.9-167.9,25.9C122.9,343.8,90.1,317.7,90.1,317.7z"/>
	<path fill="#161616" d="M89.6,395.6l0,0.2c0,0,41.2,36.5,161.3,36.5c120.1,0,165.6-37.2,165.6-37.2l0-0.1c0,0-40.9,31.9-165.9,31.9
		C125.7,426.9,89.6,395.6,89.6,395.6z"/>
</g>
</svg>
