<?xml version="1.0" encoding="utf-8"?>
<!-- Generator: Adobe Illustrator 21.1.0, SVG Export Plug-In . SVG Version: 6.00 Build 0)  -->
<svg version="1.1" baseProfile="tiny" id="Слой_1"
	 xmlns="http://www.w3.org/2000/svg" xmlns:xlink="http://www.w3.org/1999/xlink" x="0px" y="0px" viewBox="0 0 512 512"
	 overflow="scroll" xml:space="preserve">
<g>
	<path fill="#6F9E35" d="M512.3,423.9l-26.6-26.6c-1.2,1.3-2.5,2.6-3.7,3.8c-102.6,102.6-269,102.6-371.6,0s-102.6-269,0-371.6
		c1.3-1.3,2.6-2.5,3.8-3.7L88.6,0.1c-0.2,0.2-0.3,0.3-0.5,0.5c-117,117-117,306.7,0,423.8s306.7,117,423.8,0
		C512,424.2,512.2,424,512.3,423.9z"/>
	<path fill="#FAFAF9" d="M110.4,401.1c102.6,102.6,269,102.6,371.6,0c1.3-1.3,2.5-2.6,3.7-3.8L114.2,25.8c-1.3,1.2-2.6,2.5-3.8,3.7
		C7.7,132.1,7.7,298.5,110.4,401.1z"/>
	<path fill="#FB4756" d="M133.2,44.7c-1.3,1.2-2.6,2.5-3.8,3.7c-89.5,89.5-89.5,234.7,0,324.2s234.7,89.5,324.2,0
		c1.3-1.3,2.5-2.6,3.7-3.8L133.2,44.7z"/>
	<g>
		<g>
			<path fill="#FC9AA8" d="M153.7,143.6c-7.1,7.1-16.7,8.3-21.3,3.7s-2.6-14,4.5-21.1c7.1-7.1,16.5-9.1,21.1-4.5
				S160.7,136.5,153.7,143.6z"/>
			<path d="M152.1,138.9c-5.8,5.8-13.5,6.9-17.1,3.3c-3.6-3.6-1.8-11.2,3.9-16.9c5.8-5.8,13.4-7.5,16.9-3.9
				C159.5,124.9,157.9,133.1,152.1,138.9z"/>
			<path fill="#EFEDED" d="M152.7,130.4c-1.7,0.2-1.4-1.2-3-2.8c-1.6-1.6-2.9-1.3-2.8-3c0.2-2.5,4.6-2,6.2-0.4
				S155.2,130.1,152.7,130.4z"/>
		</g>
		<g>
			<path fill="#FC9AA8" d="M125.5,219.1c-6.2,7.8-15.6,10.1-20.7,6.1s-4.1-13.6,2.1-21.5c6.2-7.8,15.4-10.9,20.4-6.9
				C132.4,200.8,131.8,211.2,125.5,219.1z"/>
			<path d="M123.5,214.6c-5.1,6.4-12.6,8.4-16.6,5.2c-4-3.2-3.1-10.9,2-17.3c5.1-6.4,12.4-9,16.4-5.9
				C129.2,199.8,128.6,208.2,123.5,214.6z"/>
			<path fill="#EFEDED" d="M123.1,206.1c-1.7,0.4-1.6-1-3.3-2.4c-1.8-1.4-3.1-1-3.1-2.7c0-2.5,4.3-2.5,6.1-1.1
				C124.5,201.3,125.5,205.5,123.1,206.1z"/>
		</g>
		<g>
			<path fill="#FC9AA8" d="M226.7,216.6c-7.1,7.1-16.7,8.3-21.3,3.7s-2.6-14,4.5-21.1c7.1-7.1,16.5-9.1,21.1-4.5
				S233.7,209.5,226.7,216.6z"/>
			<path d="M225.1,211.9c-5.8,5.8-13.5,6.9-17.1,3.3c-3.6-3.6-1.8-11.2,3.9-16.9c5.8-5.8,13.4-7.5,16.9-3.9
				C232.5,197.9,230.9,206.1,225.1,211.9z"/>
			<path fill="#EFEDED" d="M225.7,203.4c-1.7,0.2-1.4-1.2-3-2.8c-1.6-1.6-2.9-1.3-2.8-3c0.2-2.5,4.6-2,6.2-0.4
				C227.7,198.8,228.2,203.1,225.7,203.4z"/>
		</g>
		<g>
			<path fill="#FC9AA8" d="M230.3,298.3c-7.1,7.1-16.7,8.3-21.3,3.7s-2.6-14,4.5-21.1c7.1-7.1,16.5-9.1,21.1-4.5
				S237.4,291.2,230.3,298.3z"/>
			<path d="M228.8,293.6c-5.8,5.8-13.5,6.9-17.1,3.3c-3.6-3.6-1.8-11.2,3.9-16.9c5.8-5.8,13.4-7.5,16.9-3.9
				C236.2,279.6,234.5,287.8,228.8,293.6z"/>
			<path fill="#EFEDED" d="M229.3,285.1c-1.7,0.2-1.4-1.2-3-2.8c-1.6-1.6-2.9-1.3-2.8-3c0.2-2.5,4.6-2,6.2-0.4
				C231.3,280.5,231.8,284.8,229.3,285.1z"/>
		</g>
		<g>
			<path fill="#FC9AA8" d="M316.7,306.7c-7.1,7.1-16.7,8.3-21.3,3.7c-4.6-4.6-2.6-14,4.5-21.1s16.5-9.1,21.1-4.5
				S323.8,299.6,316.7,306.7z"/>
			<path d="M315.2,302c-5.8,5.8-13.5,6.9-17.1,3.3c-3.6-3.6-1.8-11.2,3.9-16.9s13.4-7.5,16.9-3.9S321,296.2,315.2,302z"/>
			<path fill="#EFEDED" d="M315.7,293.4c-1.7,0.2-1.4-1.2-3-2.8s-2.9-1.3-2.8-3c0.2-2.5,4.6-2,6.2-0.4
				C317.7,288.9,318.2,293.2,315.7,293.4z"/>
		</g>
		<g>
			<path fill="#FC9AA8" d="M295.9,391.7c-7.9,6.1-17.6,6-21.6,0.9c-3.9-5.1-0.7-14.2,7.2-20.3c7.9-6.1,17.6-6.9,21.5-1.7
				C307,375.7,303.8,385.6,295.9,391.7z"/>
			<path d="M295,386.9c-6.5,5-14.3,5.1-17.4,1c-3.1-4-0.4-11.3,6.1-16.3c6.5-5,14.2-5.7,17.3-1.7S301.5,381.9,295,386.9z"/>
			<path fill="#EFEDED" d="M296.7,378.5c-1.7-0.1-1.3-1.3-2.7-3.1s-2.7-1.7-2.3-3.4c0.6-2.4,4.8-1.4,6.2,0.4
				S299.1,378.6,296.7,378.5z"/>
		</g>
		<g>
			<path fill="#FC9AA8" d="M385,374.9c-7.1,7.1-16.7,8.3-21.3,3.7s-2.6-14,4.5-21.1s16.5-9.1,21.1-4.5S392,367.8,385,374.9z"/>
			<path d="M383.5,370.2c-5.8,5.8-13.5,6.9-17.1,3.3s-1.8-11.2,3.9-16.9c5.8-5.8,13.4-7.5,16.9-3.9
				C390.9,356.2,389.2,364.5,383.5,370.2z"/>
			<path fill="#EFEDED" d="M384,361.7c-1.7,0.2-1.4-1.2-3-2.8s-2.9-1.3-2.8-3c0.2-2.5,4.6-2,6.2-0.4
				C386,357.1,386.5,361.5,384,361.7z"/>
		</g>
		<g>
			<path fill="#FC9AA8" d="M138,316.6c-7.1,7.1-16.7,8.3-21.3,3.7c-4.6-4.6-2.6-14,4.5-21.1s16.5-9.1,21.1-4.5
				S145.1,309.5,138,316.6z"/>
			<path d="M136.5,311.9c-5.8,5.8-13.5,6.9-17.1,3.3c-3.6-3.6-1.8-11.2,3.9-16.9c5.8-5.8,13.4-7.5,16.9-3.9
				C143.9,297.9,142.3,306.2,136.5,311.9z"/>
			<path fill="#EFEDED" d="M137,303.4c-1.7,0.2-1.4-1.2-3-2.8c-1.6-1.6-2.9-1.3-2.8-3c0.2-2.5,4.6-2,6.2-0.4S139.5,303.1,137,303.4z
				"/>
		</g>
		<g>
			<path fill="#FC9AA8" d="M198.7,377.3c-7.1,7.1-16.7,8.3-21.3,3.7c-4.6-4.6-2.6-14,4.5-21.1c7.1-7.1,16.5-9.1,21.1-4.5
				C207.6,360,205.8,370.2,198.7,377.3z"/>
			<path d="M197.2,372.6c-5.8,5.8-13.5,6.9-17.1,3.3c-3.6-3.6-1.8-11.2,3.9-16.9c5.8-5.8,13.4-7.5,16.9-3.9
				C204.6,358.6,202.9,366.8,197.2,372.6z"/>
			<path fill="#EFEDED" d="M197.7,364.1c-1.7,0.2-1.4-1.2-3-2.8s-2.9-1.3-2.8-3c0.2-2.5,4.6-2,6.2-0.4
				C199.7,359.5,200.2,363.8,197.7,364.1z"/>
		</g>
	</g>
	<path fill="#FF99A2" d="M431.7,377.4c1.9-7.6-7-11.8-13.3-7.6C367.3,404,320,428.6,227,409.7c-0.1,0-0.1,0-0.2,0
		c-2.6-0.5-3.6,3.2-1.1,4.1C341.3,453.9,429.4,386.8,431.7,377.4z"/>
	<path fill="#FFB0BC" d="M436.5,368.9L129.3,61.7c-1.6-1.6-1.6-4.1,0-5.7l1.9-1.9c1.6-1.6,4.1-1.6,5.7,0l307.2,307.2
		c1.6,1.6,1.6,4.1,0,5.7l-1.9,1.9C440.6,370.5,438,370.5,436.5,368.9z"/>
	<path fill="#587E29" d="M88.1,424.4c117,117,306.7,117,423.8,0c0.2-0.2,0.3-0.3,0.5-0.5l-16.1-16.1
		c-14.7,14.5-199.4,188.9-408.5,16.2C87.8,424.1,87.9,424.2,88.1,424.4z"/>
</g>
</svg>
