<?xml version="1.0" encoding="utf-8"?>
<!-- Generator: Adobe Illustrator 21.1.0, SVG Export Plug-In . SVG Version: 6.00 Build 0)  -->
<svg version="1.1" baseProfile="tiny" id="Слой_1"
	 xmlns="http://www.w3.org/2000/svg" xmlns:xlink="http://www.w3.org/1999/xlink" x="0px" y="0px" viewBox="0 0 512 512"
	 overflow="scroll" xml:space="preserve">
<g>
	<g>
		<path fill="#F56050" d="M54.5,375.6h-2.9c-28.3,0-51.2-22.9-51.2-51.2V79.4c0-28.3,22.9-51.2,51.2-51.2h409.7
			c28.3,0,51.2,22.9,51.2,51.2v245.1c0,28.3-22.9,51.2-51.2,51.2h-2.9H54.5z"/>
		<polygon fill="#F56050" points="371.7,367.2 256.4,488.5 141.1,367.2 		"/>
	</g>
	<path fill="#FFFBFF" d="M262.1,316.1c-133-61.6-121.9-135.7-104.9-168.2c8.7-16.7,24.6-29.1,43.1-32.9c41-8.6,61.8,26.9,61.8,26.9
		s20.8-35.4,61.8-26.9c18.5,3.9,34.3,16.2,43.1,32.9C384,180.4,395.1,254.5,262.1,316.1z"/>
</g>
</svg>
