<?xml version="1.0" encoding="utf-8"?>
<!-- Generator: Adobe Illustrator 21.1.0, SVG Export Plug-In . SVG Version: 6.00 Build 0)  -->
<svg version="1.1" baseProfile="tiny" id="Слой_1"
	 xmlns="http://www.w3.org/2000/svg" xmlns:xlink="http://www.w3.org/1999/xlink" x="0px" y="0px" viewBox="0 0 512 512"
	 overflow="scroll" xml:space="preserve">
<g id="XMLID_93_">
	<g>
		<ellipse id="XMLID_46_" fill="#FECE00" cx="258" cy="257.4" rx="228.6" ry="223.6"/>
		<path id="XMLID_45_" fill="#403408" d="M487.1,257.4c0,29.7-5.7,59.3-16.9,87c-1.4,3.4-3,6.8-4.4,10.3c-1.6,3.4-3.3,6.7-4.9,10
			l-5.4,9.8l-5.9,9.5c-8.2,12.5-17.6,24.3-28.2,35c-10.6,10.7-22.2,20.5-34.8,28.8l-4.8,3.1c-1.6,1-3.2,2.1-4.8,3l-4.9,2.9l-2.5,1.4
			c-0.8,0.5-1.7,0.9-2.5,1.3c-6.7,3.5-13.5,6.8-20.5,9.6c-28,11.4-58.4,17.1-88.6,16.7c-15.1-0.2-30.2-1.9-44.9-5
			c-14.7-3.1-29.2-7.7-43-13.6c-13.8-5.9-27.1-13-39.5-21.4c-12.4-8.3-24.1-17.8-34.7-28.2c-21.4-20.9-38.7-45.8-50.7-73.2
			c-1.4-3.5-2.9-6.9-4.2-10.4c-1.2-3.5-2.6-7-3.7-10.6c-1.1-3.6-2.2-7.1-3.2-10.7c-0.9-3.6-1.9-7.2-2.7-10.9
			c-3.2-14.6-5-29.6-5.3-44.6c-0.5-30,5-60.3,16.6-88.3c11.5-28,29-53.5,50.6-74.7c10.8-10.6,22.7-20.2,35.4-28.5
			c12.7-8.3,26.2-15.4,40.3-21.2c14.1-5.8,28.7-10.1,43.7-12.9c14.9-2.9,30.1-4.4,45.3-4.3c15.2,0.1,30.4,1.6,45.3,4.6
			c14.9,2.9,29.5,7.3,43.5,13.2c7,2.9,13.9,6.2,20.5,9.7c0.8,0.4,1.7,0.9,2.5,1.3l2.4,1.4l4.9,2.9c1.6,0.9,3.2,2,4.8,3l4.7,3.1
			c12.6,8.4,24.1,18.2,34.7,29c10.5,10.8,20,22.5,28.2,35.1l5.9,9.6l5.4,9.8c1.6,3.4,3.3,6.7,4.9,10.1c1.5,3.4,3,6.8,4.4,10.3
			C481.5,198,487.2,227.7,487.1,257.4z M485.9,257.4c0-29.5-6.4-59-18.6-85.8c-12.1-26.8-30-50.7-51.4-70.4
			c-10.7-9.8-22.4-18.5-34.7-26.2l-4.7-2.8c-1.5-0.9-3.1-1.9-4.7-2.7l-4.8-2.6l-2.4-1.3c-0.8-0.4-1.6-0.8-2.4-1.2
			c-6.5-3.2-13.1-6.2-19.8-8.8c-13.5-5.2-27.4-9.2-41.5-11.8c-14.2-2.6-28.6-3.9-43-3.8c-14.4,0.1-28.8,1.4-42.9,4.1
			c-14.1,2.7-28,6.8-41.4,12c-26.8,10.6-51.5,26.3-72.5,46.2c-20.9,19.9-37.9,43.9-49.7,70.4c-5.9,13.2-10.5,27.1-13.6,41.2
			c-3.2,14.2-4.9,28.7-5.2,43.3c-0.5,29.2,4.9,58.6,16.3,85.6c5.6,13.5,12.8,26.5,21.1,38.6c8.3,12.1,18,23.3,28.6,33.4
			c10.6,10.1,22.3,19.1,34.7,26.9c12.4,7.7,25.6,14.3,39.3,19.4c27.3,10.3,56.5,15.1,85.4,14.8c58-0.6,115.2-22.9,158.1-62.4
			c21.4-19.7,39.3-43.6,51.4-70.4C479.6,316.4,486,286.9,485.9,257.4z"/>
	</g>
	<path fill="#EAB51F" d="M354,454.6c-27.4,14.6-70.2,22.8-109.5,21.3c-76.7-3-158.8-45.1-194.1-129.1
		C6.7,242.7,54.6,166.7,61.6,153.1c0,0-18.9,123.1,81.9,223.1C259.1,490.9,354,454.6,354,454.6z"/>
	<g id="XMLID_44_">
		<path fill="#403408" d="M137,240.5c-1.8,0-3.6-1-4.6-2.7c-1.4-2.5-0.5-5.7,2-7.1l46.2-25.6L134,179.2c-2.5-1.4-3.4-4.6-2-7.1
			c1.4-2.5,4.6-3.4,7.1-2l54.9,30.5c1.7,0.9,2.7,2.7,2.7,4.6c0,1.9-1,3.6-2.7,4.6l-54.4,30.2C138.7,240.3,137.9,240.5,137,240.5z"/>
		<path fill="#403408" d="M380.4,240.4c-0.9,0-1.7-0.2-2.5-0.7l-53.6-30.5c-1.6-0.9-2.6-2.6-2.6-4.5c0-1.9,1-3.6,2.6-4.5l53.2-30.2
			c2.5-1.4,5.6-0.5,7,1.9c1.4,2.5,0.5,5.6-1.9,7l-45.3,25.7l45.7,26c2.5,1.4,3.3,4.5,1.9,7C383.9,239.5,382.2,240.4,380.4,240.4z"/>
	</g>
	<path fill="#403408" d="M176.6,350.7c-0.4,0-0.8-0.1-1.2-0.2c-2.2-0.6-3.5-3-2.8-5.2c0.2-0.6,4.7-15.8,17.6-31.2
		c11.9-14.2,33.5-31.1,68.7-31.1c35.2,0,56.6,16.8,68.4,30.9c12.7,15.2,17,30.3,17.2,31c0.6,2.2-0.7,4.5-2.9,5.2
		c-2.2,0.6-4.5-0.7-5.2-2.9c0-0.1-4.2-14.3-15.8-28.1c-15.4-18.4-36.2-27.7-61.7-27.7c-61.1,0-78.1,55.7-78.3,56.3
		C180,349.5,178.4,350.7,176.6,350.7z"/>
</g>
</svg>
