<?xml version="1.0" encoding="utf-8"?>
<!-- Generator: Adobe Illustrator 21.1.0, SVG Export Plug-In . SVG Version: 6.00 Build 0)  -->
<svg version="1.1" baseProfile="tiny" id="Слой_1"
	 xmlns="http://www.w3.org/2000/svg" xmlns:xlink="http://www.w3.org/1999/xlink" x="0px" y="0px" viewBox="0 0 512 512"
	 overflow="scroll" xml:space="preserve">
<g>
	<g>
		<path fill="#E38D72" d="M256.1,314.1c0,0,66.3,0,91.2,0s48-8.3,53-43c5-34.7-31.7-78.9-79.4-50.8
			C273.2,248.5,256.1,314.1,256.1,314.1z"/>
		<path fill="#E38D72" d="M256.1,314.1c0,0-66.3,0-91.2,0s-48-8.3-53-43c-5-34.7,31.7-78.9,79.4-50.8
			C239,248.5,256.1,314.1,256.1,314.1z"/>
		<path fill="#85594B" d="M180.1,289.3c17.7,5.7,24.5,24.8,24.5,24.8h-24.5h-21C151,303.6,161.9,283.5,180.1,289.3z"/>
		<path fill="#E4A690" d="M332,208.2c0,91.8-34,110.6-75.9,110.6s-75.9-18.8-75.9-110.6c0-91.8,34-173.9,75.9-173.9
			S332,116.4,332,208.2z"/>
		<path fill="#85594B" d="M332,289.3c-17.7,5.7-24.5,24.8-24.5,24.8H332h21C361.1,303.6,350.2,283.5,332,289.3z"/>
	</g>
	<path fill="#E57332" d="M256.2,373.7c0-51.4-38.7-56.9-69.8-41c-40.4,20.6-102,84.7-133.6,82.4c-21.2-1.5-25.3-18.1-19.5-26.3
		c-12.4,4.5-15.9,18.8-5.3,26.6c-11.5,0.9-20.5-5-23.9-25.7c-10.4,27.6,1.1,46.4,23.4,49.9c-6.9,3.3-21.2,3-21.2,3
		C18.6,455.9,34,459.1,58.8,454c-8.4,6.1-15.4,9.2-29.9,10.8c16.3,6.9,36.1,8.3,61-0.2c-6.3,5.7-12.7,7.9-21,12.3
		C165.4,475.3,256.2,425.1,256.2,373.7z"/>
	<path fill="#E57332" d="M256.2,373.7c0-51.4,38.7-56.9,69.8-41c40.4,20.6,102,84.7,133.6,82.4c21.2-1.5,25.3-18.1,19.5-26.3
		c12.4,4.5,15.9,18.8,5.3,26.6c11.5,0.9,20.5-5,23.9-25.7c10.4,27.6-1.1,46.4-23.4,49.9c6.9,3.3,21.2,3,21.2,3
		c-12.4,13.3-27.8,16.5-52.5,11.3c8.4,6.1,15.4,9.2,29.9,10.8c-16.3,6.9-36.1,8.3-61-0.2c6.3,5.7,12.7,7.9,21,12.3
		C347.1,475.3,256.2,425.1,256.2,373.7z"/>
</g>
</svg>
