<?xml version="1.0" encoding="utf-8"?>
<!-- Generator: Adobe Illustrator 21.1.0, SVG Export Plug-In . SVG Version: 6.00 Build 0)  -->
<svg version="1.1" baseProfile="tiny" id="Слой_1"
	 xmlns="http://www.w3.org/2000/svg" xmlns:xlink="http://www.w3.org/1999/xlink" x="0px" y="0px" viewBox="0 0 512 512"
	 overflow="scroll" xml:space="preserve">
<g>
	<g>
		<path fill="#E17D6A" d="M373.8,345.3c6.9-0.1,12.4-2.5,12.4-5.3c0-2.9-5.6-5.1-12.5-5c-1.5,0-3,0.2-4.4,0.5c0.9-1,1.8-2.2,2.6-3.5
			c3.4-6,4.1-12,1.6-13.4c-2.5-1.4-7.2,2.3-10.6,8.3c-0.8,1.3-1.3,2.7-1.7,4c-0.4-1.3-1-2.7-1.8-4c-3.5-5.9-8.4-9.5-10.8-8.1
			c-2.5,1.5-1.6,7.4,1.9,13.4c0.8,1.3,1.7,2.5,2.6,3.5c-1.4-0.3-2.8-0.5-4.4-0.4c-6.9,0.1-12.4,2.5-12.4,5.3c0,2.9,5.6,5.1,12.5,5
			c1.5,0,3-0.2,4.4-0.5c-0.9,1-1.8,2.2-2.6,3.5c-3.4,6-4.1,12-1.6,13.4c2.5,1.4,7.2-2.3,10.6-8.3c0.8-1.3,1.3-2.7,1.7-4
			c0.4,1.3,1,2.7,1.8,4c3.5,5.9,8.4,9.5,10.8,8.1c2.5-1.5,1.6-7.4-1.9-13.4c-0.8-1.3-1.7-2.5-2.6-3.5
			C370.8,345.1,372.3,345.3,373.8,345.3z"/>
		<path fill="#80C683" d="M364.4,439c2.6,1.9,14.8-2.7,23-13.6c8.2-10.9,11.2-22.5,6.6-25.8c-4.5-3.4-14.8,2.7-23,13.6
			C362.9,424.1,362.2,437.4,364.4,439z"/>
		<path fill="#80C683" d="M361.8,436.7c-3,1.2-5.5,14-0.6,26.7c4.9,12.7,13.2,21.3,18.5,19.3c5.3-2,5.5-14,0.6-26.7
			C375.3,443.3,364.4,435.7,361.8,436.7z"/>
		<path fill="#80C683" d="M409.6,440.8c2.5,1.5,13.2-3.7,19.7-14.2c6.5-10.6,8.2-21.3,3.8-24c-4.4-2.7-13.2,3.7-19.7,14.2
			C406.9,427.3,407.4,439.4,409.6,440.8z"/>
		<path fill="#80C683" d="M409,441.3c-2.5,1.6-2.5,13.5,4.2,23.9c6.6,10.5,15.5,16.7,19.9,13.9c4.3-2.7,2.5-13.5-4.2-23.9
			C422.2,444.8,411.1,440,409,441.3z"/>
		<path fill="#80C683" d="M455.4,433.5c2.3,0.9,10.3-4.8,14.1-14.2c3.9-9.4,3.8-18.4-0.1-20c-3.9-1.6-10.2,4.8-14.1,14.2
			C451.4,422.9,453.5,432.7,455.4,433.5z"/>
		<path fill="#80C683" d="M475,427.7c1.1,2.5,11.8,4.2,22.3-0.3c10.4-4.5,17.4-11.7,15.5-16c-1.9-4.3-11.8-4.2-22.3,0.3
			C480.1,416.2,474.1,425.6,475,427.7z"/>
		<path fill="#80C683" d="M456.2,434.5c-1.5,1.9,1.6,11.2,9.5,17.6c7.9,6.5,16.5,9,19.2,5.7c2.7-3.3-1.6-11.2-9.5-17.6
			C467.5,433.8,457.5,432.9,456.2,434.5z"/>
		<path fill="#63977E" d="M340.5,426.2c1.4,0.5,2.8,1,4.3,1.4c2.2,0.7,4.5,1.3,6.8,2.1c2.4,0.6,4.8,1.3,7.4,1.9
			c5.1,1.2,10.4,2.3,16.1,3.3c5.6,1,11.4,1.7,17.4,2.4c3,0.3,6,0.4,9,0.6c3,0,6.1,0.2,9.1,0.1c3-0.1,6.1-0.1,9.1-0.4
			c1.5-0.1,3-0.2,4.5-0.3c1.5-0.2,3-0.3,4.5-0.5c6-0.6,11.8-1.5,17.5-2.6c5.6-1.1,11-2.4,16.1-3.7c5.1-1.3,9.9-2.8,14.2-4.3
			c8.7-2.9,15.8-5.9,20.7-8.2c4.9-2.2,7.6-3.7,7.6-3.7l0.3,0.5c0,0-10.5,6.6-27.9,13.4c-4.3,1.7-9.1,3.4-14.2,5
			c-5.1,1.6-10.5,3.1-16.2,4.4c-5.7,1.3-11.6,2.5-17.7,3.3c-1.5,0.2-3,0.4-4.6,0.6c-1.5,0.2-3.1,0.3-4.6,0.5
			c-3.1,0.4-6.2,0.5-9.3,0.7c-3.1,0.2-6.2,0.2-9.4,0.3c-3.1-0.1-6.2,0-9.3-0.2c-6.2-0.3-12.2-0.9-18-1.8c-5.8-1-11.4-2.3-16.5-3.8
			c-2.6-0.8-5.1-1.6-7.5-2.4c-2.4-0.9-4.6-1.8-6.8-2.7c-1.4-0.5-2.8-1.2-4.1-1.8L340.5,426.2z"/>
		<g>
			<path fill="#63977E" d="M466.4,408.1c0,0-0.7,13.4-10.5,25.5l-0.8-0.8C455.1,432.8,464.7,419.7,466.4,408.1z"/>
			<path fill="#63977E" d="M475.5,454.3c0,0-5.2-12.4-18.4-20.5l-0.5,1C456.5,434.9,470,444,475.5,454.3z"/>
		</g>
		<g>
			<path fill="#63977E" d="M428.9,408c0,0-3.1,17.7-18,32.1l-1-1.2C409.9,439,424.8,423,428.9,408z"/>
			<path fill="#63977E" d="M428.3,473.6c0,0-2.9-17.7-17.6-32.3l-1,1.2C409.7,442.4,424.4,458.5,428.3,473.6z"/>
		</g>
		<g>
			<path fill="#63977E" d="M390.1,405.1c0,0-6,18.7-24.3,32.2l-0.9-1.4C365,435.9,383.5,420.9,390.1,405.1z"/>
			<path fill="#63977E" d="M376.2,476.2c0,0,0.7-20.2-12.4-39.5l-1.3,1.1C362.5,437.8,375.2,458.7,376.2,476.2z"/>
		</g>
		<path fill="#80C683" d="M371.4,374.6c2.4,0,7.6-8,7.7-18c0.1-10-3.1-18.2-7.3-18.2c-4.2,0-7.6,8-7.7,18
			C364,366.4,369.4,374.6,371.4,374.6z"/>
		<path fill="#80C683" d="M386.4,364.7c1.9,1.9,12.3-0.5,20.2-8.3c7.9-7.9,11.6-16.9,8.4-20.2c-3.3-3.3-12.3,0.5-20.2,8.3
			C386.8,352.4,384.8,363.1,386.4,364.7z"/>
		<path fill="#80C683" d="M372.5,375.2c-0.7,2.3,5.5,9.6,15,12.6c9.5,3,18.3,2.3,19.5-1.7c1.3-4-5.5-9.6-15-12.6
			C382.5,370.5,373.1,373.3,372.5,375.2z"/>
		<path fill="#63977E" d="M351.5,385.3c1.1-0.5,2.2-1,3.3-1.6c1.1-0.6,2.1-1.1,3.2-1.7c4.3-2.2,8.4-4.6,12.2-7.1
			c3.9-2.5,7.5-5,10.9-7.5c3.4-2.5,6.5-5,9.3-7.4c5.6-4.7,10.1-9.1,13-12.2c3-3.1,4.5-5,4.5-5l0.4,0.3c0,0-5.9,8-16.8,18.2
			c-2.7,2.5-5.8,5.2-9.1,7.9c-3.3,2.7-6.9,5.4-10.8,8.1c-3.9,2.6-7.9,5.3-12.2,7.7c-1.1,0.6-2.1,1.2-3.2,1.8
			c-1.1,0.6-2.2,1.1-3.3,1.7"/>
		<path fill="#63977E" d="M399.7,383c0,0-19.1-9.6-26.5-8.6l-0.4,1.3C372.8,375.7,380.7,375.9,399.7,383z"/>
		<path fill="#63977E" d="M372.6,346.9c0,0,3.6,21.1,0.4,27.9l-1.4,0C371.7,374.8,373.8,367.2,372.6,346.9z"/>
		<path fill="#DFA06B" d="M364.2,341.4c-0.1,1.6-1.5,2.9-3.1,2.8c-1.6-0.1-2.9-1.5-2.8-3.1c0.1-1.6,1.5-2.9,3.1-2.8
			C363.1,338.4,364.3,339.8,364.2,341.4z"/>
		<path fill="#CA4993" d="M406.5,416.3c8.8-0.1,15.9-3.2,15.9-6.8c0-3.7-7.2-6.5-16.1-6.4c-2,0-3.8,0.3-5.6,0.7
			c1.2-1.3,2.3-2.8,3.3-4.6c4.3-7.7,5.2-15.4,2-17.2c-3.2-1.8-9.3,3-13.6,10.7c-1,1.7-1.7,3.5-2.2,5.2c-0.5-1.7-1.3-3.4-2.3-5.1
			c-4.5-7.6-10.7-12.2-13.9-10.4c-3.1,1.9-2.1,9.5,2.4,17.1c1,1.7,2.2,3.2,3.4,4.5c-1.7-0.4-3.6-0.6-5.6-0.6
			c-8.8,0.1-15.9,3.1-15.9,6.8c0,3.7,7.2,6.5,16,6.4c2,0,3.8-0.3,5.6-0.7c-1.2,1.3-2.3,2.8-3.3,4.5c-4.3,7.7-5.2,15.4-2,17.2
			c3.2,1.8,9.3-3,13.6-10.7c1-1.7,1.7-3.5,2.2-5.2c0.6,1.7,1.3,3.4,2.3,5.1c4.5,7.6,10.7,12.2,13.8,10.4c3.2-1.9,2.1-9.5-2.4-17.1
			c-1-1.7-2.2-3.2-3.4-4.5C402.7,416.1,404.6,416.3,406.5,416.3z"/>
		
			<ellipse transform="matrix(5.463555e-02 -0.9985 0.9985 5.463555e-02 -39.8915 779.1273)" fill="#DFA06B" cx="391.5" cy="410.6" rx="3.5" ry="3.5"/>
		<path fill="#E17D6A" d="M140.4,345.3c-6.9-0.1-12.4-2.5-12.4-5.3c0-2.9,5.6-5.1,12.5-5c1.5,0,3,0.2,4.4,0.5
			c-0.9-1-1.8-2.2-2.6-3.5c-3.4-6-4.1-12-1.6-13.4c2.5-1.4,7.2,2.3,10.6,8.3c0.8,1.3,1.3,2.7,1.7,4c0.4-1.3,1-2.7,1.8-4
			c3.5-5.9,8.4-9.5,10.8-8.1c2.5,1.5,1.6,7.4-1.9,13.4c-0.8,1.3-1.7,2.5-2.6,3.5c1.4-0.3,2.8-0.5,4.4-0.4c6.9,0.1,12.4,2.5,12.4,5.3
			c0,2.9-5.6,5.1-12.5,5c-1.5,0-3-0.2-4.4-0.5c0.9,1,1.8,2.2,2.6,3.5c3.4,6,4.1,12,1.6,13.4c-2.5,1.4-7.2-2.3-10.6-8.3
			c-0.8-1.3-1.3-2.7-1.7-4c-0.4,1.3-1,2.7-1.8,4c-3.5,5.9-8.4,9.5-10.8,8.1c-2.5-1.5-1.6-7.4,1.9-13.4c0.8-1.3,1.7-2.5,2.6-3.5
			C143.4,345.1,142,345.3,140.4,345.3z"/>
		<path fill="#80C683" d="M149.9,439c-2.6,1.9-14.8-2.7-23-13.6c-8.2-10.9-11.2-22.5-6.6-25.8c4.5-3.4,14.8,2.7,23,13.6
			C151.4,424.1,152,437.4,149.9,439z"/>
		<path fill="#80C683" d="M152.4,436.7c3,1.2,5.5,14,0.6,26.7c-4.9,12.7-13.2,21.3-18.5,19.3c-5.3-2-5.5-14-0.6-26.7
			C138.9,443.3,149.9,435.7,152.4,436.7z"/>
		<path fill="#80C683" d="M104.7,440.8c-2.5,1.5-13.2-3.7-19.7-14.2c-6.5-10.6-8.2-21.3-3.8-24c4.4-2.7,13.2,3.7,19.7,14.2
			C107.4,427.3,106.8,439.4,104.7,440.8z"/>
		<path fill="#80C683" d="M105.3,441.3c2.5,1.6,2.5,13.5-4.2,23.9c-6.6,10.5-15.5,16.7-19.9,13.9c-4.3-2.7-2.5-13.5,4.2-23.9
			C92.1,444.8,103.2,440,105.3,441.3z"/>
		<path fill="#80C683" d="M58.9,433.5c-2.3,0.9-10.3-4.8-14.1-14.2c-3.9-9.4-3.8-18.4,0.1-20c3.9-1.6,10.2,4.8,14.1,14.2
			C62.8,422.9,60.8,432.7,58.9,433.5z"/>
		<path fill="#80C683" d="M39.2,427.7c-1.1,2.5-11.8,4.2-22.3-0.3c-10.4-4.5-17.4-11.7-15.5-16c1.9-4.3,11.8-4.2,22.3,0.3
			C34.1,416.2,40.1,425.6,39.2,427.7z"/>
		<path fill="#80C683" d="M58.1,434.5c1.5,1.9-1.6,11.2-9.5,17.6c-7.9,6.5-16.5,9-19.2,5.7c-2.7-3.3,1.6-11.2,9.5-17.6
			C46.8,433.8,56.8,432.9,58.1,434.5z"/>
		<path fill="#63977E" d="M173.7,426.2c-1.4,0.5-2.8,1-4.3,1.4c-2.2,0.7-4.5,1.3-6.8,2.1c-2.4,0.6-4.8,1.3-7.4,1.9
			c-5.1,1.2-10.4,2.3-16.1,3.3c-5.6,1-11.4,1.7-17.4,2.4c-3,0.3-6,0.4-9,0.6c-3,0-6.1,0.2-9.1,0.1c-3-0.1-6.1-0.1-9.1-0.4
			c-1.5-0.1-3-0.2-4.5-0.3c-1.5-0.2-3-0.3-4.5-0.5c-6-0.6-11.8-1.5-17.5-2.6c-5.6-1.1-11-2.4-16.1-3.7c-5.1-1.3-9.9-2.8-14.2-4.3
			c-8.7-2.9-15.8-5.9-20.7-8.2c-4.9-2.2-7.6-3.7-7.6-3.7L9,414.8c0,0,10.5,6.6,27.9,13.4c4.3,1.7,9.1,3.4,14.2,5
			c5.1,1.6,10.5,3.1,16.2,4.4C73,439,78.9,440.1,85,441c1.5,0.2,3,0.4,4.6,0.6c1.5,0.2,3.1,0.3,4.6,0.5c3.1,0.4,6.2,0.5,9.3,0.7
			c3.1,0.2,6.2,0.2,9.4,0.3c3.1-0.1,6.2,0,9.3-0.2c6.2-0.3,12.2-0.9,18-1.8c5.8-1,11.4-2.3,16.5-3.8c2.6-0.8,5.1-1.6,7.5-2.4
			c2.4-0.9,4.6-1.8,6.8-2.7c1.4-0.5,2.8-1.2,4.1-1.8L173.7,426.2z"/>
		<g>
			<path fill="#63977E" d="M47.9,408.1c0,0,0.7,13.4,10.5,25.5l0.8-0.8C59.1,432.8,49.5,419.7,47.9,408.1z"/>
			<path fill="#63977E" d="M38.8,454.3c0,0,5.2-12.4,18.4-20.5l0.5,1C57.7,434.9,44.2,444,38.8,454.3z"/>
		</g>
		<g>
			<path fill="#63977E" d="M85.4,408c0,0,3.1,17.7,18,32.1l1-1.2C104.4,439,89.5,423,85.4,408z"/>
			<path fill="#63977E" d="M85.9,473.6c0,0,2.9-17.7,17.6-32.3l1,1.2C104.5,442.4,89.8,458.5,85.9,473.6z"/>
		</g>
		<g>
			<path fill="#63977E" d="M124.1,405.1c0,0,6,18.7,24.3,32.2l0.9-1.4C149.3,435.9,130.8,420.9,124.1,405.1z"/>
			<path fill="#63977E" d="M138.1,476.2c0,0-0.7-20.2,12.4-39.5l1.3,1.1C151.8,437.8,139.1,458.7,138.1,476.2z"/>
		</g>
		<path fill="#80C683" d="M142.9,374.6c-2.4,0-7.6-8-7.7-18c-0.1-10,3.1-18.2,7.3-18.2c4.2,0,7.6,8,7.7,18
			C150.3,366.4,144.9,374.6,142.9,374.6z"/>
		<path fill="#80C683" d="M127.9,364.7c-1.9,1.9-12.3-0.5-20.2-8.3c-7.9-7.9-11.6-16.9-8.4-20.2c3.3-3.3,12.3,0.5,20.2,8.3
			C127.4,352.4,129.5,363.1,127.9,364.7z"/>
		<path fill="#80C683" d="M141.8,375.2c0.7,2.3-5.5,9.6-15,12.6c-9.5,3-18.3,2.3-19.5-1.7c-1.3-4,5.5-9.6,15-12.6
			C131.8,370.5,141.2,373.3,141.8,375.2z"/>
		<path fill="#63977E" d="M162.7,385.3c-1.1-0.5-2.2-1-3.3-1.6c-1.1-0.6-2.1-1.1-3.2-1.7c-4.3-2.2-8.4-4.6-12.2-7.1
			c-3.9-2.5-7.5-5-10.9-7.5c-3.4-2.5-6.5-5-9.3-7.4c-5.6-4.7-10.1-9.1-13-12.2c-3-3.1-4.5-5-4.5-5l-0.4,0.3c0,0,5.9,8,16.8,18.2
			c2.7,2.5,5.8,5.2,9.1,7.9c3.3,2.7,6.9,5.4,10.8,8.1c3.9,2.6,7.9,5.3,12.2,7.7c1.1,0.6,2.1,1.2,3.2,1.8c1.1,0.6,2.2,1.1,3.3,1.7"/>
		<path fill="#63977E" d="M114.6,383c0,0,19.1-9.6,26.5-8.6l0.4,1.3C141.5,375.7,133.6,375.9,114.6,383z"/>
		<path fill="#63977E" d="M141.6,346.9c0,0-3.6,21.1-0.4,27.9l1.4,0C142.6,374.8,140.4,367.2,141.6,346.9z"/>
		<path fill="#DFA06B" d="M150,341.4c0.1,1.6,1.5,2.9,3.1,2.8c1.6-0.1,2.9-1.5,2.8-3.1c-0.1-1.6-1.5-2.9-3.1-2.8
			C151.2,338.4,150,339.8,150,341.4z"/>
		<path fill="#CA4993" d="M108.6,416.3c-8.7-0.1-15.7-3.1-15.7-6.7c0-3.6,7.1-6.4,15.8-6.3c1.9,0,3.8,0.3,5.5,0.7
			c-1.2-1.3-2.3-2.8-3.2-4.5c-4.3-7.6-5.2-15.2-2-16.9c3.1-1.8,9.1,2.9,13.4,10.5c1,1.7,1.7,3.4,2.2,5.1c0.5-1.7,1.3-3.4,2.3-5
			c4.4-7.5,10.5-12.1,13.6-10.2c3.1,1.8,2,9.4-2.4,16.9c-1,1.7-2.1,3.2-3.3,4.4c1.7-0.4,3.6-0.6,5.5-0.6c8.7,0.1,15.7,3.1,15.7,6.7
			c0,3.6-7.1,6.4-15.8,6.3c-1.9,0-3.8-0.3-5.5-0.7c1.2,1.3,2.3,2.8,3.2,4.5c4.3,7.6,5.2,15.2,2,16.9c-3.1,1.8-9.1-2.9-13.4-10.5
			c-0.9-1.7-1.7-3.4-2.2-5.1c-0.5,1.7-1.3,3.4-2.3,5.1c-4.4,7.5-10.6,12-13.6,10.2c-3.1-1.8-2-9.4,2.4-16.9c1-1.7,2.1-3.1,3.3-4.4
			C112.4,416.1,110.6,416.4,108.6,416.3z"/>
		
			<ellipse transform="matrix(0.9985 -5.463555e-02 5.463555e-02 0.9985 -22.3051 7.4246)" fill="#DFA06B" cx="124.6" cy="411.7" rx="3.5" ry="3.5"/>
	</g>
	<g>
		<path fill="#96D2DB" d="M354.2,427.1l-0.5-198c3.9-68.8-16.5-58.2-29.3-75.2c-8.6-11.4,1-30.5,8.2-42c-27.4,2.7-53.6,3.6-76.4,3.6
			c-38.6,0-67.4-2.6-76.5-3.5c7.2,11.4,16.7,30.6,8.2,41.9c-12.8,17-33.2,6.3-29.3,75.2l-0.5,198c0,0-2.5,38.7,73,39.3h50.1
			C356.7,465.8,354.2,427.1,354.2,427.1z"/>
		<g>
			<path fill="#EB8802" d="M182.9,31.9c0,0,18.1,73.7,22.5,93.9c0,0,62.5,19.8,100.8,17.8c0,0,13.3-74.2,30.7-100L182.9,31.9z"/>
			<path fill="#D77610" d="M183.4,34c0.5,2,1.3,5.3,2.4,9.6c0.1,0.2,0.1,0.5,0.2,0.7c0.6,2.5,1.3,5.2,2,8.2c0.1,0.4,0.2,0.9,0.3,1.4
				c0.3,1.2,0.6,2.5,0.9,3.8c0.2,1,0.5,2,0.7,2.9c0,0.1,0.1,0.2,0.1,0.3c0.3,1.3,0.7,2.7,1,4.1c0.1,0.4,0.2,0.8,0.3,1.2
				c2,8.3,4.1,17.1,6.2,25.6c0.2,0.1,0.3,0.6,0.3,1.1c3.3,13.8,6.3,26.4,7.7,33c0,0,57,18.1,95.6,18
				c-49.2-33.3-58.8-103.2-58.8-103.2l-16.1-5.3l-43.2-3.3c0,0,0,0.2,0.1,0.5C183.1,32.9,183.2,33.4,183.4,34z"/>
			<path fill="#E89200" d="M288.4,72.2c0,2.1-3.2,3.9-7.1,3.9c-3.9,0-7.1-1.7-7.1-3.9c0-2.1,3.2-3.9,7.1-3.9
				C285.2,68.3,288.4,70,288.4,72.2z"/>
			<ellipse fill="#E89200" cx="311.4" cy="58.7" rx="7.1" ry="3.9"/>
			<path fill="#F6A944" d="M336.9,43c-0.4,4.8-25.8,6.9-59.6,5.4c-1.3-0.1-3.7-3.8-3.7-3.8s-2.8,3.5-3.9,3.4
				c-3.4-0.2-7-0.4-10.6-0.7c-20.4-1.5-38.8-4-52.4-6.8c-0.9-0.2-1.3-4.5-1.3-4.5s-2.6,3.7-3.2,3.5c-12.1-2.7-19.4-5.7-19.2-8.3
				c0.4-5.6,35.2-7.6,77.8-4.3C303.2,30.2,337.3,37.4,336.9,43z"/>
			<ellipse fill="#F3B82E" cx="256.5" cy="41.6" rx="7.1" ry="1.9"/>
			<ellipse fill="#F3B82E" cx="312.1" cy="40.6" rx="7.1" ry="1.9"/>
			<ellipse fill="#F3B82E" cx="235.5" cy="30.6" rx="9.3" ry="2.5"/>
			<ellipse fill="#DA8500" cx="218.3" cy="60.6" rx="14.2" ry="7.7"/>
		</g>
		<path fill="#C9E5E8" d="M231.2,456.1h50c34.2-0.3,49.5-8.7,56.4-15.7c6.3-6.4,6.3-12.6,6.3-12.7l0-0.3l0-14.5l-3.3-184.2
			c2.4-41.5-5.3-49.6-12.2-54.3c-4.2-2.8-9.9-6.6-14.8-13.3c-7-9.3-3.4-34.1,3.2-50c-18.5,1.2-41.9,1.8-60.5,1.8
			c-9.5,0-19-0.2-27.9-0.4c-11.7-0.1-22.7-0.2-30.4-0.6c7.1,15.5,11.2,42.4,3.7,52.3c-5,6.6-10.7,10.5-14.8,13.3
			c-6.9,4.6-13.4,9-11,50.9L168.7,429c0.4,2.3,1.6,6.7,6.2,11.4C181.7,447.4,197.1,455.8,231.2,456.1z"/>
		<path fill="#B8DFE2" d="M226.2,240.7c-20.1,2.5-38-2.6-50.4-8L168.7,429c0.4,2.3,1.6,6.7,6.2,11.4c6.5,6.6,20.7,14.5,51.3,15.6
			V240.7z"/>
		<path fill="#C0E2E2" d="M170.1,391.4l-1.4,37.7c0.4,2.3,1.6,6.7,6.2,11.4c6.9,7,22.2,15.4,56.3,15.7h50
			c34.2-0.3,49.5-8.7,56.4-15.7c6.3-6.4,6.3-12.6,6.3-12.7l0-0.3l0-14.5c-0.5,0.2-1,0.3-1.5,0.5C250.6,441.4,182.9,400,170.1,391.4z
			"/>
		<path fill="#96D2DB" d="M256.3,115.5c-45.5,0-77.5-3.6-79.5-3.8c-9.4-1.1-16.2-9.6-15.1-19.1c1.1-9.4,9.6-16.2,19.1-15.1
			c0.7,0.1,71.4,8,150.7,0c9.4-1,17.9,5.9,18.8,15.4c1,9.5-5.9,17.9-15.4,18.8C306.7,114.6,279.7,115.5,256.3,115.5z"/>
		<path fill="#C6E4E7" d="M336.8,90.5c-0.6-5.5-3.7-10.1-8-12.8c-69.9,6.8-132.5,1.3-145.5,0c-2.7,2.7-4.6,6.2-5.1,10.2
			c-1.1,9.4,5.7,18,15.1,19.1c2,0.2,34,6.4,79.5,6.4c23.4,0,20.3-1.2,48.6-4.1C330.8,108.4,337.7,100,336.8,90.5z"/>
		<path fill="#E4F2F3" d="M327.8,96.1c0.3,4.8-13.4,9.5-30.5,10.6c-17.2,1.1-31.1,1.1-31.6-6.6c-0.6-8.6,13.4-9.5,30.5-10.6
			C313.3,88.4,327.3,87.5,327.8,96.1z"/>
		<path fill="#96D2DB" d="M320.4,444.9c-0.1,5.1-21.5,8.9-47.7,8.3c-26.3-0.6-47.5-2-47.4-10.3c0.2-9.3,21.5-8.9,47.7-8.3
			C299.3,435.1,320.6,435.6,320.4,444.9z"/>
		<path fill="#C0E2E2" d="M262,179.9c0,0,7.1,5.2,7.5,28.1c0.4,22.9,0,81.2,0,81.2s25.7,0,31.6,3.3v-81.2c0,0-2.7-20.9-14-27
			L262,179.9z"/>
		<g>
			<path fill="#C0E2E2" d="M269.4,307.2c0,0,25.7,0,31.6,3.3v-13.1c-5.7-3.2-30.1-3.3-31.5-3.3C269.5,302,269.4,307.2,269.4,307.2z"
				/>
		</g>
		<path fill="#96D2DB" d="M293.7,408.5v10.4c0,0,0.8,9.5-2.3,12.6c0,0,8.5-0.1,12.6,1.3c0,0,2.8-2.9,2.5-7.1c-0.3-4.2,0-17.2,0-17.2
			S300.3,406.2,293.7,408.5z"/>
		<g>
			<g>
				<path fill="#E74256" d="M266.8,402.5c0,0-1.2-0.4-2.6-0.9c0.1-0.3,0.2-0.6,0.3-1l3.6-2.3c18.8-65.1-10.7-83.7-29.6-82.9
					c-1,0-1.9,0.2-2.8,0.3c-0.3,0-0.6,0.1-0.8,0.2c-0.1,0-0.2,0-0.3,0.1l-1.5-1.6l-5.8,5.3l0,0c-0.1,0.1-0.1,0.2-0.2,0.2
					c-0.8,0.7-1.5,1.5-2.1,2.3c-0.1,0.1-0.2,0.3-0.3,0.4c-0.7,0.9-1.3,1.9-1.8,2.9c0,0,0,0.1,0,0.1c-0.5,1-0.9,2-1.2,3.1
					c0,0.1-0.1,0.3-0.1,0.4c-0.7,2.2-1.1,4.4-1.3,6.4c0,0.1,0,0.3,0,0.4c-0.2,2-0.2,3.8-0.1,5.4c0,0.2,0,0.3,0,0.5
					c0,0.7,0.1,1.4,0.2,1.9c0.5,4,0.4,6.3-0.9,7.1c-0.8,0.4-2,0.3-3.9-0.5c-6.8-2.8-13.8-2.8-19.8-0.6l-2.2-0.3l-5.3,4.8l0,0
					c-0.4,0.4-0.8,0.8-1.1,1.2c-0.3,0.3-0.6,0.6-0.9,1c-0.4,0.4-0.7,0.9-1.1,1.4c-0.5,0.7-1,1.4-1.4,2.1c-0.2,0.4-0.4,0.8-0.6,1.2
					c-0.4,0.7-0.7,1.5-1,2.3c-0.1,0.4-0.3,0.8-0.4,1.2c-0.3,0.9-0.5,1.9-0.7,2.9c0,0.3-0.1,0.6-0.2,0.9c-0.2,1.2-0.2,2.4-0.2,3.7
					c0,0.3,0,0.6,0,0.9c0.1,1.3,0.2,2.7,0.4,4.1c0.1,0.3,0.1,0.6,0.2,0.8c0.3,1.5,0.7,3,1.2,4.5c0.1,0.2,0.2,0.4,0.2,0.6
					c0.6,1.7,1.3,3.3,2.1,5.1c0,0,0,0.1,0.1,0.1c0.6,1.3,1.4,2.5,2.1,3.6c0.2,0.2,0.3,0.5,0.5,0.7c0.8,1.1,1.7,2.1,2.6,3.1
					c0.2,0.2,0.4,0.4,0.6,0.6c0.9,0.9,1.9,1.8,2.9,2.6c0.2,0.2,0.5,0.4,0.7,0.5c0.8,0.6,1.6,1.2,2.5,1.7
					c16.2,10.5,40.8,10.6,50.8,10.2c7.3-0.2,11.1-1.5,13.3-3.4l0,0L266.8,402.5z"/>
				<path fill="#F08890" d="M271.4,392.8c17.5-60.6-6.8-80.9-25.5-82.7c-0.4,0-0.9,0-1.3,0c-18.9,0.9-19.1,21.8-18.3,28.3
					c0.8,6.5,0.2,8.5-4.8,6.6c-3.4-1.4-6.9-2-10.3-2.1c-4.9-0.1-9.8,1.3-14.1,3.9c-9.7,6.2-14.6,19.3-6.4,36
					c11.6,23.6,49.7,23.7,62.7,23.3C269.6,405.6,268.4,400.1,271.4,392.8z"/>
			</g>
			<g>
				<path fill="#E74256" d="M310.7,431.9c0,0-0.9-0.5-1.9-1c0.1-0.2,0.2-0.5,0.3-0.7l3-1.4c21.5-48.1,0.8-65.6-13.9-66.9
					c-0.8-0.1-1.5-0.1-2.2,0c-0.2,0-0.4,0-0.7,0c-0.1,0-0.2,0-0.3,0l-1-1.4l-5.1,3.4l0,0c-0.1,0-0.1,0.1-0.2,0.1
					c-0.7,0.5-1.3,1-1.9,1.5c-0.1,0.1-0.2,0.2-0.3,0.3c-0.6,0.6-1.2,1.3-1.7,2.1c0,0,0,0,0,0.1c-0.5,0.7-0.9,1.5-1.3,2.2
					c0,0.1-0.1,0.2-0.1,0.3c-0.7,1.6-1.3,3.2-1.7,4.8c0,0.1-0.1,0.2-0.1,0.3c-0.4,1.5-0.6,2.9-0.7,4.1c0,0.1,0,0.2,0,0.4
					c0,0.5-0.1,1.1-0.1,1.5c-0.1,3.2-0.3,4.9-1.4,5.3c-0.7,0.2-1.6,0-2.9-0.8c-4.9-2.9-10.4-3.6-15.2-2.6l-1.7-0.5l-4.6,3.1l0,0
					c-0.4,0.2-0.7,0.5-1,0.8c-0.3,0.2-0.5,0.4-0.8,0.6c-0.3,0.3-0.7,0.6-1,0.9c-0.5,0.5-0.9,0.9-1.3,1.5c-0.2,0.3-0.4,0.6-0.6,0.9
					c-0.4,0.5-0.7,1.1-1,1.7c-0.2,0.3-0.3,0.6-0.4,0.9c-0.3,0.7-0.6,1.4-0.8,2.1c-0.1,0.2-0.1,0.4-0.2,0.6c-0.3,0.9-0.4,1.9-0.6,2.8
					c0,0.2-0.1,0.5-0.1,0.7c-0.1,1-0.1,2.1-0.1,3.2c0,0.2,0,0.4,0,0.7c0.1,1.2,0.2,2.3,0.4,3.6c0,0.2,0.1,0.3,0.1,0.5
					c0.3,1.3,0.6,2.7,1.1,4.1c0,0,0,0.1,0,0.1c0.4,1,0.8,2,1.3,3c0.1,0.2,0.2,0.4,0.3,0.6c0.5,0.9,1.1,1.8,1.7,2.7
					c0.1,0.2,0.3,0.3,0.4,0.5c0.6,0.8,1.2,1.6,1.9,2.3c0.2,0.2,0.3,0.3,0.5,0.5c0.6,0.5,1.1,1.1,1.7,1.6c11.4,9.9,30.3,12.5,38,13.3
					c5.7,0.6,8.7,0.1,10.6-1.2l0,0L310.7,431.9z"/>
				<path fill="#EB6372" d="M315.2,424.9c20-44.8,3.4-63-10.8-66.4c-0.3,0-0.7-0.1-1-0.1c-14.6-1.4-17,14.7-17.1,19.8
					c-0.1,5.1-0.8,6.6-4.4,4.6c-2.5-1.5-5.1-2.3-7.7-2.7c-3.8-0.6-7.7,0-11.3,1.5c-8.1,3.8-13.3,13.3-8.8,27
					c6.4,19.4,35.7,23.6,45.8,24.6C312.5,434.6,312.2,430.2,315.2,424.9z"/>
			</g>
		</g>
		<path fill="#D7C9A9" d="M202.6,113.9c0,0,0.3,1,2.8,12c0,0,62.5,19.8,100.8,17.8l6.4-30.2C256.4,118.3,202.6,113.9,202.6,113.9z"
			/>
		<path fill="#D6EAEA" d="M232.2,139.9c0,0,3.5,22.8-6.6,33.3c-13.2,13.8-9.9,33.7-10.5,60.7c-0.6,27,0,214.4,0,214.4
			s-15.8,0.8-30-10.3V222.4c0,0-1.1-28.8,22.5-43.9c24.5-15.6,17.2-38.6,17.2-38.6s3.2,0.9,6.5,0"/>
		<path fill="#E5F2F3" d="M276.4,132.3c0,0-5.7,22.9,6.3,35.6c12,12.6,29.8,15.1,29.8,127.9c0,113.5-5.9,129.9,7.4,129.9
			c19.6,0,17.9,3.2,18.2-66.8c0.3-70,0-131.3,0-131.3s2.6-39.7-36.6-64.2c-15.8-9.3-4.8-31.4-4.8-32.3
			C296.7,130.9,287.2,133.5,276.4,132.3z"/>
	</g>
</g>
<image width="880" height="830" xlink:href="4E92EAF5.jpg"  transform="matrix(0.5383 0 0 0.5383 -476.8386 38.6013)">
</image>
<path fill="#EEBEC4" d="M311.8,361.6l-0.4,25.2c0,1-0.1,7.5-0.1,7.5c-0.1,13-0.1,23,0.3,24.4c0.8,3.4,3.9,5.8,3.9,5.8
	C332.1,387.2,323.4,368.8,311.8,361.6z"/>
<g>
	<path fill="#DEAAB2" d="M214.9,350.2c-6.6-2.6-13.5-2.5-19.3-0.4l-2.1-0.3l-5.5,4.8l0,0c-0.4,0.4-0.8,0.8-1.1,1.2
		c-0.3,0.3-0.6,0.6-0.9,1c-0.3,0.4-0.6,0.7-0.8,1.1v31.5c0.5,1,1.1,1.9,1.7,2.8c0.2,0.2,0.3,0.5,0.5,0.7c0.8,1.1,1.7,2.1,2.6,3.1
		c0.2,0.2,0.4,0.4,0.6,0.6c0.9,0.9,1.9,1.8,2.9,2.6c0.2,0.2,0.5,0.4,0.7,0.5c0.8,0.6,1.6,1.2,2.5,1.7c5.5,3.6,12,5.9,18.5,7.5
		L214.9,350.2z"/>
	<path fill="#E4C6C9" d="M214.9,343.2c-1.3-0.2-2.5-0.3-3.8-0.3c-4.9-0.1-9.8,1.3-14.1,3.9c-9.7,6.2-14.6,19.3-6.4,36
		c4.8,9.7,14.1,15.5,24.3,18.8L214.9,343.2z"/>
</g>
</svg>
