<?xml version="1.0" encoding="utf-8"?>
<!-- Generator: Adobe Illustrator 21.1.0, SVG Export Plug-In . SVG Version: 6.00 Build 0)  -->
<svg version="1.1" baseProfile="tiny" id="Слой_1"
	 xmlns="http://www.w3.org/2000/svg" xmlns:xlink="http://www.w3.org/1999/xlink" x="0px" y="0px" viewBox="0 0 512 512"
	 overflow="scroll" xml:space="preserve">
<g>
	<path fill="#DD264C" d="M301,328.6c-0.5,1-1.6,1.6-3.6,1.8c-7.3,0.6-11.4,2.9-14.1,6.1c-5.1,5.9-5.6,14.7-13.5,20.2
		c-3.6,2.5-8.6,4.3-16.3,4.9v0.1c-0.1,0-0.2,0-0.4,0c-0.1,0-0.2,0-0.4,0v-0.1c-7.1-0.5-11.8-2.2-15-4.6c-9.6-7-6.6-19.6-17-24.5
		c-2.8-1.3-6.6-2.1-11.9-2c-3.8,0.1-4.5-1.8-3.4-4.6c3.5-9,25.5-27.9,25.5-27.9l21.8-25.8v-0.9l0.4,0.4l0.4-0.4v0.9l21.8,25.8
		C275.3,297.8,304.4,321.8,301,328.6z"/>
	<g>
		<path id="XMLID_75_" fill="#DD264C" d="M338.7,0.1c-34.8,0-65.7,16-84.9,40.7h0c-19.2-24.7-50.1-40.7-84.9-40.7
			c-58.2,0-105.5,44.8-105.5,100.1c0,82.3,185.6,216.5,190.3,219.9l0.1,0.1c0,0,190.2-133.5,190.2-220C444.2,44.9,397,0.1,338.7,0.1
			z"/>
	</g>
	<g>
		<path fill="#BB1637" d="M444.2,100.2c0,86.5-190.2,220-190.2,220l-0.1-0.1c-2.3-1.7-47.6-34.4-93.4-77.1c8,1.2,16.2,1.8,24.6,1.8
			c90.9,0,164.6-73.7,164.6-164.6c0-29-7.5-56.2-20.6-79.8c3.2-0.3,6.5-0.4,9.8-0.4C397,0.1,444.2,44.9,444.2,100.2z"/>
	</g>
	<path fill="#BB1637" d="M230.1,315.8c-2.9,6-6.8,11.3-9.5,16.6c-2.8-1.3-6.6-2.1-11.9-2c-3.8,0.1-4.5-1.8-3.4-4.6
		C214.8,319.4,234.6,306.6,230.1,315.8z"/>
	<path fill="#BB1637" d="M301,328.6c-0.5,1-1.6,1.6-3.6,1.8c-7.3,0.6-11.4,2.9-14.1,6.1c-2.4-6.7-7.6-13.1-11.2-20.6
		C266.8,304.8,296.4,325.3,301,328.6z"/>
	<path fill="#BB1637" d="M269.8,356.6c-3.6,2.5-8.6,4.3-16.3,4.9v0.1c-0.1,0-0.2,0-0.4,0c-0.1,0-0.2,0-0.4,0v-0.1
		c-7.1-0.5-11.8-2.2-15-4.6c4.3-13.3,11.2-32.4,16.1-31.8C258.7,324.6,265.5,343.4,269.8,356.6z"/>
	<path fill="#BB1637" d="M277.9,512.1h2.6c0.9-17.1-2.2-35.2-14.2-51.8c-31-43-11.8-97.8-11.6-98.3l-2.6-0.9
		c-0.2,0.6-5.1,14.3-6.2,33.6c-1,17.9,1.4,44.1,18.1,67.2C275.8,478.1,278.9,495.6,277.9,512.1z"/>
	<image width="371" height="375" xlink:href="72D3F34E.png"  transform="matrix(0.24 0 0 0.24 96.72 27.12)">
	</image>
	<image width="137" height="138" xlink:href="72D3F352.png"  transform="matrix(0.24 0 0 0.24 108.24 132)">
	</image>
</g>
</svg>
