<svg xmlns="http://www.w3.org/2000/svg" xmlns:xlink="http://www.w3.org/1999/xlink" viewBox="0 0 450 300" fill="#000000" stroke="#000000" stroke-width="0" stroke-opacity="1.0" fill-opacity="1.0" >

<defs>
	<linearGradient id="retain_AF0000">
		<stop offset="0" stop-color="#AF0000" stop-opacity="1"/>
		<stop offset="1" stop-color="#AF0000" stop-opacity="1"/>
	</linearGradient>

	<linearGradient id="retain_white">
		<stop offset="0" stop-color="#FFFFFF" stop-opacity="1"/>
		<stop offset="1" stop-color="#FFFFFF" stop-opacity="1"/>
	</linearGradient>

	<linearGradient id="retain_FFCE00">
		<stop offset="0" stop-color="#FFCE00" stop-opacity="1"/>
		<stop offset="1" stop-color="#FFCE00" stop-opacity="1"/>
	</linearGradient>
</defs>


<g transform="scale(1.5 1.5)">
	<g>
		<path fill="url(#retain_AF0000)" d="M129.5,189.1c-0.3-6-1.7-13.1-5.8-18.2c-3.3-4.1-7.8-6.4-13.5-6.8c-0.7,0-1.4-0.1-2.1-0.1
			c-14.2,0-29.2,9.8-38.5,17.3c4.5-9.5,9-23.8,3.6-36.2c-3.5-8-15-12.1-34.3-12.1c-6.4,0-12.9,0.5-18.8,1.1
			c17.6-6.8,40.1-17.5,40.4-28.3C61,93.6,34.6,77.4,18.4,68.5c12.3,2,30.9,4.7,44.3,4.7c5.9,0,10.2-0.5,13.1-1.5
			c2.4-0.8,4.1-2.5,4.9-5c2.4-7.3-3.5-21-9.4-32c8.4,7.8,19.6,16,29.3,16c2.2,0,4.3-0.4,6.2-1.3c6.6-3,14.7-11.2,17.3-33
			c5,8.6,15.4,23.1,29.6,23.2l0.2,0c13.5,0,23.3-16.7,28.5-28.3c0.1,12.4,1.4,31.3,8,38.2c1.8,2,4,2.9,6.4,2.9c0,0,0,0,0,0
			c0.2,0,0.5,0,0.7,0c12.1-0.9,29.7-14.8,38.2-22.2c-2.1,9.4-4.7,26.5,2.1,36.3c8.7,12.6,33.9,16.9,49.3,18.3
			c-14.9,4.6-38,14.3-38,30c0,14.6,9.1,28.2,15.3,36c-12.4-4.8-36.6-13.1-54.3-13.1c-7.1,0-12.6,1.4-16.3,4
			c-9.6,6.9-4.8,25.1-0.6,36.3c-5.1-4.6-12.3-10.6-19.9-15c-3.8-2.2-8.3-4.4-13.2-4.4c-6.1,0-12.1,3.4-18.8,10.8
			C136.6,174.8,132.5,182.7,129.5,189.1z"/>
		<path d="M180.5,19.5c0.6,11.7,2.6,25.5,8.3,31.4c2.2,2.3,4.9,3.6,7.9,3.6c0.3,0,0.6,0,0.8,0c10.9-0.8,25.5-11.2,35-19
			c-1.7,10-2.4,23.6,3.5,32.2c7.6,11,26.8,15.9,42.1,18.2c-1.5,0.6-2.9,1.1-4.4,1.8C256,95.2,247,104.4,247,114.9
			c0,12.1,6,23.5,11.7,31.7c-13.3-4.8-33.3-10.8-48.6-10.8c-7.5,0-13.4,1.5-17.5,4.4c-8.7,6.3-7,20.2-3.7,31.6
			c-4.3-3.6-9.4-7.3-14.6-10.3c-4-2.3-8.9-4.6-14.2-4.6c-6.7,0-13.1,3.6-20.3,11.5c-3.4,3.7-6.5,8.8-9.1,13.8
			c-0.9-4.4-2.5-8.9-5.4-12.6c-3.6-4.6-8.6-7.1-14.9-7.6c-0.7-0.1-1.5-0.1-2.2-0.1c-12,0-24.5,6.7-33.8,13.3
			c3.3-9.2,5.3-20.7,0.8-31c-3.9-8.9-15.7-13.3-36.1-13.3c-2.2,0-4.4,0.1-6.6,0.1c20.4-9.1,30.1-17.1,30.3-25.3
			c0.1-5.2-2.6-14-28.2-30.1c-2-1.2-3.9-2.4-5.8-3.6c11,1.6,23.9,3,34,3c6.1,0,10.6-0.5,13.8-1.6c3-1,5.1-3.2,6.1-6.2
			c1.8-5.3,0.1-13.4-5.2-24.7c8.7,6.8,16.5,10.2,23.1,10.2c2.5,0,4.9-0.5,7-1.5c6.5-2.9,14.3-10.4,17.6-29.2
			c5.9,8.7,15.6,19.4,28.4,19.5l0.2,0c9.4,0,18.1-7,25.9-20.8C180,20.4,180.3,20,180.5,19.5 M184.5,0.2c0,0-11.8,37.5-30.7,37.5
			c0,0-0.1,0-0.1,0c-18.9-0.2-31-28.3-31-28.3c-0.3,2.5-0.7,31.1-16.7,38.3c-1.7,0.8-3.5,1.1-5.4,1.1c-17.3,0-40.6-29-40.6-29
			s30.1,44.8,15.3,50c-2.9,1-7.3,1.4-12.5,1.4c-21.5,0-57-6.9-57-6.9s53.4,25.7,53,41.5c-0.4,15.7-59.2,33.4-59.2,33.4
			s20.3-4.1,39.5-4.1c14.7,0,28.8,2.4,32.4,10.9c8.5,19.5-9.5,44.8-9.5,44.8S86.5,166,108.2,166c0.6,0,1.3,0,1.9,0.1
			c22.1,1.6,16.9,34.1,16.9,34.1s7.2-19.8,15.7-29.1c6.7-7.4,12.1-10.2,17.3-10.2c4,0,7.9,1.7,12.2,4.1c14,7.9,26.7,21.7,26.7,21.7
			s-16.8-34-4.1-43.2c3.6-2.6,9-3.7,15.1-3.7c24.2,0,61.6,16.2,61.6,16.2S251,136.2,251,114.9c0-21.3,48.6-31.3,48.6-31.3
			s-48-0.5-60.2-18.2c-8.9-12.9-0.1-41.1-0.1-41.1s-26.3,24.9-42,26.1c-0.2,0-0.4,0-0.5,0C181.7,50.5,184.5,0.2,184.5,0.2L184.5,0.2
			z"/>
	</g>
	<path fill="url(#retain_white)" d="M222.3,109.8c0.4-13.7,17.1-18.9,17.1-18.9s-16.1-1.6-24.7-12.7c-6.3-8.2,0.7-26.5,0.7-26.5
		s-19.7,16.5-31.2,17.6c-11.5,1.1-8.4-32.2-8.4-32.2s-9.4,24.5-23.2,24.7c-13.8,0.2-22.2-17.6-22.2-17.6c-0.3,1.6-1.1,20-12.9,25
		c-12.8,5.3-33.1-17.1-33.1-17.1s21.1,28.3,10.2,31.9c-10.9,3.6-50.7-2.2-50.7-2.2s38.6,15.6,38,25.7c-0.6,10.2-30.2,19.6-30.2,19.6
		s33-6.4,38.8,6c5.8,12.4-7.8,29.1-7.8,29.1s19.5-17.4,35.6-16.8s11.7,21.7,11.7,21.7s5.6-12.9,12-19.1c9-8.7,14.6-7.9,21.7-4.5
		c10.1,4.9,19.1,13.5,19.1,13.5s-11.6-21.6-2.1-27.8c13.4-8.7,55.9,6.6,55.9,6.6S221.9,123.5,222.3,109.8z"/>
	<g>
		<g>
			<path d="M280.5,87.5l-5-2.2c-0.2-0.1-6.1-2.7-15.7-4.5l-3.3-0.6l-1.7,2.9c-4.1,6.8-9.2,28.4-9.7,30.8l-0.4,1.7
				c-3.6,1.9-5.7,4.8-5.5,8.1c0.3,5.5,6.6,9.1,14.9,8.7c8.4-0.4,14.2-4.7,13.9-10.2c-0.1-2.4-1.4-4.5-3.6-6
				c1-2.4,8.4-15.4,13.3-23.9L280.5,87.5z"/>
			<path d="M248.1,95.5l-10,0.2l6.6-15.6l-3.9-2.1c-9.9-5.4-20.8-5.7-26.3-5.4c-1.4,0.1-2.3,0.2-2.8,0.2
				c-10.9,0.6-20.1,6.4-26.2,13.9l1-20.7l-23.4,5.1l-0.3,13.1l-10.3-18.8L129,72.7l2.5,4.9c0.6,2.1,1.5,11.1,2.5,22.6l-0.6,0
				l-13.9-32.3l-3.5,0.3c-1.1,0.1-11.1,1.2-16.9,6.6l-1.3,1.2l-0.2,1.8c-0.6,5.4-2.4,21.3-3.2,28.1l-5,1.6c-1.8-1.8-3.9-3.2-6.3-4.3
				c1.6-3.6,2.7-8.4,1-13.1c-2-5.7-7.3-9.6-15.9-11.6l-0.2,0c-2.8-0.5-5.7-0.7-8.7-0.5c-16,0.9-29.7,10.7-30.2,11.2l-3,2.2l7.5,19.1
				l3.6-1.7c3.3,8.7,10,27.8,12.3,42.3l0.6,4l4,0.1c0.1,0,1,0,2.5-0.1c0,0,0,0,0,0c5.8-0.3,25.7-2.7,35.7-20c0.4-0.6,0.7-1.3,1-2
				l-0.2,6.5l22.3,0l0.2-16.5l3.7-0.8l7.8,15.6l9.2-6.4l0.3,4.6l21.9-8.4l-1-10l7.5,13.8l18.5-5.6l0.2-3.6c2.5,2.6,5.7,4.7,9.7,6.2
				l0.4,0.2l0.4,0.1c5,1,9.8,1.4,14.3,1.1c17.3-0.9,25.5-10.7,28.6-15.7l5.9-0.4L248.1,95.5z M207.4,96.3c2.3-1.4,5.3-2.2,8.9-2.4
				c5.8-0.3,11.7,1.1,14.6,2L207.4,96.3z"/>
		</g>
		<g fill="url(#retain_FFCE00)">
			<path d="M249.8,114.9c0,0,5.4-23,9.2-29.4c9.1,1.7,14.6,4.2,14.6,4.2s-12.2,21-13.7,24.7
				C257.5,114.2,249.8,114.9,249.8,114.9z"/>

			<ellipse transform="matrix(0.9986 -5.320032e-002 5.320032e-002 0.9986 -6.1776 13.6656)" cx="253.6" cy="122.9" rx="9.6" ry="4.6"/>

			<path d="M141.1,129c0,0-3.4-50.1-5.1-53.4l14.2-4.4l17,31.3l0.7-27.4l13.5-3l-2.4,50l-11.5,3.5L150.2,94l3.1,30.3
				L141.1,129z"/>

			<path d="M238.5,82.3c-12.2-6.6-26.4-4.6-26.4-4.6c-25.4,1.2-42.6,36.3-17,46.1c30.6,6.1,39-14.5,39-14.5l5.2-0.3
				l2.4-8.5l-35.2,0.7l-1.3,9.1c0,0-1.5,0.2,15.1-0.6c-13.1,5.8-19,3.4-21.5,0c-1.8-2.5-2.1-5.9-1-8.8c7.9-19.7,36.7-8.9,36.7-8.9
				L238.5,82.3z"/>

			<path d="M134,113.4l0.1-8.3l-4-0.2L116.4,73c0,0-9.3,0.9-14,5.3c-0.7,7-3.5,31.2-3.5,31.2l-8.3,2.7l5.1,12.6
				l2.7-1.5l-0.3,11.4l12.5,0l0.2-15.5l11.1-2.5l7,14l10-6.9L134,113.4z M110.2,105.3l1.5-15.6l5.7,14.7L110.2,105.3z"/>

			<path d="M75.8,106.1c0,0,14-17.6-8.6-22.9c-17.6-3.1-35.3,9.8-35.3,9.8l4.2,10.8l3.7-1.7c0,0,11.2,28,14.4,48.1
				c0,0,23.2,0.7,33.8-17.7c2.6-4.5,3.5-10,1.9-15.1C88.4,112.8,84.7,107.6,75.8,106.1z M51.7,95.6c0,0,13.4-6,14.6,0.7
				c1.2,6.7-11,10.1-11,10.1L51.7,95.6z M62,133.4l-3.2-13.7c0,0,15-5.2,16.9,2.6C77.7,130.1,62,133.4,62,133.4z"/>
		</g>
	</g>
</g>

</svg>
