<?xml version="1.0" encoding="iso-8859-1"?>
<!-- Generator: Adobe Illustrator 21.1.0, SVG Export Plug-In . SVG Version: 6.00 Build 0)  -->
<svg version="1.1" baseProfile="tiny" id="&#x421;&#x43B;&#x43E;&#x439;_1"
	 xmlns="http://www.w3.org/2000/svg" xmlns:xlink="http://www.w3.org/1999/xlink" x="0px" y="0px" viewBox="0 0 512 512"
	 xml:space="preserve" fill="#000000" stroke="#000000" stroke-width="0" stroke-opacity="1.0" fill-opacity="1.0">

<defs>
  <linearGradient id="retain_4B4B4B">
    <stop offset="0" stop-color="#4B4B4B" stop-opacity="1"/>
    <stop offset="1" stop-color="#4B4B4B" stop-opacity="1"/>
  </linearGradient>
  <linearGradient id="retain_8FC7BE">
    <stop offset="0" stop-color="#8FC7BE" stop-opacity="1"/>
    <stop offset="1" stop-color="#8FC7BE" stop-opacity="1"/>
  </linearGradient>
</defs>

<circle fill="url(#retain_8FC7BE)" cx="256" cy="256" r="256"/>
<g>
	<path fill="url(#retain_4B4B4B)" stroke="url(#retain_4B4B4B)" stroke-linecap="round" stroke-linejoin="round" stroke-miterlimit="10" d="M425.339,165.725
		c-0.236-0.539-5.98-13.405-25.621-33.049c-19.641-19.641-32.511-25.386-33.05-25.622c-2.068-0.902-4.479-0.442-6.072,1.156
		c-20.418,20.508-63.052,66.055-69.065,78.418c-11.336,23.303-10.066,47.524-9.207,55.697L136.256,388.389l-7.937-7.934
		c-2.136-2.14-5.606-2.14-7.746,0c-2.14,2.14-2.14,5.606,0,7.745l22.715,22.715c1.07,1.066,2.471,1.601,3.872,1.601
		c1.401,0,2.803-0.535,3.872-1.601c2.14-2.143,2.14-5.61,0-7.749l-7.032-7.029l146.071-146.071
		c2.361,0.243,6.055,0.521,10.683,0.521c11.415,0,28.488-1.687,45.009-9.725c12.363-6.012,57.911-48.646,78.418-69.065
		C425.781,170.204,426.241,167.793,425.339,165.725L425.339,165.725z M340.973,231.013c-14.645,7.121-29.953,8.619-40.217,8.619
		c-0.085,0-0.163-0.004-0.246-0.004l28.767-28.767c2.14-2.14,2.14-5.61,0-7.749c-2.14-2.136-5.606-2.136-7.745,0l-28.768,28.767
		c-0.021-10.18,1.42-25.66,8.616-40.459c4.514-9.275,40.416-48.547,64.119-72.591c4.596,2.72,13.911,9.032,26.47,21.595
		c12.449,12.445,18.824,21.848,21.585,26.484C389.505,190.608,350.247,226.499,340.973,231.013L340.973,231.013z M340.973,231.013"
		/>
	<path fill="url(#retain_4B4B4B)" stroke="url(#retain_4B4B4B)" stroke-linecap="round" stroke-linejoin="round" stroke-miterlimit="10" d="M211.248,250.587
		c4.625,0,8.323-0.278,10.68-0.521l14.706,14.706c1.07,1.07,2.475,1.605,3.876,1.605c1.401,0,2.803-0.535,3.872-1.605
		c2.136-2.14,2.136-5.606,0-7.746l-14.706-14.702c0.859-8.173,2.129-32.393-9.207-55.697c-6.012-12.363-48.646-57.91-69.065-78.418
		c-1.594-1.598-4.005-2.058-6.072-1.156c-0.539,0.236-13.408,5.98-33.05,25.622c-19.641,19.644-25.385,32.51-25.621,33.049
		c-0.902,2.068-0.442,4.479,1.156,6.072c20.507,20.418,66.059,63.049,78.422,69.065C182.76,248.9,199.833,250.587,211.248,250.587
		L211.248,250.587z M120.031,140.425c12.445-12.449,21.852-18.828,26.484-21.585c23.699,24.049,59.591,63.306,64.105,72.581
		c7.168,14.735,8.612,30.239,8.597,40.441l-28.729-28.729c-2.139-2.136-5.605-2.136-7.745,0c-2.14,2.143-2.14,5.61,0,7.749
		l28.75,28.747c-0.086,0-0.164,0.004-0.246,0.004c-10.263,0-25.572-1.498-40.221-8.619c-9.275-4.514-48.543-40.419-72.592-64.119
		C101.157,162.294,107.468,152.984,120.031,140.425L120.031,140.425z M120.031,140.425"/>
	<path fill="url(#retain_4B4B4B)" stroke="url(#retain_4B4B4B)" stroke-linecap="round" stroke-linejoin="round" stroke-miterlimit="10" d="M375.744,388.389
		L275.363,288.011c-2.14-2.14-5.606-2.14-7.745,0c-2.14,2.139-2.14,5.605,0,7.745l100.381,100.377l-6.976,6.976
		c-2.14,2.139-2.14,5.605,0,7.745c1.07,1.07,2.471,1.605,3.872,1.605c1.401,0,2.803-0.535,3.872-1.605l22.871-22.867
		c2.14-2.139,2.061-5.992-0.079-8.132c-1.674-1.674-5.542-1.737-8.147,0.868L375.744,388.389z M376.407,387.729"/>
</g>
<g>
	<path fill="url(#retain_4B4B4B)" stroke="url(#retain_4B4B4B)" stroke-width="5" stroke-miterlimit="10" d="M109.454,277.99
		c0-1.719-0.268-3.216-0.801-4.492c-0.534-1.275-1.264-2.337-2.188-3.184c-0.925-0.846-2.012-1.478-3.262-1.895
		c-1.25-0.416-2.604-0.625-4.063-0.625c-1.25,0-2.475,0.17-3.672,0.508c-1.198,0.339-2.363,0.808-3.496,1.406
		c-1.133,0.6-2.227,1.315-3.281,2.148c-1.055,0.834-2.038,1.758-2.949,2.773v-6.875c1.797-1.744,3.809-3.079,6.035-4.004
		c2.227-0.924,4.941-1.387,8.145-1.387c2.291,0,4.414,0.332,6.367,0.996s3.646,1.635,5.078,2.91
		c1.432,1.276,2.559,2.852,3.379,4.727s1.23,4.023,1.23,6.445c0,2.214-0.254,4.219-0.762,6.016s-1.276,3.49-2.305,5.078
		c-1.029,1.589-2.324,3.112-3.887,4.57c-1.563,1.459-3.398,2.943-5.508,4.453c-2.631,1.875-4.799,3.477-6.504,4.805
		c-1.706,1.328-3.061,2.572-4.063,3.73c-1.003,1.159-1.706,2.318-2.109,3.477c-0.404,1.159-0.605,2.494-0.605,4.004h27.891v5.742
		h-34.57v-2.773c0-2.396,0.26-4.505,0.781-6.328c0.521-1.822,1.38-3.555,2.578-5.195c1.197-1.641,2.767-3.281,4.707-4.922
		c1.939-1.641,4.316-3.489,7.129-5.547c2.031-1.458,3.73-2.852,5.098-4.18s2.467-2.656,3.301-3.984
		c0.833-1.328,1.426-2.676,1.777-4.043S109.454,279.527,109.454,277.99z"/>
	<path fill="url(#retain_4B4B4B)" stroke="url(#retain_4B4B4B)" stroke-width="5" stroke-miterlimit="10" d="M162.267,291.076
		c0,4.688-0.424,8.842-1.27,12.461c-0.847,3.62-2.07,6.674-3.672,9.16c-1.602,2.487-3.568,4.375-5.898,5.664
		c-2.331,1.289-4.98,1.934-7.949,1.934c-2.813,0-5.319-0.619-7.52-1.855c-2.201-1.236-4.057-3.04-5.566-5.41
		c-1.511-2.369-2.656-5.279-3.438-8.73c-0.781-3.45-1.172-7.402-1.172-11.855c0-4.896,0.41-9.219,1.23-12.969
		s2.024-6.895,3.613-9.434c1.588-2.539,3.561-4.453,5.918-5.742c2.356-1.289,5.059-1.934,8.105-1.934
		C156.394,262.365,162.267,271.936,162.267,291.076z M155.704,291.701c0-15.938-3.789-23.906-11.367-23.906
		c-7.995,0-11.992,8.112-11.992,24.336c0,15.131,3.919,22.695,11.758,22.695C151.837,314.826,155.704,307.118,155.704,291.701z"/>
	<path fill="url(#retain_4B4B4B)" stroke="url(#retain_4B4B4B)" stroke-width="5" stroke-miterlimit="10" d="M369.142,319.318h-6.406V270.92
		c-0.495,0.495-1.218,1.062-2.168,1.699c-0.951,0.639-2.019,1.27-3.203,1.895c-1.186,0.625-2.436,1.211-3.75,1.758
		c-1.315,0.547-2.598,0.977-3.848,1.289v-6.484c1.406-0.391,2.896-0.918,4.473-1.582c1.575-0.664,3.125-1.406,4.648-2.227
		s2.962-1.68,4.316-2.578c1.354-0.898,2.525-1.777,3.516-2.637h2.422V319.318z"/>
	<path fill="url(#retain_4B4B4B)" stroke="url(#retain_4B4B4B)" stroke-width="5" stroke-miterlimit="10" d="M423.438,267.014
		c-0.859,1.484-1.895,3.334-3.105,5.547c-1.211,2.214-2.494,4.701-3.848,7.461c-1.354,2.761-2.734,5.729-4.141,8.906
		c-1.406,3.178-2.722,6.459-3.945,9.844c-1.225,3.386-2.299,6.816-3.223,10.293c-0.925,3.477-1.596,6.895-2.012,10.254h-6.875
		c0.469-3.333,1.191-6.738,2.168-10.215s2.083-6.888,3.32-10.234c1.236-3.346,2.545-6.568,3.926-9.668
		c1.38-3.099,2.721-5.95,4.023-8.555c1.302-2.604,2.493-4.902,3.574-6.895c1.08-1.992,1.946-3.548,2.598-4.668h-28.086v-5.781
		h35.625V267.014z"/>
</g>
<g>
	<path fill="url(#retain_4B4B4B)" stroke="url(#retain_4B4B4B)" stroke-width="5" stroke-miterlimit="10" d="M322.704,409.459
		c-6.532,0-9.931,2.04-12.931,3.838c-2.683,1.611-4.803,2.883-9.472,2.883c-4.669,0-6.789-1.271-9.472-2.883
		c-2.999-1.798-6.399-3.838-12.93-3.838s-9.929,2.04-12.929,3.838c-2.683,1.611-4.803,2.883-9.472,2.883
		c-4.669,0-6.789-1.271-9.472-2.883c-2.999-1.798-6.399-3.838-12.929-3.838c-6.532,0-9.931,2.04-12.93,3.838
		c-2.681,1.611-4.801,2.883-9.47,2.883c-4.669,0-6.789-1.271-9.472-2.883c-2.999-1.798-6.399-3.838-12.929-3.838
		c-1.856,0-3.36,1.505-3.36,3.36c0,1.856,1.505,3.36,3.36,3.36c4.669,0,6.788,1.272,9.472,2.881
		c2.999,1.798,6.397,3.839,12.929,3.839c6.532,0,9.93-2.041,12.929-3.839c2.683-1.61,4.803-2.881,9.472-2.881
		s6.788,1.272,9.47,2.881c2.999,1.798,6.399,3.839,12.93,3.839c6.53,0,9.93-2.041,12.929-3.839c2.684-1.61,4.803-2.881,9.472-2.881
		c4.669,0,6.789,1.272,9.474,2.881c2.999,1.798,6.399,3.839,12.929,3.839c6.532,0,9.931-2.039,12.93-3.839
		c2.683-1.61,4.803-2.881,9.472-2.881c1.856,0,3.36-1.505,3.36-3.36C326.064,410.964,324.56,409.459,322.704,409.459
		L322.704,409.459z M322.704,409.459"/>
	<path fill="url(#retain_4B4B4B)" stroke="url(#retain_4B4B4B)" stroke-width="5" stroke-miterlimit="10" d="M322.704,429.621
		c-6.532,0-9.931,2.04-12.931,3.838c-2.683,1.611-4.803,2.883-9.472,2.883c-4.669,0-6.789-1.271-9.472-2.883
		c-2.999-1.798-6.399-3.838-12.93-3.838s-9.929,2.04-12.929,3.838c-2.683,1.611-4.803,2.883-9.472,2.883
		c-4.669,0-6.789-1.271-9.472-2.883c-2.999-1.798-6.399-3.838-12.929-3.838c-6.532,0-9.931,2.04-12.93,3.838
		c-2.681,1.611-4.801,2.883-9.47,2.883c-4.669,0-6.789-1.271-9.472-2.883c-2.999-1.798-6.399-3.838-12.929-3.838
		c-1.856,0-3.36,1.505-3.36,3.36c0,1.856,1.505,3.36,3.36,3.36c4.669,0,6.788,1.272,9.472,2.881
		c2.999,1.798,6.397,3.839,12.929,3.839c6.532,0,9.93-2.041,12.929-3.839c2.683-1.61,4.803-2.881,9.472-2.881
		s6.788,1.272,9.47,2.881c2.999,1.798,6.399,3.839,12.93,3.839c6.53,0,9.93-2.041,12.929-3.839c2.684-1.61,4.803-2.881,9.472-2.881
		c4.669,0,6.789,1.272,9.474,2.881c2.999,1.798,6.399,3.839,12.929,3.839c6.532,0,9.931-2.039,12.93-3.839
		c2.683-1.61,4.803-2.881,9.472-2.881c1.856,0,3.36-1.505,3.36-3.36C326.064,431.125,324.56,429.621,322.704,429.621
		L322.704,429.621z M322.704,429.621"/>
</g>
<path fill="url(#retain_4B4B4B)" stroke="url(#retain_4B4B4B)" stroke-width="6" stroke-miterlimit="10" d="M292.64,104.025c0-1.327-1.076-2.402-2.402-2.402
	h-6.947c-1.327,0-2.402,1.076-2.402,2.402c0,1.327,1.076,2.402,2.402,2.402h4.457c-1.174,15.92-13.925,28.67-29.845,29.844v-34.991
	h7.89c1.327,0,2.402-1.076,2.402-2.402c0-1.327-1.076-2.402-2.402-2.402h-7.89V85.551c4.425-1.082,7.72-5.078,7.72-9.832
	c0-5.581-4.54-10.122-10.122-10.122c-5.581,0-10.122,4.541-10.122,10.122c0,4.754,3.295,8.75,7.72,9.832v10.925h-7.891
	c-1.327,0-2.402,1.076-2.402,2.402c0,1.327,1.076,2.402,2.402,2.402h7.891v34.991c-15.919-1.175-28.671-13.925-29.845-29.844h4.457
	c1.327,0,2.402-1.076,2.402-2.402c0-1.327-1.076-2.402-2.402-2.402h-6.947c-1.327,0-2.402,1.076-2.402,2.402
	c0,9.921,3.863,19.247,10.878,26.262c6.445,6.445,14.843,10.227,23.86,10.799v4.109c0,1.327,1.076,2.402,2.402,2.402
	s2.402-1.076,2.402-2.402v-4.109c9.016-0.572,17.414-4.354,23.86-10.799C288.777,123.272,292.64,113.945,292.64,104.025z
	 M250.183,75.72c0-2.932,2.385-5.317,5.317-5.317c2.932,0,5.317,2.385,5.317,5.317c0,2.932-2.385,5.317-5.317,5.317
	C252.568,81.037,250.183,78.652,250.183,75.72z"/>
</svg>
