<?xml version="1.0" encoding="utf-8"?>
<!-- Generator: Adobe Illustrator 21.1.0, SVG Export Plug-In . SVG Version: 6.00 Build 0)  -->
<svg version="1.1" baseProfile="tiny" id="Слой_1"
	 xmlns="http://www.w3.org/2000/svg" xmlns:xlink="http://www.w3.org/1999/xlink" x="0px" y="0px" viewBox="0 0 512 512"
	 overflow="scroll" xml:space="preserve">
<g>
	<g>
		<path fill="#E51B46" d="M426.8,6.7l-2.7-1.9c-11.9-8.6-28.6-5.9-37.2,6l-11,15.3l-8-7.7c-9.7-9.4-25.4-9.1-34.7,0.6L331,21
			c-9.4,9.7-9.1,25.4,0.6,34.7l13.4,13l35.3,34.1c3.1,3,8,2.5,10.5-0.9L417,65.7l15.8-21.9C441.4,32,438.7,15.2,426.8,6.7z"/>
		<g>
			<path fill="#B41735" d="M357.9,71l-13.4-13c-9.7-9.4-10-25-0.6-34.8L346,21c4.2-4.3,9.6-6.8,15.2-7.3c-9.2-4.3-20.6-2.6-28.1,5.1
				L331,21c-9.4,9.7-9.1,25.4,0.6,34.7l13.4,13l35.3,34.1c2.9,2.8,7.5,2.5,10.1-0.5L357.9,71z"/>
			<path fill="#B41735" d="M376.2,26.1l8,7.7l15.6-20.9c4.8-6.6,12-10.3,19.5-10.9c-11.3-5-24.9-1.6-32.4,8.7l-6.7,9.3
				C380.4,20.2,376,25.9,376.2,26.1z"/>
		</g>
		<path fill="#EC6A8D" d="M422.4,30.5c-5,6.3-12.5,8.7-16.6,5.4c-4.2-3.3-3.5-11.1,1.6-17.4c5-6.3,12.5-8.7,16.6-5.4
			C428.1,16.4,427.4,24.2,422.4,30.5z"/>
	</g>
	<g>
		<g>
			<polygon fill="#F9DAE2" points="40,230.1 254.6,369.6 469.1,230.1 254.6,69.7 			"/>
			<path fill="#EC6A8D" d="M254.6,69.7l214.6,160.4L254.6,369.6L40,230.1L254.6,69.7 M254.6,67.1c-0.5,0-1.1,0.2-1.5,0.5L38.5,228
				c-0.7,0.5-1,1.3-1,2.1c0,0.8,0.5,1.6,1.2,2l214.6,139.6c0.4,0.3,0.9,0.4,1.4,0.4c0.5,0,1-0.1,1.4-0.4l214.6-139.6
				c0.7-0.5,1.1-1.2,1.2-2c0-0.8-0.4-1.6-1-2.1L256.1,67.6C255.7,67.3,255.1,67.1,254.6,67.1L254.6,67.1z"/>
		</g>
		<polygon fill="#FADCEB" points="254.9,87.4 456.8,238.3 469.4,230.1 254.9,69.7 40.3,230.1 53,238.3 		"/>
		<polygon fill="#F8CBD8" points="254.6,336.4 64.3,211.8 48.6,223.6 254.6,358.3 461.2,224.1 445.5,212.3 		"/>
		<g>
			<polygon fill="#FBECEF" points="40,230.1 40,509.2 254.6,369.6 			"/>
			<path fill="#EC6A8D" d="M40,230.1l214.6,139.6L40,509.2V230.1 M40,227.5c-0.4,0-0.8,0.1-1.2,0.3c-0.8,0.4-1.3,1.3-1.3,2.2v279.1
				c0,0.9,0.5,1.8,1.3,2.2c0.4,0.2,0.8,0.3,1.2,0.3c0.5,0,1-0.1,1.4-0.4L256,371.7c0.7-0.5,1.2-1.3,1.2-2.1s-0.4-1.7-1.2-2.1
				L41.4,227.9C41,227.7,40.5,227.5,40,227.5L40,227.5z"/>
		</g>
		<polygon fill="#F8CBD8" points="64.3,245.7 40.2,230.1 40.2,509.2 64.3,493.5 		"/>
		<g>
			<polygon fill="#FBECEF" points="254.6,369.6 469.1,509.2 469.1,230.1 			"/>
			<path fill="#EC6A8D" d="M469.1,230.1v279.1L254.6,369.6L469.1,230.1 M469.1,227.5c-0.5,0-1,0.1-1.4,0.4L253.2,367.5
				c-0.7,0.5-1.2,1.3-1.2,2.1s0.4,1.7,1.2,2.1l214.6,139.6c0.4,0.3,0.9,0.4,1.4,0.4c0.4,0,0.8-0.1,1.2-0.3c0.8-0.4,1.3-1.3,1.3-2.2
				V230.1c0-0.9-0.5-1.8-1.3-2.2C470,227.6,469.6,227.5,469.1,227.5L469.1,227.5z"/>
		</g>
		<polygon fill="#F8CBD8" points="448.4,243.5 448.4,495.7 469.1,509.2 469.1,230.1 		"/>
		<g>
			<polygon fill="#FBECEF" points="40,509.2 469.1,509.2 254.6,369.6 			"/>
			<path fill="#EC6A8D" d="M254.6,369.6l214.6,139.6H40L254.6,369.6 M254.6,367.1c-0.5,0-1,0.1-1.4,0.4L38.7,507.1
				c-0.9,0.6-1.4,1.8-1,2.8c0.3,1.1,1.3,1.8,2.4,1.8h429.1c1.1,0,2.1-0.7,2.4-1.8c0.3-1.1-0.1-2.2-1-2.8L256,367.5
				C255.6,367.2,255.1,367.1,254.6,367.1L254.6,367.1z"/>
		</g>
		<polygon fill="#F8CBD8" points="66.4,492.1 40,509.2 469.1,509.2 442.8,492.1 		"/>
	</g>
	<g>
		<path fill="#E51B46" d="M276.1,139.6l-1.9-4.1c-8.4-18-30.1-25.9-48.1-17.4L202.9,129l-4.4-14.5c-5.3-17.6-24.1-27.6-41.7-22.3
			l-4,1.2c-17.6,5.3-27.6,24.1-22.3,41.7l7.4,24.3l19.4,63.9c1.7,5.5,7.9,8.3,13.1,5.8l55-25.8l33.2-15.6
			C276.7,179.3,284.6,157.7,276.1,139.6z"/>
		<g>
			<path fill="#B41735" d="M151.8,170.5l-7.4-24.3c-5.3-17.6,4.7-36.3,22.3-41.7l4-1.2c7.8-2.4,15.9-1.7,22.9,1.3
				c-8.1-11.2-22.8-16.6-36.7-12.4l-4,1.2c-17.6,5.3-27.6,24.1-22.3,41.7l7.4,24.3l19.4,63.9c1.6,5.3,7.3,7.9,12.3,6.1L151.8,170.5z
				"/>
			<path fill="#B41735" d="M203.2,129.3l4.4,14.5l32.3-14.5c10-4.7,21.1-4.3,30.4-0.1c-10.1-13.4-28.6-18.4-44.3-11l-14.1,6.6
				C212.1,125.1,203.1,129,203.2,129.3z"/>
		</g>
		<path fill="#EC6A8D" d="M255.1,165c-10.1,4.2-20.6,2.1-23.3-4.6c-2.8-6.7,3.2-15.5,13.4-19.7c10.1-4.2,20.6-2.1,23.3,4.6
			C271.2,152.1,265.2,160.9,255.1,165z"/>
	</g>
	<g>
		<path fill="#E51B46" d="M294,295l-3.4-1.7c-15.1-7.7-33.8-1.6-41.5,13.5l-9.9,19.5l-10.5-7.4c-12.8-9-30.7-5.9-39.7,6.9l-2,2.9
			c-9,12.8-5.9,30.7,6.9,39.7l17.7,12.5l46.5,32.8c4,2.8,9.6,1.4,11.9-2.9l23.5-46.1l14.2-27.9C315.2,321.4,309.1,302.7,294,295z"/>
		<g>
			<path fill="#B41735" d="M249.3,333.4l12.7-25.2c4.9-9.6,14.2-15.6,24.3-16.6c-14.2-4.7-30.2,1.5-37.2,15.3l-9.8,19.6L249.3,333.4
				z"/>
			<path fill="#B41735" d="M224.4,382.1l-17.7-12.5c-12.8-9-15.9-26.9-6.9-39.7l2-2.9c4.8-6.8,12.1-10.7,19.7-11.7
				c-11.7-4.1-25.2-0.3-32.7,10.3l-2,2.9c-9,12.8-5.9,30.7,6.9,39.7l17.7,12.5l46.5,32.8c3.2,2.2,7.3,1.8,10.1-0.6L224.4,382.1z"/>
		</g>
		
			<ellipse transform="matrix(0.5438 -0.8392 0.8392 0.5438 -144.6529 382.5461)" fill="#EC6A8D" cx="279.5" cy="324.3" rx="19.8" ry="10.4"/>
	</g>
</g>
</svg>
