<?xml version="1.0" encoding="utf-8"?>
<!-- Generator: Adobe Illustrator 21.1.0, SVG Export Plug-In . SVG Version: 6.00 Build 0)  -->
<svg version="1.1" baseProfile="tiny" id="Слой_1"
	 xmlns="http://www.w3.org/2000/svg" xmlns:xlink="http://www.w3.org/1999/xlink" x="0px" y="0px" viewBox="0 0 512 512"
	 overflow="scroll" xml:space="preserve">
<g>
	<path fill="#E4E7E7" d="M259.9,210.5c-1.6-0.6-3.4-0.6-5.1,0L56.6,284.8c0,0-11.9,75.3,83.7,167.3h234.2
		c95.5-92,83.7-167.3,83.7-167.3L259.9,210.5L259.9,210.5z M259.9,210.5"/>
	<path fill="#E4E7E7" d="M289.2,122.6h-63.7V53.2c0-10.1,8.3-18.4,18.4-18.4h26.9c10.2,0,18.4,8.3,18.4,18.4V122.6z M299.2,122.6"/>
	<path fill="#DDE0E0" d="M270.8,34.8h-13.4v87.7h31.8V53.2C289.2,43.1,281,34.8,270.8,34.8L270.8,34.8z M270.8,34.8"/>
	<path fill="#B3B3B3" d="M254.8,210.5c1.6-0.6,3.4-0.6,5.1,0l156.4,58.7V138.3c0-8.7-7-15.7-15.7-15.7H114.1
		c-8.7,0-15.7,7-15.7,15.7v130.8L254.8,210.5z M254.8,210.5"/>
	<path fill="#DDE0E0" d="M259.9,210.5c-0.8-0.3-1.7-0.4-2.5-0.4v242.1h117.1c95.5-92,83.7-167.3,83.7-167.3L259.9,210.5L259.9,210.5
		z M259.9,210.5"/>
	<image width="471" height="492" xlink:href="7F46E784.png"  transform="matrix(1 0 0 1 14 46)">
	</image>
</g>
<path fill="#8FE5F7" d="M505.2,455.7l-32-18.5c-23.6-15.1-52.7-15-76.2,0.2l-0.8,0.6c-11.9,7.7-26.4,8.4-38.7,2.2c0,0-0.1,0-0.1-0.1
	l-3.8-2.2l-0.3-0.2c-2.8-1.8-5.7-3.4-8.6-4.8c-0.2-0.1-0.4-0.2-0.6-0.3c-21.9-10.2-47.1-8.6-67.9,4.9l-0.8,0.6
	c-4.1,2.6-8.4,4.5-12.9,5.5c-0.1,0-0.2,0-0.2,0c-9.5,1.7-19.5-0.2-28.1-5.7c-10.8-7-22.7-10.8-34.8-11.4c-0.1,0-0.2,0-0.4,0
	c-14.8-1-29.9,2.7-43.2,11.3l-0.1,0.1c-13.1,8.5-29.4,8.5-42.5,0c-10.8-7-22.7-10.8-34.8-11.4C40.4,429.1,6.9,456,6.9,456
	c-6.7,4.8-8.9,13.6-5.1,20.4c3.2,5.8,14.4,7.2,22.2,3.7l29.4-18.4c13.1-8.5,29.4-8.5,42.5,0c7.9,5.1,16.4,8.5,25,10.2
	c17.5,3.4,35.8,0,51.6-10.2l0.1-0.1c7.4-4.8,15.7-6.9,24-6.3h0c6.4,0.5,12.7,2.6,18.4,6.3l0.5,0.3c16,10.4,34.7,13.7,52.4,10
	c8.8-1.7,17.5-5.1,25.5-10.3l0.1-0.1c11.5-7.4,25.4-8.4,37.4-2.8c0.3,0.1,0.6,0.3,0.9,0.4c1.3,0.6,2.5,1.4,3.7,2.1l0.4,0.2l0.6,0.3
	c0,0,0.1,0.1,0.2,0.1c1.8,1.2,3.6,2.2,5.5,3.2c0,0,0,0,0,0c15.2,8.1,32.4,10.1,48.6,6.3c7.8-1.8,15.3-5.1,22.4-9.6l0.8-0.6
	c13.1-8.5,29.4-8.5,42.5,0l0.4,0.2l31.8,18.6c5,2.3,17.3,3.6,21.6-5.1C513,469.8,513.2,460.3,505.2,455.7z"/>
<path display="none" fill="#4DA6FF" d="M436,415.5l3.8-15.6l12.3-51.6c1.2-6.3-1.2-12.6-6.3-16.2c-36.9-24.6-5.4-3-180-119.4
	c-3.5-1.3-5.9-2.6-8.4-2.6c-2.9,0-8.4,2.6-8.4,2.7L56.6,284.8c-0.2,4.4-1.2,10,0,16.3l11.7,49.3l7.3,15.9l181.8-71.7L436,415.5z"/>
<path fill="#8FE5F7" d="M384.2,162.6c0,3.3-2.7,6.1-6.1,6.1h-241c-3.3,0-6.1-2.7-6.1-6.1s2.7-6.1,6.1-6.1h241
	C381.5,156.5,384.2,159.2,384.2,162.6z"/>
<path fill="#8FE5F7" d="M384.2,186.6c0,3.3-2.7,6.1-6.1,6.1h-241c-3.3,0-6.1-2.7-6.1-6.1s2.7-6.1,6.1-6.1h241
	C381.5,180.5,384.2,183.2,384.2,186.6z"/>
<path fill="#4363AD" d="M289.2,62.6h-63.7v-9.4c0-10.1,8.3-18.4,18.4-18.4h26.9c10.2,0,18.4,8.3,18.4,18.4V62.6z M299.2,122.6"/>
</svg>
