<?xml version="1.0" encoding="utf-8"?>
<!-- Generator: Adobe Illustrator 21.1.0, SVG Export Plug-In . SVG Version: 6.00 Build 0)  -->
<svg version="1.1" baseProfile="tiny" id="Слой_1"
	 xmlns="http://www.w3.org/2000/svg" xmlns:xlink="http://www.w3.org/1999/xlink" x="0px" y="0px" viewBox="0 0 512 512"
	 overflow="scroll" xml:space="preserve">
<g>
	<path fill="#FFCE00" d="M472.8,279.3C511,259,512,223.9,512,223.9c-17.3,23.4-57.5,12.7-79.9,0c-4.9-2.8-9.7-3.8-14.5-4
		c7.7-5.4,15.1-12.4,21.3-20.3c23.7-29.6,12.4-58.3,12.4-58.3c-5.3,22.7-35.7,29-58.1,28.1c14.3-10.1,26-29.3,32.4-50.2
		c12.6-41.3-11.5-66.9-11.5-66.9c4.3,28.8-31.6,49.6-56.4,56.5c-5.4,1.5-9.6,4.2-13,7.4c1.6-9.3,1.8-19.4,0.7-29.4
		c-4.1-37.7-32.5-50-32.5-50c12.3,19.8-4.8,45.8-21.2,61c3-17.2-2.3-39.1-12.6-58.4C258.7,1.3,223.6,0.3,223.6,0.3
		c23.4,17.3,12.7,57.5,0,79.9c-2.8,4.9-3.8,9.7-4,14.5c-5.4-7.7-12.4-15.1-20.3-21.3C169.7,49.5,141,60.9,141,60.9
		c22.7,5.3,29,35.8,28.1,58.1c-10.1-14.3-29.3-26-50.2-32.3C77.6,74.1,52.1,98.2,52.1,98.2c28.8-4.3,49.6,31.7,56.5,56.5
		c1.5,5.4,4.2,9.6,7.4,13c-9.3-1.6-19.4-1.8-29.4-0.7c-37.7,4.2-50,32.5-50,32.5c19.8-12.3,45.8,4.8,61,21.3
		c-17.2-3-39.1,2.4-58.3,12.6C1,253.6,0,288.7,0,288.7c17.3-23.4,57.5-12.7,79.9,0c4.9,2.8,9.7,3.8,14.5,4
		c-7.7,5.4-15.1,12.4-21.3,20.3c-23.7,29.6-12.4,58.3-12.4,58.3c5.3-22.7,35.7-29,58.1-28.1c-14.3,10.1-26,29.3-32.3,50.2
		c-12.6,41.3,11.5,66.9,11.5,66.9c-4.3-28.8,31.7-49.6,56.4-56.5c5.4-1.5,9.6-4.2,13-7.4c-1.6,9.3-1.8,19.4-0.7,29.4
		c4.1,37.7,32.5,50,32.5,50c-12.3-19.8,4.8-45.8,21.2-61c-3,17.2,2.4,39.1,12.6,58.4c20.3,38.1,55.4,39.2,55.4,39.2
		c-23.4-17.3-12.7-57.5,0-79.9c2.8-4.9,3.8-9.7,4-14.4c5.4,7.7,12.4,15,20.3,21.3c29.6,23.7,58.3,12.4,58.3,12.4
		c-22.7-5.3-29-35.8-28.1-58.1c10.1,14.3,29.3,26,50.2,32.4c41.3,12.6,66.9-11.5,66.9-11.5c-28.8,4.3-49.6-31.6-56.5-56.5
		c-1.5-5.4-4.2-9.6-7.4-13c9.3,1.6,19.4,1.8,29.4,0.7c37.7-4.2,50-32.5,50-32.5c-19.8,12.3-45.8-4.8-60.9-21.3
		C431.7,294.9,453.6,289.6,472.8,279.3z M254,410.3c-85.6,0-155.1-69.4-155.1-155.1c0-85.6,69.4-155.1,155.1-155.1
		c85.6,0,155.1,69.4,155.1,155.1C409.1,340.9,339.6,410.3,254,410.3z"/>
	<path fill="#FFCE00" d="M390.5,255.2c0,75.4-61.1,136.5-136.5,136.5c-75.4,0-136.5-61.1-136.5-136.5c0-75.4,61.1-136.5,136.5-136.5
		C329.4,118.7,390.5,179.8,390.5,255.2z"/>
	<path fill="#FFF200" d="M369.1,260.6c-15.5,52.1-75.6,80.3-134.2,62.9c-58.6-17.4-93.6-73.8-78.1-125.9
		c15.5-52.1,75.6-80.3,134.2-62.9C349.6,152,384.6,208.4,369.1,260.6z"/>
</g>
</svg>
