<?xml version="1.0" encoding="UTF-8" standalone="no"?>
<svg xmlns="http://www.w3.org/2000/svg" xmlns:xlink="http://www.w3.org/1999/xlink" viewBox="0 0 520 380" fill="#FFFFFF" stroke="#000000" stroke-width="2" stroke-opacity="1.0" fill-opacity="1.0" >

    <adjustablePoint id="mid"   posX="125" posY="315" minX="35" maxX="485" minY="35" maxY="345"/>
    <adjustablePoint id="small" posX="95"  posY="345" minX="25" maxX="495" minY="25" maxY="355"/>

    <g transform="translate(25, 25) scale(1.4 1.4)">
        <path d="m 142,192 c -33.491443,14.19493 -57.742423,5.23681 -69.700533,-23.23351 -26.06424,3.75529 -44.3079901,-16.2163 -32.32488,-40.4061 -21.09178009,-10.81529 -22.0759601,-46.354324 16.16244,-53.538094 -11.02256,-30.56703 27.25937,-59.27457 63.639613,-42.4264 16.45288,-16.24863 34.74085,-22.40424 56.56855,-9.09138 16.20329,-17.6924905 33.6314,-20.6872505 52.52793,-6.06091 20.60716,-18.6376405 46.69819,-17.38108045 54.54824,15.15229 24.35161,5.72865 27.58291,32.79157 18.18274,39.39595 22.01429,14.77533 7.90369,56.675914 -18.18274,53.538084 10.38196,25.11505 -9.55124,59.37343 -48.48733,47.47717 -15.11574,36.21149 -61.01283,44.78534 -92.93403,19.1929 z" />
    </g>

    <ellipse
        cx="mid.posX"
        cy="mid.posY"
        rx="25"
        ry="25" />

    <ellipse
        cx="small.posX"
        cy="small.posY"
        rx="15"
        ry="15" />

</svg>
