<?xml version="1.0" encoding="utf-8"?>
<!-- Generator: Adobe Illustrator 21.1.0, SVG Export Plug-In . SVG Version: 6.00 Build 0)  -->
<svg version="1.1" baseProfile="tiny" id="Слой_1"
	 xmlns="http://www.w3.org/2000/svg" xmlns:xlink="http://www.w3.org/1999/xlink" x="0px" y="0px" viewBox="0 0 512 512"
	 overflow="scroll" xml:space="preserve">
<g>
	<path fill="#FFFFFF" d="M403.1,340.6c11.6,0,21,9.4,21,21c0,11.6-9.4,21-21,21c-11.6,0-21-9.4-21-21
		C382.2,350,391.6,340.6,403.1,340.6L403.1,340.6z M403.1,340.6"/>
	<path fill="#FFFFFF" d="M107.3,340.6c11.6,0,21,9.4,21,21c0,11.6-9.4,21-21,21c-11.6,0-21-9.4-21-21
		C86.4,350,95.7,340.6,107.3,340.6L107.3,340.6z M107.3,340.6"/>
	<rect x="90.4" y="451.7" fill="#B3B3B3" width="329.5" height="32.6"/>
	<path fill="#E6E6E6" d="M419.7,420l43.9,92.7h-43L385.7,420H401c6.2,0,12.3-0.9,17.9-2.6L419.7,420z M419.7,420"/>
	<path fill="#E6E6E6" d="M124.7,420l-34.8,92.7h-43L90.8,420l0.8-2.6c5.7,1.7,11.7,2.6,17.9,2.6H124.7z M124.7,420"/>
</g>
<path fill="#EA4344" d="M384.4,0.7H127.6C79.2,0.7,40,39.9,40,88.3L28.3,334.7c0,48.3,39.2,87.6,87.6,87.6h280.3
	c48.3,0,87.6-39.2,87.6-87.6L472,88.3C472,39.9,432.8,0.7,384.4,0.7z"/>
<path fill="#E5353E" d="M472,88.3l11.7,246.4c0,48.3-39.2,87.6-87.6,87.6H256V0.7h128.4C432.8,0.7,472,39.9,472,88.3z"/>
<path fill="#8FE5F7" d="M444.1,88.5L401,217.7c-11.1,27.7-37.9,46.8-67.7,46.8H178.7c-29.7,0-56.6-19.1-67.7-46.8L67.9,88.5H444.1z"
	/>
<path fill="#70D3E0" d="M444.1,88.5L401,217.7c-11.1,27.7-37.9,46.8-67.7,46.8H256v-176H444.1z"/>
<path fill="#EBEBEB" d="M396.1,352.2h-35c-9.7,0-17.5-7.8-17.5-17.5s7.8-17.5,17.5-17.5h35c9.7,0,17.5,7.8,17.5,17.5
	S405.8,352.2,396.1,352.2z"/>
<path fill="#EBEBEB" d="M150.9,352.2h-35c-9.7,0-17.5-7.8-17.5-17.5s7.8-17.5,17.5-17.5h35c9.7,0,17.5,7.8,17.5,17.5
	S160.6,352.2,150.9,352.2z"/>
<path fill="#FFB92C" d="M318.6,51.6H193.8c-4.3,0-7.8-3.5-7.8-7.8c0-4.3,3.5-7.8,7.8-7.8h124.8c4.3,0,7.8,3.5,7.8,7.8
	C326.4,48.1,322.9,51.6,318.6,51.6L318.6,51.6z M318.6,51.6"/>
</svg>
